<?xml version="1.0" encoding="UTF-8" standalone="no"?>
<!DOCTYPE svg PUBLIC "-//W3C//DTD SVG 1.1//EN"
 "http://www.w3.org/Graphics/SVG/1.1/DTD/svg11.dtd">
<!-- Generated by graphviz version 2.26.3 (20100126.1600)
 -->
<!-- Title: ApplicationDescriptionBase.cpp Pages: 1 -->
<svg width="931pt" height="146pt"
 viewBox="0.00 0.00 931.00 146.00" xmlns="http://www.w3.org/2000/svg" xmlns:xlink="http://www.w3.org/1999/xlink">
<g id="graph1" class="graph" transform="scale(1 1) rotate(0) translate(4 142)">
<title>ApplicationDescriptionBase.cpp</title>
<polygon fill="white" stroke="white" points="-4,5 -4,-142 928,-142 928,5 -4,5"/>
<!-- Node1 -->
<g id="node1" class="node"><title>Node1</title>
<polygon fill="#bfbfbf" stroke="black" points="81.5,-116.5 81.5,-137.5 246.5,-137.5 246.5,-116.5 81.5,-116.5"/>
<text text-anchor="middle" x="164" y="-124.5" font-family="Helvetica,sans-Serif" font-size="10.00">ApplicationDescriptionBase.cpp</text>
</g>
<!-- Node2 -->
<g id="node3" class="node"><title>Node2</title>
<polygon fill="white" stroke="#bfbfbf" points="0,-58.5 0,-79.5 72,-79.5 72,-58.5 0,-58.5"/>
<text text-anchor="middle" x="36" y="-66.5" font-family="Helvetica,sans-Serif" font-size="10.00">cjson/json.h</text>
</g>
<!-- Node1&#45;&gt;Node2 -->
<g id="edge2" class="edge"><title>Node1&#45;&gt;Node2</title>
<path fill="none" stroke="midnightblue" d="M140.82,-116.497C120.648,-107.356 91.1904,-94.0082 68.6362,-83.7883"/>
<polygon fill="midnightblue" stroke="midnightblue" points="69.9931,-80.5606 59.4399,-79.6212 67.1039,-86.9366 69.9931,-80.5606"/>
</g>
<!-- Node3 -->
<g id="node5" class="node"><title>Node3</title>
<polygon fill="white" stroke="#bfbfbf" points="89.5,-58.5 89.5,-79.5 136.5,-79.5 136.5,-58.5 89.5,-58.5"/>
<text text-anchor="middle" x="113" y="-66.5" font-family="Helvetica,sans-Serif" font-size="10.00">stdio.h</text>
</g>
<!-- Node1&#45;&gt;Node3 -->
<g id="edge4" class="edge"><title>Node1&#45;&gt;Node3</title>
<path fill="none" stroke="midnightblue" d="M154.646,-116.362C147.457,-108.186 137.359,-96.7025 128.907,-87.0907"/>
<polygon fill="midnightblue" stroke="midnightblue" points="131.527,-84.7692 122.295,-79.5707 126.27,-89.3916 131.527,-84.7692"/>
</g>
<!-- Node4 -->
<g id="node7" class="node"><title>Node4</title>
<a xlink:href="Common_8h.htm" target="_top" xlink:title="Common.h">
<polygon fill="white" stroke="black" points="146.5,-0.5 146.5,-21.5 213.5,-21.5 213.5,-0.5 146.5,-0.5"/>
<text text-anchor="middle" x="180" y="-8.5" font-family="Helvetica,sans-Serif" font-size="10.00">Common.h</text>
</a>
</g>
<!-- Node1&#45;&gt;Node4 -->
<g id="edge6" class="edge"><title>Node1&#45;&gt;Node4</title>
<path fill="none" stroke="midnightblue" d="M165.477,-116.295C168.12,-97.1314 173.703,-56.654 177.125,-31.8434"/>
<polygon fill="midnightblue" stroke="midnightblue" points="180.628,-32.0637 178.527,-21.6792 173.693,-31.1072 180.628,-32.0637"/>
</g>
<!-- Node5 -->
<g id="node9" class="node"><title>Node5</title>
<a xlink:href="ApplicationDescriptionBase_8h.htm" target="_top" xlink:title="ApplicationDescriptionBase.h">
<polygon fill="white" stroke="black" points="192,-58.5 192,-79.5 346,-79.5 346,-58.5 192,-58.5"/>
<text text-anchor="middle" x="269" y="-66.5" font-family="Helvetica,sans-Serif" font-size="10.00">ApplicationDescriptionBase.h</text>
</a>
</g>
<!-- Node1&#45;&gt;Node5 -->
<g id="edge8" class="edge"><title>Node1&#45;&gt;Node5</title>
<path fill="none" stroke="midnightblue" d="M183.259,-116.362C199.466,-107.409 222.853,-94.4908 241.109,-84.4064"/>
<polygon fill="midnightblue" stroke="midnightblue" points="242.802,-87.4696 249.863,-79.5707 239.418,-81.3422 242.802,-87.4696"/>
</g>
<!-- Node7 -->
<g id="node14" class="node"><title>Node7</title>
<a xlink:href="Utils_8h.htm" target="_top" xlink:title="Utils.h">
<polygon fill="white" stroke="black" points="480.5,-58.5 480.5,-79.5 525.5,-79.5 525.5,-58.5 480.5,-58.5"/>
<text text-anchor="middle" x="503" y="-66.5" font-family="Helvetica,sans-Serif" font-size="10.00">Utils.h</text>
</a>
</g>
<!-- Node1&#45;&gt;Node7 -->
<g id="edge14" class="edge"><title>Node1&#45;&gt;Node7</title>
<path fill="none" stroke="midnightblue" d="M225.39,-116.497C297.269,-104.199 413.665,-84.2845 470.154,-74.6196"/>
<polygon fill="midnightblue" stroke="midnightblue" points="471.036,-78.0198 480.302,-72.8834 469.855,-71.12 471.036,-78.0198"/>
</g>
<!-- Node5&#45;&gt;Node4 -->
<g id="edge12" class="edge"><title>Node5&#45;&gt;Node4</title>
<path fill="none" stroke="midnightblue" d="M252.676,-58.3619C239.252,-49.6138 220.017,-37.0786 204.707,-27.1015"/>
<polygon fill="midnightblue" stroke="midnightblue" points="206.509,-24.0982 196.22,-21.5707 202.688,-29.9628 206.509,-24.0982"/>
</g>
<!-- Node6 -->
<g id="node11" class="node"><title>Node6</title>
<polygon fill="white" stroke="#bfbfbf" points="230.5,-0.5 230.5,-21.5 273.5,-21.5 273.5,-0.5 230.5,-0.5"/>
<text text-anchor="middle" x="252" y="-8.5" font-family="Helvetica,sans-Serif" font-size="10.00">string</text>
</g>
<!-- Node5&#45;&gt;Node6 -->
<g id="edge10" class="edge"><title>Node5&#45;&gt;Node6</title>
<path fill="none" stroke="midnightblue" d="M265.882,-58.3619C263.677,-50.8401 260.652,-40.5187 257.988,-31.4308"/>
<polygon fill="midnightblue" stroke="midnightblue" points="261.27,-30.1825 255.098,-21.5707 254.552,-32.1514 261.27,-30.1825"/>
</g>
<!-- Node7&#45;&gt;Node4 -->
<g id="edge16" class="edge"><title>Node7&#45;&gt;Node4</title>
<path fill="none" stroke="midnightblue" d="M480.286,-65.9124C433.867,-59.4516 324.626,-43.4764 223.895,-22.2841"/>
<polygon fill="midnightblue" stroke="midnightblue" points="224.373,-18.8074 213.863,-20.1498 222.916,-25.6542 224.373,-18.8074"/>
</g>
<!-- Node7&#45;&gt;Node6 -->
<g id="edge20" class="edge"><title>Node7&#45;&gt;Node6</title>
<path fill="none" stroke="midnightblue" d="M480.469,-65.2989C441.857,-58.7255 360.469,-43.8643 283.374,-22.1281"/>
<polygon fill="midnightblue" stroke="midnightblue" points="284.086,-18.6915 273.509,-19.3015 282.158,-25.4207 284.086,-18.6915"/>
</g>
<!-- Node8 -->
<g id="node17" class="node"><title>Node8</title>
<polygon fill="white" stroke="#bfbfbf" points="511,-0.5 511,-21.5 555,-21.5 555,-0.5 511,-0.5"/>
<text text-anchor="middle" x="533" y="-8.5" font-family="Helvetica,sans-Serif" font-size="10.00">time.h</text>
</g>
<!-- Node7&#45;&gt;Node8 -->
<g id="edge18" class="edge"><title>Node7&#45;&gt;Node8</title>
<path fill="none" stroke="midnightblue" d="M508.502,-58.3619C512.52,-50.5949 518.081,-39.8426 522.89,-30.5458"/>
<polygon fill="midnightblue" stroke="midnightblue" points="526.047,-32.0608 527.532,-21.5707 519.829,-28.8448 526.047,-32.0608"/>
</g>
<!-- Node9 -->
<g id="node20" class="node"><title>Node9</title>
<polygon fill="white" stroke="#bfbfbf" points="573,-0.5 573,-21.5 619,-21.5 619,-0.5 573,-0.5"/>
<text text-anchor="middle" x="596" y="-8.5" font-family="Helvetica,sans-Serif" font-size="10.00">vector</text>
</g>
<!-- Node7&#45;&gt;Node9 -->
<g id="edge22" class="edge"><title>Node7&#45;&gt;Node9</title>
<path fill="none" stroke="midnightblue" d="M520.058,-58.3619C534.085,-49.6138 554.184,-37.0786 570.182,-27.1015"/>
<polygon fill="midnightblue" stroke="midnightblue" points="572.418,-29.8323 579.051,-21.5707 568.713,-23.8927 572.418,-29.8323"/>
</g>
<!-- Node10 -->
<g id="node22" class="node"><title>Node10</title>
<polygon fill="white" stroke="#bfbfbf" points="637,-0.5 637,-21.5 691,-21.5 691,-0.5 637,-0.5"/>
<text text-anchor="middle" x="664" y="-8.5" font-family="Helvetica,sans-Serif" font-size="10.00">sstream</text>
</g>
<!-- Node7&#45;&gt;Node10 -->
<g id="edge24" class="edge"><title>Node7&#45;&gt;Node10</title>
<path fill="none" stroke="midnightblue" d="M525.726,-60.813C552.084,-51.3175 595.909,-35.5298 627.154,-24.2737"/>
<polygon fill="midnightblue" stroke="midnightblue" points="628.597,-27.4742 636.819,-20.792 626.224,-20.8885 628.597,-27.4742"/>
</g>
<!-- Node11 -->
<g id="node24" class="node"><title>Node11</title>
<polygon fill="white" stroke="#bfbfbf" points="708.5,-0.5 708.5,-21.5 765.5,-21.5 765.5,-0.5 708.5,-0.5"/>
<text text-anchor="middle" x="737" y="-8.5" font-family="Helvetica,sans-Serif" font-size="10.00">iostream</text>
</g>
<!-- Node7&#45;&gt;Node11 -->
<g id="edge26" class="edge"><title>Node7&#45;&gt;Node11</title>
<path fill="none" stroke="midnightblue" d="M525.554,-64.0416C560.545,-56.2589 630.227,-40.4017 698.329,-22.36"/>
<polygon fill="midnightblue" stroke="midnightblue" points="699.601,-25.643 708.361,-19.683 697.796,-18.8796 699.601,-25.643"/>
</g>
<!-- Node12 -->
<g id="node26" class="node"><title>Node12</title>
<polygon fill="white" stroke="#bfbfbf" points="783,-0.5 783,-21.5 835,-21.5 835,-0.5 783,-0.5"/>
<text text-anchor="middle" x="809" y="-8.5" font-family="Helvetica,sans-Serif" font-size="10.00">regex.h</text>
</g>
<!-- Node7&#45;&gt;Node12 -->
<g id="edge28" class="edge"><title>Node7&#45;&gt;Node12</title>
<path fill="none" stroke="midnightblue" d="M525.693,-66.1028C570.957,-60.1046 675.779,-45.116 772.769,-22.0699"/>
<polygon fill="midnightblue" stroke="midnightblue" points="773.831,-25.4142 782.732,-19.667 772.19,-18.6094 773.831,-25.4142"/>
</g>
<!-- Node13 -->
<g id="node28" class="node"><title>Node13</title>
<polygon fill="white" stroke="#bfbfbf" points="852.5,-0.5 852.5,-21.5 923.5,-21.5 923.5,-0.5 852.5,-0.5"/>
<text text-anchor="middle" x="888" y="-8.5" font-family="Helvetica,sans-Serif" font-size="10.00">QByteArray</text>
</g>
<!-- Node7&#45;&gt;Node13 -->
<g id="edge30" class="edge"><title>Node7&#45;&gt;Node13</title>
<path fill="none" stroke="midnightblue" d="M525.886,-66.7095C579.52,-61.1595 717.641,-45.8092 841.982,-22.2547"/>
<polygon fill="midnightblue" stroke="midnightblue" points="842.891,-25.6444 852.052,-20.323 841.572,-18.7697 842.891,-25.6444"/>
</g>
<!-- Node14 -->
<g id="node30" class="node"><title>Node14</title>
<polygon fill="white" stroke="#bfbfbf" points="291,-0.5 291,-21.5 329,-21.5 329,-0.5 291,-0.5"/>
<text text-anchor="middle" x="310" y="-8.5" font-family="Helvetica,sans-Serif" font-size="10.00">QUrl</text>
</g>
<!-- Node7&#45;&gt;Node14 -->
<g id="edge32" class="edge"><title>Node7&#45;&gt;Node14</title>
<path fill="none" stroke="midnightblue" d="M480.37,-63.2968C450.127,-55.5169 394.722,-40.7116 338.88,-22.0908"/>
<polygon fill="midnightblue" stroke="midnightblue" points="339.784,-18.7017 329.189,-18.8214 337.546,-25.3344 339.784,-18.7017"/>
</g>
<!-- Node15 -->
<g id="node32" class="node"><title>Node15</title>
<polygon fill="white" stroke="#bfbfbf" points="347,-0.5 347,-21.5 435,-21.5 435,-0.5 347,-0.5"/>
<text text-anchor="middle" x="391" y="-8.5" font-family="Helvetica,sans-Serif" font-size="10.00">QGraphicsItem</text>
</g>
<!-- Node7&#45;&gt;Node15 -->
<g id="edge34" class="edge"><title>Node7&#45;&gt;Node15</title>
<path fill="none" stroke="midnightblue" d="M482.718,-58.4966C465.382,-49.5194 440.21,-36.4835 420.62,-26.3387"/>
<polygon fill="midnightblue" stroke="midnightblue" points="421.999,-23.1118 411.51,-21.6212 418.78,-29.3278 421.999,-23.1118"/>
</g>
<!-- Node16 -->
<g id="node34" class="node"><title>Node16</title>
<polygon fill="white" stroke="#bfbfbf" points="452.5,-0.5 452.5,-21.5 493.5,-21.5 493.5,-0.5 452.5,-0.5"/>
<text text-anchor="middle" x="473" y="-8.5" font-family="Helvetica,sans-Serif" font-size="10.00">glib.h</text>
</g>
<!-- Node7&#45;&gt;Node16 -->
<g id="edge36" class="edge"><title>Node7&#45;&gt;Node16</title>
<path fill="none" stroke="midnightblue" d="M497.498,-58.3619C493.48,-50.5949 487.919,-39.8426 483.11,-30.5458"/>
<polygon fill="midnightblue" stroke="midnightblue" points="486.171,-28.8448 478.468,-21.5707 479.953,-32.0608 486.171,-28.8448"/>
</g>
</g>
</svg>
