<?xml version="1.0" encoding="UTF-8" standalone="no"?>
<!DOCTYPE svg PUBLIC "-//W3C//DTD SVG 1.1//EN"
 "http://www.w3.org/Graphics/SVG/1.1/DTD/svg11.dtd">
<!-- Generated by graphviz version 2.26.3 (20100126.1600)
 -->
<!-- Title: ApplicationDescription.h Pages: 1 -->
<svg width="162pt" height="146pt"
 viewBox="0.00 0.00 162.00 146.00" xmlns="http://www.w3.org/2000/svg" xmlns:xlink="http://www.w3.org/1999/xlink">
<g id="graph1" class="graph" transform="scale(1 1) rotate(0) translate(4 142)">
<title>ApplicationDescription.h</title>
<polygon fill="white" stroke="white" points="-4,5 -4,-142 159,-142 159,5 -4,5"/>
<!-- Node1 -->
<g id="node1" class="node"><title>Node1</title>
<polygon fill="#bfbfbf" stroke="black" points="12,-116.5 12,-137.5 142,-137.5 142,-116.5 12,-116.5"/>
<text text-anchor="middle" x="77" y="-124.5" font-family="Helvetica,sans-Serif" font-size="10.00">ApplicationDescription.h</text>
</g>
<!-- Node2 -->
<g id="node3" class="node"><title>Node2</title>
<a xlink:href="ApplicationDescriptionBase_8h.htm" target="_top" xlink:title="ApplicationDescriptionBase.h">
<polygon fill="white" stroke="black" points="0,-58.5 0,-79.5 154,-79.5 154,-58.5 0,-58.5"/>
<text text-anchor="middle" x="77" y="-66.5" font-family="Helvetica,sans-Serif" font-size="10.00">ApplicationDescriptionBase.h</text>
</a>
</g>
<!-- Node1&#45;&gt;Node2 -->
<g id="edge2" class="edge"><title>Node1&#45;&gt;Node2</title>
<path fill="none" stroke="midnightblue" d="M77,-116.362C77,-108.922 77,-98.7427 77,-89.7276"/>
<polygon fill="midnightblue" stroke="midnightblue" points="80.5001,-89.5706 77,-79.5707 73.5001,-89.5707 80.5001,-89.5706"/>
</g>
<!-- Node3 -->
<g id="node5" class="node"><title>Node3</title>
<polygon fill="white" stroke="#bfbfbf" points="19.5,-0.5 19.5,-21.5 62.5,-21.5 62.5,-0.5 19.5,-0.5"/>
<text text-anchor="middle" x="41" y="-8.5" font-family="Helvetica,sans-Serif" font-size="10.00">string</text>
</g>
<!-- Node2&#45;&gt;Node3 -->
<g id="edge4" class="edge"><title>Node2&#45;&gt;Node3</title>
<path fill="none" stroke="midnightblue" d="M70.397,-58.3619C65.5254,-50.5131 58.7616,-39.6159 52.95,-30.2527"/>
<polygon fill="midnightblue" stroke="midnightblue" points="55.8085,-28.2213 47.5611,-21.5707 49.861,-31.9129 55.8085,-28.2213"/>
</g>
<!-- Node4 -->
<g id="node7" class="node"><title>Node4</title>
<a xlink:href="Common_8h.htm" target="_top" xlink:title="Common.h">
<polygon fill="white" stroke="black" points="79.5,-0.5 79.5,-21.5 146.5,-21.5 146.5,-0.5 79.5,-0.5"/>
<text text-anchor="middle" x="113" y="-8.5" font-family="Helvetica,sans-Serif" font-size="10.00">Common.h</text>
</a>
</g>
<!-- Node2&#45;&gt;Node4 -->
<g id="edge6" class="edge"><title>Node2&#45;&gt;Node4</title>
<path fill="none" stroke="midnightblue" d="M83.603,-58.3619C88.4746,-50.5131 95.2384,-39.6159 101.05,-30.2527"/>
<polygon fill="midnightblue" stroke="midnightblue" points="104.139,-31.9129 106.439,-21.5707 98.1915,-28.2213 104.139,-31.9129"/>
</g>
</g>
</svg>
