<?xml version="1.0" encoding="UTF-8" standalone="no"?>
<!DOCTYPE svg PUBLIC "-//W3C//DTD SVG 1.1//EN"
 "http://www.w3.org/Graphics/SVG/1.1/DTD/svg11.dtd">
<!-- Generated by graphviz version 2.26.3 (20100126.1600)
 -->
<!-- Title: ApplicationDescription.cpp Pages: 1 -->
<svg width="262pt" height="204pt"
 viewBox="0.00 0.00 262.00 204.00" xmlns="http://www.w3.org/2000/svg" xmlns:xlink="http://www.w3.org/1999/xlink">
<g id="graph1" class="graph" transform="scale(1 1) rotate(0) translate(4 200)">
<title>ApplicationDescription.cpp</title>
<polygon fill="white" stroke="white" points="-4,5 -4,-200 259,-200 259,5 -4,5"/>
<!-- Node1 -->
<g id="node1" class="node"><title>Node1</title>
<polygon fill="#bfbfbf" stroke="black" points="-0.5,-174.5 -0.5,-195.5 140.5,-195.5 140.5,-174.5 -0.5,-174.5"/>
<text text-anchor="middle" x="70" y="-182.5" font-family="Helvetica,sans-Serif" font-size="10.00">ApplicationDescription.cpp</text>
</g>
<!-- Node2 -->
<g id="node3" class="node"><title>Node2</title>
<a xlink:href="Common_8h.htm" target="_top" xlink:title="Common.h">
<polygon fill="white" stroke="black" points="8.5,-0.5 8.5,-21.5 75.5,-21.5 75.5,-0.5 8.5,-0.5"/>
<text text-anchor="middle" x="42" y="-8.5" font-family="Helvetica,sans-Serif" font-size="10.00">Common.h</text>
</a>
</g>
<!-- Node1&#45;&gt;Node2 -->
<g id="edge2" class="edge"><title>Node1&#45;&gt;Node2</title>
<path fill="none" stroke="midnightblue" d="M54.7327,-174.196C44.1691,-165.719 30.9773,-152.886 25,-138 10.648,-102.257 23.4864,-56.7681 33.3002,-31.0667"/>
<polygon fill="midnightblue" stroke="midnightblue" points="36.6047,-32.2306 37.1053,-21.6476 30.1143,-29.6086 36.6047,-32.2306"/>
</g>
<!-- Node3 -->
<g id="node5" class="node"><title>Node3</title>
<polygon fill="white" stroke="#bfbfbf" points="34,-116.5 34,-137.5 106,-137.5 106,-116.5 34,-116.5"/>
<text text-anchor="middle" x="70" y="-124.5" font-family="Helvetica,sans-Serif" font-size="10.00">cjson/json.h</text>
</g>
<!-- Node1&#45;&gt;Node3 -->
<g id="edge4" class="edge"><title>Node1&#45;&gt;Node3</title>
<path fill="none" stroke="midnightblue" d="M70,-174.362C70,-166.922 70,-156.743 70,-147.728"/>
<polygon fill="midnightblue" stroke="midnightblue" points="73.5001,-147.571 70,-137.571 66.5001,-147.571 73.5001,-147.571"/>
</g>
<!-- Node4 -->
<g id="node7" class="node"><title>Node4</title>
<a xlink:href="ApplicationDescription_8h.htm" target="_top" xlink:title="ApplicationDescription.h">
<polygon fill="white" stroke="black" points="124,-116.5 124,-137.5 254,-137.5 254,-116.5 124,-116.5"/>
<text text-anchor="middle" x="189" y="-124.5" font-family="Helvetica,sans-Serif" font-size="10.00">ApplicationDescription.h</text>
</a>
</g>
<!-- Node1&#45;&gt;Node4 -->
<g id="edge6" class="edge"><title>Node1&#45;&gt;Node4</title>
<path fill="none" stroke="midnightblue" d="M91.55,-174.497C110.136,-165.438 137.202,-152.246 158.095,-142.063"/>
<polygon fill="midnightblue" stroke="midnightblue" points="159.753,-145.149 167.208,-137.621 156.686,-138.856 159.753,-145.149"/>
</g>
<!-- Node5 -->
<g id="node9" class="node"><title>Node5</title>
<a xlink:href="ApplicationDescriptionBase_8h.htm" target="_top" xlink:title="ApplicationDescriptionBase.h">
<polygon fill="white" stroke="black" points="73,-58.5 73,-79.5 227,-79.5 227,-58.5 73,-58.5"/>
<text text-anchor="middle" x="150" y="-66.5" font-family="Helvetica,sans-Serif" font-size="10.00">ApplicationDescriptionBase.h</text>
</a>
</g>
<!-- Node4&#45;&gt;Node5 -->
<g id="edge8" class="edge"><title>Node4&#45;&gt;Node5</title>
<path fill="none" stroke="midnightblue" d="M181.847,-116.362C176.514,-108.431 169.089,-97.3885 162.749,-87.9606"/>
<polygon fill="midnightblue" stroke="midnightblue" points="165.592,-85.9161 157.108,-79.5707 159.783,-89.8221 165.592,-85.9161"/>
</g>
<!-- Node5&#45;&gt;Node2 -->
<g id="edge12" class="edge"><title>Node5&#45;&gt;Node2</title>
<path fill="none" stroke="midnightblue" d="M130.442,-58.4966C113.802,-49.5602 89.6726,-36.602 70.8197,-26.4772"/>
<polygon fill="midnightblue" stroke="midnightblue" points="72.2434,-23.2691 61.7774,-21.6212 68.9314,-29.436 72.2434,-23.2691"/>
</g>
<!-- Node6 -->
<g id="node11" class="node"><title>Node6</title>
<polygon fill="white" stroke="#bfbfbf" points="128.5,-0.5 128.5,-21.5 171.5,-21.5 171.5,-0.5 128.5,-0.5"/>
<text text-anchor="middle" x="150" y="-8.5" font-family="Helvetica,sans-Serif" font-size="10.00">string</text>
</g>
<!-- Node5&#45;&gt;Node6 -->
<g id="edge10" class="edge"><title>Node5&#45;&gt;Node6</title>
<path fill="none" stroke="midnightblue" d="M150,-58.3619C150,-50.9219 150,-40.7427 150,-31.7276"/>
<polygon fill="midnightblue" stroke="midnightblue" points="153.5,-31.5706 150,-21.5707 146.5,-31.5707 153.5,-31.5706"/>
</g>
</g>
</svg>
