<?xml version="1.0" encoding="UTF-8" standalone="no"?>
<!DOCTYPE svg PUBLIC "-//W3C//DTD SVG 1.1//EN"
 "http://www.w3.org/Graphics/SVG/1.1/DTD/svg11.dtd">
<!-- Generated by graphviz version 2.26.3 (20100126.1600)
 -->
<!-- Title: ApplicationDescriptionBase.h Pages: 1 -->
<svg width="325pt" height="146pt"
 viewBox="0.00 0.00 325.00 146.00" xmlns="http://www.w3.org/2000/svg" xmlns:xlink="http://www.w3.org/1999/xlink">
<g id="graph1" class="graph" transform="scale(1 1) rotate(0) translate(4 142)">
<title>ApplicationDescriptionBase.h</title>
<polygon fill="white" stroke="white" points="-4,5 -4,-142 322,-142 322,5 -4,5"/>
<!-- Node1 -->
<g id="node1" class="node"><title>Node1</title>
<polygon fill="#bfbfbf" stroke="black" points="87,-116.5 87,-137.5 241,-137.5 241,-116.5 87,-116.5"/>
<text text-anchor="middle" x="164" y="-124.5" font-family="Helvetica,sans-Serif" font-size="10.00">ApplicationDescriptionBase.h</text>
</g>
<!-- Node2 -->
<g id="node3" class="node"><title>Node2</title>
<a xlink:href="ApplicationDescriptionBase_8cpp.htm" target="_top" xlink:title="ApplicationDescriptionBase.cpp">
<polygon fill="white" stroke="black" points="-0.5,-58.5 -0.5,-79.5 164.5,-79.5 164.5,-58.5 -0.5,-58.5"/>
<text text-anchor="middle" x="82" y="-66.5" font-family="Helvetica,sans-Serif" font-size="10.00">ApplicationDescriptionBase.cpp</text>
</a>
</g>
<!-- Node1&#45;&gt;Node2 -->
<g id="edge2" class="edge"><title>Node1&#45;&gt;Node2</title>
<path fill="none" stroke="midnightblue" d="M140.73,-110.541C126.672,-100.597 109.17,-88.2177 96.9447,-79.5707"/>
<polygon fill="midnightblue" stroke="midnightblue" points="138.775,-113.445 148.96,-116.362 142.817,-107.73 138.775,-113.445"/>
</g>
<!-- Node3 -->
<g id="node5" class="node"><title>Node3</title>
<a xlink:href="ApplicationDescription_8h.htm" target="_top" xlink:title="ApplicationDescription.h">
<polygon fill="white" stroke="black" points="182,-58.5 182,-79.5 312,-79.5 312,-58.5 182,-58.5"/>
<text text-anchor="middle" x="247" y="-66.5" font-family="Helvetica,sans-Serif" font-size="10.00">ApplicationDescription.h</text>
</a>
</g>
<!-- Node1&#45;&gt;Node3 -->
<g id="edge4" class="edge"><title>Node1&#45;&gt;Node3</title>
<path fill="none" stroke="midnightblue" d="M187.554,-110.541C201.783,-100.597 219.499,-88.2177 231.873,-79.5707"/>
<polygon fill="midnightblue" stroke="midnightblue" points="185.416,-107.765 179.223,-116.362 189.425,-113.503 185.416,-107.765"/>
</g>
<!-- Node4 -->
<g id="node7" class="node"><title>Node4</title>
<a xlink:href="ApplicationDescription_8cpp.htm" target="_top" xlink:title="ApplicationDescription.cpp">
<polygon fill="white" stroke="black" points="176.5,-0.5 176.5,-21.5 317.5,-21.5 317.5,-0.5 176.5,-0.5"/>
<text text-anchor="middle" x="247" y="-8.5" font-family="Helvetica,sans-Serif" font-size="10.00">ApplicationDescription.cpp</text>
</a>
</g>
<!-- Node3&#45;&gt;Node4 -->
<g id="edge6" class="edge"><title>Node3&#45;&gt;Node4</title>
<path fill="none" stroke="midnightblue" d="M247,-48.1906C247,-39.1684 247,-28.9941 247,-21.5707"/>
<polygon fill="midnightblue" stroke="midnightblue" points="243.5,-48.3619 247,-58.3619 250.5,-48.3619 243.5,-48.3619"/>
</g>
</g>
</svg>
