<?xml version="1.0" encoding="UTF-8" standalone="no"?>
<!DOCTYPE svg PUBLIC "-//W3C//DTD SVG 1.1//EN"
 "http://www.w3.org/Graphics/SVG/1.1/DTD/svg11.dtd">
<!-- Generated by graphviz version 2.26.3 (20100126.1600)
 -->
<!-- Title: AsyncCaller.h Pages: 1 -->
<svg width="132pt" height="88pt"
 viewBox="0.00 0.00 132.00 88.00" xmlns="http://www.w3.org/2000/svg" xmlns:xlink="http://www.w3.org/1999/xlink">
<g id="graph1" class="graph" transform="scale(1 1) rotate(0) translate(4 84)">
<title>AsyncCaller.h</title>
<polygon fill="white" stroke="white" points="-4,5 -4,-84 129,-84 129,5 -4,5"/>
<!-- Node1 -->
<g id="node1" class="node"><title>Node1</title>
<polygon fill="#bfbfbf" stroke="black" points="27.5,-58.5 27.5,-79.5 108.5,-79.5 108.5,-58.5 27.5,-58.5"/>
<text text-anchor="middle" x="68" y="-66.5" font-family="Helvetica,sans-Serif" font-size="10.00">AsyncCaller.h</text>
</g>
<!-- Node2 -->
<g id="node3" class="node"><title>Node2</title>
<a xlink:href="Common_8h.htm" target="_top" xlink:title="Common.h">
<polygon fill="white" stroke="black" points="-0.5,-0.5 -0.5,-21.5 66.5,-21.5 66.5,-0.5 -0.5,-0.5"/>
<text text-anchor="middle" x="33" y="-8.5" font-family="Helvetica,sans-Serif" font-size="10.00">Common.h</text>
</a>
</g>
<!-- Node1&#45;&gt;Node2 -->
<g id="edge2" class="edge"><title>Node1&#45;&gt;Node2</title>
<path fill="none" stroke="midnightblue" d="M61.5805,-58.3619C56.8441,-50.5131 50.2682,-39.6159 44.618,-30.2527"/>
<polygon fill="midnightblue" stroke="midnightblue" points="47.5422,-28.3242 39.3788,-21.5707 41.5489,-31.9409 47.5422,-28.3242"/>
</g>
<!-- Node3 -->
<g id="node5" class="node"><title>Node3</title>
<polygon fill="white" stroke="#bfbfbf" points="83.5,-0.5 83.5,-21.5 124.5,-21.5 124.5,-0.5 83.5,-0.5"/>
<text text-anchor="middle" x="104" y="-8.5" font-family="Helvetica,sans-Serif" font-size="10.00">glib.h</text>
</g>
<!-- Node1&#45;&gt;Node3 -->
<g id="edge4" class="edge"><title>Node1&#45;&gt;Node3</title>
<path fill="none" stroke="midnightblue" d="M74.603,-58.3619C79.4746,-50.5131 86.2384,-39.6159 92.05,-30.2527"/>
<polygon fill="midnightblue" stroke="midnightblue" points="95.139,-31.9129 97.4389,-21.5707 89.1915,-28.2213 95.139,-31.9129"/>
</g>
</g>
</svg>
