<?xml version="1.0" encoding="UTF-8" standalone="no"?>
<!DOCTYPE svg PUBLIC "-//W3C//DTD SVG 1.1//EN"
 "http://www.w3.org/Graphics/SVG/1.1/DTD/svg11.dtd">
<!-- Generated by graphviz version 2.26.3 (20100126.1600)
 -->
<!-- Title: AsyncCaller.cpp Pages: 1 -->
<svg width="370pt" height="146pt"
 viewBox="0.00 0.00 370.38 146.00" xmlns="http://www.w3.org/2000/svg" xmlns:xlink="http://www.w3.org/1999/xlink">
<g id="graph1" class="graph" transform="scale(1 1) rotate(0) translate(4 142)">
<title>AsyncCaller.cpp</title>
<polygon fill="white" stroke="white" points="-4,5 -4,-142 367.383,-142 367.383,5 -4,5"/>
<!-- Node1 -->
<g id="node1" class="node"><title>Node1</title>
<polygon fill="#bfbfbf" stroke="black" points="90.3829,-116.5 90.3829,-137.5 182.383,-137.5 182.383,-116.5 90.3829,-116.5"/>
<text text-anchor="middle" x="136.383" y="-124.5" font-family="Helvetica,sans-Serif" font-size="10.00">AsyncCaller.cpp</text>
</g>
<!-- Node2 -->
<g id="node3" class="node"><title>Node2</title>
<a xlink:href="Common_8h.htm" target="_top" xlink:title="Common.h">
<polygon fill="white" stroke="black" points="84.8829,-0.5 84.8829,-21.5 151.883,-21.5 151.883,-0.5 84.8829,-0.5"/>
<text text-anchor="middle" x="118.383" y="-8.5" font-family="Helvetica,sans-Serif" font-size="10.00">Common.h</text>
</a>
</g>
<!-- Node1&#45;&gt;Node2 -->
<g id="edge2" class="edge"><title>Node1&#45;&gt;Node2</title>
<path fill="none" stroke="midnightblue" d="M90.2304,-116.415C56.7144,-107.684 15.5332,-94.4255 5.38292,-80 -15.9569,-49.672 34.476,-30.1663 74.6958,-19.887"/>
<polygon fill="midnightblue" stroke="midnightblue" points="75.7585,-23.2308 84.6512,-17.4715 74.1078,-16.4282 75.7585,-23.2308"/>
</g>
<!-- Node3 -->
<g id="node5" class="node"><title>Node3</title>
<polygon fill="white" stroke="#bfbfbf" points="13.8829,-58.5 13.8829,-79.5 60.8829,-79.5 60.8829,-58.5 13.8829,-58.5"/>
<text text-anchor="middle" x="37.3829" y="-66.5" font-family="Helvetica,sans-Serif" font-size="10.00">stdio.h</text>
</g>
<!-- Node1&#45;&gt;Node3 -->
<g id="edge4" class="edge"><title>Node1&#45;&gt;Node3</title>
<path fill="none" stroke="midnightblue" d="M118.225,-116.362C103.153,-107.532 81.4959,-94.844 64.3901,-84.8224"/>
<polygon fill="midnightblue" stroke="midnightblue" points="65.8235,-81.6058 55.4259,-79.5707 62.285,-87.6456 65.8235,-81.6058"/>
</g>
<!-- Node4 -->
<g id="node7" class="node"><title>Node4</title>
<polygon fill="white" stroke="#bfbfbf" points="77.8829,-58.5 77.8829,-79.5 126.883,-79.5 126.883,-58.5 77.8829,-58.5"/>
<text text-anchor="middle" x="102.383" y="-66.5" font-family="Helvetica,sans-Serif" font-size="10.00">stdlib.h</text>
</g>
<!-- Node1&#45;&gt;Node4 -->
<g id="edge6" class="edge"><title>Node1&#45;&gt;Node4</title>
<path fill="none" stroke="midnightblue" d="M130.147,-116.362C125.546,-108.513 119.158,-97.6159 113.669,-88.2527"/>
<polygon fill="midnightblue" stroke="midnightblue" points="116.656,-86.4276 108.58,-79.5707 110.617,-89.9677 116.656,-86.4276"/>
</g>
<!-- Node5 -->
<g id="node9" class="node"><title>Node5</title>
<polygon fill="white" stroke="#bfbfbf" points="143.883,-58.5 143.883,-79.5 196.883,-79.5 196.883,-58.5 143.883,-58.5"/>
<text text-anchor="middle" x="170.383" y="-66.5" font-family="Helvetica,sans-Serif" font-size="10.00">unistd.h</text>
</g>
<!-- Node1&#45;&gt;Node5 -->
<g id="edge8" class="edge"><title>Node1&#45;&gt;Node5</title>
<path fill="none" stroke="midnightblue" d="M142.619,-116.362C147.22,-108.513 153.608,-97.6159 159.097,-88.2527"/>
<polygon fill="midnightblue" stroke="midnightblue" points="162.149,-89.9677 164.186,-79.5707 156.11,-86.4276 162.149,-89.9677"/>
</g>
<!-- Node6 -->
<g id="node11" class="node"><title>Node6</title>
<polygon fill="white" stroke="#bfbfbf" points="213.883,-58.5 213.883,-79.5 264.883,-79.5 264.883,-58.5 213.883,-58.5"/>
<text text-anchor="middle" x="239.383" y="-66.5" font-family="Helvetica,sans-Serif" font-size="10.00">string.h</text>
</g>
<!-- Node1&#45;&gt;Node6 -->
<g id="edge10" class="edge"><title>Node1&#45;&gt;Node6</title>
<path fill="none" stroke="midnightblue" d="M155.275,-116.362C171.101,-107.45 193.905,-94.6087 211.778,-84.5447"/>
<polygon fill="midnightblue" stroke="midnightblue" points="213.615,-87.5271 220.611,-79.5707 210.18,-81.4276 213.615,-87.5271"/>
</g>
<!-- Node7 -->
<g id="node13" class="node"><title>Node7</title>
<a xlink:href="AsyncCaller_8h.htm" target="_top" xlink:title="AsyncCaller.h">
<polygon fill="white" stroke="black" points="281.883,-58.5 281.883,-79.5 362.883,-79.5 362.883,-58.5 281.883,-58.5"/>
<text text-anchor="middle" x="322.383" y="-66.5" font-family="Helvetica,sans-Serif" font-size="10.00">AsyncCaller.h</text>
</a>
</g>
<!-- Node1&#45;&gt;Node7 -->
<g id="edge12" class="edge"><title>Node1&#45;&gt;Node7</title>
<path fill="none" stroke="midnightblue" d="M170.066,-116.497C200.52,-107 245.539,-92.9619 278.741,-82.6087"/>
<polygon fill="midnightblue" stroke="midnightblue" points="280.132,-85.8414 288.637,-79.5231 278.048,-79.1587 280.132,-85.8414"/>
</g>
<!-- Node7&#45;&gt;Node2 -->
<g id="edge14" class="edge"><title>Node7&#45;&gt;Node2</title>
<path fill="none" stroke="midnightblue" d="M285.44,-58.4966C250.701,-48.6199 198.683,-33.8304 161.938,-23.3833"/>
<polygon fill="midnightblue" stroke="midnightblue" points="162.582,-19.9277 152.006,-20.5595 160.668,-26.6609 162.582,-19.9277"/>
</g>
<!-- Node8 -->
<g id="node16" class="node"><title>Node8</title>
<polygon fill="white" stroke="#bfbfbf" points="301.883,-0.5 301.883,-21.5 342.883,-21.5 342.883,-0.5 301.883,-0.5"/>
<text text-anchor="middle" x="322.383" y="-8.5" font-family="Helvetica,sans-Serif" font-size="10.00">glib.h</text>
</g>
<!-- Node7&#45;&gt;Node8 -->
<g id="edge16" class="edge"><title>Node7&#45;&gt;Node8</title>
<path fill="none" stroke="midnightblue" d="M322.383,-58.3619C322.383,-50.9219 322.383,-40.7427 322.383,-31.7276"/>
<polygon fill="midnightblue" stroke="midnightblue" points="325.883,-31.5706 322.383,-21.5707 318.883,-31.5707 325.883,-31.5706"/>
</g>
</g>
</svg>
