<?xml version="1.0" encoding="UTF-8" standalone="no"?>
<!DOCTYPE svg PUBLIC "-//W3C//DTD SVG 1.1//EN"
 "http://www.w3.org/Graphics/SVG/1.1/DTD/svg11.dtd">
<!-- Generated by graphviz version 2.26.3 (20100126.1600)
 -->
<!-- Title: Slot&lt; Receiver, Arg0, Arg1, Arg2, Arg3, void &gt; Pages: 1 -->
<svg width="512pt" height="118pt"
 viewBox="0.00 0.00 512.00 118.00" xmlns="http://www.w3.org/2000/svg" xmlns:xlink="http://www.w3.org/1999/xlink">
<g id="graph1" class="graph" transform="scale(1 1) rotate(0) translate(4 114)">
<title>Slot&lt; Receiver, Arg0, Arg1, Arg2, Arg3, void &gt;</title>
<polygon fill="white" stroke="white" points="-4,5 -4,-114 509,-114 509,5 -4,5"/>
<!-- Node1 -->
<g id="node1" class="node"><title>Node1</title>
<polygon fill="#bfbfbf" stroke="black" points="372.5,-55 372.5,-89 503.5,-89 503.5,-55 372.5,-55"/>
<text text-anchor="start" x="380.5" y="-76" font-family="Helvetica,sans-Serif" font-size="10.00">Slot&lt; Receiver, Arg0,</text>
<text text-anchor="middle" x="438" y="-63" font-family="Helvetica,sans-Serif" font-size="10.00"> Arg1, Arg2, Arg3, void &gt;</text>
</g>
<!-- Node2 -->
<g id="node2" class="node"><title>Node2</title>
<a xlink:href="classSlotBase.htm" target="_top" xlink:title="SlotBase\&lt; Arg0, Arg1,\l Arg2, Arg3 \&gt;">
<polygon fill="white" stroke="black" points="208,-76 208,-110 328,-110 328,-76 208,-76"/>
<text text-anchor="start" x="216" y="-97" font-family="Helvetica,sans-Serif" font-size="10.00">SlotBase&lt; Arg0, Arg1,</text>
<text text-anchor="middle" x="268" y="-84" font-family="Helvetica,sans-Serif" font-size="10.00"> Arg2, Arg3 &gt;</text>
</a>
</g>
<!-- Node2&#45;&gt;Node1 -->
<g id="edge2" class="edge"><title>Node2&#45;&gt;Node1</title>
<path fill="none" stroke="midnightblue" d="M338.555,-84.2844C349.727,-82.9043 361.243,-81.4818 372.298,-80.1161"/>
<polygon fill="midnightblue" stroke="midnightblue" points="337.91,-80.8374 328.414,-85.5371 338.768,-87.7846 337.91,-80.8374"/>
</g>
<!-- Node3 -->
<g id="node4" class="node"><title>Node3</title>
<a xlink:href="classFunctionWrapper.htm" target="_top" xlink:title="FunctionWrapper\&lt; void\l(Receiver::*)(Arg0, Arg1,\l Arg2, Arg3)\&gt;">
<polygon fill="white" stroke="black" points="202,-10.5 202,-57.5 334,-57.5 334,-10.5 202,-10.5"/>
<text text-anchor="start" x="210" y="-44.5" font-family="Helvetica,sans-Serif" font-size="10.00">FunctionWrapper&lt; void</text>
<text text-anchor="start" x="210" y="-31.5" font-family="Helvetica,sans-Serif" font-size="10.00">(Receiver::*)(Arg0, Arg1,</text>
<text text-anchor="middle" x="268" y="-18.5" font-family="Helvetica,sans-Serif" font-size="10.00"> Arg2, Arg3)&gt;</text>
</a>
</g>
<!-- Node3&#45;&gt;Node1 -->
<g id="edge4" class="edge"><title>Node3&#45;&gt;Node1</title>
<path fill="none" stroke="midnightblue" d="M344.267,-51.048C353.604,-53.135 363.083,-55.2539 372.247,-57.3023"/>
<polygon fill="midnightblue" stroke="midnightblue" points="344.736,-47.5664 334.213,-48.8006 343.209,-54.3978 344.736,-47.5664"/>
</g>
<!-- Node4 -->
<g id="node6" class="node"><title>Node4</title>
<a xlink:href="classvoid_07Receiver_1_1_5_08_07Arg0_00_01Arg1_00_01Arg2_00_01Arg3_08.htm" target="_top" xlink:title="*)(Arg0, Arg1, Arg2,\l Arg3)">
<polygon fill="white" stroke="black" points="0,-40 0,-74 110,-74 110,-40 0,-40"/>
<text text-anchor="start" x="8" y="-61" font-family="Helvetica,sans-Serif" font-size="10.00">*)(Arg0, Arg1, Arg2,</text>
<text text-anchor="middle" x="55" y="-48" font-family="Helvetica,sans-Serif" font-size="10.00"> Arg3)</text>
</a>
</g>
<!-- Node4&#45;&gt;Node3 -->
<g id="edge6" class="edge"><title>Node4&#45;&gt;Node3</title>
<path fill="none" stroke="#9a32cd" stroke-dasharray="5,2" d="M120.205,-49.959C146.061,-47.1671 175.759,-43.9603 201.719,-41.1571"/>
<polygon fill="#9a32cd" stroke="#9a32cd" points="119.696,-46.4936 110.13,-51.047 120.448,-53.4531 119.696,-46.4936"/>
<text text-anchor="middle" x="156" y="-52" font-family="Helvetica,sans-Serif" font-size="10.00"> m_function</text>
</g>
<!-- Node5 -->
<g id="node8" class="node"><title>Node5</title>
<a xlink:href="classTrackable.htm" target="_top" xlink:title="Trackable">
<polygon fill="white" stroke="black" points="23.5,-0.5 23.5,-21.5 86.5,-21.5 86.5,-0.5 23.5,-0.5"/>
<text text-anchor="middle" x="55" y="-8.5" font-family="Helvetica,sans-Serif" font-size="10.00">Trackable</text>
</a>
</g>
<!-- Node5&#45;&gt;Node3 -->
<g id="edge8" class="edge"><title>Node5&#45;&gt;Node3</title>
<path fill="none" stroke="#9a32cd" stroke-dasharray="5,2" d="M96.9837,-15.5334C126.89,-18.7628 167.689,-23.1683 201.936,-26.8663"/>
<polygon fill="#9a32cd" stroke="#9a32cd" points="97.2062,-12.0372 86.8883,-14.4433 96.4547,-18.9968 97.2062,-12.0372"/>
<text text-anchor="middle" x="156" y="-28" font-family="Helvetica,sans-Serif" font-size="10.00"> m_receiver</text>
</g>
</g>
</svg>
