<?xml version="1.0" encoding="UTF-8" standalone="no"?>
<!DOCTYPE svg PUBLIC "-//W3C//DTD SVG 1.1//EN"
 "http://www.w3.org/Graphics/SVG/1.1/DTD/svg11.dtd">
<!-- Generated by graphviz version 2.26.3 (20100126.1600)
 -->
<!-- Title: NyxLedControl Pages: 1 -->
<svg width="254pt" height="102pt"
 viewBox="0.00 0.00 254.00 102.00" xmlns="http://www.w3.org/2000/svg" xmlns:xlink="http://www.w3.org/1999/xlink">
<g id="graph1" class="graph" transform="scale(1 1) rotate(0) translate(4 98)">
<title>NyxLedControl</title>
<polygon fill="white" stroke="white" points="-4,5 -4,-98 251,-98 251,5 -4,5"/>
<!-- Node1 -->
<g id="node1" class="node"><title>Node1</title>
<polygon fill="#bfbfbf" stroke="black" points="91.5,-0.5 91.5,-21.5 178.5,-21.5 178.5,-0.5 91.5,-0.5"/>
<text text-anchor="middle" x="135" y="-8.5" font-family="Helvetica,sans-Serif" font-size="10.00">NyxLedControl</text>
</g>
<!-- Node2 -->
<g id="node2" class="node"><title>Node2</title>
<a xlink:href="classLedControl.htm" target="_top" xlink:title="LedControl">
<polygon fill="white" stroke="black" points="-0.5,-72.5 -0.5,-93.5 68.5,-93.5 68.5,-72.5 -0.5,-72.5"/>
<text text-anchor="middle" x="34" y="-80.5" font-family="Helvetica,sans-Serif" font-size="10.00">LedControl</text>
</a>
</g>
<!-- Node2&#45;&gt;Node1 -->
<g id="edge2" class="edge"><title>Node2&#45;&gt;Node1</title>
<path fill="none" stroke="midnightblue" d="M57.1778,-66.4772C76.4977,-52.7046 103.451,-33.4905 120.036,-21.6674"/>
<polygon fill="midnightblue" stroke="midnightblue" points="55.014,-63.7214 48.9029,-72.3762 59.0774,-69.4213 55.014,-63.7214"/>
</g>
<!-- Node3 -->
<g id="node4" class="node"><title>Node3</title>
<polygon fill="white" stroke="#bfbfbf" points="86,-72.5 86,-93.5 184,-93.5 184,-72.5 86,-72.5"/>
<text text-anchor="middle" x="135" y="-80.5" font-family="Helvetica,sans-Serif" font-size="10.00">void(*)(void *ctx)</text>
</g>
<!-- Node3&#45;&gt;Node1 -->
<g id="edge4" class="edge"><title>Node3&#45;&gt;Node1</title>
<path fill="none" stroke="#9a32cd" stroke-dasharray="5,2" d="M135,-62.2348C135,-48.969 135,-32.3188 135,-21.6674"/>
<polygon fill="#9a32cd" stroke="#9a32cd" points="131.5,-62.3761 135,-72.3762 138.5,-62.3762 131.5,-62.3761"/>
<text text-anchor="middle" x="162.5" y="-44.5" font-family="Helvetica,sans-Serif" font-size="10.00"> m_callback</text>
</g>
<!-- Node4 -->
<g id="node6" class="node"><title>Node4</title>
<polygon fill="white" stroke="#bfbfbf" points="202,-72.5 202,-93.5 246,-93.5 246,-72.5 202,-72.5"/>
<text text-anchor="middle" x="224" y="-80.5" font-family="Helvetica,sans-Serif" font-size="10.00">void *</text>
</g>
<!-- Node4&#45;&gt;Node1 -->
<g id="edge6" class="edge"><title>Node4&#45;&gt;Node1</title>
<path fill="none" stroke="#9a32cd" stroke-dasharray="5,2" d="M213.366,-63.5072C208.288,-55.4879 201.646,-46.5617 194,-40 185.166,-32.4182 174.005,-26.2743 163.774,-21.6262"/>
<polygon fill="#9a32cd" stroke="#9a32cd" points="210.469,-65.4847 218.574,-72.3086 216.493,-61.92 210.469,-65.4847"/>
<text text-anchor="middle" x="221.5" y="-44.5" font-family="Helvetica,sans-Serif" font-size="10.00"> m_ctx</text>
</g>
</g>
</svg>
