<?xml version="1.0" encoding="UTF-8" standalone="no"?>
<!DOCTYPE svg PUBLIC "-//W3C//DTD SVG 1.1//EN"
 "http://www.w3.org/Graphics/SVG/1.1/DTD/svg11.dtd">
<!-- Generated by graphviz version 2.26.3 (20100126.1600)
 -->
<!-- Title: SignalBase&lt; Arg0, Arg1, Arg2, Arg3, Arg4 &gt; Pages: 1 -->
<svg width="228pt" height="130pt"
 viewBox="0.00 0.00 228.00 130.00" xmlns="http://www.w3.org/2000/svg" xmlns:xlink="http://www.w3.org/1999/xlink">
<g id="graph1" class="graph" transform="scale(1 1) rotate(0) translate(4 126)">
<title>SignalBase&lt; Arg0, Arg1, Arg2, Arg3, Arg4 &gt;</title>
<polygon fill="white" stroke="white" points="-4,5 -4,-126 225,-126 225,5 -4,5"/>
<!-- Node1 -->
<g id="node1" class="node"><title>Node1</title>
<polygon fill="#bfbfbf" stroke="black" points="18.5,-1 18.5,-35 149.5,-35 149.5,-1 18.5,-1"/>
<text text-anchor="start" x="26.5" y="-22" font-family="Helvetica,sans-Serif" font-size="10.00">SignalBase&lt; Arg0, Arg1,</text>
<text text-anchor="middle" x="84" y="-9" font-family="Helvetica,sans-Serif" font-size="10.00"> Arg2, Arg3, Arg4 &gt;</text>
</g>
<!-- Node2 -->
<g id="node2" class="node"><title>Node2</title>
<a xlink:href="classSender.htm" target="_top" xlink:title="Sender">
<polygon fill="white" stroke="black" points="-0.5,-93.5 -0.5,-114.5 50.5,-114.5 50.5,-93.5 -0.5,-93.5"/>
<text text-anchor="middle" x="25" y="-101.5" font-family="Helvetica,sans-Serif" font-size="10.00">Sender</text>
</a>
</g>
<!-- Node2&#45;&gt;Node1 -->
<g id="edge2" class="edge"><title>Node2&#45;&gt;Node1</title>
<path fill="none" stroke="midnightblue" d="M38.0217,-85.0192C48.2382,-70.1274 62.3369,-49.5768 72.22,-35.1709"/>
<polygon fill="midnightblue" stroke="midnightblue" points="35.0056,-83.2287 32.2346,-93.4547 40.7779,-87.1887 35.0056,-83.2287"/>
</g>
<!-- Node3 -->
<g id="node4" class="node"><title>Node3</title>
<polygon fill="white" stroke="#bfbfbf" points="68,-87 68,-121 220,-121 220,-87 68,-87"/>
<text text-anchor="start" x="76" y="-108" font-family="Helvetica,sans-Serif" font-size="10.00">set&lt; SlotBase&lt; Arg0,</text>
<text text-anchor="middle" x="144" y="-95" font-family="Helvetica,sans-Serif" font-size="10.00"> Arg1, Arg2, Arg3, Arg4 &gt; * &gt;</text>
</g>
<!-- Node3&#45;&gt;Node1 -->
<g id="edge4" class="edge"><title>Node3&#45;&gt;Node1</title>
<path fill="none" stroke="#9a32cd" stroke-dasharray="5,2" d="M126.097,-78.3391C116.344,-64.3598 104.542,-47.4437 95.9191,-35.084"/>
<polygon fill="#9a32cd" stroke="#9a32cd" points="123.266,-80.398 131.858,-86.5966 129.007,-76.3927 123.266,-80.398"/>
<text text-anchor="middle" x="137" y="-58.5" font-family="Helvetica,sans-Serif" font-size="10.00"> m_slots</text>
</g>
</g>
</svg>
