<?xml version="1.0" encoding="UTF-8" standalone="no"?>
<!DOCTYPE svg PUBLIC "-//W3C//DTD SVG 1.1//EN"
 "http://www.w3.org/Graphics/SVG/1.1/DTD/svg11.dtd">
<!-- Generated by graphviz version 2.26.3 (20100126.1600)
 -->
<!-- Title: AsyncCallerBase Pages: 1 -->
<svg width="286pt" height="88pt"
 viewBox="0.00 0.00 286.00 88.00" xmlns="http://www.w3.org/2000/svg" xmlns:xlink="http://www.w3.org/1999/xlink">
<g id="graph1" class="graph" transform="scale(1 1) rotate(0) translate(4 84)">
<title>AsyncCallerBase</title>
<polygon fill="white" stroke="white" points="-4,5 -4,-84 283,-84 283,5 -4,5"/>
<!-- Node1 -->
<g id="node1" class="node"><title>Node1</title>
<polygon fill="#bfbfbf" stroke="black" points="86.5,-58.5 86.5,-79.5 183.5,-79.5 183.5,-58.5 86.5,-58.5"/>
<text text-anchor="middle" x="135" y="-66.5" font-family="Helvetica,sans-Serif" font-size="10.00">AsyncCallerBase</text>
</g>
<!-- Node2 -->
<g id="node3" class="node"><title>Node2</title>
<a xlink:href="classAsyncCaller.htm" target="_top" xlink:title="AsyncCaller\&lt; Target \&gt;">
<polygon fill="white" stroke="black" points="0,-0.5 0,-21.5 122,-21.5 122,-0.5 0,-0.5"/>
<text text-anchor="middle" x="61" y="-8.5" font-family="Helvetica,sans-Serif" font-size="10.00">AsyncCaller&lt; Target &gt;</text>
</a>
</g>
<!-- Node1&#45;&gt;Node2 -->
<g id="edge2" class="edge"><title>Node1&#45;&gt;Node2</title>
<path fill="none" stroke="midnightblue" d="M113.279,-51.9753C100.72,-42.1315 85.311,-30.0545 74.4867,-21.5707"/>
<polygon fill="midnightblue" stroke="midnightblue" points="111.398,-54.9478 121.427,-58.3619 115.716,-49.4383 111.398,-54.9478"/>
</g>
<!-- Node3 -->
<g id="node5" class="node"><title>Node3</title>
<a xlink:href="classAsyncCaller.htm" target="_top" xlink:title="AsyncCaller\&lt; TaskBase \&gt;">
<polygon fill="white" stroke="black" points="140,-0.5 140,-21.5 278,-21.5 278,-0.5 140,-0.5"/>
<text text-anchor="middle" x="209" y="-8.5" font-family="Helvetica,sans-Serif" font-size="10.00">AsyncCaller&lt; TaskBase &gt;</text>
</a>
</g>
<!-- Node1&#45;&gt;Node3 -->
<g id="edge4" class="edge"><title>Node1&#45;&gt;Node3</title>
<path fill="none" stroke="midnightblue" d="M156.721,-51.9753C169.28,-42.1315 184.689,-30.0545 195.513,-21.5707"/>
<polygon fill="midnightblue" stroke="midnightblue" points="154.284,-49.4383 148.573,-58.3619 158.602,-54.9478 154.284,-49.4383"/>
</g>
</g>
</svg>
