<?xml version="1.0" encoding="UTF-8" standalone="no"?>
<!DOCTYPE svg PUBLIC "-//W3C//DTD SVG 1.1//EN"
 "http://www.w3.org/Graphics/SVG/1.1/DTD/svg11.dtd">
<!-- Generated by graphviz version 2.26.3 (20100126.1600)
 -->
<!-- Title: Slot&lt; Receiver, Arg0, Arg1, Arg2, Arg3, Arg4 &gt; Pages: 1 -->
<svg width="289pt" height="190pt"
 viewBox="0.00 0.00 289.00 190.00" xmlns="http://www.w3.org/2000/svg" xmlns:xlink="http://www.w3.org/1999/xlink">
<g id="graph1" class="graph" transform="scale(1 1) rotate(0) translate(4 186)">
<title>Slot&lt; Receiver, Arg0, Arg1, Arg2, Arg3, Arg4 &gt;</title>
<polygon fill="white" stroke="white" points="-4,5 -4,-186 286,-186 286,5 -4,5"/>
<!-- Node1 -->
<g id="node1" class="node"><title>Node1</title>
<polygon fill="#bfbfbf" stroke="black" points="34,-1 34,-35 168,-35 168,-1 34,-1"/>
<text text-anchor="start" x="42" y="-22" font-family="Helvetica,sans-Serif" font-size="10.00">Slot&lt; Receiver, Arg0,</text>
<text text-anchor="middle" x="101" y="-9" font-family="Helvetica,sans-Serif" font-size="10.00"> Arg1, Arg2, Arg3, Arg4 &gt;</text>
</g>
<!-- Node2 -->
<g id="node2" class="node"><title>Node2</title>
<a xlink:href="classSlotBase.htm" target="_top" xlink:title="SlotBase\&lt; Arg0, Arg1,\l Arg2, Arg3, Arg4 \&gt;">
<polygon fill="white" stroke="black" points="0,-75 0,-109 120,-109 120,-75 0,-75"/>
<text text-anchor="start" x="8" y="-96" font-family="Helvetica,sans-Serif" font-size="10.00">SlotBase&lt; Arg0, Arg1,</text>
<text text-anchor="middle" x="60" y="-83" font-family="Helvetica,sans-Serif" font-size="10.00"> Arg2, Arg3, Arg4 &gt;</text>
</a>
</g>
<!-- Node2&#45;&gt;Node1 -->
<g id="edge2" class="edge"><title>Node2&#45;&gt;Node1</title>
<path fill="none" stroke="midnightblue" d="M74.4686,-65.886C80.1365,-55.656 86.4797,-44.2073 91.5423,-35.07"/>
<polygon fill="midnightblue" stroke="midnightblue" points="71.2942,-64.3935 69.5093,-74.8369 77.4172,-67.786 71.2942,-64.3935"/>
</g>
<!-- Node3 -->
<g id="node4" class="node"><title>Node3</title>
<a xlink:href="classFunctionWrapper.htm" target="_top" xlink:title="FunctionWrapper\&lt; void\l(*)()\&gt;">
<polygon fill="white" stroke="black" points="138,-75 138,-109 264,-109 264,-75 138,-75"/>
<text text-anchor="start" x="146" y="-96" font-family="Helvetica,sans-Serif" font-size="10.00">FunctionWrapper&lt; void</text>
<text text-anchor="middle" x="201" y="-83" font-family="Helvetica,sans-Serif" font-size="10.00">(*)()&gt;</text>
</a>
</g>
<!-- Node3&#45;&gt;Node1 -->
<g id="edge4" class="edge"><title>Node3&#45;&gt;Node1</title>
<path fill="none" stroke="midnightblue" d="M169.474,-68.6709C154.755,-57.7783 137.549,-45.0465 124.068,-35.07"/>
<polygon fill="midnightblue" stroke="midnightblue" points="167.686,-71.7019 177.807,-74.8369 171.85,-66.075 167.686,-71.7019"/>
</g>
<!-- Node4 -->
<g id="node6" class="node"><title>Node4</title>
<a xlink:href="classvoid_07_5_08_07_08.htm" target="_top" xlink:title="void(*)()">
<polygon fill="white" stroke="black" points="134,-160.5 134,-181.5 190,-181.5 190,-160.5 134,-160.5"/>
<text text-anchor="middle" x="162" y="-168.5" font-family="Helvetica,sans-Serif" font-size="10.00">void(*)()</text>
</a>
</g>
<!-- Node4&#45;&gt;Node3 -->
<g id="edge6" class="edge"><title>Node4&#45;&gt;Node3</title>
<path fill="none" stroke="#9a32cd" stroke-dasharray="5,2" d="M159.284,-150.075C159.161,-142.816 159.982,-134.798 163,-128 166.171,-120.857 171.5,-114.45 177.18,-109.092"/>
<polygon fill="#9a32cd" stroke="#9a32cd" points="155.809,-150.538 160.035,-160.254 162.79,-150.024 155.809,-150.538"/>
<text text-anchor="middle" x="190.5" y="-132.5" font-family="Helvetica,sans-Serif" font-size="10.00"> m_function</text>
</g>
<!-- Node5 -->
<g id="node8" class="node"><title>Node5</title>
<a xlink:href="classTrackable.htm" target="_top" xlink:title="Trackable">
<polygon fill="white" stroke="black" points="208.5,-160.5 208.5,-181.5 271.5,-181.5 271.5,-160.5 208.5,-160.5"/>
<text text-anchor="middle" x="240" y="-168.5" font-family="Helvetica,sans-Serif" font-size="10.00">Trackable</text>
</a>
</g>
<!-- Node5&#45;&gt;Node3 -->
<g id="edge8" class="edge"><title>Node5&#45;&gt;Node3</title>
<path fill="none" stroke="#9a32cd" stroke-dasharray="5,2" d="M230.282,-151.316C223.881,-138.349 215.581,-121.536 209.453,-109.124"/>
<polygon fill="#9a32cd" stroke="#9a32cd" points="227.175,-152.928 234.74,-160.346 233.452,-149.829 227.175,-152.928"/>
<text text-anchor="middle" x="253" y="-132.5" font-family="Helvetica,sans-Serif" font-size="10.00"> m_receiver</text>
</g>
</g>
</svg>
