<?xml version="1.0" encoding="UTF-8" standalone="no"?>
<!DOCTYPE svg PUBLIC "-//W3C//DTD SVG 1.1//EN"
 "http://www.w3.org/Graphics/SVG/1.1/DTD/svg11.dtd">
<!-- Generated by graphviz version 2.26.3 (20100126.1600)
 -->
<!-- Title: TaskBase Pages: 1 -->
<svg width="558pt" height="270pt"
 viewBox="0.00 0.00 558.00 270.00" xmlns="http://www.w3.org/2000/svg" xmlns:xlink="http://www.w3.org/1999/xlink">
<g id="graph1" class="graph" transform="scale(1 1) rotate(0) translate(4 266)">
<title>TaskBase</title>
<polygon fill="white" stroke="white" points="-4,5 -4,-266 555,-266 555,5 -4,5"/>
<!-- Node1 -->
<g id="node1" class="node"><title>Node1</title>
<polygon fill="#bfbfbf" stroke="black" points="110,-80.5 110,-101.5 174,-101.5 174,-80.5 110,-80.5"/>
<text text-anchor="middle" x="142" y="-88.5" font-family="Helvetica,sans-Serif" font-size="10.00">TaskBase</text>
</g>
<!-- Node3 -->
<g id="node5" class="node"><title>Node3</title>
<a xlink:href="classHostBase.htm" target="_top" xlink:title="HostBase">
<polygon fill="white" stroke="black" points="211,-100.5 211,-121.5 273,-121.5 273,-100.5 211,-100.5"/>
<text text-anchor="middle" x="242" y="-108.5" font-family="Helvetica,sans-Serif" font-size="10.00">HostBase</text>
</a>
</g>
<!-- Node1&#45;&gt;Node3 -->
<g id="edge4" class="edge"><title>Node1&#45;&gt;Node3</title>
<path fill="none" stroke="midnightblue" d="M184.115,-99.423C193.092,-101.218 202.417,-103.083 210.893,-104.779"/>
<polygon fill="midnightblue" stroke="midnightblue" points="184.683,-95.9674 174.191,-97.4382 183.31,-102.831 184.683,-95.9674"/>
</g>
<!-- Node13 -->
<g id="node25" class="node"><title>Node13</title>
<a xlink:href="classSyncTask.htm" target="_top" xlink:title="SyncTask">
<polygon fill="white" stroke="black" points="210.5,-60.5 210.5,-81.5 273.5,-81.5 273.5,-60.5 210.5,-60.5"/>
<text text-anchor="middle" x="242" y="-68.5" font-family="Helvetica,sans-Serif" font-size="10.00">SyncTask</text>
</a>
</g>
<!-- Node1&#45;&gt;Node13 -->
<g id="edge24" class="edge"><title>Node1&#45;&gt;Node13</title>
<path fill="none" stroke="midnightblue" d="M184.202,-82.5596C192.912,-80.8175 201.946,-79.0108 210.211,-77.3578"/>
<polygon fill="midnightblue" stroke="midnightblue" points="183.31,-79.1685 174.191,-84.5618 184.683,-86.0326 183.31,-79.1685"/>
</g>
<!-- Node2 -->
<g id="node2" class="node"><title>Node2</title>
<a xlink:href="classRefCounted.htm" target="_top" xlink:title="RefCounted">
<polygon fill="white" stroke="black" points="0.5,-80.5 0.5,-101.5 73.5,-101.5 73.5,-80.5 0.5,-80.5"/>
<text text-anchor="middle" x="37" y="-88.5" font-family="Helvetica,sans-Serif" font-size="10.00">RefCounted</text>
</a>
</g>
<!-- Node2&#45;&gt;Node1 -->
<g id="edge2" class="edge"><title>Node2&#45;&gt;Node1</title>
<path fill="none" stroke="midnightblue" d="M83.8188,-91C92.5513,-91 101.496,-91 109.671,-91"/>
<polygon fill="midnightblue" stroke="midnightblue" points="83.7239,-87.5001 73.7239,-91 83.7239,-94.5001 83.7239,-87.5001"/>
</g>
<!-- Node4 -->
<g id="node7" class="node"><title>Node4</title>
<a xlink:href="classHostArm.htm" target="_top" xlink:title="HostArm">
<polygon fill="white" stroke="black" points="326.5,-120.5 326.5,-141.5 383.5,-141.5 383.5,-120.5 326.5,-120.5"/>
<text text-anchor="middle" x="355" y="-128.5" font-family="Helvetica,sans-Serif" font-size="10.00">HostArm</text>
</a>
</g>
<!-- Node3&#45;&gt;Node4 -->
<g id="edge6" class="edge"><title>Node3&#45;&gt;Node4</title>
<path fill="none" stroke="midnightblue" d="M283.262,-118.303C297.532,-120.829 313.203,-123.602 326.249,-125.911"/>
<polygon fill="midnightblue" stroke="midnightblue" points="283.634,-114.815 273.177,-116.518 282.414,-121.707 283.634,-114.815"/>
</g>
<!-- Node12 -->
<g id="node23" class="node"><title>Node12</title>
<a xlink:href="classHostQtDesktop.htm" target="_top" xlink:title="HostQtDesktop">
<polygon fill="white" stroke="black" points="310.5,-80.5 310.5,-101.5 399.5,-101.5 399.5,-80.5 310.5,-80.5"/>
<text text-anchor="middle" x="355" y="-88.5" font-family="Helvetica,sans-Serif" font-size="10.00">HostQtDesktop</text>
</a>
</g>
<!-- Node3&#45;&gt;Node12 -->
<g id="edge22" class="edge"><title>Node3&#45;&gt;Node12</title>
<path fill="none" stroke="midnightblue" d="M283.239,-103.701C292.07,-102.138 301.439,-100.48 310.39,-98.8956"/>
<polygon fill="midnightblue" stroke="midnightblue" points="282.414,-100.293 273.177,-105.482 283.634,-107.185 282.414,-100.293"/>
</g>
<!-- Node5 -->
<g id="node9" class="node"><title>Node5</title>
<a xlink:href="classHostArmBroadway.htm" target="_top" xlink:title="HostArmBroadway">
<polygon fill="white" stroke="black" points="441,-240.5 441,-261.5 545,-261.5 545,-240.5 441,-240.5"/>
<text text-anchor="middle" x="493" y="-248.5" font-family="Helvetica,sans-Serif" font-size="10.00">HostArmBroadway</text>
</a>
</g>
<!-- Node4&#45;&gt;Node5 -->
<g id="edge8" class="edge"><title>Node4&#45;&gt;Node5</title>
<path fill="none" stroke="midnightblue" d="M366.042,-150.314C379.757,-172.694 405.155,-209.271 436,-231 441.316,-234.745 447.4,-237.849 453.568,-240.403"/>
<polygon fill="midnightblue" stroke="midnightblue" points="369.022,-148.477 360.898,-141.676 363.008,-152.059 369.022,-148.477"/>
</g>
<!-- Node6 -->
<g id="node11" class="node"><title>Node6</title>
<a xlink:href="classHostArmMantaray.htm" target="_top" xlink:title="HostArmMantaray">
<polygon fill="white" stroke="black" points="442,-200.5 442,-221.5 544,-221.5 544,-200.5 442,-200.5"/>
<text text-anchor="middle" x="493" y="-208.5" font-family="Helvetica,sans-Serif" font-size="10.00">HostArmMantaray</text>
</a>
</g>
<!-- Node4&#45;&gt;Node6 -->
<g id="edge10" class="edge"><title>Node4&#45;&gt;Node6</title>
<path fill="none" stroke="midnightblue" d="M374.794,-148.321C390.532,-161.413 413.561,-179.103 436,-191 442.764,-194.586 450.305,-197.753 457.63,-200.449"/>
<polygon fill="midnightblue" stroke="midnightblue" points="376.741,-145.383 366.85,-141.586 372.214,-150.723 376.741,-145.383"/>
</g>
<!-- Node7 -->
<g id="node13" class="node"><title>Node7</title>
<a xlink:href="classHostArmOpal.htm" target="_top" xlink:title="HostArmOpal">
<polygon fill="white" stroke="black" points="453,-160.5 453,-181.5 533,-181.5 533,-160.5 453,-160.5"/>
<text text-anchor="middle" x="493" y="-168.5" font-family="Helvetica,sans-Serif" font-size="10.00">HostArmOpal</text>
</a>
</g>
<!-- Node4&#45;&gt;Node7 -->
<g id="edge12" class="edge"><title>Node4&#45;&gt;Node7</title>
<path fill="none" stroke="midnightblue" d="M393.216,-142.077C413.001,-147.812 437.034,-154.778 456.556,-160.437"/>
<polygon fill="midnightblue" stroke="midnightblue" points="394.173,-138.71 383.594,-139.288 392.224,-145.434 394.173,-138.71"/>
</g>
<!-- Node8 -->
<g id="node15" class="node"><title>Node8</title>
<a xlink:href="classHostArmQemu.htm" target="_top" xlink:title="HostArmQemu">
<polygon fill="white" stroke="black" points="450.5,-120.5 450.5,-141.5 535.5,-141.5 535.5,-120.5 450.5,-120.5"/>
<text text-anchor="middle" x="493" y="-128.5" font-family="Helvetica,sans-Serif" font-size="10.00">HostArmQemu</text>
</a>
</g>
<!-- Node4&#45;&gt;Node8 -->
<g id="edge14" class="edge"><title>Node4&#45;&gt;Node8</title>
<path fill="none" stroke="midnightblue" d="M394.048,-131C411.588,-131 432.333,-131 450.287,-131"/>
<polygon fill="midnightblue" stroke="midnightblue" points="393.594,-127.5 383.594,-131 393.594,-134.5 393.594,-127.5"/>
</g>
<!-- Node9 -->
<g id="node17" class="node"><title>Node9</title>
<a xlink:href="classHostArmTopaz.htm" target="_top" xlink:title="HostArmTopaz">
<polygon fill="white" stroke="black" points="449.5,-80.5 449.5,-101.5 536.5,-101.5 536.5,-80.5 449.5,-80.5"/>
<text text-anchor="middle" x="493" y="-88.5" font-family="Helvetica,sans-Serif" font-size="10.00">HostArmTopaz</text>
</a>
</g>
<!-- Node4&#45;&gt;Node9 -->
<g id="edge16" class="edge"><title>Node4&#45;&gt;Node9</title>
<path fill="none" stroke="midnightblue" d="M393.216,-119.923C413.001,-114.188 437.034,-107.222 456.556,-101.563"/>
<polygon fill="midnightblue" stroke="midnightblue" points="392.224,-116.566 383.594,-122.712 394.173,-123.29 392.224,-116.566"/>
</g>
<!-- Node10 -->
<g id="node19" class="node"><title>Node10</title>
<a xlink:href="classHostArmUnknown.htm" target="_top" xlink:title="HostArmUnknown">
<polygon fill="white" stroke="black" points="442.5,-40.5 442.5,-61.5 543.5,-61.5 543.5,-40.5 442.5,-40.5"/>
<text text-anchor="middle" x="493" y="-48.5" font-family="Helvetica,sans-Serif" font-size="10.00">HostArmUnknown</text>
</a>
</g>
<!-- Node4&#45;&gt;Node10 -->
<g id="edge18" class="edge"><title>Node4&#45;&gt;Node10</title>
<path fill="none" stroke="midnightblue" d="M392.581,-115.785C395.164,-114.292 397.665,-112.695 400,-111 419.353,-96.9458 416.096,-84.2614 436,-71 441.586,-67.2785 447.941,-64.1678 454.332,-61.595"/>
<polygon fill="midnightblue" stroke="midnightblue" points="390.856,-112.737 383.604,-120.462 394.09,-118.945 390.856,-112.737"/>
</g>
<!-- Node11 -->
<g id="node21" class="node"><title>Node11</title>
<a xlink:href="classHostArmWindsorNot.htm" target="_top" xlink:title="HostArmWindsorNot">
<polygon fill="white" stroke="black" points="436.5,-0.5 436.5,-21.5 549.5,-21.5 549.5,-0.5 436.5,-0.5"/>
<text text-anchor="middle" x="493" y="-8.5" font-family="Helvetica,sans-Serif" font-size="10.00">HostArmWindsorNot</text>
</a>
</g>
<!-- Node4&#45;&gt;Node11 -->
<g id="edge20" class="edge"><title>Node4&#45;&gt;Node11</title>
<path fill="none" stroke="midnightblue" d="M392.57,-117.005C395.25,-115.216 397.769,-113.22 400,-111 427.634,-83.494 407.278,-57.3679 436,-31 440.172,-27.1701 445.12,-24.0661 450.331,-21.5521"/>
<polygon fill="midnightblue" stroke="midnightblue" points="390.624,-114.084 383.627,-122.04 394.058,-120.184 390.624,-114.084"/>
</g>
</g>
</svg>
