<?xml version="1.0" encoding="UTF-8" standalone="no"?>
<!DOCTYPE svg PUBLIC "-//W3C//DTD SVG 1.1//EN"
 "http://www.w3.org/Graphics/SVG/1.1/DTD/svg11.dtd">
<!-- Generated by graphviz version 2.26.3 (20100126.1600)
 -->
<!-- Title: Slot&lt; Receiver, void, void, void, void, void &gt; Pages: 1 -->
<svg width="222pt" height="116pt"
 viewBox="0.00 0.00 222.00 116.00" xmlns="http://www.w3.org/2000/svg" xmlns:xlink="http://www.w3.org/1999/xlink">
<g id="graph1" class="graph" transform="scale(1 1) rotate(0) translate(4 112)">
<title>Slot&lt; Receiver, void, void, void, void, void &gt;</title>
<polygon fill="white" stroke="white" points="-4,5 -4,-112 219,-112 219,5 -4,5"/>
<!-- Node1 -->
<g id="node1" class="node"><title>Node1</title>
<polygon fill="#bfbfbf" stroke="black" points="32,-1 32,-35 154,-35 154,-1 32,-1"/>
<text text-anchor="start" x="40" y="-22" font-family="Helvetica,sans-Serif" font-size="10.00">Slot&lt; Receiver, void,</text>
<text text-anchor="middle" x="93" y="-9" font-family="Helvetica,sans-Serif" font-size="10.00"> void, void, void, void &gt;</text>
</g>
<!-- Node2 -->
<g id="node2" class="node"><title>Node2</title>
<a xlink:href="classSlotBase.htm" target="_top" xlink:title="SlotBase\&lt;\&gt;">
<polygon fill="white" stroke="black" points="-0.5,-79.5 -0.5,-100.5 70.5,-100.5 70.5,-79.5 -0.5,-79.5"/>
<text text-anchor="middle" x="35" y="-87.5" font-family="Helvetica,sans-Serif" font-size="10.00">SlotBase&lt;&gt;</text>
</a>
</g>
<!-- Node2&#45;&gt;Node1 -->
<g id="edge2" class="edge"><title>Node2&#45;&gt;Node1</title>
<path fill="none" stroke="midnightblue" d="M49.917,-71.4823C58.9562,-60.2613 70.4059,-46.0478 79.2295,-35.0944"/>
<polygon fill="midnightblue" stroke="midnightblue" points="47.1058,-69.3929 43.5581,-79.3762 52.5571,-73.7843 47.1058,-69.3929"/>
</g>
<!-- Node3 -->
<g id="node4" class="node"><title>Node3</title>
<a xlink:href="classFunctionWrapper.htm" target="_top" xlink:title="FunctionWrapper\&lt; void\l(Receiver::*)()\&gt;">
<polygon fill="white" stroke="black" points="88,-73 88,-107 214,-107 214,-73 88,-73"/>
<text text-anchor="start" x="96" y="-94" font-family="Helvetica,sans-Serif" font-size="10.00">FunctionWrapper&lt; void</text>
<text text-anchor="middle" x="151" y="-81" font-family="Helvetica,sans-Serif" font-size="10.00">(Receiver::*)()&gt;</text>
</a>
</g>
<!-- Node3&#45;&gt;Node1 -->
<g id="edge4" class="edge"><title>Node3&#45;&gt;Node1</title>
<path fill="none" stroke="midnightblue" d="M130.93,-65.0858C123.059,-55.3151 114.216,-44.3372 107.049,-35.4407"/>
<polygon fill="midnightblue" stroke="midnightblue" points="128.256,-67.3451 137.255,-72.937 133.707,-62.9538 128.256,-67.3451"/>
</g>
</g>
</svg>
