<?xml version="1.0" encoding="UTF-8" standalone="no"?>
<!DOCTYPE svg PUBLIC "-//W3C//DTD SVG 1.1//EN"
 "http://www.w3.org/Graphics/SVG/1.1/DTD/svg11.dtd">
<!-- Generated by graphviz version 2.26.3 (20100126.1600)
 -->
<!-- Title: Slot&lt; Receiver, Arg0, void, void, void, void &gt; Pages: 1 -->
<svg width="267pt" height="190pt"
 viewBox="0.00 0.00 267.00 190.00" xmlns="http://www.w3.org/2000/svg" xmlns:xlink="http://www.w3.org/1999/xlink">
<g id="graph1" class="graph" transform="scale(1 1) rotate(0) translate(4 186)">
<title>Slot&lt; Receiver, Arg0, void, void, void, void &gt;</title>
<polygon fill="white" stroke="white" points="-4,5 -4,-186 264,-186 264,5 -4,5"/>
<!-- Node1 -->
<g id="node1" class="node"><title>Node1</title>
<polygon fill="#bfbfbf" stroke="black" points="26,-1 26,-35 148,-35 148,-1 26,-1"/>
<text text-anchor="start" x="34" y="-22" font-family="Helvetica,sans-Serif" font-size="10.00">Slot&lt; Receiver, Arg0,</text>
<text text-anchor="middle" x="87" y="-9" font-family="Helvetica,sans-Serif" font-size="10.00"> void, void, void, void &gt;</text>
</g>
<!-- Node2 -->
<g id="node2" class="node"><title>Node2</title>
<a xlink:href="classSlotBase.htm" target="_top" xlink:title="SlotBase\&lt; Arg0 \&gt;">
<polygon fill="white" stroke="black" points="-0.5,-81.5 -0.5,-102.5 98.5,-102.5 98.5,-81.5 -0.5,-81.5"/>
<text text-anchor="middle" x="49" y="-89.5" font-family="Helvetica,sans-Serif" font-size="10.00">SlotBase&lt; Arg0 &gt;</text>
</a>
</g>
<!-- Node2&#45;&gt;Node1 -->
<g id="edge2" class="edge"><title>Node2&#45;&gt;Node1</title>
<path fill="none" stroke="midnightblue" d="M59.016,-72.4952C64.9726,-60.8954 72.4597,-46.3154 78.1903,-35.1558"/>
<polygon fill="midnightblue" stroke="midnightblue" points="55.8991,-70.9031 54.4445,-81.3976 62.1261,-74.1008 55.8991,-70.9031"/>
</g>
<!-- Node3 -->
<g id="node4" class="node"><title>Node3</title>
<a xlink:href="classFunctionWrapper.htm" target="_top" xlink:title="FunctionWrapper\&lt; void\l(Receiver::*)(Arg0)\&gt;">
<polygon fill="white" stroke="black" points="116,-75 116,-109 242,-109 242,-75 116,-75"/>
<text text-anchor="start" x="124" y="-96" font-family="Helvetica,sans-Serif" font-size="10.00">FunctionWrapper&lt; void</text>
<text text-anchor="middle" x="179" y="-83" font-family="Helvetica,sans-Serif" font-size="10.00">(Receiver::*)(Arg0)&gt;</text>
</a>
</g>
<!-- Node3&#45;&gt;Node1 -->
<g id="edge4" class="edge"><title>Node3&#45;&gt;Node1</title>
<path fill="none" stroke="midnightblue" d="M149.616,-68.365C136.159,-57.5406 120.509,-44.9532 108.222,-35.07"/>
<polygon fill="midnightblue" stroke="midnightblue" points="147.676,-71.2965 157.662,-74.8369 152.064,-65.842 147.676,-71.2965"/>
</g>
<!-- Node4 -->
<g id="node6" class="node"><title>Node4</title>
<a xlink:href="classvoid_07Receiver_1_1_5_08_07Arg0_08.htm" target="_top" xlink:title="*)(Arg0)">
<polygon fill="white" stroke="black" points="112,-160.5 112,-181.5 168,-181.5 168,-160.5 112,-160.5"/>
<text text-anchor="middle" x="140" y="-168.5" font-family="Helvetica,sans-Serif" font-size="10.00">*)(Arg0)</text>
</a>
</g>
<!-- Node4&#45;&gt;Node3 -->
<g id="edge6" class="edge"><title>Node4&#45;&gt;Node3</title>
<path fill="none" stroke="#9a32cd" stroke-dasharray="5,2" d="M137.284,-150.075C137.161,-142.816 137.982,-134.798 141,-128 144.171,-120.857 149.5,-114.45 155.18,-109.092"/>
<polygon fill="#9a32cd" stroke="#9a32cd" points="133.809,-150.538 138.035,-160.254 140.79,-150.024 133.809,-150.538"/>
<text text-anchor="middle" x="168.5" y="-132.5" font-family="Helvetica,sans-Serif" font-size="10.00"> m_function</text>
</g>
<!-- Node5 -->
<g id="node8" class="node"><title>Node5</title>
<a xlink:href="classTrackable.htm" target="_top" xlink:title="Trackable">
<polygon fill="white" stroke="black" points="186.5,-160.5 186.5,-181.5 249.5,-181.5 249.5,-160.5 186.5,-160.5"/>
<text text-anchor="middle" x="218" y="-168.5" font-family="Helvetica,sans-Serif" font-size="10.00">Trackable</text>
</a>
</g>
<!-- Node5&#45;&gt;Node3 -->
<g id="edge8" class="edge"><title>Node5&#45;&gt;Node3</title>
<path fill="none" stroke="#9a32cd" stroke-dasharray="5,2" d="M208.282,-151.316C201.881,-138.349 193.581,-121.536 187.453,-109.124"/>
<polygon fill="#9a32cd" stroke="#9a32cd" points="205.175,-152.928 212.74,-160.346 211.452,-149.829 205.175,-152.928"/>
<text text-anchor="middle" x="231" y="-132.5" font-family="Helvetica,sans-Serif" font-size="10.00"> m_receiver</text>
</g>
</g>
</svg>
