<?xml version="1.0" encoding="UTF-8" standalone="no"?>
<!DOCTYPE svg PUBLIC "-//W3C//DTD SVG 1.1//EN"
 "http://www.w3.org/Graphics/SVG/1.1/DTD/svg11.dtd">
<!-- Generated by graphviz version 2.26.3 (20100126.1600)
 -->
<!-- Title: HostBase Pages: 1 -->
<svg width="556pt" height="270pt"
 viewBox="0.00 0.00 556.00 270.00" xmlns="http://www.w3.org/2000/svg" xmlns:xlink="http://www.w3.org/1999/xlink">
<g id="graph1" class="graph" transform="scale(1 1) rotate(0) translate(4 266)">
<title>HostBase</title>
<polygon fill="white" stroke="white" points="-4,5 -4,-266 553,-266 553,5 -4,5"/>
<!-- Node1 -->
<g id="node1" class="node"><title>Node1</title>
<polygon fill="#bfbfbf" stroke="black" points="210,-100.5 210,-121.5 272,-121.5 272,-100.5 210,-100.5"/>
<text text-anchor="middle" x="241" y="-108.5" font-family="Helvetica,sans-Serif" font-size="10.00">HostBase</text>
</g>
<!-- Node5 -->
<g id="node9" class="node"><title>Node5</title>
<a xlink:href="classHostArm.htm" target="_top" xlink:title="HostArm">
<polygon fill="white" stroke="black" points="324.5,-120.5 324.5,-141.5 381.5,-141.5 381.5,-120.5 324.5,-120.5"/>
<text text-anchor="middle" x="353" y="-128.5" font-family="Helvetica,sans-Serif" font-size="10.00">HostArm</text>
</a>
</g>
<!-- Node1&#45;&gt;Node5 -->
<g id="edge8" class="edge"><title>Node1&#45;&gt;Node5</title>
<path fill="none" stroke="midnightblue" d="M282.103,-118.34C296.106,-120.84 311.45,-123.58 324.271,-125.87"/>
<polygon fill="midnightblue" stroke="midnightblue" points="282.658,-114.884 272.198,-116.571 281.427,-121.775 282.658,-114.884"/>
</g>
<!-- Node13 -->
<g id="node25" class="node"><title>Node13</title>
<a xlink:href="classHostQtDesktop.htm" target="_top" xlink:title="HostQtDesktop">
<polygon fill="white" stroke="black" points="308.5,-80.5 308.5,-101.5 397.5,-101.5 397.5,-80.5 308.5,-80.5"/>
<text text-anchor="middle" x="353" y="-88.5" font-family="Helvetica,sans-Serif" font-size="10.00">HostQtDesktop</text>
</a>
</g>
<!-- Node1&#45;&gt;Node13 -->
<g id="edge24" class="edge"><title>Node1&#45;&gt;Node13</title>
<path fill="none" stroke="midnightblue" d="M282.206,-103.642C290.655,-102.133 299.587,-100.538 308.156,-99.0078"/>
<polygon fill="midnightblue" stroke="midnightblue" points="281.427,-100.225 272.198,-105.429 282.658,-107.116 281.427,-100.225"/>
</g>
<!-- Node2 -->
<g id="node2" class="node"><title>Node2</title>
<a xlink:href="classQObject.htm" target="_top" xlink:title="QObject">
<polygon fill="white" stroke="black" points="114.5,-120.5 114.5,-141.5 169.5,-141.5 169.5,-120.5 114.5,-120.5"/>
<text text-anchor="middle" x="142" y="-128.5" font-family="Helvetica,sans-Serif" font-size="10.00">QObject</text>
</a>
</g>
<!-- Node2&#45;&gt;Node1 -->
<g id="edge2" class="edge"><title>Node2&#45;&gt;Node1</title>
<path fill="none" stroke="midnightblue" d="M179.615,-123.401C189.553,-121.393 200.171,-119.248 209.733,-117.317"/>
<polygon fill="midnightblue" stroke="midnightblue" points="178.686,-120.018 169.577,-125.429 180.072,-126.879 178.686,-120.018"/>
</g>
<!-- Node3 -->
<g id="node4" class="node"><title>Node3</title>
<a xlink:href="classTaskBase.htm" target="_top" xlink:title="TaskBase">
<polygon fill="white" stroke="black" points="110,-80.5 110,-101.5 174,-101.5 174,-80.5 110,-80.5"/>
<text text-anchor="middle" x="142" y="-88.5" font-family="Helvetica,sans-Serif" font-size="10.00">TaskBase</text>
</a>
</g>
<!-- Node3&#45;&gt;Node1 -->
<g id="edge4" class="edge"><title>Node3&#45;&gt;Node1</title>
<path fill="none" stroke="midnightblue" d="M184.035,-99.4919C192.637,-101.23 201.547,-103.03 209.694,-104.676"/>
<polygon fill="midnightblue" stroke="midnightblue" points="184.638,-96.043 174.142,-97.4934 183.251,-102.904 184.638,-96.043"/>
</g>
<!-- Node4 -->
<g id="node6" class="node"><title>Node4</title>
<a xlink:href="classRefCounted.htm" target="_top" xlink:title="RefCounted">
<polygon fill="white" stroke="black" points="0.5,-80.5 0.5,-101.5 73.5,-101.5 73.5,-80.5 0.5,-80.5"/>
<text text-anchor="middle" x="37" y="-88.5" font-family="Helvetica,sans-Serif" font-size="10.00">RefCounted</text>
</a>
</g>
<!-- Node4&#45;&gt;Node3 -->
<g id="edge6" class="edge"><title>Node4&#45;&gt;Node3</title>
<path fill="none" stroke="midnightblue" d="M83.8188,-91C92.5513,-91 101.496,-91 109.671,-91"/>
<polygon fill="midnightblue" stroke="midnightblue" points="83.7239,-87.5001 73.7239,-91 83.7239,-94.5001 83.7239,-87.5001"/>
</g>
<!-- Node6 -->
<g id="node11" class="node"><title>Node6</title>
<a xlink:href="classHostArmBroadway.htm" target="_top" xlink:title="HostArmBroadway">
<polygon fill="white" stroke="black" points="439,-240.5 439,-261.5 543,-261.5 543,-240.5 439,-240.5"/>
<text text-anchor="middle" x="491" y="-248.5" font-family="Helvetica,sans-Serif" font-size="10.00">HostArmBroadway</text>
</a>
</g>
<!-- Node5&#45;&gt;Node6 -->
<g id="edge10" class="edge"><title>Node5&#45;&gt;Node6</title>
<path fill="none" stroke="midnightblue" d="M364.042,-150.314C377.757,-172.694 403.155,-209.271 434,-231 439.316,-234.745 445.4,-237.849 451.568,-240.403"/>
<polygon fill="midnightblue" stroke="midnightblue" points="367.022,-148.477 358.898,-141.676 361.008,-152.059 367.022,-148.477"/>
</g>
<!-- Node7 -->
<g id="node13" class="node"><title>Node7</title>
<a xlink:href="classHostArmMantaray.htm" target="_top" xlink:title="HostArmMantaray">
<polygon fill="white" stroke="black" points="440,-200.5 440,-221.5 542,-221.5 542,-200.5 440,-200.5"/>
<text text-anchor="middle" x="491" y="-208.5" font-family="Helvetica,sans-Serif" font-size="10.00">HostArmMantaray</text>
</a>
</g>
<!-- Node5&#45;&gt;Node7 -->
<g id="edge12" class="edge"><title>Node5&#45;&gt;Node7</title>
<path fill="none" stroke="midnightblue" d="M372.794,-148.321C388.532,-161.413 411.561,-179.103 434,-191 440.764,-194.586 448.305,-197.753 455.63,-200.449"/>
<polygon fill="midnightblue" stroke="midnightblue" points="374.741,-145.383 364.85,-141.586 370.214,-150.723 374.741,-145.383"/>
</g>
<!-- Node8 -->
<g id="node15" class="node"><title>Node8</title>
<a xlink:href="classHostArmOpal.htm" target="_top" xlink:title="HostArmOpal">
<polygon fill="white" stroke="black" points="451,-160.5 451,-181.5 531,-181.5 531,-160.5 451,-160.5"/>
<text text-anchor="middle" x="491" y="-168.5" font-family="Helvetica,sans-Serif" font-size="10.00">HostArmOpal</text>
</a>
</g>
<!-- Node5&#45;&gt;Node8 -->
<g id="edge14" class="edge"><title>Node5&#45;&gt;Node8</title>
<path fill="none" stroke="midnightblue" d="M391.216,-142.077C411.001,-147.812 435.034,-154.778 454.556,-160.437"/>
<polygon fill="midnightblue" stroke="midnightblue" points="392.173,-138.71 381.594,-139.288 390.224,-145.434 392.173,-138.71"/>
</g>
<!-- Node9 -->
<g id="node17" class="node"><title>Node9</title>
<a xlink:href="classHostArmQemu.htm" target="_top" xlink:title="HostArmQemu">
<polygon fill="white" stroke="black" points="448.5,-120.5 448.5,-141.5 533.5,-141.5 533.5,-120.5 448.5,-120.5"/>
<text text-anchor="middle" x="491" y="-128.5" font-family="Helvetica,sans-Serif" font-size="10.00">HostArmQemu</text>
</a>
</g>
<!-- Node5&#45;&gt;Node9 -->
<g id="edge16" class="edge"><title>Node5&#45;&gt;Node9</title>
<path fill="none" stroke="midnightblue" d="M392.048,-131C409.588,-131 430.333,-131 448.287,-131"/>
<polygon fill="midnightblue" stroke="midnightblue" points="391.594,-127.5 381.594,-131 391.594,-134.5 391.594,-127.5"/>
</g>
<!-- Node10 -->
<g id="node19" class="node"><title>Node10</title>
<a xlink:href="classHostArmTopaz.htm" target="_top" xlink:title="HostArmTopaz">
<polygon fill="white" stroke="black" points="447.5,-80.5 447.5,-101.5 534.5,-101.5 534.5,-80.5 447.5,-80.5"/>
<text text-anchor="middle" x="491" y="-88.5" font-family="Helvetica,sans-Serif" font-size="10.00">HostArmTopaz</text>
</a>
</g>
<!-- Node5&#45;&gt;Node10 -->
<g id="edge18" class="edge"><title>Node5&#45;&gt;Node10</title>
<path fill="none" stroke="midnightblue" d="M391.216,-119.923C411.001,-114.188 435.034,-107.222 454.556,-101.563"/>
<polygon fill="midnightblue" stroke="midnightblue" points="390.224,-116.566 381.594,-122.712 392.173,-123.29 390.224,-116.566"/>
</g>
<!-- Node11 -->
<g id="node21" class="node"><title>Node11</title>
<a xlink:href="classHostArmUnknown.htm" target="_top" xlink:title="HostArmUnknown">
<polygon fill="white" stroke="black" points="440.5,-40.5 440.5,-61.5 541.5,-61.5 541.5,-40.5 440.5,-40.5"/>
<text text-anchor="middle" x="491" y="-48.5" font-family="Helvetica,sans-Serif" font-size="10.00">HostArmUnknown</text>
</a>
</g>
<!-- Node5&#45;&gt;Node11 -->
<g id="edge20" class="edge"><title>Node5&#45;&gt;Node11</title>
<path fill="none" stroke="midnightblue" d="M390.581,-115.785C393.164,-114.292 395.665,-112.695 398,-111 417.353,-96.9458 414.096,-84.2614 434,-71 439.586,-67.2785 445.941,-64.1678 452.332,-61.595"/>
<polygon fill="midnightblue" stroke="midnightblue" points="388.856,-112.737 381.604,-120.462 392.09,-118.945 388.856,-112.737"/>
</g>
<!-- Node12 -->
<g id="node23" class="node"><title>Node12</title>
<a xlink:href="classHostArmWindsorNot.htm" target="_top" xlink:title="HostArmWindsorNot">
<polygon fill="white" stroke="black" points="434.5,-0.5 434.5,-21.5 547.5,-21.5 547.5,-0.5 434.5,-0.5"/>
<text text-anchor="middle" x="491" y="-8.5" font-family="Helvetica,sans-Serif" font-size="10.00">HostArmWindsorNot</text>
</a>
</g>
<!-- Node5&#45;&gt;Node12 -->
<g id="edge22" class="edge"><title>Node5&#45;&gt;Node12</title>
<path fill="none" stroke="midnightblue" d="M390.57,-117.005C393.25,-115.216 395.769,-113.22 398,-111 425.634,-83.494 405.278,-57.3679 434,-31 438.172,-27.1701 443.12,-24.0661 448.331,-21.5521"/>
<polygon fill="midnightblue" stroke="midnightblue" points="388.624,-114.084 381.627,-122.04 392.058,-120.184 388.624,-114.084"/>
</g>
</g>
</svg>
