<?xml version="1.0" encoding="UTF-8" standalone="no"?>
<!DOCTYPE svg PUBLIC "-//W3C//DTD SVG 1.1//EN"
 "http://www.w3.org/Graphics/SVG/1.1/DTD/svg11.dtd">
<!-- Generated by graphviz version 2.26.3 (20100126.1600)
 -->
<!-- Title: NYXConnectorBase Pages: 1 -->
<svg width="646pt" height="506pt"
 viewBox="0.00 0.00 646.00 506.00" xmlns="http://www.w3.org/2000/svg" xmlns:xlink="http://www.w3.org/1999/xlink">
<g id="graph1" class="graph" transform="scale(1 1) rotate(0) translate(4 502)">
<title>NYXConnectorBase</title>
<polygon fill="white" stroke="white" points="-4,5 -4,-502 643,-502 643,5 -4,5"/>
<!-- Node1 -->
<g id="node1" class="node"><title>Node1</title>
<polygon fill="#bfbfbf" stroke="black" points="92.5,-235.5 92.5,-256.5 203.5,-256.5 203.5,-235.5 92.5,-235.5"/>
<text text-anchor="middle" x="148" y="-243.5" font-family="Helvetica,sans-Serif" font-size="10.00">NYXConnectorBase</text>
</g>
<!-- Node3 -->
<g id="node5" class="node"><title>Node3</title>
<a xlink:href="classNYXAccelerationSensorConnector.htm" target="_top" xlink:title="NYXAccelerationSensorConnector">
<polygon fill="white" stroke="black" points="244.5,-476.5 244.5,-497.5 423.5,-497.5 423.5,-476.5 244.5,-476.5"/>
<text text-anchor="middle" x="334" y="-484.5" font-family="Helvetica,sans-Serif" font-size="10.00">NYXAccelerationSensorConnector</text>
</a>
</g>
<!-- Node1&#45;&gt;Node3 -->
<g id="edge4" class="edge"><title>Node1&#45;&gt;Node3</title>
<path fill="none" stroke="midnightblue" d="M150.256,-266.634C156.229,-310.722 176.614,-414.367 240,-467 244.493,-470.731 249.514,-473.815 254.835,-476.36"/>
<polygon fill="midnightblue" stroke="midnightblue" points="153.71,-266.041 149.006,-256.548 146.763,-266.902 153.71,-266.041"/>
</g>
<!-- Node4 -->
<g id="node7" class="node"><title>Node4</title>
<a xlink:href="classNYXAlsSensorConnector.htm" target="_top" xlink:title="NYXAlsSensorConnector">
<polygon fill="white" stroke="black" points="266.5,-436.5 266.5,-457.5 401.5,-457.5 401.5,-436.5 266.5,-436.5"/>
<text text-anchor="middle" x="334" y="-444.5" font-family="Helvetica,sans-Serif" font-size="10.00">NYXAlsSensorConnector</text>
</a>
</g>
<!-- Node1&#45;&gt;Node4 -->
<g id="edge6" class="edge"><title>Node1&#45;&gt;Node4</title>
<path fill="none" stroke="midnightblue" d="M152.306,-266.525C161.404,-304.535 186.318,-385.758 240,-427 247.674,-432.896 256.696,-437.146 266.061,-440.195"/>
<polygon fill="midnightblue" stroke="midnightblue" points="155.683,-265.592 150.061,-256.612 148.856,-267.138 155.683,-265.592"/>
</g>
<!-- Node5 -->
<g id="node9" class="node"><title>Node5</title>
<a xlink:href="classNYXAngularVelocitySensorConnector.htm" target="_top" xlink:title="NYXAngularVelocitySensor\lConnector">
<polygon fill="white" stroke="black" points="262,-384 262,-418 406,-418 406,-384 262,-384"/>
<text text-anchor="start" x="270" y="-405" font-family="Helvetica,sans-Serif" font-size="10.00">NYXAngularVelocitySensor</text>
<text text-anchor="middle" x="334" y="-392" font-family="Helvetica,sans-Serif" font-size="10.00">Connector</text>
</a>
</g>
<!-- Node1&#45;&gt;Node5 -->
<g id="edge8" class="edge"><title>Node1&#45;&gt;Node5</title>
<path fill="none" stroke="midnightblue" d="M156.806,-265.896C170.459,-294.423 199.453,-346.627 240,-375 246.659,-379.66 254.126,-383.486 261.863,-386.628"/>
<polygon fill="midnightblue" stroke="midnightblue" points="159.854,-264.15 152.477,-256.545 153.502,-267.091 159.854,-264.15"/>
</g>
<!-- Node6 -->
<g id="node11" class="node"><title>Node6</title>
<a xlink:href="classNYXBearingSensorConnector.htm" target="_top" xlink:title="NYXBearingSensorConnector">
<polygon fill="white" stroke="black" points="255,-344.5 255,-365.5 413,-365.5 413,-344.5 255,-344.5"/>
<text text-anchor="middle" x="334" y="-352.5" font-family="Helvetica,sans-Serif" font-size="10.00">NYXBearingSensorConnector</text>
</a>
</g>
<!-- Node1&#45;&gt;Node6 -->
<g id="edge10" class="edge"><title>Node1&#45;&gt;Node6</title>
<path fill="none" stroke="midnightblue" d="M161.97,-264.745C178.334,-285.291 207.388,-317.637 240,-335 247.216,-338.842 255.114,-341.946 263.168,-344.454"/>
<polygon fill="midnightblue" stroke="midnightblue" points="164.655,-262.496 155.76,-256.74 159.124,-266.787 164.655,-262.496"/>
</g>
<!-- Node7 -->
<g id="node13" class="node"><title>Node7</title>
<a xlink:href="classNYXGravitySensorConnector.htm" target="_top" xlink:title="NYXGravitySensorConnector">
<polygon fill="white" stroke="black" points="256.5,-304.5 256.5,-325.5 411.5,-325.5 411.5,-304.5 256.5,-304.5"/>
<text text-anchor="middle" x="334" y="-312.5" font-family="Helvetica,sans-Serif" font-size="10.00">NYXGravitySensorConnector</text>
</a>
</g>
<!-- Node1&#45;&gt;Node7 -->
<g id="edge12" class="edge"><title>Node1&#45;&gt;Node7</title>
<path fill="none" stroke="midnightblue" d="M173.352,-261.997C191.345,-272.719 216.4,-286.398 240,-295 250.268,-298.742 261.435,-301.879 272.369,-304.475"/>
<polygon fill="midnightblue" stroke="midnightblue" points="174.995,-258.9 164.631,-256.702 171.362,-264.884 174.995,-258.9"/>
</g>
<!-- Node8 -->
<g id="node15" class="node"><title>Node8</title>
<a xlink:href="classNYXLinearAccelearationSensorConnector.htm" target="_top" xlink:title="NYXLinearAccelearationSensor\lConnector">
<polygon fill="white" stroke="black" points="251,-252 251,-286 417,-286 417,-252 251,-252"/>
<text text-anchor="start" x="259" y="-273" font-family="Helvetica,sans-Serif" font-size="10.00">NYXLinearAccelearationSensor</text>
<text text-anchor="middle" x="334" y="-260" font-family="Helvetica,sans-Serif" font-size="10.00">Connector</text>
</a>
</g>
<!-- Node1&#45;&gt;Node8 -->
<g id="edge14" class="edge"><title>Node1&#45;&gt;Node8</title>
<path fill="none" stroke="midnightblue" d="M213.519,-254.102C225.596,-255.595 238.353,-257.173 250.868,-258.72"/>
<polygon fill="midnightblue" stroke="midnightblue" points="213.908,-250.623 203.554,-252.87 213.049,-257.57 213.908,-250.623"/>
</g>
<!-- Node9 -->
<g id="node17" class="node"><title>Node9</title>
<a xlink:href="classNYXLogicalSensorConnectorBase.htm" target="_top" xlink:title="NYXLogicalSensorConnectorBase">
<polygon fill="white" stroke="black" points="244.5,-212.5 244.5,-233.5 423.5,-233.5 423.5,-212.5 244.5,-212.5"/>
<text text-anchor="middle" x="334" y="-220.5" font-family="Helvetica,sans-Serif" font-size="10.00">NYXLogicalSensorConnectorBase</text>
</a>
</g>
<!-- Node1&#45;&gt;Node9 -->
<g id="edge16" class="edge"><title>Node1&#45;&gt;Node9</title>
<path fill="none" stroke="midnightblue" d="M213.775,-237.867C225.108,-236.465 237.034,-234.99 248.792,-233.537"/>
<polygon fill="midnightblue" stroke="midnightblue" points="213.049,-234.43 203.554,-239.13 213.908,-241.377 213.049,-234.43"/>
</g>
<!-- Node14 -->
<g id="node27" class="node"><title>Node14</title>
<a xlink:href="classNYXMagneticFieldSensorConnector.htm" target="_top" xlink:title="NYXMagneticFieldSensorConnector">
<polygon fill="white" stroke="black" points="240.5,-172.5 240.5,-193.5 427.5,-193.5 427.5,-172.5 240.5,-172.5"/>
<text text-anchor="middle" x="334" y="-180.5" font-family="Helvetica,sans-Serif" font-size="10.00">NYXMagneticFieldSensorConnector</text>
</a>
</g>
<!-- Node1&#45;&gt;Node14 -->
<g id="edge26" class="edge"><title>Node1&#45;&gt;Node14</title>
<path fill="none" stroke="midnightblue" d="M176.465,-230.636C194.299,-221.534 217.997,-210.376 240,-203 250.916,-199.341 262.776,-196.202 274.278,-193.567"/>
<polygon fill="midnightblue" stroke="midnightblue" points="174.47,-227.728 167.21,-235.444 177.697,-233.94 174.47,-227.728"/>
</g>
<!-- Node15 -->
<g id="node29" class="node"><title>Node15</title>
<a xlink:href="classNYXOrientationSensorConnector.htm" target="_top" xlink:title="NYXOrientationSensorConnector">
<polygon fill="white" stroke="black" points="247.5,-132.5 247.5,-153.5 420.5,-153.5 420.5,-132.5 247.5,-132.5"/>
<text text-anchor="middle" x="334" y="-140.5" font-family="Helvetica,sans-Serif" font-size="10.00">NYXOrientationSensorConnector</text>
</a>
</g>
<!-- Node1&#45;&gt;Node15 -->
<g id="edge28" class="edge"><title>Node1&#45;&gt;Node15</title>
<path fill="none" stroke="midnightblue" d="M163.002,-227.677C179.739,-208.504 208.62,-179.012 240,-163 247.431,-159.208 255.545,-156.135 263.792,-153.644"/>
<polygon fill="midnightblue" stroke="midnightblue" points="160.216,-225.55 156.4,-235.433 165.547,-230.086 160.216,-225.55"/>
</g>
<!-- Node16 -->
<g id="node31" class="node"><title>Node16</title>
<a xlink:href="classNYXRotationSensorConnector.htm" target="_top" xlink:title="NYXRotationSensorConnector">
<polygon fill="white" stroke="black" points="253.5,-92.5 253.5,-113.5 414.5,-113.5 414.5,-92.5 253.5,-92.5"/>
<text text-anchor="middle" x="334" y="-100.5" font-family="Helvetica,sans-Serif" font-size="10.00">NYXRotationSensorConnector</text>
</a>
</g>
<!-- Node1&#45;&gt;Node16 -->
<g id="edge30" class="edge"><title>Node1&#45;&gt;Node16</title>
<path fill="none" stroke="midnightblue" d="M157.046,-226.3C170.827,-198.618 199.787,-148.725 240,-123 245.903,-119.224 252.399,-116.148 259.135,-113.645"/>
<polygon fill="midnightblue" stroke="midnightblue" points="153.846,-224.878 152.663,-235.407 160.153,-227.914 153.846,-224.878"/>
</g>
<!-- Node17 -->
<g id="node33" class="node"><title>Node17</title>
<a xlink:href="classNYXScreenProximitySensorConnector.htm" target="_top" xlink:title="NYXScreenProximitySensor\lConnector">
<polygon fill="white" stroke="black" points="260,-40 260,-74 408,-74 408,-40 260,-40"/>
<text text-anchor="start" x="268" y="-61" font-family="Helvetica,sans-Serif" font-size="10.00">NYXScreenProximitySensor</text>
<text text-anchor="middle" x="334" y="-48" font-family="Helvetica,sans-Serif" font-size="10.00">Connector</text>
</a>
</g>
<!-- Node1&#45;&gt;Node17 -->
<g id="edge32" class="edge"><title>Node1&#45;&gt;Node17</title>
<path fill="none" stroke="midnightblue" d="M153.892,-225.397C164.903,-190.659 191.947,-120.557 240,-83 246.003,-78.3079 252.801,-74.462 259.927,-71.3098"/>
<polygon fill="midnightblue" stroke="midnightblue" points="150.427,-224.762 150.874,-235.347 157.126,-226.794 150.427,-224.762"/>
</g>
<!-- Node18 -->
<g id="node35" class="node"><title>Node18</title>
<a xlink:href="classNYXShakeSensorConnector.htm" target="_top" xlink:title="NYXShakeSensorConnector">
<polygon fill="white" stroke="black" points="258.5,-0.5 258.5,-21.5 409.5,-21.5 409.5,-0.5 258.5,-0.5"/>
<text text-anchor="middle" x="334" y="-8.5" font-family="Helvetica,sans-Serif" font-size="10.00">NYXShakeSensorConnector</text>
</a>
</g>
<!-- Node1&#45;&gt;Node18 -->
<g id="edge34" class="edge"><title>Node1&#45;&gt;Node18</title>
<path fill="none" stroke="midnightblue" d="M150.527,-225.337C156.963,-182.099 178.101,-81.8851 240,-31 245.413,-26.5499 251.58,-23.0217 258.108,-20.2327"/>
<polygon fill="midnightblue" stroke="midnightblue" points="147.026,-225.105 149.135,-235.488 153.961,-226.056 147.026,-225.105"/>
</g>
<!-- Node2 -->
<g id="node2" class="node"><title>Node2</title>
<a xlink:href="classQObject.htm" target="_top" xlink:title="QObject">
<polygon fill="white" stroke="black" points="0.5,-235.5 0.5,-256.5 55.5,-256.5 55.5,-235.5 0.5,-235.5"/>
<text text-anchor="middle" x="28" y="-243.5" font-family="Helvetica,sans-Serif" font-size="10.00">QObject</text>
</a>
</g>
<!-- Node2&#45;&gt;Node1 -->
<g id="edge2" class="edge"><title>Node2&#45;&gt;Node1</title>
<path fill="none" stroke="midnightblue" d="M65.7513,-246C74.1545,-246 83.236,-246 92.1924,-246"/>
<polygon fill="midnightblue" stroke="midnightblue" points="65.5305,-242.5 55.5304,-246 65.5304,-249.5 65.5305,-242.5"/>
</g>
<!-- Node10 -->
<g id="node19" class="node"><title>Node10</title>
<a xlink:href="classNYXLogicalAccelerometerSensorConnector.htm" target="_top" xlink:title="NYXLogicalAccelerometerSensor\lConnector">
<polygon fill="white" stroke="black" points="464.5,-284 464.5,-318 637.5,-318 637.5,-284 464.5,-284"/>
<text text-anchor="start" x="472.5" y="-305" font-family="Helvetica,sans-Serif" font-size="10.00">NYXLogicalAccelerometerSensor</text>
<text text-anchor="middle" x="551" y="-292" font-family="Helvetica,sans-Serif" font-size="10.00">Connector</text>
</a>
</g>
<!-- Node9&#45;&gt;Node10 -->
<g id="edge18" class="edge"><title>Node9&#45;&gt;Node10</title>
<path fill="none" stroke="midnightblue" d="M413.464,-236.769C418.483,-238.594 423.373,-240.66 428,-243 447.104,-252.66 445.301,-264.577 464,-275 470.059,-278.377 476.605,-281.362 483.292,-283.988"/>
<polygon fill="midnightblue" stroke="midnightblue" points="414.279,-233.352 403.686,-233.549 412.089,-240.001 414.279,-233.352"/>
</g>
<!-- Node11 -->
<g id="node21" class="node"><title>Node11</title>
<a xlink:href="classNYXLogicalDeviceMotionSensorConnector.htm" target="_top" xlink:title="NYXLogicalDeviceMotionSensor\lConnector">
<polygon fill="white" stroke="black" points="466,-232 466,-266 636,-266 636,-232 466,-232"/>
<text text-anchor="start" x="474" y="-253" font-family="Helvetica,sans-Serif" font-size="10.00">NYXLogicalDeviceMotionSensor</text>
<text text-anchor="middle" x="551" y="-240" font-family="Helvetica,sans-Serif" font-size="10.00">Connector</text>
</a>
</g>
<!-- Node9&#45;&gt;Node11 -->
<g id="edge20" class="edge"><title>Node9&#45;&gt;Node11</title>
<path fill="none" stroke="midnightblue" d="M431.618,-234.696C443.039,-236.065 454.621,-237.452 465.854,-238.798"/>
<polygon fill="midnightblue" stroke="midnightblue" points="431.982,-231.215 421.637,-233.5 431.149,-238.165 431.982,-231.215"/>
</g>
<!-- Node12 -->
<g id="node23" class="node"><title>Node12</title>
<a xlink:href="classNYXLogicalDeviceOrientationSensorConnector.htm" target="_top" xlink:title="NYXLogicalDeviceOrientation\lSensorConnector">
<polygon fill="white" stroke="black" points="473,-180 473,-214 629,-214 629,-180 473,-180"/>
<text text-anchor="start" x="481" y="-201" font-family="Helvetica,sans-Serif" font-size="10.00">NYXLogicalDeviceOrientation</text>
<text text-anchor="middle" x="551" y="-188" font-family="Helvetica,sans-Serif" font-size="10.00">SensorConnector</text>
</a>
</g>
<!-- Node9&#45;&gt;Node12 -->
<g id="edge22" class="edge"><title>Node9&#45;&gt;Node12</title>
<path fill="none" stroke="midnightblue" d="M431.629,-211.302C445.428,-209.649 459.463,-207.968 472.83,-206.366"/>
<polygon fill="midnightblue" stroke="midnightblue" points="431.149,-207.835 421.637,-212.5 431.982,-214.785 431.149,-207.835"/>
</g>
<!-- Node13 -->
<g id="node25" class="node"><title>Node13</title>
<a xlink:href="classNYXLogicalOrientationSensorConnector.htm" target="_top" xlink:title="NYXLogicalOrientationSensor\lConnector">
<polygon fill="white" stroke="black" points="472,-128 472,-162 630,-162 630,-128 472,-128"/>
<text text-anchor="start" x="480" y="-149" font-family="Helvetica,sans-Serif" font-size="10.00">NYXLogicalOrientationSensor</text>
<text text-anchor="middle" x="551" y="-136" font-family="Helvetica,sans-Serif" font-size="10.00">Connector</text>
</a>
</g>
<!-- Node9&#45;&gt;Node13 -->
<g id="edge24" class="edge"><title>Node9&#45;&gt;Node13</title>
<path fill="none" stroke="midnightblue" d="M413.464,-209.231C418.483,-207.406 423.373,-205.34 428,-203 447.104,-193.34 445.301,-181.423 464,-171 470.059,-167.623 476.605,-164.638 483.292,-162.012"/>
<polygon fill="midnightblue" stroke="midnightblue" points="412.089,-205.999 403.686,-212.451 414.279,-212.648 412.089,-205.999"/>
</g>
</g>
</svg>
