<?xml version="1.0" encoding="UTF-8" standalone="no"?>
<!DOCTYPE svg PUBLIC "-//W3C//DTD SVG 1.1//EN"
 "http://www.w3.org/Graphics/SVG/1.1/DTD/svg11.dtd">
<!-- Generated by graphviz version 2.26.3 (20100126.1600)
 -->
<!-- Title: HostQtDesktop Pages: 1 -->
<svg width="148pt" height="204pt"
 viewBox="0.00 0.00 148.00 204.00" xmlns="http://www.w3.org/2000/svg" xmlns:xlink="http://www.w3.org/1999/xlink">
<g id="graph1" class="graph" transform="scale(1 1) rotate(0) translate(4 200)">
<title>HostQtDesktop</title>
<polygon fill="white" stroke="white" points="-4,5 -4,-200 145,-200 145,5 -4,5"/>
<!-- Node1 -->
<g id="node1" class="node"><title>Node1</title>
<polygon fill="#bfbfbf" stroke="black" points="20.5,-0.5 20.5,-21.5 109.5,-21.5 109.5,-0.5 20.5,-0.5"/>
<text text-anchor="middle" x="65" y="-8.5" font-family="Helvetica,sans-Serif" font-size="10.00">HostQtDesktop</text>
</g>
<!-- Node2 -->
<g id="node2" class="node"><title>Node2</title>
<a xlink:href="classHostBase.htm" target="_top" xlink:title="HostBase">
<polygon fill="white" stroke="black" points="34,-58.5 34,-79.5 96,-79.5 96,-58.5 34,-58.5"/>
<text text-anchor="middle" x="65" y="-66.5" font-family="Helvetica,sans-Serif" font-size="10.00">HostBase</text>
</a>
</g>
<!-- Node2&#45;&gt;Node1 -->
<g id="edge2" class="edge"><title>Node2&#45;&gt;Node1</title>
<path fill="none" stroke="midnightblue" d="M65,-48.1906C65,-39.1684 65,-28.9941 65,-21.5707"/>
<polygon fill="midnightblue" stroke="midnightblue" points="61.5001,-48.3619 65,-58.3619 68.5001,-48.3619 61.5001,-48.3619"/>
</g>
<!-- Node3 -->
<g id="node4" class="node"><title>Node3</title>
<a xlink:href="classQObject.htm" target="_top" xlink:title="QObject">
<polygon fill="white" stroke="black" points="-0.5,-116.5 -0.5,-137.5 54.5,-137.5 54.5,-116.5 -0.5,-116.5"/>
<text text-anchor="middle" x="27" y="-124.5" font-family="Helvetica,sans-Serif" font-size="10.00">QObject</text>
</a>
</g>
<!-- Node3&#45;&gt;Node2 -->
<g id="edge4" class="edge"><title>Node3&#45;&gt;Node2</title>
<path fill="none" stroke="midnightblue" d="M39.4751,-107.959C45.658,-98.522 52.8901,-87.4835 58.0744,-79.5707"/>
<polygon fill="midnightblue" stroke="midnightblue" points="36.5225,-106.079 33.9698,-116.362 42.3777,-109.915 36.5225,-106.079"/>
</g>
<!-- Node4 -->
<g id="node6" class="node"><title>Node4</title>
<a xlink:href="classTaskBase.htm" target="_top" xlink:title="TaskBase">
<polygon fill="white" stroke="black" points="72,-116.5 72,-137.5 136,-137.5 136,-116.5 72,-116.5"/>
<text text-anchor="middle" x="104" y="-124.5" font-family="Helvetica,sans-Serif" font-size="10.00">TaskBase</text>
</a>
</g>
<!-- Node4&#45;&gt;Node2 -->
<g id="edge6" class="edge"><title>Node4&#45;&gt;Node2</title>
<path fill="none" stroke="midnightblue" d="M91.1966,-107.959C84.851,-98.522 77.4286,-87.4835 72.1079,-79.5707"/>
<polygon fill="midnightblue" stroke="midnightblue" points="88.3623,-110.016 96.8468,-116.362 94.1712,-106.11 88.3623,-110.016"/>
</g>
<!-- Node5 -->
<g id="node8" class="node"><title>Node5</title>
<a xlink:href="classRefCounted.htm" target="_top" xlink:title="RefCounted">
<polygon fill="white" stroke="black" points="67.5,-174.5 67.5,-195.5 140.5,-195.5 140.5,-174.5 67.5,-174.5"/>
<text text-anchor="middle" x="104" y="-182.5" font-family="Helvetica,sans-Serif" font-size="10.00">RefCounted</text>
</a>
</g>
<!-- Node5&#45;&gt;Node4 -->
<g id="edge8" class="edge"><title>Node5&#45;&gt;Node4</title>
<path fill="none" stroke="midnightblue" d="M104,-164.191C104,-155.168 104,-144.994 104,-137.571"/>
<polygon fill="midnightblue" stroke="midnightblue" points="100.5,-164.362 104,-174.362 107.5,-164.362 100.5,-164.362"/>
</g>
</g>
</svg>
