<?xml version="1.0" encoding="UTF-8" standalone="no"?>
<!DOCTYPE svg PUBLIC "-//W3C//DTD SVG 1.1//EN"
 "http://www.w3.org/Graphics/SVG/1.1/DTD/svg11.dtd">
<!-- Generated by graphviz version 2.26.3 (20100126.1600)
 -->
<!-- Title: Signal&lt; Arg0, Arg1, void, void, void &gt; Pages: 1 -->
<svg width="218pt" height="190pt"
 viewBox="0.00 0.00 218.00 190.00" xmlns="http://www.w3.org/2000/svg" xmlns:xlink="http://www.w3.org/1999/xlink">
<g id="graph1" class="graph" transform="scale(1 1) rotate(0) translate(4 186)">
<title>Signal&lt; Arg0, Arg1, void, void, void &gt;</title>
<polygon fill="white" stroke="white" points="-4,5 -4,-186 215,-186 215,5 -4,5"/>
<!-- Node1 -->
<g id="node1" class="node"><title>Node1</title>
<polygon fill="#bfbfbf" stroke="black" points="28.5,-1 28.5,-35 135.5,-35 135.5,-1 28.5,-1"/>
<text text-anchor="start" x="36.5" y="-22" font-family="Helvetica,sans-Serif" font-size="10.00">Signal&lt; Arg0, Arg1,</text>
<text text-anchor="middle" x="82" y="-9" font-family="Helvetica,sans-Serif" font-size="10.00"> void, void, void &gt;</text>
</g>
<!-- Node2 -->
<g id="node2" class="node"><title>Node2</title>
<a xlink:href="classSignalBase.htm" target="_top" xlink:title="SignalBase\&lt; Arg0, Arg1 \&gt;">
<polygon fill="white" stroke="black" points="13,-74.5 13,-95.5 151,-95.5 151,-74.5 13,-74.5"/>
<text text-anchor="middle" x="82" y="-82.5" font-family="Helvetica,sans-Serif" font-size="10.00">SignalBase&lt; Arg0, Arg1 &gt;</text>
</a>
</g>
<!-- Node2&#45;&gt;Node1 -->
<g id="edge2" class="edge"><title>Node2&#45;&gt;Node1</title>
<path fill="none" stroke="midnightblue" d="M82,-64.1655C82,-54.7973 82,-43.8796 82,-35.0139"/>
<polygon fill="midnightblue" stroke="midnightblue" points="78.5001,-64.2353 82,-74.2353 85.5001,-64.2353 78.5001,-64.2353"/>
</g>
<!-- Node3 -->
<g id="node4" class="node"><title>Node3</title>
<a xlink:href="classSender.htm" target="_top" xlink:title="Sender">
<polygon fill="white" stroke="black" points="-0.5,-153.5 -0.5,-174.5 50.5,-174.5 50.5,-153.5 -0.5,-153.5"/>
<text text-anchor="middle" x="25" y="-161.5" font-family="Helvetica,sans-Serif" font-size="10.00">Sender</text>
</a>
</g>
<!-- Node3&#45;&gt;Node2 -->
<g id="edge4" class="edge"><title>Node3&#45;&gt;Node2</title>
<path fill="none" stroke="midnightblue" d="M38.6816,-145.038C49.8161,-129.606 65.1311,-108.38 74.2525,-95.7378"/>
<polygon fill="midnightblue" stroke="midnightblue" points="35.7001,-143.188 32.6873,-153.346 41.3768,-147.284 35.7001,-143.188"/>
</g>
<!-- Node4 -->
<g id="node6" class="node"><title>Node4</title>
<a xlink:href="classstd_1_1set_3_01SlotBase_3_01Arg0_00_01Arg1_00_01void_00_01void_00_01void_01_4_01_5_01_4.htm" target="_top" xlink:title="set\&lt; SlotBase\&lt; Arg0,\l Arg1, void, void, void \&gt; * \&gt;">
<polygon fill="white" stroke="black" points="67.5,-147 67.5,-181 210.5,-181 210.5,-147 67.5,-147"/>
<text text-anchor="start" x="75.5" y="-168" font-family="Helvetica,sans-Serif" font-size="10.00">set&lt; SlotBase&lt; Arg0,</text>
<text text-anchor="middle" x="139" y="-155" font-family="Helvetica,sans-Serif" font-size="10.00"> Arg1, void, void, void &gt; * &gt;</text>
</a>
</g>
<!-- Node4&#45;&gt;Node2 -->
<g id="edge6" class="edge"><title>Node4&#45;&gt;Node2</title>
<path fill="none" stroke="#9a32cd" stroke-dasharray="5,2" d="M120.736,-138.686C110.211,-124.1 97.5393,-106.537 89.6244,-95.5672"/>
<polygon fill="#9a32cd" stroke="#9a32cd" points="117.942,-140.797 126.632,-146.858 123.619,-136.701 117.942,-140.797"/>
<text text-anchor="middle" x="132" y="-118.5" font-family="Helvetica,sans-Serif" font-size="10.00"> m_slots</text>
</g>
</g>
</svg>
