<?xml version="1.0" encoding="UTF-8" standalone="no"?>
<!DOCTYPE svg PUBLIC "-//W3C//DTD SVG 1.1//EN"
 "http://www.w3.org/Graphics/SVG/1.1/DTD/svg11.dtd">
<!-- Generated by graphviz version 2.26.3 (20100126.1600)
 -->
<!-- Title: InspectorWidget Pages: 1 -->
<svg width="162pt" height="102pt"
 viewBox="0.00 0.00 162.00 102.00" xmlns="http://www.w3.org/2000/svg" xmlns:xlink="http://www.w3.org/1999/xlink">
<g id="graph1" class="graph" transform="scale(1 1) rotate(0) translate(4 98)">
<title>InspectorWidget</title>
<polygon fill="white" stroke="white" points="-4,5 -4,-98 159,-98 159,5 -4,5"/>
<!-- Node1 -->
<g id="node1" class="node"><title>Node1</title>
<polygon fill="#bfbfbf" stroke="black" points="17,-0.5 17,-21.5 111,-21.5 111,-0.5 17,-0.5"/>
<text text-anchor="middle" x="64" y="-8.5" font-family="Helvetica,sans-Serif" font-size="10.00">InspectorWidget</text>
</g>
<!-- Node2 -->
<g id="node2" class="node"><title>Node2</title>
<a xlink:href="classQWidget.htm" target="_top" xlink:title="QWidget">
<polygon fill="white" stroke="black" points="0,-72.5 0,-93.5 58,-93.5 58,-72.5 0,-72.5"/>
<text text-anchor="middle" x="29" y="-80.5" font-family="Helvetica,sans-Serif" font-size="10.00">QWidget</text>
</a>
</g>
<!-- Node2&#45;&gt;Node1 -->
<g id="edge2" class="edge"><title>Node2&#45;&gt;Node1</title>
<path fill="none" stroke="midnightblue" d="M38.7093,-63.0266C45.2179,-49.6374 53.5331,-32.5318 58.8144,-21.6674"/>
<polygon fill="midnightblue" stroke="midnightblue" points="35.3886,-61.8523 34.1644,-72.3762 41.6841,-64.9127 35.3886,-61.8523"/>
</g>
<!-- Node3 -->
<g id="node4" class="node"><title>Node3</title>
<polygon fill="white" stroke="#bfbfbf" points="75.5,-72.5 75.5,-93.5 122.5,-93.5 122.5,-72.5 75.5,-72.5"/>
<text text-anchor="middle" x="99" y="-80.5" font-family="Helvetica,sans-Serif" font-size="10.00">QRect</text>
</g>
<!-- Node3&#45;&gt;Node1 -->
<g id="edge4" class="edge"><title>Node3&#45;&gt;Node1</title>
<path fill="none" stroke="#9a32cd" stroke-dasharray="5,2" d="M89.2907,-63.0266C82.7821,-49.6374 74.4669,-32.5318 69.1856,-21.6674"/>
<polygon fill="#9a32cd" stroke="#9a32cd" points="86.3159,-64.9127 93.8356,-72.3762 92.6114,-61.8523 86.3159,-64.9127"/>
<text text-anchor="middle" x="119" y="-44.5" font-family="Helvetica,sans-Serif" font-size="10.00"> maxGeometry</text>
</g>
</g>
</svg>
