<?xml version="1.0" encoding="UTF-8" standalone="no"?>
<!DOCTYPE svg PUBLIC "-//W3C//DTD SVG 1.1//EN"
 "http://www.w3.org/Graphics/SVG/1.1/DTD/svg11.dtd">
<!-- Generated by graphviz version 2.26.3 (20100126.1600)
 -->
<!-- Title: QObject Pages: 1 -->
<svg width="678pt" height="706pt"
 viewBox="0.00 0.00 678.00 706.00" xmlns="http://www.w3.org/2000/svg" xmlns:xlink="http://www.w3.org/1999/xlink">
<g id="graph1" class="graph" transform="scale(1 1) rotate(0) translate(4 702)">
<title>QObject</title>
<polygon fill="white" stroke="white" points="-4,5 -4,-702 675,-702 675,5 -4,5"/>
<!-- Node1 -->
<g id="node1" class="node"><title>Node1</title>
<polygon fill="#bfbfbf" stroke="black" points="0.5,-399.5 0.5,-420.5 55.5,-420.5 55.5,-399.5 0.5,-399.5"/>
<text text-anchor="middle" x="28" y="-407.5" font-family="Helvetica,sans-Serif" font-size="10.00">QObject</text>
</g>
<!-- Node2 -->
<g id="node3" class="node"><title>Node2</title>
<a xlink:href="classHostArmQemuKeyFilter.htm" target="_top" xlink:title="HostArmQemuKeyFilter">
<polygon fill="white" stroke="black" points="101,-543.5 101,-564.5 227,-564.5 227,-543.5 101,-543.5"/>
<text text-anchor="middle" x="164" y="-551.5" font-family="Helvetica,sans-Serif" font-size="10.00">HostArmQemuKeyFilter</text>
</a>
</g>
<!-- Node1&#45;&gt;Node2 -->
<g id="edge2" class="edge"><title>Node1&#45;&gt;Node2</title>
<path fill="none" stroke="midnightblue" d="M33.0758,-430.615C40.9591,-458.269 58.8111,-507.016 92,-534 96.7311,-537.847 102.152,-540.955 107.85,-543.466"/>
<polygon fill="midnightblue" stroke="midnightblue" points="36.4195,-429.571 30.4508,-420.817 29.658,-431.382 36.4195,-429.571"/>
</g>
<!-- Node3 -->
<g id="node5" class="node"><title>Node3</title>
<a xlink:href="classHostBase.htm" target="_top" xlink:title="HostBase">
<polygon fill="white" stroke="black" points="133,-503.5 133,-524.5 195,-524.5 195,-503.5 133,-503.5"/>
<text text-anchor="middle" x="164" y="-511.5" font-family="Helvetica,sans-Serif" font-size="10.00">HostBase</text>
</a>
</g>
<!-- Node1&#45;&gt;Node3 -->
<g id="edge4" class="edge"><title>Node1&#45;&gt;Node3</title>
<path fill="none" stroke="midnightblue" d="M45.2977,-428.071C57.7055,-440.557 75.1425,-457.162 92,-470 108.783,-482.781 129.466,-495.105 144.352,-503.442"/>
<polygon fill="midnightblue" stroke="midnightblue" points="47.7704,-425.594 38.2722,-420.9 42.77,-430.493 47.7704,-425.594"/>
</g>
<!-- Node13 -->
<g id="node25" class="node"><title>Node13</title>
<a xlink:href="classHostQtDesktopKeyFilter.htm" target="_top" xlink:title="HostQtDesktopKeyFilter">
<polygon fill="white" stroke="black" points="99,-439.5 99,-460.5 229,-460.5 229,-439.5 99,-439.5"/>
<text text-anchor="middle" x="164" y="-447.5" font-family="Helvetica,sans-Serif" font-size="10.00">HostQtDesktopKeyFilter</text>
</a>
</g>
<!-- Node1&#45;&gt;Node13 -->
<g id="edge24" class="edge"><title>Node1&#45;&gt;Node13</title>
<path fill="none" stroke="midnightblue" d="M65.2524,-421.862C74.0097,-424.589 83.32,-427.439 92,-430 102.701,-433.157 114.338,-436.45 125.074,-439.432"/>
<polygon fill="midnightblue" stroke="midnightblue" points="66.2522,-418.507 55.6631,-418.857 64.1589,-425.187 66.2522,-418.507"/>
</g>
<!-- Node14 -->
<g id="node27" class="node"><title>Node14</title>
<a xlink:href="classHostQtDesktopMouseFilter.htm" target="_top" xlink:title="HostQtDesktopMouseFilter">
<polygon fill="white" stroke="black" points="92.5,-399.5 92.5,-420.5 235.5,-420.5 235.5,-399.5 92.5,-399.5"/>
<text text-anchor="middle" x="164" y="-407.5" font-family="Helvetica,sans-Serif" font-size="10.00">HostQtDesktopMouseFilter</text>
</a>
</g>
<!-- Node1&#45;&gt;Node14 -->
<g id="edge26" class="edge"><title>Node1&#45;&gt;Node14</title>
<path fill="none" stroke="midnightblue" d="M65.6443,-410C74.0012,-410 83.1277,-410 92.344,-410"/>
<polygon fill="midnightblue" stroke="midnightblue" points="65.5217,-406.5 55.5216,-410 65.5216,-413.5 65.5217,-406.5"/>
</g>
<!-- Node15 -->
<g id="node29" class="node"><title>Node15</title>
<a xlink:href="classLocalePreferences.htm" target="_top" xlink:title="LocalePreferences">
<polygon fill="white" stroke="black" points="111,-359.5 111,-380.5 217,-380.5 217,-359.5 111,-359.5"/>
<text text-anchor="middle" x="164" y="-367.5" font-family="Helvetica,sans-Serif" font-size="10.00">LocalePreferences</text>
</a>
</g>
<!-- Node1&#45;&gt;Node15 -->
<g id="edge28" class="edge"><title>Node1&#45;&gt;Node15</title>
<path fill="none" stroke="midnightblue" d="M65.2524,-398.138C74.0097,-395.411 83.32,-392.561 92,-390 102.701,-386.843 114.338,-383.55 125.074,-380.568"/>
<polygon fill="midnightblue" stroke="midnightblue" points="64.1589,-394.813 55.6631,-401.143 66.2522,-401.493 64.1589,-394.813"/>
</g>
<!-- Node16 -->
<g id="node31" class="node"><title>Node16</title>
<a xlink:href="classNYXConnectorBase.htm" target="_top" xlink:title="NYXConnectorBase">
<polygon fill="white" stroke="black" points="108.5,-270.5 108.5,-291.5 219.5,-291.5 219.5,-270.5 108.5,-270.5"/>
<text text-anchor="middle" x="164" y="-278.5" font-family="Helvetica,sans-Serif" font-size="10.00">NYXConnectorBase</text>
</a>
</g>
<!-- Node1&#45;&gt;Node16 -->
<g id="edge30" class="edge"><title>Node1&#45;&gt;Node16</title>
<path fill="none" stroke="midnightblue" d="M46.4758,-392.475C75.0912,-365.333 129.271,-313.942 152.717,-291.702"/>
<polygon fill="midnightblue" stroke="midnightblue" points="43.9761,-390.022 39.1295,-399.443 48.7935,-395.101 43.9761,-390.022"/>
</g>
<!-- Node33 -->
<g id="node65" class="node"><title>Node33</title>
<a xlink:href="classProcessKiller.htm" target="_top" xlink:title="ProcessKiller">
<polygon fill="white" stroke="black" points="125,-230.5 125,-251.5 203,-251.5 203,-230.5 125,-230.5"/>
<text text-anchor="middle" x="164" y="-238.5" font-family="Helvetica,sans-Serif" font-size="10.00">ProcessKiller</text>
</a>
</g>
<!-- Node1&#45;&gt;Node33 -->
<g id="edge64" class="edge"><title>Node1&#45;&gt;Node33</title>
<path fill="none" stroke="midnightblue" d="M31.1421,-389.032C37.1011,-356.725 53.1189,-294.965 92,-261 101.086,-253.062 113.073,-248.252 124.654,-245.345"/>
<polygon fill="midnightblue" stroke="midnightblue" points="27.6498,-388.693 29.4329,-399.136 34.5518,-389.86 27.6498,-388.693"/>
</g>
<!-- Node4 -->
<g id="node7" class="node"><title>Node4</title>
<a xlink:href="classHostArm.htm" target="_top" xlink:title="HostArm">
<polygon fill="white" stroke="black" points="337.5,-556.5 337.5,-577.5 394.5,-577.5 394.5,-556.5 337.5,-556.5"/>
<text text-anchor="middle" x="366" y="-564.5" font-family="Helvetica,sans-Serif" font-size="10.00">HostArm</text>
</a>
</g>
<!-- Node3&#45;&gt;Node4 -->
<g id="edge6" class="edge"><title>Node3&#45;&gt;Node4</title>
<path fill="none" stroke="midnightblue" d="M205.185,-524.863C215.306,-527.691 226.081,-530.836 236,-534 252.207,-539.169 255.642,-542.33 272,-547 293.659,-553.183 318.615,-558.407 337.368,-561.964"/>
<polygon fill="midnightblue" stroke="midnightblue" points="205.91,-521.432 195.34,-522.152 204.052,-528.181 205.91,-521.432"/>
</g>
<!-- Node12 -->
<g id="node23" class="node"><title>Node12</title>
<a xlink:href="classHostQtDesktop.htm" target="_top" xlink:title="HostQtDesktop">
<polygon fill="white" stroke="black" points="321.5,-516.5 321.5,-537.5 410.5,-537.5 410.5,-516.5 321.5,-516.5"/>
<text text-anchor="middle" x="366" y="-524.5" font-family="Helvetica,sans-Serif" font-size="10.00">HostQtDesktop</text>
</a>
</g>
<!-- Node3&#45;&gt;Node12 -->
<g id="edge22" class="edge"><title>Node3&#45;&gt;Node12</title>
<path fill="none" stroke="midnightblue" d="M205.122,-516.646C238.893,-518.82 286.642,-521.893 321.343,-524.126"/>
<polygon fill="midnightblue" stroke="midnightblue" points="205.324,-513.152 195.12,-516.003 204.874,-520.138 205.324,-513.152"/>
</g>
<!-- Node5 -->
<g id="node9" class="node"><title>Node5</title>
<a xlink:href="classHostArmBroadway.htm" target="_top" xlink:title="HostArmBroadway">
<polygon fill="white" stroke="black" points="531,-676.5 531,-697.5 635,-697.5 635,-676.5 531,-676.5"/>
<text text-anchor="middle" x="583" y="-684.5" font-family="Helvetica,sans-Serif" font-size="10.00">HostArmBroadway</text>
</a>
</g>
<!-- Node4&#45;&gt;Node5 -->
<g id="edge8" class="edge"><title>Node4&#45;&gt;Node5</title>
<path fill="none" stroke="midnightblue" d="M383.557,-584.585C407.088,-607.128 451.115,-645.824 496,-667 506.793,-672.092 518.964,-675.93 530.708,-678.808"/>
<polygon fill="midnightblue" stroke="midnightblue" points="385.997,-582.076 376.391,-577.608 381.114,-587.092 385.997,-582.076"/>
</g>
<!-- Node6 -->
<g id="node11" class="node"><title>Node6</title>
<a xlink:href="classHostArmMantaray.htm" target="_top" xlink:title="HostArmMantaray">
<polygon fill="white" stroke="black" points="532,-636.5 532,-657.5 634,-657.5 634,-636.5 532,-636.5"/>
<text text-anchor="middle" x="583" y="-644.5" font-family="Helvetica,sans-Serif" font-size="10.00">HostArmMantaray</text>
</a>
</g>
<!-- Node4&#45;&gt;Node6 -->
<g id="edge10" class="edge"><title>Node4&#45;&gt;Node6</title>
<path fill="none" stroke="midnightblue" d="M394.626,-582.303C420.508,-595.629 459.966,-614.69 496,-627 507.439,-630.908 519.985,-634.291 531.9,-637.107"/>
<polygon fill="midnightblue" stroke="midnightblue" points="396.223,-579.188 385.736,-577.676 392.991,-585.398 396.223,-579.188"/>
</g>
<!-- Node7 -->
<g id="node13" class="node"><title>Node7</title>
<a xlink:href="classHostArmOpal.htm" target="_top" xlink:title="HostArmOpal">
<polygon fill="white" stroke="black" points="543,-596.5 543,-617.5 623,-617.5 623,-596.5 543,-596.5"/>
<text text-anchor="middle" x="583" y="-604.5" font-family="Helvetica,sans-Serif" font-size="10.00">HostArmOpal</text>
</a>
</g>
<!-- Node4&#45;&gt;Node7 -->
<g id="edge12" class="edge"><title>Node4&#45;&gt;Node7</title>
<path fill="none" stroke="midnightblue" d="M404.737,-574.141C443.72,-581.326 503.563,-592.357 542.991,-599.625"/>
<polygon fill="midnightblue" stroke="midnightblue" points="405.285,-570.683 394.816,-572.312 404.016,-577.567 405.285,-570.683"/>
</g>
<!-- Node8 -->
<g id="node15" class="node"><title>Node8</title>
<a xlink:href="classHostArmQemu.htm" target="_top" xlink:title="HostArmQemu">
<polygon fill="white" stroke="black" points="540.5,-556.5 540.5,-577.5 625.5,-577.5 625.5,-556.5 540.5,-556.5"/>
<text text-anchor="middle" x="583" y="-564.5" font-family="Helvetica,sans-Serif" font-size="10.00">HostArmQemu</text>
</a>
</g>
<!-- Node4&#45;&gt;Node8 -->
<g id="edge14" class="edge"><title>Node4&#45;&gt;Node8</title>
<path fill="none" stroke="midnightblue" d="M405.003,-567C443.088,-567 500.9,-567 540.226,-567"/>
<polygon fill="midnightblue" stroke="midnightblue" points="404.816,-563.5 394.816,-567 404.816,-570.5 404.816,-563.5"/>
</g>
<!-- Node9 -->
<g id="node17" class="node"><title>Node9</title>
<a xlink:href="classHostArmTopaz.htm" target="_top" xlink:title="HostArmTopaz">
<polygon fill="white" stroke="black" points="539.5,-516.5 539.5,-537.5 626.5,-537.5 626.5,-516.5 539.5,-516.5"/>
<text text-anchor="middle" x="583" y="-524.5" font-family="Helvetica,sans-Serif" font-size="10.00">HostArmTopaz</text>
</a>
</g>
<!-- Node4&#45;&gt;Node9 -->
<g id="edge16" class="edge"><title>Node4&#45;&gt;Node9</title>
<path fill="none" stroke="midnightblue" d="M404.937,-559.823C442.763,-552.85 500.095,-542.282 539.424,-535.032"/>
<polygon fill="midnightblue" stroke="midnightblue" points="404.016,-556.433 394.816,-561.688 405.285,-563.317 404.016,-556.433"/>
</g>
<!-- Node10 -->
<g id="node19" class="node"><title>Node10</title>
<a xlink:href="classHostArmUnknown.htm" target="_top" xlink:title="HostArmUnknown">
<polygon fill="white" stroke="black" points="532.5,-476.5 532.5,-497.5 633.5,-497.5 633.5,-476.5 532.5,-476.5"/>
<text text-anchor="middle" x="583" y="-484.5" font-family="Helvetica,sans-Serif" font-size="10.00">HostArmUnknown</text>
</a>
</g>
<!-- Node4&#45;&gt;Node10 -->
<g id="edge18" class="edge"><title>Node4&#45;&gt;Node10</title>
<path fill="none" stroke="midnightblue" d="M404.849,-564.24C422.6,-561.639 443.333,-556.627 460,-547 480.711,-535.037 475.388,-519.132 496,-507 506.952,-500.554 519.814,-496.185 532.239,-493.225"/>
<polygon fill="midnightblue" stroke="midnightblue" points="404.278,-560.785 394.795,-565.51 405.155,-567.729 404.278,-560.785"/>
</g>
<!-- Node11 -->
<g id="node21" class="node"><title>Node11</title>
<a xlink:href="classHostArmWindsorNot.htm" target="_top" xlink:title="HostArmWindsorNot">
<polygon fill="white" stroke="black" points="526.5,-436.5 526.5,-457.5 639.5,-457.5 639.5,-436.5 526.5,-436.5"/>
<text text-anchor="middle" x="583" y="-444.5" font-family="Helvetica,sans-Serif" font-size="10.00">HostArmWindsorNot</text>
</a>
</g>
<!-- Node4&#45;&gt;Node11 -->
<g id="edge20" class="edge"><title>Node4&#45;&gt;Node11</title>
<path fill="none" stroke="midnightblue" d="M404.943,-566.628C423.357,-564.613 444.622,-559.405 460,-547 490.347,-522.52 465.854,-491.727 496,-467 504.628,-459.923 515.284,-455.245 526.146,-452.176"/>
<polygon fill="midnightblue" stroke="midnightblue" points="404.46,-563.156 394.779,-567.46 405.032,-570.132 404.46,-563.156"/>
</g>
<!-- Node17 -->
<g id="node33" class="node"><title>Node17</title>
<a xlink:href="classNYXAccelerationSensorConnector.htm" target="_top" xlink:title="NYXAccelerationSensorConnector">
<polygon fill="white" stroke="black" points="276.5,-476.5 276.5,-497.5 455.5,-497.5 455.5,-476.5 276.5,-476.5"/>
<text text-anchor="middle" x="366" y="-484.5" font-family="Helvetica,sans-Serif" font-size="10.00">NYXAccelerationSensorConnector</text>
</a>
</g>
<!-- Node16&#45;&gt;Node17 -->
<g id="edge32" class="edge"><title>Node16&#45;&gt;Node17</title>
<path fill="none" stroke="midnightblue" d="M187.094,-297.937C202.919,-310.65 223.272,-329.36 236,-350 264.557,-396.309 231.859,-430.276 272,-467 276.062,-470.717 280.639,-473.807 285.531,-476.372"/>
<polygon fill="midnightblue" stroke="midnightblue" points="188.887,-294.898 178.846,-291.518 184.588,-300.422 188.887,-294.898"/>
</g>
<!-- Node18 -->
<g id="node35" class="node"><title>Node18</title>
<a xlink:href="classNYXAlsSensorConnector.htm" target="_top" xlink:title="NYXAlsSensorConnector">
<polygon fill="white" stroke="black" points="298.5,-436.5 298.5,-457.5 433.5,-457.5 433.5,-436.5 298.5,-436.5"/>
<text text-anchor="middle" x="366" y="-444.5" font-family="Helvetica,sans-Serif" font-size="10.00">NYXAlsSensorConnector</text>
</a>
</g>
<!-- Node16&#45;&gt;Node18 -->
<g id="edge34" class="edge"><title>Node16&#45;&gt;Node18</title>
<path fill="none" stroke="midnightblue" d="M185.954,-298.277C201.406,-311.269 221.786,-330.173 236,-350 258.012,-380.702 242.425,-403.495 272,-427 279.706,-433.125 288.854,-437.489 298.368,-440.578"/>
<polygon fill="midnightblue" stroke="midnightblue" points="187.896,-295.343 177.947,-291.7 183.453,-300.752 187.896,-295.343"/>
</g>
<!-- Node19 -->
<g id="node37" class="node"><title>Node19</title>
<a xlink:href="classNYXAngularVelocitySensorConnector.htm" target="_top" xlink:title="NYXAngularVelocitySensor\lConnector">
<polygon fill="white" stroke="black" points="294,-384 294,-418 438,-418 438,-384 294,-384"/>
<text text-anchor="start" x="302" y="-405" font-family="Helvetica,sans-Serif" font-size="10.00">NYXAngularVelocitySensor</text>
<text text-anchor="middle" x="366" y="-392" font-family="Helvetica,sans-Serif" font-size="10.00">Connector</text>
</a>
</g>
<!-- Node16&#45;&gt;Node19 -->
<g id="edge36" class="edge"><title>Node16&#45;&gt;Node19</title>
<path fill="none" stroke="midnightblue" d="M182.643,-299.043C208.03,-323.285 252.538,-364.543 272,-375 278.861,-378.686 286.292,-381.887 293.865,-384.659"/>
<polygon fill="midnightblue" stroke="midnightblue" points="184.767,-296.23 175.128,-291.831 179.92,-301.28 184.767,-296.23"/>
</g>
<!-- Node20 -->
<g id="node39" class="node"><title>Node20</title>
<a xlink:href="classNYXBearingSensorConnector.htm" target="_top" xlink:title="NYXBearingSensorConnector">
<polygon fill="white" stroke="black" points="287,-344.5 287,-365.5 445,-365.5 445,-344.5 287,-344.5"/>
<text text-anchor="middle" x="366" y="-352.5" font-family="Helvetica,sans-Serif" font-size="10.00">NYXBearingSensorConnector</text>
</a>
</g>
<!-- Node16&#45;&gt;Node20 -->
<g id="edge38" class="edge"><title>Node16&#45;&gt;Node20</title>
<path fill="none" stroke="midnightblue" d="M190.533,-296.658C211.9,-308.672 243.044,-324.866 272,-335 282.63,-338.72 294.19,-341.869 305.449,-344.489"/>
<polygon fill="midnightblue" stroke="midnightblue" points="192.148,-293.549 181.728,-291.632 188.677,-299.629 192.148,-293.549"/>
</g>
<!-- Node21 -->
<g id="node41" class="node"><title>Node21</title>
<a xlink:href="classNYXGravitySensorConnector.htm" target="_top" xlink:title="NYXGravitySensorConnector">
<polygon fill="white" stroke="black" points="288.5,-304.5 288.5,-325.5 443.5,-325.5 443.5,-304.5 288.5,-304.5"/>
<text text-anchor="middle" x="366" y="-312.5" font-family="Helvetica,sans-Serif" font-size="10.00">NYXGravitySensorConnector</text>
</a>
</g>
<!-- Node16&#45;&gt;Node21 -->
<g id="edge40" class="edge"><title>Node16&#45;&gt;Node21</title>
<path fill="none" stroke="midnightblue" d="M229.671,-292.054C253.327,-296.035 279.941,-300.515 303.333,-304.452"/>
<polygon fill="midnightblue" stroke="midnightblue" points="230.174,-288.589 219.732,-290.381 229.012,-295.492 230.174,-288.589"/>
</g>
<!-- Node22 -->
<g id="node43" class="node"><title>Node22</title>
<a xlink:href="classNYXLinearAccelearationSensorConnector.htm" target="_top" xlink:title="NYXLinearAccelearationSensor\lConnector">
<polygon fill="white" stroke="black" points="283,-252 283,-286 449,-286 449,-252 283,-252"/>
<text text-anchor="start" x="291" y="-273" font-family="Helvetica,sans-Serif" font-size="10.00">NYXLinearAccelearationSensor</text>
<text text-anchor="middle" x="366" y="-260" font-family="Helvetica,sans-Serif" font-size="10.00">Connector</text>
</a>
</g>
<!-- Node16&#45;&gt;Node22 -->
<g id="edge42" class="edge"><title>Node16&#45;&gt;Node22</title>
<path fill="none" stroke="midnightblue" d="M230.02,-277.078C246.882,-276.076 265.228,-274.986 282.829,-273.941"/>
<polygon fill="midnightblue" stroke="midnightblue" points="229.507,-273.602 219.732,-277.689 229.922,-280.59 229.507,-273.602"/>
</g>
<!-- Node23 -->
<g id="node45" class="node"><title>Node23</title>
<a xlink:href="classNYXLogicalSensorConnectorBase.htm" target="_top" xlink:title="NYXLogicalSensorConnectorBase">
<polygon fill="white" stroke="black" points="276.5,-212.5 276.5,-233.5 455.5,-233.5 455.5,-212.5 276.5,-212.5"/>
<text text-anchor="middle" x="366" y="-220.5" font-family="Helvetica,sans-Serif" font-size="10.00">NYXLogicalSensorConnectorBase</text>
</a>
</g>
<!-- Node16&#45;&gt;Node23 -->
<g id="edge44" class="edge"><title>Node16&#45;&gt;Node23</title>
<path fill="none" stroke="midnightblue" d="M217.121,-267.501C223.542,-265.501 229.961,-263.323 236,-261 252.695,-254.576 255.116,-248.909 272,-243 282.63,-239.28 294.19,-236.131 305.449,-233.511"/>
<polygon fill="midnightblue" stroke="midnightblue" points="215.666,-264.282 207.083,-270.493 217.666,-270.99 215.666,-264.282"/>
</g>
<!-- Node28 -->
<g id="node55" class="node"><title>Node28</title>
<a xlink:href="classNYXMagneticFieldSensorConnector.htm" target="_top" xlink:title="NYXMagneticFieldSensorConnector">
<polygon fill="white" stroke="black" points="272.5,-172.5 272.5,-193.5 459.5,-193.5 459.5,-172.5 272.5,-172.5"/>
<text text-anchor="middle" x="366" y="-180.5" font-family="Helvetica,sans-Serif" font-size="10.00">NYXMagneticFieldSensorConnector</text>
</a>
</g>
<!-- Node16&#45;&gt;Node28 -->
<g id="edge54" class="edge"><title>Node16&#45;&gt;Node28</title>
<path fill="none" stroke="midnightblue" d="M228.173,-266.044C230.91,-264.523 233.536,-262.847 236,-261 260.279,-242.805 247.175,-220.442 272,-203 277.324,-199.259 283.208,-196.194 289.357,-193.685"/>
<polygon fill="midnightblue" stroke="midnightblue" points="226.616,-262.909 219.118,-270.395 229.648,-269.219 226.616,-262.909"/>
</g>
<!-- Node29 -->
<g id="node57" class="node"><title>Node29</title>
<a xlink:href="classNYXOrientationSensorConnector.htm" target="_top" xlink:title="NYXOrientationSensorConnector">
<polygon fill="white" stroke="black" points="279.5,-132.5 279.5,-153.5 452.5,-153.5 452.5,-132.5 279.5,-132.5"/>
<text text-anchor="middle" x="366" y="-140.5" font-family="Helvetica,sans-Serif" font-size="10.00">NYXOrientationSensorConnector</text>
</a>
</g>
<!-- Node16&#45;&gt;Node29 -->
<g id="edge56" class="edge"><title>Node16&#45;&gt;Node29</title>
<path fill="none" stroke="midnightblue" d="M228.508,-266.741C231.173,-265.036 233.69,-263.13 236,-261 270.114,-229.546 236.938,-193.393 272,-163 276.286,-159.284 281.092,-156.203 286.204,-153.652"/>
<polygon fill="midnightblue" stroke="midnightblue" points="226.729,-263.723 219.569,-271.532 230.036,-269.893 226.729,-263.723"/>
</g>
<!-- Node30 -->
<g id="node59" class="node"><title>Node30</title>
<a xlink:href="classNYXRotationSensorConnector.htm" target="_top" xlink:title="NYXRotationSensorConnector">
<polygon fill="white" stroke="black" points="285.5,-92.5 285.5,-113.5 446.5,-113.5 446.5,-92.5 285.5,-92.5"/>
<text text-anchor="middle" x="366" y="-100.5" font-family="Helvetica,sans-Serif" font-size="10.00">NYXRotationSensorConnector</text>
</a>
</g>
<!-- Node16&#45;&gt;Node30 -->
<g id="edge58" class="edge"><title>Node16&#45;&gt;Node30</title>
<path fill="none" stroke="midnightblue" d="M228.612,-267.116C231.267,-265.313 233.752,-263.284 236,-261 280.466,-215.827 226.17,-166.788 272,-123 275.981,-119.196 280.498,-116.041 285.346,-113.43"/>
<polygon fill="midnightblue" stroke="midnightblue" points="226.656,-264.2 219.637,-272.136 230.073,-270.309 226.656,-264.2"/>
</g>
<!-- Node31 -->
<g id="node61" class="node"><title>Node31</title>
<a xlink:href="classNYXScreenProximitySensorConnector.htm" target="_top" xlink:title="NYXScreenProximitySensor\lConnector">
<polygon fill="white" stroke="black" points="292,-40 292,-74 440,-74 440,-40 292,-40"/>
<text text-anchor="start" x="300" y="-61" font-family="Helvetica,sans-Serif" font-size="10.00">NYXScreenProximitySensor</text>
<text text-anchor="middle" x="366" y="-48" font-family="Helvetica,sans-Serif" font-size="10.00">Connector</text>
</a>
</g>
<!-- Node16&#45;&gt;Node31 -->
<g id="edge60" class="edge"><title>Node16&#45;&gt;Node31</title>
<path fill="none" stroke="midnightblue" d="M228.357,-267.555C231.127,-265.642 233.702,-263.469 236,-261 290.999,-201.927 216.968,-142.043 272,-83 277.541,-77.0546 284.31,-72.4247 291.65,-68.826"/>
<polygon fill="midnightblue" stroke="midnightblue" points="226.517,-264.575 219.537,-272.546 229.964,-270.667 226.517,-264.575"/>
</g>
<!-- Node32 -->
<g id="node63" class="node"><title>Node32</title>
<a xlink:href="classNYXShakeSensorConnector.htm" target="_top" xlink:title="NYXShakeSensorConnector">
<polygon fill="white" stroke="black" points="290.5,-0.5 290.5,-21.5 441.5,-21.5 441.5,-0.5 290.5,-0.5"/>
<text text-anchor="middle" x="366" y="-8.5" font-family="Helvetica,sans-Serif" font-size="10.00">NYXShakeSensorConnector</text>
</a>
</g>
<!-- Node16&#45;&gt;Node32 -->
<g id="edge62" class="edge"><title>Node16&#45;&gt;Node32</title>
<path fill="none" stroke="midnightblue" d="M228.491,-267.677C231.227,-265.733 233.757,-263.519 236,-261 304.81,-183.731 200.854,-106.124 272,-31 277.163,-25.5486 283.415,-21.3957 290.214,-18.2533"/>
<polygon fill="midnightblue" stroke="midnightblue" points="226.649,-264.699 219.748,-272.738 230.156,-270.757 226.649,-264.699"/>
</g>
<!-- Node24 -->
<g id="node47" class="node"><title>Node24</title>
<a xlink:href="classNYXLogicalAccelerometerSensorConnector.htm" target="_top" xlink:title="NYXLogicalAccelerometerSensor\lConnector">
<polygon fill="white" stroke="black" points="496.5,-284 496.5,-318 669.5,-318 669.5,-284 496.5,-284"/>
<text text-anchor="start" x="504.5" y="-305" font-family="Helvetica,sans-Serif" font-size="10.00">NYXLogicalAccelerometerSensor</text>
<text text-anchor="middle" x="583" y="-292" font-family="Helvetica,sans-Serif" font-size="10.00">Connector</text>
</a>
</g>
<!-- Node23&#45;&gt;Node24 -->
<g id="edge46" class="edge"><title>Node23&#45;&gt;Node24</title>
<path fill="none" stroke="midnightblue" d="M445.464,-236.769C450.483,-238.594 455.373,-240.66 460,-243 479.104,-252.66 477.301,-264.577 496,-275 502.059,-278.377 508.605,-281.362 515.292,-283.988"/>
<polygon fill="midnightblue" stroke="midnightblue" points="446.279,-233.352 435.686,-233.549 444.089,-240.001 446.279,-233.352"/>
</g>
<!-- Node25 -->
<g id="node49" class="node"><title>Node25</title>
<a xlink:href="classNYXLogicalDeviceMotionSensorConnector.htm" target="_top" xlink:title="NYXLogicalDeviceMotionSensor\lConnector">
<polygon fill="white" stroke="black" points="498,-232 498,-266 668,-266 668,-232 498,-232"/>
<text text-anchor="start" x="506" y="-253" font-family="Helvetica,sans-Serif" font-size="10.00">NYXLogicalDeviceMotionSensor</text>
<text text-anchor="middle" x="583" y="-240" font-family="Helvetica,sans-Serif" font-size="10.00">Connector</text>
</a>
</g>
<!-- Node23&#45;&gt;Node25 -->
<g id="edge48" class="edge"><title>Node23&#45;&gt;Node25</title>
<path fill="none" stroke="midnightblue" d="M463.618,-234.696C475.039,-236.065 486.621,-237.452 497.854,-238.798"/>
<polygon fill="midnightblue" stroke="midnightblue" points="463.982,-231.215 453.637,-233.5 463.149,-238.165 463.982,-231.215"/>
</g>
<!-- Node26 -->
<g id="node51" class="node"><title>Node26</title>
<a xlink:href="classNYXLogicalDeviceOrientationSensorConnector.htm" target="_top" xlink:title="NYXLogicalDeviceOrientation\lSensorConnector">
<polygon fill="white" stroke="black" points="505,-180 505,-214 661,-214 661,-180 505,-180"/>
<text text-anchor="start" x="513" y="-201" font-family="Helvetica,sans-Serif" font-size="10.00">NYXLogicalDeviceOrientation</text>
<text text-anchor="middle" x="583" y="-188" font-family="Helvetica,sans-Serif" font-size="10.00">SensorConnector</text>
</a>
</g>
<!-- Node23&#45;&gt;Node26 -->
<g id="edge50" class="edge"><title>Node23&#45;&gt;Node26</title>
<path fill="none" stroke="midnightblue" d="M463.629,-211.302C477.428,-209.649 491.463,-207.968 504.83,-206.366"/>
<polygon fill="midnightblue" stroke="midnightblue" points="463.149,-207.835 453.637,-212.5 463.982,-214.785 463.149,-207.835"/>
</g>
<!-- Node27 -->
<g id="node53" class="node"><title>Node27</title>
<a xlink:href="classNYXLogicalOrientationSensorConnector.htm" target="_top" xlink:title="NYXLogicalOrientationSensor\lConnector">
<polygon fill="white" stroke="black" points="504,-128 504,-162 662,-162 662,-128 504,-128"/>
<text text-anchor="start" x="512" y="-149" font-family="Helvetica,sans-Serif" font-size="10.00">NYXLogicalOrientationSensor</text>
<text text-anchor="middle" x="583" y="-136" font-family="Helvetica,sans-Serif" font-size="10.00">Connector</text>
</a>
</g>
<!-- Node23&#45;&gt;Node27 -->
<g id="edge52" class="edge"><title>Node23&#45;&gt;Node27</title>
<path fill="none" stroke="midnightblue" d="M445.464,-209.231C450.483,-207.406 455.373,-205.34 460,-203 479.104,-193.34 477.301,-181.423 496,-171 502.059,-167.623 508.605,-164.638 515.292,-162.012"/>
<polygon fill="midnightblue" stroke="midnightblue" points="444.089,-205.999 435.686,-212.451 446.279,-212.648 444.089,-205.999"/>
</g>
</g>
</svg>
