<?xml version="1.0" encoding="UTF-8" standalone="no"?>
<!DOCTYPE svg PUBLIC "-//W3C//DTD SVG 1.1//EN"
 "http://www.w3.org/Graphics/SVG/1.1/DTD/svg11.dtd">
<!-- Generated by graphviz version 2.26.3 (20100126.1600)
 -->
<!-- Title: Slot&lt; Receiver, Arg0, Arg1, void, void, void &gt; Pages: 1 -->
<svg width="308pt" height="190pt"
 viewBox="0.00 0.00 308.00 190.00" xmlns="http://www.w3.org/2000/svg" xmlns:xlink="http://www.w3.org/1999/xlink">
<g id="graph1" class="graph" transform="scale(1 1) rotate(0) translate(4 186)">
<title>Slot&lt; Receiver, Arg0, Arg1, void, void, void &gt;</title>
<polygon fill="white" stroke="white" points="-4,5 -4,-186 305,-186 305,5 -4,5"/>
<!-- Node1 -->
<g id="node1" class="node"><title>Node1</title>
<polygon fill="#bfbfbf" stroke="black" points="44.5,-1 44.5,-35 169.5,-35 169.5,-1 44.5,-1"/>
<text text-anchor="start" x="52.5" y="-22" font-family="Helvetica,sans-Serif" font-size="10.00">Slot&lt; Receiver, Arg0,</text>
<text text-anchor="middle" x="107" y="-9" font-family="Helvetica,sans-Serif" font-size="10.00"> Arg1, void, void, void &gt;</text>
</g>
<!-- Node2 -->
<g id="node2" class="node"><title>Node2</title>
<a xlink:href="classSlotBase.htm" target="_top" xlink:title="SlotBase\&lt; Arg0, Arg1 \&gt;">
<polygon fill="white" stroke="black" points="-0.5,-81.5 -0.5,-102.5 126.5,-102.5 126.5,-81.5 -0.5,-81.5"/>
<text text-anchor="middle" x="63" y="-89.5" font-family="Helvetica,sans-Serif" font-size="10.00">SlotBase&lt; Arg0, Arg1 &gt;</text>
</a>
</g>
<!-- Node2&#45;&gt;Node1 -->
<g id="edge2" class="edge"><title>Node2&#45;&gt;Node1</title>
<path fill="none" stroke="midnightblue" d="M74.5974,-72.4952C81.4946,-60.8954 90.1638,-46.3154 96.7992,-35.1558"/>
<polygon fill="midnightblue" stroke="midnightblue" points="71.4065,-71.0135 69.3041,-81.3976 77.4233,-74.591 71.4065,-71.0135"/>
</g>
<!-- Node3 -->
<g id="node4" class="node"><title>Node3</title>
<a xlink:href="classFunctionWrapper.htm" target="_top" xlink:title="FunctionWrapper\&lt; void\l(Receiver::*)(Arg0, Arg1)\&gt;">
<polygon fill="white" stroke="black" points="144,-75 144,-109 284,-109 284,-75 144,-75"/>
<text text-anchor="start" x="152" y="-96" font-family="Helvetica,sans-Serif" font-size="10.00">FunctionWrapper&lt; void</text>
<text text-anchor="middle" x="214" y="-83" font-family="Helvetica,sans-Serif" font-size="10.00">(Receiver::*)(Arg0, Arg1)&gt;</text>
</a>
</g>
<!-- Node3&#45;&gt;Node1 -->
<g id="edge4" class="edge"><title>Node3&#45;&gt;Node1</title>
<path fill="none" stroke="midnightblue" d="M180.708,-68.9758C164.862,-58.0166 146.243,-45.1397 131.682,-35.07"/>
<polygon fill="midnightblue" stroke="midnightblue" points="178.968,-72.0274 189.183,-74.8369 182.949,-66.2701 178.968,-72.0274"/>
</g>
<!-- Node4 -->
<g id="node6" class="node"><title>Node4</title>
<a xlink:href="classvoid_07Receiver_1_1_5_08_07Arg0_00_01Arg1_08.htm" target="_top" xlink:title="*)(Arg0, Arg1)">
<polygon fill="white" stroke="black" points="127.5,-160.5 127.5,-181.5 210.5,-181.5 210.5,-160.5 127.5,-160.5"/>
<text text-anchor="middle" x="169" y="-168.5" font-family="Helvetica,sans-Serif" font-size="10.00">*)(Arg0, Arg1)</text>
</a>
</g>
<!-- Node4&#45;&gt;Node3 -->
<g id="edge6" class="edge"><title>Node4&#45;&gt;Node3</title>
<path fill="none" stroke="#9a32cd" stroke-dasharray="5,2" d="M173.309,-150.31C175.331,-142.982 178.162,-134.859 182,-128 185.756,-121.286 190.946,-114.749 196.053,-109.127"/>
<polygon fill="#9a32cd" stroke="#9a32cd" points="169.857,-149.696 170.903,-160.239 176.66,-151.345 169.857,-149.696"/>
<text text-anchor="middle" x="209.5" y="-132.5" font-family="Helvetica,sans-Serif" font-size="10.00"> m_function</text>
</g>
<!-- Node5 -->
<g id="node8" class="node"><title>Node5</title>
<a xlink:href="classTrackable.htm" target="_top" xlink:title="Trackable">
<polygon fill="white" stroke="black" points="227.5,-160.5 227.5,-181.5 290.5,-181.5 290.5,-160.5 227.5,-160.5"/>
<text text-anchor="middle" x="259" y="-168.5" font-family="Helvetica,sans-Serif" font-size="10.00">Trackable</text>
</a>
</g>
<!-- Node5&#45;&gt;Node3 -->
<g id="edge8" class="edge"><title>Node5&#45;&gt;Node3</title>
<path fill="none" stroke="#9a32cd" stroke-dasharray="5,2" d="M249.287,-151.04C245.591,-143.712 241.245,-135.402 237,-128 233.384,-121.695 229.166,-114.942 225.337,-109.007"/>
<polygon fill="#9a32cd" stroke="#9a32cd" points="246.274,-152.843 253.854,-160.246 252.545,-149.733 246.274,-152.843"/>
<text text-anchor="middle" x="272" y="-132.5" font-family="Helvetica,sans-Serif" font-size="10.00"> m_receiver</text>
</g>
</g>
</svg>
