<?xml version="1.0" encoding="UTF-8" standalone="no"?>
<!DOCTYPE svg PUBLIC "-//W3C//DTD SVG 1.1//EN"
 "http://www.w3.org/Graphics/SVG/1.1/DTD/svg11.dtd">
<!-- Generated by graphviz version 2.26.3 (20100126.1600)
 -->
<!-- Title: Slot&lt; Receiver, void, void, void, void, void &gt; Pages: 1 -->
<svg width="239pt" height="190pt"
 viewBox="0.00 0.00 239.00 190.00" xmlns="http://www.w3.org/2000/svg" xmlns:xlink="http://www.w3.org/1999/xlink">
<g id="graph1" class="graph" transform="scale(1 1) rotate(0) translate(4 186)">
<title>Slot&lt; Receiver, void, void, void, void, void &gt;</title>
<polygon fill="white" stroke="white" points="-4,5 -4,-186 236,-186 236,5 -4,5"/>
<!-- Node1 -->
<g id="node1" class="node"><title>Node1</title>
<polygon fill="#bfbfbf" stroke="black" points="9,-1 9,-35 131,-35 131,-1 9,-1"/>
<text text-anchor="start" x="17" y="-22" font-family="Helvetica,sans-Serif" font-size="10.00">Slot&lt; Receiver, void,</text>
<text text-anchor="middle" x="70" y="-9" font-family="Helvetica,sans-Serif" font-size="10.00"> void, void, void, void &gt;</text>
</g>
<!-- Node2 -->
<g id="node2" class="node"><title>Node2</title>
<a xlink:href="classSlotBase.htm" target="_top" xlink:title="SlotBase\&lt;\&gt;">
<polygon fill="white" stroke="black" points="-0.5,-81.5 -0.5,-102.5 70.5,-102.5 70.5,-81.5 -0.5,-81.5"/>
<text text-anchor="middle" x="35" y="-89.5" font-family="Helvetica,sans-Serif" font-size="10.00">SlotBase&lt;&gt;</text>
</a>
</g>
<!-- Node2&#45;&gt;Node1 -->
<g id="edge2" class="edge"><title>Node2&#45;&gt;Node1</title>
<path fill="none" stroke="midnightblue" d="M44.3902,-72.1464C49.8494,-60.6042 56.6604,-46.2038 61.8858,-35.1558"/>
<polygon fill="midnightblue" stroke="midnightblue" points="41.1264,-70.8612 40.0146,-81.3976 47.4543,-73.8542 41.1264,-70.8612"/>
</g>
<!-- Node3 -->
<g id="node4" class="node"><title>Node3</title>
<a xlink:href="classFunctionWrapper.htm" target="_top" xlink:title="FunctionWrapper\&lt; void\l(Receiver::*)()\&gt;">
<polygon fill="white" stroke="black" points="88,-75 88,-109 214,-109 214,-75 88,-75"/>
<text text-anchor="start" x="96" y="-96" font-family="Helvetica,sans-Serif" font-size="10.00">FunctionWrapper&lt; void</text>
<text text-anchor="middle" x="151" y="-83" font-family="Helvetica,sans-Serif" font-size="10.00">(Receiver::*)()&gt;</text>
</a>
</g>
<!-- Node3&#45;&gt;Node1 -->
<g id="edge4" class="edge"><title>Node3&#45;&gt;Node1</title>
<path fill="none" stroke="midnightblue" d="M124.793,-68.0582C113.021,-57.3033 99.4008,-44.86 88.6847,-35.07"/>
<polygon fill="midnightblue" stroke="midnightblue" points="122.47,-70.676 132.213,-74.8369 127.191,-65.508 122.47,-70.676"/>
</g>
<!-- Node4 -->
<g id="node6" class="node"><title>Node4</title>
<a xlink:href="classvoid_07Receiver_1_1_5_08_07_08.htm" target="_top" xlink:title="*)()">
<polygon fill="white" stroke="black" points="95.5,-160.5 95.5,-181.5 128.5,-181.5 128.5,-160.5 95.5,-160.5"/>
<text text-anchor="middle" x="112" y="-168.5" font-family="Helvetica,sans-Serif" font-size="10.00">*)()</text>
</a>
</g>
<!-- Node4&#45;&gt;Node3 -->
<g id="edge6" class="edge"><title>Node4&#45;&gt;Node3</title>
<path fill="none" stroke="#9a32cd" stroke-dasharray="5,2" d="M109.284,-150.075C109.161,-142.816 109.982,-134.798 113,-128 116.171,-120.857 121.5,-114.45 127.18,-109.092"/>
<polygon fill="#9a32cd" stroke="#9a32cd" points="105.809,-150.538 110.035,-160.254 112.79,-150.024 105.809,-150.538"/>
<text text-anchor="middle" x="140.5" y="-132.5" font-family="Helvetica,sans-Serif" font-size="10.00"> m_function</text>
</g>
<!-- Node5 -->
<g id="node8" class="node"><title>Node5</title>
<a xlink:href="classTrackable.htm" target="_top" xlink:title="Trackable">
<polygon fill="white" stroke="black" points="158.5,-160.5 158.5,-181.5 221.5,-181.5 221.5,-160.5 158.5,-160.5"/>
<text text-anchor="middle" x="190" y="-168.5" font-family="Helvetica,sans-Serif" font-size="10.00">Trackable</text>
</a>
</g>
<!-- Node5&#45;&gt;Node3 -->
<g id="edge8" class="edge"><title>Node5&#45;&gt;Node3</title>
<path fill="none" stroke="#9a32cd" stroke-dasharray="5,2" d="M180.282,-151.316C173.881,-138.349 165.581,-121.536 159.453,-109.124"/>
<polygon fill="#9a32cd" stroke="#9a32cd" points="177.175,-152.928 184.74,-160.346 183.452,-149.829 177.175,-152.928"/>
<text text-anchor="middle" x="203" y="-132.5" font-family="Helvetica,sans-Serif" font-size="10.00"> m_receiver</text>
</g>
</g>
</svg>
