<?xml version="1.0" encoding="UTF-8" standalone="no"?>
<!DOCTYPE svg PUBLIC "-//W3C//DTD SVG 1.1//EN"
 "http://www.w3.org/Graphics/SVG/1.1/DTD/svg11.dtd">
<!-- Generated by graphviz version 2.26.3 (20100126.1600)
 -->
<!-- Title: Slot&lt; Receiver, Arg0, Arg1, Arg2, Arg3, Arg4 &gt; Pages: 1 -->
<svg width="272pt" height="116pt"
 viewBox="0.00 0.00 272.00 116.00" xmlns="http://www.w3.org/2000/svg" xmlns:xlink="http://www.w3.org/1999/xlink">
<g id="graph1" class="graph" transform="scale(1 1) rotate(0) translate(4 112)">
<title>Slot&lt; Receiver, Arg0, Arg1, Arg2, Arg3, Arg4 &gt;</title>
<polygon fill="white" stroke="white" points="-4,5 -4,-112 269,-112 269,5 -4,5"/>
<!-- Node1 -->
<g id="node1" class="node"><title>Node1</title>
<polygon fill="#bfbfbf" stroke="black" points="63,-1 63,-35 197,-35 197,-1 63,-1"/>
<text text-anchor="start" x="71" y="-22" font-family="Helvetica,sans-Serif" font-size="10.00">Slot&lt; Receiver, Arg0,</text>
<text text-anchor="middle" x="130" y="-9" font-family="Helvetica,sans-Serif" font-size="10.00"> Arg1, Arg2, Arg3, Arg4 &gt;</text>
</g>
<!-- Node2 -->
<g id="node2" class="node"><title>Node2</title>
<a xlink:href="classSlotBase.htm" target="_top" xlink:title="SlotBase\&lt; Arg0, Arg1,\l Arg2, Arg3, Arg4 \&gt;">
<polygon fill="white" stroke="black" points="0,-73 0,-107 120,-107 120,-73 0,-73"/>
<text text-anchor="start" x="8" y="-94" font-family="Helvetica,sans-Serif" font-size="10.00">SlotBase&lt; Arg0, Arg1,</text>
<text text-anchor="middle" x="60" y="-81" font-family="Helvetica,sans-Serif" font-size="10.00"> Arg2, Arg3, Arg4 &gt;</text>
</a>
</g>
<!-- Node2&#45;&gt;Node1 -->
<g id="edge2" class="edge"><title>Node2&#45;&gt;Node1</title>
<path fill="none" stroke="midnightblue" d="M83.6536,-65.6706C93.2937,-55.7551 104.221,-44.5151 113.044,-35.4407"/>
<polygon fill="midnightblue" stroke="midnightblue" points="81.0503,-63.3272 76.589,-72.937 86.0693,-68.2068 81.0503,-63.3272"/>
</g>
<!-- Node3 -->
<g id="node4" class="node"><title>Node3</title>
<a xlink:href="classFunctionWrapper.htm" target="_top" xlink:title="FunctionWrapper\&lt; void\l(*)()\&gt;">
<polygon fill="white" stroke="black" points="138,-73 138,-107 264,-107 264,-73 138,-73"/>
<text text-anchor="start" x="146" y="-94" font-family="Helvetica,sans-Serif" font-size="10.00">FunctionWrapper&lt; void</text>
<text text-anchor="middle" x="201" y="-81" font-family="Helvetica,sans-Serif" font-size="10.00">(*)()&gt;</text>
</a>
</g>
<!-- Node3&#45;&gt;Node1 -->
<g id="edge4" class="edge"><title>Node3&#45;&gt;Node1</title>
<path fill="none" stroke="midnightblue" d="M177.008,-65.6706C167.231,-55.7551 156.147,-44.5151 147.198,-35.4407"/>
<polygon fill="midnightblue" stroke="midnightblue" points="174.66,-68.2742 184.174,-72.937 179.645,-63.3591 174.66,-68.2742"/>
</g>
</g>
</svg>
