<?xml version="1.0" encoding="UTF-8" standalone="no"?>
<!DOCTYPE svg PUBLIC "-//W3C//DTD SVG 1.1//EN"
 "http://www.w3.org/Graphics/SVG/1.1/DTD/svg11.dtd">
<!-- Generated by graphviz version 2.26.3 (20100126.1600)
 -->
<!-- Title: Signal&lt; Arg0, Arg1, Arg2, Arg3, void &gt; Pages: 1 -->
<svg width="224pt" height="204pt"
 viewBox="0.00 0.00 224.00 204.00" xmlns="http://www.w3.org/2000/svg" xmlns:xlink="http://www.w3.org/1999/xlink">
<g id="graph1" class="graph" transform="scale(1 1) rotate(0) translate(4 200)">
<title>Signal&lt; Arg0, Arg1, Arg2, Arg3, void &gt;</title>
<polygon fill="white" stroke="white" points="-4,5 -4,-200 221,-200 221,5 -4,5"/>
<!-- Node1 -->
<g id="node1" class="node"><title>Node1</title>
<polygon fill="#bfbfbf" stroke="black" points="29.5,-1 29.5,-35 136.5,-35 136.5,-1 29.5,-1"/>
<text text-anchor="start" x="37.5" y="-22" font-family="Helvetica,sans-Serif" font-size="10.00">Signal&lt; Arg0, Arg1,</text>
<text text-anchor="middle" x="83" y="-9" font-family="Helvetica,sans-Serif" font-size="10.00"> Arg2, Arg3, void &gt;</text>
</g>
<!-- Node2 -->
<g id="node2" class="node"><title>Node2</title>
<a xlink:href="classSignalBase.htm" target="_top" xlink:title="SignalBase\&lt; Arg0, Arg1,\l Arg2, Arg3 \&gt;">
<polygon fill="white" stroke="black" points="17.5,-75 17.5,-109 148.5,-109 148.5,-75 17.5,-75"/>
<text text-anchor="start" x="25.5" y="-96" font-family="Helvetica,sans-Serif" font-size="10.00">SignalBase&lt; Arg0, Arg1,</text>
<text text-anchor="middle" x="83" y="-83" font-family="Helvetica,sans-Serif" font-size="10.00"> Arg2, Arg3 &gt;</text>
</a>
</g>
<!-- Node2&#45;&gt;Node1 -->
<g id="edge2" class="edge"><title>Node2&#45;&gt;Node1</title>
<path fill="none" stroke="midnightblue" d="M83,-64.6275C83,-54.7253 83,-43.8344 83,-35.07"/>
<polygon fill="midnightblue" stroke="midnightblue" points="79.5001,-64.8369 83,-74.8369 86.5001,-64.8369 79.5001,-64.8369"/>
</g>
<!-- Node3 -->
<g id="node4" class="node"><title>Node3</title>
<a xlink:href="classSender.htm" target="_top" xlink:title="Sender">
<polygon fill="white" stroke="black" points="-0.5,-167.5 -0.5,-188.5 50.5,-188.5 50.5,-167.5 -0.5,-167.5"/>
<text text-anchor="middle" x="25" y="-175.5" font-family="Helvetica,sans-Serif" font-size="10.00">Sender</text>
</a>
</g>
<!-- Node3&#45;&gt;Node2 -->
<g id="edge4" class="edge"><title>Node3&#45;&gt;Node2</title>
<path fill="none" stroke="midnightblue" d="M37.801,-159.019C47.8443,-144.127 61.704,-123.577 71.4196,-109.171"/>
<polygon fill="midnightblue" stroke="midnightblue" points="34.8016,-157.207 32.1119,-167.455 40.6052,-161.121 34.8016,-157.207"/>
</g>
<!-- Node4 -->
<g id="node6" class="node"><title>Node4</title>
<a xlink:href="classstd_1_1set_3_01SlotBase_3_01Arg0_00_01Arg1_00_01Arg2_00_01Arg3_00_01void_01_4_01_5_01_4.htm" target="_top" xlink:title="set\&lt; SlotBase\&lt; Arg0,\l Arg1, Arg2, Arg3, void \&gt; * \&gt;">
<polygon fill="white" stroke="black" points="67.5,-161 67.5,-195 216.5,-195 216.5,-161 67.5,-161"/>
<text text-anchor="start" x="75.5" y="-182" font-family="Helvetica,sans-Serif" font-size="10.00">set&lt; SlotBase&lt; Arg0,</text>
<text text-anchor="middle" x="142" y="-169" font-family="Helvetica,sans-Serif" font-size="10.00"> Arg1, Arg2, Arg3, void &gt; * &gt;</text>
</a>
</g>
<!-- Node4&#45;&gt;Node2 -->
<g id="edge6" class="edge"><title>Node4&#45;&gt;Node2</title>
<path fill="none" stroke="#9a32cd" stroke-dasharray="5,2" d="M124.395,-152.339C114.805,-138.36 103.2,-121.444 94.7204,-109.084"/>
<polygon fill="#9a32cd" stroke="#9a32cd" points="121.517,-154.331 130.06,-160.597 127.289,-150.371 121.517,-154.331"/>
<text text-anchor="middle" x="136" y="-132.5" font-family="Helvetica,sans-Serif" font-size="10.00"> m_slots</text>
</g>
</g>
</svg>
