<?xml version="1.0" encoding="UTF-8" standalone="no"?>
<!DOCTYPE svg PUBLIC "-//W3C//DTD SVG 1.1//EN"
 "http://www.w3.org/Graphics/SVG/1.1/DTD/svg11.dtd">
<!-- Generated by graphviz version 2.26.3 (20100126.1600)
 -->
<!-- Title: Signal&lt; Arg0, Arg1, Arg2, Arg3, Arg4 &gt; Pages: 1 -->
<svg width="228pt" height="204pt"
 viewBox="0.00 0.00 228.00 204.00" xmlns="http://www.w3.org/2000/svg" xmlns:xlink="http://www.w3.org/1999/xlink">
<g id="graph1" class="graph" transform="scale(1 1) rotate(0) translate(4 200)">
<title>Signal&lt; Arg0, Arg1, Arg2, Arg3, Arg4 &gt;</title>
<polygon fill="white" stroke="white" points="-4,5 -4,-200 225,-200 225,5 -4,5"/>
<!-- Node1 -->
<g id="node1" class="node"><title>Node1</title>
<polygon fill="#bfbfbf" stroke="black" points="30.5,-1 30.5,-35 137.5,-35 137.5,-1 30.5,-1"/>
<text text-anchor="start" x="38.5" y="-22" font-family="Helvetica,sans-Serif" font-size="10.00">Signal&lt; Arg0, Arg1,</text>
<text text-anchor="middle" x="84" y="-9" font-family="Helvetica,sans-Serif" font-size="10.00"> Arg2, Arg3, Arg4 &gt;</text>
</g>
<!-- Node2 -->
<g id="node2" class="node"><title>Node2</title>
<a xlink:href="classSignalBase.htm" target="_top" xlink:title="SignalBase\&lt; Arg0, Arg1,\l Arg2, Arg3, Arg4 \&gt;">
<polygon fill="white" stroke="black" points="18.5,-75 18.5,-109 149.5,-109 149.5,-75 18.5,-75"/>
<text text-anchor="start" x="26.5" y="-96" font-family="Helvetica,sans-Serif" font-size="10.00">SignalBase&lt; Arg0, Arg1,</text>
<text text-anchor="middle" x="84" y="-83" font-family="Helvetica,sans-Serif" font-size="10.00"> Arg2, Arg3, Arg4 &gt;</text>
</a>
</g>
<!-- Node2&#45;&gt;Node1 -->
<g id="edge2" class="edge"><title>Node2&#45;&gt;Node1</title>
<path fill="none" stroke="midnightblue" d="M84,-64.6275C84,-54.7253 84,-43.8344 84,-35.07"/>
<polygon fill="midnightblue" stroke="midnightblue" points="80.5001,-64.8369 84,-74.8369 87.5001,-64.8369 80.5001,-64.8369"/>
</g>
<!-- Node3 -->
<g id="node4" class="node"><title>Node3</title>
<a xlink:href="classSender.htm" target="_top" xlink:title="Sender">
<polygon fill="white" stroke="black" points="-0.5,-167.5 -0.5,-188.5 50.5,-188.5 50.5,-167.5 -0.5,-167.5"/>
<text text-anchor="middle" x="25" y="-175.5" font-family="Helvetica,sans-Serif" font-size="10.00">Sender</text>
</a>
</g>
<!-- Node3&#45;&gt;Node2 -->
<g id="edge4" class="edge"><title>Node3&#45;&gt;Node2</title>
<path fill="none" stroke="midnightblue" d="M38.0217,-159.019C48.2382,-144.127 62.3369,-123.577 72.22,-109.171"/>
<polygon fill="midnightblue" stroke="midnightblue" points="35.0056,-157.229 32.2346,-167.455 40.7779,-161.189 35.0056,-157.229"/>
</g>
<!-- Node4 -->
<g id="node6" class="node"><title>Node4</title>
<polygon fill="white" stroke="#bfbfbf" points="68,-161 68,-195 220,-195 220,-161 68,-161"/>
<text text-anchor="start" x="76" y="-182" font-family="Helvetica,sans-Serif" font-size="10.00">set&lt; SlotBase&lt; Arg0,</text>
<text text-anchor="middle" x="144" y="-169" font-family="Helvetica,sans-Serif" font-size="10.00"> Arg1, Arg2, Arg3, Arg4 &gt; * &gt;</text>
</g>
<!-- Node4&#45;&gt;Node2 -->
<g id="edge6" class="edge"><title>Node4&#45;&gt;Node2</title>
<path fill="none" stroke="#9a32cd" stroke-dasharray="5,2" d="M126.097,-152.339C116.344,-138.36 104.542,-121.444 95.9191,-109.084"/>
<polygon fill="#9a32cd" stroke="#9a32cd" points="123.266,-154.398 131.858,-160.597 129.007,-150.393 123.266,-154.398"/>
<text text-anchor="middle" x="137" y="-132.5" font-family="Helvetica,sans-Serif" font-size="10.00"> m_slots</text>
</g>
</g>
</svg>
