<?xml version="1.0" encoding="UTF-8" standalone="no"?>
<!DOCTYPE svg PUBLIC "-//W3C//DTD SVG 1.1//EN"
 "http://www.w3.org/Graphics/SVG/1.1/DTD/svg11.dtd">
<!-- Generated by graphviz version 2.26.3 (20100126.1600)
 -->
<!-- Title: Sender Pages: 1 -->
<svg width="378pt" height="302pt"
 viewBox="0.00 0.00 378.00 302.00" xmlns="http://www.w3.org/2000/svg" xmlns:xlink="http://www.w3.org/1999/xlink">
<g id="graph1" class="graph" transform="scale(1 1) rotate(0) translate(4 298)">
<title>Sender</title>
<polygon fill="white" stroke="white" points="-4,5 -4,-298 375,-298 375,5 -4,5"/>
<!-- Node1 -->
<g id="node1" class="node"><title>Node1</title>
<polygon fill="#bfbfbf" stroke="black" points="0.5,-137.5 0.5,-158.5 51.5,-158.5 51.5,-137.5 0.5,-137.5"/>
<text text-anchor="middle" x="26" y="-145.5" font-family="Helvetica,sans-Serif" font-size="10.00">Sender</text>
</g>
<!-- Node2 -->
<g id="node3" class="node"><title>Node2</title>
<a xlink:href="classSignalBase.htm" target="_top" xlink:title="SignalBase\&lt; Arg0, Arg1,\l Arg2, Arg3, Arg4 \&gt;">
<polygon fill="white" stroke="black" points="91.5,-254 91.5,-288 222.5,-288 222.5,-254 91.5,-254"/>
<text text-anchor="start" x="99.5" y="-275" font-family="Helvetica,sans-Serif" font-size="10.00">SignalBase&lt; Arg0, Arg1,</text>
<text text-anchor="middle" x="157" y="-262" font-family="Helvetica,sans-Serif" font-size="10.00"> Arg2, Arg3, Arg4 &gt;</text>
</a>
</g>
<!-- Node1&#45;&gt;Node2 -->
<g id="edge2" class="edge"><title>Node1&#45;&gt;Node2</title>
<path fill="none" stroke="midnightblue" d="M35.4475,-167.813C45.9007,-187.968 64.429,-219.006 88,-239 94.8475,-244.808 102.926,-249.789 111.098,-253.972"/>
<polygon fill="midnightblue" stroke="midnightblue" points="38.46,-166.011 30.8555,-158.634 32.1998,-169.143 38.46,-166.011"/>
</g>
<!-- Node4 -->
<g id="node7" class="node"><title>Node4</title>
<a xlink:href="classSignalBase.htm" target="_top" xlink:title="SignalBase\&lt; Arg0 \&gt;">
<polygon fill="white" stroke="black" points="102,-208.5 102,-229.5 212,-229.5 212,-208.5 102,-208.5"/>
<text text-anchor="middle" x="157" y="-216.5" font-family="Helvetica,sans-Serif" font-size="10.00">SignalBase&lt; Arg0 &gt;</text>
</a>
</g>
<!-- Node1&#45;&gt;Node4 -->
<g id="edge6" class="edge"><title>Node1&#45;&gt;Node4</title>
<path fill="none" stroke="midnightblue" d="M47.3276,-165.103C58.9119,-173.876 73.7473,-184.304 88,-192 99.7718,-198.356 113.367,-204.004 125.361,-208.47"/>
<polygon fill="midnightblue" stroke="midnightblue" points="49.2176,-162.14 39.1663,-158.79 44.9345,-167.677 49.2176,-162.14"/>
</g>
<!-- Node6 -->
<g id="node11" class="node"><title>Node6</title>
<a xlink:href="classSignalBase.htm" target="_top" xlink:title="SignalBase\&lt; Arg0, Arg1 \&gt;">
<polygon fill="white" stroke="black" points="88,-161.5 88,-182.5 226,-182.5 226,-161.5 88,-161.5"/>
<text text-anchor="middle" x="157" y="-169.5" font-family="Helvetica,sans-Serif" font-size="10.00">SignalBase&lt; Arg0, Arg1 &gt;</text>
</a>
</g>
<!-- Node1&#45;&gt;Node6 -->
<g id="edge10" class="edge"><title>Node1&#45;&gt;Node6</title>
<path fill="none" stroke="midnightblue" d="M61.4096,-154.487C73.1493,-156.638 86.5367,-159.091 99.4998,-161.466"/>
<polygon fill="midnightblue" stroke="midnightblue" points="62.0361,-151.044 51.5691,-152.684 60.7746,-157.929 62.0361,-151.044"/>
</g>
<!-- Node8 -->
<g id="node15" class="node"><title>Node8</title>
<a xlink:href="classSignalBase.htm" target="_top" xlink:title="SignalBase\&lt; Arg0, Arg1,\l Arg2 \&gt;">
<polygon fill="white" stroke="black" points="91.5,-108 91.5,-142 222.5,-142 222.5,-108 91.5,-108"/>
<text text-anchor="start" x="99.5" y="-129" font-family="Helvetica,sans-Serif" font-size="10.00">SignalBase&lt; Arg0, Arg1,</text>
<text text-anchor="middle" x="157" y="-116" font-family="Helvetica,sans-Serif" font-size="10.00"> Arg2 &gt;</text>
</a>
</g>
<!-- Node1&#45;&gt;Node8 -->
<g id="edge14" class="edge"><title>Node1&#45;&gt;Node8</title>
<path fill="none" stroke="midnightblue" d="M61.514,-141.765C70.7518,-140.143 81.0044,-138.343 91.2646,-136.541"/>
<polygon fill="midnightblue" stroke="midnightblue" points="60.8132,-138.334 51.5691,-143.511 62.0237,-145.229 60.8132,-138.334"/>
</g>
<!-- Node10 -->
<g id="node19" class="node"><title>Node10</title>
<a xlink:href="classSignalBase.htm" target="_top" xlink:title="SignalBase\&lt; Arg0, Arg1,\l Arg2, Arg3 \&gt;">
<polygon fill="white" stroke="black" points="91.5,-53 91.5,-87 222.5,-87 222.5,-53 91.5,-53"/>
<text text-anchor="start" x="99.5" y="-74" font-family="Helvetica,sans-Serif" font-size="10.00">SignalBase&lt; Arg0, Arg1,</text>
<text text-anchor="middle" x="157" y="-61" font-family="Helvetica,sans-Serif" font-size="10.00"> Arg2, Arg3 &gt;</text>
</a>
</g>
<!-- Node1&#45;&gt;Node10 -->
<g id="edge18" class="edge"><title>Node1&#45;&gt;Node10</title>
<path fill="none" stroke="midnightblue" d="M45.4528,-130.372C57.1962,-120.322 72.7892,-107.981 88,-99 95.385,-94.6397 103.548,-90.6002 111.598,-87.0058"/>
<polygon fill="midnightblue" stroke="midnightblue" points="42.8647,-127.986 37.6426,-137.204 47.4736,-133.255 42.8647,-127.986"/>
</g>
<!-- Node12 -->
<g id="node23" class="node"><title>Node12</title>
<a xlink:href="classSignalBase.htm" target="_top" xlink:title="SignalBase\&lt;\&gt;">
<polygon fill="white" stroke="black" points="116,-10.5 116,-31.5 198,-31.5 198,-10.5 116,-10.5"/>
<text text-anchor="middle" x="157" y="-18.5" font-family="Helvetica,sans-Serif" font-size="10.00">SignalBase&lt;&gt;</text>
</a>
</g>
<!-- Node1&#45;&gt;Node12 -->
<g id="edge22" class="edge"><title>Node1&#45;&gt;Node12</title>
<path fill="none" stroke="midnightblue" d="M33.008,-127.888C42.1449,-104.505 60.3041,-66.2814 88,-44 96.0676,-37.5096 106.046,-32.8173 115.884,-29.4372"/>
<polygon fill="midnightblue" stroke="midnightblue" points="29.6475,-126.883 29.443,-137.476 36.2086,-129.323 29.6475,-126.883"/>
</g>
<!-- Node3 -->
<g id="node5" class="node"><title>Node3</title>
<a xlink:href="classSignal.htm" target="_top" xlink:title="Signal\&lt; Arg0, Arg1,\l Arg2, Arg3, Arg4 \&gt;">
<polygon fill="white" stroke="black" points="262.5,-260 262.5,-294 369.5,-294 369.5,-260 262.5,-260"/>
<text text-anchor="start" x="270.5" y="-281" font-family="Helvetica,sans-Serif" font-size="10.00">Signal&lt; Arg0, Arg1,</text>
<text text-anchor="middle" x="316" y="-268" font-family="Helvetica,sans-Serif" font-size="10.00"> Arg2, Arg3, Arg4 &gt;</text>
</a>
</g>
<!-- Node2&#45;&gt;Node3 -->
<g id="edge4" class="edge"><title>Node2&#45;&gt;Node3</title>
<path fill="none" stroke="midnightblue" d="M232.857,-273.863C242.762,-274.236 252.742,-274.613 262.18,-274.969"/>
<polygon fill="midnightblue" stroke="midnightblue" points="232.714,-270.355 222.589,-273.475 232.45,-277.35 232.714,-270.355"/>
</g>
<!-- Node5 -->
<g id="node9" class="node"><title>Node5</title>
<a xlink:href="classSignal_3_01Arg0_00_01void_00_01void_00_01void_00_01void_01_4.htm" target="_top" xlink:title="Signal\&lt; Arg0, void,\l void, void, void \&gt;">
<polygon fill="white" stroke="black" points="264,-208 264,-242 368,-242 368,-208 264,-208"/>
<text text-anchor="start" x="272" y="-229" font-family="Helvetica,sans-Serif" font-size="10.00">Signal&lt; Arg0, void,</text>
<text text-anchor="middle" x="316" y="-216" font-family="Helvetica,sans-Serif" font-size="10.00"> void, void, void &gt;</text>
</a>
</g>
<!-- Node4&#45;&gt;Node5 -->
<g id="edge8" class="edge"><title>Node4&#45;&gt;Node5</title>
<path fill="none" stroke="midnightblue" d="M222.555,-221.474C236.326,-221.993 250.674,-222.535 263.875,-223.033"/>
<polygon fill="midnightblue" stroke="midnightblue" points="222.289,-217.961 212.164,-221.082 222.025,-224.956 222.289,-217.961"/>
</g>
<!-- Node7 -->
<g id="node13" class="node"><title>Node7</title>
<a xlink:href="classSignal_3_01Arg0_00_01Arg1_00_01void_00_01void_00_01void_01_4.htm" target="_top" xlink:title="Signal\&lt; Arg0, Arg1,\l void, void, void \&gt;">
<polygon fill="white" stroke="black" points="262.5,-156 262.5,-190 369.5,-190 369.5,-156 262.5,-156"/>
<text text-anchor="start" x="270.5" y="-177" font-family="Helvetica,sans-Serif" font-size="10.00">Signal&lt; Arg0, Arg1,</text>
<text text-anchor="middle" x="316" y="-164" font-family="Helvetica,sans-Serif" font-size="10.00"> void, void, void &gt;</text>
</a>
</g>
<!-- Node6&#45;&gt;Node7 -->
<g id="edge12" class="edge"><title>Node6&#45;&gt;Node7</title>
<path fill="none" stroke="midnightblue" d="M236.495,-172.5C245.221,-172.555 253.947,-172.61 262.253,-172.662"/>
<polygon fill="midnightblue" stroke="midnightblue" points="236.299,-168.999 226.277,-172.436 236.255,-175.999 236.299,-168.999"/>
</g>
<!-- Node9 -->
<g id="node17" class="node"><title>Node9</title>
<a xlink:href="classSignal_3_01Arg0_00_01Arg1_00_01Arg2_00_01void_00_01void_01_4.htm" target="_top" xlink:title="Signal\&lt; Arg0, Arg1,\l Arg2, void, void \&gt;">
<polygon fill="white" stroke="black" points="262.5,-104 262.5,-138 369.5,-138 369.5,-104 262.5,-104"/>
<text text-anchor="start" x="270.5" y="-125" font-family="Helvetica,sans-Serif" font-size="10.00">Signal&lt; Arg0, Arg1,</text>
<text text-anchor="middle" x="316" y="-112" font-family="Helvetica,sans-Serif" font-size="10.00"> Arg2, void, void &gt;</text>
</a>
</g>
<!-- Node8&#45;&gt;Node9 -->
<g id="edge16" class="edge"><title>Node8&#45;&gt;Node9</title>
<path fill="none" stroke="midnightblue" d="M232.857,-123.092C242.762,-122.842 252.742,-122.591 262.18,-122.354"/>
<polygon fill="midnightblue" stroke="midnightblue" points="232.498,-119.599 222.589,-123.35 232.674,-126.597 232.498,-119.599"/>
</g>
<!-- Node11 -->
<g id="node21" class="node"><title>Node11</title>
<a xlink:href="classSignal_3_01Arg0_00_01Arg1_00_01Arg2_00_01Arg3_00_01void_01_4.htm" target="_top" xlink:title="Signal\&lt; Arg0, Arg1,\l Arg2, Arg3, void \&gt;">
<polygon fill="white" stroke="black" points="262.5,-52 262.5,-86 369.5,-86 369.5,-52 262.5,-52"/>
<text text-anchor="start" x="270.5" y="-73" font-family="Helvetica,sans-Serif" font-size="10.00">Signal&lt; Arg0, Arg1,</text>
<text text-anchor="middle" x="316" y="-60" font-family="Helvetica,sans-Serif" font-size="10.00"> Arg2, Arg3, void &gt;</text>
</a>
</g>
<!-- Node10&#45;&gt;Node11 -->
<g id="edge20" class="edge"><title>Node10&#45;&gt;Node11</title>
<path fill="none" stroke="midnightblue" d="M232.857,-69.5229C242.762,-69.4606 252.742,-69.3979 262.18,-69.3385"/>
<polygon fill="midnightblue" stroke="midnightblue" points="232.567,-66.0246 222.589,-69.5875 232.611,-73.0244 232.567,-66.0246"/>
</g>
<!-- Node13 -->
<g id="node25" class="node"><title>Node13</title>
<a xlink:href="classSignal_3_01void_00_01void_00_01void_00_01void_00_01void_01_4.htm" target="_top" xlink:title="Signal\&lt; void, void,\l void, void, void \&gt;">
<polygon fill="white" stroke="black" points="265.5,-0 265.5,-34 366.5,-34 366.5,-0 265.5,-0"/>
<text text-anchor="start" x="273.5" y="-21" font-family="Helvetica,sans-Serif" font-size="10.00">Signal&lt; void, void,</text>
<text text-anchor="middle" x="316" y="-8" font-family="Helvetica,sans-Serif" font-size="10.00"> void, void, void &gt;</text>
</a>
</g>
<!-- Node12&#45;&gt;Node13 -->
<g id="edge24" class="edge"><title>Node12&#45;&gt;Node13</title>
<path fill="none" stroke="midnightblue" d="M208.529,-19.7037C226.79,-19.2443 247.307,-18.7281 265.482,-18.2709"/>
<polygon fill="midnightblue" stroke="midnightblue" points="208.269,-16.209 198.36,-19.9595 208.445,-23.2068 208.269,-16.209"/>
</g>
</g>
</svg>
