<?xml version="1.0" encoding="UTF-8" standalone="no"?>
<!DOCTYPE svg PUBLIC "-//W3C//DTD SVG 1.1//EN"
 "http://www.w3.org/Graphics/SVG/1.1/DTD/svg11.dtd">
<!-- Generated by graphviz version 2.26.3 (20100126.1600)
 -->
<!-- Title: Signal&lt; void, void, void, void, void &gt; Pages: 1 -->
<svg width="216pt" height="190pt"
 viewBox="0.00 0.00 216.00 190.00" xmlns="http://www.w3.org/2000/svg" xmlns:xlink="http://www.w3.org/1999/xlink">
<g id="graph1" class="graph" transform="scale(1 1) rotate(0) translate(4 186)">
<title>Signal&lt; void, void, void, void, void &gt;</title>
<polygon fill="white" stroke="white" points="-4,5 -4,-186 213,-186 213,5 -4,5"/>
<!-- Node1 -->
<g id="node1" class="node"><title>Node1</title>
<polygon fill="#bfbfbf" stroke="black" points="30.5,-1 30.5,-35 131.5,-35 131.5,-1 30.5,-1"/>
<text text-anchor="start" x="38.5" y="-22" font-family="Helvetica,sans-Serif" font-size="10.00">Signal&lt; void, void,</text>
<text text-anchor="middle" x="81" y="-9" font-family="Helvetica,sans-Serif" font-size="10.00"> void, void, void &gt;</text>
</g>
<!-- Node2 -->
<g id="node2" class="node"><title>Node2</title>
<a xlink:href="classSignalBase.htm" target="_top" xlink:title="SignalBase\&lt;\&gt;">
<polygon fill="white" stroke="black" points="40,-74.5 40,-95.5 122,-95.5 122,-74.5 40,-74.5"/>
<text text-anchor="middle" x="81" y="-82.5" font-family="Helvetica,sans-Serif" font-size="10.00">SignalBase&lt;&gt;</text>
</a>
</g>
<!-- Node2&#45;&gt;Node1 -->
<g id="edge2" class="edge"><title>Node2&#45;&gt;Node1</title>
<path fill="none" stroke="midnightblue" d="M81,-64.1655C81,-54.7973 81,-43.8796 81,-35.0139"/>
<polygon fill="midnightblue" stroke="midnightblue" points="77.5001,-64.2353 81,-74.2353 84.5001,-64.2353 77.5001,-64.2353"/>
</g>
<!-- Node3 -->
<g id="node4" class="node"><title>Node3</title>
<a xlink:href="classSender.htm" target="_top" xlink:title="Sender">
<polygon fill="white" stroke="black" points="-0.5,-153.5 -0.5,-174.5 50.5,-174.5 50.5,-153.5 -0.5,-153.5"/>
<text text-anchor="middle" x="25" y="-161.5" font-family="Helvetica,sans-Serif" font-size="10.00">Sender</text>
</a>
</g>
<!-- Node3&#45;&gt;Node2 -->
<g id="edge4" class="edge"><title>Node3&#45;&gt;Node2</title>
<path fill="none" stroke="midnightblue" d="M38.4416,-145.038C49.3808,-129.606 64.427,-108.38 73.3884,-95.7378"/>
<polygon fill="midnightblue" stroke="midnightblue" points="35.4801,-143.163 32.5524,-153.346 41.1909,-147.212 35.4801,-143.163"/>
</g>
<!-- Node4 -->
<g id="node6" class="node"><title>Node4</title>
<a xlink:href="classstd_1_1set_3_01SlotBase_3_01void_00_01void_00_01void_00_01void_00_01void_01_4_01_5_01_4.htm" target="_top" xlink:title="set\&lt; SlotBase\&lt; void,\l void, void, void, void \&gt; * \&gt;">
<polygon fill="white" stroke="black" points="68,-147 68,-181 208,-181 208,-147 68,-147"/>
<text text-anchor="start" x="76" y="-168" font-family="Helvetica,sans-Serif" font-size="10.00">set&lt; SlotBase&lt; void,</text>
<text text-anchor="middle" x="138" y="-155" font-family="Helvetica,sans-Serif" font-size="10.00"> void, void, void, void &gt; * &gt;</text>
</a>
</g>
<!-- Node4&#45;&gt;Node2 -->
<g id="edge6" class="edge"><title>Node4&#45;&gt;Node2</title>
<path fill="none" stroke="#9a32cd" stroke-dasharray="5,2" d="M119.736,-138.686C109.211,-124.1 96.5393,-106.537 88.6244,-95.5672"/>
<polygon fill="#9a32cd" stroke="#9a32cd" points="116.942,-140.797 125.632,-146.858 122.619,-136.701 116.942,-140.797"/>
<text text-anchor="middle" x="131" y="-118.5" font-family="Helvetica,sans-Serif" font-size="10.00"> m_slots</text>
</g>
</g>
</svg>
