<?xml version="1.0" encoding="UTF-8" standalone="no"?>
<!DOCTYPE svg PUBLIC "-//W3C//DTD SVG 1.1//EN"
 "http://www.w3.org/Graphics/SVG/1.1/DTD/svg11.dtd">
<!-- Generated by graphviz version 2.26.3 (20100126.1600)
 -->
<!-- Title: NYXLogicalSensorConnectorBase Pages: 1 -->
<svg width="638pt" height="198pt"
 viewBox="0.00 0.00 638.00 198.00" xmlns="http://www.w3.org/2000/svg" xmlns:xlink="http://www.w3.org/1999/xlink">
<g id="graph1" class="graph" transform="scale(1 1) rotate(0) translate(4 194)">
<title>NYXLogicalSensorConnectorBase</title>
<polygon fill="white" stroke="white" points="-4,5 -4,-194 635,-194 635,5 -4,5"/>
<!-- Node1 -->
<g id="node1" class="node"><title>Node1</title>
<polygon fill="#bfbfbf" stroke="black" points="240.5,-84.5 240.5,-105.5 419.5,-105.5 419.5,-84.5 240.5,-84.5"/>
<text text-anchor="middle" x="330" y="-92.5" font-family="Helvetica,sans-Serif" font-size="10.00">NYXLogicalSensorConnectorBase</text>
</g>
<!-- Node4 -->
<g id="node7" class="node"><title>Node4</title>
<a xlink:href="classNYXLogicalAccelerometerSensorConnector.htm" target="_top" xlink:title="NYXLogicalAccelerometerSensor\lConnector">
<polygon fill="white" stroke="black" points="456.5,-156 456.5,-190 629.5,-190 629.5,-156 456.5,-156"/>
<text text-anchor="start" x="464.5" y="-177" font-family="Helvetica,sans-Serif" font-size="10.00">NYXLogicalAccelerometerSensor</text>
<text text-anchor="middle" x="543" y="-164" font-family="Helvetica,sans-Serif" font-size="10.00">Connector</text>
</a>
</g>
<!-- Node1&#45;&gt;Node4 -->
<g id="edge6" class="edge"><title>Node1&#45;&gt;Node4</title>
<path fill="none" stroke="midnightblue" d="M363.326,-109.834C388.521,-120.783 424.103,-135.685 456,-147 464.617,-150.057 473.795,-153.063 482.838,-155.885"/>
<polygon fill="midnightblue" stroke="midnightblue" points="364.439,-106.5 353.875,-105.7 361.634,-112.914 364.439,-106.5"/>
</g>
<!-- Node5 -->
<g id="node9" class="node"><title>Node5</title>
<a xlink:href="classNYXLogicalDeviceMotionSensorConnector.htm" target="_top" xlink:title="NYXLogicalDeviceMotionSensor\lConnector">
<polygon fill="white" stroke="black" points="458,-104 458,-138 628,-138 628,-104 458,-104"/>
<text text-anchor="start" x="466" y="-125" font-family="Helvetica,sans-Serif" font-size="10.00">NYXLogicalDeviceMotionSensor</text>
<text text-anchor="middle" x="543" y="-112" font-family="Helvetica,sans-Serif" font-size="10.00">Connector</text>
</a>
</g>
<!-- Node1&#45;&gt;Node5 -->
<g id="edge8" class="edge"><title>Node1&#45;&gt;Node5</title>
<path fill="none" stroke="midnightblue" d="M426.074,-106.727C436.616,-108.014 447.297,-109.318 457.696,-110.587"/>
<polygon fill="midnightblue" stroke="midnightblue" points="426.372,-103.238 416.021,-105.5 425.523,-110.186 426.372,-103.238"/>
</g>
<!-- Node6 -->
<g id="node11" class="node"><title>Node6</title>
<a xlink:href="classNYXLogicalDeviceOrientationSensorConnector.htm" target="_top" xlink:title="NYXLogicalDeviceOrientation\lSensorConnector">
<polygon fill="white" stroke="black" points="465,-52 465,-86 621,-86 621,-52 465,-52"/>
<text text-anchor="start" x="473" y="-73" font-family="Helvetica,sans-Serif" font-size="10.00">NYXLogicalDeviceOrientation</text>
<text text-anchor="middle" x="543" y="-60" font-family="Helvetica,sans-Serif" font-size="10.00">SensorConnector</text>
</a>
</g>
<!-- Node1&#45;&gt;Node6 -->
<g id="edge10" class="edge"><title>Node1&#45;&gt;Node6</title>
<path fill="none" stroke="midnightblue" d="M426.323,-83.2423C439.24,-81.6655 452.359,-80.0641 464.91,-78.5321"/>
<polygon fill="midnightblue" stroke="midnightblue" points="425.523,-79.8138 416.021,-84.4997 426.372,-86.7622 425.523,-79.8138"/>
</g>
<!-- Node7 -->
<g id="node13" class="node"><title>Node7</title>
<a xlink:href="classNYXLogicalOrientationSensorConnector.htm" target="_top" xlink:title="NYXLogicalOrientationSensor\lConnector">
<polygon fill="white" stroke="black" points="464,-0 464,-34 622,-34 622,-0 464,-0"/>
<text text-anchor="start" x="472" y="-21" font-family="Helvetica,sans-Serif" font-size="10.00">NYXLogicalOrientationSensor</text>
<text text-anchor="middle" x="543" y="-8" font-family="Helvetica,sans-Serif" font-size="10.00">Connector</text>
</a>
</g>
<!-- Node1&#45;&gt;Node7 -->
<g id="edge12" class="edge"><title>Node1&#45;&gt;Node7</title>
<path fill="none" stroke="midnightblue" d="M363.326,-80.1663C388.521,-69.217 424.103,-54.3154 456,-43 464.617,-39.9431 473.795,-36.9367 482.838,-34.1149"/>
<polygon fill="midnightblue" stroke="midnightblue" points="361.634,-77.0862 353.875,-84.3001 364.439,-83.4996 361.634,-77.0862"/>
</g>
<!-- Node2 -->
<g id="node2" class="node"><title>Node2</title>
<a xlink:href="classNYXConnectorBase.htm" target="_top" xlink:title="NYXConnectorBase">
<polygon fill="white" stroke="black" points="92.5,-84.5 92.5,-105.5 203.5,-105.5 203.5,-84.5 92.5,-84.5"/>
<text text-anchor="middle" x="148" y="-92.5" font-family="Helvetica,sans-Serif" font-size="10.00">NYXConnectorBase</text>
</a>
</g>
<!-- Node2&#45;&gt;Node1 -->
<g id="edge2" class="edge"><title>Node2&#45;&gt;Node1</title>
<path fill="none" stroke="midnightblue" d="M213.863,-95C222.43,-95 231.321,-95 240.196,-95"/>
<polygon fill="midnightblue" stroke="midnightblue" points="213.595,-91.5001 203.595,-95 213.595,-98.5001 213.595,-91.5001"/>
</g>
<!-- Node3 -->
<g id="node4" class="node"><title>Node3</title>
<a xlink:href="classQObject.htm" target="_top" xlink:title="QObject">
<polygon fill="white" stroke="black" points="0.5,-84.5 0.5,-105.5 55.5,-105.5 55.5,-84.5 0.5,-84.5"/>
<text text-anchor="middle" x="28" y="-92.5" font-family="Helvetica,sans-Serif" font-size="10.00">QObject</text>
</a>
</g>
<!-- Node3&#45;&gt;Node2 -->
<g id="edge4" class="edge"><title>Node3&#45;&gt;Node2</title>
<path fill="none" stroke="midnightblue" d="M65.7513,-95C74.1545,-95 83.236,-95 92.1924,-95"/>
<polygon fill="midnightblue" stroke="midnightblue" points="65.5305,-91.5001 55.5304,-95 65.5304,-98.5001 65.5305,-91.5001"/>
</g>
</g>
</svg>
