<?xml version="1.0" encoding="UTF-8" standalone="no"?>
<!DOCTYPE svg PUBLIC "-//W3C//DTD SVG 1.1//EN"
 "http://www.w3.org/Graphics/SVG/1.1/DTD/svg11.dtd">
<!-- Generated by graphviz version 2.26.3 (20100126.1600)
 -->
<!-- Title: QWidget Pages: 1 -->
<svg width="196pt" height="88pt"
 viewBox="0.00 0.00 196.00 88.00" xmlns="http://www.w3.org/2000/svg" xmlns:xlink="http://www.w3.org/1999/xlink">
<g id="graph1" class="graph" transform="scale(1 1) rotate(0) translate(4 84)">
<title>QWidget</title>
<polygon fill="white" stroke="white" points="-4,5 -4,-84 193,-84 193,5 -4,5"/>
<!-- Node1 -->
<g id="node1" class="node"><title>Node1</title>
<polygon fill="#bfbfbf" stroke="black" points="60,-58.5 60,-79.5 118,-79.5 118,-58.5 60,-58.5"/>
<text text-anchor="middle" x="89" y="-66.5" font-family="Helvetica,sans-Serif" font-size="10.00">QWidget</text>
</g>
<!-- Node2 -->
<g id="node3" class="node"><title>Node2</title>
<a xlink:href="classGestureStrip.htm" target="_top" xlink:title="GestureStrip">
<polygon fill="white" stroke="black" points="0,-0.5 0,-21.5 76,-21.5 76,-0.5 0,-0.5"/>
<text text-anchor="middle" x="38" y="-8.5" font-family="Helvetica,sans-Serif" font-size="10.00">GestureStrip</text>
</a>
</g>
<!-- Node1&#45;&gt;Node2 -->
<g id="edge2" class="edge"><title>Node1&#45;&gt;Node2</title>
<path fill="none" stroke="midnightblue" d="M73.0229,-50.8299C64.5621,-41.2078 54.4679,-29.7282 47.2949,-21.5707"/>
<polygon fill="midnightblue" stroke="midnightblue" points="70.414,-53.1634 79.6458,-58.3619 75.6708,-48.541 70.414,-53.1634"/>
</g>
<!-- Node3 -->
<g id="node5" class="node"><title>Node3</title>
<a xlink:href="classInspectorWidget.htm" target="_top" xlink:title="InspectorWidget">
<polygon fill="white" stroke="black" points="94,-0.5 94,-21.5 188,-21.5 188,-0.5 94,-0.5"/>
<text text-anchor="middle" x="141" y="-8.5" font-family="Helvetica,sans-Serif" font-size="10.00">InspectorWidget</text>
</a>
</g>
<!-- Node1&#45;&gt;Node3 -->
<g id="edge4" class="edge"><title>Node1&#45;&gt;Node3</title>
<path fill="none" stroke="midnightblue" d="M105.29,-50.8299C113.917,-41.2078 124.209,-29.7282 131.523,-21.5707"/>
<polygon fill="midnightblue" stroke="midnightblue" points="102.607,-48.5798 98.5376,-58.3619 107.819,-53.2526 102.607,-48.5798"/>
</g>
</g>
</svg>
