<?xml version="1.0" encoding="UTF-8" standalone="no"?>
<!DOCTYPE svg PUBLIC "-//W3C//DTD SVG 1.1//EN"
 "http://www.w3.org/Graphics/SVG/1.1/DTD/svg11.dtd">
<!-- Generated by graphviz version 2.26.3 (20100126.1600)
 -->
<!-- Title: Signal&lt; void, void, void, void, void &gt; Pages: 1 -->
<svg width="108pt" height="160pt"
 viewBox="0.00 0.00 108.00 160.00" xmlns="http://www.w3.org/2000/svg" xmlns:xlink="http://www.w3.org/1999/xlink">
<g id="graph1" class="graph" transform="scale(1 1) rotate(0) translate(4 156)">
<title>Signal&lt; void, void, void, void, void &gt;</title>
<polygon fill="white" stroke="white" points="-4,5 -4,-156 105,-156 105,5 -4,5"/>
<!-- Node1 -->
<g id="node1" class="node"><title>Node1</title>
<polygon fill="#bfbfbf" stroke="black" points="-0.5,-1 -0.5,-35 100.5,-35 100.5,-1 -0.5,-1"/>
<text text-anchor="start" x="7.5" y="-22" font-family="Helvetica,sans-Serif" font-size="10.00">Signal&lt; void, void,</text>
<text text-anchor="middle" x="50" y="-9" font-family="Helvetica,sans-Serif" font-size="10.00"> void, void, void &gt;</text>
</g>
<!-- Node2 -->
<g id="node2" class="node"><title>Node2</title>
<a xlink:href="classSignalBase.htm" target="_top" xlink:title="SignalBase\&lt;\&gt;">
<polygon fill="white" stroke="black" points="9,-72.5 9,-93.5 91,-93.5 91,-72.5 9,-72.5"/>
<text text-anchor="middle" x="50" y="-80.5" font-family="Helvetica,sans-Serif" font-size="10.00">SignalBase&lt;&gt;</text>
</a>
</g>
<!-- Node2&#45;&gt;Node1 -->
<g id="edge2" class="edge"><title>Node2&#45;&gt;Node1</title>
<path fill="none" stroke="midnightblue" d="M50,-62.1306C50,-53.4049 50,-43.3908 50,-35.1099"/>
<polygon fill="midnightblue" stroke="midnightblue" points="46.5001,-62.2665 50,-72.2666 53.5001,-62.2666 46.5001,-62.2665"/>
</g>
<!-- Node3 -->
<g id="node4" class="node"><title>Node3</title>
<a xlink:href="classSender.htm" target="_top" xlink:title="Sender">
<polygon fill="white" stroke="black" points="24.5,-130.5 24.5,-151.5 75.5,-151.5 75.5,-130.5 24.5,-130.5"/>
<text text-anchor="middle" x="50" y="-138.5" font-family="Helvetica,sans-Serif" font-size="10.00">Sender</text>
</a>
</g>
<!-- Node3&#45;&gt;Node2 -->
<g id="edge4" class="edge"><title>Node3&#45;&gt;Node2</title>
<path fill="none" stroke="midnightblue" d="M50,-120.191C50,-111.168 50,-100.994 50,-93.5707"/>
<polygon fill="midnightblue" stroke="midnightblue" points="46.5001,-120.362 50,-130.362 53.5001,-120.362 46.5001,-120.362"/>
</g>
</g>
</svg>
