<?xml version="1.0" encoding="UTF-8" standalone="no"?>
<!DOCTYPE svg PUBLIC "-//W3C//DTD SVG 1.1//EN"
 "http://www.w3.org/Graphics/SVG/1.1/DTD/svg11.dtd">
<!-- Generated by graphviz version 2.26.3 (20100126.1600)
 -->
<!-- Title: HostArmBroadway Pages: 1 -->
<svg width="1262pt" height="1030pt"
 viewBox="0.00 0.00 1262.00 1030.00" xmlns="http://www.w3.org/2000/svg" xmlns:xlink="http://www.w3.org/1999/xlink">
<g id="graph1" class="graph" transform="scale(1 1) rotate(0) translate(4 1026)">
<title>HostArmBroadway</title>
<polygon fill="white" stroke="white" points="-4,5 -4,-1026 1259,-1026 1259,5 -4,5"/>
<!-- Node1 -->
<g id="node1" class="node"><title>Node1</title>
<polygon fill="#bfbfbf" stroke="black" points="1150,-616.5 1150,-637.5 1254,-637.5 1254,-616.5 1150,-616.5"/>
<text text-anchor="middle" x="1202" y="-624.5" font-family="Helvetica,sans-Serif" font-size="10.00">HostArmBroadway</text>
</g>
<!-- Node2 -->
<g id="node2" class="node"><title>Node2</title>
<a xlink:href="classHostArm.htm" target="_top" xlink:title="HostArm">
<polygon fill="white" stroke="black" points="1054.5,-616.5 1054.5,-637.5 1111.5,-637.5 1111.5,-616.5 1054.5,-616.5"/>
<text text-anchor="middle" x="1083" y="-624.5" font-family="Helvetica,sans-Serif" font-size="10.00">HostArm</text>
</a>
</g>
<!-- Node2&#45;&gt;Node1 -->
<g id="edge2" class="edge"><title>Node2&#45;&gt;Node1</title>
<path fill="none" stroke="midnightblue" d="M1121.7,-627C1130.73,-627 1140.49,-627 1149.98,-627"/>
<polygon fill="midnightblue" stroke="midnightblue" points="1121.5,-623.5 1111.5,-627 1121.5,-630.5 1121.5,-623.5"/>
</g>
<!-- Node3 -->
<g id="node4" class="node"><title>Node3</title>
<a xlink:href="classHostBase.htm" target="_top" xlink:title="HostBase">
<polygon fill="white" stroke="black" points="754,-508.5 754,-529.5 816,-529.5 816,-508.5 754,-508.5"/>
<text text-anchor="middle" x="785" y="-516.5" font-family="Helvetica,sans-Serif" font-size="10.00">HostBase</text>
</a>
</g>
<!-- Node3&#45;&gt;Node2 -->
<g id="edge4" class="edge"><title>Node3&#45;&gt;Node2</title>
<path fill="none" stroke="midnightblue" d="M823.708,-533.028C884.342,-555.003 1000.34,-597.044 1054.2,-616.564"/>
<polygon fill="midnightblue" stroke="midnightblue" points="824.71,-529.669 814.116,-529.552 822.325,-536.25 824.71,-529.669"/>
</g>
<!-- Node4 -->
<g id="node6" class="node"><title>Node4</title>
<a xlink:href="classQObject.htm" target="_top" xlink:title="QObject">
<polygon fill="white" stroke="black" points="177.5,-497.5 177.5,-518.5 232.5,-518.5 232.5,-497.5 177.5,-497.5"/>
<text text-anchor="middle" x="205" y="-505.5" font-family="Helvetica,sans-Serif" font-size="10.00">QObject</text>
</a>
</g>
<!-- Node4&#45;&gt;Node3 -->
<g id="edge6" class="edge"><title>Node4&#45;&gt;Node3</title>
<path fill="none" stroke="midnightblue" d="M242.84,-502.497C281.772,-496.792 344.162,-487.531 398,-479 406.01,-477.731 407.917,-476.669 416,-476 533.303,-466.292 564.031,-476.865 680,-497 704.957,-501.333 733.031,-507.271 753.866,-511.886"/>
<polygon fill="midnightblue" stroke="midnightblue" points="241.896,-499.098 232.507,-504.008 242.909,-506.024 241.896,-499.098"/>
</g>
<!-- Node24 -->
<g id="node49" class="node"><title>Node24</title>
<a xlink:href="classNYXConnectorBase.htm" target="_top" xlink:title="NYXConnectorBase">
<polygon fill="white" stroke="black" points="416.5,-729.5 416.5,-750.5 527.5,-750.5 527.5,-729.5 416.5,-729.5"/>
<text text-anchor="middle" x="472" y="-737.5" font-family="Helvetica,sans-Serif" font-size="10.00">NYXConnectorBase</text>
</a>
</g>
<!-- Node4&#45;&gt;Node24 -->
<g id="edge54" class="edge"><title>Node4&#45;&gt;Node24</title>
<path fill="none" stroke="midnightblue" d="M242.95,-510.95C286.602,-516.403 357.453,-531.915 398,-576 419.455,-599.327 403.836,-615.734 416,-645 429.52,-677.529 452.535,-712.375 464.411,-729.402"/>
<polygon fill="midnightblue" stroke="midnightblue" points="243.069,-507.442 232.739,-509.796 242.282,-514.397 243.069,-507.442"/>
</g>
<!-- Node5 -->
<g id="node8" class="node"><title>Node5</title>
<a xlink:href="classTaskBase.htm" target="_top" xlink:title="TaskBase">
<polygon fill="white" stroke="black" points="440,-139.5 440,-160.5 504,-160.5 504,-139.5 440,-139.5"/>
<text text-anchor="middle" x="472" y="-147.5" font-family="Helvetica,sans-Serif" font-size="10.00">TaskBase</text>
</a>
</g>
<!-- Node5&#45;&gt;Node3 -->
<g id="edge8" class="edge"><title>Node5&#45;&gt;Node3</title>
<path fill="none" stroke="midnightblue" d="M506.845,-164.795C554.104,-186.774 637.491,-232.707 680,-299 702.725,-334.44 681.764,-353.156 698,-392 717.892,-439.591 757.239,-487.607 775.401,-508.358"/>
<polygon fill="midnightblue" stroke="midnightblue" points="508.168,-161.552 497.616,-160.595 505.268,-167.923 508.168,-161.552"/>
</g>
<!-- Node6 -->
<g id="node10" class="node"><title>Node6</title>
<a xlink:href="classRefCounted.htm" target="_top" xlink:title="RefCounted">
<polygon fill="white" stroke="black" points="12.5,-171.5 12.5,-192.5 85.5,-192.5 85.5,-171.5 12.5,-171.5"/>
<text text-anchor="middle" x="49" y="-179.5" font-family="Helvetica,sans-Serif" font-size="10.00">RefCounted</text>
</a>
</g>
<!-- Node6&#45;&gt;Node5 -->
<g id="edge10" class="edge"><title>Node6&#45;&gt;Node5</title>
<path fill="none" stroke="midnightblue" d="M95.9135,-178.603C162.923,-173.728 289.902,-164.409 398,-156 411.75,-154.93 426.934,-153.707 439.95,-152.645"/>
<polygon fill="midnightblue" stroke="midnightblue" points="95.4059,-175.13 85.6859,-179.346 95.9133,-182.112 95.4059,-175.13"/>
</g>
<!-- Node12 -->
<g id="node22" class="node"><title>Node12</title>
<a xlink:href="classMutex.htm" target="_top" xlink:title="Mutex">
<polygon fill="white" stroke="black" points="182.5,-238.5 182.5,-259.5 227.5,-259.5 227.5,-238.5 182.5,-238.5"/>
<text text-anchor="middle" x="205" y="-246.5" font-family="Helvetica,sans-Serif" font-size="10.00">Mutex</text>
</a>
</g>
<!-- Node6&#45;&gt;Node12 -->
<g id="edge24" class="edge"><title>Node6&#45;&gt;Node12</title>
<path fill="none" stroke="midnightblue" d="M74.8802,-197.874C91.8198,-207.784 114.687,-220.271 136,-229 151.004,-235.145 168.563,-240.207 182.213,-243.7"/>
<polygon fill="midnightblue" stroke="midnightblue" points="76.5117,-194.772 66.1267,-192.674 72.9366,-200.79 76.5117,-194.772"/>
</g>
<!-- Node7 -->
<g id="node12" class="node"><title>Node7</title>
<a xlink:href="classAsyncCaller.htm" target="_top" xlink:title="AsyncCaller\&lt; TaskBase \&gt;">
<polygon fill="white" stroke="black" points="136,-80.5 136,-101.5 274,-101.5 274,-80.5 136,-80.5"/>
<text text-anchor="middle" x="205" y="-88.5" font-family="Helvetica,sans-Serif" font-size="10.00">AsyncCaller&lt; TaskBase &gt;</text>
</a>
</g>
<!-- Node7&#45;&gt;Node5 -->
<g id="edge12" class="edge"><title>Node7&#45;&gt;Node5</title>
<path fill="none" stroke="#9a32cd" stroke-dasharray="5,2" d="M284.432,-97.9509C319.648,-102.198 361.325,-108.835 398,-119 416.389,-124.097 436.289,-132.617 450.817,-139.436"/>
<polygon fill="#9a32cd" stroke="#9a32cd" points="284.54,-94.44 274.203,-96.7619 283.732,-101.393 284.54,-94.44"/>
<text text-anchor="middle" x="345" y="-123" font-family="Helvetica,sans-Serif" font-size="10.00"> m_asyncCaller</text>
</g>
<!-- Node8 -->
<g id="node14" class="node"><title>Node8</title>
<a xlink:href="classAsyncCallerBase.htm" target="_top" xlink:title="AsyncCallerBase">
<polygon fill="white" stroke="black" points="0.5,-80.5 0.5,-101.5 97.5,-101.5 97.5,-80.5 0.5,-80.5"/>
<text text-anchor="middle" x="49" y="-88.5" font-family="Helvetica,sans-Serif" font-size="10.00">AsyncCallerBase</text>
</a>
</g>
<!-- Node8&#45;&gt;Node7 -->
<g id="edge14" class="edge"><title>Node8&#45;&gt;Node7</title>
<path fill="none" stroke="midnightblue" d="M107.705,-91C116.91,-91 126.497,-91 135.909,-91"/>
<polygon fill="midnightblue" stroke="midnightblue" points="107.504,-87.5001 97.5042,-91 107.504,-94.5001 107.504,-87.5001"/>
</g>
<!-- Node9 -->
<g id="node16" class="node"><title>Node9</title>
<polygon fill="white" stroke="#bfbfbf" points="150,-198.5 150,-219.5 260,-219.5 260,-198.5 150,-198.5"/>
<text text-anchor="middle" x="205" y="-206.5" font-family="Helvetica,sans-Serif" font-size="10.00">list&lt; sptr&lt; Event &gt; &gt;</text>
</g>
<!-- Node9&#45;&gt;Node5 -->
<g id="edge16" class="edge"><title>Node9&#45;&gt;Node5</title>
<path fill="none" stroke="#9a32cd" stroke-dasharray="5,2" d="M270.611,-203.635C308.355,-199.522 356.396,-192.532 398,-181 416.389,-175.903 436.289,-167.383 450.817,-160.564"/>
<polygon fill="#9a32cd" stroke="#9a32cd" points="269.833,-200.197 260.252,-204.72 270.562,-207.159 269.833,-200.197"/>
<text text-anchor="middle" x="345" y="-205" font-family="Helvetica,sans-Serif" font-size="10.00"> m_eventsList</text>
</g>
<!-- Node10 -->
<g id="node18" class="node"><title>Node10</title>
<polygon fill="white" stroke="#bfbfbf" points="165,-120.5 165,-141.5 245,-141.5 245,-120.5 165,-120.5"/>
<text text-anchor="middle" x="205" y="-128.5" font-family="Helvetica,sans-Serif" font-size="10.00">GMainLoop *</text>
</g>
<!-- Node10&#45;&gt;Node5 -->
<g id="edge18" class="edge"><title>Node10&#45;&gt;Node5</title>
<path fill="none" stroke="#9a32cd" stroke-dasharray="5,2" d="M255.356,-133.686C294.319,-135.872 349.61,-139.208 398,-143 411.766,-144.079 426.952,-145.479 439.966,-146.743"/>
<polygon fill="#9a32cd" stroke="#9a32cd" points="255.497,-130.188 245.318,-133.128 255.109,-137.178 255.497,-130.188"/>
<text text-anchor="middle" x="345" y="-147" font-family="Helvetica,sans-Serif" font-size="10.00"> m_mainLoop</text>
</g>
<!-- Node11 -->
<g id="node20" class="node"><title>Node11</title>
<a xlink:href="classSingletonTimer.htm" target="_top" xlink:title="SingletonTimer">
<polygon fill="white" stroke="black" points="161,-0.5 161,-21.5 249,-21.5 249,-0.5 161,-0.5"/>
<text text-anchor="middle" x="205" y="-8.5" font-family="Helvetica,sans-Serif" font-size="10.00">SingletonTimer</text>
</a>
</g>
<!-- Node11&#45;&gt;Node5 -->
<g id="edge20" class="edge"><title>Node11&#45;&gt;Node5</title>
<path fill="none" stroke="#9a32cd" stroke-dasharray="5,2" d="M259.205,-7.43785C300.296,-7.29924 356.571,-12.8275 398,-39 436.77,-63.4924 459.835,-116.499 468.296,-139.26"/>
<polygon fill="#9a32cd" stroke="#9a32cd" points="259.051,-3.93963 249.104,-7.58607 259.154,-10.9389 259.051,-3.93963"/>
<text text-anchor="middle" x="345" y="-43" font-family="Helvetica,sans-Serif" font-size="10.00"> m_masterTimer</text>
</g>
<!-- Node12&#45;&gt;Node3 -->
<g id="edge38" class="edge"><title>Node12&#45;&gt;Node3</title>
<path fill="none" stroke="#9a32cd" stroke-dasharray="5,2" d="M237.317,-257.135C295.815,-272.096 422.94,-305.695 528,-341 536.137,-343.734 537.825,-345.384 546,-348 604.52,-366.725 628.696,-348.19 680,-382 730.795,-415.474 767.056,-482.006 779.893,-508.119"/>
<polygon fill="#9a32cd" stroke="#9a32cd" points="238.096,-253.722 227.542,-254.645 236.369,-260.505 238.096,-253.722"/>
<text text-anchor="middle" x="472" y="-345" font-family="Helvetica,sans-Serif" font-size="10.00"> m_paintMutex</text>
</g>
<!-- Node12&#45;&gt;Node5 -->
<g id="edge22" class="edge"><title>Node12&#45;&gt;Node5</title>
<path fill="none" stroke="#9a32cd" stroke-dasharray="5,2" d="M237.636,-245.836C285.032,-240.865 370.279,-230.393 398,-217 426.089,-203.43 451.262,-175.819 463.733,-160.621"/>
<polygon fill="#9a32cd" stroke="#9a32cd" points="237.164,-242.366 227.573,-246.869 237.878,-249.33 237.164,-242.366"/>
<text text-anchor="middle" x="345" y="-257" font-family="Helvetica,sans-Serif" font-size="10.00"> m_eventsMutex</text>
<text text-anchor="middle" x="345" y="-244" font-family="Helvetica,sans-Serif" font-size="10.00">m_mutex</text>
</g>
<!-- Node13 -->
<g id="node25" class="node"><title>Node13</title>
<polygon fill="white" stroke="#bfbfbf" points="158.5,-40.5 158.5,-61.5 251.5,-61.5 251.5,-40.5 158.5,-40.5"/>
<text text-anchor="middle" x="205" y="-48.5" font-family="Helvetica,sans-Serif" font-size="10.00">GMainContext *</text>
</g>
<!-- Node13&#45;&gt;Node5 -->
<g id="edge26" class="edge"><title>Node13&#45;&gt;Node5</title>
<path fill="none" stroke="#9a32cd" stroke-dasharray="5,2" d="M261.744,-52.0253C301.61,-54.7028 355.237,-62.3405 398,-83 426.089,-96.5703 451.262,-124.181 463.733,-139.379"/>
<polygon fill="#9a32cd" stroke="#9a32cd" points="261.85,-48.5256 251.662,-51.4335 261.439,-55.5135 261.85,-48.5256"/>
<text text-anchor="middle" x="345" y="-87" font-family="Helvetica,sans-Serif" font-size="10.00"> m_mainCtxt</text>
</g>
<!-- Node14 -->
<g id="node27" class="node"><title>Node14</title>
<a xlink:href="structHostInfo.htm" target="_top" xlink:title="HostInfo">
<polygon fill="white" stroke="black" points="444,-363.5 444,-384.5 500,-384.5 500,-363.5 444,-363.5"/>
<text text-anchor="middle" x="472" y="-371.5" font-family="Helvetica,sans-Serif" font-size="10.00">HostInfo</text>
</a>
</g>
<!-- Node14&#45;&gt;Node3 -->
<g id="edge28" class="edge"><title>Node14&#45;&gt;Node3</title>
<path fill="none" stroke="#9a32cd" stroke-dasharray="5,2" d="M510.079,-379.112C553.243,-386.044 624.775,-401.035 680,-430 719.997,-450.978 758.167,-489.491 775.407,-508.213"/>
<polygon fill="#9a32cd" stroke="#9a32cd" points="510.422,-375.623 500.005,-377.558 509.355,-382.542 510.422,-375.623"/>
<text text-anchor="middle" x="613" y="-434" font-family="Helvetica,sans-Serif" font-size="10.00"> m_info</text>
</g>
<!-- Node15 -->
<g id="node29" class="node"><title>Node15</title>
<polygon fill="white" stroke="#bfbfbf" points="190.5,-542.5 190.5,-563.5 219.5,-563.5 219.5,-542.5 190.5,-542.5"/>
<text text-anchor="middle" x="205" y="-550.5" font-family="Helvetica,sans-Serif" font-size="10.00">int</text>
</g>
<!-- Node15&#45;&gt;Node2 -->
<g id="edge72" class="edge"><title>Node15&#45;&gt;Node2</title>
<path fill="none" stroke="#9a32cd" stroke-dasharray="5,2" d="M229.831,-553.483C276.188,-554.894 373.433,-560.417 398,-582 419.877,-601.22 392.752,-627.464 416,-645 518.076,-721.996 940.072,-652.82 1054.35,-632.309"/>
<polygon fill="#9a32cd" stroke="#9a32cd" points="229.816,-549.982 219.727,-553.217 229.631,-556.979 229.816,-549.982"/>
<text text-anchor="middle" x="613" y="-723" font-family="Helvetica,sans-Serif" font-size="10.00"> m_fb0Fd</text>
<text text-anchor="middle" x="613" y="-710" font-family="Helvetica,sans-Serif" font-size="10.00">m_fb1Fd</text>
<text text-anchor="middle" x="613" y="-697" font-family="Helvetica,sans-Serif" font-size="10.00">m_fb0NumBuffers</text>
<text text-anchor="middle" x="613" y="-684" font-family="Helvetica,sans-Serif" font-size="10.00">m_fb1NumBuffers</text>
</g>
<!-- Node15&#45;&gt;Node3 -->
<g id="edge34" class="edge"><title>Node15&#45;&gt;Node3</title>
<path fill="none" stroke="#9a32cd" stroke-dasharray="5,2" d="M229.91,-551.824C300.5,-548.453 507.9,-538.265 680,-527 704.81,-525.376 732.894,-523.22 753.77,-521.555"/>
<polygon fill="#9a32cd" stroke="#9a32cd" points="229.604,-548.335 219.782,-552.306 229.937,-555.327 229.604,-548.335"/>
<text text-anchor="middle" x="472" y="-546" font-family="Helvetica,sans-Serif" font-size="10.00"> m_numBuffers</text>
</g>
<!-- Node15&#45;&gt;Node14 -->
<g id="edge30" class="edge"><title>Node15&#45;&gt;Node14</title>
<path fill="none" stroke="#9a32cd" stroke-dasharray="5,2" d="M229.741,-550.261C244.751,-547.276 263.061,-541.038 274,-528 303.87,-492.4 260.876,-459.51 292,-425 331.047,-381.705 403.832,-374.051 443.846,-373.342"/>
<polygon fill="#9a32cd" stroke="#9a32cd" points="228.86,-546.858 219.547,-551.911 229.978,-553.769 228.86,-546.858"/>
<text text-anchor="middle" x="345" y="-520" font-family="Helvetica,sans-Serif" font-size="10.00"> displayGreenLength</text>
<text text-anchor="middle" x="345" y="-507" font-family="Helvetica,sans-Serif" font-size="10.00">displayHeight</text>
<text text-anchor="middle" x="345" y="-494" font-family="Helvetica,sans-Serif" font-size="10.00">displayBlueLength</text>
<text text-anchor="middle" x="345" y="-481" font-family="Helvetica,sans-Serif" font-size="10.00">displayRedLength</text>
<text text-anchor="middle" x="345" y="-468" font-family="Helvetica,sans-Serif" font-size="10.00">displayRowBytes</text>
<text text-anchor="middle" x="345" y="-455" font-family="Helvetica,sans-Serif" font-size="10.00">displayDepth</text>
<text text-anchor="middle" x="345" y="-442" font-family="Helvetica,sans-Serif" font-size="10.00">displayWidth</text>
<text text-anchor="middle" x="345" y="-429" font-family="Helvetica,sans-Serif" font-size="10.00">displayAlphaLength</text>
</g>
<!-- Node15&#45;&gt;Node24 -->
<g id="edge60" class="edge"><title>Node15&#45;&gt;Node24</title>
<path fill="none" stroke="#9a32cd" stroke-dasharray="5,2" d="M229.37,-560.285C280.93,-575.721 396.484,-610.438 398,-612 419.17,-633.824 401.412,-651.324 416,-678 427.274,-698.616 446.705,-717.968 459.454,-729.4"/>
<polygon fill="#9a32cd" stroke="#9a32cd" points="230.267,-556.901 219.684,-557.387 228.261,-563.607 230.267,-556.901"/>
<text text-anchor="middle" x="345" y="-629" font-family="Helvetica,sans-Serif" font-size="10.00"> m_SensorFD</text>
<text text-anchor="middle" x="345" y="-616" font-family="Helvetica,sans-Serif" font-size="10.00">m_OrientationAngle</text>
</g>
<!-- Node16 -->
<g id="node31" class="node"><title>Node16</title>
<polygon fill="white" stroke="#bfbfbf" points="183,-311.5 183,-332.5 227,-332.5 227,-311.5 183,-311.5"/>
<text text-anchor="middle" x="205" y="-319.5" font-family="Helvetica,sans-Serif" font-size="10.00">void *</text>
</g>
<!-- Node16&#45;&gt;Node2 -->
<g id="edge80" class="edge"><title>Node16&#45;&gt;Node2</title>
<path fill="none" stroke="#9a32cd" stroke-dasharray="5,2" d="M237.457,-320.083C332.669,-315.104 608.993,-305.435 680,-356 694.572,-366.376 685.276,-379.426 698,-392 816.767,-509.362 910.348,-446.04 1036,-556 1055.91,-573.426 1070.96,-601.195 1078.21,-616.324"/>
<polygon fill="#9a32cd" stroke="#9a32cd" points="237.074,-316.599 227.278,-320.635 237.452,-323.589 237.074,-316.599"/>
<text text-anchor="middle" x="613" y="-373" font-family="Helvetica,sans-Serif" font-size="10.00"> m_fb1Buffer</text>
<text text-anchor="middle" x="613" y="-360" font-family="Helvetica,sans-Serif" font-size="10.00">m_fb0Buffer</text>
</g>
<!-- Node16&#45;&gt;Node14 -->
<g id="edge32" class="edge"><title>Node16&#45;&gt;Node14</title>
<path fill="none" stroke="#9a32cd" stroke-dasharray="5,2" d="M237.326,-321.4C276.159,-321.461 342.954,-324.072 398,-339 418.163,-344.468 439.57,-355.197 454.144,-363.342"/>
<polygon fill="#9a32cd" stroke="#9a32cd" points="237.133,-317.9 227.148,-321.442 237.163,-324.9 237.133,-317.9"/>
<text text-anchor="middle" x="345" y="-343" font-family="Helvetica,sans-Serif" font-size="10.00"> displayBuffer</text>
</g>
<!-- Node17 -->
<g id="node34" class="node"><title>Node17</title>
<polygon fill="white" stroke="#bfbfbf" points="187,-921.5 187,-942.5 223,-942.5 223,-921.5 187,-921.5"/>
<text text-anchor="middle" x="205" y="-929.5" font-family="Helvetica,sans-Serif" font-size="10.00">bool</text>
</g>
<!-- Node17&#45;&gt;Node2 -->
<g id="edge74" class="edge"><title>Node17&#45;&gt;Node2</title>
<path fill="none" stroke="#9a32cd" stroke-dasharray="5,2" d="M233.134,-941.396C352.244,-979.211 818.828,-1107.19 1036,-870 1067.99,-835.06 1079.74,-680.031 1082.38,-637.707"/>
<polygon fill="#9a32cd" stroke="#9a32cd" points="233.907,-937.967 223.315,-938.231 231.759,-944.63 233.907,-937.967"/>
<text text-anchor="middle" x="613" y="-1013" font-family="Helvetica,sans-Serif" font-size="10.00"> m_bluetoothKeyboardActive</text>
</g>
<!-- Node17&#45;&gt;Node3 -->
<g id="edge36" class="edge"><title>Node17&#45;&gt;Node3</title>
<path fill="none" stroke="#9a32cd" stroke-dasharray="5,2" d="M233.669,-934.581C272.238,-937.024 342.41,-937.807 398,-918 542.258,-866.6 579.018,-835.131 680,-720 734.777,-657.548 770.588,-561.497 781.485,-529.66"/>
<polygon fill="#9a32cd" stroke="#9a32cd" points="233.441,-931.056 223.216,-933.828 232.938,-938.038 233.441,-931.056"/>
<text text-anchor="middle" x="472" y="-915" font-family="Helvetica,sans-Serif" font-size="10.00"> m_metaKeyDown</text>
</g>
<!-- Node17&#45;&gt;Node24 -->
<g id="edge64" class="edge"><title>Node17&#45;&gt;Node24</title>
<path fill="none" stroke="#9a32cd" stroke-dasharray="5,2" d="M232.705,-919.213C249.788,-911.341 272.151,-901.057 292,-892 339.05,-870.531 358.074,-876.871 398,-844 431.189,-816.676 456.573,-771.04 466.921,-750.537"/>
<polygon fill="#9a32cd" stroke="#9a32cd" points="230.932,-916.176 223.317,-923.542 233.863,-922.533 230.932,-916.176"/>
<text text-anchor="middle" x="345" y="-909" font-family="Helvetica,sans-Serif" font-size="10.00"> m_Finished</text>
<text text-anchor="middle" x="345" y="-896" font-family="Helvetica,sans-Serif" font-size="10.00">m_CanPostEvent</text>
</g>
<!-- Node18 -->
<g id="node37" class="node"><title>Node18</title>
<polygon fill="white" stroke="#bfbfbf" points="435,-614.5 435,-635.5 509,-635.5 509,-614.5 435,-614.5"/>
<text text-anchor="middle" x="472" y="-622.5" font-family="Helvetica,sans-Serif" font-size="10.00">QTransform</text>
</g>
<!-- Node18&#45;&gt;Node3 -->
<g id="edge40" class="edge"><title>Node18&#45;&gt;Node3</title>
<path fill="none" stroke="#9a32cd" stroke-dasharray="5,2" d="M519.323,-624.581C562.608,-622.73 627.673,-616.197 680,-595 718.585,-579.37 756.237,-546.64 774.154,-529.688"/>
<polygon fill="#9a32cd" stroke="#9a32cd" points="518.948,-621.092 509.08,-624.949 519.199,-628.088 518.948,-621.092"/>
<text text-anchor="middle" x="613" y="-626" font-family="Helvetica,sans-Serif" font-size="10.00"> m_trans</text>
</g>
<!-- Node19 -->
<g id="node39" class="node"><title>Node19</title>
<polygon fill="white" stroke="#bfbfbf" points="442.5,-574.5 442.5,-595.5 501.5,-595.5 501.5,-574.5 442.5,-574.5"/>
<text text-anchor="middle" x="472" y="-582.5" font-family="Helvetica,sans-Serif" font-size="10.00">unsigned</text>
</g>
<!-- Node19&#45;&gt;Node3 -->
<g id="edge42" class="edge"><title>Node19&#45;&gt;Node3</title>
<path fill="none" stroke="#9a32cd" stroke-dasharray="5,2" d="M511.794,-582.182C554.008,-578.604 622.42,-571.123 680,-557 708.242,-550.073 739.437,-538.217 760.428,-529.587"/>
<polygon fill="#9a32cd" stroke="#9a32cd" points="511.331,-578.708 501.649,-583.009 511.9,-585.684 511.331,-578.708"/>
<text text-anchor="middle" x="613" y="-582" font-family="Helvetica,sans-Serif" font-size="10.00"> m_turboModeSubscriptions</text>
</g>
<!-- Node20 -->
<g id="node41" class="node"><title>Node20</title>
<polygon fill="white" stroke="#bfbfbf" points="437.5,-485.5 437.5,-506.5 506.5,-506.5 506.5,-485.5 437.5,-485.5"/>
<text text-anchor="middle" x="472" y="-493.5" font-family="Helvetica,sans-Serif" font-size="10.00">Orientation</text>
</g>
<!-- Node20&#45;&gt;Node3 -->
<g id="edge44" class="edge"><title>Node20&#45;&gt;Node3</title>
<path fill="none" stroke="#9a32cd" stroke-dasharray="5,2" d="M516.939,-499.302C581.334,-504.034 698.214,-512.623 753.894,-516.714"/>
<polygon fill="#9a32cd" stroke="#9a32cd" points="516.922,-495.792 506.692,-498.549 516.409,-502.773 516.922,-495.792"/>
<text text-anchor="middle" x="613" y="-514" font-family="Helvetica,sans-Serif" font-size="10.00"> m_orientation</text>
</g>
<!-- Node21 -->
<g id="node43" class="node"><title>Node21</title>
<a xlink:href="classNYXConnectorObserver.htm" target="_top" xlink:title="NYXConnectorObserver">
<polygon fill="white" stroke="black" points="139.5,-804.5 139.5,-825.5 270.5,-825.5 270.5,-804.5 139.5,-804.5"/>
<text text-anchor="middle" x="205" y="-812.5" font-family="Helvetica,sans-Serif" font-size="10.00">NYXConnectorObserver</text>
</a>
</g>
<!-- Node21&#45;&gt;Node2 -->
<g id="edge46" class="edge"><title>Node21&#45;&gt;Node2</title>
<path fill="none" stroke="midnightblue" d="M235.945,-830.727C248.809,-838.326 263.22,-848.338 274,-860 285.34,-872.268 277.634,-884.472 292,-893 382.194,-946.542 423.873,-905.623 528,-893 758.823,-865.019 865.108,-925.664 1036,-768 1055.82,-749.716 1074.6,-667.307 1080.83,-637.664"/>
<polygon fill="midnightblue" stroke="midnightblue" points="237.354,-827.503 226.926,-825.631 233.911,-833.598 237.354,-827.503"/>
</g>
<!-- Node21&#45;&gt;Node24 -->
<g id="edge70" class="edge"><title>Node21&#45;&gt;Node24</title>
<path fill="none" stroke="#9a32cd" stroke-dasharray="5,2" d="M260.463,-802.143C270.934,-799.746 281.799,-797.279 292,-795 339.047,-784.488 352.104,-786.748 398,-772 416.256,-766.134 436.166,-757.382 450.73,-750.512"/>
<polygon fill="#9a32cd" stroke="#9a32cd" points="259.544,-798.763 250.58,-804.411 261.11,-805.585 259.544,-798.763"/>
<text text-anchor="middle" x="345" y="-799" font-family="Helvetica,sans-Serif" font-size="10.00"> m_Observer</text>
</g>
<!-- Node22 -->
<g id="node45" class="node"><title>Node22</title>
<polygon fill="white" stroke="#bfbfbf" points="155.5,-869.5 155.5,-890.5 254.5,-890.5 254.5,-869.5 155.5,-869.5"/>
<text text-anchor="middle" x="205" y="-877.5" font-family="Helvetica,sans-Serif" font-size="10.00">QSocketNotifier *</text>
</g>
<!-- Node22&#45;&gt;Node2 -->
<g id="edge48" class="edge"><title>Node22&#45;&gt;Node2</title>
<path fill="none" stroke="#9a32cd" stroke-dasharray="5,2" d="M237.003,-894.905C261.187,-906.137 290.486,-919.669 292,-920 338.022,-930.073 350.89,-920.362 398,-920 609.11,-918.376 665.976,-935.092 872,-889 947.892,-872.021 984.593,-886.353 1036,-828 1061.7,-798.824 1077.6,-674.688 1081.85,-637.542"/>
<polygon fill="#9a32cd" stroke="#9a32cd" points="238.264,-891.631 227.72,-890.589 235.313,-897.979 238.264,-891.631"/>
<text text-anchor="middle" x="613" y="-938" font-family="Helvetica,sans-Serif" font-size="10.00"> m_nyxProxNotifier</text>
<text text-anchor="middle" x="613" y="-925" font-family="Helvetica,sans-Serif" font-size="10.00">m_nyxLightNotifier</text>
</g>
<!-- Node22&#45;&gt;Node24 -->
<g id="edge58" class="edge"><title>Node22&#45;&gt;Node24</title>
<path fill="none" stroke="#9a32cd" stroke-dasharray="5,2" d="M229.022,-863.871C245.977,-853.15 269.578,-839.524 292,-831 337.061,-813.869 355.205,-830.194 398,-808 425.88,-793.541 451.138,-765.797 463.678,-750.598"/>
<polygon fill="#9a32cd" stroke="#9a32cd" points="226.84,-861.114 220.336,-869.478 230.636,-866.995 226.84,-861.114"/>
<text text-anchor="middle" x="345" y="-835" font-family="Helvetica,sans-Serif" font-size="10.00"> m_NYXSensorNotifier</text>
</g>
<!-- Node23 -->
<g id="node47" class="node"><title>Node23</title>
<a xlink:href="classNYXOrientationSensorConnector.htm" target="_top" xlink:title="NYXOrientationSensorConnector">
<polygon fill="white" stroke="black" points="698.5,-775.5 698.5,-796.5 871.5,-796.5 871.5,-775.5 698.5,-775.5"/>
<text text-anchor="middle" x="785" y="-783.5" font-family="Helvetica,sans-Serif" font-size="10.00">NYXOrientationSensorConnector</text>
</a>
</g>
<!-- Node23&#45;&gt;Node2 -->
<g id="edge50" class="edge"><title>Node23&#45;&gt;Node2</title>
<path fill="none" stroke="#9a32cd" stroke-dasharray="5,2" d="M831.71,-772.445C884.492,-755.703 971.446,-723.722 1036,-678 1052.11,-666.587 1066.87,-648.866 1075.4,-637.604"/>
<polygon fill="#9a32cd" stroke="#9a32cd" points="830.45,-769.172 821.946,-775.492 832.535,-775.854 830.45,-769.172"/>
<text text-anchor="middle" x="963" y="-755" font-family="Helvetica,sans-Serif" font-size="10.00"> m_OrientationSensor</text>
</g>
<!-- Node24&#45;&gt;Node23 -->
<g id="edge52" class="edge"><title>Node24&#45;&gt;Node23</title>
<path fill="none" stroke="midnightblue" d="M537.604,-749.642C589.032,-757.2 660.504,-767.703 713.408,-775.479"/>
<polygon fill="midnightblue" stroke="midnightblue" points="538,-746.162 527.597,-748.171 536.982,-753.088 538,-746.162"/>
</g>
<!-- Node25 -->
<g id="node52" class="node"><title>Node25</title>
<polygon fill="white" stroke="#bfbfbf" points="158.5,-673.5 158.5,-694.5 251.5,-694.5 251.5,-673.5 158.5,-673.5"/>
<text text-anchor="middle" x="205" y="-681.5" font-family="Helvetica,sans-Serif" font-size="10.00">nyx_device_id_t</text>
</g>
<!-- Node25&#45;&gt;Node24 -->
<g id="edge56" class="edge"><title>Node25&#45;&gt;Node24</title>
<path fill="none" stroke="#9a32cd" stroke-dasharray="5,2" d="M261.702,-683.144C300.75,-683.961 353.423,-687.87 398,-701 419.453,-707.319 441.874,-720.149 456.336,-729.369"/>
<polygon fill="#9a32cd" stroke="#9a32cd" points="261.627,-679.642 251.576,-682.994 261.523,-686.641 261.627,-679.642"/>
<text text-anchor="middle" x="345" y="-705" font-family="Helvetica,sans-Serif" font-size="10.00"> m_NYXDeviceId</text>
</g>
<!-- Node26 -->
<g id="node56" class="node"><title>Node26</title>
<polygon fill="white" stroke="#bfbfbf" points="180,-633.5 180,-654.5 230,-654.5 230,-633.5 180,-633.5"/>
<text text-anchor="middle" x="205" y="-641.5" font-family="Helvetica,sans-Serif" font-size="10.00">Sensor</text>
</g>
<!-- Node26&#45;&gt;Node24 -->
<g id="edge62" class="edge"><title>Node26&#45;&gt;Node24</title>
<path fill="none" stroke="#9a32cd" stroke-dasharray="5,2" d="M240.299,-641.546C280.507,-640.217 347.202,-642.549 398,-667 413.448,-674.436 446.728,-711.045 462.861,-729.428"/>
<polygon fill="#9a32cd" stroke="#9a32cd" points="240.027,-638.055 230.185,-641.978 240.325,-645.048 240.027,-638.055"/>
<text text-anchor="middle" x="345" y="-671" font-family="Helvetica,sans-Serif" font-size="10.00"> m_SensorType</text>
</g>
<!-- Node27 -->
<g id="node59" class="node"><title>Node27</title>
<polygon fill="white" stroke="#bfbfbf" points="146.5,-753.5 146.5,-774.5 263.5,-774.5 263.5,-753.5 146.5,-753.5"/>
<text text-anchor="middle" x="205" y="-761.5" font-family="Helvetica,sans-Serif" font-size="10.00">nyx_device_handle_t</text>
</g>
<!-- Node27&#45;&gt;Node24 -->
<g id="edge66" class="edge"><title>Node27&#45;&gt;Node24</title>
<path fill="none" stroke="#9a32cd" stroke-dasharray="5,2" d="M273.7,-757.825C317.98,-753.844 374.818,-748.735 416.282,-745.008"/>
<polygon fill="#9a32cd" stroke="#9a32cd" points="273.241,-754.352 263.594,-758.733 273.868,-761.324 273.241,-754.352"/>
<text text-anchor="middle" x="345" y="-759" font-family="Helvetica,sans-Serif" font-size="10.00"> m_Handle</text>
</g>
<!-- Node28 -->
<g id="node61" class="node"><title>Node28</title>
<polygon fill="white" stroke="#bfbfbf" points="152.5,-713.5 152.5,-734.5 257.5,-734.5 257.5,-713.5 152.5,-713.5"/>
<text text-anchor="middle" x="205" y="-721.5" font-family="Helvetica,sans-Serif" font-size="10.00">nyx_device_type_t</text>
</g>
<!-- Node28&#45;&gt;Node24 -->
<g id="edge68" class="edge"><title>Node28&#45;&gt;Node24</title>
<path fill="none" stroke="#9a32cd" stroke-dasharray="5,2" d="M267.961,-719.938C305.778,-718.426 354.785,-718.1 398,-723 409.657,-724.322 422.153,-726.779 433.495,-729.423"/>
<polygon fill="#9a32cd" stroke="#9a32cd" points="267.442,-716.457 257.605,-720.393 267.749,-723.451 267.442,-716.457"/>
<text text-anchor="middle" x="345" y="-727" font-family="Helvetica,sans-Serif" font-size="10.00"> m_NYXDeviceType</text>
</g>
<!-- Node29 -->
<g id="node66" class="node"><title>Node29</title>
<a xlink:href="classLedControl.htm" target="_top" xlink:title="LedControl">
<polygon fill="white" stroke="black" points="750.5,-361.5 750.5,-382.5 819.5,-382.5 819.5,-361.5 750.5,-361.5"/>
<text text-anchor="middle" x="785" y="-369.5" font-family="Helvetica,sans-Serif" font-size="10.00">LedControl</text>
</a>
</g>
<!-- Node29&#45;&gt;Node2 -->
<g id="edge76" class="edge"><title>Node29&#45;&gt;Node2</title>
<path fill="none" stroke="#9a32cd" stroke-dasharray="5,2" d="M829.791,-365.625C893.473,-357.626 1005.82,-347.794 1036,-373 1074.2,-404.912 1081.49,-572.488 1082.75,-616.438"/>
<polygon fill="#9a32cd" stroke="#9a32cd" points="829.099,-362.185 819.63,-366.937 829.996,-369.127 829.099,-362.185"/>
<text text-anchor="start" x="892" y="-390" font-family="Helvetica,sans-Serif" font-size="10.00"> m_nyxLedControlKeypadAnd</text>
<text text-anchor="middle" x="963" y="-377" font-family="Helvetica,sans-Serif" font-size="10.00">Display</text>
</g>
<!-- Node30 -->
<g id="node68" class="node"><title>Node30</title>
<polygon fill="white" stroke="#bfbfbf" points="749.5,-321.5 749.5,-342.5 820.5,-342.5 820.5,-321.5 749.5,-321.5"/>
<text text-anchor="middle" x="785" y="-329.5" font-family="Helvetica,sans-Serif" font-size="10.00">LSHandle *</text>
</g>
<!-- Node30&#45;&gt;Node2 -->
<g id="edge78" class="edge"><title>Node30&#45;&gt;Node2</title>
<path fill="none" stroke="#9a32cd" stroke-dasharray="5,2" d="M830.948,-326.603C894.986,-320.168 1006.54,-313.246 1036,-339 1057.45,-357.757 1077.5,-566.016 1082.04,-616.179"/>
<polygon fill="#9a32cd" stroke="#9a32cd" points="830.301,-323.152 820.717,-327.668 831.026,-330.114 830.301,-323.152"/>
<text text-anchor="middle" x="963" y="-343" font-family="Helvetica,sans-Serif" font-size="10.00"> m_service</text>
</g>
<!-- Node31 -->
<g id="node71" class="node"><title>Node31</title>
<a xlink:href="classInputControl.htm" target="_top" xlink:title="InputControl">
<polygon fill="white" stroke="black" points="748,-222.5 748,-243.5 822,-243.5 822,-222.5 748,-222.5"/>
<text text-anchor="middle" x="785" y="-230.5" font-family="Helvetica,sans-Serif" font-size="10.00">InputControl</text>
</a>
</g>
<!-- Node31&#45;&gt;Node2 -->
<g id="edge82" class="edge"><title>Node31&#45;&gt;Node2</title>
<path fill="none" stroke="#9a32cd" stroke-dasharray="5,2" d="M824.749,-219.597C879.671,-203.857 978.484,-185.983 1036,-238 1064.95,-264.18 1079.77,-556.053 1082.52,-616.2"/>
<polygon fill="#9a32cd" stroke="#9a32cd" points="823.609,-216.285 815.024,-222.494 825.607,-222.993 823.609,-216.285"/>
<text text-anchor="start" x="890.5" y="-307" font-family="Helvetica,sans-Serif" font-size="10.00"> m_nyxInputControlBluetooth</text>
<text text-anchor="middle" x="963" y="-294" font-family="Helvetica,sans-Serif" font-size="10.00">InputDetect</text>
<text text-anchor="middle" x="963" y="-281" font-family="Helvetica,sans-Serif" font-size="10.00">m_nyxInputControlALS</text>
<text text-anchor="middle" x="963" y="-268" font-family="Helvetica,sans-Serif" font-size="10.00">m_nyxInputControlKeys</text>
<text text-anchor="middle" x="963" y="-255" font-family="Helvetica,sans-Serif" font-size="10.00">m_nyxInputControlProx</text>
<text text-anchor="middle" x="963" y="-242" font-family="Helvetica,sans-Serif" font-size="10.00">m_nyxInputControlTouchpanel</text>
</g>
</g>
</svg>
