<?xml version="1.0" encoding="UTF-8" standalone="no"?>
<!DOCTYPE svg PUBLIC "-//W3C//DTD SVG 1.1//EN"
 "http://www.w3.org/Graphics/SVG/1.1/DTD/svg11.dtd">
<!-- Generated by graphviz version 2.26.3 (20100126.1600)
 -->
<!-- Title: HostArmOpal Pages: 1 -->
<svg width="252pt" height="262pt"
 viewBox="0.00 0.00 252.00 262.00" xmlns="http://www.w3.org/2000/svg" xmlns:xlink="http://www.w3.org/1999/xlink">
<g id="graph1" class="graph" transform="scale(1 1) rotate(0) translate(4 258)">
<title>HostArmOpal</title>
<polygon fill="white" stroke="white" points="-4,5 -4,-258 249,-258 249,5 -4,5"/>
<!-- Node1 -->
<g id="node1" class="node"><title>Node1</title>
<polygon fill="#bfbfbf" stroke="black" points="82,-0.5 82,-21.5 162,-21.5 162,-0.5 82,-0.5"/>
<text text-anchor="middle" x="122" y="-8.5" font-family="Helvetica,sans-Serif" font-size="10.00">HostArmOpal</text>
</g>
<!-- Node2 -->
<g id="node2" class="node"><title>Node2</title>
<a xlink:href="classHostArm.htm" target="_top" xlink:title="HostArm">
<polygon fill="white" stroke="black" points="93.5,-58.5 93.5,-79.5 150.5,-79.5 150.5,-58.5 93.5,-58.5"/>
<text text-anchor="middle" x="122" y="-66.5" font-family="Helvetica,sans-Serif" font-size="10.00">HostArm</text>
</a>
</g>
<!-- Node2&#45;&gt;Node1 -->
<g id="edge2" class="edge"><title>Node2&#45;&gt;Node1</title>
<path fill="none" stroke="midnightblue" d="M122,-48.1906C122,-39.1684 122,-28.9941 122,-21.5707"/>
<polygon fill="midnightblue" stroke="midnightblue" points="118.5,-48.3619 122,-58.3619 125.5,-48.3619 118.5,-48.3619"/>
</g>
<!-- Node3 -->
<g id="node4" class="node"><title>Node3</title>
<a xlink:href="classHostBase.htm" target="_top" xlink:title="HostBase">
<polygon fill="white" stroke="black" points="34,-116.5 34,-137.5 96,-137.5 96,-116.5 34,-116.5"/>
<text text-anchor="middle" x="65" y="-124.5" font-family="Helvetica,sans-Serif" font-size="10.00">HostBase</text>
</a>
</g>
<!-- Node3&#45;&gt;Node2 -->
<g id="edge4" class="edge"><title>Node3&#45;&gt;Node2</title>
<path fill="none" stroke="midnightblue" d="M82.5737,-109.118C92.087,-99.4377 103.514,-87.8098 111.612,-79.5707"/>
<polygon fill="midnightblue" stroke="midnightblue" points="79.9677,-106.776 75.4547,-116.362 84.9603,-111.683 79.9677,-106.776"/>
</g>
<!-- Node4 -->
<g id="node6" class="node"><title>Node4</title>
<a xlink:href="classQObject.htm" target="_top" xlink:title="QObject">
<polygon fill="white" stroke="black" points="-0.5,-174.5 -0.5,-195.5 54.5,-195.5 54.5,-174.5 -0.5,-174.5"/>
<text text-anchor="middle" x="27" y="-182.5" font-family="Helvetica,sans-Serif" font-size="10.00">QObject</text>
</a>
</g>
<!-- Node4&#45;&gt;Node3 -->
<g id="edge6" class="edge"><title>Node4&#45;&gt;Node3</title>
<path fill="none" stroke="midnightblue" d="M39.4751,-165.959C45.658,-156.522 52.8901,-145.484 58.0744,-137.571"/>
<polygon fill="midnightblue" stroke="midnightblue" points="36.5225,-164.079 33.9698,-174.362 42.3777,-167.915 36.5225,-164.079"/>
</g>
<!-- Node5 -->
<g id="node8" class="node"><title>Node5</title>
<a xlink:href="classTaskBase.htm" target="_top" xlink:title="TaskBase">
<polygon fill="white" stroke="black" points="72,-174.5 72,-195.5 136,-195.5 136,-174.5 72,-174.5"/>
<text text-anchor="middle" x="104" y="-182.5" font-family="Helvetica,sans-Serif" font-size="10.00">TaskBase</text>
</a>
</g>
<!-- Node5&#45;&gt;Node3 -->
<g id="edge8" class="edge"><title>Node5&#45;&gt;Node3</title>
<path fill="none" stroke="midnightblue" d="M91.1966,-165.959C84.851,-156.522 77.4286,-145.484 72.1079,-137.571"/>
<polygon fill="midnightblue" stroke="midnightblue" points="88.3623,-168.016 96.8468,-174.362 94.1712,-164.11 88.3623,-168.016"/>
</g>
<!-- Node6 -->
<g id="node10" class="node"><title>Node6</title>
<a xlink:href="classRefCounted.htm" target="_top" xlink:title="RefCounted">
<polygon fill="white" stroke="black" points="67.5,-232.5 67.5,-253.5 140.5,-253.5 140.5,-232.5 67.5,-232.5"/>
<text text-anchor="middle" x="104" y="-240.5" font-family="Helvetica,sans-Serif" font-size="10.00">RefCounted</text>
</a>
</g>
<!-- Node6&#45;&gt;Node5 -->
<g id="edge10" class="edge"><title>Node6&#45;&gt;Node5</title>
<path fill="none" stroke="midnightblue" d="M104,-222.191C104,-213.168 104,-202.994 104,-195.571"/>
<polygon fill="midnightblue" stroke="midnightblue" points="100.5,-222.362 104,-232.362 107.5,-222.362 100.5,-222.362"/>
</g>
<!-- Node7 -->
<g id="node12" class="node"><title>Node7</title>
<a xlink:href="classNYXConnectorObserver.htm" target="_top" xlink:title="NYXConnectorObserver">
<polygon fill="white" stroke="black" points="113.5,-116.5 113.5,-137.5 244.5,-137.5 244.5,-116.5 113.5,-116.5"/>
<text text-anchor="middle" x="179" y="-124.5" font-family="Helvetica,sans-Serif" font-size="10.00">NYXConnectorObserver</text>
</a>
</g>
<!-- Node7&#45;&gt;Node2 -->
<g id="edge12" class="edge"><title>Node7&#45;&gt;Node2</title>
<path fill="none" stroke="midnightblue" d="M161.426,-109.118C151.913,-99.4377 140.486,-87.8098 132.388,-79.5707"/>
<polygon fill="midnightblue" stroke="midnightblue" points="159.04,-111.683 168.545,-116.362 164.032,-106.776 159.04,-111.683"/>
</g>
</g>
</svg>
