<?xml version="1.0" encoding="UTF-8" standalone="no"?>
<!DOCTYPE svg PUBLIC "-//W3C//DTD SVG 1.1//EN"
 "http://www.w3.org/Graphics/SVG/1.1/DTD/svg11.dtd">
<!-- Generated by graphviz version 2.26.3 (20100126.1600)
 -->
<!-- Title: Settings Pages: 1 -->
<svg width="396pt" height="959pt"
 viewBox="0.00 0.00 396.00 958.75" xmlns="http://www.w3.org/2000/svg" xmlns:xlink="http://www.w3.org/1999/xlink">
<g id="graph1" class="graph" transform="scale(1 1) rotate(0) translate(4 954.751)">
<title>Settings</title>
<polygon fill="white" stroke="white" points="-4,5 -4,-954.751 393,-954.751 393,5 -4,5"/>
<!-- Node1 -->
<g id="node1" class="node"><title>Node1</title>
<polygon fill="#bfbfbf" stroke="black" points="332.5,-592.251 332.5,-613.251 387.5,-613.251 387.5,-592.251 332.5,-592.251"/>
<text text-anchor="middle" x="360" y="-600.251" font-family="Helvetica,sans-Serif" font-size="10.00">Settings</text>
</g>
<!-- Node2 -->
<g id="node2" class="node"><title>Node2</title>
<polygon fill="white" stroke="#bfbfbf" points="31.5,-882.251 31.5,-903.251 78.5,-903.251 78.5,-882.251 31.5,-882.251"/>
<text text-anchor="middle" x="55" y="-890.251" font-family="Helvetica,sans-Serif" font-size="10.00">double</text>
</g>
<!-- Node2&#45;&gt;Node1 -->
<g id="edge2" class="edge"><title>Node2&#45;&gt;Node1</title>
<path fill="none" stroke="#9a32cd" stroke-dasharray="5,2" d="M88.6261,-901.447C143.45,-913.409 252.169,-927.524 314,-870.751 352.685,-835.231 358.873,-659.006 359.83,-613.493"/>
<polygon fill="#9a32cd" stroke="#9a32cd" points="89.2534,-898.001 78.7246,-899.181 87.6916,-904.824 89.2534,-898.001"/>
<text text-anchor="middle" x="221" y="-941.751" font-family="Helvetica,sans-Serif" font-size="10.00"> cardGroupingXDistanceFactor</text>
<text text-anchor="middle" x="221" y="-928.751" font-family="Helvetica,sans-Serif" font-size="10.00">launcherSideSwipeThreshold</text>
<text text-anchor="middle" x="221" y="-915.751" font-family="Helvetica,sans-Serif" font-size="10.00">launcherIconReorderPositionThreshold</text>
</g>
<!-- Node3 -->
<g id="node4" class="node"><title>Node3</title>
<polygon fill="white" stroke="#bfbfbf" points="13.5,-842.251 13.5,-863.251 96.5,-863.251 96.5,-842.251 13.5,-842.251"/>
<text text-anchor="middle" x="55" y="-850.251" font-family="Helvetica,sans-Serif" font-size="10.00">unsigned char</text>
</g>
<!-- Node3&#45;&gt;Node1 -->
<g id="edge4" class="edge"><title>Node3&#45;&gt;Node1</title>
<path fill="none" stroke="#9a32cd" stroke-dasharray="5,2" d="M106.836,-855.407C173.556,-857.666 284.427,-857.122 314,-830.751 347.152,-801.188 357.296,-654.053 359.494,-613.256"/>
<polygon fill="#9a32cd" stroke="#9a32cd" points="106.65,-851.898 96.5267,-855.024 106.39,-858.893 106.65,-851.898"/>
<text text-anchor="middle" x="221" y="-859.751" font-family="Helvetica,sans-Serif" font-size="10.00"> dockModeNightBrightness</text>
</g>
<!-- Node4 -->
<g id="node6" class="node"><title>Node4</title>
<polygon fill="white" stroke="#bfbfbf" points="36.5,-782.251 36.5,-803.251 73.5,-803.251 73.5,-782.251 36.5,-782.251"/>
<text text-anchor="middle" x="55" y="-790.251" font-family="Helvetica,sans-Serif" font-size="10.00">float</text>
</g>
<!-- Node4&#45;&gt;Node1 -->
<g id="edge6" class="edge"><title>Node4&#45;&gt;Node1</title>
<path fill="none" stroke="#9a32cd" stroke-dasharray="5,2" d="M83.884,-791.783C147.742,-789.387 296.654,-782.29 314,-767.751 338.273,-747.407 353.999,-646.691 358.597,-613.431"/>
<polygon fill="#9a32cd" stroke="#9a32cd" points="83.5637,-788.292 73.6971,-792.153 83.8174,-795.288 83.5637,-788.292"/>
<text text-anchor="middle" x="221" y="-818.751" font-family="Helvetica,sans-Serif" font-size="10.00"> cardDimmPercentage</text>
<text text-anchor="start" x="147.5" y="-805.751" font-family="Helvetica,sans-Serif" font-size="10.00">maximumNegativeSpaceHeight</text>
<text text-anchor="middle" x="221" y="-792.751" font-family="Helvetica,sans-Serif" font-size="10.00">Ratio</text>
</g>
<!-- Node5 -->
<g id="node8" class="node"><title>Node5</title>
<polygon fill="white" stroke="#bfbfbf" points="0.5,-742.251 0.5,-763.251 109.5,-763.251 109.5,-742.251 0.5,-742.251"/>
<text text-anchor="middle" x="55" y="-750.251" font-family="Helvetica,sans-Serif" font-size="10.00">vector&lt; std::string &gt;</text>
</g>
<!-- Node5&#45;&gt;Node1 -->
<g id="edge8" class="edge"><title>Node5&#45;&gt;Node1</title>
<path fill="none" stroke="#9a32cd" stroke-dasharray="5,2" d="M119.849,-751.388C191.53,-749.313 298.924,-744.305 314,-732.751 333.667,-717.679 351.605,-641.984 357.751,-613.56"/>
<polygon fill="#9a32cd" stroke="#9a32cd" points="119.447,-747.897 109.548,-751.673 119.641,-754.895 119.447,-747.897"/>
<text text-anchor="middle" x="221" y="-754.751" font-family="Helvetica,sans-Serif" font-size="10.00"> lunaAppsPaths</text>
</g>
<!-- Node6 -->
<g id="node10" class="node"><title>Node6</title>
<polygon fill="white" stroke="#bfbfbf" points="34.5,-682.251 34.5,-703.251 75.5,-703.251 75.5,-682.251 34.5,-682.251"/>
<text text-anchor="middle" x="55" y="-690.251" font-family="Helvetica,sans-Serif" font-size="10.00">qreal</text>
</g>
<!-- Node6&#45;&gt;Node1 -->
<g id="edge10" class="edge"><title>Node6&#45;&gt;Node1</title>
<path fill="none" stroke="#9a32cd" stroke-dasharray="5,2" d="M85.8249,-693.393C145.899,-694.121 276.084,-692.987 314,-670.751 336.254,-657.701 350.034,-629.112 356.199,-613.481"/>
<polygon fill="#9a32cd" stroke="#9a32cd" points="85.8478,-689.893 75.7975,-693.245 85.745,-696.892 85.8478,-689.893"/>
<text text-anchor="middle" x="221" y="-722.751" font-family="Helvetica,sans-Serif" font-size="10.00"> ghostCardFinalRatio</text>
<text text-anchor="middle" x="221" y="-709.751" font-family="Helvetica,sans-Serif" font-size="10.00">activeCardWindowRatio</text>
<text text-anchor="middle" x="221" y="-696.751" font-family="Helvetica,sans-Serif" font-size="10.00">nonActiveCardWindowRatio</text>
</g>
<!-- Node7 -->
<g id="node12" class="node"><title>Node7</title>
<polygon fill="white" stroke="#bfbfbf" points="40.5,-503.251 40.5,-524.251 69.5,-524.251 69.5,-503.251 40.5,-503.251"/>
<text text-anchor="middle" x="55" y="-511.251" font-family="Helvetica,sans-Serif" font-size="10.00">int</text>
</g>
<!-- Node7&#45;&gt;Node1 -->
<g id="edge12" class="edge"><title>Node7&#45;&gt;Node1</title>
<path fill="none" stroke="#9a32cd" stroke-dasharray="5,2" d="M79.9018,-510.673C136.973,-504.115 275.283,-491.2 314,-514.751 342.278,-531.953 354.014,-572.852 358.115,-592.227"/>
<polygon fill="#9a32cd" stroke="#9a32cd" points="79.1446,-507.238 69.6243,-511.887 79.9658,-514.19 79.1446,-507.238"/>
<text text-anchor="middle" x="221" y="-661.751" font-family="Helvetica,sans-Serif" font-size="10.00"> cardGroupRotFactor</text>
<text text-anchor="middle" x="221" y="-648.751" font-family="Helvetica,sans-Serif" font-size="10.00">accelFastPollFreq</text>
<text text-anchor="middle" x="221" y="-635.751" font-family="Helvetica,sans-Serif" font-size="10.00">tapRadiusSquared</text>
<text text-anchor="middle" x="221" y="-622.751" font-family="Helvetica,sans-Serif" font-size="10.00">gestureAreaHeight</text>
<text text-anchor="middle" x="221" y="-609.751" font-family="Helvetica,sans-Serif" font-size="10.00">backlightDarkScale</text>
<text text-anchor="middle" x="221" y="-596.751" font-family="Helvetica,sans-Serif" font-size="10.00">v_accel_const1</text>
<text text-anchor="middle" x="221" y="-583.751" font-family="Helvetica,sans-Serif" font-size="10.00">h_accel_const1</text>
<text text-anchor="start" x="151.5" y="-570.751" font-family="Helvetica,sans-Serif" font-size="10.00">h_trackball_pixels</text>
<text text-anchor="middle" x="221" y="-557.751" font-family="Helvetica,sans-Serif" font-size="10.00">_per_move</text>
<text text-anchor="middle" x="221" y="-544.751" font-family="Helvetica,sans-Serif" font-size="10.00">tapDoubleClickDuration</text>
<text text-anchor="middle" x="221" y="-531.751" font-family="Helvetica,sans-Serif" font-size="10.00">positiveSpaceBottomPadding</text>
<text text-anchor="middle" x="221" y="-518.751" font-family="Helvetica,sans-Serif" font-size="10.00">...</text>
</g>
<!-- Node8 -->
<g id="node14" class="node"><title>Node8</title>
<polygon fill="white" stroke="#bfbfbf" points="37,-337.251 37,-358.251 73,-358.251 73,-337.251 37,-337.251"/>
<text text-anchor="middle" x="55" y="-345.251" font-family="Helvetica,sans-Serif" font-size="10.00">bool</text>
</g>
<!-- Node8&#45;&gt;Node1 -->
<g id="edge14" class="edge"><title>Node8&#45;&gt;Node1</title>
<path fill="none" stroke="#9a32cd" stroke-dasharray="5,2" d="M83.4894,-344.106C143.478,-337.098 280.077,-324.85 314,-353.751 351.06,-385.325 358.426,-548.67 359.738,-592.124"/>
<polygon fill="#9a32cd" stroke="#9a32cd" points="82.7315,-340.672 73.2218,-345.343 83.5686,-347.622 82.7315,-340.672"/>
<text text-anchor="middle" x="221" y="-487.751" font-family="Helvetica,sans-Serif" font-size="10.00"> enableTouchEventsForWebApps</text>
<text text-anchor="middle" x="221" y="-474.751" font-family="Helvetica,sans-Serif" font-size="10.00">showAppStats</text>
<text text-anchor="middle" x="221" y="-461.751" font-family="Helvetica,sans-Serif" font-size="10.00">debug_trackInputEvents</text>
<text text-anchor="middle" x="221" y="-448.751" font-family="Helvetica,sans-Serif" font-size="10.00">launcherUsesHwAA</text>
<text text-anchor="middle" x="221" y="-435.751" font-family="Helvetica,sans-Serif" font-size="10.00">debug_piranhaDrawColoredOutlines</text>
<text text-anchor="middle" x="221" y="-422.751" font-family="Helvetica,sans-Serif" font-size="10.00">perfTesting</text>
<text text-anchor="middle" x="221" y="-409.751" font-family="Helvetica,sans-Serif" font-size="10.00">allowTurboMode</text>
<text text-anchor="middle" x="221" y="-396.751" font-family="Helvetica,sans-Serif" font-size="10.00">scanCalculatesAppSizes</text>
<text text-anchor="middle" x="221" y="-383.751" font-family="Helvetica,sans-Serif" font-size="10.00">atlasEnabled</text>
<text text-anchor="middle" x="221" y="-370.751" font-family="Helvetica,sans-Serif" font-size="10.00">allowAllAppsInLowMemory</text>
<text text-anchor="middle" x="221" y="-357.751" font-family="Helvetica,sans-Serif" font-size="10.00">...</text>
</g>
<!-- Node9 -->
<g id="node16" class="node"><title>Node9</title>
<polygon fill="white" stroke="#bfbfbf" points="33.5,-173.251 33.5,-194.251 76.5,-194.251 76.5,-173.251 33.5,-173.251"/>
<text text-anchor="middle" x="55" y="-181.251" font-family="Helvetica,sans-Serif" font-size="10.00">string</text>
</g>
<!-- Node9&#45;&gt;Node1 -->
<g id="edge16" class="edge"><title>Node9&#45;&gt;Node1</title>
<path fill="none" stroke="#9a32cd" stroke-dasharray="5,2" d="M86.8351,-179.267C148.627,-171.337 281.604,-158.294 314,-187.751 344.906,-215.854 357.449,-529.792 359.642,-592.055"/>
<polygon fill="#9a32cd" stroke="#9a32cd" points="86.3153,-175.806 76.8589,-180.583 87.2307,-182.746 86.3153,-175.806"/>
<text text-anchor="middle" x="221" y="-321.751" font-family="Helvetica,sans-Serif" font-size="10.00"> dockModeUserPositions</text>
<text text-anchor="middle" x="221" y="-308.751" font-family="Helvetica,sans-Serif" font-size="10.00">quicklaunchDefaultPositions</text>
<text text-anchor="middle" x="221" y="-295.751" font-family="Helvetica,sans-Serif" font-size="10.00">lunaQmlUiComponentsPath</text>
<text text-anchor="middle" x="221" y="-282.751" font-family="Helvetica,sans-Serif" font-size="10.00">lunaAppsPath</text>
<text text-anchor="middle" x="221" y="-269.751" font-family="Helvetica,sans-Serif" font-size="10.00">fontActiveBanner</text>
<text text-anchor="middle" x="221" y="-256.751" font-family="Helvetica,sans-Serif" font-size="10.00">lunaSystemSoundScreenLock</text>
<text text-anchor="middle" x="221" y="-243.751" font-family="Helvetica,sans-Serif" font-size="10.00">lunaSystemSoundButtonUp</text>
<text text-anchor="middle" x="221" y="-230.751" font-family="Helvetica,sans-Serif" font-size="10.00">lunaSystemPath</text>
<text text-anchor="middle" x="221" y="-217.751" font-family="Helvetica,sans-Serif" font-size="10.00">serviceInstallRelative</text>
<text text-anchor="middle" x="221" y="-204.751" font-family="Helvetica,sans-Serif" font-size="10.00">fontDockMode</text>
<text text-anchor="middle" x="221" y="-191.751" font-family="Helvetica,sans-Serif" font-size="10.00">...</text>
</g>
<!-- Node10 -->
<g id="node18" class="node"><title>Node10</title>
<polygon fill="white" stroke="#bfbfbf" points="30,-133.251 30,-154.251 80,-154.251 80,-133.251 30,-133.251"/>
<text text-anchor="middle" x="55" y="-141.251" font-family="Helvetica,sans-Serif" font-size="10.00">UiType</text>
</g>
<!-- Node10&#45;&gt;Node1 -->
<g id="edge18" class="edge"><title>Node10&#45;&gt;Node1</title>
<path fill="none" stroke="#9a32cd" stroke-dasharray="5,2" d="M90.5799,-139.368C153.926,-132.422 282.573,-122.473 314,-151.751 347.328,-182.801 357.996,-526.501 359.732,-592.003"/>
<polygon fill="#9a32cd" stroke="#9a32cd" points="89.8156,-135.932 80.2729,-140.535 90.6033,-142.887 89.8156,-135.932"/>
<text text-anchor="middle" x="221" y="-155.751" font-family="Helvetica,sans-Serif" font-size="10.00"> uiType</text>
</g>
<!-- Node11 -->
<g id="node20" class="node"><title>Node11</title>
<polygon fill="white" stroke="#bfbfbf" points="8,-20.2513 8,-41.2513 102,-41.2513 102,-20.2513 8,-20.2513"/>
<text text-anchor="middle" x="55" y="-28.2513" font-family="Helvetica,sans-Serif" font-size="10.00">set&lt; std::string &gt;</text>
</g>
<!-- Node11&#45;&gt;Node1 -->
<g id="edge20" class="edge"><title>Node11&#45;&gt;Node1</title>
<path fill="none" stroke="#9a32cd" stroke-dasharray="5,2" d="M94.6331,-17.2522C151.329,-0.730346 255.214,18.724 314,-36.7513 355.946,-76.3346 359.643,-516.453 359.969,-591.807"/>
<polygon fill="#9a32cd" stroke="#9a32cd" points="93.5101,-13.9351 84.951,-20.1796 95.536,-20.6356 93.5101,-13.9351"/>
<text text-anchor="middle" x="221" y="-118.751" font-family="Helvetica,sans-Serif" font-size="10.00"> appsToLaunchAtBoot</text>
<text text-anchor="middle" x="221" y="-105.751" font-family="Helvetica,sans-Serif" font-size="10.00">appsToKeepAlive</text>
<text text-anchor="start" x="143.5" y="-92.7513" font-family="Helvetica,sans-Serif" font-size="10.00">appsToKeepAliveUntilMem</text>
<text text-anchor="middle" x="221" y="-79.7513" font-family="Helvetica,sans-Serif" font-size="10.00">Pressure</text>
<text text-anchor="middle" x="221" y="-66.7513" font-family="Helvetica,sans-Serif" font-size="10.00">appsToAllowInLowMemory</text>
<text text-anchor="middle" x="221" y="-53.7513" font-family="Helvetica,sans-Serif" font-size="10.00">sucApps</text>
<text text-anchor="middle" x="221" y="-40.7513" font-family="Helvetica,sans-Serif" font-size="10.00">appsToDisableAccelCompositing</text>
</g>
</g>
</svg>
