<?xml version="1.0" encoding="UTF-8" standalone="no"?>
<!DOCTYPE svg PUBLIC "-//W3C//DTD SVG 1.1//EN"
 "http://www.w3.org/Graphics/SVG/1.1/DTD/svg11.dtd">
<!-- Generated by graphviz version 2.26.3 (20100126.1600)
 -->
<!-- Title: HostArm Pages: 1 -->
<svg width="594pt" height="270pt"
 viewBox="0.00 0.00 594.00 270.00" xmlns="http://www.w3.org/2000/svg" xmlns:xlink="http://www.w3.org/1999/xlink">
<g id="graph1" class="graph" transform="scale(1 1) rotate(0) translate(4 266)">
<title>HostArm</title>
<polygon fill="white" stroke="white" points="-4,5 -4,-266 591,-266 591,5 -4,5"/>
<!-- Node1 -->
<g id="node1" class="node"><title>Node1</title>
<polygon fill="#bfbfbf" stroke="black" points="378.5,-120.5 378.5,-141.5 435.5,-141.5 435.5,-120.5 378.5,-120.5"/>
<text text-anchor="middle" x="407" y="-128.5" font-family="Helvetica,sans-Serif" font-size="10.00">HostArm</text>
</g>
<!-- Node7 -->
<g id="node13" class="node"><title>Node7</title>
<a xlink:href="classHostArmBroadway.htm" target="_top" xlink:title="HostArmBroadway">
<polygon fill="white" stroke="black" points="477,-240.5 477,-261.5 581,-261.5 581,-240.5 477,-240.5"/>
<text text-anchor="middle" x="529" y="-248.5" font-family="Helvetica,sans-Serif" font-size="10.00">HostArmBroadway</text>
</a>
</g>
<!-- Node1&#45;&gt;Node7 -->
<g id="edge12" class="edge"><title>Node1&#45;&gt;Node7</title>
<path fill="none" stroke="midnightblue" d="M415.18,-150.961C425.348,-173.432 444.749,-209.59 472,-231 476.865,-234.823 482.516,-237.946 488.331,-240.488"/>
<polygon fill="midnightblue" stroke="midnightblue" points="418.354,-149.483 411.163,-141.702 411.932,-152.269 418.354,-149.483"/>
</g>
<!-- Node8 -->
<g id="node15" class="node"><title>Node8</title>
<a xlink:href="classHostArmMantaray.htm" target="_top" xlink:title="HostArmMantaray">
<polygon fill="white" stroke="black" points="478,-200.5 478,-221.5 580,-221.5 580,-200.5 478,-200.5"/>
<text text-anchor="middle" x="529" y="-208.5" font-family="Helvetica,sans-Serif" font-size="10.00">HostArmMantaray</text>
</a>
</g>
<!-- Node1&#45;&gt;Node8 -->
<g id="edge14" class="edge"><title>Node1&#45;&gt;Node8</title>
<path fill="none" stroke="midnightblue" d="M422.958,-149.29C435.246,-162.423 453.254,-179.726 472,-191 478.111,-194.675 484.998,-197.809 491.816,-200.43"/>
<polygon fill="midnightblue" stroke="midnightblue" points="425.41,-146.784 416.091,-141.743 420.232,-151.495 425.41,-146.784"/>
</g>
<!-- Node9 -->
<g id="node17" class="node"><title>Node9</title>
<a xlink:href="classHostArmOpal.htm" target="_top" xlink:title="HostArmOpal">
<polygon fill="white" stroke="black" points="489,-160.5 489,-181.5 569,-181.5 569,-160.5 489,-160.5"/>
<text text-anchor="middle" x="529" y="-168.5" font-family="Helvetica,sans-Serif" font-size="10.00">HostArmOpal</text>
</a>
</g>
<!-- Node1&#45;&gt;Node9 -->
<g id="edge16" class="edge"><title>Node1&#45;&gt;Node9</title>
<path fill="none" stroke="midnightblue" d="M445.479,-143.616C461.954,-149.018 480.977,-155.255 496.704,-160.411"/>
<polygon fill="midnightblue" stroke="midnightblue" points="446.196,-140.168 435.604,-140.378 444.015,-146.82 446.196,-140.168"/>
</g>
<!-- Node10 -->
<g id="node19" class="node"><title>Node10</title>
<a xlink:href="classHostArmQemu.htm" target="_top" xlink:title="HostArmQemu">
<polygon fill="white" stroke="black" points="486.5,-120.5 486.5,-141.5 571.5,-141.5 571.5,-120.5 486.5,-120.5"/>
<text text-anchor="middle" x="529" y="-128.5" font-family="Helvetica,sans-Serif" font-size="10.00">HostArmQemu</text>
</a>
</g>
<!-- Node1&#45;&gt;Node10 -->
<g id="edge18" class="edge"><title>Node1&#45;&gt;Node10</title>
<path fill="none" stroke="midnightblue" d="M445.968,-131C458.799,-131 473.132,-131 486.23,-131"/>
<polygon fill="midnightblue" stroke="midnightblue" points="445.604,-127.5 435.604,-131 445.604,-134.5 445.604,-127.5"/>
</g>
<!-- Node11 -->
<g id="node21" class="node"><title>Node11</title>
<a xlink:href="classHostArmTopaz.htm" target="_top" xlink:title="HostArmTopaz">
<polygon fill="white" stroke="black" points="485.5,-80.5 485.5,-101.5 572.5,-101.5 572.5,-80.5 485.5,-80.5"/>
<text text-anchor="middle" x="529" y="-88.5" font-family="Helvetica,sans-Serif" font-size="10.00">HostArmTopaz</text>
</a>
</g>
<!-- Node1&#45;&gt;Node11 -->
<g id="edge20" class="edge"><title>Node1&#45;&gt;Node11</title>
<path fill="none" stroke="midnightblue" d="M445.479,-118.384C461.954,-112.982 480.977,-106.745 496.704,-101.589"/>
<polygon fill="midnightblue" stroke="midnightblue" points="444.015,-115.18 435.604,-121.622 446.196,-121.832 444.015,-115.18"/>
</g>
<!-- Node12 -->
<g id="node23" class="node"><title>Node12</title>
<a xlink:href="classHostArmUnknown.htm" target="_top" xlink:title="HostArmUnknown">
<polygon fill="white" stroke="black" points="478.5,-40.5 478.5,-61.5 579.5,-61.5 579.5,-40.5 478.5,-40.5"/>
<text text-anchor="middle" x="529" y="-48.5" font-family="Helvetica,sans-Serif" font-size="10.00">HostArmUnknown</text>
</a>
</g>
<!-- Node1&#45;&gt;Node12 -->
<g id="edge22" class="edge"><title>Node1&#45;&gt;Node12</title>
<path fill="none" stroke="midnightblue" d="M422.958,-112.71C435.246,-99.5766 453.254,-82.2736 472,-71 478.111,-67.3247 484.998,-64.1908 491.816,-61.5699"/>
<polygon fill="midnightblue" stroke="midnightblue" points="420.232,-110.505 416.091,-120.257 425.41,-115.216 420.232,-110.505"/>
</g>
<!-- Node13 -->
<g id="node25" class="node"><title>Node13</title>
<a xlink:href="classHostArmWindsorNot.htm" target="_top" xlink:title="HostArmWindsorNot">
<polygon fill="white" stroke="black" points="472.5,-0.5 472.5,-21.5 585.5,-21.5 585.5,-0.5 472.5,-0.5"/>
<text text-anchor="middle" x="529" y="-8.5" font-family="Helvetica,sans-Serif" font-size="10.00">HostArmWindsorNot</text>
</a>
</g>
<!-- Node1&#45;&gt;Node13 -->
<g id="edge24" class="edge"><title>Node1&#45;&gt;Node13</title>
<path fill="none" stroke="midnightblue" d="M415.18,-111.039C425.348,-88.5679 444.749,-52.4102 472,-31 476.865,-27.1774 482.516,-24.0544 488.331,-21.5117"/>
<polygon fill="midnightblue" stroke="midnightblue" points="411.932,-109.731 411.163,-120.298 418.354,-112.517 411.932,-109.731"/>
</g>
<!-- Node2 -->
<g id="node2" class="node"><title>Node2</title>
<a xlink:href="classHostBase.htm" target="_top" xlink:title="HostBase">
<polygon fill="white" stroke="black" points="245,-140.5 245,-161.5 307,-161.5 307,-140.5 245,-140.5"/>
<text text-anchor="middle" x="276" y="-148.5" font-family="Helvetica,sans-Serif" font-size="10.00">HostBase</text>
</a>
</g>
<!-- Node2&#45;&gt;Node1 -->
<g id="edge2" class="edge"><title>Node2&#45;&gt;Node1</title>
<path fill="none" stroke="midnightblue" d="M317.097,-144.726C337.024,-141.683 360.466,-138.104 378.416,-135.364"/>
<polygon fill="midnightblue" stroke="midnightblue" points="316.402,-141.291 307.045,-146.26 317.459,-148.211 316.402,-141.291"/>
</g>
<!-- Node3 -->
<g id="node4" class="node"><title>Node3</title>
<a xlink:href="classQObject.htm" target="_top" xlink:title="QObject">
<polygon fill="white" stroke="black" points="114.5,-160.5 114.5,-181.5 169.5,-181.5 169.5,-160.5 114.5,-160.5"/>
<text text-anchor="middle" x="142" y="-168.5" font-family="Helvetica,sans-Serif" font-size="10.00">QObject</text>
</a>
</g>
<!-- Node3&#45;&gt;Node2 -->
<g id="edge4" class="edge"><title>Node3&#45;&gt;Node2</title>
<path fill="none" stroke="midnightblue" d="M179.764,-165.364C200.365,-162.289 225.553,-158.529 244.992,-155.628"/>
<polygon fill="midnightblue" stroke="midnightblue" points="179.139,-161.918 169.765,-166.856 180.172,-168.841 179.139,-161.918"/>
</g>
<!-- Node4 -->
<g id="node6" class="node"><title>Node4</title>
<a xlink:href="classTaskBase.htm" target="_top" xlink:title="TaskBase">
<polygon fill="white" stroke="black" points="110,-120.5 110,-141.5 174,-141.5 174,-120.5 110,-120.5"/>
<text text-anchor="middle" x="142" y="-128.5" font-family="Helvetica,sans-Serif" font-size="10.00">TaskBase</text>
</a>
</g>
<!-- Node4&#45;&gt;Node2 -->
<g id="edge6" class="edge"><title>Node4&#45;&gt;Node2</title>
<path fill="none" stroke="midnightblue" d="M184.004,-137.269C203.614,-140.196 226.558,-143.621 244.628,-146.318"/>
<polygon fill="midnightblue" stroke="midnightblue" points="184.503,-133.805 174.096,-135.79 183.47,-140.728 184.503,-133.805"/>
</g>
<!-- Node5 -->
<g id="node8" class="node"><title>Node5</title>
<a xlink:href="classRefCounted.htm" target="_top" xlink:title="RefCounted">
<polygon fill="white" stroke="black" points="0.5,-120.5 0.5,-141.5 73.5,-141.5 73.5,-120.5 0.5,-120.5"/>
<text text-anchor="middle" x="37" y="-128.5" font-family="Helvetica,sans-Serif" font-size="10.00">RefCounted</text>
</a>
</g>
<!-- Node5&#45;&gt;Node4 -->
<g id="edge8" class="edge"><title>Node5&#45;&gt;Node4</title>
<path fill="none" stroke="midnightblue" d="M83.8188,-131C92.5513,-131 101.496,-131 109.671,-131"/>
<polygon fill="midnightblue" stroke="midnightblue" points="83.7239,-127.5 73.7239,-131 83.7239,-134.5 83.7239,-127.5"/>
</g>
<!-- Node6 -->
<g id="node10" class="node"><title>Node6</title>
<a xlink:href="classNYXConnectorObserver.htm" target="_top" xlink:title="NYXConnectorObserver">
<polygon fill="white" stroke="black" points="210.5,-100.5 210.5,-121.5 341.5,-121.5 341.5,-100.5 210.5,-100.5"/>
<text text-anchor="middle" x="276" y="-108.5" font-family="Helvetica,sans-Serif" font-size="10.00">NYXConnectorObserver</text>
</a>
</g>
<!-- Node6&#45;&gt;Node1 -->
<g id="edge10" class="edge"><title>Node6&#45;&gt;Node1</title>
<path fill="none" stroke="midnightblue" d="M351.8,-122.573C361.247,-124.015 370.4,-125.412 378.447,-126.641"/>
<polygon fill="midnightblue" stroke="midnightblue" points="352.298,-119.108 341.884,-121.059 351.241,-126.028 352.298,-119.108"/>
</g>
</g>
</svg>
