<?xml version="1.0" encoding="UTF-8" standalone="no"?>
<!DOCTYPE svg PUBLIC "-//W3C//DTD SVG 1.1//EN"
 "http://www.w3.org/Graphics/SVG/1.1/DTD/svg11.dtd">
<!-- Generated by graphviz version 2.26.3 (20100126.1600)
 -->
<!-- Title: Signal&lt; Arg0, void, void, void, void &gt; Pages: 1 -->
<svg width="118pt" height="160pt"
 viewBox="0.00 0.00 118.00 160.00" xmlns="http://www.w3.org/2000/svg" xmlns:xlink="http://www.w3.org/1999/xlink">
<g id="graph1" class="graph" transform="scale(1 1) rotate(0) translate(4 156)">
<title>Signal&lt; Arg0, void, void, void, void &gt;</title>
<polygon fill="white" stroke="white" points="-4,5 -4,-156 115,-156 115,5 -4,5"/>
<!-- Node1 -->
<g id="node1" class="node"><title>Node1</title>
<polygon fill="#bfbfbf" stroke="black" points="3,-1 3,-35 107,-35 107,-1 3,-1"/>
<text text-anchor="start" x="11" y="-22" font-family="Helvetica,sans-Serif" font-size="10.00">Signal&lt; Arg0, void,</text>
<text text-anchor="middle" x="55" y="-9" font-family="Helvetica,sans-Serif" font-size="10.00"> void, void, void &gt;</text>
</g>
<!-- Node2 -->
<g id="node2" class="node"><title>Node2</title>
<a xlink:href="classSignalBase.htm" target="_top" xlink:title="SignalBase\&lt; Arg0 \&gt;">
<polygon fill="white" stroke="black" points="0,-72.5 0,-93.5 110,-93.5 110,-72.5 0,-72.5"/>
<text text-anchor="middle" x="55" y="-80.5" font-family="Helvetica,sans-Serif" font-size="10.00">SignalBase&lt; Arg0 &gt;</text>
</a>
</g>
<!-- Node2&#45;&gt;Node1 -->
<g id="edge2" class="edge"><title>Node2&#45;&gt;Node1</title>
<path fill="none" stroke="midnightblue" d="M55,-62.1306C55,-53.4049 55,-43.3908 55,-35.1099"/>
<polygon fill="midnightblue" stroke="midnightblue" points="51.5001,-62.2665 55,-72.2666 58.5001,-62.2666 51.5001,-62.2665"/>
</g>
<!-- Node3 -->
<g id="node4" class="node"><title>Node3</title>
<a xlink:href="classSender.htm" target="_top" xlink:title="Sender">
<polygon fill="white" stroke="black" points="29.5,-130.5 29.5,-151.5 80.5,-151.5 80.5,-130.5 29.5,-130.5"/>
<text text-anchor="middle" x="55" y="-138.5" font-family="Helvetica,sans-Serif" font-size="10.00">Sender</text>
</a>
</g>
<!-- Node3&#45;&gt;Node2 -->
<g id="edge4" class="edge"><title>Node3&#45;&gt;Node2</title>
<path fill="none" stroke="midnightblue" d="M55,-120.191C55,-111.168 55,-100.994 55,-93.5707"/>
<polygon fill="midnightblue" stroke="midnightblue" points="51.5001,-120.362 55,-130.362 58.5001,-120.362 51.5001,-120.362"/>
</g>
</g>
</svg>
