<?xml version="1.0" encoding="UTF-8" standalone="no"?>
<!DOCTYPE svg PUBLIC "-//W3C//DTD SVG 1.1//EN"
 "http://www.w3.org/Graphics/SVG/1.1/DTD/svg11.dtd">
<!-- Generated by graphviz version 2.26.3 (20100126.1600)
 -->
<!-- Title: QEvent Pages: 1 -->
<svg width="228pt" height="510pt"
 viewBox="0.00 0.00 228.00 510.00" xmlns="http://www.w3.org/2000/svg" xmlns:xlink="http://www.w3.org/1999/xlink">
<g id="graph1" class="graph" transform="scale(1 1) rotate(0) translate(4 506)">
<title>QEvent</title>
<polygon fill="white" stroke="white" points="-4,5 -4,-506 225,-506 225,5 -4,5"/>
<!-- Node1 -->
<g id="node1" class="node"><title>Node1</title>
<polygon fill="#bfbfbf" stroke="black" points="0,-240.5 0,-261.5 52,-261.5 52,-240.5 0,-240.5"/>
<text text-anchor="middle" x="26" y="-248.5" font-family="Helvetica,sans-Serif" font-size="10.00">QEvent</text>
</g>
<!-- Node2 -->
<g id="node3" class="node"><title>Node2</title>
<a xlink:href="classAccelerationEvent.htm" target="_top" xlink:title="AccelerationEvent">
<polygon fill="white" stroke="black" points="103,-480.5 103,-501.5 205,-501.5 205,-480.5 103,-480.5"/>
<text text-anchor="middle" x="154" y="-488.5" font-family="Helvetica,sans-Serif" font-size="10.00">AccelerationEvent</text>
</a>
</g>
<!-- Node1&#45;&gt;Node2 -->
<g id="edge2" class="edge"><title>Node1&#45;&gt;Node2</title>
<path fill="none" stroke="midnightblue" d="M29.225,-271.561C37.2991,-320.549 59.775,-442.218 88,-471 92.1915,-475.274 97.2634,-478.642 102.712,-481.294"/>
<polygon fill="midnightblue" stroke="midnightblue" points="32.6523,-270.829 27.6045,-261.514 25.7417,-271.944 32.6523,-270.829"/>
</g>
<!-- Node3 -->
<g id="node5" class="node"><title>Node3</title>
<a xlink:href="classAccelerometerEvent.htm" target="_top" xlink:title="AccelerometerEvent">
<polygon fill="white" stroke="black" points="98,-440.5 98,-461.5 210,-461.5 210,-440.5 98,-440.5"/>
<text text-anchor="middle" x="154" y="-448.5" font-family="Helvetica,sans-Serif" font-size="10.00">AccelerometerEvent</text>
</a>
</g>
<!-- Node1&#45;&gt;Node3 -->
<g id="edge4" class="edge"><title>Node1&#45;&gt;Node3</title>
<path fill="none" stroke="midnightblue" d="M27.2029,-271.852C30.4861,-309.128 42.696,-387.363 88,-431 91.9667,-434.821 96.6389,-437.914 101.635,-440.418"/>
<polygon fill="midnightblue" stroke="midnightblue" points="30.6786,-271.394 26.4439,-261.683 23.698,-271.915 30.6786,-271.394"/>
</g>
<!-- Node4 -->
<g id="node7" class="node"><title>Node4</title>
<a xlink:href="classAlsEvent.htm" target="_top" xlink:title="AlsEvent">
<polygon fill="white" stroke="black" points="125,-400.5 125,-421.5 183,-421.5 183,-400.5 125,-400.5"/>
<text text-anchor="middle" x="154" y="-408.5" font-family="Helvetica,sans-Serif" font-size="10.00">AlsEvent</text>
</a>
</g>
<!-- Node1&#45;&gt;Node4 -->
<g id="edge6" class="edge"><title>Node1&#45;&gt;Node4</title>
<path fill="none" stroke="midnightblue" d="M29.494,-271.454C35.7658,-301.908 51.82,-359.006 88,-391 98.1351,-399.962 112.182,-404.909 124.713,-407.64"/>
<polygon fill="midnightblue" stroke="midnightblue" points="32.9144,-270.705 27.6068,-261.536 26.0378,-272.014 32.9144,-270.705"/>
</g>
<!-- Node5 -->
<g id="node9" class="node"><title>Node5</title>
<a xlink:href="classAngularVelocityEvent.htm" target="_top" xlink:title="AngularVelocityEvent">
<polygon fill="white" stroke="black" points="96,-360.5 96,-381.5 212,-381.5 212,-360.5 96,-360.5"/>
<text text-anchor="middle" x="154" y="-368.5" font-family="Helvetica,sans-Serif" font-size="10.00">AngularVelocityEvent</text>
</a>
</g>
<!-- Node1&#45;&gt;Node5 -->
<g id="edge8" class="edge"><title>Node1&#45;&gt;Node5</title>
<path fill="none" stroke="midnightblue" d="M33.3813,-271.127C42.7019,-293.789 60.8696,-330.16 88,-351 92.9374,-354.793 98.5921,-357.87 104.469,-360.365"/>
<polygon fill="midnightblue" stroke="midnightblue" points="36.521,-269.545 29.6183,-261.507 30.002,-272.095 36.521,-269.545"/>
</g>
<!-- Node6 -->
<g id="node11" class="node"><title>Node6</title>
<a xlink:href="classBearingEvent.htm" target="_top" xlink:title="BearingEvent">
<polygon fill="white" stroke="black" points="114,-320.5 114,-341.5 194,-341.5 194,-320.5 114,-320.5"/>
<text text-anchor="middle" x="154" y="-328.5" font-family="Helvetica,sans-Serif" font-size="10.00">BearingEvent</text>
</a>
</g>
<!-- Node1&#45;&gt;Node6 -->
<g id="edge10" class="edge"><title>Node1&#45;&gt;Node6</title>
<path fill="none" stroke="midnightblue" d="M41.2491,-269.937C52.8127,-283.156 69.7825,-300.286 88,-311 95.9468,-315.673 105.084,-319.345 113.977,-322.194"/>
<polygon fill="midnightblue" stroke="midnightblue" points="43.6014,-267.299 34.4721,-261.922 38.2559,-271.818 43.6014,-267.299"/>
</g>
<!-- Node7 -->
<g id="node13" class="node"><title>Node7</title>
<a xlink:href="classCompassEvent.htm" target="_top" xlink:title="CompassEvent">
<polygon fill="white" stroke="black" points="110,-280.5 110,-301.5 198,-301.5 198,-280.5 110,-280.5"/>
<text text-anchor="middle" x="154" y="-288.5" font-family="Helvetica,sans-Serif" font-size="10.00">CompassEvent</text>
</a>
</g>
<!-- Node1&#45;&gt;Node7 -->
<g id="edge12" class="edge"><title>Node1&#45;&gt;Node7</title>
<path fill="none" stroke="midnightblue" d="M61.9161,-262.706C70.456,-265.456 79.5433,-268.355 88,-271 97.9415,-274.109 108.748,-277.415 118.684,-280.425"/>
<polygon fill="midnightblue" stroke="midnightblue" points="62.8048,-259.315 52.2131,-259.57 60.6522,-265.975 62.8048,-259.315"/>
</g>
<!-- Node8 -->
<g id="node15" class="node"><title>Node8</title>
<a xlink:href="classGravityEvent.htm" target="_top" xlink:title="GravityEvent">
<polygon fill="white" stroke="black" points="115.5,-240.5 115.5,-261.5 192.5,-261.5 192.5,-240.5 115.5,-240.5"/>
<text text-anchor="middle" x="154" y="-248.5" font-family="Helvetica,sans-Serif" font-size="10.00">GravityEvent</text>
</a>
</g>
<!-- Node1&#45;&gt;Node8 -->
<g id="edge14" class="edge"><title>Node1&#45;&gt;Node8</title>
<path fill="none" stroke="midnightblue" d="M62.5406,-251C79.0056,-251 98.4626,-251 115.189,-251"/>
<polygon fill="midnightblue" stroke="midnightblue" points="62.2116,-247.5 52.2116,-251 62.2116,-254.5 62.2116,-247.5"/>
</g>
<!-- Node9 -->
<g id="node17" class="node"><title>Node9</title>
<a xlink:href="classLinearAccelerationEvent.htm" target="_top" xlink:title="LinearAccelerationEvent">
<polygon fill="white" stroke="black" points="88,-200.5 88,-221.5 220,-221.5 220,-200.5 88,-200.5"/>
<text text-anchor="middle" x="154" y="-208.5" font-family="Helvetica,sans-Serif" font-size="10.00">LinearAccelerationEvent</text>
</a>
</g>
<!-- Node1&#45;&gt;Node9 -->
<g id="edge16" class="edge"><title>Node1&#45;&gt;Node9</title>
<path fill="none" stroke="midnightblue" d="M61.9161,-239.294C70.456,-236.544 79.5433,-233.645 88,-231 97.9415,-227.891 108.748,-224.585 118.684,-221.575"/>
<polygon fill="midnightblue" stroke="midnightblue" points="60.6522,-236.025 52.2131,-242.43 62.8048,-242.685 60.6522,-236.025"/>
</g>
<!-- Node10 -->
<g id="node19" class="node"><title>Node10</title>
<a xlink:href="classMagneticFieldEvent.htm" target="_top" xlink:title="MagneticFieldEvent">
<polygon fill="white" stroke="black" points="99,-160.5 99,-181.5 209,-181.5 209,-160.5 99,-160.5"/>
<text text-anchor="middle" x="154" y="-168.5" font-family="Helvetica,sans-Serif" font-size="10.00">MagneticFieldEvent</text>
</a>
</g>
<!-- Node1&#45;&gt;Node10 -->
<g id="edge18" class="edge"><title>Node1&#45;&gt;Node10</title>
<path fill="none" stroke="midnightblue" d="M41.2491,-232.063C52.8127,-218.844 69.7825,-201.714 88,-191 94.3987,-187.237 101.569,-184.124 108.762,-181.566"/>
<polygon fill="midnightblue" stroke="midnightblue" points="38.2559,-230.182 34.4721,-240.078 43.6014,-234.701 38.2559,-230.182"/>
</g>
<!-- Node11 -->
<g id="node21" class="node"><title>Node11</title>
<a xlink:href="classOrientationEvent.htm" target="_top" xlink:title="OrientationEvent">
<polygon fill="white" stroke="black" points="106,-120.5 106,-141.5 202,-141.5 202,-120.5 106,-120.5"/>
<text text-anchor="middle" x="154" y="-128.5" font-family="Helvetica,sans-Serif" font-size="10.00">OrientationEvent</text>
</a>
</g>
<!-- Node1&#45;&gt;Node11 -->
<g id="edge20" class="edge"><title>Node1&#45;&gt;Node11</title>
<path fill="none" stroke="midnightblue" d="M33.3813,-230.873C42.7019,-208.211 60.8696,-171.84 88,-151 93.3172,-146.916 99.4663,-143.661 105.829,-141.069"/>
<polygon fill="midnightblue" stroke="midnightblue" points="30.002,-229.905 29.6183,-240.493 36.521,-232.455 30.002,-229.905"/>
</g>
<!-- Node12 -->
<g id="node23" class="node"><title>Node12</title>
<a xlink:href="classProximityEvent.htm" target="_top" xlink:title="ProximityEvent">
<polygon fill="white" stroke="black" points="111,-80.5 111,-101.5 197,-101.5 197,-80.5 111,-80.5"/>
<text text-anchor="middle" x="154" y="-88.5" font-family="Helvetica,sans-Serif" font-size="10.00">ProximityEvent</text>
</a>
</g>
<!-- Node1&#45;&gt;Node12 -->
<g id="edge22" class="edge"><title>Node1&#45;&gt;Node12</title>
<path fill="none" stroke="midnightblue" d="M29.494,-230.546C35.7658,-200.092 51.82,-142.994 88,-111 94.4578,-105.289 102.504,-101.209 110.734,-98.2936"/>
<polygon fill="midnightblue" stroke="midnightblue" points="26.0378,-229.986 27.6068,-240.464 32.9144,-231.295 26.0378,-229.986"/>
</g>
<!-- Node13 -->
<g id="node25" class="node"><title>Node13</title>
<a xlink:href="classRotationEvent.htm" target="_top" xlink:title="RotationEvent">
<polygon fill="white" stroke="black" points="112.5,-40.5 112.5,-61.5 195.5,-61.5 195.5,-40.5 112.5,-40.5"/>
<text text-anchor="middle" x="154" y="-48.5" font-family="Helvetica,sans-Serif" font-size="10.00">RotationEvent</text>
</a>
</g>
<!-- Node1&#45;&gt;Node13 -->
<g id="edge24" class="edge"><title>Node1&#45;&gt;Node13</title>
<path fill="none" stroke="midnightblue" d="M27.2029,-230.148C30.4861,-192.872 42.696,-114.637 88,-71 94.7262,-64.5214 103.481,-60.1339 112.403,-57.1649"/>
<polygon fill="midnightblue" stroke="midnightblue" points="23.698,-230.085 26.4439,-240.317 30.6786,-230.606 23.698,-230.085"/>
</g>
<!-- Node14 -->
<g id="node27" class="node"><title>Node14</title>
<a xlink:href="classShakeEvent.htm" target="_top" xlink:title="ShakeEvent">
<polygon fill="white" stroke="black" points="117,-0.5 117,-21.5 191,-21.5 191,-0.5 117,-0.5"/>
<text text-anchor="middle" x="154" y="-8.5" font-family="Helvetica,sans-Serif" font-size="10.00">ShakeEvent</text>
</a>
</g>
<!-- Node1&#45;&gt;Node14 -->
<g id="edge26" class="edge"><title>Node1&#45;&gt;Node14</title>
<path fill="none" stroke="midnightblue" d="M29.225,-230.439C37.2991,-181.451 59.775,-59.782 88,-31 95.7123,-23.1355 106.405,-18.3406 116.941,-15.4247"/>
<polygon fill="midnightblue" stroke="midnightblue" points="25.7417,-230.056 27.6045,-240.486 32.6523,-231.171 25.7417,-230.056"/>
</g>
</g>
</svg>
