<?xml version="1.0" encoding="UTF-8" standalone="no"?>
<!DOCTYPE svg PUBLIC "-//W3C//DTD SVG 1.1//EN"
 "http://www.w3.org/Graphics/SVG/1.1/DTD/svg11.dtd">
<!-- Generated by graphviz version 2.26.3 (20100126.1600)
 -->
<!-- Title: NYXConnectorObserver Pages: 1 -->
<svg width="384pt" height="270pt"
 viewBox="0.00 0.00 384.00 270.00" xmlns="http://www.w3.org/2000/svg" xmlns:xlink="http://www.w3.org/1999/xlink">
<g id="graph1" class="graph" transform="scale(1 1) rotate(0) translate(4 266)">
<title>NYXConnectorObserver</title>
<polygon fill="white" stroke="white" points="-4,5 -4,-266 381,-266 381,5 -4,5"/>
<!-- Node1 -->
<g id="node1" class="node"><title>Node1</title>
<polygon fill="#bfbfbf" stroke="black" points="0.5,-120.5 0.5,-141.5 131.5,-141.5 131.5,-120.5 0.5,-120.5"/>
<text text-anchor="middle" x="66" y="-128.5" font-family="Helvetica,sans-Serif" font-size="10.00">NYXConnectorObserver</text>
</g>
<!-- Node2 -->
<g id="node3" class="node"><title>Node2</title>
<a xlink:href="classHostArm.htm" target="_top" xlink:title="HostArm">
<polygon fill="white" stroke="black" points="168.5,-120.5 168.5,-141.5 225.5,-141.5 225.5,-120.5 168.5,-120.5"/>
<text text-anchor="middle" x="197" y="-128.5" font-family="Helvetica,sans-Serif" font-size="10.00">HostArm</text>
</a>
</g>
<!-- Node1&#45;&gt;Node2 -->
<g id="edge2" class="edge"><title>Node1&#45;&gt;Node2</title>
<path fill="none" stroke="midnightblue" d="M142.098,-131C151.439,-131 160.485,-131 168.447,-131"/>
<polygon fill="midnightblue" stroke="midnightblue" points="141.884,-127.5 131.884,-131 141.884,-134.5 141.884,-127.5"/>
</g>
<!-- Node3 -->
<g id="node5" class="node"><title>Node3</title>
<a xlink:href="classHostArmBroadway.htm" target="_top" xlink:title="HostArmBroadway">
<polygon fill="white" stroke="black" points="267,-240.5 267,-261.5 371,-261.5 371,-240.5 267,-240.5"/>
<text text-anchor="middle" x="319" y="-248.5" font-family="Helvetica,sans-Serif" font-size="10.00">HostArmBroadway</text>
</a>
</g>
<!-- Node2&#45;&gt;Node3 -->
<g id="edge4" class="edge"><title>Node2&#45;&gt;Node3</title>
<path fill="none" stroke="midnightblue" d="M205.18,-150.961C215.348,-173.432 234.749,-209.59 262,-231 266.865,-234.823 272.516,-237.946 278.331,-240.488"/>
<polygon fill="midnightblue" stroke="midnightblue" points="208.354,-149.483 201.163,-141.702 201.932,-152.269 208.354,-149.483"/>
</g>
<!-- Node4 -->
<g id="node7" class="node"><title>Node4</title>
<a xlink:href="classHostArmMantaray.htm" target="_top" xlink:title="HostArmMantaray">
<polygon fill="white" stroke="black" points="268,-200.5 268,-221.5 370,-221.5 370,-200.5 268,-200.5"/>
<text text-anchor="middle" x="319" y="-208.5" font-family="Helvetica,sans-Serif" font-size="10.00">HostArmMantaray</text>
</a>
</g>
<!-- Node2&#45;&gt;Node4 -->
<g id="edge6" class="edge"><title>Node2&#45;&gt;Node4</title>
<path fill="none" stroke="midnightblue" d="M212.958,-149.29C225.246,-162.423 243.254,-179.726 262,-191 268.111,-194.675 274.998,-197.809 281.816,-200.43"/>
<polygon fill="midnightblue" stroke="midnightblue" points="215.41,-146.784 206.091,-141.743 210.232,-151.495 215.41,-146.784"/>
</g>
<!-- Node5 -->
<g id="node9" class="node"><title>Node5</title>
<a xlink:href="classHostArmOpal.htm" target="_top" xlink:title="HostArmOpal">
<polygon fill="white" stroke="black" points="279,-160.5 279,-181.5 359,-181.5 359,-160.5 279,-160.5"/>
<text text-anchor="middle" x="319" y="-168.5" font-family="Helvetica,sans-Serif" font-size="10.00">HostArmOpal</text>
</a>
</g>
<!-- Node2&#45;&gt;Node5 -->
<g id="edge8" class="edge"><title>Node2&#45;&gt;Node5</title>
<path fill="none" stroke="midnightblue" d="M235.479,-143.616C251.954,-149.018 270.977,-155.255 286.704,-160.411"/>
<polygon fill="midnightblue" stroke="midnightblue" points="236.196,-140.168 225.604,-140.378 234.015,-146.82 236.196,-140.168"/>
</g>
<!-- Node6 -->
<g id="node11" class="node"><title>Node6</title>
<a xlink:href="classHostArmQemu.htm" target="_top" xlink:title="HostArmQemu">
<polygon fill="white" stroke="black" points="276.5,-120.5 276.5,-141.5 361.5,-141.5 361.5,-120.5 276.5,-120.5"/>
<text text-anchor="middle" x="319" y="-128.5" font-family="Helvetica,sans-Serif" font-size="10.00">HostArmQemu</text>
</a>
</g>
<!-- Node2&#45;&gt;Node6 -->
<g id="edge10" class="edge"><title>Node2&#45;&gt;Node6</title>
<path fill="none" stroke="midnightblue" d="M235.968,-131C248.799,-131 263.132,-131 276.23,-131"/>
<polygon fill="midnightblue" stroke="midnightblue" points="235.604,-127.5 225.604,-131 235.604,-134.5 235.604,-127.5"/>
</g>
<!-- Node7 -->
<g id="node13" class="node"><title>Node7</title>
<a xlink:href="classHostArmTopaz.htm" target="_top" xlink:title="HostArmTopaz">
<polygon fill="white" stroke="black" points="275.5,-80.5 275.5,-101.5 362.5,-101.5 362.5,-80.5 275.5,-80.5"/>
<text text-anchor="middle" x="319" y="-88.5" font-family="Helvetica,sans-Serif" font-size="10.00">HostArmTopaz</text>
</a>
</g>
<!-- Node2&#45;&gt;Node7 -->
<g id="edge12" class="edge"><title>Node2&#45;&gt;Node7</title>
<path fill="none" stroke="midnightblue" d="M235.479,-118.384C251.954,-112.982 270.977,-106.745 286.704,-101.589"/>
<polygon fill="midnightblue" stroke="midnightblue" points="234.015,-115.18 225.604,-121.622 236.196,-121.832 234.015,-115.18"/>
</g>
<!-- Node8 -->
<g id="node15" class="node"><title>Node8</title>
<a xlink:href="classHostArmUnknown.htm" target="_top" xlink:title="HostArmUnknown">
<polygon fill="white" stroke="black" points="268.5,-40.5 268.5,-61.5 369.5,-61.5 369.5,-40.5 268.5,-40.5"/>
<text text-anchor="middle" x="319" y="-48.5" font-family="Helvetica,sans-Serif" font-size="10.00">HostArmUnknown</text>
</a>
</g>
<!-- Node2&#45;&gt;Node8 -->
<g id="edge14" class="edge"><title>Node2&#45;&gt;Node8</title>
<path fill="none" stroke="midnightblue" d="M212.958,-112.71C225.246,-99.5766 243.254,-82.2736 262,-71 268.111,-67.3247 274.998,-64.1908 281.816,-61.5699"/>
<polygon fill="midnightblue" stroke="midnightblue" points="210.232,-110.505 206.091,-120.257 215.41,-115.216 210.232,-110.505"/>
</g>
<!-- Node9 -->
<g id="node17" class="node"><title>Node9</title>
<a xlink:href="classHostArmWindsorNot.htm" target="_top" xlink:title="HostArmWindsorNot">
<polygon fill="white" stroke="black" points="262.5,-0.5 262.5,-21.5 375.5,-21.5 375.5,-0.5 262.5,-0.5"/>
<text text-anchor="middle" x="319" y="-8.5" font-family="Helvetica,sans-Serif" font-size="10.00">HostArmWindsorNot</text>
</a>
</g>
<!-- Node2&#45;&gt;Node9 -->
<g id="edge16" class="edge"><title>Node2&#45;&gt;Node9</title>
<path fill="none" stroke="midnightblue" d="M205.18,-111.039C215.348,-88.5679 234.749,-52.4102 262,-31 266.865,-27.1774 272.516,-24.0544 278.331,-21.5117"/>
<polygon fill="midnightblue" stroke="midnightblue" points="201.932,-109.731 201.163,-120.298 208.354,-112.517 201.932,-109.731"/>
</g>
</g>
</svg>
