<?xml version="1.0" encoding="UTF-8" standalone="no"?>
<!DOCTYPE svg PUBLIC "-//W3C//DTD SVG 1.1//EN"
 "http://www.w3.org/Graphics/SVG/1.1/DTD/svg11.dtd">
<!-- Generated by graphviz version 2.26.3 (20100126.1600)
 -->
<!-- Title: NYXGravitySensorConnector Pages: 1 -->
<svg width="588pt" height="358pt"
 viewBox="0.00 0.00 588.00 358.00" xmlns="http://www.w3.org/2000/svg" xmlns:xlink="http://www.w3.org/1999/xlink">
<g id="graph1" class="graph" transform="scale(1 1) rotate(0) translate(4 354)">
<title>NYXGravitySensorConnector</title>
<polygon fill="white" stroke="white" points="-4,5 -4,-354 585,-354 585,5 -4,5"/>
<!-- Node1 -->
<g id="node1" class="node"><title>Node1</title>
<polygon fill="#bfbfbf" stroke="black" points="424.5,-165.5 424.5,-186.5 579.5,-186.5 579.5,-165.5 424.5,-165.5"/>
<text text-anchor="middle" x="502" y="-173.5" font-family="Helvetica,sans-Serif" font-size="10.00">NYXGravitySensorConnector</text>
</g>
<!-- Node2 -->
<g id="node2" class="node"><title>Node2</title>
<a xlink:href="classNYXConnectorBase.htm" target="_top" xlink:title="NYXConnectorBase">
<polygon fill="white" stroke="black" points="274.5,-165.5 274.5,-186.5 385.5,-186.5 385.5,-165.5 274.5,-165.5"/>
<text text-anchor="middle" x="330" y="-173.5" font-family="Helvetica,sans-Serif" font-size="10.00">NYXConnectorBase</text>
</a>
</g>
<!-- Node2&#45;&gt;Node1 -->
<g id="edge2" class="edge"><title>Node2&#45;&gt;Node1</title>
<path fill="none" stroke="midnightblue" d="M396.087,-176C405.304,-176 414.843,-176 424.249,-176"/>
<polygon fill="midnightblue" stroke="midnightblue" points="395.844,-172.5 385.843,-176 395.843,-179.5 395.844,-172.5"/>
</g>
<!-- Node3 -->
<g id="node4" class="node"><title>Node3</title>
<a xlink:href="classQObject.htm" target="_top" xlink:title="QObject">
<polygon fill="white" stroke="black" points="38.5,-328.5 38.5,-349.5 93.5,-349.5 93.5,-328.5 38.5,-328.5"/>
<text text-anchor="middle" x="66" y="-336.5" font-family="Helvetica,sans-Serif" font-size="10.00">QObject</text>
</a>
</g>
<!-- Node3&#45;&gt;Node2 -->
<g id="edge4" class="edge"><title>Node3&#45;&gt;Node2</title>
<path fill="none" stroke="midnightblue" d="M103.733,-344.641C144.844,-348.712 210.779,-348.953 256,-318 303.027,-285.811 322.19,-214.117 327.959,-186.829"/>
<polygon fill="midnightblue" stroke="midnightblue" points="103.917,-341.14 93.5906,-343.509 103.141,-348.097 103.917,-341.14"/>
</g>
<!-- Node4 -->
<g id="node6" class="node"><title>Node4</title>
<polygon fill="white" stroke="#bfbfbf" points="19.5,-288.5 19.5,-309.5 112.5,-309.5 112.5,-288.5 19.5,-288.5"/>
<text text-anchor="middle" x="66" y="-296.5" font-family="Helvetica,sans-Serif" font-size="10.00">nyx_device_id_t</text>
</g>
<!-- Node4&#45;&gt;Node2 -->
<g id="edge6" class="edge"><title>Node4&#45;&gt;Node2</title>
<path fill="none" stroke="#9a32cd" stroke-dasharray="5,2" d="M122.642,-302.693C162.483,-302.744 215.669,-297.492 256,-274 291.739,-253.183 315.808,-207.637 325.37,-186.797"/>
<polygon fill="#9a32cd" stroke="#9a32cd" points="122.602,-299.192 112.559,-302.568 122.514,-306.192 122.602,-299.192"/>
<text text-anchor="middle" x="203" y="-305" font-family="Helvetica,sans-Serif" font-size="10.00"> m_NYXDeviceId</text>
</g>
<!-- Node5 -->
<g id="node8" class="node"><title>Node5</title>
<polygon fill="white" stroke="#bfbfbf" points="16.5,-248.5 16.5,-269.5 115.5,-269.5 115.5,-248.5 16.5,-248.5"/>
<text text-anchor="middle" x="66" y="-256.5" font-family="Helvetica,sans-Serif" font-size="10.00">QSocketNotifier *</text>
</g>
<!-- Node5&#45;&gt;Node2 -->
<g id="edge8" class="edge"><title>Node5&#45;&gt;Node2</title>
<path fill="none" stroke="#9a32cd" stroke-dasharray="5,2" d="M125.907,-259.165C164.407,-257.354 214.751,-251.333 256,-234 282.184,-222.997 306.961,-200.157 320.146,-186.654"/>
<polygon fill="#9a32cd" stroke="#9a32cd" points="125.741,-255.669 115.884,-259.555 126.013,-262.664 125.741,-255.669"/>
<text text-anchor="middle" x="203" y="-261" font-family="Helvetica,sans-Serif" font-size="10.00"> m_NYXSensorNotifier</text>
</g>
<!-- Node6 -->
<g id="node10" class="node"><title>Node6</title>
<polygon fill="white" stroke="#bfbfbf" points="51.5,-203.5 51.5,-224.5 80.5,-224.5 80.5,-203.5 51.5,-203.5"/>
<text text-anchor="middle" x="66" y="-211.5" font-family="Helvetica,sans-Serif" font-size="10.00">int</text>
</g>
<!-- Node6&#45;&gt;Node2 -->
<g id="edge10" class="edge"><title>Node6&#45;&gt;Node2</title>
<path fill="none" stroke="#9a32cd" stroke-dasharray="5,2" d="M91.0046,-211.336C127.403,-207.347 197.068,-199.288 256,-190 262.587,-188.962 269.486,-187.782 276.312,-186.557"/>
<polygon fill="#9a32cd" stroke="#9a32cd" points="90.3894,-207.882 80.8253,-212.441 91.1445,-214.842 90.3894,-207.882"/>
<text text-anchor="middle" x="203" y="-221" font-family="Helvetica,sans-Serif" font-size="10.00"> m_SensorFD</text>
<text text-anchor="middle" x="203" y="-208" font-family="Helvetica,sans-Serif" font-size="10.00">m_OrientationAngle</text>
</g>
<!-- Node7 -->
<g id="node12" class="node"><title>Node7</title>
<polygon fill="white" stroke="#bfbfbf" points="41,-163.5 41,-184.5 91,-184.5 91,-163.5 41,-163.5"/>
<text text-anchor="middle" x="66" y="-171.5" font-family="Helvetica,sans-Serif" font-size="10.00">Sensor</text>
</g>
<!-- Node7&#45;&gt;Node2 -->
<g id="edge12" class="edge"><title>Node7&#45;&gt;Node2</title>
<path fill="none" stroke="#9a32cd" stroke-dasharray="5,2" d="M101.316,-174.268C145.605,-174.603 222.05,-175.182 274.263,-175.578"/>
<polygon fill="#9a32cd" stroke="#9a32cd" points="101.34,-170.768 91.3134,-174.192 101.287,-177.768 101.34,-170.768"/>
<text text-anchor="middle" x="203" y="-179" font-family="Helvetica,sans-Serif" font-size="10.00"> m_SensorType</text>
</g>
<!-- Node8 -->
<g id="node14" class="node"><title>Node8</title>
<polygon fill="white" stroke="#bfbfbf" points="48,-120.5 48,-141.5 84,-141.5 84,-120.5 48,-120.5"/>
<text text-anchor="middle" x="66" y="-128.5" font-family="Helvetica,sans-Serif" font-size="10.00">bool</text>
</g>
<!-- Node8&#45;&gt;Node2 -->
<g id="edge14" class="edge"><title>Node8&#45;&gt;Node2</title>
<path fill="none" stroke="#9a32cd" stroke-dasharray="5,2" d="M94.3012,-129.977C131.827,-129.288 199.854,-130.365 256,-144 275.314,-148.69 295.97,-158.023 310.536,-165.405"/>
<polygon fill="#9a32cd" stroke="#9a32cd" points="94.0336,-126.482 84.1209,-130.222 94.2024,-133.48 94.0336,-126.482"/>
<text text-anchor="middle" x="203" y="-161" font-family="Helvetica,sans-Serif" font-size="10.00"> m_Finished</text>
<text text-anchor="middle" x="203" y="-148" font-family="Helvetica,sans-Serif" font-size="10.00">m_CanPostEvent</text>
</g>
<!-- Node9 -->
<g id="node16" class="node"><title>Node9</title>
<polygon fill="white" stroke="#bfbfbf" points="7.5,-80.5 7.5,-101.5 124.5,-101.5 124.5,-80.5 7.5,-80.5"/>
<text text-anchor="middle" x="66" y="-88.5" font-family="Helvetica,sans-Serif" font-size="10.00">nyx_device_handle_t</text>
</g>
<!-- Node9&#45;&gt;Node2 -->
<g id="edge16" class="edge"><title>Node9&#45;&gt;Node2</title>
<path fill="none" stroke="#9a32cd" stroke-dasharray="5,2" d="M135.054,-89.4047C172.253,-90.873 218.146,-96.535 256,-113 283.541,-124.979 308.559,-150.758 321.247,-165.354"/>
<polygon fill="#9a32cd" stroke="#9a32cd" points="134.908,-85.8988 124.807,-89.0963 134.697,-92.8956 134.908,-85.8988"/>
<text text-anchor="middle" x="203" y="-117" font-family="Helvetica,sans-Serif" font-size="10.00"> m_Handle</text>
</g>
<!-- Node10 -->
<g id="node18" class="node"><title>Node10</title>
<polygon fill="white" stroke="#bfbfbf" points="13.5,-40.5 13.5,-61.5 118.5,-61.5 118.5,-40.5 13.5,-40.5"/>
<text text-anchor="middle" x="66" y="-48.5" font-family="Helvetica,sans-Serif" font-size="10.00">nyx_device_type_t</text>
</g>
<!-- Node10&#45;&gt;Node2 -->
<g id="edge18" class="edge"><title>Node10&#45;&gt;Node2</title>
<path fill="none" stroke="#9a32cd" stroke-dasharray="5,2" d="M128.977,-45.8536C168.054,-45.5431 217.899,-50.597 256,-73 293.202,-94.8741 316.816,-143.63 325.841,-165.283"/>
<polygon fill="#9a32cd" stroke="#9a32cd" points="128.704,-42.3583 118.776,-46.0568 128.843,-49.3569 128.704,-42.3583"/>
<text text-anchor="middle" x="203" y="-77" font-family="Helvetica,sans-Serif" font-size="10.00"> m_NYXDeviceType</text>
</g>
<!-- Node11 -->
<g id="node20" class="node"><title>Node11</title>
<a xlink:href="classNYXConnectorObserver.htm" target="_top" xlink:title="NYXConnectorObserver">
<polygon fill="white" stroke="black" points="0.5,-0.5 0.5,-21.5 131.5,-21.5 131.5,-0.5 0.5,-0.5"/>
<text text-anchor="middle" x="66" y="-8.5" font-family="Helvetica,sans-Serif" font-size="10.00">NYXConnectorObserver</text>
</a>
</g>
<!-- Node11&#45;&gt;Node2 -->
<g id="edge20" class="edge"><title>Node11&#45;&gt;Node2</title>
<path fill="none" stroke="#9a32cd" stroke-dasharray="5,2" d="M141.914,-1.85297C179.226,-1.19294 223.117,-6.53053 256,-29 304.597,-62.2069 322.9,-137.157 328.195,-165.168"/>
<polygon fill="#9a32cd" stroke="#9a32cd" points="141.46,1.63421 131.579,-2.18892 141.688,-5.36209 141.46,1.63421"/>
<text text-anchor="middle" x="203" y="-33" font-family="Helvetica,sans-Serif" font-size="10.00"> m_Observer</text>
</g>
</g>
</svg>
