<?xml version="1.0" encoding="UTF-8" standalone="no"?>
<!DOCTYPE svg PUBLIC "-//W3C//DTD SVG 1.1//EN"
 "http://www.w3.org/Graphics/SVG/1.1/DTD/svg11.dtd">
<!-- Generated by graphviz version 2.26.3 (20100126.1600)
 -->
<!-- Title: SyncTask Pages: 1 -->
<svg width="562pt" height="275pt"
 viewBox="0.00 0.00 562.00 275.27" xmlns="http://www.w3.org/2000/svg" xmlns:xlink="http://www.w3.org/1999/xlink">
<g id="graph1" class="graph" transform="scale(1 1) rotate(0) translate(4 271.265)">
<title>SyncTask</title>
<polygon fill="white" stroke="white" points="-4,5 -4,-271.265 559,-271.265 559,5 -4,5"/>
<!-- Node1 -->
<g id="node1" class="node"><title>Node1</title>
<polygon fill="#bfbfbf" stroke="black" points="490.5,-120.5 490.5,-141.5 553.5,-141.5 553.5,-120.5 490.5,-120.5"/>
<text text-anchor="middle" x="522" y="-128.5" font-family="Helvetica,sans-Serif" font-size="10.00">SyncTask</text>
</g>
<!-- Node2 -->
<g id="node2" class="node"><title>Node2</title>
<a xlink:href="classTaskBase.htm" target="_top" xlink:title="TaskBase">
<polygon fill="white" stroke="black" points="388,-120.5 388,-141.5 452,-141.5 452,-120.5 388,-120.5"/>
<text text-anchor="middle" x="420" y="-128.5" font-family="Helvetica,sans-Serif" font-size="10.00">TaskBase</text>
</a>
</g>
<!-- Node2&#45;&gt;Node1 -->
<g id="edge2" class="edge"><title>Node2&#45;&gt;Node1</title>
<path fill="none" stroke="midnightblue" d="M462.532,-131C471.825,-131 481.503,-131 490.286,-131"/>
<polygon fill="midnightblue" stroke="midnightblue" points="462.273,-127.5 452.273,-131 462.273,-134.5 462.273,-127.5"/>
</g>
<!-- Node3 -->
<g id="node4" class="node"><title>Node3</title>
<a xlink:href="classRefCounted.htm" target="_top" xlink:title="RefCounted">
<polygon fill="white" stroke="black" points="12.5,-226.5 12.5,-247.5 85.5,-247.5 85.5,-226.5 12.5,-226.5"/>
<text text-anchor="middle" x="49" y="-234.5" font-family="Helvetica,sans-Serif" font-size="10.00">RefCounted</text>
</a>
</g>
<!-- Node3&#45;&gt;Node2 -->
<g id="edge4" class="edge"><title>Node3&#45;&gt;Node2</title>
<path fill="none" stroke="midnightblue" d="M94.1162,-249.978C160.275,-266.185 284.958,-285.732 370,-232 402.42,-211.516 414.506,-163.194 418.39,-141.668"/>
<polygon fill="midnightblue" stroke="midnightblue" points="94.9567,-246.58 84.4035,-247.519 93.2385,-253.366 94.9567,-246.58"/>
</g>
<!-- Node9 -->
<g id="node16" class="node"><title>Node9</title>
<a xlink:href="classMutex.htm" target="_top" xlink:title="Mutex">
<polygon fill="white" stroke="black" points="182.5,-200.5 182.5,-221.5 227.5,-221.5 227.5,-200.5 182.5,-200.5"/>
<text text-anchor="middle" x="205" y="-208.5" font-family="Helvetica,sans-Serif" font-size="10.00">Mutex</text>
</a>
</g>
<!-- Node3&#45;&gt;Node9 -->
<g id="edge18" class="edge"><title>Node3&#45;&gt;Node9</title>
<path fill="none" stroke="midnightblue" d="M95.7603,-229.207C124.326,-224.446 159.587,-218.569 182.183,-214.803"/>
<polygon fill="midnightblue" stroke="midnightblue" points="94.8636,-225.808 85.5751,-230.904 96.0144,-232.712 94.8636,-225.808"/>
</g>
<!-- Node4 -->
<g id="node6" class="node"><title>Node4</title>
<a xlink:href="classAsyncCaller.htm" target="_top" xlink:title="AsyncCaller\&lt; TaskBase \&gt;">
<polygon fill="white" stroke="black" points="136,-160.5 136,-181.5 274,-181.5 274,-160.5 136,-160.5"/>
<text text-anchor="middle" x="205" y="-168.5" font-family="Helvetica,sans-Serif" font-size="10.00">AsyncCaller&lt; TaskBase &gt;</text>
</a>
</g>
<!-- Node4&#45;&gt;Node2 -->
<g id="edge6" class="edge"><title>Node4&#45;&gt;Node2</title>
<path fill="none" stroke="#9a32cd" stroke-dasharray="5,2" d="M284.041,-162.204C311.443,-158.443 342.243,-153.413 370,-147 376.483,-145.502 383.334,-143.558 389.816,-141.543"/>
<polygon fill="#9a32cd" stroke="#9a32cd" points="283.558,-158.737 274.111,-163.533 284.487,-165.676 283.558,-158.737"/>
<text text-anchor="middle" x="331" y="-165" font-family="Helvetica,sans-Serif" font-size="10.00"> m_asyncCaller</text>
</g>
<!-- Node5 -->
<g id="node8" class="node"><title>Node5</title>
<a xlink:href="classAsyncCallerBase.htm" target="_top" xlink:title="AsyncCallerBase">
<polygon fill="white" stroke="black" points="0.5,-160.5 0.5,-181.5 97.5,-181.5 97.5,-160.5 0.5,-160.5"/>
<text text-anchor="middle" x="49" y="-168.5" font-family="Helvetica,sans-Serif" font-size="10.00">AsyncCallerBase</text>
</a>
</g>
<!-- Node5&#45;&gt;Node4 -->
<g id="edge8" class="edge"><title>Node5&#45;&gt;Node4</title>
<path fill="none" stroke="midnightblue" d="M107.705,-171C116.91,-171 126.497,-171 135.909,-171"/>
<polygon fill="midnightblue" stroke="midnightblue" points="107.504,-167.5 97.5042,-171 107.504,-174.5 107.504,-167.5"/>
</g>
<!-- Node6 -->
<g id="node10" class="node"><title>Node6</title>
<polygon fill="white" stroke="#bfbfbf" points="150,-120.5 150,-141.5 260,-141.5 260,-120.5 150,-120.5"/>
<text text-anchor="middle" x="205" y="-128.5" font-family="Helvetica,sans-Serif" font-size="10.00">list&lt; sptr&lt; Event &gt; &gt;</text>
</g>
<!-- Node6&#45;&gt;Node2 -->
<g id="edge10" class="edge"><title>Node6&#45;&gt;Node2</title>
<path fill="none" stroke="#9a32cd" stroke-dasharray="5,2" d="M270.286,-131C309.174,-131 356.824,-131 387.769,-131"/>
<polygon fill="#9a32cd" stroke="#9a32cd" points="270.089,-127.5 260.089,-131 270.089,-134.5 270.089,-127.5"/>
<text text-anchor="middle" x="331" y="-135" font-family="Helvetica,sans-Serif" font-size="10.00"> m_eventsList</text>
</g>
<!-- Node7 -->
<g id="node12" class="node"><title>Node7</title>
<polygon fill="white" stroke="#bfbfbf" points="165,-80.5 165,-101.5 245,-101.5 245,-80.5 165,-80.5"/>
<text text-anchor="middle" x="205" y="-88.5" font-family="Helvetica,sans-Serif" font-size="10.00">GMainLoop *</text>
</g>
<!-- Node7&#45;&gt;Node2 -->
<g id="edge12" class="edge"><title>Node7&#45;&gt;Node2</title>
<path fill="none" stroke="#9a32cd" stroke-dasharray="5,2" d="M255.351,-95.5201C288.268,-99.0858 332.038,-104.987 370,-114 377.226,-115.716 384.884,-118.048 391.979,-120.434"/>
<polygon fill="#9a32cd" stroke="#9a32cd" points="255.376,-92.0037 245.066,-94.4435 254.648,-98.9657 255.376,-92.0037"/>
<text text-anchor="middle" x="331" y="-118" font-family="Helvetica,sans-Serif" font-size="10.00"> m_mainLoop</text>
</g>
<!-- Node8 -->
<g id="node14" class="node"><title>Node8</title>
<a xlink:href="classSingletonTimer.htm" target="_top" xlink:title="SingletonTimer">
<polygon fill="white" stroke="black" points="161,-40.5 161,-61.5 249,-61.5 249,-40.5 161,-40.5"/>
<text text-anchor="middle" x="205" y="-48.5" font-family="Helvetica,sans-Serif" font-size="10.00">SingletonTimer</text>
</a>
</g>
<!-- Node8&#45;&gt;Node2 -->
<g id="edge14" class="edge"><title>Node8&#45;&gt;Node2</title>
<path fill="none" stroke="#9a32cd" stroke-dasharray="5,2" d="M259.272,-54.2642C292.724,-58.0718 335.643,-66.2904 370,-84 387.155,-92.8427 402.621,-109.315 411.666,-120.22"/>
<polygon fill="#9a32cd" stroke="#9a32cd" points="259.522,-50.7714 249.214,-53.2185 258.798,-57.7339 259.522,-50.7714"/>
<text text-anchor="middle" x="331" y="-88" font-family="Helvetica,sans-Serif" font-size="10.00"> m_masterTimer</text>
</g>
<!-- Node9&#45;&gt;Node2 -->
<g id="edge16" class="edge"><title>Node9&#45;&gt;Node2</title>
<path fill="none" stroke="#9a32cd" stroke-dasharray="5,2" d="M237.668,-209.742C272.27,-207.241 327.642,-199.834 370,-178 387.155,-169.157 402.621,-152.685 411.666,-141.78"/>
<polygon fill="#9a32cd" stroke="#9a32cd" points="237.395,-206.253 227.634,-210.372 237.834,-213.239 237.395,-206.253"/>
<text text-anchor="middle" x="331" y="-219" font-family="Helvetica,sans-Serif" font-size="10.00"> m_eventsMutex</text>
<text text-anchor="middle" x="331" y="-206" font-family="Helvetica,sans-Serif" font-size="10.00">m_mutex</text>
</g>
<!-- Node10 -->
<g id="node19" class="node"><title>Node10</title>
<polygon fill="white" stroke="#bfbfbf" points="158.5,-0.5 158.5,-21.5 251.5,-21.5 251.5,-0.5 158.5,-0.5"/>
<text text-anchor="middle" x="205" y="-8.5" font-family="Helvetica,sans-Serif" font-size="10.00">GMainContext *</text>
</g>
<!-- Node10&#45;&gt;Node2 -->
<g id="edge20" class="edge"><title>Node10&#45;&gt;Node2</title>
<path fill="none" stroke="#9a32cd" stroke-dasharray="5,2" d="M262.076,-10.4669C296.21,-12.7964 338.856,-20.6326 370,-43 397.117,-62.4754 411.524,-101.516 417.151,-120.352"/>
<polygon fill="#9a32cd" stroke="#9a32cd" points="261.953,-6.95523 251.778,-9.91077 261.575,-13.945 261.953,-6.95523"/>
<text text-anchor="middle" x="331" y="-47" font-family="Helvetica,sans-Serif" font-size="10.00"> m_mainCtxt</text>
</g>
</g>
</svg>
