<?xml version="1.0" encoding="UTF-8" standalone="no"?>
<!DOCTYPE svg PUBLIC "-//W3C//DTD SVG 1.1//EN"
 "http://www.w3.org/Graphics/SVG/1.1/DTD/svg11.dtd">
<!-- Generated by graphviz version 2.26.3 (20100126.1600)
 -->
<!-- Title: NYXLogicalDeviceOrientationSensorConnector Pages: 1 -->
<svg width="186pt" height="218pt"
 viewBox="0.00 0.00 186.00 218.00" xmlns="http://www.w3.org/2000/svg" xmlns:xlink="http://www.w3.org/1999/xlink">
<g id="graph1" class="graph" transform="scale(1 1) rotate(0) translate(4 214)">
<title>NYXLogicalDeviceOrientationSensorConnector</title>
<polygon fill="white" stroke="white" points="-4,5 -4,-214 183,-214 183,5 -4,5"/>
<!-- Node1 -->
<g id="node1" class="node"><title>Node1</title>
<polygon fill="#bfbfbf" stroke="black" points="11,-1 11,-35 167,-35 167,-1 11,-1"/>
<text text-anchor="start" x="19" y="-22" font-family="Helvetica,sans-Serif" font-size="10.00">NYXLogicalDeviceOrientation</text>
<text text-anchor="middle" x="89" y="-9" font-family="Helvetica,sans-Serif" font-size="10.00">SensorConnector</text>
</g>
<!-- Node2 -->
<g id="node2" class="node"><title>Node2</title>
<a xlink:href="classNYXLogicalSensorConnectorBase.htm" target="_top" xlink:title="NYXLogicalSensorConnectorBase">
<polygon fill="white" stroke="black" points="-0.5,-72.5 -0.5,-93.5 178.5,-93.5 178.5,-72.5 -0.5,-72.5"/>
<text text-anchor="middle" x="89" y="-80.5" font-family="Helvetica,sans-Serif" font-size="10.00">NYXLogicalSensorConnectorBase</text>
</a>
</g>
<!-- Node2&#45;&gt;Node1 -->
<g id="edge2" class="edge"><title>Node2&#45;&gt;Node1</title>
<path fill="none" stroke="midnightblue" d="M89,-62.1306C89,-53.4049 89,-43.3908 89,-35.1099"/>
<polygon fill="midnightblue" stroke="midnightblue" points="85.5001,-62.2665 89,-72.2666 92.5001,-62.2666 85.5001,-62.2665"/>
</g>
<!-- Node3 -->
<g id="node4" class="node"><title>Node3</title>
<a xlink:href="classNYXConnectorBase.htm" target="_top" xlink:title="NYXConnectorBase">
<polygon fill="white" stroke="black" points="33.5,-130.5 33.5,-151.5 144.5,-151.5 144.5,-130.5 33.5,-130.5"/>
<text text-anchor="middle" x="89" y="-138.5" font-family="Helvetica,sans-Serif" font-size="10.00">NYXConnectorBase</text>
</a>
</g>
<!-- Node3&#45;&gt;Node2 -->
<g id="edge4" class="edge"><title>Node3&#45;&gt;Node2</title>
<path fill="none" stroke="midnightblue" d="M89,-120.191C89,-111.168 89,-100.994 89,-93.5707"/>
<polygon fill="midnightblue" stroke="midnightblue" points="85.5001,-120.362 89,-130.362 92.5001,-120.362 85.5001,-120.362"/>
</g>
<!-- Node4 -->
<g id="node6" class="node"><title>Node4</title>
<a xlink:href="classQObject.htm" target="_top" xlink:title="QObject">
<polygon fill="white" stroke="black" points="61.5,-188.5 61.5,-209.5 116.5,-209.5 116.5,-188.5 61.5,-188.5"/>
<text text-anchor="middle" x="89" y="-196.5" font-family="Helvetica,sans-Serif" font-size="10.00">QObject</text>
</a>
</g>
<!-- Node4&#45;&gt;Node3 -->
<g id="edge6" class="edge"><title>Node4&#45;&gt;Node3</title>
<path fill="none" stroke="midnightblue" d="M89,-178.191C89,-169.168 89,-158.994 89,-151.571"/>
<polygon fill="midnightblue" stroke="midnightblue" points="85.5001,-178.362 89,-188.362 92.5001,-178.362 85.5001,-178.362"/>
</g>
</g>
</svg>
