<?xml version="1.0" encoding="UTF-8" standalone="no"?>
<!DOCTYPE svg PUBLIC "-//W3C//DTD SVG 1.1//EN"
 "http://www.w3.org/Graphics/SVG/1.1/DTD/svg11.dtd">
<!-- Generated by graphviz version 2.26.3 (20100126.1600)
 -->
<!-- Title: Event Pages: 1 -->
<svg width="178pt" height="88pt"
 viewBox="0.00 0.00 178.00 88.00" xmlns="http://www.w3.org/2000/svg" xmlns:xlink="http://www.w3.org/1999/xlink">
<g id="graph1" class="graph" transform="scale(1 1) rotate(0) translate(4 84)">
<title>Event</title>
<polygon fill="white" stroke="white" points="-4,5 -4,-84 175,-84 175,5 -4,5"/>
<!-- Node1 -->
<g id="node1" class="node"><title>Node1</title>
<polygon fill="#bfbfbf" stroke="black" points="65,-0.5 65,-21.5 109,-21.5 109,-0.5 65,-0.5"/>
<text text-anchor="middle" x="87" y="-8.5" font-family="Helvetica,sans-Serif" font-size="10.00">Event</text>
</g>
<!-- Node2 -->
<g id="node2" class="node"><title>Node2</title>
<a xlink:href="classSysMgrEvent.htm" target="_top" xlink:title="SysMgrEvent">
<polygon fill="white" stroke="black" points="0,-58.5 0,-79.5 80,-79.5 80,-58.5 0,-58.5"/>
<text text-anchor="middle" x="40" y="-66.5" font-family="Helvetica,sans-Serif" font-size="10.00">SysMgrEvent</text>
</a>
</g>
<!-- Node2&#45;&gt;Node1 -->
<g id="edge2" class="edge"><title>Node2&#45;&gt;Node1</title>
<path fill="none" stroke="midnightblue" d="M54.9584,-50.5407C62.707,-40.9786 71.8898,-29.6467 78.4341,-21.5707"/>
<polygon fill="midnightblue" stroke="midnightblue" points="52.1971,-48.389 48.6205,-58.3619 57.6357,-52.7961 52.1971,-48.389"/>
</g>
<!-- Node3 -->
<g id="node4" class="node"><title>Node3</title>
<a xlink:href="classRefCounted.htm" target="_top" xlink:title="RefCounted">
<polygon fill="white" stroke="black" points="97.5,-58.5 97.5,-79.5 170.5,-79.5 170.5,-58.5 97.5,-58.5"/>
<text text-anchor="middle" x="134" y="-66.5" font-family="Helvetica,sans-Serif" font-size="10.00">RefCounted</text>
</a>
</g>
<!-- Node3&#45;&gt;Node1 -->
<g id="edge4" class="edge"><title>Node3&#45;&gt;Node1</title>
<path fill="none" stroke="midnightblue" d="M119.042,-50.5407C111.293,-40.9786 102.11,-29.6467 95.5659,-21.5707"/>
<polygon fill="midnightblue" stroke="midnightblue" points="116.364,-52.7961 125.379,-58.3619 121.803,-48.389 116.364,-52.7961"/>
</g>
</g>
</svg>
