<?xml version="1.0" encoding="UTF-8" standalone="no"?>
<!DOCTYPE svg PUBLIC "-//W3C//DTD SVG 1.1//EN"
 "http://www.w3.org/Graphics/SVG/1.1/DTD/svg11.dtd">
<!-- Generated by graphviz version 2.26.3 (20100126.1600)
 -->
<!-- Title: HostQtDesktop Pages: 1 -->
<svg width="848pt" height="567pt"
 viewBox="0.00 0.00 848.00 567.31" xmlns="http://www.w3.org/2000/svg" xmlns:xlink="http://www.w3.org/1999/xlink">
<g id="graph1" class="graph" transform="scale(1 1) rotate(0) translate(4 563.31)">
<title>HostQtDesktop</title>
<polygon fill="white" stroke="white" points="-4,5 -4,-563.31 845,-563.31 845,5 -4,5"/>
<!-- Node1 -->
<g id="node1" class="node"><title>Node1</title>
<polygon fill="#bfbfbf" stroke="black" points="750.5,-160.81 750.5,-181.81 839.5,-181.81 839.5,-160.81 750.5,-160.81"/>
<text text-anchor="middle" x="795" y="-168.81" font-family="Helvetica,sans-Serif" font-size="10.00">HostQtDesktop</text>
</g>
<!-- Node2 -->
<g id="node2" class="node"><title>Node2</title>
<a xlink:href="classHostBase.htm" target="_top" xlink:title="HostBase">
<polygon fill="white" stroke="black" points="650,-160.81 650,-181.81 712,-181.81 712,-160.81 650,-160.81"/>
<text text-anchor="middle" x="681" y="-168.81" font-family="Helvetica,sans-Serif" font-size="10.00">HostBase</text>
</a>
</g>
<!-- Node2&#45;&gt;Node1 -->
<g id="edge2" class="edge"><title>Node2&#45;&gt;Node1</title>
<path fill="none" stroke="midnightblue" d="M722.432,-171.31C731.462,-171.31 741.056,-171.31 750.21,-171.31"/>
<polygon fill="midnightblue" stroke="midnightblue" points="722.151,-167.811 712.151,-171.31 722.151,-174.811 722.151,-167.811"/>
</g>
<!-- Node3 -->
<g id="node4" class="node"><title>Node3</title>
<a xlink:href="classQObject.htm" target="_top" xlink:title="QObject">
<polygon fill="white" stroke="black" points="419.5,-537.81 419.5,-558.81 474.5,-558.81 474.5,-537.81 419.5,-537.81"/>
<text text-anchor="middle" x="447" y="-545.81" font-family="Helvetica,sans-Serif" font-size="10.00">QObject</text>
</a>
</g>
<!-- Node3&#45;&gt;Node2 -->
<g id="edge4" class="edge"><title>Node3&#45;&gt;Node2</title>
<path fill="none" stroke="midnightblue" d="M484.805,-554.506C526.858,-559.04 593.879,-558.842 632,-520.31 656.528,-495.518 676.233,-238.056 680.25,-182.033"/>
<polygon fill="midnightblue" stroke="midnightblue" points="485.035,-551.008 474.684,-553.271 484.187,-557.956 485.035,-551.008"/>
</g>
<!-- Node4 -->
<g id="node6" class="node"><title>Node4</title>
<a xlink:href="classTaskBase.htm" target="_top" xlink:title="TaskBase">
<polygon fill="white" stroke="black" points="415,-330.81 415,-351.81 479,-351.81 479,-330.81 415,-330.81"/>
<text text-anchor="middle" x="447" y="-338.81" font-family="Helvetica,sans-Serif" font-size="10.00">TaskBase</text>
</a>
</g>
<!-- Node4&#45;&gt;Node2 -->
<g id="edge6" class="edge"><title>Node4&#45;&gt;Node2</title>
<path fill="none" stroke="midnightblue" d="M479.956,-326.437C518.866,-307.897 584.31,-273.571 632,-232.31 649.464,-217.201 665.341,-195.259 674.038,-182.222"/>
<polygon fill="midnightblue" stroke="midnightblue" points="478.223,-323.383 470.662,-330.805 481.201,-329.719 478.223,-323.383"/>
</g>
<!-- Node5 -->
<g id="node8" class="node"><title>Node5</title>
<a xlink:href="classRefCounted.htm" target="_top" xlink:title="RefCounted">
<polygon fill="white" stroke="black" points="12.5,-439.81 12.5,-460.81 85.5,-460.81 85.5,-439.81 12.5,-439.81"/>
<text text-anchor="middle" x="49" y="-447.81" font-family="Helvetica,sans-Serif" font-size="10.00">RefCounted</text>
</a>
</g>
<!-- Node5&#45;&gt;Node4 -->
<g id="edge8" class="edge"><title>Node5&#45;&gt;Node4</title>
<path fill="none" stroke="midnightblue" d="M95.8469,-454.841C165.096,-459.342 296.837,-459.346 392,-407.31 415.556,-394.43 433.178,-367.033 441.564,-351.902"/>
<polygon fill="midnightblue" stroke="midnightblue" points="95.9129,-451.337 85.6897,-454.118 95.4162,-458.319 95.9129,-451.337"/>
</g>
<!-- Node11 -->
<g id="node20" class="node"><title>Node11</title>
<a xlink:href="classMutex.htm" target="_top" xlink:title="Mutex">
<polygon fill="white" stroke="black" points="182.5,-466.81 182.5,-487.81 227.5,-487.81 227.5,-466.81 182.5,-466.81"/>
<text text-anchor="middle" x="205" y="-474.81" font-family="Helvetica,sans-Serif" font-size="10.00">Mutex</text>
</a>
</g>
<!-- Node5&#45;&gt;Node11 -->
<g id="edge22" class="edge"><title>Node5&#45;&gt;Node11</title>
<path fill="none" stroke="midnightblue" d="M95.7603,-458.404C124.326,-463.348 159.587,-469.451 182.183,-473.361"/>
<polygon fill="midnightblue" stroke="midnightblue" points="96.0255,-454.898 85.5751,-456.641 94.8317,-461.795 96.0255,-454.898"/>
</g>
<!-- Node6 -->
<g id="node10" class="node"><title>Node6</title>
<a xlink:href="classAsyncCaller.htm" target="_top" xlink:title="AsyncCaller\&lt; TaskBase \&gt;">
<polygon fill="white" stroke="black" points="136,-268.81 136,-289.81 274,-289.81 274,-268.81 136,-268.81"/>
<text text-anchor="middle" x="205" y="-276.81" font-family="Helvetica,sans-Serif" font-size="10.00">AsyncCaller&lt; TaskBase &gt;</text>
</a>
</g>
<!-- Node6&#45;&gt;Node4 -->
<g id="edge10" class="edge"><title>Node6&#45;&gt;Node4</title>
<path fill="none" stroke="#9a32cd" stroke-dasharray="5,2" d="M284.418,-280.464C318.479,-283.127 358.139,-289.193 392,-302.31 408.809,-308.822 425.298,-321.613 435.769,-330.771"/>
<polygon fill="#9a32cd" stroke="#9a32cd" points="284.258,-276.944 274.04,-279.742 283.773,-283.927 284.258,-276.944"/>
<text text-anchor="middle" x="342" y="-306.31" font-family="Helvetica,sans-Serif" font-size="10.00"> m_asyncCaller</text>
</g>
<!-- Node7 -->
<g id="node12" class="node"><title>Node7</title>
<a xlink:href="classAsyncCallerBase.htm" target="_top" xlink:title="AsyncCallerBase">
<polygon fill="white" stroke="black" points="0.5,-268.81 0.5,-289.81 97.5,-289.81 97.5,-268.81 0.5,-268.81"/>
<text text-anchor="middle" x="49" y="-276.81" font-family="Helvetica,sans-Serif" font-size="10.00">AsyncCallerBase</text>
</a>
</g>
<!-- Node7&#45;&gt;Node6 -->
<g id="edge12" class="edge"><title>Node7&#45;&gt;Node6</title>
<path fill="none" stroke="midnightblue" d="M107.705,-279.31C116.91,-279.31 126.497,-279.31 135.909,-279.31"/>
<polygon fill="midnightblue" stroke="midnightblue" points="107.504,-275.811 97.5042,-279.31 107.504,-282.811 107.504,-275.811"/>
</g>
<!-- Node8 -->
<g id="node14" class="node"><title>Node8</title>
<polygon fill="white" stroke="#bfbfbf" points="150,-388.81 150,-409.81 260,-409.81 260,-388.81 150,-388.81"/>
<text text-anchor="middle" x="205" y="-396.81" font-family="Helvetica,sans-Serif" font-size="10.00">list&lt; sptr&lt; Event &gt; &gt;</text>
</g>
<!-- Node8&#45;&gt;Node4 -->
<g id="edge14" class="edge"><title>Node8&#45;&gt;Node4</title>
<path fill="none" stroke="#9a32cd" stroke-dasharray="5,2" d="M270.095,-393.902C306.59,-389.63 352.565,-382.16 392,-369.31 405.244,-364.995 419.22,-357.842 429.769,-351.846"/>
<polygon fill="#9a32cd" stroke="#9a32cd" points="269.615,-390.434 260.067,-395.025 270.394,-397.391 269.615,-390.434"/>
<text text-anchor="middle" x="342" y="-394.31" font-family="Helvetica,sans-Serif" font-size="10.00"> m_eventsList</text>
</g>
<!-- Node9 -->
<g id="node16" class="node"><title>Node9</title>
<polygon fill="white" stroke="#bfbfbf" points="165,-348.81 165,-369.81 245,-369.81 245,-348.81 165,-348.81"/>
<text text-anchor="middle" x="205" y="-356.81" font-family="Helvetica,sans-Serif" font-size="10.00">GMainLoop *</text>
</g>
<!-- Node9&#45;&gt;Node4 -->
<g id="edge16" class="edge"><title>Node9&#45;&gt;Node4</title>
<path fill="none" stroke="#9a32cd" stroke-dasharray="5,2" d="M255.399,-355.562C303.347,-351.995 374.042,-346.737 414.809,-343.705"/>
<polygon fill="#9a32cd" stroke="#9a32cd" points="254.946,-352.086 245.233,-356.318 255.465,-359.066 254.946,-352.086"/>
<text text-anchor="middle" x="342" y="-356.31" font-family="Helvetica,sans-Serif" font-size="10.00"> m_mainLoop</text>
</g>
<!-- Node10 -->
<g id="node18" class="node"><title>Node10</title>
<a xlink:href="classSingletonTimer.htm" target="_top" xlink:title="SingletonTimer">
<polygon fill="white" stroke="black" points="161,-308.81 161,-329.81 249,-329.81 249,-308.81 161,-308.81"/>
<text text-anchor="middle" x="205" y="-316.81" font-family="Helvetica,sans-Serif" font-size="10.00">SingletonTimer</text>
</a>
</g>
<!-- Node10&#45;&gt;Node4 -->
<g id="edge18" class="edge"><title>Node10&#45;&gt;Node4</title>
<path fill="none" stroke="#9a32cd" stroke-dasharray="5,2" d="M259.237,-319.292C296.698,-319.92 347.578,-322.046 392,-328.31 399.481,-329.365 407.438,-330.962 414.907,-332.679"/>
<polygon fill="#9a32cd" stroke="#9a32cd" points="259.09,-315.789 249.043,-319.152 258.994,-322.789 259.09,-315.789"/>
<text text-anchor="middle" x="342" y="-332.31" font-family="Helvetica,sans-Serif" font-size="10.00"> m_masterTimer</text>
</g>
<!-- Node11&#45;&gt;Node2 -->
<g id="edge36" class="edge"><title>Node11&#45;&gt;Node2</title>
<path fill="none" stroke="#9a32cd" stroke-dasharray="5,2" d="M237.773,-488.087C276.029,-498.844 340.608,-511.271 392,-492.31 523.61,-443.753 549.152,-400.515 632,-287.31 657.177,-252.908 672.429,-203.611 678.268,-182.071"/>
<polygon fill="#9a32cd" stroke="#9a32cd" points="238.295,-484.592 227.713,-485.125 236.317,-491.307 238.295,-484.592"/>
<text text-anchor="middle" x="447" y="-487.31" font-family="Helvetica,sans-Serif" font-size="10.00"> m_paintMutex</text>
</g>
<!-- Node11&#45;&gt;Node4 -->
<g id="edge20" class="edge"><title>Node11&#45;&gt;Node4</title>
<path fill="none" stroke="#9a32cd" stroke-dasharray="5,2" d="M237.826,-472.915C288.105,-465.949 379.692,-452.248 392,-443.31 423.745,-420.259 439.04,-373.143 444.527,-351.998"/>
<polygon fill="#9a32cd" stroke="#9a32cd" points="237.198,-469.468 227.767,-474.295 238.15,-476.403 237.198,-469.468"/>
<text text-anchor="middle" x="342" y="-481.31" font-family="Helvetica,sans-Serif" font-size="10.00"> m_eventsMutex</text>
<text text-anchor="middle" x="342" y="-468.31" font-family="Helvetica,sans-Serif" font-size="10.00">m_mutex</text>
</g>
<!-- Node12 -->
<g id="node23" class="node"><title>Node12</title>
<polygon fill="white" stroke="#bfbfbf" points="158.5,-228.81 158.5,-249.81 251.5,-249.81 251.5,-228.81 158.5,-228.81"/>
<text text-anchor="middle" x="205" y="-236.81" font-family="Helvetica,sans-Serif" font-size="10.00">GMainContext *</text>
</g>
<!-- Node12&#45;&gt;Node4 -->
<g id="edge24" class="edge"><title>Node12&#45;&gt;Node4</title>
<path fill="none" stroke="#9a32cd" stroke-dasharray="5,2" d="M261.994,-235.058C301.192,-234.772 353.007,-239.823 392,-263.31 418.4,-279.212 435.472,-313.182 442.834,-330.571"/>
<polygon fill="#9a32cd" stroke="#9a32cd" points="261.737,-231.562 251.806,-235.253 261.871,-238.56 261.737,-231.562"/>
<text text-anchor="middle" x="342" y="-267.31" font-family="Helvetica,sans-Serif" font-size="10.00"> m_mainCtxt</text>
</g>
<!-- Node13 -->
<g id="node25" class="node"><title>Node13</title>
<a xlink:href="structHostInfo.htm" target="_top" xlink:title="HostInfo">
<polygon fill="white" stroke="black" points="419,-160.81 419,-181.81 475,-181.81 475,-160.81 419,-160.81"/>
<text text-anchor="middle" x="447" y="-168.81" font-family="Helvetica,sans-Serif" font-size="10.00">HostInfo</text>
</a>
</g>
<!-- Node13&#45;&gt;Node2 -->
<g id="edge26" class="edge"><title>Node13&#45;&gt;Node2</title>
<path fill="none" stroke="#9a32cd" stroke-dasharray="5,2" d="M485.372,-171.31C531.26,-171.31 607.185,-171.31 649.694,-171.31"/>
<polygon fill="#9a32cd" stroke="#9a32cd" points="485.226,-167.811 475.226,-171.31 485.226,-174.811 485.226,-167.811"/>
<text text-anchor="middle" x="567" y="-175.31" font-family="Helvetica,sans-Serif" font-size="10.00"> m_info</text>
</g>
<!-- Node14 -->
<g id="node27" class="node"><title>Node14</title>
<polygon fill="white" stroke="#bfbfbf" points="190.5,-140.81 190.5,-161.81 219.5,-161.81 219.5,-140.81 190.5,-140.81"/>
<text text-anchor="middle" x="205" y="-148.81" font-family="Helvetica,sans-Serif" font-size="10.00">int</text>
</g>
<!-- Node14&#45;&gt;Node2 -->
<g id="edge32" class="edge"><title>Node14&#45;&gt;Node2</title>
<path fill="none" stroke="#9a32cd" stroke-dasharray="5,2" d="M225.453,-168.271C242.178,-180.972 267.059,-197.312 292,-204.31 350.138,-220.625 558.339,-203.262 632,-188.31 639.501,-186.788 647.423,-184.402 654.659,-181.895"/>
<polygon fill="#9a32cd" stroke="#9a32cd" points="227.522,-165.446 217.494,-162.03 223.203,-170.955 227.522,-165.446"/>
<text text-anchor="middle" x="447" y="-213.31" font-family="Helvetica,sans-Serif" font-size="10.00"> m_numBuffers</text>
</g>
<!-- Node14&#45;&gt;Node13 -->
<g id="edge28" class="edge"><title>Node14&#45;&gt;Node13</title>
<path fill="none" stroke="#9a32cd" stroke-dasharray="5,2" d="M226.681,-134.665C263.767,-108.372 340.373,-63.7839 392,-100.31 411.622,-114.194 394.382,-133.039 410,-151.31 413.131,-154.974 417.107,-158.078 421.285,-160.667"/>
<polygon fill="#9a32cd" stroke="#9a32cd" points="224.577,-131.867 218.556,-140.584 228.699,-137.524 224.577,-131.867"/>
<text text-anchor="middle" x="342" y="-195.31" font-family="Helvetica,sans-Serif" font-size="10.00"> displayGreenLength</text>
<text text-anchor="middle" x="342" y="-182.31" font-family="Helvetica,sans-Serif" font-size="10.00">displayHeight</text>
<text text-anchor="middle" x="342" y="-169.31" font-family="Helvetica,sans-Serif" font-size="10.00">displayBlueLength</text>
<text text-anchor="middle" x="342" y="-156.31" font-family="Helvetica,sans-Serif" font-size="10.00">displayRedLength</text>
<text text-anchor="middle" x="342" y="-143.31" font-family="Helvetica,sans-Serif" font-size="10.00">displayRowBytes</text>
<text text-anchor="middle" x="342" y="-130.31" font-family="Helvetica,sans-Serif" font-size="10.00">displayDepth</text>
<text text-anchor="middle" x="342" y="-117.31" font-family="Helvetica,sans-Serif" font-size="10.00">displayWidth</text>
<text text-anchor="middle" x="342" y="-104.31" font-family="Helvetica,sans-Serif" font-size="10.00">displayAlphaLength</text>
</g>
<!-- Node15 -->
<g id="node29" class="node"><title>Node15</title>
<polygon fill="white" stroke="#bfbfbf" points="183,-52.8104 183,-73.8104 227,-73.8104 227,-52.8104 183,-52.8104"/>
<text text-anchor="middle" x="205" y="-60.8104" font-family="Helvetica,sans-Serif" font-size="10.00">void *</text>
</g>
<!-- Node15&#45;&gt;Node13 -->
<g id="edge30" class="edge"><title>Node15&#45;&gt;Node13</title>
<path fill="none" stroke="#9a32cd" stroke-dasharray="5,2" d="M236.736,-53.9058C277.6,-43.9185 348.516,-34.0712 392,-70.3104 420.33,-93.9202 387.771,-121.885 410,-151.31 412.817,-155.039 416.538,-158.154 420.535,-160.728"/>
<polygon fill="#9a32cd" stroke="#9a32cd" points="235.832,-50.5243 227.029,-56.42 237.587,-57.3007 235.832,-50.5243"/>
<text text-anchor="middle" x="342" y="-74.3104" font-family="Helvetica,sans-Serif" font-size="10.00"> displayBuffer</text>
</g>
<!-- Node16 -->
<g id="node32" class="node"><title>Node16</title>
<polygon fill="white" stroke="#bfbfbf" points="429,-120.81 429,-141.81 465,-141.81 465,-120.81 429,-120.81"/>
<text text-anchor="middle" x="447" y="-128.81" font-family="Helvetica,sans-Serif" font-size="10.00">bool</text>
</g>
<!-- Node16&#45;&gt;Node2 -->
<g id="edge34" class="edge"><title>Node16&#45;&gt;Node2</title>
<path fill="none" stroke="#9a32cd" stroke-dasharray="5,2" d="M475.474,-132.987C512.082,-135.565 577.438,-141.603 632,-154.31 639.191,-155.985 646.803,-158.331 653.828,-160.747"/>
<polygon fill="#9a32cd" stroke="#9a32cd" points="475.29,-129.467 465.079,-132.294 474.824,-136.451 475.29,-129.467"/>
<text text-anchor="middle" x="567" y="-158.31" font-family="Helvetica,sans-Serif" font-size="10.00"> m_metaKeyDown</text>
</g>
<!-- Node17 -->
<g id="node35" class="node"><title>Node17</title>
<polygon fill="white" stroke="#bfbfbf" points="410,-80.8104 410,-101.81 484,-101.81 484,-80.8104 410,-80.8104"/>
<text text-anchor="middle" x="447" y="-88.8104" font-family="Helvetica,sans-Serif" font-size="10.00">QTransform</text>
</g>
<!-- Node17&#45;&gt;Node2 -->
<g id="edge38" class="edge"><title>Node17&#45;&gt;Node2</title>
<path fill="none" stroke="#9a32cd" stroke-dasharray="5,2" d="M494.381,-89.7045C533.432,-90.3121 589.16,-95.7479 632,-118.31 650.849,-128.238 666.272,-148.352 674.507,-160.746"/>
<polygon fill="#9a32cd" stroke="#9a32cd" points="494.352,-86.2044 484.332,-89.6485 494.312,-93.2043 494.352,-86.2044"/>
<text text-anchor="middle" x="567" y="-122.31" font-family="Helvetica,sans-Serif" font-size="10.00"> m_trans</text>
</g>
<!-- Node18 -->
<g id="node37" class="node"><title>Node18</title>
<polygon fill="white" stroke="#bfbfbf" points="417.5,-40.8104 417.5,-61.8104 476.5,-61.8104 476.5,-40.8104 417.5,-40.8104"/>
<text text-anchor="middle" x="447" y="-48.8104" font-family="Helvetica,sans-Serif" font-size="10.00">unsigned</text>
</g>
<!-- Node18&#45;&gt;Node2 -->
<g id="edge40" class="edge"><title>Node18&#45;&gt;Node2</title>
<path fill="none" stroke="#9a32cd" stroke-dasharray="5,2" d="M486.587,-45.8061C526.866,-42.3758 589.282,-43.2782 632,-73.3104 662.189,-94.5342 674.763,-139.87 679.082,-160.585"/>
<polygon fill="#9a32cd" stroke="#9a32cd" points="486.21,-42.3262 476.599,-46.7841 486.893,-49.2929 486.21,-42.3262"/>
<text text-anchor="middle" x="567" y="-77.3104" font-family="Helvetica,sans-Serif" font-size="10.00"> m_turboModeSubscriptions</text>
</g>
<!-- Node19 -->
<g id="node39" class="node"><title>Node19</title>
<polygon fill="white" stroke="#bfbfbf" points="412.5,-0.810445 412.5,-21.8104 481.5,-21.8104 481.5,-0.810445 412.5,-0.810445"/>
<text text-anchor="middle" x="447" y="-8.81045" font-family="Helvetica,sans-Serif" font-size="10.00">Orientation</text>
</g>
<!-- Node19&#45;&gt;Node2 -->
<g id="edge42" class="edge"><title>Node19&#45;&gt;Node2</title>
<path fill="none" stroke="#9a32cd" stroke-dasharray="5,2" d="M491.684,-2.81251C532.554,2.29512 592.494,2.74232 632,-28.3104 653.664,-45.3389 672.758,-130.657 678.921,-160.768"/>
<polygon fill="#9a32cd" stroke="#9a32cd" points="491.152,0.647245 481.728,-4.19513 492.115,-6.28621 491.152,0.647245"/>
<text text-anchor="middle" x="567" y="-32.3104" font-family="Helvetica,sans-Serif" font-size="10.00"> m_orientation</text>
</g>
</g>
</svg>
