<?xml version="1.0" encoding="UTF-8" standalone="no"?>
<!DOCTYPE svg PUBLIC "-//W3C//DTD SVG 1.1//EN"
 "http://www.w3.org/Graphics/SVG/1.1/DTD/svg11.dtd">
<!-- Generated by graphviz version 2.26.3 (20100126.1600)
 -->
<!-- Title: Signal&lt; Arg0, Arg1, void, void, void &gt; Pages: 1 -->
<svg width="146pt" height="160pt"
 viewBox="0.00 0.00 146.00 160.00" xmlns="http://www.w3.org/2000/svg" xmlns:xlink="http://www.w3.org/1999/xlink">
<g id="graph1" class="graph" transform="scale(1 1) rotate(0) translate(4 156)">
<title>Signal&lt; Arg0, Arg1, void, void, void &gt;</title>
<polygon fill="white" stroke="white" points="-4,5 -4,-156 143,-156 143,5 -4,5"/>
<!-- Node1 -->
<g id="node1" class="node"><title>Node1</title>
<polygon fill="#bfbfbf" stroke="black" points="15.5,-1 15.5,-35 122.5,-35 122.5,-1 15.5,-1"/>
<text text-anchor="start" x="23.5" y="-22" font-family="Helvetica,sans-Serif" font-size="10.00">Signal&lt; Arg0, Arg1,</text>
<text text-anchor="middle" x="69" y="-9" font-family="Helvetica,sans-Serif" font-size="10.00"> void, void, void &gt;</text>
</g>
<!-- Node2 -->
<g id="node2" class="node"><title>Node2</title>
<a xlink:href="classSignalBase.htm" target="_top" xlink:title="SignalBase\&lt; Arg0, Arg1 \&gt;">
<polygon fill="white" stroke="black" points="0,-72.5 0,-93.5 138,-93.5 138,-72.5 0,-72.5"/>
<text text-anchor="middle" x="69" y="-80.5" font-family="Helvetica,sans-Serif" font-size="10.00">SignalBase&lt; Arg0, Arg1 &gt;</text>
</a>
</g>
<!-- Node2&#45;&gt;Node1 -->
<g id="edge2" class="edge"><title>Node2&#45;&gt;Node1</title>
<path fill="none" stroke="midnightblue" d="M69,-62.1306C69,-53.4049 69,-43.3908 69,-35.1099"/>
<polygon fill="midnightblue" stroke="midnightblue" points="65.5001,-62.2665 69,-72.2666 72.5001,-62.2666 65.5001,-62.2665"/>
</g>
<!-- Node3 -->
<g id="node4" class="node"><title>Node3</title>
<a xlink:href="classSender.htm" target="_top" xlink:title="Sender">
<polygon fill="white" stroke="black" points="43.5,-130.5 43.5,-151.5 94.5,-151.5 94.5,-130.5 43.5,-130.5"/>
<text text-anchor="middle" x="69" y="-138.5" font-family="Helvetica,sans-Serif" font-size="10.00">Sender</text>
</a>
</g>
<!-- Node3&#45;&gt;Node2 -->
<g id="edge4" class="edge"><title>Node3&#45;&gt;Node2</title>
<path fill="none" stroke="midnightblue" d="M69,-120.191C69,-111.168 69,-100.994 69,-93.5707"/>
<polygon fill="midnightblue" stroke="midnightblue" points="65.5001,-120.362 69,-130.362 72.5001,-120.362 65.5001,-120.362"/>
</g>
</g>
</svg>
