<?xml version="1.0" encoding="UTF-8" standalone="no"?>
<!DOCTYPE svg PUBLIC "-//W3C//DTD SVG 1.1//EN"
 "http://www.w3.org/Graphics/SVG/1.1/DTD/svg11.dtd">
<!-- Generated by graphviz version 2.26.3 (20100126.1600)
 -->
<!-- Title: Slot&lt; Receiver, Arg0, Arg1, Arg2, void, void &gt; Pages: 1 -->
<svg width="510pt" height="115pt"
 viewBox="0.00 0.00 510.00 115.00" xmlns="http://www.w3.org/2000/svg" xmlns:xlink="http://www.w3.org/1999/xlink">
<g id="graph1" class="graph" transform="scale(1 1) rotate(0) translate(4 111)">
<title>Slot&lt; Receiver, Arg0, Arg1, Arg2, void, void &gt;</title>
<polygon fill="white" stroke="white" points="-4,5 -4,-111 507,-111 507,5 -4,5"/>
<!-- Node1 -->
<g id="node1" class="node"><title>Node1</title>
<polygon fill="#bfbfbf" stroke="black" points="374,-52 374,-86 502,-86 502,-52 374,-52"/>
<text text-anchor="start" x="382" y="-73" font-family="Helvetica,sans-Serif" font-size="10.00">Slot&lt; Receiver, Arg0,</text>
<text text-anchor="middle" x="438" y="-60" font-family="Helvetica,sans-Serif" font-size="10.00"> Arg1, Arg2, void, void &gt;</text>
</g>
<!-- Node2 -->
<g id="node2" class="node"><title>Node2</title>
<a xlink:href="classSlotBase.htm" target="_top" xlink:title="SlotBase\&lt; Arg0, Arg1,\l Arg2 \&gt;">
<polygon fill="white" stroke="black" points="210,-73 210,-107 330,-107 330,-73 210,-73"/>
<text text-anchor="start" x="218" y="-94" font-family="Helvetica,sans-Serif" font-size="10.00">SlotBase&lt; Arg0, Arg1,</text>
<text text-anchor="middle" x="270" y="-81" font-family="Helvetica,sans-Serif" font-size="10.00"> Arg2 &gt;</text>
</a>
</g>
<!-- Node2&#45;&gt;Node1 -->
<g id="edge2" class="edge"><title>Node2&#45;&gt;Node1</title>
<path fill="none" stroke="midnightblue" d="M340.314,-81.2108C351.478,-79.8152 362.974,-78.3782 373.984,-77.002"/>
<polygon fill="midnightblue" stroke="midnightblue" points="339.666,-77.7644 330.177,-82.4778 340.534,-84.7104 339.666,-77.7644"/>
</g>
<!-- Node3 -->
<g id="node4" class="node"><title>Node3</title>
<a xlink:href="classFunctionWrapper.htm" target="_top" xlink:title="FunctionWrapper\&lt; void\l(Receiver::*)(Arg0, Arg1,\l Arg2)\&gt;">
<polygon fill="white" stroke="black" points="204,-7.5 204,-54.5 336,-54.5 336,-7.5 204,-7.5"/>
<text text-anchor="start" x="212" y="-41.5" font-family="Helvetica,sans-Serif" font-size="10.00">FunctionWrapper&lt; void</text>
<text text-anchor="start" x="212" y="-28.5" font-family="Helvetica,sans-Serif" font-size="10.00">(Receiver::*)(Arg0, Arg1,</text>
<text text-anchor="middle" x="270" y="-15.5" font-family="Helvetica,sans-Serif" font-size="10.00"> Arg2)&gt;</text>
</a>
</g>
<!-- Node3&#45;&gt;Node1 -->
<g id="edge4" class="edge"><title>Node3&#45;&gt;Node1</title>
<path fill="none" stroke="midnightblue" d="M346.282,-48.2543C355.455,-50.3291 364.752,-52.432 373.73,-54.4627"/>
<polygon fill="midnightblue" stroke="midnightblue" points="346.924,-44.8111 336.398,-46.0186 345.379,-51.6386 346.924,-44.8111"/>
</g>
<!-- Node4 -->
<g id="node6" class="node"><title>Node4</title>
<a xlink:href="classvoid_07Receiver_1_1_5_08_07Arg0_00_01Arg1_00_01Arg2_08.htm" target="_top" xlink:title="*)(Arg0, Arg1, Arg2)">
<polygon fill="white" stroke="black" points="0.5,-40.5 0.5,-61.5 111.5,-61.5 111.5,-40.5 0.5,-40.5"/>
<text text-anchor="middle" x="56" y="-48.5" font-family="Helvetica,sans-Serif" font-size="10.00">*)(Arg0, Arg1, Arg2)</text>
</a>
</g>
<!-- Node4&#45;&gt;Node3 -->
<g id="edge6" class="edge"><title>Node4&#45;&gt;Node3</title>
<path fill="none" stroke="#9a32cd" stroke-dasharray="5,2" d="M121.834,-44.8473C147.919,-42.4095 177.855,-39.6117 203.96,-37.172"/>
<polygon fill="#9a32cd" stroke="#9a32cd" points="121.298,-41.382 111.667,-45.7974 121.95,-48.3516 121.298,-41.382"/>
<text text-anchor="middle" x="158" y="-47" font-family="Helvetica,sans-Serif" font-size="10.00"> m_function</text>
</g>
<!-- Node5 -->
<g id="node8" class="node"><title>Node5</title>
<a xlink:href="classTrackable.htm" target="_top" xlink:title="Trackable">
<polygon fill="white" stroke="black" points="24.5,-0.5 24.5,-21.5 87.5,-21.5 87.5,-0.5 24.5,-0.5"/>
<text text-anchor="middle" x="56" y="-8.5" font-family="Helvetica,sans-Serif" font-size="10.00">Trackable</text>
</a>
</g>
<!-- Node5&#45;&gt;Node3 -->
<g id="edge8" class="edge"><title>Node5&#45;&gt;Node3</title>
<path fill="none" stroke="#9a32cd" stroke-dasharray="5,2" d="M97.6144,-14.2834C123.137,-16.3562 156.473,-19.1694 186,-22 191.84,-22.5599 197.906,-23.1645 203.984,-23.7862"/>
<polygon fill="#9a32cd" stroke="#9a32cd" points="97.7898,-10.7863 87.5407,-13.4707 97.2268,-17.7636 97.7898,-10.7863"/>
<text text-anchor="middle" x="158" y="-26" font-family="Helvetica,sans-Serif" font-size="10.00"> m_receiver</text>
</g>
</g>
</svg>
