<?xml version="1.0" encoding="UTF-8" standalone="no"?>
<!DOCTYPE svg PUBLIC "-//W3C//DTD SVG 1.1//EN"
 "http://www.w3.org/Graphics/SVG/1.1/DTD/svg11.dtd">
<!-- Generated by graphviz version 2.26.3 (20100126.1600)
 -->
<!-- Title: NYXLinearAccelearationSensorConnector Pages: 1 -->
<svg width="174pt" height="160pt"
 viewBox="0.00 0.00 174.00 160.00" xmlns="http://www.w3.org/2000/svg" xmlns:xlink="http://www.w3.org/1999/xlink">
<g id="graph1" class="graph" transform="scale(1 1) rotate(0) translate(4 156)">
<title>NYXLinearAccelearationSensorConnector</title>
<polygon fill="white" stroke="white" points="-4,5 -4,-156 171,-156 171,5 -4,5"/>
<!-- Node1 -->
<g id="node1" class="node"><title>Node1</title>
<polygon fill="#bfbfbf" stroke="black" points="0,-1 0,-35 166,-35 166,-1 0,-1"/>
<text text-anchor="start" x="8" y="-22" font-family="Helvetica,sans-Serif" font-size="10.00">NYXLinearAccelearationSensor</text>
<text text-anchor="middle" x="83" y="-9" font-family="Helvetica,sans-Serif" font-size="10.00">Connector</text>
</g>
<!-- Node2 -->
<g id="node2" class="node"><title>Node2</title>
<a xlink:href="classNYXConnectorBase.htm" target="_top" xlink:title="NYXConnectorBase">
<polygon fill="white" stroke="black" points="27.5,-72.5 27.5,-93.5 138.5,-93.5 138.5,-72.5 27.5,-72.5"/>
<text text-anchor="middle" x="83" y="-80.5" font-family="Helvetica,sans-Serif" font-size="10.00">NYXConnectorBase</text>
</a>
</g>
<!-- Node2&#45;&gt;Node1 -->
<g id="edge2" class="edge"><title>Node2&#45;&gt;Node1</title>
<path fill="none" stroke="midnightblue" d="M83,-62.1306C83,-53.4049 83,-43.3908 83,-35.1099"/>
<polygon fill="midnightblue" stroke="midnightblue" points="79.5001,-62.2665 83,-72.2666 86.5001,-62.2666 79.5001,-62.2665"/>
</g>
<!-- Node3 -->
<g id="node4" class="node"><title>Node3</title>
<a xlink:href="classQObject.htm" target="_top" xlink:title="QObject">
<polygon fill="white" stroke="black" points="55.5,-130.5 55.5,-151.5 110.5,-151.5 110.5,-130.5 55.5,-130.5"/>
<text text-anchor="middle" x="83" y="-138.5" font-family="Helvetica,sans-Serif" font-size="10.00">QObject</text>
</a>
</g>
<!-- Node3&#45;&gt;Node2 -->
<g id="edge4" class="edge"><title>Node3&#45;&gt;Node2</title>
<path fill="none" stroke="midnightblue" d="M83,-120.191C83,-111.168 83,-100.994 83,-93.5707"/>
<polygon fill="midnightblue" stroke="midnightblue" points="79.5001,-120.362 83,-130.362 86.5001,-120.362 79.5001,-120.362"/>
</g>
</g>
</svg>
