<?xml version="1.0" encoding="UTF-8" standalone="no"?>
<!DOCTYPE svg PUBLIC "-//W3C//DTD SVG 1.1//EN"
 "http://www.w3.org/Graphics/SVG/1.1/DTD/svg11.dtd">
<!-- Generated by graphviz version 2.26.3 (20100126.1600)
 -->
<!-- Title: Slot&lt; Receiver, Arg0, Arg1, void, void, void &gt; Pages: 1 -->
<svg width="292pt" height="116pt"
 viewBox="0.00 0.00 292.00 116.00" xmlns="http://www.w3.org/2000/svg" xmlns:xlink="http://www.w3.org/1999/xlink">
<g id="graph1" class="graph" transform="scale(1 1) rotate(0) translate(4 112)">
<title>Slot&lt; Receiver, Arg0, Arg1, void, void, void &gt;</title>
<polygon fill="white" stroke="white" points="-4,5 -4,-112 289,-112 289,5 -4,5"/>
<!-- Node1 -->
<g id="node1" class="node"><title>Node1</title>
<polygon fill="#bfbfbf" stroke="black" points="75.5,-1 75.5,-35 200.5,-35 200.5,-1 75.5,-1"/>
<text text-anchor="start" x="83.5" y="-22" font-family="Helvetica,sans-Serif" font-size="10.00">Slot&lt; Receiver, Arg0,</text>
<text text-anchor="middle" x="138" y="-9" font-family="Helvetica,sans-Serif" font-size="10.00"> Arg1, void, void, void &gt;</text>
</g>
<!-- Node2 -->
<g id="node2" class="node"><title>Node2</title>
<a xlink:href="classSlotBase.htm" target="_top" xlink:title="SlotBase\&lt; Arg0, Arg1 \&gt;">
<polygon fill="white" stroke="black" points="-0.5,-79.5 -0.5,-100.5 126.5,-100.5 126.5,-79.5 -0.5,-79.5"/>
<text text-anchor="middle" x="63" y="-87.5" font-family="Helvetica,sans-Serif" font-size="10.00">SlotBase&lt; Arg0, Arg1 &gt;</text>
</a>
</g>
<!-- Node2&#45;&gt;Node1 -->
<g id="edge2" class="edge"><title>Node2&#45;&gt;Node1</title>
<path fill="none" stroke="midnightblue" d="M81.6054,-72.1388C93.3959,-60.82 108.56,-46.2626 120.193,-35.0944"/>
<polygon fill="midnightblue" stroke="midnightblue" points="78.8565,-69.9259 74.0665,-79.3762 83.7043,-74.9757 78.8565,-69.9259"/>
</g>
<!-- Node3 -->
<g id="node4" class="node"><title>Node3</title>
<a xlink:href="classFunctionWrapper.htm" target="_top" xlink:title="FunctionWrapper\&lt; void\l(Receiver::*)(Arg0, Arg1)\&gt;">
<polygon fill="white" stroke="black" points="144,-73 144,-107 284,-107 284,-73 144,-73"/>
<text text-anchor="start" x="152" y="-94" font-family="Helvetica,sans-Serif" font-size="10.00">FunctionWrapper&lt; void</text>
<text text-anchor="middle" x="214" y="-81" font-family="Helvetica,sans-Serif" font-size="10.00">(Receiver::*)(Arg0, Arg1)&gt;</text>
</a>
</g>
<!-- Node3&#45;&gt;Node1 -->
<g id="edge4" class="edge"><title>Node3&#45;&gt;Node1</title>
<path fill="none" stroke="midnightblue" d="M188.57,-65.9083C177.946,-55.8438 165.845,-44.3799 156.145,-35.19"/>
<polygon fill="midnightblue" stroke="midnightblue" points="186.322,-68.6004 195.989,-72.937 191.137,-63.5187 186.322,-68.6004"/>
</g>
</g>
</svg>
