<?xml version="1.0" encoding="UTF-8" standalone="no"?>
<!DOCTYPE svg PUBLIC "-//W3C//DTD SVG 1.1//EN"
 "http://www.w3.org/Graphics/SVG/1.1/DTD/svg11.dtd">
<!-- Generated by graphviz version 2.26.3 (20100126.1600)
 -->
<!-- Title: NYXLogicalAccelerometerSensorConnector Pages: 1 -->
<svg width="946pt" height="367pt"
 viewBox="0.00 0.00 946.00 367.05" xmlns="http://www.w3.org/2000/svg" xmlns:xlink="http://www.w3.org/1999/xlink">
<g id="graph1" class="graph" transform="scale(1 1) rotate(0) translate(4 363.049)">
<title>NYXLogicalAccelerometerSensorConnector</title>
<polygon fill="white" stroke="white" points="-4,5 -4,-363.049 943,-363.049 943,5 -4,5"/>
<!-- Node1 -->
<g id="node1" class="node"><title>Node1</title>
<polygon fill="#bfbfbf" stroke="black" points="764.5,-145.049 764.5,-179.049 937.5,-179.049 937.5,-145.049 764.5,-145.049"/>
<text text-anchor="start" x="772.5" y="-166.049" font-family="Helvetica,sans-Serif" font-size="10.00">NYXLogicalAccelerometerSensor</text>
<text text-anchor="middle" x="851" y="-153.049" font-family="Helvetica,sans-Serif" font-size="10.00">Connector</text>
</g>
<!-- Node2 -->
<g id="node2" class="node"><title>Node2</title>
<a xlink:href="classNYXLogicalSensorConnectorBase.htm" target="_top" xlink:title="NYXLogicalSensorConnectorBase">
<polygon fill="white" stroke="black" points="546.5,-151.549 546.5,-172.549 725.5,-172.549 725.5,-151.549 546.5,-151.549"/>
<text text-anchor="middle" x="636" y="-159.549" font-family="Helvetica,sans-Serif" font-size="10.00">NYXLogicalSensorConnectorBase</text>
</a>
</g>
<!-- Node2&#45;&gt;Node1 -->
<g id="edge2" class="edge"><title>Node2&#45;&gt;Node1</title>
<path fill="none" stroke="midnightblue" d="M735.874,-162.049C745.363,-162.049 754.931,-162.049 764.282,-162.049"/>
<polygon fill="midnightblue" stroke="midnightblue" points="735.623,-158.549 725.623,-162.049 735.622,-165.549 735.623,-158.549"/>
</g>
<!-- Node3 -->
<g id="node4" class="node"><title>Node3</title>
<a xlink:href="classNYXConnectorBase.htm" target="_top" xlink:title="NYXConnectorBase">
<polygon fill="white" stroke="black" points="302.5,-174.549 302.5,-195.549 413.5,-195.549 413.5,-174.549 302.5,-174.549"/>
<text text-anchor="middle" x="358" y="-182.549" font-family="Helvetica,sans-Serif" font-size="10.00">NYXConnectorBase</text>
</a>
</g>
<!-- Node3&#45;&gt;Node2 -->
<g id="edge4" class="edge"><title>Node3&#45;&gt;Node2</title>
<path fill="none" stroke="midnightblue" d="M423.652,-179.617C460.268,-176.588 506.402,-172.771 546.307,-169.47"/>
<polygon fill="midnightblue" stroke="midnightblue" points="423.267,-176.137 413.589,-180.45 423.844,-183.113 423.267,-176.137"/>
</g>
<!-- Node4 -->
<g id="node6" class="node"><title>Node4</title>
<a xlink:href="classQObject.htm" target="_top" xlink:title="QObject">
<polygon fill="white" stroke="black" points="38.5,-337.549 38.5,-358.549 93.5,-358.549 93.5,-337.549 38.5,-337.549"/>
<text text-anchor="middle" x="66" y="-345.549" font-family="Helvetica,sans-Serif" font-size="10.00">QObject</text>
</a>
</g>
<!-- Node4&#45;&gt;Node3 -->
<g id="edge6" class="edge"><title>Node4&#45;&gt;Node3</title>
<path fill="none" stroke="midnightblue" d="M103.868,-351.15C144.344,-352.669 209.025,-349.788 256,-322.049 308.089,-291.291 341.932,-222.557 353.532,-195.903"/>
<polygon fill="midnightblue" stroke="midnightblue" points="103.785,-347.641 93.6265,-350.651 103.445,-354.633 103.785,-347.641"/>
</g>
<!-- Node5 -->
<g id="node8" class="node"><title>Node5</title>
<polygon fill="white" stroke="#bfbfbf" points="19.5,-297.549 19.5,-318.549 112.5,-318.549 112.5,-297.549 19.5,-297.549"/>
<text text-anchor="middle" x="66" y="-305.549" font-family="Helvetica,sans-Serif" font-size="10.00">nyx_device_id_t</text>
</g>
<!-- Node5&#45;&gt;Node3 -->
<g id="edge8" class="edge"><title>Node5&#45;&gt;Node3</title>
<path fill="none" stroke="#9a32cd" stroke-dasharray="5,2" d="M122.916,-307.987C162.065,-305.926 214.312,-299.085 256,-279.049 297.89,-258.915 334.592,-215.712 350.119,-195.668"/>
<polygon fill="#9a32cd" stroke="#9a32cd" points="122.589,-304.498 112.751,-308.431 122.894,-311.491 122.589,-304.498"/>
<text text-anchor="middle" x="203" y="-309.049" font-family="Helvetica,sans-Serif" font-size="10.00"> m_NYXDeviceId</text>
</g>
<!-- Node6 -->
<g id="node10" class="node"><title>Node6</title>
<polygon fill="white" stroke="#bfbfbf" points="16.5,-257.549 16.5,-278.549 115.5,-278.549 115.5,-257.549 16.5,-257.549"/>
<text text-anchor="middle" x="66" y="-265.549" font-family="Helvetica,sans-Serif" font-size="10.00">QSocketNotifier *</text>
</g>
<!-- Node6&#45;&gt;Node3 -->
<g id="edge10" class="edge"><title>Node6&#45;&gt;Node3</title>
<path fill="none" stroke="#9a32cd" stroke-dasharray="5,2" d="M125.966,-265.569C164.025,-262.609 213.864,-256.143 256,-242.049 289.282,-230.916 324.163,-208.799 343.282,-195.628"/>
<polygon fill="#9a32cd" stroke="#9a32cd" points="125.284,-262.108 115.56,-266.314 125.784,-269.09 125.284,-262.108"/>
<text text-anchor="middle" x="203" y="-266.049" font-family="Helvetica,sans-Serif" font-size="10.00"> m_NYXSensorNotifier</text>
</g>
<!-- Node7 -->
<g id="node12" class="node"><title>Node7</title>
<polygon fill="white" stroke="#bfbfbf" points="51.5,-212.549 51.5,-233.549 80.5,-233.549 80.5,-212.549 51.5,-212.549"/>
<text text-anchor="middle" x="66" y="-220.549" font-family="Helvetica,sans-Serif" font-size="10.00">int</text>
</g>
<!-- Node7&#45;&gt;Node3 -->
<g id="edge12" class="edge"><title>Node7&#45;&gt;Node3</title>
<path fill="none" stroke="#9a32cd" stroke-dasharray="5,2" d="M90.9466,-219.985C127.274,-215.503 196.852,-206.844 256,-199.049 271.063,-197.064 287.368,-194.854 302.43,-192.787"/>
<polygon fill="#9a32cd" stroke="#9a32cd" points="90.2856,-216.539 80.7886,-221.236 91.1415,-223.487 90.2856,-216.539"/>
<text text-anchor="middle" x="203" y="-229.049" font-family="Helvetica,sans-Serif" font-size="10.00"> m_SensorFD</text>
<text text-anchor="middle" x="203" y="-216.049" font-family="Helvetica,sans-Serif" font-size="10.00">m_OrientationAngle</text>
</g>
<!-- Node8 -->
<g id="node14" class="node"><title>Node8</title>
<polygon fill="white" stroke="#bfbfbf" points="41,-172.549 41,-193.549 91,-193.549 91,-172.549 41,-172.549"/>
<text text-anchor="middle" x="66" y="-180.549" font-family="Helvetica,sans-Serif" font-size="10.00">Sensor</text>
</g>
<!-- Node8&#45;&gt;Node3 -->
<g id="edge14" class="edge"><title>Node8&#45;&gt;Node3</title>
<path fill="none" stroke="#9a32cd" stroke-dasharray="5,2" d="M101.457,-183.292C151.482,-183.635 243.265,-184.263 302.408,-184.668"/>
<polygon fill="#9a32cd" stroke="#9a32cd" points="101.172,-179.79 91.1485,-183.221 101.124,-186.79 101.172,-179.79"/>
<text text-anchor="middle" x="203" y="-188.049" font-family="Helvetica,sans-Serif" font-size="10.00"> m_SensorType</text>
</g>
<!-- Node9 -->
<g id="node16" class="node"><title>Node9</title>
<polygon fill="white" stroke="#bfbfbf" points="48,-129.549 48,-150.549 84,-150.549 84,-129.549 48,-129.549"/>
<text text-anchor="middle" x="66" y="-137.549" font-family="Helvetica,sans-Serif" font-size="10.00">bool</text>
</g>
<!-- Node9&#45;&gt;Node3 -->
<g id="edge16" class="edge"><title>Node9&#45;&gt;Node3</title>
<path fill="none" stroke="#9a32cd" stroke-dasharray="5,2" d="M94.4435,-137.537C132.391,-135.175 201.163,-134.379 256,-153.049 265.102,-156.148 265.185,-161.209 274,-165.049 282.933,-168.941 292.745,-172.146 302.414,-174.762"/>
<polygon fill="#9a32cd" stroke="#9a32cd" points="93.8781,-134.068 84.15,-138.265 94.3721,-141.051 93.8781,-134.068"/>
<text text-anchor="middle" x="203" y="-170.049" font-family="Helvetica,sans-Serif" font-size="10.00"> m_Finished</text>
<text text-anchor="middle" x="203" y="-157.049" font-family="Helvetica,sans-Serif" font-size="10.00">m_CanPostEvent</text>
</g>
<!-- Node10 -->
<g id="node18" class="node"><title>Node10</title>
<polygon fill="white" stroke="#bfbfbf" points="7.5,-89.549 7.5,-110.549 124.5,-110.549 124.5,-89.549 7.5,-89.549"/>
<text text-anchor="middle" x="66" y="-97.549" font-family="Helvetica,sans-Serif" font-size="10.00">nyx_device_handle_t</text>
</g>
<!-- Node10&#45;&gt;Node3 -->
<g id="edge18" class="edge"><title>Node10&#45;&gt;Node3</title>
<path fill="none" stroke="#9a32cd" stroke-dasharray="5,2" d="M135.134,-90.8575C174.257,-89.3973 222.003,-94.3341 256,-120.049 273.18,-133.044 257.693,-150.975 274,-165.049 282.058,-172.003 292.107,-176.638 302.424,-179.706"/>
<polygon fill="#9a32cd" stroke="#9a32cd" points="134.672,-87.3767 124.868,-91.3919 135.036,-94.3672 134.672,-87.3767"/>
<text text-anchor="middle" x="203" y="-124.049" font-family="Helvetica,sans-Serif" font-size="10.00"> m_Handle</text>
</g>
<!-- Node11 -->
<g id="node20" class="node"><title>Node11</title>
<polygon fill="white" stroke="#bfbfbf" points="13.5,-49.549 13.5,-70.549 118.5,-70.549 118.5,-49.549 13.5,-49.549"/>
<text text-anchor="middle" x="66" y="-57.549" font-family="Helvetica,sans-Serif" font-size="10.00">nyx_device_type_t</text>
</g>
<!-- Node11&#45;&gt;Node3 -->
<g id="edge20" class="edge"><title>Node11&#45;&gt;Node3</title>
<path fill="none" stroke="#9a32cd" stroke-dasharray="5,2" d="M120.298,-47.9619C162.435,-41.9907 219.62,-41.8481 256,-74.049 286.872,-101.374 245.413,-135.341 274,-165.049 281.588,-172.935 291.679,-177.949 302.228,-181.089"/>
<polygon fill="#9a32cd" stroke="#9a32cd" points="119.54,-44.5379 110.202,-49.543 120.623,-51.4536 119.54,-44.5379"/>
<text text-anchor="middle" x="203" y="-78.049" font-family="Helvetica,sans-Serif" font-size="10.00"> m_NYXDeviceType</text>
</g>
<!-- Node12 -->
<g id="node22" class="node"><title>Node12</title>
<a xlink:href="classNYXConnectorObserver.htm" target="_top" xlink:title="NYXConnectorObserver">
<polygon fill="white" stroke="black" points="0.5,-9.54902 0.5,-30.549 131.5,-30.549 131.5,-9.54902 0.5,-9.54902"/>
<text text-anchor="middle" x="66" y="-17.549" font-family="Helvetica,sans-Serif" font-size="10.00">NYXConnectorObserver</text>
</a>
</g>
<!-- Node12&#45;&gt;Node3 -->
<g id="edge22" class="edge"><title>Node12&#45;&gt;Node3</title>
<path fill="none" stroke="#9a32cd" stroke-dasharray="5,2" d="M111.044,-7.23958C153.915,1.94071 217.443,7.23656 256,-28.049 301.305,-69.5092 232.87,-119.444 274,-165.049 281.43,-173.287 291.583,-178.434 302.264,-181.588"/>
<polygon fill="#9a32cd" stroke="#9a32cd" points="110.122,-3.86006 101.155,-9.50349 111.684,-10.6835 110.122,-3.86006"/>
<text text-anchor="middle" x="203" y="-32.049" font-family="Helvetica,sans-Serif" font-size="10.00"> m_Observer</text>
</g>
<!-- Node13 -->
<g id="node24" class="node"><title>Node13</title>
<polygon fill="white" stroke="#bfbfbf" points="274.5,-134.549 274.5,-155.549 441.5,-155.549 441.5,-134.549 274.5,-134.549"/>
<text text-anchor="middle" x="358" y="-142.549" font-family="Helvetica,sans-Serif" font-size="10.00">vector&lt; NYXConnectorBase * &gt;</text>
</g>
<!-- Node13&#45;&gt;Node2 -->
<g id="edge24" class="edge"><title>Node13&#45;&gt;Node2</title>
<path fill="none" stroke="#9a32cd" stroke-dasharray="5,2" d="M452.022,-148.06C476.751,-149.088 503.391,-150.404 528,-152.049 534.012,-152.451 540.209,-152.909 546.45,-153.402"/>
<polygon fill="#9a32cd" stroke="#9a32cd" points="452.053,-144.559 441.919,-147.652 451.77,-151.553 452.053,-144.559"/>
<text text-anchor="middle" x="494" y="-156.049" font-family="Helvetica,sans-Serif" font-size="10.00"> m_SensorList</text>
</g>
</g>
</svg>
