<?xml version="1.0" encoding="UTF-8" standalone="no"?>
<!DOCTYPE svg PUBLIC "-//W3C//DTD SVG 1.1//EN"
 "http://www.w3.org/Graphics/SVG/1.1/DTD/svg11.dtd">
<!-- Generated by graphviz version 2.26.3 (20100126.1600)
 -->
<!-- Title: ApplicationDescription Pages: 1 -->
<svg width="277pt" height="214pt"
 viewBox="0.00 0.00 277.00 214.00" xmlns="http://www.w3.org/2000/svg" xmlns:xlink="http://www.w3.org/1999/xlink">
<g id="graph1" class="graph" transform="scale(1 1) rotate(0) translate(4 210)">
<title>ApplicationDescription</title>
<polygon fill="white" stroke="white" points="-4,5 -4,-210 274,-210 274,5 -4,5"/>
<!-- Node1 -->
<g id="node1" class="node"><title>Node1</title>
<polygon fill="#bfbfbf" stroke="black" points="12,-0.5 12,-21.5 134,-21.5 134,-0.5 12,-0.5"/>
<text text-anchor="middle" x="73" y="-8.5" font-family="Helvetica,sans-Serif" font-size="10.00">ApplicationDescription</text>
</g>
<!-- Node2 -->
<g id="node2" class="node"><title>Node2</title>
<a xlink:href="classApplicationDescriptionBase.htm" target="_top" xlink:title="ApplicationDescriptionBase">
<polygon fill="white" stroke="black" points="0,-60.5 0,-81.5 146,-81.5 146,-60.5 0,-60.5"/>
<text text-anchor="middle" x="73" y="-68.5" font-family="Helvetica,sans-Serif" font-size="10.00">ApplicationDescriptionBase</text>
</a>
</g>
<!-- Node2&#45;&gt;Node1 -->
<g id="edge2" class="edge"><title>Node2&#45;&gt;Node1</title>
<path fill="none" stroke="midnightblue" d="M73,-50.2312C73,-40.5922 73,-29.5444 73,-21.6339"/>
<polygon fill="midnightblue" stroke="midnightblue" points="69.5001,-50.2732 73,-60.2732 76.5001,-50.2732 69.5001,-50.2732"/>
</g>
<!-- Node3 -->
<g id="node4" class="node"><title>Node3</title>
<polygon fill="white" stroke="#bfbfbf" points="7,-184.5 7,-205.5 43,-205.5 43,-184.5 7,-184.5"/>
<text text-anchor="middle" x="25" y="-192.5" font-family="Helvetica,sans-Serif" font-size="10.00">bool</text>
</g>
<!-- Node3&#45;&gt;Node2 -->
<g id="edge4" class="edge"><title>Node3&#45;&gt;Node2</title>
<path fill="none" stroke="#9a32cd" stroke-dasharray="5,2" d="M19.8007,-174.432C15.8551,-154.134 13.0624,-122.901 26,-100 30.4331,-92.1529 37.9475,-86.1586 45.6827,-81.7144"/>
<polygon fill="#9a32cd" stroke="#9a32cd" points="16.4419,-175.454 22.0188,-184.462 23.2767,-173.942 16.4419,-175.454"/>
<text text-anchor="middle" x="62.5" y="-130.5" font-family="Helvetica,sans-Serif" font-size="10.00"> m_isHeadLess</text>
</g>
<!-- Node4 -->
<g id="node6" class="node"><title>Node4</title>
<polygon fill="white" stroke="#bfbfbf" points="99.5,-184.5 99.5,-205.5 142.5,-205.5 142.5,-184.5 99.5,-184.5"/>
<text text-anchor="middle" x="121" y="-192.5" font-family="Helvetica,sans-Serif" font-size="10.00">string</text>
</g>
<!-- Node4&#45;&gt;Node2 -->
<g id="edge6" class="edge"><title>Node4&#45;&gt;Node2</title>
<path fill="none" stroke="#9a32cd" stroke-dasharray="5,2" d="M119.214,-174.287C116.816,-154.317 111.325,-123.719 99,-100 95.4455,-93.1598 89.9009,-86.6609 84.8434,-81.5557"/>
<polygon fill="#9a32cd" stroke="#9a32cd" points="115.753,-174.848 120.274,-184.43 122.715,-174.12 115.753,-174.848"/>
<text text-anchor="middle" x="193" y="-156.5" font-family="Helvetica,sans-Serif" font-size="10.00"> m_title</text>
<text text-anchor="middle" x="193" y="-143.5" font-family="Helvetica,sans-Serif" font-size="10.00">m_icon</text>
<text text-anchor="middle" x="193" y="-130.5" font-family="Helvetica,sans-Serif" font-size="10.00">m_entryPoint</text>
<text text-anchor="middle" x="193" y="-117.5" font-family="Helvetica,sans-Serif" font-size="10.00">m_requestedWindowOrientation</text>
<text text-anchor="middle" x="193" y="-104.5" font-family="Helvetica,sans-Serif" font-size="10.00">m_id</text>
</g>
</g>
</svg>
