<?xml version="1.0" encoding="UTF-8" standalone="no"?>
<!DOCTYPE svg PUBLIC "-//W3C//DTD SVG 1.1//EN"
 "http://www.w3.org/Graphics/SVG/1.1/DTD/svg11.dtd">
<!-- Generated by graphviz version 2.26.3 (20100126.1600)
 -->
<!-- Title: FunctionWrapper&lt; Function &gt; Pages: 1 -->
<svg width="164pt" height="102pt"
 viewBox="0.00 0.00 164.00 102.00" xmlns="http://www.w3.org/2000/svg" xmlns:xlink="http://www.w3.org/1999/xlink">
<g id="graph1" class="graph" transform="scale(1 1) rotate(0) translate(4 98)">
<title>FunctionWrapper&lt; Function &gt;</title>
<polygon fill="white" stroke="white" points="-4,5 -4,-98 161,-98 161,5 -4,5"/>
<!-- Node1 -->
<g id="node1" class="node"><title>Node1</title>
<polygon fill="#bfbfbf" stroke="black" points="-0.5,-0.5 -0.5,-21.5 154.5,-21.5 154.5,-0.5 -0.5,-0.5"/>
<text text-anchor="middle" x="77" y="-8.5" font-family="Helvetica,sans-Serif" font-size="10.00">FunctionWrapper&lt; Function &gt;</text>
</g>
<!-- Node2 -->
<g id="node2" class="node"><title>Node2</title>
<polygon fill="white" stroke="#bfbfbf" points="10,-72.5 10,-93.5 66,-93.5 66,-72.5 10,-72.5"/>
<text text-anchor="middle" x="38" y="-80.5" font-family="Helvetica,sans-Serif" font-size="10.00">Function</text>
</g>
<!-- Node2&#45;&gt;Node1 -->
<g id="edge2" class="edge"><title>Node2&#45;&gt;Node1</title>
<path fill="none" stroke="#9a32cd" stroke-dasharray="5,2" d="M34.8982,-62.4348C34.6801,-55.0121 35.5389,-46.7953 39,-40 42.8418,-32.4572 49.6548,-26.3212 56.4614,-21.6685"/>
<polygon fill="#9a32cd" stroke="#9a32cd" points="31.4206,-62.8411 35.8105,-72.4836 38.3919,-62.2081 31.4206,-62.8411"/>
<text text-anchor="middle" x="66.5" y="-44.5" font-family="Helvetica,sans-Serif" font-size="10.00"> m_function</text>
</g>
<!-- Node3 -->
<g id="node4" class="node"><title>Node3</title>
<a xlink:href="classTrackable.htm" target="_top" xlink:title="Trackable">
<polygon fill="white" stroke="black" points="84.5,-72.5 84.5,-93.5 147.5,-93.5 147.5,-72.5 84.5,-72.5"/>
<text text-anchor="middle" x="116" y="-80.5" font-family="Helvetica,sans-Serif" font-size="10.00">Trackable</text>
</a>
</g>
<!-- Node3&#45;&gt;Node1 -->
<g id="edge4" class="edge"><title>Node3&#45;&gt;Node1</title>
<path fill="none" stroke="#9a32cd" stroke-dasharray="5,2" d="M106.132,-63.1275C102.419,-55.8087 98.1023,-47.4815 94,-40 90.6329,-33.8593 86.6871,-27.1035 83.445,-21.6584"/>
<polygon fill="#9a32cd" stroke="#9a32cd" points="103.127,-64.9433 110.743,-72.3084 109.382,-61.8013 103.127,-64.9433"/>
<text text-anchor="middle" x="128" y="-44.5" font-family="Helvetica,sans-Serif" font-size="10.00"> m_receiver</text>
</g>
</g>
</svg>
