<?xml version="1.0" encoding="UTF-8" standalone="no"?>
<!DOCTYPE svg PUBLIC "-//W3C//DTD SVG 1.1//EN"
 "http://www.w3.org/Graphics/SVG/1.1/DTD/svg11.dtd">
<!-- Generated by graphviz version 2.26.3 (20100126.1600)
 -->
<!-- Title: Slot&lt; Receiver, Arg0, void, void, void, void &gt; Pages: 1 -->
<svg width="250pt" height="116pt"
 viewBox="0.00 0.00 250.00 116.00" xmlns="http://www.w3.org/2000/svg" xmlns:xlink="http://www.w3.org/1999/xlink">
<g id="graph1" class="graph" transform="scale(1 1) rotate(0) translate(4 112)">
<title>Slot&lt; Receiver, Arg0, void, void, void, void &gt;</title>
<polygon fill="white" stroke="white" points="-4,5 -4,-112 247,-112 247,5 -4,5"/>
<!-- Node1 -->
<g id="node1" class="node"><title>Node1</title>
<polygon fill="#bfbfbf" stroke="black" points="53,-1 53,-35 175,-35 175,-1 53,-1"/>
<text text-anchor="start" x="61" y="-22" font-family="Helvetica,sans-Serif" font-size="10.00">Slot&lt; Receiver, Arg0,</text>
<text text-anchor="middle" x="114" y="-9" font-family="Helvetica,sans-Serif" font-size="10.00"> void, void, void, void &gt;</text>
</g>
<!-- Node2 -->
<g id="node2" class="node"><title>Node2</title>
<a xlink:href="classSlotBase.htm" target="_top" xlink:title="SlotBase\&lt; Arg0 \&gt;">
<polygon fill="white" stroke="black" points="-0.5,-79.5 -0.5,-100.5 98.5,-100.5 98.5,-79.5 -0.5,-79.5"/>
<text text-anchor="middle" x="49" y="-87.5" font-family="Helvetica,sans-Serif" font-size="10.00">SlotBase&lt; Arg0 &gt;</text>
</a>
</g>
<!-- Node2&#45;&gt;Node1 -->
<g id="edge2" class="edge"><title>Node2&#45;&gt;Node1</title>
<path fill="none" stroke="midnightblue" d="M65.4202,-71.8114C75.5955,-60.5403 88.5821,-46.1552 98.5676,-35.0944"/>
<polygon fill="midnightblue" stroke="midnightblue" points="62.6941,-69.6081 58.591,-79.3762 67.89,-74.2988 62.6941,-69.6081"/>
</g>
<!-- Node3 -->
<g id="node4" class="node"><title>Node3</title>
<a xlink:href="classFunctionWrapper.htm" target="_top" xlink:title="FunctionWrapper\&lt; void\l(Receiver::*)(Arg0)\&gt;">
<polygon fill="white" stroke="black" points="116,-73 116,-107 242,-107 242,-73 116,-73"/>
<text text-anchor="start" x="124" y="-94" font-family="Helvetica,sans-Serif" font-size="10.00">FunctionWrapper&lt; void</text>
<text text-anchor="middle" x="179" y="-81" font-family="Helvetica,sans-Serif" font-size="10.00">(Receiver::*)(Arg0)&gt;</text>
</a>
</g>
<!-- Node3&#45;&gt;Node1 -->
<g id="edge4" class="edge"><title>Node3&#45;&gt;Node1</title>
<path fill="none" stroke="midnightblue" d="M156.772,-65.3785C147.886,-55.5349 137.857,-44.4262 129.745,-35.4407"/>
<polygon fill="midnightblue" stroke="midnightblue" points="154.297,-67.8597 163.596,-72.937 159.493,-63.1689 154.297,-67.8597"/>
</g>
</g>
</svg>
