<?xml version="1.0" encoding="UTF-8" standalone="no"?>
<!DOCTYPE svg PUBLIC "-//W3C//DTD SVG 1.1//EN"
 "http://www.w3.org/Graphics/SVG/1.1/DTD/svg11.dtd">
<!-- Generated by graphviz version 2.26.3 (20100126.1600)
 -->
<!-- Title: ApplicationDescriptionBase Pages: 1 -->
<svg width="277pt" height="154pt"
 viewBox="0.00 0.00 277.00 154.00" xmlns="http://www.w3.org/2000/svg" xmlns:xlink="http://www.w3.org/1999/xlink">
<g id="graph1" class="graph" transform="scale(1 1) rotate(0) translate(4 150)">
<title>ApplicationDescriptionBase</title>
<polygon fill="white" stroke="white" points="-4,5 -4,-150 274,-150 274,5 -4,5"/>
<!-- Node1 -->
<g id="node1" class="node"><title>Node1</title>
<polygon fill="#bfbfbf" stroke="black" points="0,-0.5 0,-21.5 146,-21.5 146,-0.5 0,-0.5"/>
<text text-anchor="middle" x="73" y="-8.5" font-family="Helvetica,sans-Serif" font-size="10.00">ApplicationDescriptionBase</text>
</g>
<!-- Node2 -->
<g id="node2" class="node"><title>Node2</title>
<polygon fill="white" stroke="#bfbfbf" points="7,-124.5 7,-145.5 43,-145.5 43,-124.5 7,-124.5"/>
<text text-anchor="middle" x="25" y="-132.5" font-family="Helvetica,sans-Serif" font-size="10.00">bool</text>
</g>
<!-- Node2&#45;&gt;Node1 -->
<g id="edge2" class="edge"><title>Node2&#45;&gt;Node1</title>
<path fill="none" stroke="#9a32cd" stroke-dasharray="5,2" d="M19.8007,-114.432C15.8551,-94.1341 13.0624,-62.9009 26,-40 30.4331,-32.1529 37.9475,-26.1586 45.6827,-21.7144"/>
<polygon fill="#9a32cd" stroke="#9a32cd" points="16.4419,-115.454 22.0188,-124.462 23.2767,-113.942 16.4419,-115.454"/>
<text text-anchor="middle" x="62.5" y="-70.5" font-family="Helvetica,sans-Serif" font-size="10.00"> m_isHeadLess</text>
</g>
<!-- Node3 -->
<g id="node4" class="node"><title>Node3</title>
<polygon fill="white" stroke="#bfbfbf" points="99.5,-124.5 99.5,-145.5 142.5,-145.5 142.5,-124.5 99.5,-124.5"/>
<text text-anchor="middle" x="121" y="-132.5" font-family="Helvetica,sans-Serif" font-size="10.00">string</text>
</g>
<!-- Node3&#45;&gt;Node1 -->
<g id="edge4" class="edge"><title>Node3&#45;&gt;Node1</title>
<path fill="none" stroke="#9a32cd" stroke-dasharray="5,2" d="M119.214,-114.287C116.816,-94.3174 111.325,-63.7189 99,-40 95.4455,-33.1598 89.9009,-26.6609 84.8434,-21.5557"/>
<polygon fill="#9a32cd" stroke="#9a32cd" points="115.753,-114.848 120.274,-124.43 122.715,-114.12 115.753,-114.848"/>
<text text-anchor="middle" x="193" y="-96.5" font-family="Helvetica,sans-Serif" font-size="10.00"> m_title</text>
<text text-anchor="middle" x="193" y="-83.5" font-family="Helvetica,sans-Serif" font-size="10.00">m_icon</text>
<text text-anchor="middle" x="193" y="-70.5" font-family="Helvetica,sans-Serif" font-size="10.00">m_entryPoint</text>
<text text-anchor="middle" x="193" y="-57.5" font-family="Helvetica,sans-Serif" font-size="10.00">m_requestedWindowOrientation</text>
<text text-anchor="middle" x="193" y="-44.5" font-family="Helvetica,sans-Serif" font-size="10.00">m_id</text>
</g>
</g>
</svg>
