<?xml version="1.0" encoding="UTF-8" standalone="no"?>
<!DOCTYPE svg PUBLIC "-//W3C//DTD SVG 1.1//EN"
 "http://www.w3.org/Graphics/SVG/1.1/DTD/svg11.dtd">
<!-- Generated by graphviz version 2.26.3 (20100126.1600)
 -->
<!-- Title: CustomEvents.h Pages: 1 -->
<svg width="1700pt" height="262pt"
 viewBox="0.00 0.00 1700.36 262.00" xmlns="http://www.w3.org/2000/svg" xmlns:xlink="http://www.w3.org/1999/xlink">
<g id="graph1" class="graph" transform="scale(1 1) rotate(0) translate(4 258)">
<title>CustomEvents.h</title>
<polygon fill="white" stroke="white" points="-4,5 -4,-258 1697.36,-258 1697.36,5 -4,5"/>
<!-- Node1 -->
<g id="node1" class="node"><title>Node1</title>
<polygon fill="#bfbfbf" stroke="black" points="977,-232.5 977,-253.5 1069,-253.5 1069,-232.5 977,-232.5"/>
<text text-anchor="middle" x="1023" y="-240.5" font-family="Helvetica,sans-Serif" font-size="10.00">CustomEvents.h</text>
</g>
<!-- Node2 -->
<g id="node3" class="node"><title>Node2</title>
<a xlink:href="HostArm_8cpp.htm" target="_top" xlink:title="HostArm.cpp">
<polygon fill="white" stroke="black" points="931.5,-58.5 931.5,-79.5 1008.5,-79.5 1008.5,-58.5 931.5,-58.5"/>
<text text-anchor="middle" x="970" y="-66.5" font-family="Helvetica,sans-Serif" font-size="10.00">HostArm.cpp</text>
</a>
</g>
<!-- Node1&#45;&gt;Node2 -->
<g id="edge2" class="edge"><title>Node1&#45;&gt;Node2</title>
<path fill="none" stroke="midnightblue" d="M1016.81,-222.679C1005.54,-185.674 982.026,-108.483 973.329,-79.9277"/>
<polygon fill="midnightblue" stroke="midnightblue" points="1013.5,-223.831 1019.76,-232.377 1020.2,-221.792 1013.5,-223.831"/>
</g>
<!-- Node4 -->
<g id="node7" class="node"><title>Node4</title>
<a xlink:href="HostArm_8h.htm" target="_top" xlink:title="HostArm.h">
<polygon fill="white" stroke="black" points="690.5,-116.5 690.5,-137.5 755.5,-137.5 755.5,-116.5 690.5,-116.5"/>
<text text-anchor="middle" x="723" y="-124.5" font-family="Helvetica,sans-Serif" font-size="10.00">HostArm.h</text>
</a>
</g>
<!-- Node1&#45;&gt;Node4 -->
<g id="edge6" class="edge"><title>Node1&#45;&gt;Node4</title>
<path fill="none" stroke="midnightblue" d="M985.946,-228.673C924.814,-205.035 804.227,-158.408 750.246,-137.535"/>
<polygon fill="midnightblue" stroke="midnightblue" points="984.992,-232.056 995.582,-232.398 987.517,-225.527 984.992,-232.056"/>
</g>
<!-- Node12 -->
<g id="node25" class="node"><title>Node12</title>
<a xlink:href="HostQtDesktop_8cpp.htm" target="_top" xlink:title="HostQtDesktop.cpp">
<polygon fill="white" stroke="black" points="1488,-58.5 1488,-79.5 1596,-79.5 1596,-58.5 1488,-58.5"/>
<text text-anchor="middle" x="1542" y="-66.5" font-family="Helvetica,sans-Serif" font-size="10.00">HostQtDesktop.cpp</text>
</a>
</g>
<!-- Node1&#45;&gt;Node12 -->
<g id="edge26" class="edge"><title>Node1&#45;&gt;Node12</title>
<path fill="none" stroke="midnightblue" d="M1079.44,-240.887C1200.3,-235.921 1480.56,-221.924 1572,-196 1627.07,-180.386 1656.99,-186.747 1687,-138 1710.6,-99.6594 1646.72,-82.233 1596.34,-74.5919"/>
<polygon fill="midnightblue" stroke="midnightblue" points="1079.14,-237.396 1069.29,-241.298 1079.42,-244.39 1079.14,-237.396"/>
</g>
<!-- Node13 -->
<g id="node27" class="node"><title>Node13</title>
<a xlink:href="HostBase_8h.htm" target="_top" xlink:title="HostBase.h">
<polygon fill="white" stroke="black" points="1051.5,-174.5 1051.5,-195.5 1122.5,-195.5 1122.5,-174.5 1051.5,-174.5"/>
<text text-anchor="middle" x="1087" y="-182.5" font-family="Helvetica,sans-Serif" font-size="10.00">HostBase.h</text>
</a>
</g>
<!-- Node1&#45;&gt;Node13 -->
<g id="edge28" class="edge"><title>Node1&#45;&gt;Node13</title>
<path fill="none" stroke="midnightblue" d="M1042.42,-225.405C1053.16,-215.668 1066.15,-203.891 1075.34,-195.571"/>
<polygon fill="midnightblue" stroke="midnightblue" points="1039.8,-223.053 1034.74,-232.362 1044.5,-228.24 1039.8,-223.053"/>
</g>
<!-- Node18 -->
<g id="node41" class="node"><title>Node18</title>
<a xlink:href="LocalePreferences_8h.htm" target="_top" xlink:title="LocalePreferences.h">
<polygon fill="white" stroke="black" points="1449,-174.5 1449,-195.5 1563,-195.5 1563,-174.5 1449,-174.5"/>
<text text-anchor="middle" x="1506" y="-182.5" font-family="Helvetica,sans-Serif" font-size="10.00">LocalePreferences.h</text>
</a>
</g>
<!-- Node1&#45;&gt;Node18 -->
<g id="edge46" class="edge"><title>Node1&#45;&gt;Node18</title>
<path fill="none" stroke="midnightblue" d="M1079.34,-236.235C1171.98,-225.11 1355.48,-203.075 1448.73,-191.878"/>
<polygon fill="midnightblue" stroke="midnightblue" points="1078.82,-232.771 1069.31,-237.439 1079.66,-239.721 1078.82,-232.771"/>
</g>
<!-- Node20 -->
<g id="node46" class="node"><title>Node20</title>
<a xlink:href="NyxSensorConnector_8h.htm" target="_top" xlink:title="NyxSensorConnector.h">
<polygon fill="white" stroke="black" points="660,-174.5 660,-195.5 786,-195.5 786,-174.5 660,-174.5"/>
<text text-anchor="middle" x="723" y="-182.5" font-family="Helvetica,sans-Serif" font-size="10.00">NyxSensorConnector.h</text>
</a>
</g>
<!-- Node1&#45;&gt;Node20 -->
<g id="edge52" class="edge"><title>Node1&#45;&gt;Node20</title>
<path fill="none" stroke="midnightblue" d="M966.651,-232.106C912.422,-221.622 830.972,-205.875 777.405,-195.518"/>
<polygon fill="midnightblue" stroke="midnightblue" points="966.3,-235.603 976.782,-234.065 967.629,-228.73 966.3,-235.603"/>
</g>
<!-- Node3 -->
<g id="node5" class="node"><title>Node3</title>
<a xlink:href="HostBase_8cpp.htm" target="_top" xlink:title="HostBase.cpp">
<polygon fill="white" stroke="black" points="929,-0.5 929,-21.5 1011,-21.5 1011,-0.5 929,-0.5"/>
<text text-anchor="middle" x="970" y="-8.5" font-family="Helvetica,sans-Serif" font-size="10.00">HostBase.cpp</text>
</a>
</g>
<!-- Node2&#45;&gt;Node3 -->
<g id="edge4" class="edge"><title>Node2&#45;&gt;Node3</title>
<path fill="none" stroke="midnightblue" d="M970,-48.1906C970,-39.1684 970,-28.9941 970,-21.5707"/>
<polygon fill="midnightblue" stroke="midnightblue" points="966.5,-48.3619 970,-58.3619 973.5,-48.3619 966.5,-48.3619"/>
</g>
<!-- Node4&#45;&gt;Node2 -->
<g id="edge8" class="edge"><title>Node4&#45;&gt;Node2</title>
<path fill="none" stroke="midnightblue" d="M765.332,-117.06C811.925,-106.119 886.182,-88.6819 931.282,-78.0916"/>
<polygon fill="midnightblue" stroke="midnightblue" points="764.48,-113.664 755.545,-119.358 766.08,-120.479 764.48,-113.664"/>
</g>
<!-- Node5 -->
<g id="node10" class="node"><title>Node5</title>
<a xlink:href="HostArmBroadway_8cpp.htm" target="_top" xlink:title="HostArmBroadway.cpp">
<polygon fill="white" stroke="black" points="150,-58.5 150,-79.5 274,-79.5 274,-58.5 150,-58.5"/>
<text text-anchor="middle" x="212" y="-66.5" font-family="Helvetica,sans-Serif" font-size="10.00">HostArmBroadway.cpp</text>
</a>
</g>
<!-- Node4&#45;&gt;Node5 -->
<g id="edge10" class="edge"><title>Node4&#45;&gt;Node5</title>
<path fill="none" stroke="midnightblue" d="M680.352,-115.941C504.911,-85.4263 456.454,-101.24 283,-80 280.152,-79.6513 277.243,-79.2765 274.307,-78.883"/>
<polygon fill="midnightblue" stroke="midnightblue" points="679.984,-119.43 690.44,-117.722 681.201,-112.537 679.984,-119.43"/>
</g>
<!-- Node6 -->
<g id="node12" class="node"><title>Node6</title>
<a xlink:href="HostArmMantaray_8cpp.htm" target="_top" xlink:title="HostArmMantaray.cpp">
<polygon fill="white" stroke="black" points="292,-58.5 292,-79.5 414,-79.5 414,-58.5 292,-58.5"/>
<text text-anchor="middle" x="353" y="-66.5" font-family="Helvetica,sans-Serif" font-size="10.00">HostArmMantaray.cpp</text>
</a>
</g>
<!-- Node4&#45;&gt;Node6 -->
<g id="edge12" class="edge"><title>Node4&#45;&gt;Node6</title>
<path fill="none" stroke="midnightblue" d="M680.583,-115.882C566.39,-93.1076 534.821,-96.5559 423,-80 420.079,-79.5676 417.091,-79.1196 414.074,-78.6627"/>
<polygon fill="midnightblue" stroke="midnightblue" points="679.918,-119.319 690.413,-117.866 681.303,-112.457 679.918,-119.319"/>
</g>
<!-- Node7 -->
<g id="node14" class="node"><title>Node7</title>
<a xlink:href="HostArmOpal_8cpp.htm" target="_top" xlink:title="HostArmOpal.cpp">
<polygon fill="white" stroke="black" points="431.5,-58.5 431.5,-79.5 530.5,-79.5 530.5,-58.5 431.5,-58.5"/>
<text text-anchor="middle" x="481" y="-66.5" font-family="Helvetica,sans-Serif" font-size="10.00">HostArmOpal.cpp</text>
</a>
</g>
<!-- Node4&#45;&gt;Node7 -->
<g id="edge14" class="edge"><title>Node4&#45;&gt;Node7</title>
<path fill="none" stroke="midnightblue" d="M680.376,-115.639C622.956,-101.311 566.783,-88.3353 528.215,-79.5857"/>
<polygon fill="midnightblue" stroke="midnightblue" points="679.8,-119.102 690.351,-118.138 681.502,-112.312 679.8,-119.102"/>
</g>
<!-- Node8 -->
<g id="node16" class="node"><title>Node8</title>
<a xlink:href="HostArmQemu_8cpp.htm" target="_top" xlink:title="HostArmQemu.cpp">
<polygon fill="white" stroke="black" points="548,-58.5 548,-79.5 652,-79.5 652,-58.5 548,-58.5"/>
<text text-anchor="middle" x="600" y="-66.5" font-family="Helvetica,sans-Serif" font-size="10.00">HostArmQemu.cpp</text>
</a>
</g>
<!-- Node4&#45;&gt;Node8 -->
<g id="edge16" class="edge"><title>Node4&#45;&gt;Node8</title>
<path fill="none" stroke="midnightblue" d="M691.627,-112.206C670.049,-102.031 641.898,-88.7567 622.524,-79.6212"/>
<polygon fill="midnightblue" stroke="midnightblue" points="690.188,-115.397 700.726,-116.497 693.174,-109.066 690.188,-115.397"/>
</g>
<!-- Node9 -->
<g id="node18" class="node"><title>Node9</title>
<a xlink:href="HostArmTopaz_8cpp.htm" target="_top" xlink:title="HostArmTopaz.cpp">
<polygon fill="white" stroke="black" points="669.5,-58.5 669.5,-79.5 776.5,-79.5 776.5,-58.5 669.5,-58.5"/>
<text text-anchor="middle" x="723" y="-66.5" font-family="Helvetica,sans-Serif" font-size="10.00">HostArmTopaz.cpp</text>
</a>
</g>
<!-- Node4&#45;&gt;Node9 -->
<g id="edge18" class="edge"><title>Node4&#45;&gt;Node9</title>
<path fill="none" stroke="midnightblue" d="M723,-106.191C723,-97.1684 723,-86.9941 723,-79.5707"/>
<polygon fill="midnightblue" stroke="midnightblue" points="719.5,-106.362 723,-116.362 726.5,-106.362 719.5,-106.362"/>
</g>
<!-- Node10 -->
<g id="node20" class="node"><title>Node10</title>
<a xlink:href="HostArmUnknown_8cpp.htm" target="_top" xlink:title="HostArmUnknown.cpp">
<polygon fill="white" stroke="black" points="793.5,-58.5 793.5,-79.5 914.5,-79.5 914.5,-58.5 793.5,-58.5"/>
<text text-anchor="middle" x="854" y="-66.5" font-family="Helvetica,sans-Serif" font-size="10.00">HostArmUnknown.cpp</text>
</a>
</g>
<!-- Node4&#45;&gt;Node10 -->
<g id="edge20" class="edge"><title>Node4&#45;&gt;Node10</title>
<path fill="none" stroke="midnightblue" d="M756.104,-112.343C779.126,-102.15 809.285,-88.7977 830.011,-79.6212"/>
<polygon fill="midnightblue" stroke="midnightblue" points="754.45,-109.248 746.723,-116.497 757.284,-115.649 754.45,-109.248"/>
</g>
<!-- Node11 -->
<g id="node23" class="node"><title>Node11</title>
<a xlink:href="HostArmWindsorNot_8cpp.htm" target="_top" xlink:title="HostArmWindsorNot.cpp">
<polygon fill="white" stroke="black" points="0,-58.5 0,-79.5 132,-79.5 132,-58.5 0,-58.5"/>
<text text-anchor="middle" x="66" y="-66.5" font-family="Helvetica,sans-Serif" font-size="10.00">HostArmWindsorNot.cpp</text>
</a>
</g>
<!-- Node4&#45;&gt;Node11 -->
<g id="edge24" class="edge"><title>Node4&#45;&gt;Node11</title>
<path fill="none" stroke="midnightblue" d="M680.456,-116.006C442.495,-77.3701 377.347,-105.156 141,-80 138.121,-79.6936 135.183,-79.3586 132.217,-79.0022"/>
<polygon fill="midnightblue" stroke="midnightblue" points="680.017,-119.481 690.452,-117.652 681.154,-112.574 680.017,-119.481"/>
</g>
<!-- Node10&#45;&gt;Node3 -->
<g id="edge22" class="edge"><title>Node10&#45;&gt;Node3</title>
<path fill="none" stroke="midnightblue" d="M884.136,-53.9319C904.414,-43.7932 930.65,-30.6748 948.758,-21.6212"/>
<polygon fill="midnightblue" stroke="midnightblue" points="882.386,-50.8939 875.007,-58.4966 885.516,-57.1549 882.386,-50.8939"/>
</g>
<!-- Node13&#45;&gt;Node2 -->
<g id="edge32" class="edge"><title>Node13&#45;&gt;Node2</title>
<path fill="none" stroke="midnightblue" d="M1061.02,-168.842C1048.53,-160.442 1033.76,-149.532 1022,-138 1003.15,-119.518 985.64,-93.8353 976.538,-79.5887"/>
<polygon fill="midnightblue" stroke="midnightblue" points="1059.35,-171.933 1069.63,-174.488 1063.19,-166.079 1059.35,-171.933"/>
</g>
<!-- Node13&#45;&gt;Node3 -->
<g id="edge36" class="edge"><title>Node13&#45;&gt;Node3</title>
<path fill="none" stroke="midnightblue" d="M1073.18,-166.136C1067.27,-157.718 1060.48,-147.559 1055,-138 1035.42,-103.852 1039.69,-90.1636 1017,-58 1007.15,-44.045 992.984,-30.5167 982.78,-21.5859"/>
<polygon fill="midnightblue" stroke="midnightblue" points="1070.48,-168.38 1079.14,-174.477 1076.17,-164.307 1070.48,-168.38"/>
</g>
<!-- Node13&#45;&gt;Node4 -->
<g id="edge34" class="edge"><title>Node13&#45;&gt;Node4</title>
<path fill="none" stroke="midnightblue" d="M1041.41,-177.735C966.838,-165.853 820.6,-142.552 755.544,-132.186"/>
<polygon fill="midnightblue" stroke="midnightblue" points="1041.01,-181.216 1051.44,-179.333 1042.11,-174.303 1041.01,-181.216"/>
</g>
<!-- Node14 -->
<g id="node29" class="node"><title>Node14</title>
<a xlink:href="FlickGestureRecognizer_8cpp.htm" target="_top" xlink:title="FlickGestureRecognizer.cpp">
<polygon fill="white" stroke="black" points="1063.5,-116.5 1063.5,-137.5 1212.5,-137.5 1212.5,-116.5 1063.5,-116.5"/>
<text text-anchor="middle" x="1138" y="-124.5" font-family="Helvetica,sans-Serif" font-size="10.00">FlickGestureRecognizer.cpp</text>
</a>
</g>
<!-- Node13&#45;&gt;Node14 -->
<g id="edge30" class="edge"><title>Node13&#45;&gt;Node14</title>
<path fill="none" stroke="midnightblue" d="M1102.98,-166.83C1111.44,-157.208 1121.53,-145.728 1128.71,-137.571"/>
<polygon fill="midnightblue" stroke="midnightblue" points="1100.33,-164.541 1096.35,-174.362 1105.59,-169.163 1100.33,-164.541"/>
</g>
<!-- Node15 -->
<g id="node34" class="node"><title>Node15</title>
<a xlink:href="HostQtDesktop_8h.htm" target="_top" xlink:title="HostQtDesktop.h">
<polygon fill="white" stroke="black" points="1329.5,-116.5 1329.5,-137.5 1426.5,-137.5 1426.5,-116.5 1329.5,-116.5"/>
<text text-anchor="middle" x="1378" y="-124.5" font-family="Helvetica,sans-Serif" font-size="10.00">HostQtDesktop.h</text>
</a>
</g>
<!-- Node13&#45;&gt;Node15 -->
<g id="edge38" class="edge"><title>Node13&#45;&gt;Node15</title>
<path fill="none" stroke="midnightblue" d="M1132.58,-175.915C1186.13,-165.242 1274.6,-147.609 1329.42,-136.683"/>
<polygon fill="midnightblue" stroke="midnightblue" points="1131.81,-172.501 1122.68,-177.888 1133.17,-179.366 1131.81,-172.501"/>
</g>
<!-- Node16 -->
<g id="node37" class="node"><title>Node16</title>
<a xlink:href="LocalePreferences_8cpp.htm" target="_top" xlink:title="LocalePreferences.cpp">
<polygon fill="white" stroke="black" points="1443.5,-116.5 1443.5,-137.5 1568.5,-137.5 1568.5,-116.5 1443.5,-116.5"/>
<text text-anchor="middle" x="1506" y="-124.5" font-family="Helvetica,sans-Serif" font-size="10.00">LocalePreferences.cpp</text>
</a>
</g>
<!-- Node13&#45;&gt;Node16 -->
<g id="edge42" class="edge"><title>Node13&#45;&gt;Node16</title>
<path fill="none" stroke="midnightblue" d="M1132.75,-179.11C1199.32,-170.473 1326.76,-153.693 1435,-138 1437.72,-137.606 1440.49,-137.199 1443.29,-136.783"/>
<polygon fill="midnightblue" stroke="midnightblue" points="1132.07,-175.669 1122.6,-180.424 1132.97,-182.611 1132.07,-175.669"/>
</g>
<!-- Node17 -->
<g id="node39" class="node"><title>Node17</title>
<a xlink:href="SyncTask_8cpp.htm" target="_top" xlink:title="SyncTask.cpp">
<polygon fill="white" stroke="black" points="1229.5,-116.5 1229.5,-137.5 1312.5,-137.5 1312.5,-116.5 1229.5,-116.5"/>
<text text-anchor="middle" x="1271" y="-124.5" font-family="Helvetica,sans-Serif" font-size="10.00">SyncTask.cpp</text>
</a>
</g>
<!-- Node13&#45;&gt;Node17 -->
<g id="edge44" class="edge"><title>Node13&#45;&gt;Node17</title>
<path fill="none" stroke="midnightblue" d="M1130.1,-171.413C1162.93,-161.065 1207.47,-147.026 1237.62,-137.523"/>
<polygon fill="midnightblue" stroke="midnightblue" points="1128.81,-168.152 1120.32,-174.497 1130.91,-174.828 1128.81,-168.152"/>
</g>
<!-- Node15&#45;&gt;Node12 -->
<g id="edge40" class="edge"><title>Node15&#45;&gt;Node12</title>
<path fill="none" stroke="midnightblue" d="M1417.18,-113.144C1446.36,-102.823 1485.61,-88.9439 1512.25,-79.5231"/>
<polygon fill="midnightblue" stroke="midnightblue" points="1415.96,-109.863 1407.7,-116.497 1418.29,-116.462 1415.96,-109.863"/>
</g>
<!-- Node18&#45;&gt;Node16 -->
<g id="edge50" class="edge"><title>Node18&#45;&gt;Node16</title>
<path fill="none" stroke="midnightblue" d="M1506,-164.191C1506,-155.168 1506,-144.994 1506,-137.571"/>
<polygon fill="midnightblue" stroke="midnightblue" points="1502.5,-164.362 1506,-174.362 1509.5,-164.362 1502.5,-164.362"/>
</g>
<!-- Node19 -->
<g id="node43" class="node"><title>Node19</title>
<a xlink:href="Localization_8cpp.htm" target="_top" xlink:title="Localization.cpp">
<polygon fill="white" stroke="black" points="1586,-116.5 1586,-137.5 1678,-137.5 1678,-116.5 1586,-116.5"/>
<text text-anchor="middle" x="1632" y="-124.5" font-family="Helvetica,sans-Serif" font-size="10.00">Localization.cpp</text>
</a>
</g>
<!-- Node18&#45;&gt;Node19 -->
<g id="edge48" class="edge"><title>Node18&#45;&gt;Node19</title>
<path fill="none" stroke="midnightblue" d="M1538.14,-170.206C1560.24,-160.031 1589.08,-146.757 1608.93,-137.621"/>
<polygon fill="midnightblue" stroke="midnightblue" points="1536.44,-167.136 1528.82,-174.497 1539.36,-173.494 1536.44,-167.136"/>
</g>
<!-- Node20&#45;&gt;Node4 -->
<g id="edge54" class="edge"><title>Node20&#45;&gt;Node4</title>
<path fill="none" stroke="midnightblue" d="M723,-164.191C723,-155.168 723,-144.994 723,-137.571"/>
<polygon fill="midnightblue" stroke="midnightblue" points="719.5,-164.362 723,-174.362 726.5,-164.362 719.5,-164.362"/>
</g>
<!-- Node21 -->
<g id="node49" class="node"><title>Node21</title>
<a xlink:href="NyxSensorConnector_8cpp.htm" target="_top" xlink:title="NyxSensorConnector.cpp">
<polygon fill="white" stroke="black" points="536.5,-116.5 536.5,-137.5 673.5,-137.5 673.5,-116.5 536.5,-116.5"/>
<text text-anchor="middle" x="605" y="-124.5" font-family="Helvetica,sans-Serif" font-size="10.00">NyxSensorConnector.cpp</text>
</a>
</g>
<!-- Node20&#45;&gt;Node21 -->
<g id="edge56" class="edge"><title>Node20&#45;&gt;Node21</title>
<path fill="none" stroke="midnightblue" d="M692.624,-170.069C671.959,-159.912 645.111,-146.716 626.609,-137.621"/>
<polygon fill="midnightblue" stroke="midnightblue" points="691.113,-173.226 701.631,-174.497 694.201,-166.944 691.113,-173.226"/>
</g>
</g>
</svg>
