<?xml version="1.0" encoding="UTF-8" standalone="no"?>
<!DOCTYPE svg PUBLIC "-//W3C//DTD SVG 1.1//EN"
 "http://www.w3.org/Graphics/SVG/1.1/DTD/svg11.dtd">
<!-- Generated by graphviz version 2.26.3 (20100126.1600)
 -->
<!-- Title: Src Pages: 1 -->
<svg width="254pt" height="233pt"
 viewBox="0.00 0.00 254.00 233.00" xmlns="http://www.w3.org/2000/svg" xmlns:xlink="http://www.w3.org/1999/xlink">
<g id="graph1" class="graph" transform="scale(1 1) rotate(0) translate(4 229)">
<title>Src</title>
<polygon fill="white" stroke="white" points="-4,5 -4,-229 251,-229 251,5 -4,5"/>
<g id="graph2" class="cluster"><title>clusterdir_7ad75451c78bc5a009a282cdc0c3526e</title>
<a xlink:href="dir_7ad75451c78bc5a009a282cdc0c3526e.htm" target="_top" xlink:title="luna&#45;sysmgr&#45;common">
<polygon fill="#ddddee" stroke="black" points="8,-56 8,-217 238,-217 238,-56 8,-56"/>
<text text-anchor="middle" x="123" y="-204" font-family="Helvetica,sans-Serif" font-size="10.00">luna&#45;sysmgr&#45;common</text>
</a>
</g>
<g id="graph3" class="cluster"><title>clusterdir_a5bfe0c2762aa51214191d6bfb8408ad</title>
<a xlink:href="dir_a5bfe0c2762aa51214191d6bfb8408ad.htm" target="_top">
<polygon fill="#eeeeff" stroke="black" points="16,-64 16,-188 230,-188 230,-64 16,-64"/>
</a>
</g>
<!-- dir_a5bfe0c2762aa51214191d6bfb8408ad -->
<g id="node3" class="node"><title>dir_a5bfe0c2762aa51214191d6bfb8408ad</title>
<text text-anchor="middle" x="195" y="-159.5" font-family="Helvetica,sans-Serif" font-size="10.00">Src</text>
</g>
<!-- dir_a01f2268aa659d6ca38ba61255c9581a -->
<g id="node4" class="node"><title>dir_a01f2268aa659d6ca38ba61255c9581a</title>
<a xlink:href="dir_a01f2268aa659d6ca38ba61255c9581a.htm" target="_top" xlink:title="base">
<polygon fill="white" stroke="red" points="78,-180 24,-180 24,-144 78,-144 78,-180"/>
<text text-anchor="middle" x="51" y="-159.5" font-family="Helvetica,sans-Serif" font-size="10.00">base</text>
</a>
</g>
<!-- dir_4d1b408716a5cb7786a1807b5fb03498 -->
<g id="node6" class="node"><title>dir_4d1b408716a5cb7786a1807b5fb03498</title>
<a xlink:href="dir_4d1b408716a5cb7786a1807b5fb03498.htm" target="_top" xlink:title="nyx">
<polygon fill="white" stroke="black" points="78,-108 24,-108 24,-72 78,-72 78,-108"/>
<text text-anchor="middle" x="51" y="-87.5" font-family="Helvetica,sans-Serif" font-size="10.00">nyx</text>
</a>
</g>
<!-- dir_a01f2268aa659d6ca38ba61255c9581a&#45;&gt;dir_4d1b408716a5cb7786a1807b5fb03498 -->
<g id="edge4" class="edge"><title>dir_a01f2268aa659d6ca38ba61255c9581a&#45;&gt;dir_4d1b408716a5cb7786a1807b5fb03498</title>
<path fill="none" stroke="black" d="M51,-143.831C51,-136.131 51,-126.974 51,-118.417"/>
<polygon fill="black" stroke="black" points="54.5001,-118.413 51,-108.413 47.5001,-118.413 54.5001,-118.413"/>
<a xlink:href="dir_000002_000009.htm" target="_top" xlink:title="2">
<text text-anchor="middle" x="57.3393" y="-119.508" font-family="Helvetica,sans-Serif" font-size="10.00">2</text>
</a>
</g>
<!-- dir_24893ff7c9479d2eeac948584bed01fe -->
<g id="node7" class="node"><title>dir_24893ff7c9479d2eeac948584bed01fe</title>
<a xlink:href="dir_24893ff7c9479d2eeac948584bed01fe.htm" target="_top" xlink:title="include">
<polygon fill="none" stroke="black" points="133,-36 79,-36 79,-1.77636e-14 133,-3.55271e-15 133,-36"/>
<text text-anchor="middle" x="106" y="-15.5" font-family="Helvetica,sans-Serif" font-size="10.00">include</text>
</a>
</g>
<!-- dir_a01f2268aa659d6ca38ba61255c9581a&#45;&gt;dir_24893ff7c9479d2eeac948584bed01fe -->
<g id="edge6" class="edge"><title>dir_a01f2268aa659d6ca38ba61255c9581a&#45;&gt;dir_24893ff7c9479d2eeac948584bed01fe</title>
<path fill="none" stroke="black" d="M65.8853,-143.518C73.2462,-133.53 81.672,-120.672 87,-108 95.3306,-88.1876 100.153,-64.3321 102.854,-46.1605"/>
<polygon fill="black" stroke="black" points="106.33,-46.5721 104.21,-36.1917 99.3941,-45.6289 106.33,-46.5721"/>
<a xlink:href="dir_000002_000004.htm" target="_top" xlink:title="64">
<text text-anchor="middle" x="108.659" y="-48.0164" font-family="Helvetica,sans-Serif" font-size="10.00">64</text>
</a>
</g>
<!-- dir_aba3bd2f712fd9c1c1e87f56a6335132 -->
<g id="node5" class="node"><title>dir_aba3bd2f712fd9c1c1e87f56a6335132</title>
<a xlink:href="dir_aba3bd2f712fd9c1c1e87f56a6335132.htm" target="_top" xlink:title="core">
<polygon fill="white" stroke="black" points="150,-180 96,-180 96,-144 150,-144 150,-180"/>
<text text-anchor="middle" x="123" y="-159.5" font-family="Helvetica,sans-Serif" font-size="10.00">core</text>
</a>
</g>
<!-- dir_aba3bd2f712fd9c1c1e87f56a6335132&#45;&gt;dir_24893ff7c9479d2eeac948584bed01fe -->
<g id="edge8" class="edge"><title>dir_aba3bd2f712fd9c1c1e87f56a6335132&#45;&gt;dir_24893ff7c9479d2eeac948584bed01fe</title>
<path fill="none" stroke="black" d="M124.258,-143.8C125.321,-122.529 125.861,-86.3687 120,-56 119.361,-52.6864 118.469,-49.2795 117.442,-45.9307"/>
<polygon fill="black" stroke="black" points="120.654,-44.5121 114.072,-36.2103 114.04,-46.8051 120.654,-44.5121"/>
<a xlink:href="dir_000005_000004.htm" target="_top" xlink:title="18">
<text text-anchor="middle" x="124.514" y="-44.4783" font-family="Helvetica,sans-Serif" font-size="10.00">18</text>
</a>
</g>
<!-- dir_4d1b408716a5cb7786a1807b5fb03498&#45;&gt;dir_24893ff7c9479d2eeac948584bed01fe -->
<g id="edge10" class="edge"><title>dir_4d1b408716a5cb7786a1807b5fb03498&#45;&gt;dir_24893ff7c9479d2eeac948584bed01fe</title>
<path fill="none" stroke="black" d="M64.8788,-71.8314C71.2136,-63.5386 78.8384,-53.557 85.7926,-44.4533"/>
<polygon fill="black" stroke="black" points="88.6452,-46.4847 91.9343,-36.4133 83.0825,-42.2353 88.6452,-46.4847"/>
<a xlink:href="dir_000009_000004.htm" target="_top" xlink:title="6">
<text text-anchor="middle" x="88.7195" y="-48.5647" font-family="Helvetica,sans-Serif" font-size="10.00">6</text>
</a>
</g>
</g>
</svg>
