<?xml version="1.0" encoding="UTF-8" standalone="no"?>
<!DOCTYPE svg PUBLIC "-//W3C//DTD SVG 1.1//EN"
 "http://www.w3.org/Graphics/SVG/1.1/DTD/svg11.dtd">
<!-- Generated by graphviz version 2.26.3 (20100126.1600)
 -->
<!-- Title: hosts Pages: 1 -->
<svg width="150pt" height="225pt"
 viewBox="0.00 0.00 150.00 225.00" xmlns="http://www.w3.org/2000/svg" xmlns:xlink="http://www.w3.org/1999/xlink">
<g id="graph1" class="graph" transform="scale(1 1) rotate(0) translate(4 221)">
<title>hosts</title>
<polygon fill="white" stroke="white" points="-4,5 -4,-221 147,-221 147,5 -4,5"/>
<g id="graph2" class="cluster"><title>clusterdir_a01f2268aa659d6ca38ba61255c9581a</title>
<a xlink:href="dir_a01f2268aa659d6ca38ba61255c9581a.htm" target="_top" xlink:title="base">
<polygon fill="#ddddee" stroke="black" points="64,-136 64,-209 134,-209 134,-136 64,-136"/>
<text text-anchor="middle" x="99" y="-196" font-family="Helvetica,sans-Serif" font-size="10.00">base</text>
</a>
</g>
<!-- dir_f81935cc378fa8f1958a40a311e330ab -->
<g id="node2" class="node"><title>dir_f81935cc378fa8f1958a40a311e330ab</title>
<a xlink:href="dir_f81935cc378fa8f1958a40a311e330ab.htm" target="_top" xlink:title="hosts">
<polygon fill="#eeeeff" stroke="black" points="126,-180 72,-180 72,-144 126,-144 126,-180"/>
<text text-anchor="middle" x="99" y="-159.5" font-family="Helvetica,sans-Serif" font-size="10.00">hosts</text>
</a>
</g>
<!-- dir_f1cba7efe9637c9d892ee7579efb99d7 -->
<g id="node3" class="node"><title>dir_f1cba7efe9637c9d892ee7579efb99d7</title>
<a xlink:href="dir_f1cba7efe9637c9d892ee7579efb99d7.htm" target="_top" xlink:title="gesture">
<polygon fill="none" stroke="black" points="54,-108 2.13163e-14,-108 0,-72 54,-72 54,-108"/>
<text text-anchor="middle" x="27" y="-87.5" font-family="Helvetica,sans-Serif" font-size="10.00">gesture</text>
</a>
</g>
<!-- dir_f81935cc378fa8f1958a40a311e330ab&#45;&gt;dir_f1cba7efe9637c9d892ee7579efb99d7 -->
<g id="edge5" class="edge"><title>dir_f81935cc378fa8f1958a40a311e330ab&#45;&gt;dir_f1cba7efe9637c9d892ee7579efb99d7</title>
<path fill="none" stroke="black" d="M80.8314,-143.831C72.2848,-135.285 61.9443,-124.944 52.6198,-115.62"/>
<polygon fill="black" stroke="black" points="54.9592,-113.009 45.4133,-108.413 50.0095,-117.959 54.9592,-113.009"/>
<a xlink:href="dir_000007_000006.htm" target="_top" xlink:title="1">
<text text-anchor="middle" x="59.5087" y="-111.044" font-family="Helvetica,sans-Serif" font-size="10.00">1</text>
</a>
</g>
<!-- dir_4d1b408716a5cb7786a1807b5fb03498 -->
<g id="node4" class="node"><title>dir_4d1b408716a5cb7786a1807b5fb03498</title>
<a xlink:href="dir_4d1b408716a5cb7786a1807b5fb03498.htm" target="_top" xlink:title="nyx">
<polygon fill="none" stroke="black" points="126,-108 72,-108 72,-72 126,-72 126,-108"/>
<text text-anchor="middle" x="99" y="-87.5" font-family="Helvetica,sans-Serif" font-size="10.00">nyx</text>
</a>
</g>
<!-- dir_f81935cc378fa8f1958a40a311e330ab&#45;&gt;dir_4d1b408716a5cb7786a1807b5fb03498 -->
<g id="edge7" class="edge"><title>dir_f81935cc378fa8f1958a40a311e330ab&#45;&gt;dir_4d1b408716a5cb7786a1807b5fb03498</title>
<path fill="none" stroke="black" d="M99,-143.831C99,-136.131 99,-126.974 99,-118.417"/>
<polygon fill="black" stroke="black" points="102.5,-118.413 99,-108.413 95.5001,-118.413 102.5,-118.413"/>
<a xlink:href="dir_000007_000009.htm" target="_top" xlink:title="2">
<text text-anchor="middle" x="105.339" y="-119.508" font-family="Helvetica,sans-Serif" font-size="10.00">2</text>
</a>
</g>
<!-- dir_24893ff7c9479d2eeac948584bed01fe -->
<g id="node5" class="node"><title>dir_24893ff7c9479d2eeac948584bed01fe</title>
<a xlink:href="dir_24893ff7c9479d2eeac948584bed01fe.htm" target="_top" xlink:title="include">
<polygon fill="none" stroke="black" points="126,-36 72,-36 72,-1.77636e-14 126,-3.55271e-15 126,-36"/>
<text text-anchor="middle" x="99" y="-15.5" font-family="Helvetica,sans-Serif" font-size="10.00">include</text>
</a>
</g>
<!-- dir_f81935cc378fa8f1958a40a311e330ab&#45;&gt;dir_24893ff7c9479d2eeac948584bed01fe -->
<g id="edge9" class="edge"><title>dir_f81935cc378fa8f1958a40a311e330ab&#45;&gt;dir_24893ff7c9479d2eeac948584bed01fe</title>
<path fill="none" stroke="black" d="M114.99,-143.917C122.654,-134.037 131.017,-121.156 135,-108 139.637,-92.6865 139.637,-87.3135 135,-72 132.044,-62.2355 126.675,-52.6229 120.97,-44.2762"/>
<polygon fill="black" stroke="black" points="123.713,-42.0973 114.99,-36.0831 118.059,-46.2239 123.713,-42.0973"/>
<a xlink:href="dir_000007_000004.htm" target="_top" xlink:title="28">
<text text-anchor="middle" x="128.125" y="-40.827" font-family="Helvetica,sans-Serif" font-size="10.00">28</text>
</a>
</g>
<!-- dir_f1cba7efe9637c9d892ee7579efb99d7&#45;&gt;dir_24893ff7c9479d2eeac948584bed01fe -->
<g id="edge3" class="edge"><title>dir_f1cba7efe9637c9d892ee7579efb99d7&#45;&gt;dir_24893ff7c9479d2eeac948584bed01fe</title>
<path fill="none" stroke="black" d="M45.1686,-71.8314C53.7152,-63.2848 64.0557,-52.9443 73.3802,-43.6198"/>
<polygon fill="black" stroke="black" points="75.9905,-45.9592 80.5867,-36.4133 71.0408,-41.0095 75.9905,-45.9592"/>
<a xlink:href="dir_000006_000004.htm" target="_top" xlink:title="5">
<text text-anchor="middle" x="75.4564" y="-48.0087" font-family="Helvetica,sans-Serif" font-size="10.00">5</text>
</a>
</g>
<!-- dir_4d1b408716a5cb7786a1807b5fb03498&#45;&gt;dir_24893ff7c9479d2eeac948584bed01fe -->
<g id="edge11" class="edge"><title>dir_4d1b408716a5cb7786a1807b5fb03498&#45;&gt;dir_24893ff7c9479d2eeac948584bed01fe</title>
<path fill="none" stroke="black" d="M99,-71.8314C99,-64.131 99,-54.9743 99,-46.4166"/>
<polygon fill="black" stroke="black" points="102.5,-46.4132 99,-36.4133 95.5001,-46.4133 102.5,-46.4132"/>
<a xlink:href="dir_000009_000004.htm" target="_top" xlink:title="6">
<text text-anchor="middle" x="105.339" y="-47.5079" font-family="Helvetica,sans-Serif" font-size="10.00">6</text>
</a>
</g>
</g>
</svg>
