<?xml version="1.0" encoding="UTF-8" standalone="no"?>
<!DOCTYPE svg PUBLIC "-//W3C//DTD SVG 1.1//EN"
 "http://www.w3.org/Graphics/SVG/1.1/DTD/svg11.dtd">
<!-- Generated by graphviz version 2.26.3 (20100126.1600)
 -->
<!-- Title: luna&#45;sysmgr&#45;common Pages: 1 -->
<svg width="228pt" height="148pt"
 viewBox="0.00 0.00 228.00 148.00" xmlns="http://www.w3.org/2000/svg" xmlns:xlink="http://www.w3.org/1999/xlink">
<g id="graph1" class="graph" transform="scale(1 1) rotate(0) translate(4 144)">
<title>luna&#45;sysmgr&#45;common</title>
<polygon fill="white" stroke="white" points="-4,5 -4,-144 225,-144 225,5 -4,5"/>
<g id="graph2" class="cluster"><title>clusterdir_7ad75451c78bc5a009a282cdc0c3526e</title>
<a xlink:href="dir_7ad75451c78bc5a009a282cdc0c3526e.htm" target="_top">
<polygon fill="#eeeeff" stroke="black" points="8,-8 8,-132 212,-132 212,-8 8,-8"/>
</a>
</g>
<!-- dir_7ad75451c78bc5a009a282cdc0c3526e -->
<g id="node2" class="node"><title>dir_7ad75451c78bc5a009a282cdc0c3526e</title>
<text text-anchor="middle" x="146" y="-103.5" font-family="Helvetica,sans-Serif" font-size="10.00">luna&#45;sysmgr&#45;common</text>
</g>
<!-- dir_24893ff7c9479d2eeac948584bed01fe -->
<g id="node3" class="node"><title>dir_24893ff7c9479d2eeac948584bed01fe</title>
<a xlink:href="dir_24893ff7c9479d2eeac948584bed01fe.htm" target="_top" xlink:title="include">
<polygon fill="white" stroke="black" points="70,-52 16,-52 16,-16 70,-16 70,-52"/>
<text text-anchor="middle" x="43" y="-31.5" font-family="Helvetica,sans-Serif" font-size="10.00">include</text>
</a>
</g>
<!-- dir_a5bfe0c2762aa51214191d6bfb8408ad -->
<g id="node4" class="node"><title>dir_a5bfe0c2762aa51214191d6bfb8408ad</title>
<a xlink:href="dir_a5bfe0c2762aa51214191d6bfb8408ad.htm" target="_top" xlink:title="Src">
<polygon fill="white" stroke="red" points="70,-124 16,-124 16,-88 70,-88 70,-124"/>
<text text-anchor="middle" x="43" y="-103.5" font-family="Helvetica,sans-Serif" font-size="10.00">Src</text>
</a>
</g>
<!-- dir_a5bfe0c2762aa51214191d6bfb8408ad&#45;&gt;dir_24893ff7c9479d2eeac948584bed01fe -->
<g id="edge3" class="edge"><title>dir_a5bfe0c2762aa51214191d6bfb8408ad&#45;&gt;dir_24893ff7c9479d2eeac948584bed01fe</title>
<path fill="none" stroke="black" d="M43,-87.8314C43,-80.131 43,-70.9743 43,-62.4166"/>
<polygon fill="black" stroke="black" points="46.5001,-62.4132 43,-52.4133 39.5001,-62.4133 46.5001,-62.4132"/>
<a xlink:href="dir_000001_000004.htm" target="_top" xlink:title="88">
<text text-anchor="middle" x="49.3393" y="-63.5079" font-family="Helvetica,sans-Serif" font-size="10.00">88</text>
</a>
</g>
</g>
</svg>
