<?xml version="1.0" encoding="UTF-8" standalone="no"?>
<!DOCTYPE svg PUBLIC "-//W3C//DTD SVG 1.1//EN"
 "http://www.w3.org/Graphics/SVG/1.1/DTD/svg11.dtd">
<!-- Generated by graphviz version 2.26.3 (20100126.1600)
 -->
<!-- Title: application Pages: 1 -->
<svg width="108pt" height="153pt"
 viewBox="0.00 0.00 108.00 153.00" xmlns="http://www.w3.org/2000/svg" xmlns:xlink="http://www.w3.org/1999/xlink">
<g id="graph1" class="graph" transform="scale(1 1) rotate(0) translate(4 149)">
<title>application</title>
<polygon fill="white" stroke="white" points="-4,5 -4,-149 105,-149 105,5 -4,5"/>
<g id="graph2" class="cluster"><title>clusterdir_a01f2268aa659d6ca38ba61255c9581a</title>
<a xlink:href="dir_a01f2268aa659d6ca38ba61255c9581a.htm" target="_top" xlink:title="base">
<polygon fill="#ddddee" stroke="black" points="8,-64 8,-137 92,-137 92,-64 8,-64"/>
<text text-anchor="middle" x="50" y="-124" font-family="Helvetica,sans-Serif" font-size="10.00">base</text>
</a>
</g>
<!-- dir_f158debf962fd1b77fe2e6c11c4f5158 -->
<g id="node2" class="node"><title>dir_f158debf962fd1b77fe2e6c11c4f5158</title>
<a xlink:href="dir_f158debf962fd1b77fe2e6c11c4f5158.htm" target="_top" xlink:title="application">
<polygon fill="#eeeeff" stroke="black" points="84,-108 16,-108 16,-72 84,-72 84,-108"/>
<text text-anchor="middle" x="50" y="-87.5" font-family="Helvetica,sans-Serif" font-size="10.00">application</text>
</a>
</g>
<!-- dir_24893ff7c9479d2eeac948584bed01fe -->
<g id="node3" class="node"><title>dir_24893ff7c9479d2eeac948584bed01fe</title>
<a xlink:href="dir_24893ff7c9479d2eeac948584bed01fe.htm" target="_top" xlink:title="include">
<polygon fill="none" stroke="black" points="77,-36 23,-36 23,-1.77636e-14 77,-3.55271e-15 77,-36"/>
<text text-anchor="middle" x="50" y="-15.5" font-family="Helvetica,sans-Serif" font-size="10.00">include</text>
</a>
</g>
<!-- dir_f158debf962fd1b77fe2e6c11c4f5158&#45;&gt;dir_24893ff7c9479d2eeac948584bed01fe -->
<g id="edge3" class="edge"><title>dir_f158debf962fd1b77fe2e6c11c4f5158&#45;&gt;dir_24893ff7c9479d2eeac948584bed01fe</title>
<path fill="none" stroke="black" d="M50,-71.8314C50,-64.131 50,-54.9743 50,-46.4166"/>
<polygon fill="black" stroke="black" points="53.5001,-46.4132 50,-36.4133 46.5001,-46.4133 53.5001,-46.4132"/>
<a xlink:href="dir_000003_000004.htm" target="_top" xlink:title="5">
<text text-anchor="middle" x="56.3393" y="-47.5079" font-family="Helvetica,sans-Serif" font-size="10.00">5</text>
</a>
</g>
</g>
</svg>
