<?xml version="1.0" encoding="UTF-8" standalone="no"?>
<!DOCTYPE svg PUBLIC "-//W3C//DTD SVG 1.1//EN"
 "http://www.w3.org/Graphics/SVG/1.1/DTD/svg11.dtd">
<!-- Generated by graphviz version 2.26.3 (20100126.1600)
 -->
<!-- Title: base Pages: 1 -->
<svg width="446pt" height="233pt"
 viewBox="0.00 0.00 446.10 233.00" xmlns="http://www.w3.org/2000/svg" xmlns:xlink="http://www.w3.org/1999/xlink">
<g id="graph1" class="graph" transform="scale(1 1) rotate(0) translate(4 229)">
<title>base</title>
<polygon fill="white" stroke="white" points="-4,5 -4,-229 443.097,-229 443.097,5 -4,5"/>
<g id="graph2" class="cluster"><title>clusterdir_a5bfe0c2762aa51214191d6bfb8408ad</title>
<a xlink:href="dir_a5bfe0c2762aa51214191d6bfb8408ad.htm" target="_top" xlink:title="Src">
<polygon fill="#ddddee" stroke="black" points="8,-56 8,-217 324,-217 324,-56 8,-56"/>
<text text-anchor="middle" x="166" y="-204" font-family="Helvetica,sans-Serif" font-size="10.00">Src</text>
</a>
</g>
<g id="graph3" class="cluster"><title>clusterdir_a01f2268aa659d6ca38ba61255c9581a</title>
<a xlink:href="dir_a01f2268aa659d6ca38ba61255c9581a.htm" target="_top">
<polygon fill="#eeeeff" stroke="black" points="16,-64 16,-188 316,-188 316,-64 16,-64"/>
</a>
</g>
<!-- dir_a01f2268aa659d6ca38ba61255c9581a -->
<g id="node3" class="node"><title>dir_a01f2268aa659d6ca38ba61255c9581a</title>
<text text-anchor="middle" x="281" y="-159.5" font-family="Helvetica,sans-Serif" font-size="10.00">base</text>
</g>
<!-- dir_f158debf962fd1b77fe2e6c11c4f5158 -->
<g id="node4" class="node"><title>dir_f158debf962fd1b77fe2e6c11c4f5158</title>
<a xlink:href="dir_f158debf962fd1b77fe2e6c11c4f5158.htm" target="_top" xlink:title="application">
<polygon fill="white" stroke="black" points="236,-180 168,-180 168,-144 236,-144 236,-180"/>
<text text-anchor="middle" x="202" y="-159.5" font-family="Helvetica,sans-Serif" font-size="10.00">application</text>
</a>
</g>
<!-- dir_24893ff7c9479d2eeac948584bed01fe -->
<g id="node9" class="node"><title>dir_24893ff7c9479d2eeac948584bed01fe</title>
<a xlink:href="dir_24893ff7c9479d2eeac948584bed01fe.htm" target="_top" xlink:title="include">
<polygon fill="none" stroke="black" points="386,-36 332,-36 332,-1.77636e-14 386,-3.55271e-15 386,-36"/>
<text text-anchor="middle" x="359" y="-15.5" font-family="Helvetica,sans-Serif" font-size="10.00">include</text>
</a>
</g>
<!-- dir_f158debf962fd1b77fe2e6c11c4f5158&#45;&gt;dir_24893ff7c9479d2eeac948584bed01fe -->
<g id="edge4" class="edge"><title>dir_f158debf962fd1b77fe2e6c11c4f5158&#45;&gt;dir_24893ff7c9479d2eeac948584bed01fe</title>
<path fill="none" stroke="black" d="M236.038,-147.019C239.042,-145.921 242.058,-144.895 245,-144 324.303,-119.873 375.346,-172.021 428,-108 442.68,-90.1503 439.757,-75.8971 428,-56 420.793,-43.8031 408.12,-35.2548 395.585,-29.3996"/>
<polygon fill="black" stroke="black" points="396.694,-26.0697 386.119,-25.4312 393.988,-32.5254 396.694,-26.0697"/>
<a xlink:href="dir_000003_000004.htm" target="_top" xlink:title="5">
<text text-anchor="middle" x="401.107" y="-22.341" font-family="Helvetica,sans-Serif" font-size="10.00">5</text>
</a>
</g>
<!-- dir_f1cba7efe9637c9d892ee7579efb99d7 -->
<g id="node5" class="node"><title>dir_f1cba7efe9637c9d892ee7579efb99d7</title>
<a xlink:href="dir_f1cba7efe9637c9d892ee7579efb99d7.htm" target="_top" xlink:title="gesture">
<polygon fill="white" stroke="black" points="127,-108 73,-108 73,-72 127,-72 127,-108"/>
<text text-anchor="middle" x="100" y="-87.5" font-family="Helvetica,sans-Serif" font-size="10.00">gesture</text>
</a>
</g>
<!-- dir_f1cba7efe9637c9d892ee7579efb99d7&#45;&gt;dir_24893ff7c9479d2eeac948584bed01fe -->
<g id="edge8" class="edge"><title>dir_f1cba7efe9637c9d892ee7579efb99d7&#45;&gt;dir_24893ff7c9479d2eeac948584bed01fe</title>
<path fill="none" stroke="black" d="M112.688,-71.7641C117.718,-65.8411 123.984,-59.818 131,-56 163.204,-38.4765 265.593,-26.6088 321.569,-21.2507"/>
<polygon fill="black" stroke="black" points="322.151,-24.7116 331.782,-20.296 321.5,-17.7419 322.151,-24.7116"/>
<a xlink:href="dir_000006_000004.htm" target="_top" xlink:title="5">
<text text-anchor="middle" x="318.836" y="-25.373" font-family="Helvetica,sans-Serif" font-size="10.00">5</text>
</a>
</g>
<!-- dir_f81935cc378fa8f1958a40a311e330ab -->
<g id="node6" class="node"><title>dir_f81935cc378fa8f1958a40a311e330ab</title>
<a xlink:href="dir_f81935cc378fa8f1958a40a311e330ab.htm" target="_top" xlink:title="hosts">
<polygon fill="white" stroke="black" points="78,-180 24,-180 24,-144 78,-144 78,-180"/>
<text text-anchor="middle" x="51" y="-159.5" font-family="Helvetica,sans-Serif" font-size="10.00">hosts</text>
</a>
</g>
<!-- dir_f81935cc378fa8f1958a40a311e330ab&#45;&gt;dir_f1cba7efe9637c9d892ee7579efb99d7 -->
<g id="edge10" class="edge"><title>dir_f81935cc378fa8f1958a40a311e330ab&#45;&gt;dir_f1cba7efe9637c9d892ee7579efb99d7</title>
<path fill="none" stroke="black" d="M63.3648,-143.831C68.9509,-135.623 75.663,-125.761 81.8072,-116.732"/>
<polygon fill="black" stroke="black" points="84.736,-118.65 87.4687,-108.413 78.949,-114.711 84.736,-118.65"/>
<a xlink:href="dir_000007_000006.htm" target="_top" xlink:title="1">
<text text-anchor="middle" x="85.0609" y="-120.719" font-family="Helvetica,sans-Serif" font-size="10.00">1</text>
</a>
</g>
<!-- dir_4d1b408716a5cb7786a1807b5fb03498 -->
<g id="node8" class="node"><title>dir_4d1b408716a5cb7786a1807b5fb03498</title>
<a xlink:href="dir_4d1b408716a5cb7786a1807b5fb03498.htm" target="_top" xlink:title="nyx">
<polygon fill="none" stroke="black" points="386,-108 332,-108 332,-72 386,-72 386,-108"/>
<text text-anchor="middle" x="359" y="-87.5" font-family="Helvetica,sans-Serif" font-size="10.00">nyx</text>
</a>
</g>
<!-- dir_f81935cc378fa8f1958a40a311e330ab&#45;&gt;dir_4d1b408716a5cb7786a1807b5fb03498 -->
<g id="edge12" class="edge"><title>dir_f81935cc378fa8f1958a40a311e330ab&#45;&gt;dir_4d1b408716a5cb7786a1807b5fb03498</title>
<path fill="none" stroke="black" d="M78.1481,-147.333C81.0846,-146.078 84.0705,-144.933 87,-144 186.838,-112.187 219.677,-138.249 320,-108 320.723,-107.782 321.45,-107.553 322.179,-107.315"/>
<polygon fill="black" stroke="black" points="323.534,-110.544 331.675,-103.764 321.083,-103.988 323.534,-110.544"/>
<a xlink:href="dir_000007_000009.htm" target="_top" xlink:title="2">
<text text-anchor="middle" x="321.162" y="-111.963" font-family="Helvetica,sans-Serif" font-size="10.00">2</text>
</a>
</g>
<!-- dir_f81935cc378fa8f1958a40a311e330ab&#45;&gt;dir_24893ff7c9479d2eeac948584bed01fe -->
<g id="edge14" class="edge"><title>dir_f81935cc378fa8f1958a40a311e330ab&#45;&gt;dir_24893ff7c9479d2eeac948584bed01fe</title>
<path fill="none" stroke="black" d="M78.0841,-148.35C81.0862,-146.869 84.1039,-145.394 87,-144 170.872,-103.617 270.327,-58.1543 322.644,-34.4245"/>
<polygon fill="black" stroke="black" points="324.186,-37.5683 331.85,-30.2527 321.297,-31.1925 324.186,-37.5683"/>
<a xlink:href="dir_000007_000004.htm" target="_top" xlink:title="28">
<text text-anchor="middle" x="322.084" y="-39.1381" font-family="Helvetica,sans-Serif" font-size="10.00">28</text>
</a>
</g>
<!-- dir_30cb4734583df5c110a65525b0882e62 -->
<g id="node7" class="node"><title>dir_30cb4734583df5c110a65525b0882e62</title>
<a xlink:href="dir_30cb4734583df5c110a65525b0882e62.htm" target="_top" xlink:title="settings">
<polygon fill="white" stroke="black" points="150,-180 96,-180 96,-144 150,-144 150,-180"/>
<text text-anchor="middle" x="123" y="-159.5" font-family="Helvetica,sans-Serif" font-size="10.00">settings</text>
</a>
</g>
<!-- dir_30cb4734583df5c110a65525b0882e62&#45;&gt;dir_24893ff7c9479d2eeac948584bed01fe -->
<g id="edge6" class="edge"><title>dir_30cb4734583df5c110a65525b0882e62&#45;&gt;dir_24893ff7c9479d2eeac948584bed01fe</title>
<path fill="none" stroke="black" d="M150.146,-147.327C153.083,-146.073 156.07,-144.931 159,-144 209.562,-127.942 360.431,-148.242 395,-108 410.06,-90.4691 403.555,-77.4694 395,-56 393.289,-51.7051 390.836,-47.6164 388.003,-43.8217"/>
<polygon fill="black" stroke="black" points="390.494,-41.3489 381.338,-36.018 385.171,-45.8951 390.494,-41.3489"/>
<a xlink:href="dir_000008_000004.htm" target="_top" xlink:title="12">
<text text-anchor="middle" x="394.988" y="-39.7382" font-family="Helvetica,sans-Serif" font-size="10.00">12</text>
</a>
</g>
<!-- dir_4d1b408716a5cb7786a1807b5fb03498&#45;&gt;dir_24893ff7c9479d2eeac948584bed01fe -->
<g id="edge16" class="edge"><title>dir_4d1b408716a5cb7786a1807b5fb03498&#45;&gt;dir_24893ff7c9479d2eeac948584bed01fe</title>
<path fill="none" stroke="black" d="M359,-71.8314C359,-64.131 359,-54.9743 359,-46.4166"/>
<polygon fill="black" stroke="black" points="362.5,-46.4132 359,-36.4133 355.5,-46.4133 362.5,-46.4132"/>
<a xlink:href="dir_000009_000004.htm" target="_top" xlink:title="6">
<text text-anchor="middle" x="365.339" y="-47.5079" font-family="Helvetica,sans-Serif" font-size="10.00">6</text>
</a>
</g>
</g>
</svg>
