<?xml version="1.0" encoding="UTF-8" standalone="no"?>
<!DOCTYPE svg PUBLIC "-//W3C//DTD SVG 1.1//EN"
 "http://www.w3.org/Graphics/SVG/1.1/DTD/svg11.dtd">
<!-- Generated by graphviz version 2.26.3 (20100126.1600)
 -->
<!-- Title: Event.h Pages: 1 -->
<svg width="515pt" height="146pt"
 viewBox="0.00 0.00 515.45 146.00" xmlns="http://www.w3.org/2000/svg" xmlns:xlink="http://www.w3.org/1999/xlink">
<g id="graph1" class="graph" transform="scale(1 1) rotate(0) translate(4 142)">
<title>Event.h</title>
<polygon fill="white" stroke="white" points="-4,5 -4,-142 512.45,-142 512.45,5 -4,5"/>
<!-- Node1 -->
<g id="node1" class="node"><title>Node1</title>
<polygon fill="#bfbfbf" stroke="black" points="196,-116.5 196,-137.5 248,-137.5 248,-116.5 196,-116.5"/>
<text text-anchor="middle" x="222" y="-124.5" font-family="Helvetica,sans-Serif" font-size="10.00">Event.h</text>
</g>
<!-- Node2 -->
<g id="node3" class="node"><title>Node2</title>
<a xlink:href="Common_8h.htm" target="_top" xlink:title="Common.h">
<polygon fill="white" stroke="black" points="-0.5,-0.5 -0.5,-21.5 66.5,-21.5 66.5,-0.5 -0.5,-0.5"/>
<text text-anchor="middle" x="33" y="-8.5" font-family="Helvetica,sans-Serif" font-size="10.00">Common.h</text>
</a>
</g>
<!-- Node1&#45;&gt;Node2 -->
<g id="edge2" class="edge"><title>Node1&#45;&gt;Node2</title>
<path fill="none" stroke="midnightblue" d="M195.679,-124.537C147.789,-119.454 49.4538,-106.033 29,-80 18.3816,-66.4854 20.8975,-46.4934 25.1744,-31.5031"/>
<polygon fill="midnightblue" stroke="midnightblue" points="28.6206,-32.2292 28.4372,-21.6359 21.9746,-30.0314 28.6206,-32.2292"/>
</g>
<!-- Node3 -->
<g id="node5" class="node"><title>Node3</title>
<polygon fill="white" stroke="#bfbfbf" points="38,-58.5 38,-79.5 88,-79.5 88,-58.5 38,-58.5"/>
<text text-anchor="middle" x="63" y="-66.5" font-family="Helvetica,sans-Serif" font-size="10.00">stdint.h</text>
</g>
<!-- Node1&#45;&gt;Node3 -->
<g id="edge4" class="edge"><title>Node1&#45;&gt;Node3</title>
<path fill="none" stroke="midnightblue" d="M195.744,-117.422C168.959,-107.652 127.251,-92.4373 97.7433,-81.6737"/>
<polygon fill="midnightblue" stroke="midnightblue" points="98.8374,-78.3472 88.2434,-78.2083 96.4385,-84.9233 98.8374,-78.3472"/>
</g>
<!-- Node4 -->
<g id="node7" class="node"><title>Node4</title>
<polygon fill="white" stroke="#bfbfbf" points="301.5,-0.5 301.5,-21.5 342.5,-21.5 342.5,-0.5 301.5,-0.5"/>
<text text-anchor="middle" x="322" y="-8.5" font-family="Helvetica,sans-Serif" font-size="10.00">glib.h</text>
</g>
<!-- Node1&#45;&gt;Node4 -->
<g id="edge6" class="edge"><title>Node1&#45;&gt;Node4</title>
<path fill="none" stroke="midnightblue" d="M248.197,-124.47C314.127,-117.839 482.83,-99.1446 499,-80 540.859,-30.4404 413.909,-16.3043 352.839,-12.4143"/>
<polygon fill="midnightblue" stroke="midnightblue" points="352.789,-8.90556 342.603,-11.819 352.383,-15.8937 352.789,-8.90556"/>
</g>
<!-- Node5 -->
<g id="node9" class="node"><title>Node5</title>
<polygon fill="white" stroke="#bfbfbf" points="165.5,-58.5 165.5,-79.5 212.5,-79.5 212.5,-58.5 165.5,-58.5"/>
<text text-anchor="middle" x="189" y="-66.5" font-family="Helvetica,sans-Serif" font-size="10.00">stdio.h</text>
</g>
<!-- Node1&#45;&gt;Node5 -->
<g id="edge8" class="edge"><title>Node1&#45;&gt;Node5</title>
<path fill="none" stroke="midnightblue" d="M215.947,-116.362C211.528,-108.595 205.41,-97.8426 200.121,-88.5458"/>
<polygon fill="midnightblue" stroke="midnightblue" points="203.002,-86.5315 195.014,-79.5707 196.918,-89.9932 203.002,-86.5315"/>
</g>
<!-- Node6 -->
<g id="node11" class="node"><title>Node6</title>
<polygon fill="white" stroke="#bfbfbf" points="229.5,-58.5 229.5,-79.5 280.5,-79.5 280.5,-58.5 229.5,-58.5"/>
<text text-anchor="middle" x="255" y="-66.5" font-family="Helvetica,sans-Serif" font-size="10.00">string.h</text>
</g>
<!-- Node1&#45;&gt;Node6 -->
<g id="edge10" class="edge"><title>Node1&#45;&gt;Node6</title>
<path fill="none" stroke="midnightblue" d="M228.053,-116.362C232.472,-108.595 238.59,-97.8426 243.879,-88.5458"/>
<polygon fill="midnightblue" stroke="midnightblue" points="247.082,-89.9932 248.986,-79.5707 240.998,-86.5315 247.082,-89.9932"/>
</g>
<!-- Node7 -->
<g id="node13" class="node"><title>Node7</title>
<polygon fill="white" stroke="#bfbfbf" points="298,-58.5 298,-79.5 384,-79.5 384,-58.5 298,-58.5"/>
<text text-anchor="middle" x="341" y="-66.5" font-family="Helvetica,sans-Serif" font-size="10.00">qnamespace.h</text>
</g>
<!-- Node1&#45;&gt;Node7 -->
<g id="edge12" class="edge"><title>Node1&#45;&gt;Node7</title>
<path fill="none" stroke="midnightblue" d="M243.55,-116.497C262.136,-107.438 289.202,-94.2462 310.095,-84.0628"/>
<polygon fill="midnightblue" stroke="midnightblue" points="311.753,-87.1487 319.208,-79.6212 308.686,-80.8563 311.753,-87.1487"/>
</g>
<!-- Node8 -->
<g id="node15" class="node"><title>Node8</title>
<polygon fill="white" stroke="#bfbfbf" points="402,-58.5 402,-79.5 490,-79.5 490,-58.5 402,-58.5"/>
<text text-anchor="middle" x="446" y="-66.5" font-family="Helvetica,sans-Serif" font-size="10.00">SysMgrEvent.h</text>
</g>
<!-- Node1&#45;&gt;Node8 -->
<g id="edge14" class="edge"><title>Node1&#45;&gt;Node8</title>
<path fill="none" stroke="midnightblue" d="M248.134,-120.233C284.153,-110.907 349.782,-93.9137 395.538,-82.066"/>
<polygon fill="midnightblue" stroke="midnightblue" points="396.466,-85.4411 405.27,-79.5462 394.712,-78.6646 396.466,-85.4411"/>
</g>
<!-- Node9 -->
<g id="node17" class="node"><title>Node9</title>
<a xlink:href="sptr_8h.htm" target="_top" xlink:title="sptr.h">
<polygon fill="white" stroke="black" points="105.5,-58.5 105.5,-79.5 148.5,-79.5 148.5,-58.5 105.5,-58.5"/>
<text text-anchor="middle" x="127" y="-66.5" font-family="Helvetica,sans-Serif" font-size="10.00">sptr.h</text>
</a>
</g>
<!-- Node1&#45;&gt;Node9 -->
<g id="edge16" class="edge"><title>Node1&#45;&gt;Node9</title>
<path fill="none" stroke="midnightblue" d="M204.576,-116.362C190.113,-107.532 169.331,-94.844 152.916,-84.8224"/>
<polygon fill="midnightblue" stroke="midnightblue" points="154.673,-81.7943 144.314,-79.5707 151.025,-87.7688 154.673,-81.7943"/>
</g>
<!-- Node9&#45;&gt;Node2 -->
<g id="edge18" class="edge"><title>Node9&#45;&gt;Node2</title>
<path fill="none" stroke="midnightblue" d="M109.759,-58.3619C95.4484,-49.532 74.885,-36.844 58.6432,-26.8224"/>
<polygon fill="midnightblue" stroke="midnightblue" points="60.48,-23.8431 50.1317,-21.5707 56.8042,-29.8004 60.48,-23.8431"/>
</g>
<!-- Node9&#45;&gt;Node4 -->
<g id="edge20" class="edge"><title>Node9&#45;&gt;Node4</title>
<path fill="none" stroke="midnightblue" d="M148.564,-60.877C151.39,-59.8759 154.257,-58.8923 157,-58 203.389,-42.9113 257.954,-27.8925 291.248,-19.0296"/>
<polygon fill="midnightblue" stroke="midnightblue" points="292.502,-22.3184 301.273,-16.3761 290.71,-15.5515 292.502,-22.3184"/>
</g>
</g>
</svg>
