<?xml version="1.0" encoding="UTF-8" standalone="no"?>
<!DOCTYPE svg PUBLIC "-//W3C//DTD SVG 1.1//EN"
 "http://www.w3.org/Graphics/SVG/1.1/DTD/svg11.dtd">
<!-- Generated by graphviz version 2.26.3 (20100126.1600)
 -->
<!-- Title: Event.h Pages: 1 -->
<svg width="1434pt" height="320pt"
 viewBox="0.00 0.00 1434.00 320.00" xmlns="http://www.w3.org/2000/svg" xmlns:xlink="http://www.w3.org/1999/xlink">
<g id="graph1" class="graph" transform="scale(1 1) rotate(0) translate(4 316)">
<title>Event.h</title>
<polygon fill="white" stroke="white" points="-4,5 -4,-316 1431,-316 1431,5 -4,5"/>
<!-- Node1 -->
<g id="node1" class="node"><title>Node1</title>
<polygon fill="#bfbfbf" stroke="black" points="545,-290.5 545,-311.5 597,-311.5 597,-290.5 545,-290.5"/>
<text text-anchor="middle" x="571" y="-298.5" font-family="Helvetica,sans-Serif" font-size="10.00">Event.h</text>
</g>
<!-- Node2 -->
<g id="node3" class="node"><title>Node2</title>
<a xlink:href="HostArm_8cpp.htm" target="_top" xlink:title="HostArm.cpp">
<polygon fill="white" stroke="black" points="-0.5,-58.5 -0.5,-79.5 76.5,-79.5 76.5,-58.5 -0.5,-58.5"/>
<text text-anchor="middle" x="38" y="-66.5" font-family="Helvetica,sans-Serif" font-size="10.00">HostArm.cpp</text>
</a>
</g>
<!-- Node1&#45;&gt;Node2 -->
<g id="edge2" class="edge"><title>Node1&#45;&gt;Node2</title>
<path fill="none" stroke="midnightblue" d="M537.454,-286.398C438.254,-243.219 147.896,-116.835 62.1241,-79.5006"/>
<polygon fill="midnightblue" stroke="midnightblue" points="536.147,-289.647 546.713,-290.429 538.941,-283.228 536.147,-289.647"/>
</g>
<!-- Node4 -->
<g id="node7" class="node"><title>Node4</title>
<a xlink:href="HostArm_8h.htm" target="_top" xlink:title="HostArm.h">
<polygon fill="white" stroke="black" points="538.5,-116.5 538.5,-137.5 603.5,-137.5 603.5,-116.5 538.5,-116.5"/>
<text text-anchor="middle" x="571" y="-124.5" font-family="Helvetica,sans-Serif" font-size="10.00">HostArm.h</text>
</a>
</g>
<!-- Node1&#45;&gt;Node4 -->
<g id="edge6" class="edge"><title>Node1&#45;&gt;Node4</title>
<path fill="none" stroke="midnightblue" d="M571,-280.2C571,-243.013 571,-166.36 571,-137.928"/>
<polygon fill="midnightblue" stroke="midnightblue" points="567.5,-280.377 571,-290.377 574.5,-280.377 567.5,-280.377"/>
</g>
<!-- Node12 -->
<g id="node25" class="node"><title>Node12</title>
<a xlink:href="TaskBase_8h.htm" target="_top" xlink:title="TaskBase.h">
<polygon fill="white" stroke="black" points="1044,-232.5 1044,-253.5 1116,-253.5 1116,-232.5 1044,-232.5"/>
<text text-anchor="middle" x="1080" y="-240.5" font-family="Helvetica,sans-Serif" font-size="10.00">TaskBase.h</text>
</a>
</g>
<!-- Node1&#45;&gt;Node12 -->
<g id="edge26" class="edge"><title>Node1&#45;&gt;Node12</title>
<path fill="none" stroke="midnightblue" d="M607.426,-296.849C701.189,-286.165 950.045,-257.808 1043.69,-247.138"/>
<polygon fill="midnightblue" stroke="midnightblue" points="606.834,-293.394 597.294,-298.004 607.626,-300.349 606.834,-293.394"/>
</g>
<!-- Node3 -->
<g id="node5" class="node"><title>Node3</title>
<a xlink:href="HostBase_8cpp.htm" target="_top" xlink:title="HostBase.cpp">
<polygon fill="white" stroke="black" points="907,-0.5 907,-21.5 989,-21.5 989,-0.5 907,-0.5"/>
<text text-anchor="middle" x="948" y="-8.5" font-family="Helvetica,sans-Serif" font-size="10.00">HostBase.cpp</text>
</a>
</g>
<!-- Node2&#45;&gt;Node3 -->
<g id="edge4" class="edge"><title>Node2&#45;&gt;Node3</title>
<path fill="none" stroke="midnightblue" d="M86.7096,-57.9987C266.047,-34.1825 760.542,-16.9879 906.79,-12.2841"/>
<polygon fill="midnightblue" stroke="midnightblue" points="86.0527,-54.5561 76.6265,-59.3931 87.0117,-61.4901 86.0527,-54.5561"/>
</g>
<!-- Node4&#45;&gt;Node2 -->
<g id="edge8" class="edge"><title>Node4&#45;&gt;Node2</title>
<path fill="none" stroke="midnightblue" d="M528.145,-123.595C425.91,-115.354 169.924,-93.9802 85,-80 82.2713,-79.5508 79.465,-79.0346 76.6466,-78.4762"/>
<polygon fill="midnightblue" stroke="midnightblue" points="528.159,-127.108 538.408,-124.42 528.72,-120.13 528.159,-127.108"/>
</g>
<!-- Node5 -->
<g id="node10" class="node"><title>Node5</title>
<a xlink:href="HostArmBroadway_8cpp.htm" target="_top" xlink:title="HostArmBroadway.cpp">
<polygon fill="white" stroke="black" points="368,-58.5 368,-79.5 492,-79.5 492,-58.5 368,-58.5"/>
<text text-anchor="middle" x="430" y="-66.5" font-family="Helvetica,sans-Serif" font-size="10.00">HostArmBroadway.cpp</text>
</a>
</g>
<!-- Node4&#45;&gt;Node5 -->
<g id="edge10" class="edge"><title>Node4&#45;&gt;Node5</title>
<path fill="none" stroke="midnightblue" d="M536.03,-112.615C511.17,-102.389 478.328,-88.8796 455.821,-79.6212"/>
<polygon fill="midnightblue" stroke="midnightblue" points="534.886,-115.929 545.466,-116.497 537.549,-109.456 534.886,-115.929"/>
</g>
<!-- Node6 -->
<g id="node12" class="node"><title>Node6</title>
<a xlink:href="HostArmMantaray_8cpp.htm" target="_top" xlink:title="HostArmMantaray.cpp">
<polygon fill="white" stroke="black" points="510,-58.5 510,-79.5 632,-79.5 632,-58.5 510,-58.5"/>
<text text-anchor="middle" x="571" y="-66.5" font-family="Helvetica,sans-Serif" font-size="10.00">HostArmMantaray.cpp</text>
</a>
</g>
<!-- Node4&#45;&gt;Node6 -->
<g id="edge12" class="edge"><title>Node4&#45;&gt;Node6</title>
<path fill="none" stroke="midnightblue" d="M571,-106.191C571,-97.1684 571,-86.9941 571,-79.5707"/>
<polygon fill="midnightblue" stroke="midnightblue" points="567.5,-106.362 571,-116.362 574.5,-106.362 567.5,-106.362"/>
</g>
<!-- Node7 -->
<g id="node14" class="node"><title>Node7</title>
<a xlink:href="HostArmOpal_8cpp.htm" target="_top" xlink:title="HostArmOpal.cpp">
<polygon fill="white" stroke="black" points="649.5,-58.5 649.5,-79.5 748.5,-79.5 748.5,-58.5 649.5,-58.5"/>
<text text-anchor="middle" x="699" y="-66.5" font-family="Helvetica,sans-Serif" font-size="10.00">HostArmOpal.cpp</text>
</a>
</g>
<!-- Node4&#45;&gt;Node7 -->
<g id="edge14" class="edge"><title>Node4&#45;&gt;Node7</title>
<path fill="none" stroke="midnightblue" d="M603.346,-112.343C625.841,-102.15 655.309,-88.7977 675.56,-79.6212"/>
<polygon fill="midnightblue" stroke="midnightblue" points="601.844,-109.181 594.18,-116.497 604.733,-115.557 601.844,-109.181"/>
</g>
<!-- Node8 -->
<g id="node16" class="node"><title>Node8</title>
<a xlink:href="HostArmQemu_8cpp.htm" target="_top" xlink:title="HostArmQemu.cpp">
<polygon fill="white" stroke="black" points="766,-58.5 766,-79.5 870,-79.5 870,-58.5 766,-58.5"/>
<text text-anchor="middle" x="818" y="-66.5" font-family="Helvetica,sans-Serif" font-size="10.00">HostArmQemu.cpp</text>
</a>
</g>
<!-- Node4&#45;&gt;Node8 -->
<g id="edge16" class="edge"><title>Node4&#45;&gt;Node8</title>
<path fill="none" stroke="midnightblue" d="M613.479,-117.025C658.055,-106.558 727.834,-90.1725 773.246,-79.5091"/>
<polygon fill="midnightblue" stroke="midnightblue" points="612.48,-113.664 603.545,-119.358 614.08,-120.479 612.48,-113.664"/>
</g>
<!-- Node9 -->
<g id="node18" class="node"><title>Node9</title>
<a xlink:href="HostArmTopaz_8cpp.htm" target="_top" xlink:title="HostArmTopaz.cpp">
<polygon fill="white" stroke="black" points="93.5,-58.5 93.5,-79.5 200.5,-79.5 200.5,-58.5 93.5,-58.5"/>
<text text-anchor="middle" x="147" y="-66.5" font-family="Helvetica,sans-Serif" font-size="10.00">HostArmTopaz.cpp</text>
</a>
</g>
<!-- Node4&#45;&gt;Node9 -->
<g id="edge18" class="edge"><title>Node4&#45;&gt;Node9</title>
<path fill="none" stroke="midnightblue" d="M528.193,-122.095C460.359,-114.176 324.054,-97.6657 209,-80 206.299,-79.5852 203.534,-79.1466 200.743,-78.6926"/>
<polygon fill="midnightblue" stroke="midnightblue" points="528.142,-125.613 538.479,-123.291 528.95,-118.66 528.142,-125.613"/>
</g>
<!-- Node10 -->
<g id="node20" class="node"><title>Node10</title>
<a xlink:href="HostArmUnknown_8cpp.htm" target="_top" xlink:title="HostArmUnknown.cpp">
<polygon fill="white" stroke="black" points="887.5,-58.5 887.5,-79.5 1008.5,-79.5 1008.5,-58.5 887.5,-58.5"/>
<text text-anchor="middle" x="948" y="-66.5" font-family="Helvetica,sans-Serif" font-size="10.00">HostArmUnknown.cpp</text>
</a>
</g>
<!-- Node4&#45;&gt;Node10 -->
<g id="edge20" class="edge"><title>Node4&#45;&gt;Node10</title>
<path fill="none" stroke="midnightblue" d="M613.986,-120.533C673.529,-111.554 784.467,-94.7478 879,-80 881.757,-79.5699 884.575,-79.1284 887.422,-78.6808"/>
<polygon fill="midnightblue" stroke="midnightblue" points="613.198,-117.112 603.831,-122.063 614.241,-124.034 613.198,-117.112"/>
</g>
<!-- Node11 -->
<g id="node23" class="node"><title>Node11</title>
<a xlink:href="HostArmWindsorNot_8cpp.htm" target="_top" xlink:title="HostArmWindsorNot.cpp">
<polygon fill="white" stroke="black" points="218,-58.5 218,-79.5 350,-79.5 350,-58.5 218,-58.5"/>
<text text-anchor="middle" x="284" y="-66.5" font-family="Helvetica,sans-Serif" font-size="10.00">HostArmWindsorNot.cpp</text>
</a>
</g>
<!-- Node4&#45;&gt;Node11 -->
<g id="edge24" class="edge"><title>Node4&#45;&gt;Node11</title>
<path fill="none" stroke="midnightblue" d="M528.275,-118.366C477.006,-108.005 391.082,-90.6402 336.005,-79.5097"/>
<polygon fill="midnightblue" stroke="midnightblue" points="527.862,-121.853 538.357,-120.403 529.248,-114.992 527.862,-121.853"/>
</g>
<!-- Node10&#45;&gt;Node3 -->
<g id="edge22" class="edge"><title>Node10&#45;&gt;Node3</title>
<path fill="none" stroke="midnightblue" d="M948,-48.1906C948,-39.1684 948,-28.9941 948,-21.5707"/>
<polygon fill="midnightblue" stroke="midnightblue" points="944.5,-48.3619 948,-58.3619 951.5,-48.3619 944.5,-48.3619"/>
</g>
<!-- Node13 -->
<g id="node27" class="node"><title>Node13</title>
<a xlink:href="TaskBase_8cpp.htm" target="_top" xlink:title="TaskBase.cpp">
<polygon fill="white" stroke="black" points="1176.5,-174.5 1176.5,-195.5 1259.5,-195.5 1259.5,-174.5 1176.5,-174.5"/>
<text text-anchor="middle" x="1218" y="-182.5" font-family="Helvetica,sans-Serif" font-size="10.00">TaskBase.cpp</text>
</a>
</g>
<!-- Node12&#45;&gt;Node13 -->
<g id="edge28" class="edge"><title>Node12&#45;&gt;Node13</title>
<path fill="none" stroke="midnightblue" d="M1114.23,-228.615C1138.56,-218.389 1170.7,-204.88 1192.73,-195.621"/>
<polygon fill="midnightblue" stroke="midnightblue" points="1112.85,-225.395 1104.99,-232.497 1115.57,-231.849 1112.85,-225.395"/>
</g>
<!-- Node14 -->
<g id="node29" class="node"><title>Node14</title>
<a xlink:href="HostBase_8h.htm" target="_top" xlink:title="HostBase.h">
<polygon fill="white" stroke="black" points="1000.5,-174.5 1000.5,-195.5 1071.5,-195.5 1071.5,-174.5 1000.5,-174.5"/>
<text text-anchor="middle" x="1036" y="-182.5" font-family="Helvetica,sans-Serif" font-size="10.00">HostBase.h</text>
</a>
</g>
<!-- Node12&#45;&gt;Node14 -->
<g id="edge30" class="edge"><title>Node12&#45;&gt;Node14</title>
<path fill="none" stroke="midnightblue" d="M1065.78,-224.25C1058.57,-214.75 1050.08,-203.565 1044.02,-195.571"/>
<polygon fill="midnightblue" stroke="midnightblue" points="1063.1,-226.51 1071.93,-232.362 1068.67,-222.28 1063.1,-226.51"/>
</g>
<!-- Node20 -->
<g id="node44" class="node"><title>Node20</title>
<a xlink:href="SyncTask_8h.htm" target="_top" xlink:title="SyncTask.h">
<polygon fill="white" stroke="black" points="1088.5,-174.5 1088.5,-195.5 1159.5,-195.5 1159.5,-174.5 1088.5,-174.5"/>
<text text-anchor="middle" x="1124" y="-182.5" font-family="Helvetica,sans-Serif" font-size="10.00">SyncTask.h</text>
</a>
</g>
<!-- Node12&#45;&gt;Node20 -->
<g id="edge48" class="edge"><title>Node12&#45;&gt;Node20</title>
<path fill="none" stroke="midnightblue" d="M1094.22,-224.25C1101.43,-214.75 1109.92,-203.565 1115.98,-195.571"/>
<polygon fill="midnightblue" stroke="midnightblue" points="1091.33,-222.28 1088.07,-232.362 1096.9,-226.51 1091.33,-222.28"/>
</g>
<!-- Node14&#45;&gt;Node2 -->
<g id="edge34" class="edge"><title>Node14&#45;&gt;Node2</title>
<path fill="none" stroke="midnightblue" d="M990.147,-182.216C852.293,-173.361 429.844,-142.664 85,-80 82.2791,-79.5056 79.4787,-78.9558 76.6645,-78.3732"/>
<polygon fill="midnightblue" stroke="midnightblue" points="990.133,-185.723 1000.34,-182.864 990.578,-178.737 990.133,-185.723"/>
</g>
<!-- Node14&#45;&gt;Node3 -->
<g id="edge38" class="edge"><title>Node14&#45;&gt;Node3</title>
<path fill="none" stroke="midnightblue" d="M1037.77,-164.023C1038.98,-137.313 1037.54,-90.711 1017,-58 1006.67,-41.5513 988.251,-29.445 973.039,-21.6418"/>
<polygon fill="midnightblue" stroke="midnightblue" points="1034.26,-163.954 1037.13,-174.154 1041.25,-164.392 1034.26,-163.954"/>
</g>
<!-- Node14&#45;&gt;Node4 -->
<g id="edge36" class="edge"><title>Node14&#45;&gt;Node4</title>
<path fill="none" stroke="midnightblue" d="M990.263,-179.295C896.619,-167.615 685.038,-141.224 603.704,-131.079"/>
<polygon fill="midnightblue" stroke="midnightblue" points="989.928,-182.78 1000.28,-180.545 990.794,-175.834 989.928,-182.78"/>
</g>
<!-- Node15 -->
<g id="node31" class="node"><title>Node15</title>
<a xlink:href="FlickGestureRecognizer_8cpp.htm" target="_top" xlink:title="FlickGestureRecognizer.cpp">
<polygon fill="white" stroke="black" points="1177.5,-116.5 1177.5,-137.5 1326.5,-137.5 1326.5,-116.5 1177.5,-116.5"/>
<text text-anchor="middle" x="1252" y="-124.5" font-family="Helvetica,sans-Serif" font-size="10.00">FlickGestureRecognizer.cpp</text>
</a>
</g>
<!-- Node14&#45;&gt;Node15 -->
<g id="edge32" class="edge"><title>Node14&#45;&gt;Node15</title>
<path fill="none" stroke="midnightblue" d="M1081.66,-172.739C1120.5,-162.31 1175.69,-147.49 1212.62,-137.575"/>
<polygon fill="midnightblue" stroke="midnightblue" points="1080.42,-169.449 1071.67,-175.422 1082.23,-176.209 1080.42,-169.449"/>
</g>
<!-- Node16 -->
<g id="node36" class="node"><title>Node16</title>
<a xlink:href="HostQtDesktop_8h.htm" target="_top" xlink:title="HostQtDesktop.h">
<polygon fill="white" stroke="black" points="1063.5,-116.5 1063.5,-137.5 1160.5,-137.5 1160.5,-116.5 1063.5,-116.5"/>
<text text-anchor="middle" x="1112" y="-124.5" font-family="Helvetica,sans-Serif" font-size="10.00">HostQtDesktop.h</text>
</a>
</g>
<!-- Node14&#45;&gt;Node16 -->
<g id="edge40" class="edge"><title>Node14&#45;&gt;Node16</title>
<path fill="none" stroke="midnightblue" d="M1057.94,-168.259C1070.9,-158.364 1086.93,-146.136 1098.15,-137.571"/>
<polygon fill="midnightblue" stroke="midnightblue" points="1055.77,-165.513 1049.94,-174.362 1060.01,-171.077 1055.77,-165.513"/>
</g>
<!-- Node18 -->
<g id="node40" class="node"><title>Node18</title>
<a xlink:href="LocalePreferences_8cpp.htm" target="_top" xlink:title="LocalePreferences.cpp">
<polygon fill="white" stroke="black" points="883.5,-116.5 883.5,-137.5 1008.5,-137.5 1008.5,-116.5 883.5,-116.5"/>
<text text-anchor="middle" x="946" y="-124.5" font-family="Helvetica,sans-Serif" font-size="10.00">LocalePreferences.cpp</text>
</a>
</g>
<!-- Node14&#45;&gt;Node18 -->
<g id="edge44" class="edge"><title>Node14&#45;&gt;Node18</title>
<path fill="none" stroke="midnightblue" d="M1010.9,-168.821C995.393,-158.831 975.947,-146.299 962.403,-137.571"/>
<polygon fill="midnightblue" stroke="midnightblue" points="1009.19,-171.887 1019.49,-174.362 1012.98,-166.003 1009.19,-171.887"/>
</g>
<!-- Node19 -->
<g id="node42" class="node"><title>Node19</title>
<a xlink:href="SyncTask_8cpp.htm" target="_top" xlink:title="SyncTask.cpp">
<polygon fill="white" stroke="black" points="1343.5,-116.5 1343.5,-137.5 1426.5,-137.5 1426.5,-116.5 1343.5,-116.5"/>
<text text-anchor="middle" x="1385" y="-124.5" font-family="Helvetica,sans-Serif" font-size="10.00">SyncTask.cpp</text>
</a>
</g>
<!-- Node14&#45;&gt;Node19 -->
<g id="edge46" class="edge"><title>Node14&#45;&gt;Node19</title>
<path fill="none" stroke="midnightblue" d="M1081.96,-173.752C1194.11,-152.421 1225.55,-157.736 1335,-138 1337.71,-137.511 1340.5,-136.979 1343.31,-136.422"/>
<polygon fill="midnightblue" stroke="midnightblue" points="1081.1,-170.354 1071.95,-175.687 1082.43,-177.227 1081.1,-170.354"/>
</g>
<!-- Node17 -->
<g id="node38" class="node"><title>Node17</title>
<a xlink:href="HostQtDesktop_8cpp.htm" target="_top" xlink:title="HostQtDesktop.cpp">
<polygon fill="white" stroke="black" points="1064,-58.5 1064,-79.5 1172,-79.5 1172,-58.5 1064,-58.5"/>
<text text-anchor="middle" x="1118" y="-66.5" font-family="Helvetica,sans-Serif" font-size="10.00">HostQtDesktop.cpp</text>
</a>
</g>
<!-- Node16&#45;&gt;Node17 -->
<g id="edge42" class="edge"><title>Node16&#45;&gt;Node17</title>
<path fill="none" stroke="midnightblue" d="M1114.15,-106.191C1115.09,-97.1684 1116.14,-86.9941 1116.91,-79.5707"/>
<polygon fill="midnightblue" stroke="midnightblue" points="1110.65,-106.055 1113.1,-116.362 1117.61,-106.775 1110.65,-106.055"/>
</g>
<!-- Node20&#45;&gt;Node19 -->
<g id="edge50" class="edge"><title>Node20&#45;&gt;Node19</title>
<path fill="none" stroke="midnightblue" d="M1169.35,-173.731C1243.59,-156.551 1263.85,-153.494 1335,-138 1337.69,-137.414 1340.47,-136.808 1343.26,-136.196"/>
<polygon fill="midnightblue" stroke="midnightblue" points="1168.47,-170.343 1159.52,-176.015 1170.05,-177.161 1168.47,-170.343"/>
</g>
</g>
</svg>
