<?xml version="1.0" encoding="UTF-8" standalone="no"?>
<!DOCTYPE svg PUBLIC "-//W3C//DTD SVG 1.1//EN"
 "http://www.w3.org/Graphics/SVG/1.1/DTD/svg11.dtd">
<!-- Generated by graphviz version 2.26.3 (20100126.1600)
 -->
<!-- Title: FlickGestureRecognizer.h Pages: 1 -->
<svg width="282pt" height="88pt"
 viewBox="0.00 0.00 282.00 88.00" xmlns="http://www.w3.org/2000/svg" xmlns:xlink="http://www.w3.org/1999/xlink">
<g id="graph1" class="graph" transform="scale(1 1) rotate(0) translate(4 84)">
<title>FlickGestureRecognizer.h</title>
<polygon fill="white" stroke="white" points="-4,5 -4,-84 279,-84 279,5 -4,5"/>
<!-- Node1 -->
<g id="node1" class="node"><title>Node1</title>
<polygon fill="#bfbfbf" stroke="black" points="78.5,-58.5 78.5,-79.5 215.5,-79.5 215.5,-58.5 78.5,-58.5"/>
<text text-anchor="middle" x="147" y="-66.5" font-family="Helvetica,sans-Serif" font-size="10.00">FlickGestureRecognizer.h</text>
</g>
<!-- Node2 -->
<g id="node3" class="node"><title>Node2</title>
<a xlink:href="FlickGestureRecognizer_8cpp.htm" target="_top" xlink:title="FlickGestureRecognizer.cpp">
<polygon fill="white" stroke="black" points="-0.5,-0.5 -0.5,-21.5 148.5,-21.5 148.5,-0.5 -0.5,-0.5"/>
<text text-anchor="middle" x="74" y="-8.5" font-family="Helvetica,sans-Serif" font-size="10.00">FlickGestureRecognizer.cpp</text>
</a>
</g>
<!-- Node1&#45;&gt;Node2 -->
<g id="edge2" class="edge"><title>Node1&#45;&gt;Node2</title>
<path fill="none" stroke="midnightblue" d="M125.572,-51.9753C113.183,-42.1315 97.9824,-30.0545 87.3044,-21.5707"/>
<polygon fill="midnightblue" stroke="midnightblue" points="123.604,-54.8815 133.611,-58.3619 127.958,-49.4008 123.604,-54.8815"/>
</g>
<!-- Node3 -->
<g id="node5" class="node"><title>Node3</title>
<a xlink:href="HostQtDesktop_8cpp.htm" target="_top" xlink:title="HostQtDesktop.cpp">
<polygon fill="white" stroke="black" points="166,-0.5 166,-21.5 274,-21.5 274,-0.5 166,-0.5"/>
<text text-anchor="middle" x="220" y="-8.5" font-family="Helvetica,sans-Serif" font-size="10.00">HostQtDesktop.cpp</text>
</a>
</g>
<!-- Node1&#45;&gt;Node3 -->
<g id="edge4" class="edge"><title>Node1&#45;&gt;Node3</title>
<path fill="none" stroke="midnightblue" d="M168.428,-51.9753C180.817,-42.1315 196.018,-30.0545 206.696,-21.5707"/>
<polygon fill="midnightblue" stroke="midnightblue" points="166.042,-49.4008 160.389,-58.3619 170.396,-54.8815 166.042,-49.4008"/>
</g>
</g>
</svg>
