<?xml version="1.0" encoding="UTF-8" standalone="no"?>
<!DOCTYPE svg PUBLIC "-//W3C//DTD SVG 1.1//EN"
 "http://www.w3.org/Graphics/SVG/1.1/DTD/svg11.dtd">
<!-- Generated by graphviz version 2.26.3 (20100126.1600)
 -->
<!-- Title: FlickGestureRecognizer.h Pages: 1 -->
<svg width="348pt" height="88pt"
 viewBox="0.00 0.00 348.00 88.00" xmlns="http://www.w3.org/2000/svg" xmlns:xlink="http://www.w3.org/1999/xlink">
<g id="graph1" class="graph" transform="scale(1 1) rotate(0) translate(4 84)">
<title>FlickGestureRecognizer.h</title>
<polygon fill="white" stroke="white" points="-4,5 -4,-84 345,-84 345,5 -4,5"/>
<!-- Node1 -->
<g id="node1" class="node"><title>Node1</title>
<polygon fill="#bfbfbf" stroke="black" points="123.5,-58.5 123.5,-79.5 260.5,-79.5 260.5,-58.5 123.5,-58.5"/>
<text text-anchor="middle" x="192" y="-66.5" font-family="Helvetica,sans-Serif" font-size="10.00">FlickGestureRecognizer.h</text>
</g>
<!-- Node2 -->
<g id="node3" class="node"><title>Node2</title>
<a xlink:href="Common_8h.htm" target="_top" xlink:title="Common.h">
<polygon fill="white" stroke="black" points="-0.5,-0.5 -0.5,-21.5 66.5,-21.5 66.5,-0.5 -0.5,-0.5"/>
<text text-anchor="middle" x="33" y="-8.5" font-family="Helvetica,sans-Serif" font-size="10.00">Common.h</text>
</a>
</g>
<!-- Node1&#45;&gt;Node2 -->
<g id="edge2" class="edge"><title>Node1&#45;&gt;Node2</title>
<path fill="none" stroke="midnightblue" d="M163.206,-58.4966C137.509,-49.1229 99.682,-35.3242 71.4127,-25.0122"/>
<polygon fill="midnightblue" stroke="midnightblue" points="72.4416,-21.662 61.8477,-21.5231 70.0427,-28.2381 72.4416,-21.662"/>
</g>
<!-- Node3 -->
<g id="node5" class="node"><title>Node3</title>
<polygon fill="white" stroke="#bfbfbf" points="84,-0.5 84,-21.5 200,-21.5 200,-0.5 84,-0.5"/>
<text text-anchor="middle" x="142" y="-8.5" font-family="Helvetica,sans-Serif" font-size="10.00">QGestureRecognizer</text>
</g>
<!-- Node1&#45;&gt;Node3 -->
<g id="edge4" class="edge"><title>Node1&#45;&gt;Node3</title>
<path fill="none" stroke="midnightblue" d="M182.829,-58.3619C175.852,-50.2678 166.079,-38.9318 157.844,-29.3796"/>
<polygon fill="midnightblue" stroke="midnightblue" points="160.293,-26.8595 151.113,-21.5707 154.991,-31.4301 160.293,-26.8595"/>
</g>
<!-- Node4 -->
<g id="node7" class="node"><title>Node4</title>
<polygon fill="white" stroke="#bfbfbf" points="217.5,-0.5 217.5,-21.5 266.5,-21.5 266.5,-0.5 217.5,-0.5"/>
<text text-anchor="middle" x="242" y="-8.5" font-family="Helvetica,sans-Serif" font-size="10.00">QPoint</text>
</g>
<!-- Node1&#45;&gt;Node4 -->
<g id="edge6" class="edge"><title>Node1&#45;&gt;Node4</title>
<path fill="none" stroke="midnightblue" d="M201.171,-58.3619C208.148,-50.2678 217.921,-38.9318 226.156,-29.3796"/>
<polygon fill="midnightblue" stroke="midnightblue" points="229.009,-31.4301 232.887,-21.5707 223.707,-26.8595 229.009,-31.4301"/>
</g>
<!-- Node5 -->
<g id="node9" class="node"><title>Node5</title>
<polygon fill="white" stroke="#bfbfbf" points="284,-0.5 284,-21.5 340,-21.5 340,-0.5 284,-0.5"/>
<text text-anchor="middle" x="312" y="-8.5" font-family="Helvetica,sans-Serif" font-size="10.00">QQueue</text>
</g>
<!-- Node1&#45;&gt;Node5 -->
<g id="edge8" class="edge"><title>Node1&#45;&gt;Node5</title>
<path fill="none" stroke="midnightblue" d="M213.731,-58.4966C232.474,-49.4378 259.767,-36.2462 280.836,-26.0628"/>
<polygon fill="midnightblue" stroke="midnightblue" points="282.545,-29.1242 290.025,-21.6212 279.498,-22.8217 282.545,-29.1242"/>
</g>
</g>
</svg>
