<?xml version="1.0" encoding="UTF-8" standalone="no"?>
<!DOCTYPE svg PUBLIC "-//W3C//DTD SVG 1.1//EN"
 "http://www.w3.org/Graphics/SVG/1.1/DTD/svg11.dtd">
<!-- Generated by graphviz version 2.26.3 (20100126.1600)
 -->
<!-- Title: FlickGesture.h Pages: 1 -->
<svg width="320pt" height="88pt"
 viewBox="0.00 0.00 320.00 88.00" xmlns="http://www.w3.org/2000/svg" xmlns:xlink="http://www.w3.org/1999/xlink">
<g id="graph1" class="graph" transform="scale(1 1) rotate(0) translate(4 84)">
<title>FlickGesture.h</title>
<polygon fill="white" stroke="white" points="-4,5 -4,-84 317,-84 317,5 -4,5"/>
<!-- Node1 -->
<g id="node1" class="node"><title>Node1</title>
<polygon fill="#bfbfbf" stroke="black" points="109.5,-58.5 109.5,-79.5 192.5,-79.5 192.5,-58.5 109.5,-58.5"/>
<text text-anchor="middle" x="151" y="-66.5" font-family="Helvetica,sans-Serif" font-size="10.00">FlickGesture.h</text>
</g>
<!-- Node2 -->
<g id="node3" class="node"><title>Node2</title>
<a xlink:href="Common_8h.htm" target="_top" xlink:title="Common.h">
<polygon fill="white" stroke="black" points="-0.5,-0.5 -0.5,-21.5 66.5,-21.5 66.5,-0.5 -0.5,-0.5"/>
<text text-anchor="middle" x="33" y="-8.5" font-family="Helvetica,sans-Serif" font-size="10.00">Common.h</text>
</a>
</g>
<!-- Node1&#45;&gt;Node2 -->
<g id="edge2" class="edge"><title>Node1&#45;&gt;Node2</title>
<path fill="none" stroke="midnightblue" d="M129.631,-58.4966C111.201,-49.4378 84.3629,-36.2462 63.6449,-26.0628"/>
<polygon fill="midnightblue" stroke="midnightblue" points="65.1271,-22.8914 54.6087,-21.6212 62.0392,-29.1735 65.1271,-22.8914"/>
</g>
<!-- Node3 -->
<g id="node5" class="node"><title>Node3</title>
<polygon fill="white" stroke="#bfbfbf" points="84,-0.5 84,-21.5 146,-21.5 146,-0.5 84,-0.5"/>
<text text-anchor="middle" x="115" y="-8.5" font-family="Helvetica,sans-Serif" font-size="10.00">QGesture</text>
</g>
<!-- Node1&#45;&gt;Node3 -->
<g id="edge4" class="edge"><title>Node1&#45;&gt;Node3</title>
<path fill="none" stroke="midnightblue" d="M144.397,-58.3619C139.525,-50.5131 132.762,-39.6159 126.95,-30.2527"/>
<polygon fill="midnightblue" stroke="midnightblue" points="129.809,-28.2213 121.561,-21.5707 123.861,-31.9129 129.809,-28.2213"/>
</g>
<!-- Node4 -->
<g id="node7" class="node"><title>Node4</title>
<polygon fill="white" stroke="#bfbfbf" points="163.5,-0.5 163.5,-21.5 212.5,-21.5 212.5,-0.5 163.5,-0.5"/>
<text text-anchor="middle" x="188" y="-8.5" font-family="Helvetica,sans-Serif" font-size="10.00">QPoint</text>
</g>
<!-- Node1&#45;&gt;Node4 -->
<g id="edge6" class="edge"><title>Node1&#45;&gt;Node4</title>
<path fill="none" stroke="midnightblue" d="M157.786,-58.3619C162.793,-50.5131 169.745,-39.6159 175.718,-30.2527"/>
<polygon fill="midnightblue" stroke="midnightblue" points="178.829,-31.8837 181.257,-21.5707 172.928,-28.1189 178.829,-31.8837"/>
</g>
<!-- Node5 -->
<g id="node9" class="node"><title>Node5</title>
<polygon fill="white" stroke="#bfbfbf" points="229.5,-0.5 229.5,-21.5 312.5,-21.5 312.5,-0.5 229.5,-0.5"/>
<text text-anchor="middle" x="271" y="-8.5" font-family="Helvetica,sans-Serif" font-size="10.00">SysMgrDefs.h</text>
</g>
<!-- Node1&#45;&gt;Node5 -->
<g id="edge8" class="edge"><title>Node1&#45;&gt;Node5</title>
<path fill="none" stroke="midnightblue" d="M172.731,-58.4966C191.474,-49.4378 218.767,-36.2462 239.836,-26.0628"/>
<polygon fill="midnightblue" stroke="midnightblue" points="241.545,-29.1242 249.025,-21.6212 238.498,-22.8217 241.545,-29.1242"/>
</g>
</g>
</svg>
