<?xml version="1.0" encoding="UTF-8" standalone="no"?>
<!DOCTYPE svg PUBLIC "-//W3C//DTD SVG 1.1//EN"
 "http://www.w3.org/Graphics/SVG/1.1/DTD/svg11.dtd">
<!-- Generated by graphviz version 2.26.3 (20100126.1600)
 -->
<!-- Title: FlickGestureRecognizer.cpp Pages: 1 -->
<svg width="1639pt" height="320pt"
 viewBox="0.00 0.00 1638.54 320.00" xmlns="http://www.w3.org/2000/svg" xmlns:xlink="http://www.w3.org/1999/xlink">
<g id="graph1" class="graph" transform="scale(1 1) rotate(0) translate(4 316)">
<title>FlickGestureRecognizer.cpp</title>
<polygon fill="white" stroke="white" points="-4,5 -4,-316 1635.54,-316 1635.54,5 -4,5"/>
<!-- Node1 -->
<g id="node1" class="node"><title>Node1</title>
<polygon fill="#bfbfbf" stroke="black" points="426.5,-290.5 426.5,-311.5 575.5,-311.5 575.5,-290.5 426.5,-290.5"/>
<text text-anchor="middle" x="501" y="-298.5" font-family="Helvetica,sans-Serif" font-size="10.00">FlickGestureRecognizer.cpp</text>
</g>
<!-- Node2 -->
<g id="node3" class="node"><title>Node2</title>
<a xlink:href="Common_8h.htm" target="_top" xlink:title="Common.h">
<polygon fill="white" stroke="black" points="783.5,-0.5 783.5,-21.5 850.5,-21.5 850.5,-0.5 783.5,-0.5"/>
<text text-anchor="middle" x="817" y="-8.5" font-family="Helvetica,sans-Serif" font-size="10.00">Common.h</text>
</a>
</g>
<!-- Node1&#45;&gt;Node2 -->
<g id="edge2" class="edge"><title>Node1&#45;&gt;Node2</title>
<path fill="none" stroke="midnightblue" d="M426.266,-299.09C286.603,-293.479 0,-271.434 0,-185 0,-185 0,-185 0,-127 0,-48.155 604.148,-19.1329 773.4,-12.5494"/>
<polygon fill="midnightblue" stroke="midnightblue" points="773.591,-16.0448 783.449,-12.1652 773.323,-9.0499 773.591,-16.0448"/>
</g>
<!-- Node3 -->
<g id="node5" class="node"><title>Node3</title>
<a xlink:href="FlickGestureRecognizer_8h.htm" target="_top" xlink:title="FlickGestureRecognizer.h">
<polygon fill="white" stroke="black" points="111.5,-232.5 111.5,-253.5 248.5,-253.5 248.5,-232.5 111.5,-232.5"/>
<text text-anchor="middle" x="180" y="-240.5" font-family="Helvetica,sans-Serif" font-size="10.00">FlickGestureRecognizer.h</text>
</a>
</g>
<!-- Node1&#45;&gt;Node3 -->
<g id="edge4" class="edge"><title>Node1&#45;&gt;Node3</title>
<path fill="none" stroke="midnightblue" d="M442.869,-290.497C388.159,-280.611 306.212,-265.805 248.384,-255.356"/>
<polygon fill="midnightblue" stroke="midnightblue" points="248.703,-251.857 238.24,-253.523 247.458,-258.745 248.703,-251.857"/>
</g>
<!-- Node7 -->
<g id="node14" class="node"><title>Node7</title>
<polygon fill="white" stroke="#bfbfbf" points="680,-116.5 680,-137.5 732,-137.5 732,-116.5 680,-116.5"/>
<text text-anchor="middle" x="706" y="-124.5" font-family="Helvetica,sans-Serif" font-size="10.00">QEvent</text>
</g>
<!-- Node1&#45;&gt;Node7 -->
<g id="edge14" class="edge"><title>Node1&#45;&gt;Node7</title>
<path fill="none" stroke="midnightblue" d="M562.756,-290.498C588.595,-283.605 617.54,-272.326 639,-254 672.638,-225.274 691.834,-175.353 700.448,-147.421"/>
<polygon fill="midnightblue" stroke="midnightblue" points="703.883,-148.142 703.327,-137.561 697.164,-146.179 703.883,-148.142"/>
</g>
<!-- Node8 -->
<g id="node16" class="node"><title>Node8</title>
<polygon fill="white" stroke="#bfbfbf" points="365.5,-232.5 365.5,-253.5 446.5,-253.5 446.5,-232.5 365.5,-232.5"/>
<text text-anchor="middle" x="406" y="-240.5" font-family="Helvetica,sans-Serif" font-size="10.00">QTouchEvent</text>
</g>
<!-- Node1&#45;&gt;Node8 -->
<g id="edge16" class="edge"><title>Node1&#45;&gt;Node8</title>
<path fill="none" stroke="midnightblue" d="M483.576,-290.362C469.113,-281.532 448.331,-268.844 431.916,-258.822"/>
<polygon fill="midnightblue" stroke="midnightblue" points="433.673,-255.794 423.314,-253.571 430.025,-261.769 433.673,-255.794"/>
</g>
<!-- Node9 -->
<g id="node18" class="node"><title>Node9</title>
<polygon fill="white" stroke="#bfbfbf" points="464,-232.5 464,-253.5 538,-253.5 538,-232.5 464,-232.5"/>
<text text-anchor="middle" x="501" y="-240.5" font-family="Helvetica,sans-Serif" font-size="10.00">QTransform</text>
</g>
<!-- Node1&#45;&gt;Node9 -->
<g id="edge18" class="edge"><title>Node1&#45;&gt;Node9</title>
<path fill="none" stroke="midnightblue" d="M501,-290.362C501,-282.922 501,-272.743 501,-263.728"/>
<polygon fill="midnightblue" stroke="midnightblue" points="504.5,-263.571 501,-253.571 497.5,-263.571 504.5,-263.571"/>
</g>
<!-- Node10 -->
<g id="node20" class="node"><title>Node10</title>
<polygon fill="white" stroke="#bfbfbf" points="555.5,-232.5 555.5,-253.5 610.5,-253.5 610.5,-232.5 555.5,-232.5"/>
<text text-anchor="middle" x="583" y="-240.5" font-family="Helvetica,sans-Serif" font-size="10.00">QDebug</text>
</g>
<!-- Node1&#45;&gt;Node10 -->
<g id="edge20" class="edge"><title>Node1&#45;&gt;Node10</title>
<path fill="none" stroke="midnightblue" d="M516.04,-290.362C528.293,-281.696 545.799,-269.313 559.839,-259.382"/>
<polygon fill="midnightblue" stroke="midnightblue" points="561.912,-262.203 568.055,-253.571 557.87,-256.488 561.912,-262.203"/>
</g>
<!-- Node11 -->
<g id="node22" class="node"><title>Node11</title>
<a xlink:href="FlickGesture_8h.htm" target="_top" xlink:title="FlickGesture.h">
<polygon fill="white" stroke="black" points="265.5,-232.5 265.5,-253.5 348.5,-253.5 348.5,-232.5 265.5,-232.5"/>
<text text-anchor="middle" x="307" y="-240.5" font-family="Helvetica,sans-Serif" font-size="10.00">FlickGesture.h</text>
</a>
</g>
<!-- Node1&#45;&gt;Node11 -->
<g id="edge22" class="edge"><title>Node1&#45;&gt;Node11</title>
<path fill="none" stroke="midnightblue" d="M465.868,-290.497C433.967,-280.959 386.743,-266.841 352.072,-256.475"/>
<polygon fill="midnightblue" stroke="midnightblue" points="352.781,-253.034 342.198,-253.523 350.776,-259.741 352.781,-253.034"/>
</g>
<!-- Node14 -->
<g id="node30" class="node"><title>Node14</title>
<a xlink:href="Time_8h.htm" target="_top" xlink:title="Time.h">
<polygon fill="white" stroke="black" points="614,-116.5 614,-137.5 662,-137.5 662,-116.5 614,-116.5"/>
<text text-anchor="middle" x="638" y="-124.5" font-family="Helvetica,sans-Serif" font-size="10.00">Time.h</text>
</a>
</g>
<!-- Node1&#45;&gt;Node14 -->
<g id="edge32" class="edge"><title>Node1&#45;&gt;Node14</title>
<path fill="none" stroke="midnightblue" d="M559.802,-290.466C581.542,-283.632 604.414,-272.406 619,-254 643.34,-223.286 643.212,-174.873 640.742,-147.548"/>
<polygon fill="midnightblue" stroke="midnightblue" points="644.216,-147.115 639.646,-137.556 637.257,-147.878 644.216,-147.115"/>
</g>
<!-- Node18 -->
<g id="node39" class="node"><title>Node18</title>
<a xlink:href="HostBase_8h.htm" target="_top" xlink:title="HostBase.h">
<polygon fill="white" stroke="black" points="954.5,-232.5 954.5,-253.5 1025.5,-253.5 1025.5,-232.5 954.5,-232.5"/>
<text text-anchor="middle" x="990" y="-240.5" font-family="Helvetica,sans-Serif" font-size="10.00">HostBase.h</text>
</a>
</g>
<!-- Node1&#45;&gt;Node18 -->
<g id="edge42" class="edge"><title>Node1&#45;&gt;Node18</title>
<path fill="none" stroke="midnightblue" d="M575.535,-292.16C678.07,-279.998 859.536,-258.474 944.162,-248.437"/>
<polygon fill="midnightblue" stroke="midnightblue" points="944.715,-251.896 954.233,-247.242 943.891,-244.945 944.715,-251.896"/>
</g>
<!-- Node3&#45;&gt;Node2 -->
<g id="edge6" class="edge"><title>Node3&#45;&gt;Node2</title>
<path fill="none" stroke="midnightblue" d="M191.511,-232.359C207.324,-218.053 236.999,-192.303 265,-174 359.174,-112.443 382.834,-92.2554 490,-58 588.067,-26.6532 709.384,-16.1581 773.128,-12.685"/>
<polygon fill="midnightblue" stroke="midnightblue" points="773.417,-16.1748 783.225,-12.1678 773.059,-9.18401 773.417,-16.1748"/>
</g>
<!-- Node4 -->
<g id="node8" class="node"><title>Node4</title>
<polygon fill="white" stroke="#bfbfbf" points="28,-174.5 28,-195.5 144,-195.5 144,-174.5 28,-174.5"/>
<text text-anchor="middle" x="86" y="-182.5" font-family="Helvetica,sans-Serif" font-size="10.00">QGestureRecognizer</text>
</g>
<!-- Node3&#45;&gt;Node4 -->
<g id="edge8" class="edge"><title>Node3&#45;&gt;Node4</title>
<path fill="none" stroke="midnightblue" d="M162.759,-232.362C148.448,-223.532 127.885,-210.844 111.643,-200.822"/>
<polygon fill="midnightblue" stroke="midnightblue" points="113.48,-197.843 103.132,-195.571 109.804,-203.8 113.48,-197.843"/>
</g>
<!-- Node5 -->
<g id="node10" class="node"><title>Node5</title>
<polygon fill="white" stroke="#bfbfbf" points="273.5,-174.5 273.5,-195.5 322.5,-195.5 322.5,-174.5 273.5,-174.5"/>
<text text-anchor="middle" x="298" y="-182.5" font-family="Helvetica,sans-Serif" font-size="10.00">QPoint</text>
</g>
<!-- Node3&#45;&gt;Node5 -->
<g id="edge10" class="edge"><title>Node3&#45;&gt;Node5</title>
<path fill="none" stroke="midnightblue" d="M201.369,-232.497C219.799,-223.438 246.637,-210.246 267.355,-200.063"/>
<polygon fill="midnightblue" stroke="midnightblue" points="268.961,-203.174 276.391,-195.621 265.873,-196.891 268.961,-203.174"/>
</g>
<!-- Node6 -->
<g id="node12" class="node"><title>Node6</title>
<polygon fill="white" stroke="#bfbfbf" points="162,-174.5 162,-195.5 218,-195.5 218,-174.5 162,-174.5"/>
<text text-anchor="middle" x="190" y="-182.5" font-family="Helvetica,sans-Serif" font-size="10.00">QQueue</text>
</g>
<!-- Node3&#45;&gt;Node6 -->
<g id="edge12" class="edge"><title>Node3&#45;&gt;Node6</title>
<path fill="none" stroke="midnightblue" d="M181.834,-232.362C183.131,-224.84 184.911,-214.519 186.477,-205.431"/>
<polygon fill="midnightblue" stroke="midnightblue" points="189.927,-206.02 188.177,-195.571 183.029,-204.831 189.927,-206.02"/>
</g>
<!-- Node11&#45;&gt;Node2 -->
<g id="edge24" class="edge"><title>Node11&#45;&gt;Node2</title>
<path fill="none" stroke="midnightblue" d="M315.101,-232.431C326.3,-218.206 347.568,-192.549 369,-174 439.279,-113.178 456.651,-92.3831 543,-58 620.3,-27.2203 717.742,-16.5818 773.146,-12.9158"/>
<polygon fill="midnightblue" stroke="midnightblue" points="773.551,-16.3976 783.318,-12.2904 773.122,-9.41079 773.551,-16.3976"/>
</g>
<!-- Node11&#45;&gt;Node5 -->
<g id="edge28" class="edge"><title>Node11&#45;&gt;Node5</title>
<path fill="none" stroke="midnightblue" d="M305.349,-232.362C304.195,-224.922 302.615,-214.743 301.216,-205.728"/>
<polygon fill="midnightblue" stroke="midnightblue" points="304.632,-204.916 299.64,-195.571 297.715,-205.989 304.632,-204.916"/>
</g>
<!-- Node12 -->
<g id="node25" class="node"><title>Node12</title>
<polygon fill="white" stroke="#bfbfbf" points="378,-174.5 378,-195.5 440,-195.5 440,-174.5 378,-174.5"/>
<text text-anchor="middle" x="409" y="-182.5" font-family="Helvetica,sans-Serif" font-size="10.00">QGesture</text>
</g>
<!-- Node11&#45;&gt;Node12 -->
<g id="edge26" class="edge"><title>Node11&#45;&gt;Node12</title>
<path fill="none" stroke="midnightblue" d="M325.708,-232.362C341.381,-223.45 363.964,-210.609 381.663,-200.545"/>
<polygon fill="midnightblue" stroke="midnightblue" points="383.447,-203.556 390.41,-195.571 379.987,-197.471 383.447,-203.556"/>
</g>
<!-- Node13 -->
<g id="node28" class="node"><title>Node13</title>
<polygon fill="white" stroke="#bfbfbf" points="457.5,-174.5 457.5,-195.5 540.5,-195.5 540.5,-174.5 457.5,-174.5"/>
<text text-anchor="middle" x="499" y="-182.5" font-family="Helvetica,sans-Serif" font-size="10.00">SysMgrDefs.h</text>
</g>
<!-- Node11&#45;&gt;Node13 -->
<g id="edge30" class="edge"><title>Node11&#45;&gt;Node13</title>
<path fill="none" stroke="midnightblue" d="M341.77,-232.497C373.342,-222.959 420.079,-208.841 454.393,-198.475"/>
<polygon fill="midnightblue" stroke="midnightblue" points="455.604,-201.765 464.165,-195.523 453.58,-195.064 455.604,-201.765"/>
</g>
<!-- Node14&#45;&gt;Node2 -->
<g id="edge34" class="edge"><title>Node14&#45;&gt;Node2</title>
<path fill="none" stroke="midnightblue" d="M654.519,-116.295C686.035,-95.8712 754.908,-51.2381 792.06,-27.1624"/>
<polygon fill="midnightblue" stroke="midnightblue" points="794.291,-29.8872 800.779,-21.5117 790.484,-24.0129 794.291,-29.8872"/>
</g>
<!-- Node15 -->
<g id="node33" class="node"><title>Node15</title>
<polygon fill="white" stroke="#bfbfbf" points="613.5,-58.5 613.5,-79.5 676.5,-79.5 676.5,-58.5 613.5,-58.5"/>
<text text-anchor="middle" x="645" y="-66.5" font-family="Helvetica,sans-Serif" font-size="10.00">sys/time.h</text>
</g>
<!-- Node14&#45;&gt;Node15 -->
<g id="edge36" class="edge"><title>Node14&#45;&gt;Node15</title>
<path fill="none" stroke="midnightblue" d="M639.284,-116.362C640.182,-108.922 641.41,-98.7427 642.498,-89.7276"/>
<polygon fill="midnightblue" stroke="midnightblue" points="646.001,-89.918 643.724,-79.5707 639.051,-89.0792 646.001,-89.918"/>
</g>
<!-- Node16 -->
<g id="node35" class="node"><title>Node16</title>
<polygon fill="white" stroke="#bfbfbf" points="552,-58.5 552,-79.5 596,-79.5 596,-58.5 552,-58.5"/>
<text text-anchor="middle" x="574" y="-66.5" font-family="Helvetica,sans-Serif" font-size="10.00">time.h</text>
</g>
<!-- Node14&#45;&gt;Node16 -->
<g id="edge38" class="edge"><title>Node14&#45;&gt;Node16</title>
<path fill="none" stroke="midnightblue" d="M626.261,-116.362C617.059,-108.023 604.06,-96.2418 593.328,-86.5162"/>
<polygon fill="midnightblue" stroke="midnightblue" points="595.424,-83.6924 585.664,-79.5707 590.724,-88.8793 595.424,-83.6924"/>
</g>
<!-- Node17 -->
<g id="node37" class="node"><title>Node17</title>
<polygon fill="white" stroke="#bfbfbf" points="902,-58.5 902,-79.5 952,-79.5 952,-58.5 902,-58.5"/>
<text text-anchor="middle" x="927" y="-66.5" font-family="Helvetica,sans-Serif" font-size="10.00">stdint.h</text>
</g>
<!-- Node14&#45;&gt;Node17 -->
<g id="edge40" class="edge"><title>Node14&#45;&gt;Node17</title>
<path fill="none" stroke="midnightblue" d="M662.034,-118.556C665.035,-117.63 668.076,-116.752 671,-116 748.834,-95.988 842.078,-81.0974 891.755,-73.871"/>
<polygon fill="midnightblue" stroke="midnightblue" points="892.272,-77.3327 901.673,-72.4462 891.277,-70.4038 892.272,-77.3327"/>
</g>
<!-- Node18&#45;&gt;Node2 -->
<g id="edge44" class="edge"><title>Node18&#45;&gt;Node2</title>
<path fill="none" stroke="midnightblue" d="M954.498,-239.839C921.933,-235.215 874.163,-223.856 843,-196 796.462,-154.401 805.202,-70.792 812.408,-31.8479"/>
<polygon fill="midnightblue" stroke="midnightblue" points="815.866,-32.4042 814.398,-21.9116 809.003,-31.0297 815.866,-32.4042"/>
</g>
<!-- Node19 -->
<g id="node42" class="node"><title>Node19</title>
<a xlink:href="TaskBase_8h.htm" target="_top" xlink:title="TaskBase.h">
<polygon fill="white" stroke="black" points="1164,-174.5 1164,-195.5 1236,-195.5 1236,-174.5 1164,-174.5"/>
<text text-anchor="middle" x="1200" y="-182.5" font-family="Helvetica,sans-Serif" font-size="10.00">TaskBase.h</text>
</a>
</g>
<!-- Node18&#45;&gt;Node19 -->
<g id="edge46" class="edge"><title>Node18&#45;&gt;Node19</title>
<path fill="none" stroke="midnightblue" d="M1025.62,-233.161C1060.96,-223.4 1115.29,-208.397 1153.9,-197.733"/>
<polygon fill="midnightblue" stroke="midnightblue" points="1155.14,-201.02 1163.85,-194.984 1153.28,-194.273 1155.14,-201.02"/>
</g>
<!-- Node29 -->
<g id="node71" class="node"><title>Node29</title>
<a xlink:href="Mutex_8h.htm" target="_top" xlink:title="Mutex.h">
<polygon fill="white" stroke="black" points="1518.5,-116.5 1518.5,-137.5 1571.5,-137.5 1571.5,-116.5 1518.5,-116.5"/>
<text text-anchor="middle" x="1545" y="-124.5" font-family="Helvetica,sans-Serif" font-size="10.00">Mutex.h</text>
</a>
</g>
<!-- Node18&#45;&gt;Node29 -->
<g id="edge100" class="edge"><title>Node18&#45;&gt;Node29</title>
<path fill="none" stroke="midnightblue" d="M1025.57,-236.95C1074.94,-228.439 1166.98,-212.155 1245,-196 1340.33,-176.261 1451.89,-149.677 1508.32,-135.983"/>
<polygon fill="midnightblue" stroke="midnightblue" points="1509.3,-139.345 1518.19,-133.581 1507.65,-132.543 1509.3,-139.345"/>
</g>
<!-- Node31 -->
<g id="node82" class="node"><title>Node31</title>
<a xlink:href="CustomEvents_8h.htm" target="_top" xlink:title="CustomEvents.h">
<polygon fill="white" stroke="black" points="704,-174.5 704,-195.5 796,-195.5 796,-174.5 704,-174.5"/>
<text text-anchor="middle" x="750" y="-182.5" font-family="Helvetica,sans-Serif" font-size="10.00">CustomEvents.h</text>
</a>
</g>
<!-- Node18&#45;&gt;Node31 -->
<g id="edge102" class="edge"><title>Node18&#45;&gt;Node31</title>
<path fill="none" stroke="midnightblue" d="M954.329,-234.379C914.427,-224.736 849.371,-209.015 803.399,-197.905"/>
<polygon fill="midnightblue" stroke="midnightblue" points="804.148,-194.485 793.606,-195.538 802.504,-201.289 804.148,-194.485"/>
</g>
<!-- Node32 -->
<g id="node86" class="node"><title>Node32</title>
<a xlink:href="InputControl_8h.htm" target="_top" xlink:title="InputControl.h">
<polygon fill="white" stroke="black" points="851.5,-174.5 851.5,-195.5 934.5,-195.5 934.5,-174.5 851.5,-174.5"/>
<text text-anchor="middle" x="893" y="-182.5" font-family="Helvetica,sans-Serif" font-size="10.00">InputControl.h</text>
</a>
</g>
<!-- Node18&#45;&gt;Node32 -->
<g id="edge108" class="edge"><title>Node18&#45;&gt;Node32</title>
<path fill="none" stroke="midnightblue" d="M972.209,-232.362C957.441,-223.532 936.222,-210.844 919.462,-200.822"/>
<polygon fill="midnightblue" stroke="midnightblue" points="921.057,-197.699 910.679,-195.571 917.465,-203.707 921.057,-197.699"/>
</g>
<!-- Node34 -->
<g id="node90" class="node"><title>Node34</title>
<a xlink:href="LedControl_8h.htm" target="_top" xlink:title="LedControl.h">
<polygon fill="white" stroke="black" points="951.5,-174.5 951.5,-195.5 1028.5,-195.5 1028.5,-174.5 951.5,-174.5"/>
<text text-anchor="middle" x="990" y="-182.5" font-family="Helvetica,sans-Serif" font-size="10.00">LedControl.h</text>
</a>
</g>
<!-- Node18&#45;&gt;Node34 -->
<g id="edge112" class="edge"><title>Node18&#45;&gt;Node34</title>
<path fill="none" stroke="midnightblue" d="M990,-232.362C990,-224.922 990,-214.743 990,-205.728"/>
<polygon fill="midnightblue" stroke="midnightblue" points="993.5,-205.571 990,-195.571 986.5,-205.571 993.5,-205.571"/>
</g>
<!-- Node35 -->
<g id="node92" class="node"><title>Node35</title>
<polygon fill="white" stroke="#bfbfbf" points="1045.5,-174.5 1045.5,-195.5 1074.5,-195.5 1074.5,-174.5 1045.5,-174.5"/>
<text text-anchor="middle" x="1060" y="-182.5" font-family="Helvetica,sans-Serif" font-size="10.00">Qt</text>
</g>
<!-- Node18&#45;&gt;Node35 -->
<g id="edge114" class="edge"><title>Node18&#45;&gt;Node35</title>
<path fill="none" stroke="midnightblue" d="M1002.84,-232.362C1013,-223.941 1027.4,-212.011 1039.2,-202.231"/>
<polygon fill="midnightblue" stroke="midnightblue" points="1041.78,-204.646 1047.24,-195.571 1037.31,-199.256 1041.78,-204.646"/>
</g>
<!-- Node36 -->
<g id="node94" class="node"><title>Node36</title>
<polygon fill="white" stroke="#bfbfbf" points="1092,-174.5 1092,-195.5 1146,-195.5 1146,-174.5 1092,-174.5"/>
<text text-anchor="middle" x="1119" y="-182.5" font-family="Helvetica,sans-Serif" font-size="10.00">QImage</text>
</g>
<!-- Node18&#45;&gt;Node36 -->
<g id="edge116" class="edge"><title>Node18&#45;&gt;Node36</title>
<path fill="none" stroke="midnightblue" d="M1013.36,-232.497C1033.69,-223.356 1063.38,-210.008 1086.11,-199.788"/>
<polygon fill="midnightblue" stroke="midnightblue" points="1087.69,-202.914 1095.38,-195.621 1084.82,-196.53 1087.69,-202.914"/>
</g>
<!-- Node19&#45;&gt;Node2 -->
<g id="edge48" class="edge"><title>Node19&#45;&gt;Node2</title>
<path fill="none" stroke="midnightblue" d="M1163.69,-175.951C1160.75,-175.272 1157.83,-174.613 1155,-174 1071,-155.79 1045.56,-167.957 965,-138 946.709,-131.198 944.071,-125.456 927,-116 897.086,-99.4302 883.894,-103.446 859,-80 844.235,-66.0943 832.748,-45.8784 825.548,-30.9203"/>
<polygon fill="midnightblue" stroke="midnightblue" points="828.603,-29.1846 821.26,-21.5468 822.237,-32.0965 828.603,-29.1846"/>
</g>
<!-- Node20 -->
<g id="node45" class="node"><title>Node20</title>
<polygon fill="white" stroke="#bfbfbf" points="1499.5,-0.5 1499.5,-21.5 1540.5,-21.5 1540.5,-0.5 1499.5,-0.5"/>
<text text-anchor="middle" x="1520" y="-8.5" font-family="Helvetica,sans-Serif" font-size="10.00">glib.h</text>
</g>
<!-- Node19&#45;&gt;Node20 -->
<g id="edge50" class="edge"><title>Node19&#45;&gt;Node20</title>
<path fill="none" stroke="midnightblue" d="M1236.16,-184.114C1319.44,-181.508 1522.07,-171.781 1580,-138 1614.87,-117.665 1644.83,-91.9549 1623,-58 1607.1,-33.2614 1574.6,-21.3853 1550.34,-15.787"/>
<polygon fill="midnightblue" stroke="midnightblue" points="1551.02,-12.3538 1540.51,-13.7529 1549.6,-19.2083 1551.02,-12.3538"/>
</g>
<!-- Node21 -->
<g id="node47" class="node"><title>Node21</title>
<polygon fill="white" stroke="#bfbfbf" points="973.5,-116.5 973.5,-137.5 1002.5,-137.5 1002.5,-116.5 973.5,-116.5"/>
<text text-anchor="middle" x="988" y="-124.5" font-family="Helvetica,sans-Serif" font-size="10.00">list</text>
</g>
<!-- Node19&#45;&gt;Node21 -->
<g id="edge52" class="edge"><title>Node19&#45;&gt;Node21</title>
<path fill="none" stroke="midnightblue" d="M1163.99,-176.142C1117.74,-164.755 1040.69,-145.739 1012.48,-137.667"/>
<polygon fill="midnightblue" stroke="midnightblue" points="1013.5,-134.317 1002.91,-134.665 1011.4,-140.996 1013.5,-134.317"/>
</g>
<!-- Node22 -->
<g id="node49" class="node"><title>Node22</title>
<a xlink:href="sptr_8h.htm" target="_top" xlink:title="sptr.h">
<polygon fill="white" stroke="black" points="1523.5,-58.5 1523.5,-79.5 1566.5,-79.5 1566.5,-58.5 1523.5,-58.5"/>
<text text-anchor="middle" x="1545" y="-66.5" font-family="Helvetica,sans-Serif" font-size="10.00">sptr.h</text>
</a>
</g>
<!-- Node19&#45;&gt;Node22 -->
<g id="edge54" class="edge"><title>Node19&#45;&gt;Node22</title>
<path fill="none" stroke="midnightblue" d="M1231.53,-174.398C1297.22,-152.313 1448.04,-101.602 1513.6,-79.5561"/>
<polygon fill="midnightblue" stroke="midnightblue" points="1515.01,-82.7773 1523.37,-76.2728 1512.78,-76.1423 1515.01,-82.7773"/>
</g>
<!-- Node23 -->
<g id="node53" class="node"><title>Node23</title>
<a xlink:href="AsyncCaller_8h.htm" target="_top" xlink:title="AsyncCaller.h">
<polygon fill="white" stroke="black" points="1045.5,-58.5 1045.5,-79.5 1126.5,-79.5 1126.5,-58.5 1045.5,-58.5"/>
<text text-anchor="middle" x="1086" y="-66.5" font-family="Helvetica,sans-Serif" font-size="10.00">AsyncCaller.h</text>
</a>
</g>
<!-- Node19&#45;&gt;Node23 -->
<g id="edge60" class="edge"><title>Node19&#45;&gt;Node23</title>
<path fill="none" stroke="midnightblue" d="M1189.48,-174.295C1169.88,-154.355 1127.61,-111.337 1103.6,-86.9056"/>
<polygon fill="midnightblue" stroke="midnightblue" points="1106,-84.3582 1096.5,-79.6792 1101.01,-89.2648 1106,-84.3582"/>
</g>
<!-- Node24 -->
<g id="node57" class="node"><title>Node24</title>
<a xlink:href="Event_8h.htm" target="_top" xlink:title="Event.h">
<polygon fill="white" stroke="black" points="1207,-116.5 1207,-137.5 1259,-137.5 1259,-116.5 1207,-116.5"/>
<text text-anchor="middle" x="1233" y="-124.5" font-family="Helvetica,sans-Serif" font-size="10.00">Event.h</text>
</a>
</g>
<!-- Node19&#45;&gt;Node24 -->
<g id="edge66" class="edge"><title>Node19&#45;&gt;Node24</title>
<path fill="none" stroke="midnightblue" d="M1206.05,-174.362C1210.47,-166.595 1216.59,-155.843 1221.88,-146.546"/>
<polygon fill="midnightblue" stroke="midnightblue" points="1225.08,-147.993 1226.99,-137.571 1219,-144.531 1225.08,-147.993"/>
</g>
<!-- Node19&#45;&gt;Node29 -->
<g id="edge84" class="edge"><title>Node19&#45;&gt;Node29</title>
<path fill="none" stroke="midnightblue" d="M1236.27,-178.903C1302.45,-167.777 1442.08,-144.303 1508.46,-133.143"/>
<polygon fill="midnightblue" stroke="midnightblue" points="1509.18,-136.571 1518.46,-131.462 1508.02,-129.668 1509.18,-136.571"/>
</g>
<!-- Node30 -->
<g id="node76" class="node"><title>Node30</title>
<a xlink:href="SingletonTimer_8h.htm" target="_top" xlink:title="SingletonTimer.h">
<polygon fill="white" stroke="black" points="1020,-116.5 1020,-137.5 1116,-137.5 1116,-116.5 1020,-116.5"/>
<text text-anchor="middle" x="1068" y="-124.5" font-family="Helvetica,sans-Serif" font-size="10.00">SingletonTimer.h</text>
</a>
</g>
<!-- Node19&#45;&gt;Node30 -->
<g id="edge92" class="edge"><title>Node19&#45;&gt;Node30</title>
<path fill="none" stroke="midnightblue" d="M1176.1,-174.497C1155.2,-165.315 1124.64,-151.889 1101.34,-141.652"/>
<polygon fill="midnightblue" stroke="midnightblue" points="1102.74,-138.44 1092.17,-137.621 1099.92,-144.848 1102.74,-138.44"/>
</g>
<!-- Node22&#45;&gt;Node2 -->
<g id="edge56" class="edge"><title>Node22&#45;&gt;Node2</title>
<path fill="none" stroke="midnightblue" d="M1523.33,-64.9873C1510,-62.6471 1492.56,-59.8091 1477,-58 1245.65,-31.1052 966.774,-17.3306 860.762,-12.7638"/>
<polygon fill="midnightblue" stroke="midnightblue" points="860.895,-9.26634 850.755,-12.338 860.597,-16.26 860.895,-9.26634"/>
</g>
<!-- Node22&#45;&gt;Node20 -->
<g id="edge58" class="edge"><title>Node22&#45;&gt;Node20</title>
<path fill="none" stroke="midnightblue" d="M1540.41,-58.3619C1537.1,-50.6766 1532.53,-40.0686 1528.55,-30.8399"/>
<polygon fill="midnightblue" stroke="midnightblue" points="1531.73,-29.3685 1524.56,-21.5707 1525.3,-32.1393 1531.73,-29.3685"/>
</g>
<!-- Node23&#45;&gt;Node2 -->
<g id="edge62" class="edge"><title>Node23&#45;&gt;Node2</title>
<path fill="none" stroke="midnightblue" d="M1045.44,-60.254C995.73,-49.5365 911.833,-31.4473 860.725,-20.4278"/>
<polygon fill="midnightblue" stroke="midnightblue" points="861.164,-16.9421 850.651,-18.2557 859.689,-23.7848 861.164,-16.9421"/>
</g>
<!-- Node23&#45;&gt;Node20 -->
<g id="edge64" class="edge"><title>Node23&#45;&gt;Node20</title>
<path fill="none" stroke="midnightblue" d="M1126.58,-59.5641C1129.42,-59.0034 1132.25,-58.4752 1135,-58 1266.05,-35.3489 1424.05,-19.6734 1489.41,-13.6924"/>
<polygon fill="midnightblue" stroke="midnightblue" points="1489.8,-17.1715 1499.44,-12.7841 1489.17,-10.2 1489.8,-17.1715"/>
</g>
<!-- Node24&#45;&gt;Node2 -->
<g id="edge68" class="edge"><title>Node24&#45;&gt;Node2</title>
<path fill="none" stroke="midnightblue" d="M1206.86,-121.33C1169.14,-113.016 1097.37,-96.6851 1037,-80 974.002,-62.5894 901.868,-39.3184 857.88,-24.7456"/>
<polygon fill="midnightblue" stroke="midnightblue" points="858.725,-21.338 848.131,-21.5053 856.517,-27.9807 858.725,-21.338"/>
</g>
<!-- Node24&#45;&gt;Node17 -->
<g id="edge70" class="edge"><title>Node24&#45;&gt;Node17</title>
<path fill="none" stroke="midnightblue" d="M1206.67,-123.265C1158.58,-116.244 1053.41,-99.9673 966,-80 964.727,-79.7092 963.433,-79.4027 962.129,-79.0844"/>
<polygon fill="midnightblue" stroke="midnightblue" points="962.638,-75.6006 952.08,-76.4749 960.879,-82.3759 962.638,-75.6006"/>
</g>
<!-- Node24&#45;&gt;Node20 -->
<g id="edge72" class="edge"><title>Node24&#45;&gt;Node20</title>
<path fill="none" stroke="midnightblue" d="M1259.06,-124.621C1314.45,-119.148 1441.71,-104.243 1477,-80 1494.27,-68.1338 1505.98,-46.8216 1512.76,-31.012"/>
<polygon fill="midnightblue" stroke="midnightblue" points="1516.07,-32.1576 1516.51,-21.5721 1509.56,-29.5701 1516.07,-32.1576"/>
</g>
<!-- Node24&#45;&gt;Node22 -->
<g id="edge82" class="edge"><title>Node24&#45;&gt;Node22</title>
<path fill="none" stroke="midnightblue" d="M1259.21,-123.767C1308.66,-117.4 1418.95,-101.924 1510,-80 1511.08,-79.7391 1512.18,-79.4624 1513.29,-79.1734"/>
<polygon fill="midnightblue" stroke="midnightblue" points="1514.62,-82.4328 1523.28,-76.3295 1512.71,-75.7001 1514.62,-82.4328"/>
</g>
<!-- Node25 -->
<g id="node62" class="node"><title>Node25</title>
<polygon fill="white" stroke="#bfbfbf" points="1143.5,-58.5 1143.5,-79.5 1190.5,-79.5 1190.5,-58.5 1143.5,-58.5"/>
<text text-anchor="middle" x="1167" y="-66.5" font-family="Helvetica,sans-Serif" font-size="10.00">stdio.h</text>
</g>
<!-- Node24&#45;&gt;Node25 -->
<g id="edge74" class="edge"><title>Node24&#45;&gt;Node25</title>
<path fill="none" stroke="midnightblue" d="M1220.89,-116.362C1211.31,-107.941 1197.74,-96.0105 1186.61,-86.2308"/>
<polygon fill="midnightblue" stroke="midnightblue" points="1188.85,-83.5427 1179.03,-79.5707 1184.23,-88.8009 1188.85,-83.5427"/>
</g>
<!-- Node26 -->
<g id="node64" class="node"><title>Node26</title>
<polygon fill="white" stroke="#bfbfbf" points="1207.5,-58.5 1207.5,-79.5 1258.5,-79.5 1258.5,-58.5 1207.5,-58.5"/>
<text text-anchor="middle" x="1233" y="-66.5" font-family="Helvetica,sans-Serif" font-size="10.00">string.h</text>
</g>
<!-- Node24&#45;&gt;Node26 -->
<g id="edge76" class="edge"><title>Node24&#45;&gt;Node26</title>
<path fill="none" stroke="midnightblue" d="M1233,-116.362C1233,-108.922 1233,-98.7427 1233,-89.7276"/>
<polygon fill="midnightblue" stroke="midnightblue" points="1236.5,-89.5706 1233,-79.5707 1229.5,-89.5707 1236.5,-89.5706"/>
</g>
<!-- Node27 -->
<g id="node66" class="node"><title>Node27</title>
<polygon fill="white" stroke="#bfbfbf" points="1276,-58.5 1276,-79.5 1362,-79.5 1362,-58.5 1276,-58.5"/>
<text text-anchor="middle" x="1319" y="-66.5" font-family="Helvetica,sans-Serif" font-size="10.00">qnamespace.h</text>
</g>
<!-- Node24&#45;&gt;Node27 -->
<g id="edge78" class="edge"><title>Node24&#45;&gt;Node27</title>
<path fill="none" stroke="midnightblue" d="M1248.77,-116.362C1261.62,-107.696 1279.98,-95.3126 1294.71,-85.3819"/>
<polygon fill="midnightblue" stroke="midnightblue" points="1296.99,-88.0639 1303.33,-79.5707 1293.08,-82.2604 1296.99,-88.0639"/>
</g>
<!-- Node28 -->
<g id="node68" class="node"><title>Node28</title>
<polygon fill="white" stroke="#bfbfbf" points="1380,-58.5 1380,-79.5 1468,-79.5 1468,-58.5 1380,-58.5"/>
<text text-anchor="middle" x="1424" y="-66.5" font-family="Helvetica,sans-Serif" font-size="10.00">SysMgrEvent.h</text>
</g>
<!-- Node24&#45;&gt;Node28 -->
<g id="edge80" class="edge"><title>Node24&#45;&gt;Node28</title>
<path fill="none" stroke="midnightblue" d="M1259.16,-119.057C1290.11,-109.659 1342.14,-93.8585 1379.47,-82.522"/>
<polygon fill="midnightblue" stroke="midnightblue" points="1380.55,-85.8522 1389.1,-79.5975 1378.52,-79.1542 1380.55,-85.8522"/>
</g>
<!-- Node29&#45;&gt;Node2 -->
<g id="edge86" class="edge"><title>Node29&#45;&gt;Node2</title>
<path fill="none" stroke="midnightblue" d="M1556.09,-116.405C1570.2,-101.683 1590.92,-74.9421 1575,-58 1550.42,-31.8504 1019.26,-16.1818 861.07,-12.083"/>
<polygon fill="midnightblue" stroke="midnightblue" points="860.854,-8.57643 850.767,-11.8188 860.674,-15.5741 860.854,-8.57643"/>
</g>
<!-- Node29&#45;&gt;Node20 -->
<g id="edge90" class="edge"><title>Node29&#45;&gt;Node20</title>
<path fill="none" stroke="midnightblue" d="M1567.18,-116.431C1590.5,-103.784 1622.01,-81.3723 1608,-58 1595.58,-37.2865 1570.58,-25.1935 1550.39,-18.4755"/>
<polygon fill="midnightblue" stroke="midnightblue" points="1551.24,-15.0753 1540.65,-15.5151 1549.2,-21.7727 1551.24,-15.0753"/>
</g>
<!-- Node29&#45;&gt;Node22 -->
<g id="edge88" class="edge"><title>Node29&#45;&gt;Node22</title>
<path fill="none" stroke="midnightblue" d="M1545,-116.362C1545,-108.922 1545,-98.7427 1545,-89.7276"/>
<polygon fill="midnightblue" stroke="midnightblue" points="1548.5,-89.5706 1545,-79.5707 1541.5,-89.5707 1548.5,-89.5706"/>
</g>
<!-- Node30&#45;&gt;Node2 -->
<g id="edge94" class="edge"><title>Node30&#45;&gt;Node2</title>
<path fill="none" stroke="midnightblue" d="M1019.87,-116.753C975.972,-106.926 914.744,-91.8721 893,-80 869.025,-66.9093 846.513,-44.7578 832.308,-29.0891"/>
<polygon fill="midnightblue" stroke="midnightblue" points="834.914,-26.7518 825.673,-21.5686 829.665,-31.3829 834.914,-26.7518"/>
</g>
<!-- Node30&#45;&gt;Node17 -->
<g id="edge98" class="edge"><title>Node30&#45;&gt;Node17</title>
<path fill="none" stroke="midnightblue" d="M1042.47,-116.497C1019.91,-107.217 986.805,-93.6005 961.821,-83.3234"/>
<polygon fill="midnightblue" stroke="midnightblue" points="962.924,-79.9926 952.344,-79.4252 960.261,-86.4663 962.924,-79.9926"/>
</g>
<!-- Node30&#45;&gt;Node20 -->
<g id="edge96" class="edge"><title>Node30&#45;&gt;Node20</title>
<path fill="none" stroke="midnightblue" d="M1056.26,-116.011C1041.94,-101.311 1021.47,-75.1168 1037,-58 1067.42,-24.4769 1387.18,-14.115 1489.03,-11.6527"/>
<polygon fill="midnightblue" stroke="midnightblue" points="1489.35,-15.1462 1499.27,-11.4143 1489.19,-8.14809 1489.35,-15.1462"/>
</g>
<!-- Node31&#45;&gt;Node2 -->
<g id="edge104" class="edge"><title>Node31&#45;&gt;Node2</title>
<path fill="none" stroke="midnightblue" d="M751.554,-174.364C755.097,-151.986 764.975,-98.7423 784,-58 788.696,-47.9428 795.549,-37.7444 801.794,-29.4296"/>
<polygon fill="midnightblue" stroke="midnightblue" points="804.567,-31.5658 807.967,-21.5314 799.051,-27.2554 804.567,-31.5658"/>
</g>
<!-- Node31&#45;&gt;Node7 -->
<g id="edge106" class="edge"><title>Node31&#45;&gt;Node7</title>
<path fill="none" stroke="midnightblue" d="M741.93,-174.362C735.851,-166.35 727.363,-155.161 720.163,-145.67"/>
<polygon fill="midnightblue" stroke="midnightblue" points="722.851,-143.422 714.019,-137.571 717.275,-147.653 722.851,-143.422"/>
</g>
<!-- Node33 -->
<g id="node88" class="node"><title>Node33</title>
<polygon fill="white" stroke="#bfbfbf" points="826,-116.5 826,-137.5 918,-137.5 918,-116.5 826,-116.5"/>
<text text-anchor="middle" x="872" y="-124.5" font-family="Helvetica,sans-Serif" font-size="10.00">nyx/nyx_client.h</text>
</g>
<!-- Node32&#45;&gt;Node33 -->
<g id="edge110" class="edge"><title>Node32&#45;&gt;Node33</title>
<path fill="none" stroke="midnightblue" d="M889.148,-174.362C886.395,-166.758 882.606,-156.294 879.29,-147.135"/>
<polygon fill="midnightblue" stroke="midnightblue" points="882.523,-145.782 875.827,-137.571 875.941,-148.165 882.523,-145.782"/>
</g>
</g>
</svg>
