<?xml version="1.0" encoding="UTF-8" standalone="no"?>
<!DOCTYPE svg PUBLIC "-//W3C//DTD SVG 1.1//EN"
 "http://www.w3.org/Graphics/SVG/1.1/DTD/svg11.dtd">
<!-- Generated by graphviz version 2.26.3 (20100126.1600)
 -->
<!-- Title: HostBase.h Pages: 1 -->
<svg width="1346pt" height="204pt"
 viewBox="0.00 0.00 1346.00 204.00" xmlns="http://www.w3.org/2000/svg" xmlns:xlink="http://www.w3.org/1999/xlink">
<g id="graph1" class="graph" transform="scale(1 1) rotate(0) translate(4 200)">
<title>HostBase.h</title>
<polygon fill="white" stroke="white" points="-4,5 -4,-200 1343,-200 1343,5 -4,5"/>
<!-- Node1 -->
<g id="node1" class="node"><title>Node1</title>
<polygon fill="#bfbfbf" stroke="black" points="513.5,-174.5 513.5,-195.5 584.5,-195.5 584.5,-174.5 513.5,-174.5"/>
<text text-anchor="middle" x="549" y="-182.5" font-family="Helvetica,sans-Serif" font-size="10.00">HostBase.h</text>
</g>
<!-- Node2 -->
<g id="node3" class="node"><title>Node2</title>
<a xlink:href="FlickGestureRecognizer_8cpp.htm" target="_top" xlink:title="FlickGestureRecognizer.cpp">
<polygon fill="white" stroke="black" points="-0.5,-116.5 -0.5,-137.5 148.5,-137.5 148.5,-116.5 -0.5,-116.5"/>
<text text-anchor="middle" x="74" y="-124.5" font-family="Helvetica,sans-Serif" font-size="10.00">FlickGestureRecognizer.cpp</text>
</a>
</g>
<!-- Node1&#45;&gt;Node2 -->
<g id="edge2" class="edge"><title>Node1&#45;&gt;Node2</title>
<path fill="none" stroke="midnightblue" d="M503.095,-179.478C430.619,-170.747 285.247,-153.187 162,-138 157.721,-137.473 153.326,-136.929 148.89,-136.379"/>
<polygon fill="midnightblue" stroke="midnightblue" points="502.901,-182.979 513.247,-180.7 503.738,-176.03 502.901,-182.979"/>
</g>
<!-- Node3 -->
<g id="node5" class="node"><title>Node3</title>
<a xlink:href="HostArm_8cpp.htm" target="_top" xlink:title="HostArm.cpp">
<polygon fill="white" stroke="black" points="203.5,-58.5 203.5,-79.5 280.5,-79.5 280.5,-58.5 203.5,-58.5"/>
<text text-anchor="middle" x="242" y="-66.5" font-family="Helvetica,sans-Serif" font-size="10.00">HostArm.cpp</text>
</a>
</g>
<!-- Node1&#45;&gt;Node3 -->
<g id="edge4" class="edge"><title>Node1&#45;&gt;Node3</title>
<path fill="none" stroke="midnightblue" d="M511.468,-170.819C449.032,-147.227 325.236,-100.451 269.882,-79.5352"/>
<polygon fill="midnightblue" stroke="midnightblue" points="510.35,-174.138 520.942,-174.398 512.825,-167.59 510.35,-174.138"/>
</g>
<!-- Node4 -->
<g id="node7" class="node"><title>Node4</title>
<a xlink:href="HostBase_8cpp.htm" target="_top" xlink:title="HostBase.cpp">
<polygon fill="white" stroke="black" points="201,-0.5 201,-21.5 283,-21.5 283,-0.5 201,-0.5"/>
<text text-anchor="middle" x="242" y="-8.5" font-family="Helvetica,sans-Serif" font-size="10.00">HostBase.cpp</text>
</a>
</g>
<!-- Node1&#45;&gt;Node4 -->
<g id="edge28" class="edge"><title>Node1&#45;&gt;Node4</title>
<path fill="none" stroke="midnightblue" d="M503.272,-178.435C416.006,-164.85 231.155,-130.633 195,-80 180.429,-59.5935 207.015,-35.2567 225.787,-21.6209"/>
<polygon fill="midnightblue" stroke="midnightblue" points="502.999,-181.933 513.414,-179.989 504.06,-175.014 502.999,-181.933"/>
</g>
<!-- Node5 -->
<g id="node9" class="node"><title>Node5</title>
<a xlink:href="HostArm_8h.htm" target="_top" xlink:title="HostArm.h">
<polygon fill="white" stroke="black" points="516.5,-116.5 516.5,-137.5 581.5,-137.5 581.5,-116.5 516.5,-116.5"/>
<text text-anchor="middle" x="549" y="-124.5" font-family="Helvetica,sans-Serif" font-size="10.00">HostArm.h</text>
</a>
</g>
<!-- Node1&#45;&gt;Node5 -->
<g id="edge8" class="edge"><title>Node1&#45;&gt;Node5</title>
<path fill="none" stroke="midnightblue" d="M549,-164.191C549,-155.168 549,-144.994 549,-137.571"/>
<polygon fill="midnightblue" stroke="midnightblue" points="545.5,-164.362 549,-174.362 552.5,-164.362 545.5,-164.362"/>
</g>
<!-- Node13 -->
<g id="node28" class="node"><title>Node13</title>
<a xlink:href="HostQtDesktop_8h.htm" target="_top" xlink:title="HostQtDesktop.h">
<polygon fill="white" stroke="black" points="598.5,-116.5 598.5,-137.5 695.5,-137.5 695.5,-116.5 598.5,-116.5"/>
<text text-anchor="middle" x="647" y="-124.5" font-family="Helvetica,sans-Serif" font-size="10.00">HostQtDesktop.h</text>
</a>
</g>
<!-- Node1&#45;&gt;Node13 -->
<g id="edge30" class="edge"><title>Node1&#45;&gt;Node13</title>
<path fill="none" stroke="midnightblue" d="M575.864,-169.101C592.82,-159.066 614.253,-146.381 629.139,-137.571"/>
<polygon fill="midnightblue" stroke="midnightblue" points="573.798,-166.257 566.975,-174.362 577.363,-172.281 573.798,-166.257"/>
</g>
<!-- Node15 -->
<g id="node32" class="node"><title>Node15</title>
<a xlink:href="LocalePreferences_8cpp.htm" target="_top" xlink:title="LocalePreferences.cpp">
<polygon fill="white" stroke="black" points="712.5,-116.5 712.5,-137.5 837.5,-137.5 837.5,-116.5 712.5,-116.5"/>
<text text-anchor="middle" x="775" y="-124.5" font-family="Helvetica,sans-Serif" font-size="10.00">LocalePreferences.cpp</text>
</a>
</g>
<!-- Node1&#45;&gt;Node15 -->
<g id="edge34" class="edge"><title>Node1&#45;&gt;Node15</title>
<path fill="none" stroke="midnightblue" d="M594.504,-173.322C635.274,-162.859 694.546,-147.648 733.906,-137.546"/>
<polygon fill="midnightblue" stroke="midnightblue" points="593.377,-169.998 584.561,-175.874 595.117,-176.778 593.377,-169.998"/>
</g>
<!-- Node16 -->
<g id="node34" class="node"><title>Node16</title>
<a xlink:href="SyncTask_8cpp.htm" target="_top" xlink:title="SyncTask.cpp">
<polygon fill="white" stroke="black" points="854.5,-116.5 854.5,-137.5 937.5,-137.5 937.5,-116.5 854.5,-116.5"/>
<text text-anchor="middle" x="896" y="-124.5" font-family="Helvetica,sans-Serif" font-size="10.00">SyncTask.cpp</text>
</a>
</g>
<!-- Node1&#45;&gt;Node16 -->
<g id="edge36" class="edge"><title>Node1&#45;&gt;Node16</title>
<path fill="none" stroke="midnightblue" d="M594.801,-178.617C653.263,-170.271 757.444,-154.733 846,-138 848.707,-137.488 851.492,-136.939 854.296,-136.37"/>
<polygon fill="midnightblue" stroke="midnightblue" points="594.186,-175.169 584.778,-180.041 595.171,-182.099 594.186,-175.169"/>
</g>
<!-- Node3&#45;&gt;Node4 -->
<g id="edge6" class="edge"><title>Node3&#45;&gt;Node4</title>
<path fill="none" stroke="midnightblue" d="M242,-48.1906C242,-39.1684 242,-28.9941 242,-21.5707"/>
<polygon fill="midnightblue" stroke="midnightblue" points="238.5,-48.3619 242,-58.3619 245.5,-48.3619 238.5,-48.3619"/>
</g>
<!-- Node5&#45;&gt;Node3 -->
<g id="edge10" class="edge"><title>Node5&#45;&gt;Node3</title>
<path fill="none" stroke="midnightblue" d="M506.359,-119.979C454.748,-111.323 365.268,-95.8077 289,-80 286.292,-79.4387 283.501,-78.8394 280.694,-78.2211"/>
<polygon fill="midnightblue" stroke="midnightblue" points="506.03,-123.473 516.47,-121.668 507.184,-116.568 506.03,-123.473"/>
</g>
<!-- Node6 -->
<g id="node12" class="node"><title>Node6</title>
<a xlink:href="HostArmBroadway_8cpp.htm" target="_top" xlink:title="HostArmBroadway.cpp">
<polygon fill="white" stroke="black" points="832,-58.5 832,-79.5 956,-79.5 956,-58.5 832,-58.5"/>
<text text-anchor="middle" x="894" y="-66.5" font-family="Helvetica,sans-Serif" font-size="10.00">HostArmBroadway.cpp</text>
</a>
</g>
<!-- Node5&#45;&gt;Node6 -->
<g id="edge12" class="edge"><title>Node5&#45;&gt;Node6</title>
<path fill="none" stroke="midnightblue" d="M591.445,-115.843C694.232,-94.4742 722.583,-95.5364 823,-80 825.835,-79.5613 828.734,-79.1127 831.662,-78.6595"/>
<polygon fill="midnightblue" stroke="midnightblue" points="590.664,-112.431 581.597,-117.912 592.102,-119.282 590.664,-112.431"/>
</g>
<!-- Node7 -->
<g id="node14" class="node"><title>Node7</title>
<a xlink:href="HostArmMantaray_8cpp.htm" target="_top" xlink:title="HostArmMantaray.cpp">
<polygon fill="white" stroke="black" points="974,-58.5 974,-79.5 1096,-79.5 1096,-58.5 974,-58.5"/>
<text text-anchor="middle" x="1035" y="-66.5" font-family="Helvetica,sans-Serif" font-size="10.00">HostArmMantaray.cpp</text>
</a>
</g>
<!-- Node5&#45;&gt;Node7 -->
<g id="edge14" class="edge"><title>Node5&#45;&gt;Node7</title>
<path fill="none" stroke="midnightblue" d="M591.565,-115.944C756.531,-86.7681 802.134,-100.595 965,-80 967.929,-79.6296 970.924,-79.232 973.947,-78.8155"/>
<polygon fill="midnightblue" stroke="midnightblue" points="590.787,-112.528 581.563,-117.739 592.024,-119.418 590.787,-112.528"/>
</g>
<!-- Node8 -->
<g id="node16" class="node"><title>Node8</title>
<a xlink:href="HostArmOpal_8cpp.htm" target="_top" xlink:title="HostArmOpal.cpp">
<polygon fill="white" stroke="black" points="1113.5,-58.5 1113.5,-79.5 1212.5,-79.5 1212.5,-58.5 1113.5,-58.5"/>
<text text-anchor="middle" x="1163" y="-66.5" font-family="Helvetica,sans-Serif" font-size="10.00">HostArmOpal.cpp</text>
</a>
</g>
<!-- Node5&#45;&gt;Node8 -->
<g id="edge16" class="edge"><title>Node5&#45;&gt;Node8</title>
<path fill="none" stroke="midnightblue" d="M591.418,-116.023C818.06,-78.9718 880.67,-109.011 1105,-80 1107.74,-79.6451 1110.56,-79.2427 1113.39,-78.8067"/>
<polygon fill="midnightblue" stroke="midnightblue" points="590.841,-112.571 581.549,-117.662 591.988,-119.476 590.841,-112.571"/>
</g>
<!-- Node9 -->
<g id="node18" class="node"><title>Node9</title>
<a xlink:href="HostArmQemu_8cpp.htm" target="_top" xlink:title="HostArmQemu.cpp">
<polygon fill="white" stroke="black" points="436,-58.5 436,-79.5 540,-79.5 540,-58.5 436,-58.5"/>
<text text-anchor="middle" x="488" y="-66.5" font-family="Helvetica,sans-Serif" font-size="10.00">HostArmQemu.cpp</text>
</a>
</g>
<!-- Node5&#45;&gt;Node9 -->
<g id="edge18" class="edge"><title>Node5&#45;&gt;Node9</title>
<path fill="none" stroke="midnightblue" d="M530.495,-109.405C520.255,-99.6683 507.869,-87.8914 499.117,-79.5707"/>
<polygon fill="midnightblue" stroke="midnightblue" points="528.153,-112.008 537.812,-116.362 532.976,-106.935 528.153,-112.008"/>
</g>
<!-- Node10 -->
<g id="node20" class="node"><title>Node10</title>
<a xlink:href="HostArmTopaz_8cpp.htm" target="_top" xlink:title="HostArmTopaz.cpp">
<polygon fill="white" stroke="black" points="557.5,-58.5 557.5,-79.5 664.5,-79.5 664.5,-58.5 557.5,-58.5"/>
<text text-anchor="middle" x="611" y="-66.5" font-family="Helvetica,sans-Serif" font-size="10.00">HostArmTopaz.cpp</text>
</a>
</g>
<!-- Node5&#45;&gt;Node10 -->
<g id="edge20" class="edge"><title>Node5&#45;&gt;Node10</title>
<path fill="none" stroke="midnightblue" d="M567.808,-109.405C578.217,-99.6683 590.806,-87.8914 599.7,-79.5707"/>
<polygon fill="midnightblue" stroke="midnightblue" points="565.283,-106.974 560.372,-116.362 570.066,-112.086 565.283,-106.974"/>
</g>
<!-- Node11 -->
<g id="node22" class="node"><title>Node11</title>
<a xlink:href="HostArmUnknown_8cpp.htm" target="_top" xlink:title="HostArmUnknown.cpp">
<polygon fill="white" stroke="black" points="297.5,-58.5 297.5,-79.5 418.5,-79.5 418.5,-58.5 297.5,-58.5"/>
<text text-anchor="middle" x="358" y="-66.5" font-family="Helvetica,sans-Serif" font-size="10.00">HostArmUnknown.cpp</text>
</a>
</g>
<!-- Node5&#45;&gt;Node11 -->
<g id="edge22" class="edge"><title>Node5&#45;&gt;Node11</title>
<path fill="none" stroke="midnightblue" d="M506.436,-114.075C472.176,-103.671 424.628,-89.2327 392.662,-79.5257"/>
<polygon fill="midnightblue" stroke="midnightblue" points="505.58,-117.473 516.166,-117.029 507.614,-110.775 505.58,-117.473"/>
</g>
<!-- Node12 -->
<g id="node25" class="node"><title>Node12</title>
<a xlink:href="HostArmWindsorNot_8cpp.htm" target="_top" xlink:title="HostArmWindsorNot.cpp">
<polygon fill="white" stroke="black" points="682,-58.5 682,-79.5 814,-79.5 814,-58.5 682,-58.5"/>
<text text-anchor="middle" x="748" y="-66.5" font-family="Helvetica,sans-Serif" font-size="10.00">HostArmWindsorNot.cpp</text>
</a>
</g>
<!-- Node5&#45;&gt;Node12 -->
<g id="edge26" class="edge"><title>Node5&#45;&gt;Node12</title>
<path fill="none" stroke="midnightblue" d="M591.527,-114.605C627.283,-104.184 677.843,-89.4477 711.717,-79.5749"/>
<polygon fill="midnightblue" stroke="midnightblue" points="590.482,-111.264 581.861,-117.422 592.441,-117.984 590.482,-111.264"/>
</g>
<!-- Node11&#45;&gt;Node4 -->
<g id="edge24" class="edge"><title>Node11&#45;&gt;Node4</title>
<path fill="none" stroke="midnightblue" d="M327.864,-53.9319C307.586,-43.7932 281.35,-30.6748 263.242,-21.6212"/>
<polygon fill="midnightblue" stroke="midnightblue" points="326.484,-57.1549 336.993,-58.4966 329.614,-50.8939 326.484,-57.1549"/>
</g>
<!-- Node14 -->
<g id="node30" class="node"><title>Node14</title>
<a xlink:href="HostQtDesktop_8cpp.htm" target="_top" xlink:title="HostQtDesktop.cpp">
<polygon fill="white" stroke="black" points="1230,-58.5 1230,-79.5 1338,-79.5 1338,-58.5 1230,-58.5"/>
<text text-anchor="middle" x="1284" y="-66.5" font-family="Helvetica,sans-Serif" font-size="10.00">HostQtDesktop.cpp</text>
</a>
</g>
<!-- Node13&#45;&gt;Node14 -->
<g id="edge32" class="edge"><title>Node13&#45;&gt;Node14</title>
<path fill="none" stroke="midnightblue" d="M705.701,-115.9C934.12,-86.7279 995.593,-107.452 1221,-80 1223.87,-79.651 1226.8,-79.2594 1229.76,-78.8375"/>
<polygon fill="midnightblue" stroke="midnightblue" points="705.222,-112.433 695.754,-117.189 706.121,-119.375 705.222,-112.433"/>
</g>
</g>
</svg>
