<?xml version="1.0" encoding="UTF-8" standalone="no"?>
<!DOCTYPE svg PUBLIC "-//W3C//DTD SVG 1.1//EN"
 "http://www.w3.org/Graphics/SVG/1.1/DTD/svg11.dtd">
<!-- Generated by graphviz version 2.26.3 (20100126.1600)
 -->
<!-- Title: HostQtDesktop.h Pages: 1 -->
<svg width="1379pt" height="320pt"
 viewBox="0.00 0.00 1378.85 320.00" xmlns="http://www.w3.org/2000/svg" xmlns:xlink="http://www.w3.org/1999/xlink">
<g id="graph1" class="graph" transform="scale(1 1) rotate(0) translate(4 316)">
<title>HostQtDesktop.h</title>
<polygon fill="white" stroke="white" points="-4,5 -4,-316 1375.85,-316 1375.85,5 -4,5"/>
<!-- Node1 -->
<g id="node1" class="node"><title>Node1</title>
<polygon fill="#bfbfbf" stroke="black" points="1236.35,-290.5 1236.35,-311.5 1333.35,-311.5 1333.35,-290.5 1236.35,-290.5"/>
<text text-anchor="middle" x="1284.85" y="-298.5" font-family="Helvetica,sans-Serif" font-size="10.00">HostQtDesktop.h</text>
</g>
<!-- Node2 -->
<g id="node3" class="node"><title>Node2</title>
<a xlink:href="Common_8h.htm" target="_top" xlink:title="Common.h">
<polygon fill="white" stroke="black" points="715.35,-0.5 715.35,-21.5 782.35,-21.5 782.35,-0.5 715.35,-0.5"/>
<text text-anchor="middle" x="748.85" y="-8.5" font-family="Helvetica,sans-Serif" font-size="10.00">Common.h</text>
</a>
</g>
<!-- Node1&#45;&gt;Node2 -->
<g id="edge2" class="edge"><title>Node1&#45;&gt;Node2</title>
<path fill="none" stroke="midnightblue" d="M1284.85,-290.444C1284.85,-270.062 1284.85,-223.868 1284.85,-185 1284.85,-185 1284.85,-185 1284.85,-127 1284.85,-76.761 920.497,-30.5113 792.593,-15.8233"/>
<polygon fill="midnightblue" stroke="midnightblue" points="792.711,-12.3143 782.38,-14.6601 791.919,-19.2694 792.711,-12.3143"/>
</g>
<!-- Node3 -->
<g id="node5" class="node"><title>Node3</title>
<polygon fill="white" stroke="#bfbfbf" points="1312.85,-232.5 1312.85,-253.5 1370.85,-253.5 1370.85,-232.5 1312.85,-232.5"/>
<text text-anchor="middle" x="1341.85" y="-240.5" font-family="Helvetica,sans-Serif" font-size="10.00">QWidget</text>
</g>
<!-- Node1&#45;&gt;Node3 -->
<g id="edge4" class="edge"><title>Node1&#45;&gt;Node3</title>
<path fill="none" stroke="midnightblue" d="M1295.31,-290.362C1303.42,-282.104 1314.85,-270.472 1324.35,-260.803"/>
<polygon fill="midnightblue" stroke="midnightblue" points="1326.95,-263.156 1331.46,-253.571 1321.96,-258.25 1326.95,-263.156"/>
</g>
<!-- Node4 -->
<g id="node7" class="node"><title>Node4</title>
<a xlink:href="HostBase_8h.htm" target="_top" xlink:title="HostBase.h">
<polygon fill="white" stroke="black" points="968.35,-232.5 968.35,-253.5 1039.35,-253.5 1039.35,-232.5 968.35,-232.5"/>
<text text-anchor="middle" x="1003.85" y="-240.5" font-family="Helvetica,sans-Serif" font-size="10.00">HostBase.h</text>
</a>
</g>
<!-- Node1&#45;&gt;Node4 -->
<g id="edge6" class="edge"><title>Node1&#45;&gt;Node4</title>
<path fill="none" stroke="midnightblue" d="M1236.22,-290.963C1183.65,-280.112 1100.52,-262.952 1049.24,-252.369"/>
<polygon fill="midnightblue" stroke="midnightblue" points="1049.93,-248.937 1039.43,-250.343 1048.51,-255.793 1049.93,-248.937"/>
</g>
<!-- Node4&#45;&gt;Node2 -->
<g id="edge8" class="edge"><title>Node4&#45;&gt;Node2</title>
<path fill="none" stroke="midnightblue" d="M968.232,-235.961C927.148,-227.264 862.813,-211.684 843.85,-196 816.156,-173.094 774.082,-73.9305 756.743,-30.97"/>
<polygon fill="midnightblue" stroke="midnightblue" points="759.944,-29.5487 752.98,-21.5639 753.445,-32.1486 759.944,-29.5487"/>
</g>
<!-- Node5 -->
<g id="node10" class="node"><title>Node5</title>
<a xlink:href="TaskBase_8h.htm" target="_top" xlink:title="TaskBase.h">
<polygon fill="white" stroke="black" points="429.85,-174.5 429.85,-195.5 501.85,-195.5 501.85,-174.5 429.85,-174.5"/>
<text text-anchor="middle" x="465.85" y="-182.5" font-family="Helvetica,sans-Serif" font-size="10.00">TaskBase.h</text>
</a>
</g>
<!-- Node4&#45;&gt;Node5 -->
<g id="edge10" class="edge"><title>Node4&#45;&gt;Node5</title>
<path fill="none" stroke="midnightblue" d="M968.134,-239.15C873.65,-228.964 617.196,-201.316 511.91,-189.966"/>
<polygon fill="midnightblue" stroke="midnightblue" points="512.224,-186.479 501.907,-188.887 511.474,-193.439 512.224,-186.479"/>
</g>
<!-- Node16 -->
<g id="node40" class="node"><title>Node16</title>
<a xlink:href="Mutex_8h.htm" target="_top" xlink:title="Mutex.h">
<polygon fill="white" stroke="black" points="51.3504,-116.5 51.3504,-137.5 104.35,-137.5 104.35,-116.5 51.3504,-116.5"/>
<text text-anchor="middle" x="77.8504" y="-124.5" font-family="Helvetica,sans-Serif" font-size="10.00">Mutex.h</text>
</a>
</g>
<!-- Node4&#45;&gt;Node16 -->
<g id="edge64" class="edge"><title>Node4&#45;&gt;Node16</title>
<path fill="none" stroke="midnightblue" d="M968.199,-241.593C876.835,-237.67 626.993,-224.941 420.85,-196 308.031,-180.161 176.411,-150.493 114.098,-135.762"/>
<polygon fill="midnightblue" stroke="midnightblue" points="114.889,-132.353 104.351,-133.446 113.271,-139.163 114.889,-132.353"/>
</g>
<!-- Node18 -->
<g id="node51" class="node"><title>Node18</title>
<a xlink:href="CustomEvents_8h.htm" target="_top" xlink:title="CustomEvents.h">
<polygon fill="white" stroke="black" points="852.85,-174.5 852.85,-195.5 944.85,-195.5 944.85,-174.5 852.85,-174.5"/>
<text text-anchor="middle" x="898.85" y="-182.5" font-family="Helvetica,sans-Serif" font-size="10.00">CustomEvents.h</text>
</a>
</g>
<!-- Node4&#45;&gt;Node18 -->
<g id="edge66" class="edge"><title>Node4&#45;&gt;Node18</title>
<path fill="none" stroke="midnightblue" d="M984.592,-232.362C968.385,-223.409 944.997,-210.491 926.741,-200.406"/>
<polygon fill="midnightblue" stroke="midnightblue" points="928.433,-197.342 917.987,-195.571 925.048,-203.47 928.433,-197.342"/>
</g>
<!-- Node20 -->
<g id="node56" class="node"><title>Node20</title>
<a xlink:href="InputControl_8h.htm" target="_top" xlink:title="InputControl.h">
<polygon fill="white" stroke="black" points="962.35,-174.5 962.35,-195.5 1045.35,-195.5 1045.35,-174.5 962.35,-174.5"/>
<text text-anchor="middle" x="1003.85" y="-182.5" font-family="Helvetica,sans-Serif" font-size="10.00">InputControl.h</text>
</a>
</g>
<!-- Node4&#45;&gt;Node20 -->
<g id="edge72" class="edge"><title>Node4&#45;&gt;Node20</title>
<path fill="none" stroke="midnightblue" d="M1003.85,-232.362C1003.85,-224.922 1003.85,-214.743 1003.85,-205.728"/>
<polygon fill="midnightblue" stroke="midnightblue" points="1007.35,-205.571 1003.85,-195.571 1000.35,-205.571 1007.35,-205.571"/>
</g>
<!-- Node22 -->
<g id="node60" class="node"><title>Node22</title>
<a xlink:href="LedControl_8h.htm" target="_top" xlink:title="LedControl.h">
<polygon fill="white" stroke="black" points="1062.35,-174.5 1062.35,-195.5 1139.35,-195.5 1139.35,-174.5 1062.35,-174.5"/>
<text text-anchor="middle" x="1100.85" y="-182.5" font-family="Helvetica,sans-Serif" font-size="10.00">LedControl.h</text>
</a>
</g>
<!-- Node4&#45;&gt;Node22 -->
<g id="edge76" class="edge"><title>Node4&#45;&gt;Node22</title>
<path fill="none" stroke="midnightblue" d="M1021.64,-232.362C1036.41,-223.532 1057.63,-210.844 1074.39,-200.822"/>
<polygon fill="midnightblue" stroke="midnightblue" points="1076.39,-203.707 1083.17,-195.571 1072.79,-197.699 1076.39,-203.707"/>
</g>
<!-- Node23 -->
<g id="node62" class="node"><title>Node23</title>
<polygon fill="white" stroke="#bfbfbf" points="1156.35,-174.5 1156.35,-195.5 1185.35,-195.5 1185.35,-174.5 1156.35,-174.5"/>
<text text-anchor="middle" x="1170.85" y="-182.5" font-family="Helvetica,sans-Serif" font-size="10.00">Qt</text>
</g>
<!-- Node4&#45;&gt;Node23 -->
<g id="edge78" class="edge"><title>Node4&#45;&gt;Node23</title>
<path fill="none" stroke="midnightblue" d="M1039.52,-232.775C1066.88,-224.621 1105.66,-212.388 1146.57,-196.236"/>
<polygon fill="midnightblue" stroke="midnightblue" points="1147.9,-199.473 1155.88,-192.505 1145.3,-192.975 1147.9,-199.473"/>
</g>
<!-- Node24 -->
<g id="node64" class="node"><title>Node24</title>
<polygon fill="white" stroke="#bfbfbf" points="1202.85,-174.5 1202.85,-195.5 1256.85,-195.5 1256.85,-174.5 1202.85,-174.5"/>
<text text-anchor="middle" x="1229.85" y="-182.5" font-family="Helvetica,sans-Serif" font-size="10.00">QImage</text>
</g>
<!-- Node4&#45;&gt;Node24 -->
<g id="edge80" class="edge"><title>Node4&#45;&gt;Node24</title>
<path fill="none" stroke="midnightblue" d="M1039.37,-234.82C1075.63,-226.334 1133.76,-212.366 1192.89,-196.171"/>
<polygon fill="midnightblue" stroke="midnightblue" points="1194.06,-199.479 1202.77,-193.446 1192.2,-192.731 1194.06,-199.479"/>
</g>
<!-- Node5&#45;&gt;Node2 -->
<g id="edge12" class="edge"><title>Node5&#45;&gt;Node2</title>
<path fill="none" stroke="midnightblue" d="M501.855,-179.301C540.463,-172.44 603.063,-159.128 653.85,-138 699.876,-118.853 725.356,-123.416 749.85,-80 758.107,-65.3658 757.016,-46.0566 754.342,-31.5871"/>
<polygon fill="midnightblue" stroke="midnightblue" points="757.713,-30.6201 752.118,-21.6232 750.881,-32.1456 757.713,-30.6201"/>
</g>
<!-- Node6 -->
<g id="node13" class="node"><title>Node6</title>
<polygon fill="white" stroke="#bfbfbf" points="81.3504,-0.5 81.3504,-21.5 122.35,-21.5 122.35,-0.5 81.3504,-0.5"/>
<text text-anchor="middle" x="101.85" y="-8.5" font-family="Helvetica,sans-Serif" font-size="10.00">glib.h</text>
</g>
<!-- Node5&#45;&gt;Node6 -->
<g id="edge14" class="edge"><title>Node5&#45;&gt;Node6</title>
<path fill="none" stroke="midnightblue" d="M429.532,-182.803C332.989,-176.707 75.136,-158.66 42.8504,-138 10.161,-117.082 -12.553,-91.0133 7.85036,-58 21.5966,-35.7581 49.4087,-23.6897 71.2314,-17.3745"/>
<polygon fill="midnightblue" stroke="midnightblue" points="72.2872,-20.716 81.0693,-14.7895 70.5081,-13.9458 72.2872,-20.716"/>
</g>
<!-- Node7 -->
<g id="node15" class="node"><title>Node7</title>
<polygon fill="white" stroke="#bfbfbf" points="451.35,-116.5 451.35,-137.5 480.35,-137.5 480.35,-116.5 451.35,-116.5"/>
<text text-anchor="middle" x="465.85" y="-124.5" font-family="Helvetica,sans-Serif" font-size="10.00">list</text>
</g>
<!-- Node5&#45;&gt;Node7 -->
<g id="edge16" class="edge"><title>Node5&#45;&gt;Node7</title>
<path fill="none" stroke="midnightblue" d="M465.85,-174.362C465.85,-166.922 465.85,-156.743 465.85,-147.728"/>
<polygon fill="midnightblue" stroke="midnightblue" points="469.35,-147.571 465.85,-137.571 462.35,-147.571 469.35,-147.571"/>
</g>
<!-- Node8 -->
<g id="node17" class="node"><title>Node8</title>
<a xlink:href="sptr_8h.htm" target="_top" xlink:title="sptr.h">
<polygon fill="white" stroke="black" points="56.3504,-58.5 56.3504,-79.5 99.3504,-79.5 99.3504,-58.5 56.3504,-58.5"/>
<text text-anchor="middle" x="77.8504" y="-66.5" font-family="Helvetica,sans-Serif" font-size="10.00">sptr.h</text>
</a>
</g>
<!-- Node5&#45;&gt;Node8 -->
<g id="edge18" class="edge"><title>Node5&#45;&gt;Node8</title>
<path fill="none" stroke="midnightblue" d="M430.389,-174.398C355.144,-151.902 180.555,-99.7056 109.145,-78.3562"/>
<polygon fill="midnightblue" stroke="midnightblue" points="109.966,-74.9485 99.3821,-75.4373 107.96,-81.6551 109.966,-74.9485"/>
</g>
<!-- Node9 -->
<g id="node21" class="node"><title>Node9</title>
<a xlink:href="AsyncCaller_8h.htm" target="_top" xlink:title="AsyncCaller.h">
<polygon fill="white" stroke="black" points="640.35,-58.5 640.35,-79.5 721.35,-79.5 721.35,-58.5 640.35,-58.5"/>
<text text-anchor="middle" x="680.85" y="-66.5" font-family="Helvetica,sans-Serif" font-size="10.00">AsyncCaller.h</text>
</a>
</g>
<!-- Node5&#45;&gt;Node9 -->
<g id="edge24" class="edge"><title>Node5&#45;&gt;Node9</title>
<path fill="none" stroke="midnightblue" d="M502.096,-181.081C536.885,-175.879 589.638,-164.091 627.85,-138 646.445,-125.303 661.355,-103.999 670.566,-88.4149"/>
<polygon fill="midnightblue" stroke="midnightblue" points="673.685,-90.0093 675.547,-79.5794 667.588,-86.5716 673.685,-90.0093"/>
</g>
<!-- Node10 -->
<g id="node25" class="node"><title>Node10</title>
<a xlink:href="Event_8h.htm" target="_top" xlink:title="Event.h">
<polygon fill="white" stroke="black" points="344.85,-116.5 344.85,-137.5 396.85,-137.5 396.85,-116.5 344.85,-116.5"/>
<text text-anchor="middle" x="370.85" y="-124.5" font-family="Helvetica,sans-Serif" font-size="10.00">Event.h</text>
</a>
</g>
<!-- Node5&#45;&gt;Node10 -->
<g id="edge30" class="edge"><title>Node5&#45;&gt;Node10</title>
<path fill="none" stroke="midnightblue" d="M448.426,-174.362C433.963,-165.532 413.181,-152.844 396.766,-142.822"/>
<polygon fill="midnightblue" stroke="midnightblue" points="398.523,-139.794 388.164,-137.571 394.876,-145.769 398.523,-139.794"/>
</g>
<!-- Node5&#45;&gt;Node16 -->
<g id="edge48" class="edge"><title>Node5&#45;&gt;Node16</title>
<path fill="none" stroke="midnightblue" d="M429.697,-179.596C356.001,-168.579 189.109,-143.631 114.771,-132.519"/>
<polygon fill="midnightblue" stroke="midnightblue" points="114.905,-129 104.497,-130.983 113.87,-135.923 114.905,-129"/>
</g>
<!-- Node17 -->
<g id="node45" class="node"><title>Node17</title>
<a xlink:href="SingletonTimer_8h.htm" target="_top" xlink:title="SingletonTimer.h">
<polygon fill="white" stroke="black" points="522.85,-116.5 522.85,-137.5 618.85,-137.5 618.85,-116.5 522.85,-116.5"/>
<text text-anchor="middle" x="570.85" y="-124.5" font-family="Helvetica,sans-Serif" font-size="10.00">SingletonTimer.h</text>
</a>
</g>
<!-- Node5&#45;&gt;Node17 -->
<g id="edge56" class="edge"><title>Node5&#45;&gt;Node17</title>
<path fill="none" stroke="midnightblue" d="M485.109,-174.362C501.316,-165.409 524.703,-152.491 542.959,-142.406"/>
<polygon fill="midnightblue" stroke="midnightblue" points="544.653,-145.47 551.714,-137.571 541.268,-139.342 544.653,-145.47"/>
</g>
<!-- Node8&#45;&gt;Node2 -->
<g id="edge20" class="edge"><title>Node8&#45;&gt;Node2</title>
<path fill="none" stroke="midnightblue" d="M99.5292,-65.0245C112.853,-62.6979 130.295,-59.8612 145.85,-58 354.546,-33.0301 605.538,-18.3739 705.094,-13.1686"/>
<polygon fill="midnightblue" stroke="midnightblue" points="705.28,-16.6637 715.086,-12.6514 704.918,-9.67306 705.28,-16.6637"/>
</g>
<!-- Node8&#45;&gt;Node6 -->
<g id="edge22" class="edge"><title>Node8&#45;&gt;Node6</title>
<path fill="none" stroke="midnightblue" d="M82.2523,-58.3619C85.4324,-50.6766 89.822,-40.0686 93.6407,-30.8399"/>
<polygon fill="midnightblue" stroke="midnightblue" points="96.8868,-32.1491 97.4763,-21.5707 90.4187,-29.4726 96.8868,-32.1491"/>
</g>
<!-- Node9&#45;&gt;Node2 -->
<g id="edge26" class="edge"><title>Node9&#45;&gt;Node2</title>
<path fill="none" stroke="midnightblue" d="M693.323,-58.3619C703.196,-49.9408 717.183,-38.0105 728.649,-28.2308"/>
<polygon fill="midnightblue" stroke="midnightblue" points="731.12,-30.7231 736.457,-21.5707 726.577,-25.3972 731.12,-30.7231"/>
</g>
<!-- Node9&#45;&gt;Node6 -->
<g id="edge28" class="edge"><title>Node9&#45;&gt;Node6</title>
<path fill="none" stroke="midnightblue" d="M640.246,-60.2227C635.738,-59.3993 631.205,-58.6364 626.85,-58 440.103,-30.7074 213.51,-16.8855 132.478,-12.5434"/>
<polygon fill="midnightblue" stroke="midnightblue" points="132.631,-9.04669 122.461,-12.0155 132.263,-16.037 132.631,-9.04669"/>
</g>
<!-- Node10&#45;&gt;Node2 -->
<g id="edge32" class="edge"><title>Node10&#45;&gt;Node2</title>
<path fill="none" stroke="midnightblue" d="M396.872,-117.765C420.891,-108.957 457.349,-94.8617 487.85,-80 505.394,-71.4521 507.63,-64.9888 525.85,-58 585.655,-35.061 659,-22.3388 704.844,-16.085"/>
<polygon fill="midnightblue" stroke="midnightblue" points="705.581,-19.5182 715.037,-14.7396 704.665,-12.5784 705.581,-19.5182"/>
</g>
<!-- Node10&#45;&gt;Node6 -->
<g id="edge36" class="edge"><title>Node10&#45;&gt;Node6</title>
<path fill="none" stroke="midnightblue" d="M344.468,-124.081C292.239,-117.889 177.945,-102.171 145.85,-80 128.494,-68.0102 116.47,-46.7178 109.431,-30.9466"/>
<polygon fill="midnightblue" stroke="midnightblue" points="112.589,-29.4247 105.519,-21.5333 106.124,-32.1109 112.589,-29.4247"/>
</g>
<!-- Node10&#45;&gt;Node8 -->
<g id="edge46" class="edge"><title>Node10&#45;&gt;Node8</title>
<path fill="none" stroke="midnightblue" d="M344.622,-123.325C297.734,-116.511 196.606,-100.705 112.85,-80 111.768,-79.7325 110.671,-79.4502 109.564,-79.1563"/>
<polygon fill="midnightblue" stroke="midnightblue" points="110.154,-75.6841 99.5762,-76.2879 108.222,-82.4122 110.154,-75.6841"/>
</g>
<!-- Node11 -->
<g id="node28" class="node"><title>Node11</title>
<polygon fill="white" stroke="#bfbfbf" points="534.85,-58.5 534.85,-79.5 584.85,-79.5 584.85,-58.5 534.85,-58.5"/>
<text text-anchor="middle" x="559.85" y="-66.5" font-family="Helvetica,sans-Serif" font-size="10.00">stdint.h</text>
</g>
<!-- Node10&#45;&gt;Node11 -->
<g id="edge34" class="edge"><title>Node10&#45;&gt;Node11</title>
<path fill="none" stroke="midnightblue" d="M397.13,-118.935C430.414,-108.721 487.875,-91.0878 524.849,-79.7411"/>
<polygon fill="midnightblue" stroke="midnightblue" points="526.165,-82.9986 534.698,-76.7188 524.111,-76.3066 526.165,-82.9986"/>
</g>
<!-- Node12 -->
<g id="node31" class="node"><title>Node12</title>
<polygon fill="white" stroke="#bfbfbf" points="432.35,-58.5 432.35,-79.5 479.35,-79.5 479.35,-58.5 432.35,-58.5"/>
<text text-anchor="middle" x="455.85" y="-66.5" font-family="Helvetica,sans-Serif" font-size="10.00">stdio.h</text>
</g>
<!-- Node10&#45;&gt;Node12 -->
<g id="edge38" class="edge"><title>Node10&#45;&gt;Node12</title>
<path fill="none" stroke="midnightblue" d="M386.441,-116.362C399.141,-107.696 417.289,-95.3126 431.842,-85.3819"/>
<polygon fill="midnightblue" stroke="midnightblue" points="434.071,-88.0982 440.359,-79.5707 430.126,-82.316 434.071,-88.0982"/>
</g>
<!-- Node13 -->
<g id="node33" class="node"><title>Node13</title>
<polygon fill="white" stroke="#bfbfbf" points="154.35,-58.5 154.35,-79.5 205.35,-79.5 205.35,-58.5 154.35,-58.5"/>
<text text-anchor="middle" x="179.85" y="-66.5" font-family="Helvetica,sans-Serif" font-size="10.00">string.h</text>
</g>
<!-- Node10&#45;&gt;Node13 -->
<g id="edge40" class="edge"><title>Node10&#45;&gt;Node13</title>
<path fill="none" stroke="midnightblue" d="M344.684,-119.358C315.366,-110.755 266.182,-96.1976 215.304,-80.4148"/>
<polygon fill="midnightblue" stroke="midnightblue" points="216.039,-76.978 205.451,-77.3492 213.96,-83.662 216.039,-76.978"/>
</g>
<!-- Node14 -->
<g id="node35" class="node"><title>Node14</title>
<polygon fill="white" stroke="#bfbfbf" points="222.85,-58.5 222.85,-79.5 308.85,-79.5 308.85,-58.5 222.85,-58.5"/>
<text text-anchor="middle" x="265.85" y="-66.5" font-family="Helvetica,sans-Serif" font-size="10.00">qnamespace.h</text>
</g>
<!-- Node10&#45;&gt;Node14 -->
<g id="edge42" class="edge"><title>Node10&#45;&gt;Node14</title>
<path fill="none" stroke="midnightblue" d="M351.592,-116.362C335.385,-107.409 311.997,-94.4908 293.741,-84.4064"/>
<polygon fill="midnightblue" stroke="midnightblue" points="295.433,-81.3422 284.987,-79.5707 292.048,-87.4696 295.433,-81.3422"/>
</g>
<!-- Node15 -->
<g id="node37" class="node"><title>Node15</title>
<polygon fill="white" stroke="#bfbfbf" points="326.85,-58.5 326.85,-79.5 414.85,-79.5 414.85,-58.5 326.85,-58.5"/>
<text text-anchor="middle" x="370.85" y="-66.5" font-family="Helvetica,sans-Serif" font-size="10.00">SysMgrEvent.h</text>
</g>
<!-- Node10&#45;&gt;Node15 -->
<g id="edge44" class="edge"><title>Node10&#45;&gt;Node15</title>
<path fill="none" stroke="midnightblue" d="M370.85,-116.362C370.85,-108.922 370.85,-98.7427 370.85,-89.7276"/>
<polygon fill="midnightblue" stroke="midnightblue" points="374.35,-89.5706 370.85,-79.5707 367.35,-89.5707 374.35,-89.5706"/>
</g>
<!-- Node16&#45;&gt;Node2 -->
<g id="edge50" class="edge"><title>Node16&#45;&gt;Node2</title>
<path fill="none" stroke="midnightblue" d="M66.7693,-116.416C52.6763,-101.707 31.9688,-74.9821 47.8504,-58 70.3773,-33.9121 555.314,-16.975 705.147,-12.302"/>
<polygon fill="midnightblue" stroke="midnightblue" points="705.457,-15.7942 715.345,-11.9868 705.241,-8.79749 705.457,-15.7942"/>
</g>
<!-- Node16&#45;&gt;Node6 -->
<g id="edge54" class="edge"><title>Node16&#45;&gt;Node6</title>
<path fill="none" stroke="midnightblue" d="M55.6872,-116.443C32.3859,-103.807 0.892068,-81.4056 14.8504,-58 27.0363,-37.5663 51.5248,-25.4823 71.4247,-18.6961"/>
<polygon fill="midnightblue" stroke="midnightblue" points="72.5338,-22.0165 81.0365,-15.6955 70.4478,-15.3346 72.5338,-22.0165"/>
</g>
<!-- Node16&#45;&gt;Node8 -->
<g id="edge52" class="edge"><title>Node16&#45;&gt;Node8</title>
<path fill="none" stroke="midnightblue" d="M77.8504,-116.362C77.8504,-108.922 77.8504,-98.7427 77.8504,-89.7276"/>
<polygon fill="midnightblue" stroke="midnightblue" points="81.3505,-89.5706 77.8504,-79.5707 74.3505,-89.5707 81.3505,-89.5706"/>
</g>
<!-- Node17&#45;&gt;Node2 -->
<g id="edge58" class="edge"><title>Node17&#45;&gt;Node2</title>
<path fill="none" stroke="midnightblue" d="M619.067,-118.095C659.94,-109.614 714.325,-95.8185 729.85,-80 742.386,-67.2272 746.831,-46.9838 748.32,-31.7201"/>
<polygon fill="midnightblue" stroke="midnightblue" points="751.818,-31.8649 748.956,-21.6639 744.832,-31.4231 751.818,-31.8649"/>
</g>
<!-- Node17&#45;&gt;Node6 -->
<g id="edge60" class="edge"><title>Node17&#45;&gt;Node6</title>
<path fill="none" stroke="midnightblue" d="M580.165,-116.319C591.944,-101.494 608.969,-74.6317 593.85,-58 562.738,-23.7742 235.007,-13.8605 132.39,-11.5846"/>
<polygon fill="midnightblue" stroke="midnightblue" points="132.437,-8.08488 122.365,-11.3709 132.288,-15.0833 132.437,-8.08488"/>
</g>
<!-- Node17&#45;&gt;Node11 -->
<g id="edge62" class="edge"><title>Node17&#45;&gt;Node11</title>
<path fill="none" stroke="midnightblue" d="M568.833,-116.362C567.406,-108.84 565.449,-98.5187 563.725,-89.4308"/>
<polygon fill="midnightblue" stroke="midnightblue" points="567.157,-88.7433 561.855,-79.5707 560.28,-90.0477 567.157,-88.7433"/>
</g>
<!-- Node18&#45;&gt;Node2 -->
<g id="edge68" class="edge"><title>Node18&#45;&gt;Node2</title>
<path fill="none" stroke="midnightblue" d="M894.87,-174.431C884.5,-147.31 856.253,-76.1112 838.85,-58 825.374,-43.9746 806.794,-33.308 790.014,-25.7104"/>
<polygon fill="midnightblue" stroke="midnightblue" points="790.965,-22.3101 780.394,-21.5895 788.208,-28.7445 790.965,-22.3101"/>
</g>
<!-- Node19 -->
<g id="node54" class="node"><title>Node19</title>
<polygon fill="white" stroke="#bfbfbf" points="890.85,-116.5 890.85,-137.5 942.85,-137.5 942.85,-116.5 890.85,-116.5"/>
<text text-anchor="middle" x="916.85" y="-124.5" font-family="Helvetica,sans-Serif" font-size="10.00">QEvent</text>
</g>
<!-- Node18&#45;&gt;Node19 -->
<g id="edge70" class="edge"><title>Node18&#45;&gt;Node19</title>
<path fill="none" stroke="midnightblue" d="M902.152,-174.362C904.512,-166.758 907.759,-156.294 910.602,-147.135"/>
<polygon fill="midnightblue" stroke="midnightblue" points="913.948,-148.159 913.57,-137.571 907.263,-146.084 913.948,-148.159"/>
</g>
<!-- Node21 -->
<g id="node58" class="node"><title>Node21</title>
<polygon fill="white" stroke="#bfbfbf" points="960.85,-116.5 960.85,-137.5 1052.85,-137.5 1052.85,-116.5 960.85,-116.5"/>
<text text-anchor="middle" x="1006.85" y="-124.5" font-family="Helvetica,sans-Serif" font-size="10.00">nyx/nyx_client.h</text>
</g>
<!-- Node20&#45;&gt;Node21 -->
<g id="edge74" class="edge"><title>Node20&#45;&gt;Node21</title>
<path fill="none" stroke="midnightblue" d="M1004.4,-174.362C1004.79,-166.922 1005.31,-156.743 1005.78,-147.728"/>
<polygon fill="midnightblue" stroke="midnightblue" points="1009.28,-147.738 1006.3,-137.571 1002.29,-147.376 1009.28,-147.738"/>
</g>
</g>
</svg>
