<?xml version="1.0" encoding="UTF-8" standalone="no"?>
<!DOCTYPE svg PUBLIC "-//W3C//DTD SVG 1.1//EN"
 "http://www.w3.org/Graphics/SVG/1.1/DTD/svg11.dtd">
<!-- Generated by graphviz version 2.26.3 (20100126.1600)
 -->
<!-- Title: HostArmQemu.cpp Pages: 1 -->
<svg width="1822pt" height="378pt"
 viewBox="0.00 0.00 1821.86 378.00" xmlns="http://www.w3.org/2000/svg" xmlns:xlink="http://www.w3.org/1999/xlink">
<g id="graph1" class="graph" transform="scale(1 1) rotate(0) translate(4 374)">
<title>HostArmQemu.cpp</title>
<polygon fill="white" stroke="white" points="-4,5 -4,-374 1818.86,-374 1818.86,5 -4,5"/>
<!-- Node1 -->
<g id="node1" class="node"><title>Node1</title>
<polygon fill="#bfbfbf" stroke="black" points="400,-348.5 400,-369.5 504,-369.5 504,-348.5 400,-348.5"/>
<text text-anchor="middle" x="452" y="-356.5" font-family="Helvetica,sans-Serif" font-size="10.00">HostArmQemu.cpp</text>
</g>
<!-- Node2 -->
<g id="node3" class="node"><title>Node2</title>
<a xlink:href="Common_8h.htm" target="_top" xlink:title="Common.h">
<polygon fill="white" stroke="black" points="963.5,-0.5 963.5,-21.5 1030.5,-21.5 1030.5,-0.5 963.5,-0.5"/>
<text text-anchor="middle" x="997" y="-8.5" font-family="Helvetica,sans-Serif" font-size="10.00">Common.h</text>
</a>
</g>
<!-- Node1&#45;&gt;Node2 -->
<g id="edge2" class="edge"><title>Node1&#45;&gt;Node2</title>
<path fill="none" stroke="midnightblue" d="M399.708,-356.59C280.728,-349.682 0,-324.724 0,-243 0,-243 0,-243 0,-127 0,-29.5744 760.845,-13.8425 953.224,-11.4218"/>
<polygon fill="midnightblue" stroke="midnightblue" points="953.3,-14.9213 963.257,-11.3013 953.215,-7.92178 953.3,-14.9213"/>
</g>
<!-- Node3 -->
<g id="node5" class="node"><title>Node3</title>
<a xlink:href="HostArm_8h.htm" target="_top" xlink:title="HostArm.h">
<polygon fill="white" stroke="black" points="380.5,-290.5 380.5,-311.5 445.5,-311.5 445.5,-290.5 380.5,-290.5"/>
<text text-anchor="middle" x="413" y="-298.5" font-family="Helvetica,sans-Serif" font-size="10.00">HostArm.h</text>
</a>
</g>
<!-- Node1&#45;&gt;Node3 -->
<g id="edge4" class="edge"><title>Node1&#45;&gt;Node3</title>
<path fill="none" stroke="midnightblue" d="M444.847,-348.362C439.514,-340.431 432.089,-329.389 425.749,-319.961"/>
<polygon fill="midnightblue" stroke="midnightblue" points="428.592,-317.916 420.108,-311.571 422.783,-321.822 428.592,-317.916"/>
</g>
<!-- Node27 -->
<g id="node74" class="node"><title>Node27</title>
<polygon fill="white" stroke="#bfbfbf" points="27.5,-174.5 27.5,-195.5 82.5,-195.5 82.5,-174.5 27.5,-174.5"/>
<text text-anchor="middle" x="55" y="-182.5" font-family="Helvetica,sans-Serif" font-size="10.00">QObject</text>
</g>
<!-- Node1&#45;&gt;Node27 -->
<g id="edge128" class="edge"><title>Node1&#45;&gt;Node27</title>
<path fill="none" stroke="midnightblue" d="M399.927,-351.331C306.623,-336.547 116.431,-301.336 71,-254 58.7351,-241.221 55.2067,-220.978 54.4664,-205.717"/>
<polygon fill="midnightblue" stroke="midnightblue" points="57.9655,-205.615 54.335,-195.662 50.9661,-205.707 57.9655,-205.615"/>
</g>
<!-- Node35 -->
<g id="node100" class="node"><title>Node35</title>
<polygon fill="white" stroke="#bfbfbf" points="463,-290.5 463,-311.5 521,-311.5 521,-290.5 463,-290.5"/>
<text text-anchor="middle" x="492" y="-298.5" font-family="Helvetica,sans-Serif" font-size="10.00">QWidget</text>
</g>
<!-- Node1&#45;&gt;Node35 -->
<g id="edge130" class="edge"><title>Node1&#45;&gt;Node35</title>
<path fill="none" stroke="midnightblue" d="M459.337,-348.362C464.806,-340.431 472.422,-329.389 478.924,-319.961"/>
<polygon fill="midnightblue" stroke="midnightblue" points="481.914,-321.79 484.71,-311.571 476.151,-317.816 481.914,-321.79"/>
</g>
<!-- Node36 -->
<g id="node102" class="node"><title>Node36</title>
<polygon fill="white" stroke="#bfbfbf" points="539,-290.5 539,-311.5 597,-311.5 597,-290.5 539,-290.5"/>
<text text-anchor="middle" x="568" y="-298.5" font-family="Helvetica,sans-Serif" font-size="10.00">QtDebug</text>
</g>
<!-- Node1&#45;&gt;Node36 -->
<g id="edge132" class="edge"><title>Node1&#45;&gt;Node36</title>
<path fill="none" stroke="midnightblue" d="M473.007,-348.497C491.043,-339.479 517.27,-326.365 537.599,-316.201"/>
<polygon fill="midnightblue" stroke="midnightblue" points="539.379,-319.224 546.758,-311.621 536.248,-312.963 539.379,-319.224"/>
</g>
<!-- Node37 -->
<g id="node104" class="node"><title>Node37</title>
<polygon fill="white" stroke="#bfbfbf" points="615,-290.5 615,-311.5 705,-311.5 705,-290.5 615,-290.5"/>
<text text-anchor="middle" x="660" y="-298.5" font-family="Helvetica,sans-Serif" font-size="10.00">QGraphicsView</text>
</g>
<!-- Node1&#45;&gt;Node37 -->
<g id="edge134" class="edge"><title>Node1&#45;&gt;Node37</title>
<path fill="none" stroke="midnightblue" d="M489.667,-348.497C524.017,-338.918 574.937,-324.72 612.154,-314.342"/>
<polygon fill="midnightblue" stroke="midnightblue" points="613.57,-317.581 622.262,-311.523 611.689,-310.838 613.57,-317.581"/>
</g>
<!-- Node3&#45;&gt;Node2 -->
<g id="edge8" class="edge"><title>Node3&#45;&gt;Node2</title>
<path fill="none" stroke="midnightblue" d="M396.817,-290.402C368.716,-272.067 312.936,-235.993 303,-232 227.363,-201.603 78.275,-237.812 129,-174 233.215,-42.899 791.629,-16.8507 953.188,-12.03"/>
<polygon fill="midnightblue" stroke="midnightblue" points="953.351,-15.5269 963.247,-11.7423 953.151,-8.52975 953.351,-15.5269"/>
</g>
<!-- Node4 -->
<g id="node7" class="node"><title>Node4</title>
<polygon fill="white" stroke="#bfbfbf" points="587,-116.5 587,-137.5 679,-137.5 679,-116.5 587,-116.5"/>
<text text-anchor="middle" x="633" y="-124.5" font-family="Helvetica,sans-Serif" font-size="10.00">nyx/nyx_client.h</text>
</g>
<!-- Node3&#45;&gt;Node4 -->
<g id="edge6" class="edge"><title>Node3&#45;&gt;Node4</title>
<path fill="none" stroke="midnightblue" d="M445.818,-290.536C487.432,-275.718 558.937,-244.856 602,-196 614.298,-182.047 622.477,-162.415 627.33,-147.657"/>
<polygon fill="midnightblue" stroke="midnightblue" points="630.729,-148.509 630.288,-137.924 624.031,-146.474 630.729,-148.509"/>
</g>
<!-- Node5 -->
<g id="node10" class="node"><title>Node5</title>
<a xlink:href="HostBase_8h.htm" target="_top" xlink:title="HostBase.h">
<polygon fill="white" stroke="black" points="946.5,-232.5 946.5,-253.5 1017.5,-253.5 1017.5,-232.5 946.5,-232.5"/>
<text text-anchor="middle" x="982" y="-240.5" font-family="Helvetica,sans-Serif" font-size="10.00">HostBase.h</text>
</a>
</g>
<!-- Node3&#45;&gt;Node5 -->
<g id="edge10" class="edge"><title>Node3&#45;&gt;Node5</title>
<path fill="none" stroke="midnightblue" d="M445.552,-291.679C448.395,-291.044 451.239,-290.47 454,-290 663.144,-254.357 719.975,-284.02 930,-254 932.07,-253.704 934.18,-253.375 936.308,-253.019"/>
<polygon fill="midnightblue" stroke="midnightblue" points="937.093,-256.434 946.306,-251.203 935.842,-249.547 937.093,-256.434"/>
</g>
<!-- Node11 -->
<g id="node28" class="node"><title>Node11</title>
<a xlink:href="Event_8h.htm" target="_top" xlink:title="Event.h">
<polygon fill="white" stroke="black" points="1442,-116.5 1442,-137.5 1494,-137.5 1494,-116.5 1442,-116.5"/>
<text text-anchor="middle" x="1468" y="-124.5" font-family="Helvetica,sans-Serif" font-size="10.00">Event.h</text>
</a>
</g>
<!-- Node3&#45;&gt;Node11 -->
<g id="edge86" class="edge"><title>Node3&#45;&gt;Node11</title>
<path fill="none" stroke="midnightblue" d="M445.546,-291.641C448.39,-291.014 451.236,-290.453 454,-290 705.37,-248.792 774.474,-294.244 1026,-254 1127.12,-237.821 1150.58,-224.285 1249,-196 1313.91,-177.347 1388.82,-153.163 1432.07,-138.938"/>
<polygon fill="midnightblue" stroke="midnightblue" points="1433.43,-142.173 1441.84,-135.717 1431.24,-135.525 1433.43,-142.173"/>
</g>
<!-- Node19 -->
<g id="node54" class="node"><title>Node19</title>
<a xlink:href="CustomEvents_8h.htm" target="_top" xlink:title="CustomEvents.h">
<polygon fill="white" stroke="black" points="474,-174.5 474,-195.5 566,-195.5 566,-174.5 474,-174.5"/>
<text text-anchor="middle" x="520" y="-182.5" font-family="Helvetica,sans-Serif" font-size="10.00">CustomEvents.h</text>
</a>
</g>
<!-- Node3&#45;&gt;Node19 -->
<g id="edge88" class="edge"><title>Node3&#45;&gt;Node19</title>
<path fill="none" stroke="midnightblue" d="M435.359,-290.379C450.823,-282.157 471.049,-269.56 485,-254 497.7,-239.836 507.06,-220.226 512.888,-205.531"/>
<polygon fill="midnightblue" stroke="midnightblue" points="516.285,-206.439 516.506,-195.847 509.728,-203.99 516.285,-206.439"/>
</g>
<!-- Node25 -->
<g id="node70" class="node"><title>Node25</title>
<a xlink:href="NyxSensorConnector_8h.htm" target="_top" xlink:title="NyxSensorConnector.h">
<polygon fill="white" stroke="black" points="350,-232.5 350,-253.5 476,-253.5 476,-232.5 350,-232.5"/>
<text text-anchor="middle" x="413" y="-240.5" font-family="Helvetica,sans-Serif" font-size="10.00">NyxSensorConnector.h</text>
</a>
</g>
<!-- Node3&#45;&gt;Node25 -->
<g id="edge90" class="edge"><title>Node3&#45;&gt;Node25</title>
<path fill="none" stroke="midnightblue" d="M413,-290.362C413,-282.922 413,-272.743 413,-263.728"/>
<polygon fill="midnightblue" stroke="midnightblue" points="416.5,-263.571 413,-253.571 409.5,-263.571 416.5,-263.571"/>
</g>
<!-- Node3&#45;&gt;Node27 -->
<g id="edge126" class="edge"><title>Node3&#45;&gt;Node27</title>
<path fill="none" stroke="midnightblue" d="M380.369,-299.722C308.877,-296.366 141.126,-285.292 95,-254 77.9867,-242.458 67.253,-221.094 61.2377,-205.184"/>
<polygon fill="midnightblue" stroke="midnightblue" points="64.5249,-203.98 57.9476,-195.674 57.9096,-206.269 64.5249,-203.98"/>
</g>
<!-- Node31 -->
<g id="node85" class="node"><title>Node31</title>
<a xlink:href="NyxInputControl_8h.htm" target="_top" xlink:title="NyxInputControl.h">
<polygon fill="white" stroke="black" points="820.5,-232.5 820.5,-253.5 921.5,-253.5 921.5,-232.5 820.5,-232.5"/>
<text text-anchor="middle" x="871" y="-240.5" font-family="Helvetica,sans-Serif" font-size="10.00">NyxInputControl.h</text>
</a>
</g>
<!-- Node3&#45;&gt;Node31 -->
<g id="edge108" class="edge"><title>Node3&#45;&gt;Node31</title>
<path fill="none" stroke="midnightblue" d="M445.572,-291.789C448.41,-291.13 451.248,-290.521 454,-290 488.152,-283.532 703.131,-260.587 810.349,-249.327"/>
<polygon fill="midnightblue" stroke="midnightblue" points="810.799,-252.799 820.379,-248.275 810.069,-245.837 810.799,-252.799"/>
</g>
<!-- Node32 -->
<g id="node89" class="node"><title>Node32</title>
<a xlink:href="NyxLedControl_8h.htm" target="_top" xlink:title="NyxLedControl.h">
<polygon fill="white" stroke="black" points="659.5,-232.5 659.5,-253.5 754.5,-253.5 754.5,-232.5 659.5,-232.5"/>
<text text-anchor="middle" x="707" y="-240.5" font-family="Helvetica,sans-Serif" font-size="10.00">NyxLedControl.h</text>
</a>
</g>
<!-- Node3&#45;&gt;Node32 -->
<g id="edge114" class="edge"><title>Node3&#45;&gt;Node32</title>
<path fill="none" stroke="midnightblue" d="M445.616,-292.002C448.445,-291.297 451.269,-290.619 454,-290 472.727,-285.755 580.408,-266.014 649.118,-253.505"/>
<polygon fill="midnightblue" stroke="midnightblue" points="650.162,-256.872 659.374,-251.639 648.909,-249.986 650.162,-256.872"/>
</g>
<!-- Node33 -->
<g id="node94" class="node"><title>Node33</title>
<polygon fill="white" stroke="#bfbfbf" points="104,-232.5 104,-253.5 182,-253.5 182,-232.5 104,-232.5"/>
<text text-anchor="middle" x="143" y="-240.5" font-family="Helvetica,sans-Serif" font-size="10.00">lunaservice.h</text>
</g>
<!-- Node3&#45;&gt;Node33 -->
<g id="edge122" class="edge"><title>Node3&#45;&gt;Node33</title>
<path fill="none" stroke="midnightblue" d="M380.238,-294.242C338.757,-285.646 264.837,-270.199 191.844,-254.162"/>
<polygon fill="midnightblue" stroke="midnightblue" points="192.539,-250.732 182.02,-251.999 191.034,-257.568 192.539,-250.732"/>
</g>
<!-- Node34 -->
<g id="node96" class="node"><title>Node34</title>
<polygon fill="white" stroke="#bfbfbf" points="200,-232.5 200,-253.5 294,-253.5 294,-232.5 200,-232.5"/>
<text text-anchor="middle" x="247" y="-240.5" font-family="Helvetica,sans-Serif" font-size="10.00">qsocketnotifier.h</text>
</g>
<!-- Node3&#45;&gt;Node34 -->
<g id="edge124" class="edge"><title>Node3&#45;&gt;Node34</title>
<path fill="none" stroke="midnightblue" d="M382.939,-290.497C355.993,-281.082 316.272,-267.204 286.718,-256.877"/>
<polygon fill="midnightblue" stroke="midnightblue" points="287.713,-253.517 277.118,-253.523 285.404,-260.126 287.713,-253.517"/>
</g>
<!-- Node5&#45;&gt;Node2 -->
<g id="edge12" class="edge"><title>Node5&#45;&gt;Node2</title>
<path fill="none" stroke="midnightblue" d="M1011.18,-232.483C1036.24,-222.789 1069.48,-208.115 1077,-196 1082.16,-187.693 1079.92,-183.331 1077,-174 1071.18,-155.411 1062.99,-154.083 1052,-138 1034.47,-112.353 1025.38,-108.49 1013,-80 1006.27,-64.5153 1002.16,-45.7932 999.79,-31.7601"/>
<polygon fill="midnightblue" stroke="midnightblue" points="1003.22,-31.0199 998.248,-21.6626 996.298,-32.0763 1003.22,-31.0199"/>
</g>
<!-- Node6 -->
<g id="node13" class="node"><title>Node6</title>
<a xlink:href="TaskBase_8h.htm" target="_top" xlink:title="TaskBase.h">
<polygon fill="white" stroke="black" points="1168,-174.5 1168,-195.5 1240,-195.5 1240,-174.5 1168,-174.5"/>
<text text-anchor="middle" x="1204" y="-182.5" font-family="Helvetica,sans-Serif" font-size="10.00">TaskBase.h</text>
</a>
</g>
<!-- Node5&#45;&gt;Node6 -->
<g id="edge14" class="edge"><title>Node5&#45;&gt;Node6</title>
<path fill="none" stroke="midnightblue" d="M1017.67,-233.681C1055.71,-223.741 1116.12,-207.961 1157.78,-197.075"/>
<polygon fill="midnightblue" stroke="midnightblue" points="1158.89,-200.402 1167.68,-194.488 1157.12,-193.63 1158.89,-200.402"/>
</g>
<!-- Node17 -->
<g id="node43" class="node"><title>Node17</title>
<a xlink:href="Mutex_8h.htm" target="_top" xlink:title="Mutex.h">
<polygon fill="white" stroke="black" points="1085.5,-116.5 1085.5,-137.5 1138.5,-137.5 1138.5,-116.5 1085.5,-116.5"/>
<text text-anchor="middle" x="1112" y="-124.5" font-family="Helvetica,sans-Serif" font-size="10.00">Mutex.h</text>
</a>
</g>
<!-- Node5&#45;&gt;Node17 -->
<g id="edge68" class="edge"><title>Node5&#45;&gt;Node17</title>
<path fill="none" stroke="midnightblue" d="M1017.52,-234.695C1051.41,-225.978 1098.9,-211.418 1110,-196 1119.82,-182.359 1119.48,-162.955 1117.17,-148.196"/>
<polygon fill="midnightblue" stroke="midnightblue" points="1120.52,-147.119 1115.15,-137.988 1113.65,-148.477 1120.52,-147.119"/>
</g>
<!-- Node5&#45;&gt;Node19 -->
<g id="edge70" class="edge"><title>Node5&#45;&gt;Node19</title>
<path fill="none" stroke="midnightblue" d="M946.278,-234.981C940.841,-233.894 935.283,-232.86 930,-232 804.288,-211.545 655.464,-196.835 576.245,-189.754"/>
<polygon fill="midnightblue" stroke="midnightblue" points="576.273,-186.243 566.004,-188.847 575.656,-193.216 576.273,-186.243"/>
</g>
<!-- Node21 -->
<g id="node59" class="node"><title>Node21</title>
<a xlink:href="InputControl_8h.htm" target="_top" xlink:title="InputControl.h">
<polygon fill="white" stroke="black" points="829.5,-174.5 829.5,-195.5 912.5,-195.5 912.5,-174.5 829.5,-174.5"/>
<text text-anchor="middle" x="871" y="-182.5" font-family="Helvetica,sans-Serif" font-size="10.00">InputControl.h</text>
</a>
</g>
<!-- Node5&#45;&gt;Node21 -->
<g id="edge76" class="edge"><title>Node5&#45;&gt;Node21</title>
<path fill="none" stroke="midnightblue" d="M961.899,-232.497C944.718,-223.519 919.77,-210.484 900.355,-200.339"/>
<polygon fill="midnightblue" stroke="midnightblue" points="901.811,-197.15 891.327,-195.621 898.569,-203.354 901.811,-197.15"/>
</g>
<!-- Node22 -->
<g id="node62" class="node"><title>Node22</title>
<a xlink:href="LedControl_8h.htm" target="_top" xlink:title="LedControl.h">
<polygon fill="white" stroke="black" points="735.5,-174.5 735.5,-195.5 812.5,-195.5 812.5,-174.5 735.5,-174.5"/>
<text text-anchor="middle" x="774" y="-182.5" font-family="Helvetica,sans-Serif" font-size="10.00">LedControl.h</text>
</a>
</g>
<!-- Node5&#45;&gt;Node22 -->
<g id="edge80" class="edge"><title>Node5&#45;&gt;Node22</title>
<path fill="none" stroke="midnightblue" d="M946.244,-233.029C911.804,-223.426 859.488,-208.838 821.55,-198.259"/>
<polygon fill="midnightblue" stroke="midnightblue" points="822.32,-194.84 811.747,-195.526 820.44,-201.583 822.32,-194.84"/>
</g>
<!-- Node23 -->
<g id="node64" class="node"><title>Node23</title>
<polygon fill="white" stroke="#bfbfbf" points="967.5,-174.5 967.5,-195.5 996.5,-195.5 996.5,-174.5 967.5,-174.5"/>
<text text-anchor="middle" x="982" y="-182.5" font-family="Helvetica,sans-Serif" font-size="10.00">Qt</text>
</g>
<!-- Node5&#45;&gt;Node23 -->
<g id="edge82" class="edge"><title>Node5&#45;&gt;Node23</title>
<path fill="none" stroke="midnightblue" d="M982,-232.362C982,-224.922 982,-214.743 982,-205.728"/>
<polygon fill="midnightblue" stroke="midnightblue" points="985.5,-205.571 982,-195.571 978.5,-205.571 985.5,-205.571"/>
</g>
<!-- Node24 -->
<g id="node66" class="node"><title>Node24</title>
<polygon fill="white" stroke="#bfbfbf" points="1014,-174.5 1014,-195.5 1068,-195.5 1068,-174.5 1014,-174.5"/>
<text text-anchor="middle" x="1041" y="-182.5" font-family="Helvetica,sans-Serif" font-size="10.00">QImage</text>
</g>
<!-- Node5&#45;&gt;Node24 -->
<g id="edge84" class="edge"><title>Node5&#45;&gt;Node24</title>
<path fill="none" stroke="midnightblue" d="M992.822,-232.362C1001.22,-224.104 1013.05,-212.472 1022.89,-202.803"/>
<polygon fill="midnightblue" stroke="midnightblue" points="1025.57,-205.077 1030.25,-195.571 1020.66,-200.085 1025.57,-205.077"/>
</g>
<!-- Node6&#45;&gt;Node2 -->
<g id="edge16" class="edge"><title>Node6&#45;&gt;Node2</title>
<path fill="none" stroke="midnightblue" d="M1167.76,-178.156C1140.5,-171.552 1103.44,-159.327 1077,-138 1040.85,-108.843 1016.26,-58.7266 1004.65,-30.9679"/>
<polygon fill="midnightblue" stroke="midnightblue" points="1007.83,-29.4818 1000.85,-21.5141 1001.34,-32.0975 1007.83,-29.4818"/>
</g>
<!-- Node7 -->
<g id="node16" class="node"><title>Node7</title>
<polygon fill="white" stroke="#bfbfbf" points="1271.5,-0.5 1271.5,-21.5 1312.5,-21.5 1312.5,-0.5 1271.5,-0.5"/>
<text text-anchor="middle" x="1292" y="-8.5" font-family="Helvetica,sans-Serif" font-size="10.00">glib.h</text>
</g>
<!-- Node6&#45;&gt;Node7 -->
<g id="edge18" class="edge"><title>Node6&#45;&gt;Node7</title>
<path fill="none" stroke="midnightblue" d="M1240.14,-181.446C1364.94,-168.81 1772.19,-124.437 1809,-80 1815.24,-72.4698 1815.59,-65.2201 1809,-58 1776.1,-21.9684 1428.88,-13.264 1322.69,-11.4372"/>
<polygon fill="midnightblue" stroke="midnightblue" points="1322.68,-7.93671 1312.62,-11.2725 1322.56,-14.9358 1322.68,-7.93671"/>
</g>
<!-- Node8 -->
<g id="node18" class="node"><title>Node8</title>
<polygon fill="white" stroke="#bfbfbf" points="1231.5,-116.5 1231.5,-137.5 1260.5,-137.5 1260.5,-116.5 1231.5,-116.5"/>
<text text-anchor="middle" x="1246" y="-124.5" font-family="Helvetica,sans-Serif" font-size="10.00">list</text>
</g>
<!-- Node6&#45;&gt;Node8 -->
<g id="edge20" class="edge"><title>Node6&#45;&gt;Node8</title>
<path fill="none" stroke="midnightblue" d="M1211.7,-174.362C1217.45,-166.431 1225.44,-155.389 1232.27,-145.961"/>
<polygon fill="midnightblue" stroke="midnightblue" points="1235.32,-147.723 1238.35,-137.571 1229.65,-143.617 1235.32,-147.723"/>
</g>
<!-- Node9 -->
<g id="node20" class="node"><title>Node9</title>
<a xlink:href="sptr_8h.htm" target="_top" xlink:title="sptr.h">
<polygon fill="white" stroke="black" points="1119.5,-58.5 1119.5,-79.5 1162.5,-79.5 1162.5,-58.5 1119.5,-58.5"/>
<text text-anchor="middle" x="1141" y="-66.5" font-family="Helvetica,sans-Serif" font-size="10.00">sptr.h</text>
</a>
</g>
<!-- Node6&#45;&gt;Node9 -->
<g id="edge22" class="edge"><title>Node6&#45;&gt;Node9</title>
<path fill="none" stroke="midnightblue" d="M1198.19,-174.295C1187.59,-154.786 1165,-113.188 1151.6,-88.5177"/>
<polygon fill="midnightblue" stroke="midnightblue" points="1154.65,-86.7964 1146.8,-79.6792 1148.5,-90.1373 1154.65,-86.7964"/>
</g>
<!-- Node10 -->
<g id="node24" class="node"><title>Node10</title>
<a xlink:href="AsyncCaller_8h.htm" target="_top" xlink:title="AsyncCaller.h">
<polygon fill="white" stroke="black" points="1217.5,-58.5 1217.5,-79.5 1298.5,-79.5 1298.5,-58.5 1217.5,-58.5"/>
<text text-anchor="middle" x="1258" y="-66.5" font-family="Helvetica,sans-Serif" font-size="10.00">AsyncCaller.h</text>
</a>
</g>
<!-- Node6&#45;&gt;Node10 -->
<g id="edge28" class="edge"><title>Node6&#45;&gt;Node10</title>
<path fill="none" stroke="midnightblue" d="M1205.68,-174.276C1208.14,-160.321 1213.51,-135.426 1223,-116 1227.9,-105.959 1235.04,-95.8815 1241.6,-87.6477"/>
<polygon fill="midnightblue" stroke="midnightblue" points="1244.41,-89.7445 1248.1,-79.8133 1239.02,-85.2752 1244.41,-89.7445"/>
</g>
<!-- Node6&#45;&gt;Node11 -->
<g id="edge34" class="edge"><title>Node6&#45;&gt;Node11</title>
<path fill="none" stroke="midnightblue" d="M1240.15,-177.057C1290.62,-165.969 1381.65,-145.972 1432.02,-134.905"/>
<polygon fill="midnightblue" stroke="midnightblue" points="1432.81,-138.315 1441.83,-132.75 1431.31,-131.478 1432.81,-138.315"/>
</g>
<!-- Node6&#45;&gt;Node17 -->
<g id="edge52" class="edge"><title>Node6&#45;&gt;Node17</title>
<path fill="none" stroke="midnightblue" d="M1187.13,-174.362C1173.25,-165.614 1153.37,-153.079 1137.54,-143.101"/>
<polygon fill="midnightblue" stroke="midnightblue" points="1139.09,-139.943 1128.77,-137.571 1135.36,-145.864 1139.09,-139.943"/>
</g>
<!-- Node18 -->
<g id="node48" class="node"><title>Node18</title>
<a xlink:href="SingletonTimer_8h.htm" target="_top" xlink:title="SingletonTimer.h">
<polygon fill="white" stroke="black" points="1278,-116.5 1278,-137.5 1374,-137.5 1374,-116.5 1278,-116.5"/>
<text text-anchor="middle" x="1326" y="-124.5" font-family="Helvetica,sans-Serif" font-size="10.00">SingletonTimer.h</text>
</a>
</g>
<!-- Node6&#45;&gt;Node18 -->
<g id="edge60" class="edge"><title>Node6&#45;&gt;Node18</title>
<path fill="none" stroke="midnightblue" d="M1226.09,-174.497C1245.23,-165.397 1273.15,-152.127 1294.61,-141.925"/>
<polygon fill="midnightblue" stroke="midnightblue" points="1296.13,-145.076 1303.66,-137.621 1293.12,-138.754 1296.13,-145.076"/>
</g>
<!-- Node9&#45;&gt;Node2 -->
<g id="edge24" class="edge"><title>Node9&#45;&gt;Node2</title>
<path fill="none" stroke="midnightblue" d="M1119.44,-60.3168C1096.52,-51.0852 1059.9,-36.3335 1032.67,-25.3661"/>
<polygon fill="midnightblue" stroke="midnightblue" points="1033.69,-22.0035 1023.1,-21.5139 1031.07,-28.4966 1033.69,-22.0035"/>
</g>
<!-- Node9&#45;&gt;Node7 -->
<g id="edge26" class="edge"><title>Node9&#45;&gt;Node7</title>
<path fill="none" stroke="midnightblue" d="M1162.63,-60.69C1188.72,-50.6715 1232.7,-33.7788 1262.03,-22.5101"/>
<polygon fill="midnightblue" stroke="midnightblue" points="1263.29,-25.7752 1271.37,-18.9222 1260.78,-19.2407 1263.29,-25.7752"/>
</g>
<!-- Node10&#45;&gt;Node2 -->
<g id="edge30" class="edge"><title>Node10&#45;&gt;Node2</title>
<path fill="none" stroke="midnightblue" d="M1217.22,-59.9375C1169.3,-49.2889 1090.1,-31.6891 1040.88,-20.7511"/>
<polygon fill="midnightblue" stroke="midnightblue" points="1041.37,-17.2758 1030.85,-18.523 1039.86,-24.1091 1041.37,-17.2758"/>
</g>
<!-- Node10&#45;&gt;Node7 -->
<g id="edge32" class="edge"><title>Node10&#45;&gt;Node7</title>
<path fill="none" stroke="midnightblue" d="M1264.24,-58.3619C1268.84,-50.5131 1275.23,-39.6159 1280.71,-30.2527"/>
<polygon fill="midnightblue" stroke="midnightblue" points="1283.77,-31.9677 1285.8,-21.5707 1277.73,-28.4276 1283.77,-31.9677"/>
</g>
<!-- Node11&#45;&gt;Node2 -->
<g id="edge36" class="edge"><title>Node11&#45;&gt;Node2</title>
<path fill="none" stroke="midnightblue" d="M1462.99,-116.419C1454.9,-100.675 1437.4,-71.493 1413,-58 1349.84,-23.0725 1134.32,-14.0509 1040.84,-11.7612"/>
<polygon fill="midnightblue" stroke="midnightblue" points="1040.67,-8.25647 1030.59,-11.5254 1040.51,-15.2546 1040.67,-8.25647"/>
</g>
<!-- Node11&#45;&gt;Node7 -->
<g id="edge40" class="edge"><title>Node11&#45;&gt;Node7</title>
<path fill="none" stroke="midnightblue" d="M1494.07,-125.165C1567.75,-119.718 1773.43,-102.601 1793,-80 1799.4,-72.6078 1799.58,-65.2296 1793,-58 1761.26,-23.1417 1426.84,-13.652 1322.75,-11.5331"/>
<polygon fill="midnightblue" stroke="midnightblue" points="1322.65,-8.03071 1312.58,-11.3351 1322.51,-15.0294 1322.65,-8.03071"/>
</g>
<!-- Node11&#45;&gt;Node9 -->
<g id="edge50" class="edge"><title>Node11&#45;&gt;Node9</title>
<path fill="none" stroke="midnightblue" d="M1441.79,-122.352C1382.21,-111.784 1236.8,-85.9923 1172.48,-74.5844"/>
<polygon fill="midnightblue" stroke="midnightblue" points="1172.98,-71.1183 1162.53,-72.818 1171.76,-78.0107 1172.98,-71.1183"/>
</g>
<!-- Node12 -->
<g id="node31" class="node"><title>Node12</title>
<polygon fill="white" stroke="#bfbfbf" points="1354,-58.5 1354,-79.5 1404,-79.5 1404,-58.5 1354,-58.5"/>
<text text-anchor="middle" x="1379" y="-66.5" font-family="Helvetica,sans-Serif" font-size="10.00">stdint.h</text>
</g>
<!-- Node11&#45;&gt;Node12 -->
<g id="edge38" class="edge"><title>Node11&#45;&gt;Node12</title>
<path fill="none" stroke="midnightblue" d="M1451.68,-116.362C1438.25,-107.614 1419.02,-95.0786 1403.71,-85.1015"/>
<polygon fill="midnightblue" stroke="midnightblue" points="1405.51,-82.0982 1395.22,-79.5707 1401.69,-87.9628 1405.51,-82.0982"/>
</g>
<!-- Node13 -->
<g id="node34" class="node"><title>Node13</title>
<polygon fill="white" stroke="#bfbfbf" points="1565.5,-58.5 1565.5,-79.5 1612.5,-79.5 1612.5,-58.5 1565.5,-58.5"/>
<text text-anchor="middle" x="1589" y="-66.5" font-family="Helvetica,sans-Serif" font-size="10.00">stdio.h</text>
</g>
<!-- Node11&#45;&gt;Node13 -->
<g id="edge42" class="edge"><title>Node11&#45;&gt;Node13</title>
<path fill="none" stroke="midnightblue" d="M1489.91,-116.497C1508.81,-107.438 1536.33,-94.2462 1557.58,-84.0628"/>
<polygon fill="midnightblue" stroke="midnightblue" points="1559.34,-87.0999 1566.84,-79.6212 1556.31,-80.7876 1559.34,-87.0999"/>
</g>
<!-- Node14 -->
<g id="node36" class="node"><title>Node14</title>
<polygon fill="white" stroke="#bfbfbf" points="1629.5,-58.5 1629.5,-79.5 1680.5,-79.5 1680.5,-58.5 1629.5,-58.5"/>
<text text-anchor="middle" x="1655" y="-66.5" font-family="Helvetica,sans-Serif" font-size="10.00">string.h</text>
</g>
<!-- Node11&#45;&gt;Node14 -->
<g id="edge44" class="edge"><title>Node11&#45;&gt;Node14</title>
<path fill="none" stroke="midnightblue" d="M1494.03,-119.134C1522.65,-110.453 1570.26,-95.9351 1619.8,-80.354"/>
<polygon fill="midnightblue" stroke="midnightblue" points="1620.91,-83.6736 1629.39,-77.3295 1618.8,-76.9973 1620.91,-83.6736"/>
</g>
<!-- Node15 -->
<g id="node38" class="node"><title>Node15</title>
<polygon fill="white" stroke="#bfbfbf" points="1698,-58.5 1698,-79.5 1784,-79.5 1784,-58.5 1698,-58.5"/>
<text text-anchor="middle" x="1741" y="-66.5" font-family="Helvetica,sans-Serif" font-size="10.00">qnamespace.h</text>
</g>
<!-- Node11&#45;&gt;Node15 -->
<g id="edge46" class="edge"><title>Node11&#45;&gt;Node15</title>
<path fill="none" stroke="midnightblue" d="M1494.18,-121.439C1538.49,-112.024 1629.15,-92.7638 1687.39,-80.3892"/>
<polygon fill="midnightblue" stroke="midnightblue" points="1688.46,-83.7402 1697.52,-78.2384 1687.01,-76.893 1688.46,-83.7402"/>
</g>
<!-- Node16 -->
<g id="node40" class="node"><title>Node16</title>
<polygon fill="white" stroke="#bfbfbf" points="1460,-58.5 1460,-79.5 1548,-79.5 1548,-58.5 1460,-58.5"/>
<text text-anchor="middle" x="1504" y="-66.5" font-family="Helvetica,sans-Serif" font-size="10.00">SysMgrEvent.h</text>
</g>
<!-- Node11&#45;&gt;Node16 -->
<g id="edge48" class="edge"><title>Node11&#45;&gt;Node16</title>
<path fill="none" stroke="midnightblue" d="M1474.6,-116.362C1479.47,-108.513 1486.24,-97.6159 1492.05,-88.2527"/>
<polygon fill="midnightblue" stroke="midnightblue" points="1495.14,-89.9129 1497.44,-79.5707 1489.19,-86.2213 1495.14,-89.9129"/>
</g>
<!-- Node17&#45;&gt;Node2 -->
<g id="edge54" class="edge"><title>Node17&#45;&gt;Node2</title>
<path fill="none" stroke="midnightblue" d="M1101.39,-116.295C1081.62,-96.3545 1038.97,-53.337 1014.75,-28.9056"/>
<polygon fill="midnightblue" stroke="midnightblue" points="1017.11,-26.3167 1007.59,-21.6792 1012.14,-31.245 1017.11,-26.3167"/>
</g>
<!-- Node17&#45;&gt;Node7 -->
<g id="edge58" class="edge"><title>Node17&#45;&gt;Node7</title>
<path fill="none" stroke="midnightblue" d="M1108.14,-116.384C1103.53,-101.638 1097.95,-74.868 1111,-58 1129.24,-34.4139 1214.5,-20.4771 1261.2,-14.4857"/>
<polygon fill="midnightblue" stroke="midnightblue" points="1261.87,-17.9299 1271.37,-13.2295 1261.01,-10.9828 1261.87,-17.9299"/>
</g>
<!-- Node17&#45;&gt;Node9 -->
<g id="edge56" class="edge"><title>Node17&#45;&gt;Node9</title>
<path fill="none" stroke="midnightblue" d="M1117.32,-116.362C1121.2,-108.595 1126.58,-97.8426 1131.23,-88.5458"/>
<polygon fill="midnightblue" stroke="midnightblue" points="1134.37,-90.0802 1135.71,-79.5707 1128.11,-86.9497 1134.37,-90.0802"/>
</g>
<!-- Node18&#45;&gt;Node2 -->
<g id="edge62" class="edge"><title>Node18&#45;&gt;Node2</title>
<path fill="none" stroke="midnightblue" d="M1296.16,-116.36C1272.21,-107.5 1237.93,-94.0946 1209,-80 1191.46,-71.4521 1189.02,-65.4971 1171,-58 1128.14,-40.1662 1076.52,-27.2179 1040.69,-19.482"/>
<polygon fill="midnightblue" stroke="midnightblue" points="1041.07,-15.9854 1030.56,-17.3438 1039.62,-22.8344 1041.07,-15.9854"/>
</g>
<!-- Node18&#45;&gt;Node7 -->
<g id="edge64" class="edge"><title>Node18&#45;&gt;Node7</title>
<path fill="none" stroke="midnightblue" d="M1323.17,-116.205C1319.57,-102.592 1313.09,-78.4859 1307,-58 1304.39,-49.2251 1301.35,-39.5853 1298.69,-31.3321"/>
<polygon fill="midnightblue" stroke="midnightblue" points="1302,-30.2147 1295.58,-21.7891 1295.35,-32.3814 1302,-30.2147"/>
</g>
<!-- Node18&#45;&gt;Node12 -->
<g id="edge66" class="edge"><title>Node18&#45;&gt;Node12</title>
<path fill="none" stroke="midnightblue" d="M1335.72,-116.362C1343.19,-108.186 1353.69,-96.7025 1362.47,-87.0907"/>
<polygon fill="midnightblue" stroke="midnightblue" points="1365.18,-89.3138 1369.34,-79.5707 1360.01,-84.5918 1365.18,-89.3138"/>
</g>
<!-- Node19&#45;&gt;Node2 -->
<g id="edge72" class="edge"><title>Node19&#45;&gt;Node2</title>
<path fill="none" stroke="midnightblue" d="M526.78,-174.49C536.63,-159.869 556.127,-133.248 578,-116 623.262,-80.3088 639.085,-75.5162 694,-58 783.467,-29.4628 893.511,-17.9372 953.29,-13.529"/>
<polygon fill="midnightblue" stroke="midnightblue" points="953.77,-17.004 963.499,-12.8098 953.278,-10.0213 953.77,-17.004"/>
</g>
<!-- Node20 -->
<g id="node57" class="node"><title>Node20</title>
<polygon fill="white" stroke="#bfbfbf" points="436,-116.5 436,-137.5 488,-137.5 488,-116.5 436,-116.5"/>
<text text-anchor="middle" x="462" y="-124.5" font-family="Helvetica,sans-Serif" font-size="10.00">QEvent</text>
</g>
<!-- Node19&#45;&gt;Node20 -->
<g id="edge74" class="edge"><title>Node19&#45;&gt;Node20</title>
<path fill="none" stroke="midnightblue" d="M509.362,-174.362C501.104,-166.104 489.472,-154.472 479.803,-144.803"/>
<polygon fill="midnightblue" stroke="midnightblue" points="482.117,-142.167 472.571,-137.571 477.167,-147.117 482.117,-142.167"/>
</g>
<!-- Node21&#45;&gt;Node4 -->
<g id="edge78" class="edge"><title>Node21&#45;&gt;Node4</title>
<path fill="none" stroke="midnightblue" d="M829.271,-174.831C789.446,-165.125 729.278,-150.463 686.063,-139.931"/>
<polygon fill="midnightblue" stroke="midnightblue" points="686.835,-136.517 676.291,-137.55 685.178,-143.318 686.835,-136.517"/>
</g>
<!-- Node25&#45;&gt;Node4 -->
<g id="edge104" class="edge"><title>Node25&#45;&gt;Node4</title>
<path fill="none" stroke="midnightblue" d="M476.256,-233.618C507.801,-226.794 545.427,-215.253 575,-196 594.549,-183.273 610.997,-161.973 621.327,-146.399"/>
<polygon fill="midnightblue" stroke="midnightblue" points="624.529,-147.886 626.941,-137.57 618.622,-144.13 624.529,-147.886"/>
</g>
<!-- Node25&#45;&gt;Node19 -->
<g id="edge106" class="edge"><title>Node25&#45;&gt;Node19</title>
<path fill="none" stroke="midnightblue" d="M432.625,-232.362C449.141,-223.409 472.974,-210.491 491.578,-200.406"/>
<polygon fill="midnightblue" stroke="midnightblue" points="493.375,-203.413 500.499,-195.571 490.04,-197.259 493.375,-203.413"/>
</g>
<!-- Node25&#45;&gt;Node20 -->
<g id="edge98" class="edge"><title>Node25&#45;&gt;Node20</title>
<path fill="none" stroke="midnightblue" d="M417.522,-232.295C425.69,-212.959 443.024,-171.923 453.477,-147.177"/>
<polygon fill="midnightblue" stroke="midnightblue" points="456.822,-148.253 457.489,-137.679 450.374,-145.529 456.822,-148.253"/>
</g>
<!-- Node26 -->
<g id="node72" class="node"><title>Node26</title>
<polygon fill="white" stroke="#bfbfbf" points="198,-174.5 198,-195.5 246,-195.5 246,-174.5 198,-174.5"/>
<text text-anchor="middle" x="222" y="-182.5" font-family="Helvetica,sans-Serif" font-size="10.00">limits.h</text>
</g>
<!-- Node25&#45;&gt;Node26 -->
<g id="edge92" class="edge"><title>Node25&#45;&gt;Node26</title>
<path fill="none" stroke="midnightblue" d="M376.182,-232.417C346.162,-223.705 302.44,-210.832 255.799,-196.191"/>
<polygon fill="midnightblue" stroke="midnightblue" points="256.711,-192.809 246.121,-193.141 254.606,-199.485 256.711,-192.809"/>
</g>
<!-- Node25&#45;&gt;Node27 -->
<g id="edge94" class="edge"><title>Node25&#45;&gt;Node27</title>
<path fill="none" stroke="midnightblue" d="M349.821,-232.764C275.247,-220.683 153.673,-200.986 92.5679,-191.086"/>
<polygon fill="midnightblue" stroke="midnightblue" points="93.022,-187.614 82.5909,-189.47 91.9024,-194.524 93.022,-187.614"/>
</g>
<!-- Node28 -->
<g id="node76" class="node"><title>Node28</title>
<polygon fill="white" stroke="#bfbfbf" points="263.5,-174.5 263.5,-195.5 354.5,-195.5 354.5,-174.5 263.5,-174.5"/>
<text text-anchor="middle" x="309" y="-182.5" font-family="Helvetica,sans-Serif" font-size="10.00">QSocketNotifier</text>
</g>
<!-- Node25&#45;&gt;Node28 -->
<g id="edge96" class="edge"><title>Node25&#45;&gt;Node28</title>
<path fill="none" stroke="midnightblue" d="M393.925,-232.362C377.945,-223.45 354.919,-210.609 336.873,-200.545"/>
<polygon fill="midnightblue" stroke="midnightblue" points="338.393,-197.385 327.954,-195.571 334.983,-203.498 338.393,-197.385"/>
</g>
<!-- Node29 -->
<g id="node79" class="node"><title>Node29</title>
<polygon fill="white" stroke="#bfbfbf" points="372,-174.5 372,-195.5 418,-195.5 418,-174.5 372,-174.5"/>
<text text-anchor="middle" x="395" y="-182.5" font-family="Helvetica,sans-Serif" font-size="10.00">vector</text>
</g>
<!-- Node25&#45;&gt;Node29 -->
<g id="edge100" class="edge"><title>Node25&#45;&gt;Node29</title>
<path fill="none" stroke="midnightblue" d="M409.699,-232.362C407.339,-224.758 404.091,-214.294 401.249,-205.135"/>
<polygon fill="midnightblue" stroke="midnightblue" points="404.587,-204.084 398.281,-195.571 397.902,-206.159 404.587,-204.084"/>
</g>
<!-- Node30 -->
<g id="node81" class="node"><title>Node30</title>
<polygon fill="white" stroke="#bfbfbf" points="137.5,-174.5 137.5,-195.5 180.5,-195.5 180.5,-174.5 137.5,-174.5"/>
<text text-anchor="middle" x="159" y="-182.5" font-family="Helvetica,sans-Serif" font-size="10.00">string</text>
</g>
<!-- Node25&#45;&gt;Node30 -->
<g id="edge102" class="edge"><title>Node25&#45;&gt;Node30</title>
<path fill="none" stroke="midnightblue" d="M350.61,-232.413C307.729,-224.564 249.401,-212.763 190.37,-196.131"/>
<polygon fill="midnightblue" stroke="midnightblue" points="191.084,-192.695 180.507,-193.309 189.158,-199.425 191.084,-192.695"/>
</g>
<!-- Node31&#45;&gt;Node2 -->
<g id="edge110" class="edge"><title>Node31&#45;&gt;Node2</title>
<path fill="none" stroke="midnightblue" d="M885.297,-232.359C896.259,-223.598 911.135,-210.326 921,-196 958.122,-142.093 981.782,-67.2694 991.678,-31.5593"/>
<polygon fill="midnightblue" stroke="midnightblue" points="995.085,-32.3653 994.307,-21.7991 988.326,-30.5446 995.085,-32.3653"/>
</g>
<!-- Node31&#45;&gt;Node21 -->
<g id="edge112" class="edge"><title>Node31&#45;&gt;Node21</title>
<path fill="none" stroke="midnightblue" d="M871,-232.362C871,-224.922 871,-214.743 871,-205.728"/>
<polygon fill="midnightblue" stroke="midnightblue" points="874.5,-205.571 871,-195.571 867.5,-205.571 874.5,-205.571"/>
</g>
<!-- Node32&#45;&gt;Node2 -->
<g id="edge116" class="edge"><title>Node32&#45;&gt;Node2</title>
<path fill="none" stroke="midnightblue" d="M707.722,-232.097C709.191,-217.494 713.63,-191.41 727,-174 786.865,-96.046 895.529,-47.2707 955.122,-25.0824"/>
<polygon fill="midnightblue" stroke="midnightblue" points="956.407,-28.3393 964.601,-21.6235 954.008,-21.7633 956.407,-28.3393"/>
</g>
<!-- Node32&#45;&gt;Node4 -->
<g id="edge120" class="edge"><title>Node32&#45;&gt;Node4</title>
<path fill="none" stroke="midnightblue" d="M700.171,-232.295C687.671,-212.7 660.954,-170.82 645.243,-146.191"/>
<polygon fill="midnightblue" stroke="midnightblue" points="648.142,-144.227 639.813,-137.679 642.24,-147.992 648.142,-144.227"/>
</g>
<!-- Node32&#45;&gt;Node22 -->
<g id="edge118" class="edge"><title>Node32&#45;&gt;Node22</title>
<path fill="none" stroke="midnightblue" d="M719.289,-232.362C729.017,-223.941 742.798,-212.011 754.095,-202.231"/>
<polygon fill="midnightblue" stroke="midnightblue" points="756.519,-204.762 761.789,-195.571 751.938,-199.469 756.519,-204.762"/>
</g>
</g>
</svg>
