<?xml version="1.0" encoding="UTF-8" standalone="no"?>
<!DOCTYPE svg PUBLIC "-//W3C//DTD SVG 1.1//EN"
 "http://www.w3.org/Graphics/SVG/1.1/DTD/svg11.dtd">
<!-- Generated by graphviz version 2.26.3 (20100126.1600)
 -->
<!-- Title: HostBase.h Pages: 1 -->
<svg width="1366pt" height="262pt"
 viewBox="0.00 0.00 1366.00 262.00" xmlns="http://www.w3.org/2000/svg" xmlns:xlink="http://www.w3.org/1999/xlink">
<g id="graph1" class="graph" transform="scale(1 1) rotate(0) translate(4 258)">
<title>HostBase.h</title>
<polygon fill="white" stroke="white" points="-4,5 -4,-258 1363,-258 1363,5 -4,5"/>
<!-- Node1 -->
<g id="node1" class="node"><title>Node1</title>
<polygon fill="#bfbfbf" stroke="black" points="1034.5,-232.5 1034.5,-253.5 1105.5,-253.5 1105.5,-232.5 1034.5,-232.5"/>
<text text-anchor="middle" x="1070" y="-240.5" font-family="Helvetica,sans-Serif" font-size="10.00">HostBase.h</text>
</g>
<!-- Node2 -->
<g id="node3" class="node"><title>Node2</title>
<a xlink:href="Common_8h.htm" target="_top" xlink:title="Common.h">
<polygon fill="white" stroke="black" points="774.5,-0.5 774.5,-21.5 841.5,-21.5 841.5,-0.5 774.5,-0.5"/>
<text text-anchor="middle" x="808" y="-8.5" font-family="Helvetica,sans-Serif" font-size="10.00">Common.h</text>
</a>
</g>
<!-- Node1&#45;&gt;Node2 -->
<g id="edge2" class="edge"><title>Node1&#45;&gt;Node2</title>
<path fill="none" stroke="midnightblue" d="M1066.41,-232.114C1057.29,-204.89 1032.81,-134.701 1017,-116 973.557,-64.6128 898.782,-35.7563 851.442,-21.7936"/>
<polygon fill="midnightblue" stroke="midnightblue" points="852.354,-18.4142 841.777,-19.0374 850.434,-25.1458 852.354,-18.4142"/>
</g>
<!-- Node3 -->
<g id="node5" class="node"><title>Node3</title>
<a xlink:href="TaskBase_8h.htm" target="_top" xlink:title="TaskBase.h">
<polygon fill="white" stroke="black" points="492,-174.5 492,-195.5 564,-195.5 564,-174.5 492,-174.5"/>
<text text-anchor="middle" x="528" y="-182.5" font-family="Helvetica,sans-Serif" font-size="10.00">TaskBase.h</text>
</a>
</g>
<!-- Node1&#45;&gt;Node3 -->
<g id="edge4" class="edge"><title>Node1&#45;&gt;Node3</title>
<path fill="none" stroke="midnightblue" d="M1034.44,-239.194C939.51,-229.036 680.168,-201.284 574.12,-189.935"/>
<polygon fill="midnightblue" stroke="midnightblue" points="574.363,-186.441 564.048,-188.857 573.618,-193.402 574.363,-186.441"/>
</g>
<!-- Node14 -->
<g id="node35" class="node"><title>Node14</title>
<a xlink:href="Mutex_8h.htm" target="_top" xlink:title="Mutex.h">
<polygon fill="white" stroke="black" points="787.5,-116.5 787.5,-137.5 840.5,-137.5 840.5,-116.5 787.5,-116.5"/>
<text text-anchor="middle" x="814" y="-124.5" font-family="Helvetica,sans-Serif" font-size="10.00">Mutex.h</text>
</a>
</g>
<!-- Node1&#45;&gt;Node14 -->
<g id="edge58" class="edge"><title>Node1&#45;&gt;Node14</title>
<path fill="none" stroke="midnightblue" d="M1034.32,-236.551C1000.36,-229.539 948.442,-216.508 907,-196 879.282,-182.284 851.295,-160.137 833.371,-144.645"/>
<polygon fill="midnightblue" stroke="midnightblue" points="835.241,-141.628 825.426,-137.64 830.612,-146.879 835.241,-141.628"/>
</g>
<!-- Node16 -->
<g id="node46" class="node"><title>Node16</title>
<a xlink:href="CustomEvents_8h.htm" target="_top" xlink:title="CustomEvents.h">
<polygon fill="white" stroke="black" points="916,-174.5 916,-195.5 1008,-195.5 1008,-174.5 916,-174.5"/>
<text text-anchor="middle" x="962" y="-182.5" font-family="Helvetica,sans-Serif" font-size="10.00">CustomEvents.h</text>
</a>
</g>
<!-- Node1&#45;&gt;Node16 -->
<g id="edge60" class="edge"><title>Node1&#45;&gt;Node16</title>
<path fill="none" stroke="midnightblue" d="M1050.44,-232.497C1033.8,-223.56 1009.67,-210.602 990.82,-200.477"/>
<polygon fill="midnightblue" stroke="midnightblue" points="992.243,-197.269 981.777,-195.621 988.931,-203.436 992.243,-197.269"/>
</g>
<!-- Node18 -->
<g id="node51" class="node"><title>Node18</title>
<a xlink:href="InputControl_8h.htm" target="_top" xlink:title="InputControl.h">
<polygon fill="white" stroke="black" points="1063.5,-174.5 1063.5,-195.5 1146.5,-195.5 1146.5,-174.5 1063.5,-174.5"/>
<text text-anchor="middle" x="1105" y="-182.5" font-family="Helvetica,sans-Serif" font-size="10.00">InputControl.h</text>
</a>
</g>
<!-- Node1&#45;&gt;Node18 -->
<g id="edge66" class="edge"><title>Node1&#45;&gt;Node18</title>
<path fill="none" stroke="midnightblue" d="M1076.42,-232.362C1081.16,-224.513 1087.73,-213.616 1093.38,-204.253"/>
<polygon fill="midnightblue" stroke="midnightblue" points="1096.45,-205.941 1098.62,-195.571 1090.46,-202.324 1096.45,-205.941"/>
</g>
<!-- Node20 -->
<g id="node55" class="node"><title>Node20</title>
<a xlink:href="LedControl_8h.htm" target="_top" xlink:title="LedControl.h">
<polygon fill="white" stroke="black" points="1163.5,-174.5 1163.5,-195.5 1240.5,-195.5 1240.5,-174.5 1163.5,-174.5"/>
<text text-anchor="middle" x="1202" y="-182.5" font-family="Helvetica,sans-Serif" font-size="10.00">LedControl.h</text>
</a>
</g>
<!-- Node1&#45;&gt;Node20 -->
<g id="edge70" class="edge"><title>Node1&#45;&gt;Node20</title>
<path fill="none" stroke="midnightblue" d="M1093.9,-232.497C1114.8,-223.315 1145.36,-209.889 1168.66,-199.652"/>
<polygon fill="midnightblue" stroke="midnightblue" points="1170.08,-202.848 1177.83,-195.621 1167.26,-196.44 1170.08,-202.848"/>
</g>
<!-- Node21 -->
<g id="node57" class="node"><title>Node21</title>
<polygon fill="white" stroke="#bfbfbf" points="1257.5,-174.5 1257.5,-195.5 1286.5,-195.5 1286.5,-174.5 1257.5,-174.5"/>
<text text-anchor="middle" x="1272" y="-182.5" font-family="Helvetica,sans-Serif" font-size="10.00">Qt</text>
</g>
<!-- Node1&#45;&gt;Node21 -->
<g id="edge72" class="edge"><title>Node1&#45;&gt;Node21</title>
<path fill="none" stroke="midnightblue" d="M1105.59,-235.743C1140.08,-228.256 1193.9,-215.374 1247.44,-196.164"/>
<polygon fill="midnightblue" stroke="midnightblue" points="1248.9,-199.361 1257.08,-192.636 1246.49,-192.787 1248.9,-199.361"/>
</g>
<!-- Node22 -->
<g id="node59" class="node"><title>Node22</title>
<polygon fill="white" stroke="#bfbfbf" points="1304,-174.5 1304,-195.5 1358,-195.5 1358,-174.5 1304,-174.5"/>
<text text-anchor="middle" x="1331" y="-182.5" font-family="Helvetica,sans-Serif" font-size="10.00">QImage</text>
</g>
<!-- Node1&#45;&gt;Node22 -->
<g id="edge74" class="edge"><title>Node1&#45;&gt;Node22</title>
<path fill="none" stroke="midnightblue" d="M1105.69,-236.579C1148.34,-228.68 1222.03,-214.317 1294.23,-196.039"/>
<polygon fill="midnightblue" stroke="midnightblue" points="1295.13,-199.423 1303.95,-193.553 1293.39,-192.642 1295.13,-199.423"/>
</g>
<!-- Node3&#45;&gt;Node2 -->
<g id="edge6" class="edge"><title>Node3&#45;&gt;Node2</title>
<path fill="none" stroke="midnightblue" d="M564.117,-182.343C644.092,-176.092 830.54,-159.36 849,-138 876.341,-106.364 844.758,-56.218 823.741,-29.381"/>
<polygon fill="midnightblue" stroke="midnightblue" points="826.397,-27.0985 817.377,-21.5398 820.961,-31.5099 826.397,-27.0985"/>
</g>
<!-- Node4 -->
<g id="node8" class="node"><title>Node4</title>
<polygon fill="white" stroke="#bfbfbf" points="228.5,-0.5 228.5,-21.5 269.5,-21.5 269.5,-0.5 228.5,-0.5"/>
<text text-anchor="middle" x="249" y="-8.5" font-family="Helvetica,sans-Serif" font-size="10.00">glib.h</text>
</g>
<!-- Node3&#45;&gt;Node4 -->
<g id="edge8" class="edge"><title>Node3&#45;&gt;Node4</title>
<path fill="none" stroke="midnightblue" d="M491.912,-182.156C415.976,-175.826 242.146,-159.43 187,-138 144.712,-121.567 124.081,-120.173 103,-80 78.5454,-33.397 168.465,-18.0386 218.167,-13.1613"/>
<polygon fill="midnightblue" stroke="midnightblue" points="218.748,-16.6235 228.397,-12.2488 218.126,-9.65121 218.748,-16.6235"/>
</g>
<!-- Node5 -->
<g id="node10" class="node"><title>Node5</title>
<polygon fill="white" stroke="#bfbfbf" points="-0.5,-116.5 -0.5,-137.5 28.5,-137.5 28.5,-116.5 -0.5,-116.5"/>
<text text-anchor="middle" x="14" y="-124.5" font-family="Helvetica,sans-Serif" font-size="10.00">list</text>
</g>
<!-- Node3&#45;&gt;Node5 -->
<g id="edge10" class="edge"><title>Node3&#45;&gt;Node5</title>
<path fill="none" stroke="midnightblue" d="M491.84,-182.809C394.342,-176.693 127.626,-158.534 42,-138 40.743,-137.699 39.4673,-137.353 38.1884,-136.973"/>
<polygon fill="midnightblue" stroke="midnightblue" points="39.1694,-133.609 28.5745,-133.609 36.8574,-140.216 39.1694,-133.609"/>
</g>
<!-- Node6 -->
<g id="node12" class="node"><title>Node6</title>
<a xlink:href="sptr_8h.htm" target="_top" xlink:title="sptr.h">
<polygon fill="white" stroke="black" points="743.5,-58.5 743.5,-79.5 786.5,-79.5 786.5,-58.5 743.5,-58.5"/>
<text text-anchor="middle" x="765" y="-66.5" font-family="Helvetica,sans-Serif" font-size="10.00">sptr.h</text>
</a>
</g>
<!-- Node3&#45;&gt;Node6 -->
<g id="edge12" class="edge"><title>Node3&#45;&gt;Node6</title>
<path fill="none" stroke="midnightblue" d="M549.872,-174.295C592.307,-153.525 685.895,-107.718 734.443,-83.9562"/>
<polygon fill="midnightblue" stroke="midnightblue" points="736.08,-87.0515 743.524,-79.5117 733.003,-80.7642 736.08,-87.0515"/>
</g>
<!-- Node7 -->
<g id="node16" class="node"><title>Node7</title>
<a xlink:href="AsyncCaller_8h.htm" target="_top" xlink:title="AsyncCaller.h">
<polygon fill="white" stroke="black" points="121.5,-58.5 121.5,-79.5 202.5,-79.5 202.5,-58.5 121.5,-58.5"/>
<text text-anchor="middle" x="162" y="-66.5" font-family="Helvetica,sans-Serif" font-size="10.00">AsyncCaller.h</text>
</a>
</g>
<!-- Node3&#45;&gt;Node7 -->
<g id="edge18" class="edge"><title>Node3&#45;&gt;Node7</title>
<path fill="none" stroke="midnightblue" d="M491.849,-182.952C419.818,-178.331 261.337,-165.301 215,-138 195.493,-126.507 180.659,-104.818 171.714,-88.8123"/>
<polygon fill="midnightblue" stroke="midnightblue" points="174.68,-86.9328 166.916,-79.7232 168.489,-90.2006 174.68,-86.9328"/>
</g>
<!-- Node8 -->
<g id="node20" class="node"><title>Node8</title>
<a xlink:href="Event_8h.htm" target="_top" xlink:title="Event.h">
<polygon fill="white" stroke="black" points="502,-116.5 502,-137.5 554,-137.5 554,-116.5 502,-116.5"/>
<text text-anchor="middle" x="528" y="-124.5" font-family="Helvetica,sans-Serif" font-size="10.00">Event.h</text>
</a>
</g>
<!-- Node3&#45;&gt;Node8 -->
<g id="edge24" class="edge"><title>Node3&#45;&gt;Node8</title>
<path fill="none" stroke="midnightblue" d="M528,-174.362C528,-166.922 528,-156.743 528,-147.728"/>
<polygon fill="midnightblue" stroke="midnightblue" points="531.5,-147.571 528,-137.571 524.5,-147.571 531.5,-147.571"/>
</g>
<!-- Node3&#45;&gt;Node14 -->
<g id="edge42" class="edge"><title>Node3&#45;&gt;Node14</title>
<path fill="none" stroke="midnightblue" d="M564.222,-177.654C619.011,-166.543 722.387,-145.579 777.399,-134.423"/>
<polygon fill="midnightblue" stroke="midnightblue" points="778.302,-137.811 787.407,-132.393 776.911,-130.95 778.302,-137.811"/>
</g>
<!-- Node15 -->
<g id="node40" class="node"><title>Node15</title>
<a xlink:href="SingletonTimer_8h.htm" target="_top" xlink:title="SingletonTimer.h">
<polygon fill="white" stroke="black" points="224,-116.5 224,-137.5 320,-137.5 320,-116.5 224,-116.5"/>
<text text-anchor="middle" x="272" y="-124.5" font-family="Helvetica,sans-Serif" font-size="10.00">SingletonTimer.h</text>
</a>
</g>
<!-- Node3&#45;&gt;Node15 -->
<g id="edge50" class="edge"><title>Node3&#45;&gt;Node15</title>
<path fill="none" stroke="midnightblue" d="M491.864,-176.813C449.314,-167.173 378.136,-151.047 328.327,-139.762"/>
<polygon fill="midnightblue" stroke="midnightblue" points="328.879,-136.298 318.353,-137.502 327.332,-143.125 328.879,-136.298"/>
</g>
<!-- Node6&#45;&gt;Node2 -->
<g id="edge14" class="edge"><title>Node6&#45;&gt;Node2</title>
<path fill="none" stroke="midnightblue" d="M772.887,-58.3619C778.827,-50.3496 787.122,-39.1605 794.159,-29.6696"/>
<polygon fill="midnightblue" stroke="midnightblue" points="797.019,-31.6883 800.163,-21.5707 791.396,-27.5193 797.019,-31.6883"/>
</g>
<!-- Node6&#45;&gt;Node4 -->
<g id="edge16" class="edge"><title>Node6&#45;&gt;Node4</title>
<path fill="none" stroke="midnightblue" d="M743.302,-65.1732C729.971,-62.9009 712.529,-60.069 697,-58 540.683,-37.1736 352.661,-19.9953 279.869,-13.6398"/>
<polygon fill="midnightblue" stroke="midnightblue" points="279.855,-10.1255 269.589,-12.7476 279.249,-17.0993 279.855,-10.1255"/>
</g>
<!-- Node7&#45;&gt;Node2 -->
<g id="edge20" class="edge"><title>Node7&#45;&gt;Node2</title>
<path fill="none" stroke="midnightblue" d="M202.598,-60.1784C207.107,-59.3634 211.642,-58.6145 216,-58 419.899,-29.2474 665.974,-16.7514 764.312,-12.6469"/>
<polygon fill="midnightblue" stroke="midnightblue" points="764.615,-16.1375 774.463,-12.2312 764.329,-9.14334 764.615,-16.1375"/>
</g>
<!-- Node7&#45;&gt;Node4 -->
<g id="edge22" class="edge"><title>Node7&#45;&gt;Node4</title>
<path fill="none" stroke="midnightblue" d="M177.957,-58.3619C190.957,-49.6955 209.531,-37.3126 224.427,-27.3819"/>
<polygon fill="midnightblue" stroke="midnightblue" points="226.765,-30.0299 233.144,-21.5707 222.882,-24.2055 226.765,-30.0299"/>
</g>
<!-- Node8&#45;&gt;Node2 -->
<g id="edge26" class="edge"><title>Node8&#45;&gt;Node2</title>
<path fill="none" stroke="midnightblue" d="M554.269,-122.12C588.192,-115.279 648.62,-101.241 697,-80 705.944,-76.0733 753.073,-46.2132 782.973,-27.0822"/>
<polygon fill="midnightblue" stroke="midnightblue" points="785.107,-29.872 791.638,-21.53 781.33,-23.9781 785.107,-29.872"/>
</g>
<!-- Node8&#45;&gt;Node4 -->
<g id="edge30" class="edge"><title>Node8&#45;&gt;Node4</title>
<path fill="none" stroke="midnightblue" d="M501.93,-122.549C467.298,-116.054 404.707,-102.267 355,-80 338.239,-72.4919 298.124,-45.3351 272.331,-27.4132"/>
<polygon fill="midnightblue" stroke="midnightblue" points="274.071,-24.3592 263.867,-21.5066 270.065,-30.0996 274.071,-24.3592"/>
</g>
<!-- Node8&#45;&gt;Node6 -->
<g id="edge40" class="edge"><title>Node8&#45;&gt;Node6</title>
<path fill="none" stroke="midnightblue" d="M554.308,-121.546C593.012,-113.373 667.478,-97.0721 730,-80 731.075,-79.7064 732.167,-79.4015 733.268,-79.0883"/>
<polygon fill="midnightblue" stroke="midnightblue" points="734.645,-82.3302 743.231,-76.1225 732.648,-75.6211 734.645,-82.3302"/>
</g>
<!-- Node9 -->
<g id="node23" class="node"><title>Node9</title>
<polygon fill="white" stroke="#bfbfbf" points="258,-58.5 258,-79.5 308,-79.5 308,-58.5 258,-58.5"/>
<text text-anchor="middle" x="283" y="-66.5" font-family="Helvetica,sans-Serif" font-size="10.00">stdint.h</text>
</g>
<!-- Node8&#45;&gt;Node9 -->
<g id="edge28" class="edge"><title>Node8&#45;&gt;Node9</title>
<path fill="none" stroke="midnightblue" d="M501.883,-121.485C462.676,-113.105 386.338,-96.4017 322,-80 320.735,-79.6774 319.448,-79.3438 318.149,-79.0024"/>
<polygon fill="midnightblue" stroke="midnightblue" points="318.692,-75.5235 308.125,-76.2882 316.863,-82.2802 318.692,-75.5235"/>
</g>
<!-- Node10 -->
<g id="node26" class="node"><title>Node10</title>
<polygon fill="white" stroke="#bfbfbf" points="641.5,-58.5 641.5,-79.5 688.5,-79.5 688.5,-58.5 641.5,-58.5"/>
<text text-anchor="middle" x="665" y="-66.5" font-family="Helvetica,sans-Serif" font-size="10.00">stdio.h</text>
</g>
<!-- Node8&#45;&gt;Node10 -->
<g id="edge32" class="edge"><title>Node8&#45;&gt;Node10</title>
<path fill="none" stroke="midnightblue" d="M552.81,-116.497C575.001,-107.102 607.693,-93.2615 632.068,-82.942"/>
<polygon fill="midnightblue" stroke="midnightblue" points="633.447,-86.1588 641.292,-79.0371 630.718,-79.7127 633.447,-86.1588"/>
</g>
<!-- Node11 -->
<g id="node28" class="node"><title>Node11</title>
<polygon fill="white" stroke="#bfbfbf" points="363.5,-58.5 363.5,-79.5 414.5,-79.5 414.5,-58.5 363.5,-58.5"/>
<text text-anchor="middle" x="389" y="-66.5" font-family="Helvetica,sans-Serif" font-size="10.00">string.h</text>
</g>
<!-- Node8&#45;&gt;Node11 -->
<g id="edge34" class="edge"><title>Node8&#45;&gt;Node11</title>
<path fill="none" stroke="midnightblue" d="M502.828,-116.497C480.727,-107.275 448.361,-93.7695 423.787,-83.5153"/>
<polygon fill="midnightblue" stroke="midnightblue" points="425.031,-80.2421 414.454,-79.6212 422.335,-86.7022 425.031,-80.2421"/>
</g>
<!-- Node12 -->
<g id="node30" class="node"><title>Node12</title>
<polygon fill="white" stroke="#bfbfbf" points="432,-58.5 432,-79.5 518,-79.5 518,-58.5 432,-58.5"/>
<text text-anchor="middle" x="475" y="-66.5" font-family="Helvetica,sans-Serif" font-size="10.00">qnamespace.h</text>
</g>
<!-- Node8&#45;&gt;Node12 -->
<g id="edge36" class="edge"><title>Node8&#45;&gt;Node12</title>
<path fill="none" stroke="midnightblue" d="M518.279,-116.362C510.808,-108.186 500.314,-96.7025 491.531,-87.0907"/>
<polygon fill="midnightblue" stroke="midnightblue" points="493.989,-84.5918 484.659,-79.5707 488.821,-89.3138 493.989,-84.5918"/>
</g>
<!-- Node13 -->
<g id="node32" class="node"><title>Node13</title>
<polygon fill="white" stroke="#bfbfbf" points="536,-58.5 536,-79.5 624,-79.5 624,-58.5 536,-58.5"/>
<text text-anchor="middle" x="580" y="-66.5" font-family="Helvetica,sans-Serif" font-size="10.00">SysMgrEvent.h</text>
</g>
<!-- Node8&#45;&gt;Node13 -->
<g id="edge38" class="edge"><title>Node8&#45;&gt;Node13</title>
<path fill="none" stroke="midnightblue" d="M537.538,-116.362C544.868,-108.186 555.163,-96.7025 563.781,-87.0907"/>
<polygon fill="midnightblue" stroke="midnightblue" points="566.453,-89.3528 570.523,-79.5707 561.241,-84.68 566.453,-89.3528"/>
</g>
<!-- Node14&#45;&gt;Node2 -->
<g id="edge44" class="edge"><title>Node14&#45;&gt;Node2</title>
<path fill="none" stroke="midnightblue" d="M818.89,-116.242C824.437,-102.666 832.201,-78.6001 828,-58 826.11,-48.734 822.325,-39.0321 818.55,-30.8653"/>
<polygon fill="midnightblue" stroke="midnightblue" points="821.641,-29.2193 814.08,-21.7974 815.363,-32.3144 821.641,-29.2193"/>
</g>
<!-- Node14&#45;&gt;Node4 -->
<g id="edge48" class="edge"><title>Node14&#45;&gt;Node4</title>
<path fill="none" stroke="midnightblue" d="M814.515,-116.407C814.627,-100.921 812.288,-72.3842 795,-58 755.231,-24.91 388.892,-14.1205 279.624,-11.6239"/>
<polygon fill="midnightblue" stroke="midnightblue" points="279.66,-8.12395 269.585,-11.4016 279.505,-15.1222 279.66,-8.12395"/>
</g>
<!-- Node14&#45;&gt;Node6 -->
<g id="edge46" class="edge"><title>Node14&#45;&gt;Node6</title>
<path fill="none" stroke="midnightblue" d="M805.013,-116.362C798.175,-108.268 788.598,-96.9318 780.528,-87.3796"/>
<polygon fill="midnightblue" stroke="midnightblue" points="783.058,-84.9508 773.93,-79.5707 777.71,-89.4683 783.058,-84.9508"/>
</g>
<!-- Node15&#45;&gt;Node2 -->
<g id="edge52" class="edge"><title>Node15&#45;&gt;Node2</title>
<path fill="none" stroke="midnightblue" d="M262.659,-116.295C250.849,-101.441 233.787,-74.5456 249,-58 283.662,-20.3009 638.732,-12.8227 764.297,-11.3543"/>
<polygon fill="midnightblue" stroke="midnightblue" points="764.37,-14.8538 774.331,-11.2442 764.293,-7.85424 764.37,-14.8538"/>
</g>
<!-- Node15&#45;&gt;Node4 -->
<g id="edge54" class="edge"><title>Node15&#45;&gt;Node4</title>
<path fill="none" stroke="midnightblue" d="M223.919,-119.246C182.183,-111.418 126.396,-97.9285 113,-80 83.3243,-40.2829 169.832,-21.7509 218.43,-14.6623"/>
<polygon fill="midnightblue" stroke="midnightblue" points="219.025,-18.1135 228.454,-13.2829 218.07,-11.1788 219.025,-18.1135"/>
</g>
<!-- Node15&#45;&gt;Node9 -->
<g id="edge56" class="edge"><title>Node15&#45;&gt;Node9</title>
<path fill="none" stroke="midnightblue" d="M274.018,-116.362C275.444,-108.84 277.402,-98.5187 279.125,-89.4308"/>
<polygon fill="midnightblue" stroke="midnightblue" points="282.571,-90.0477 280.995,-79.5707 275.693,-88.7433 282.571,-90.0477"/>
</g>
<!-- Node16&#45;&gt;Node2 -->
<g id="edge62" class="edge"><title>Node16&#45;&gt;Node2</title>
<path fill="none" stroke="midnightblue" d="M958.22,-174.406C948.359,-147.223 921.415,-75.8894 904,-58 889.583,-43.1906 869.54,-32.3712 851.495,-24.873"/>
<polygon fill="midnightblue" stroke="midnightblue" points="852.312,-21.434 841.724,-21.0448 849.758,-27.9516 852.312,-21.434"/>
</g>
<!-- Node17 -->
<g id="node49" class="node"><title>Node17</title>
<polygon fill="white" stroke="#bfbfbf" points="956,-116.5 956,-137.5 1008,-137.5 1008,-116.5 956,-116.5"/>
<text text-anchor="middle" x="982" y="-124.5" font-family="Helvetica,sans-Serif" font-size="10.00">QEvent</text>
</g>
<!-- Node16&#45;&gt;Node17 -->
<g id="edge64" class="edge"><title>Node16&#45;&gt;Node17</title>
<path fill="none" stroke="midnightblue" d="M965.668,-174.362C968.29,-166.758 971.899,-156.294 975.057,-147.135"/>
<polygon fill="midnightblue" stroke="midnightblue" points="978.404,-148.165 978.355,-137.571 971.786,-145.883 978.404,-148.165"/>
</g>
<!-- Node19 -->
<g id="node53" class="node"><title>Node19</title>
<polygon fill="white" stroke="#bfbfbf" points="1064,-116.5 1064,-137.5 1156,-137.5 1156,-116.5 1064,-116.5"/>
<text text-anchor="middle" x="1110" y="-124.5" font-family="Helvetica,sans-Serif" font-size="10.00">nyx/nyx_client.h</text>
</g>
<!-- Node18&#45;&gt;Node19 -->
<g id="edge68" class="edge"><title>Node18&#45;&gt;Node19</title>
<path fill="none" stroke="midnightblue" d="M1105.92,-174.362C1106.56,-166.922 1107.44,-156.743 1108.21,-147.728"/>
<polygon fill="midnightblue" stroke="midnightblue" points="1111.72,-147.834 1109.09,-137.571 1104.74,-147.233 1111.72,-147.834"/>
</g>
</g>
</svg>
