<?xml version="1.0" encoding="UTF-8" standalone="no"?>
<!DOCTYPE svg PUBLIC "-//W3C//DTD SVG 1.1//EN"
 "http://www.w3.org/Graphics/SVG/1.1/DTD/svg11.dtd">
<!-- Generated by graphviz version 2.26.3 (20100126.1600)
 -->
<!-- Title: HostArmUnknown.cpp Pages: 1 -->
<svg width="1980pt" height="378pt"
 viewBox="0.00 0.00 1979.87 378.00" xmlns="http://www.w3.org/2000/svg" xmlns:xlink="http://www.w3.org/1999/xlink">
<g id="graph1" class="graph" transform="scale(1 1) rotate(0) translate(4 374)">
<title>HostArmUnknown.cpp</title>
<polygon fill="white" stroke="white" points="-4,5 -4,-374 1976.87,-374 1976.87,5 -4,5"/>
<!-- Node1 -->
<g id="node1" class="node"><title>Node1</title>
<polygon fill="#bfbfbf" stroke="black" points="1730.37,-348.5 1730.37,-369.5 1851.37,-369.5 1851.37,-348.5 1730.37,-348.5"/>
<text text-anchor="middle" x="1790.87" y="-356.5" font-family="Helvetica,sans-Serif" font-size="10.00">HostArmUnknown.cpp</text>
</g>
<!-- Node2 -->
<g id="node3" class="node"><title>Node2</title>
<a xlink:href="Common_8h.htm" target="_top" xlink:title="Common.h">
<polygon fill="white" stroke="black" points="805.365,-0.5 805.365,-21.5 872.365,-21.5 872.365,-0.5 805.365,-0.5"/>
<text text-anchor="middle" x="838.865" y="-8.5" font-family="Helvetica,sans-Serif" font-size="10.00">Common.h</text>
</a>
</g>
<!-- Node1&#45;&gt;Node2 -->
<g id="edge2" class="edge"><title>Node1&#45;&gt;Node2</title>
<path fill="none" stroke="midnightblue" d="M1844.68,-348.412C1898.03,-334.416 1971.87,-304.023 1971.87,-243 1971.87,-243 1971.87,-243 1971.87,-127 1971.87,42.0274 1765.63,-78.5941 1597.87,-58 1327.52,-24.8139 999.968,-14.5919 882.996,-11.8739"/>
<polygon fill="midnightblue" stroke="midnightblue" points="882.741,-8.3674 872.665,-11.6409 882.583,-15.3656 882.741,-8.3674"/>
</g>
<!-- Node3 -->
<g id="node5" class="node"><title>Node3</title>
<a xlink:href="HostArm_8h.htm" target="_top" xlink:title="HostArm.h">
<polygon fill="white" stroke="black" points="1541.37,-290.5 1541.37,-311.5 1606.37,-311.5 1606.37,-290.5 1541.37,-290.5"/>
<text text-anchor="middle" x="1573.87" y="-298.5" font-family="Helvetica,sans-Serif" font-size="10.00">HostArm.h</text>
</a>
</g>
<!-- Node1&#45;&gt;Node3 -->
<g id="edge4" class="edge"><title>Node1&#45;&gt;Node3</title>
<path fill="none" stroke="midnightblue" d="M1751.57,-348.497C1713.37,-338.286 1655.52,-322.826 1616.29,-312.34"/>
<polygon fill="midnightblue" stroke="midnightblue" points="1617.06,-308.922 1606.5,-309.721 1615.25,-315.685 1617.06,-308.922"/>
</g>
<!-- Node3&#45;&gt;Node2 -->
<g id="edge8" class="edge"><title>Node3&#45;&gt;Node2</title>
<path fill="none" stroke="midnightblue" d="M1606.47,-292.078C1651.14,-277.642 1725.87,-244.586 1725.87,-185 1725.87,-185 1725.87,-185 1725.87,-127 1725.87,-40.9669 1061.31,-16.9606 882.643,-12.061"/>
<polygon fill="midnightblue" stroke="midnightblue" points="882.644,-8.55987 872.553,-11.7906 882.456,-15.5574 882.644,-8.55987"/>
</g>
<!-- Node4 -->
<g id="node7" class="node"><title>Node4</title>
<polygon fill="white" stroke="#bfbfbf" points="1343.87,-116.5 1343.87,-137.5 1435.87,-137.5 1435.87,-116.5 1343.87,-116.5"/>
<text text-anchor="middle" x="1389.87" y="-124.5" font-family="Helvetica,sans-Serif" font-size="10.00">nyx/nyx_client.h</text>
</g>
<!-- Node3&#45;&gt;Node4 -->
<g id="edge6" class="edge"><title>Node3&#45;&gt;Node4</title>
<path fill="none" stroke="midnightblue" d="M1606.47,-294.041C1627.96,-287.576 1654.53,-275.574 1667.87,-254 1673.01,-245.683 1671.49,-241.082 1667.87,-232 1654.71,-199.002 1643.87,-191.337 1612.87,-174 1584.82,-158.322 1502.62,-143.622 1446.26,-134.968"/>
<polygon fill="midnightblue" stroke="midnightblue" points="1446.47,-131.459 1436.06,-133.423 1445.42,-138.38 1446.47,-131.459"/>
</g>
<!-- Node5 -->
<g id="node10" class="node"><title>Node5</title>
<a xlink:href="HostBase_8h.htm" target="_top" xlink:title="HostBase.h">
<polygon fill="white" stroke="black" points="733.365,-232.5 733.365,-253.5 804.365,-253.5 804.365,-232.5 733.365,-232.5"/>
<text text-anchor="middle" x="768.865" y="-240.5" font-family="Helvetica,sans-Serif" font-size="10.00">HostBase.h</text>
</a>
</g>
<!-- Node3&#45;&gt;Node5 -->
<g id="edge10" class="edge"><title>Node3&#45;&gt;Node5</title>
<path fill="none" stroke="midnightblue" d="M1541.27,-299.169C1441.86,-293.505 1133.75,-275.357 878.865,-254 857.693,-252.226 834.262,-249.929 814.485,-247.894"/>
<polygon fill="midnightblue" stroke="midnightblue" points="814.815,-244.409 804.507,-246.857 814.092,-251.372 814.815,-244.409"/>
</g>
<!-- Node11 -->
<g id="node28" class="node"><title>Node11</title>
<a xlink:href="Event_8h.htm" target="_top" xlink:title="Event.h">
<polygon fill="white" stroke="black" points="276.865,-116.5 276.865,-137.5 328.865,-137.5 328.865,-116.5 276.865,-116.5"/>
<text text-anchor="middle" x="302.865" y="-124.5" font-family="Helvetica,sans-Serif" font-size="10.00">Event.h</text>
</a>
</g>
<!-- Node3&#45;&gt;Node11 -->
<g id="edge86" class="edge"><title>Node3&#45;&gt;Node11</title>
<path fill="none" stroke="midnightblue" d="M1541.01,-300.144C1405.09,-296.453 886.321,-280.864 724.865,-254 631.04,-238.389 609.959,-223.365 518.865,-196 455.165,-176.864 381.462,-152.932 338.706,-138.87"/>
<polygon fill="midnightblue" stroke="midnightblue" points="339.634,-135.491 329.041,-135.686 337.444,-142.139 339.634,-135.491"/>
</g>
<!-- Node19 -->
<g id="node54" class="node"><title>Node19</title>
<a xlink:href="CustomEvents_8h.htm" target="_top" xlink:title="CustomEvents.h">
<polygon fill="white" stroke="black" points="813.865,-174.5 813.865,-195.5 905.865,-195.5 905.865,-174.5 813.865,-174.5"/>
<text text-anchor="middle" x="859.865" y="-182.5" font-family="Helvetica,sans-Serif" font-size="10.00">CustomEvents.h</text>
</a>
</g>
<!-- Node3&#45;&gt;Node19 -->
<g id="edge88" class="edge"><title>Node3&#45;&gt;Node19</title>
<path fill="none" stroke="midnightblue" d="M1541.27,-299.721C1420.07,-294.809 999.543,-276.308 943.865,-254 916.465,-243.022 891.19,-219.702 875.672,-203.219"/>
<polygon fill="midnightblue" stroke="midnightblue" points="878.195,-200.792 868.871,-195.761 873.023,-205.509 878.195,-200.792"/>
</g>
<!-- Node25 -->
<g id="node70" class="node"><title>Node25</title>
<a xlink:href="NyxSensorConnector_8h.htm" target="_top" xlink:title="NyxSensorConnector.h">
<polygon fill="white" stroke="black" points="1279.87,-232.5 1279.87,-253.5 1405.87,-253.5 1405.87,-232.5 1279.87,-232.5"/>
<text text-anchor="middle" x="1342.87" y="-240.5" font-family="Helvetica,sans-Serif" font-size="10.00">NyxSensorConnector.h</text>
</a>
</g>
<!-- Node3&#45;&gt;Node25 -->
<g id="edge90" class="edge"><title>Node3&#45;&gt;Node25</title>
<path fill="none" stroke="midnightblue" d="M1541.26,-292.813C1503.1,-283.233 1439.44,-267.248 1394.54,-255.974"/>
<polygon fill="midnightblue" stroke="midnightblue" points="1395.24,-252.542 1384.69,-253.502 1393.54,-259.332 1395.24,-252.542"/>
</g>
<!-- Node27 -->
<g id="node74" class="node"><title>Node27</title>
<polygon fill="white" stroke="#bfbfbf" points="1529.37,-174.5 1529.37,-195.5 1584.37,-195.5 1584.37,-174.5 1529.37,-174.5"/>
<text text-anchor="middle" x="1556.87" y="-182.5" font-family="Helvetica,sans-Serif" font-size="10.00">QObject</text>
</g>
<!-- Node3&#45;&gt;Node27 -->
<g id="edge126" class="edge"><title>Node3&#45;&gt;Node27</title>
<path fill="none" stroke="midnightblue" d="M1568.56,-290.498C1564.17,-281.18 1558.28,-267.06 1555.87,-254 1552.94,-238.17 1553.36,-219.947 1554.42,-206.205"/>
<polygon fill="midnightblue" stroke="midnightblue" points="1557.94,-206.153 1555.4,-195.867 1550.97,-205.491 1557.94,-206.153"/>
</g>
<!-- Node31 -->
<g id="node85" class="node"><title>Node31</title>
<a xlink:href="NyxInputControl_8h.htm" target="_top" xlink:title="NyxInputControl.h">
<polygon fill="white" stroke="black" points="952.365,-232.5 952.365,-253.5 1053.37,-253.5 1053.37,-232.5 952.365,-232.5"/>
<text text-anchor="middle" x="1002.87" y="-240.5" font-family="Helvetica,sans-Serif" font-size="10.00">NyxInputControl.h</text>
</a>
</g>
<!-- Node3&#45;&gt;Node31 -->
<g id="edge108" class="edge"><title>Node3&#45;&gt;Node31</title>
<path fill="none" stroke="midnightblue" d="M1541.11,-297.673C1448.55,-288.271 1183.94,-261.393 1063.67,-249.176"/>
<polygon fill="midnightblue" stroke="midnightblue" points="1063.83,-245.675 1053.53,-248.147 1063.13,-252.639 1063.83,-245.675"/>
</g>
<!-- Node32 -->
<g id="node89" class="node"><title>Node32</title>
<a xlink:href="NyxLedControl_8h.htm" target="_top" xlink:title="NyxLedControl.h">
<polygon fill="white" stroke="black" points="1564.37,-232.5 1564.37,-253.5 1659.37,-253.5 1659.37,-232.5 1564.37,-232.5"/>
<text text-anchor="middle" x="1611.87" y="-240.5" font-family="Helvetica,sans-Serif" font-size="10.00">NyxLedControl.h</text>
</a>
</g>
<!-- Node3&#45;&gt;Node32 -->
<g id="edge114" class="edge"><title>Node3&#45;&gt;Node32</title>
<path fill="none" stroke="midnightblue" d="M1580.83,-290.362C1586.03,-282.431 1593.27,-271.389 1599.44,-261.961"/>
<polygon fill="midnightblue" stroke="midnightblue" points="1602.39,-263.853 1604.94,-253.571 1596.53,-260.017 1602.39,-263.853"/>
</g>
<!-- Node33 -->
<g id="node94" class="node"><title>Node33</title>
<polygon fill="white" stroke="#bfbfbf" points="1753.87,-232.5 1753.87,-253.5 1831.87,-253.5 1831.87,-232.5 1753.87,-232.5"/>
<text text-anchor="middle" x="1792.87" y="-240.5" font-family="Helvetica,sans-Serif" font-size="10.00">lunaservice.h</text>
</g>
<!-- Node3&#45;&gt;Node33 -->
<g id="edge122" class="edge"><title>Node3&#45;&gt;Node33</title>
<path fill="none" stroke="midnightblue" d="M1606.65,-292.317C1643,-282.692 1702,-267.065 1743.84,-255.984"/>
<polygon fill="midnightblue" stroke="midnightblue" points="1744.78,-259.356 1753.55,-253.412 1742.99,-252.589 1744.78,-259.356"/>
</g>
<!-- Node34 -->
<g id="node96" class="node"><title>Node34</title>
<polygon fill="white" stroke="#bfbfbf" points="1849.87,-232.5 1849.87,-253.5 1943.87,-253.5 1943.87,-232.5 1849.87,-232.5"/>
<text text-anchor="middle" x="1896.87" y="-240.5" font-family="Helvetica,sans-Serif" font-size="10.00">qsocketnotifier.h</text>
</g>
<!-- Node3&#45;&gt;Node34 -->
<g id="edge124" class="edge"><title>Node3&#45;&gt;Node34</title>
<path fill="none" stroke="midnightblue" d="M1606.37,-295.49C1654.91,-287.217 1749.47,-270.923 1839.95,-254.145"/>
<polygon fill="midnightblue" stroke="midnightblue" points="1840.63,-257.579 1849.82,-252.31 1839.35,-250.697 1840.63,-257.579"/>
</g>
<!-- Node5&#45;&gt;Node2 -->
<g id="edge12" class="edge"><title>Node5&#45;&gt;Node2</title>
<path fill="none" stroke="midnightblue" d="M738.136,-232.5C708.33,-220.551 669.908,-199.368 686.865,-174 710.12,-139.21 740.073,-162.681 773.865,-138 801.116,-118.096 807.743,-110.168 822.865,-80 830.431,-64.9067 834.484,-46.1562 836.615,-32.0126"/>
<polygon fill="midnightblue" stroke="midnightblue" points="840.122,-32.1836 837.943,-21.8153 833.181,-31.2796 840.122,-32.1836"/>
</g>
<!-- Node6 -->
<g id="node13" class="node"><title>Node6</title>
<a xlink:href="TaskBase_8h.htm" target="_top" xlink:title="TaskBase.h">
<polygon fill="white" stroke="black" points="554.865,-174.5 554.865,-195.5 626.865,-195.5 626.865,-174.5 554.865,-174.5"/>
<text text-anchor="middle" x="590.865" y="-182.5" font-family="Helvetica,sans-Serif" font-size="10.00">TaskBase.h</text>
</a>
</g>
<!-- Node5&#45;&gt;Node6 -->
<g id="edge14" class="edge"><title>Node5&#45;&gt;Node6</title>
<path fill="none" stroke="midnightblue" d="M736.631,-232.497C707.612,-223.041 664.775,-209.083 633.041,-198.743"/>
<polygon fill="midnightblue" stroke="midnightblue" points="633.752,-195.293 623.16,-195.523 631.584,-201.949 633.752,-195.293"/>
</g>
<!-- Node17 -->
<g id="node43" class="node"><title>Node17</title>
<a xlink:href="Mutex_8h.htm" target="_top" xlink:title="Mutex.h">
<polygon fill="white" stroke="black" points="464.365,-116.5 464.365,-137.5 517.365,-137.5 517.365,-116.5 464.365,-116.5"/>
<text text-anchor="middle" x="490.865" y="-124.5" font-family="Helvetica,sans-Serif" font-size="10.00">Mutex.h</text>
</a>
</g>
<!-- Node5&#45;&gt;Node17 -->
<g id="edge68" class="edge"><title>Node5&#45;&gt;Node17</title>
<path fill="none" stroke="midnightblue" d="M733.22,-238.473C678.493,-231.031 576.845,-215.112 545.865,-196 526.323,-183.944 510.81,-162.351 501.307,-146.522"/>
<polygon fill="midnightblue" stroke="midnightblue" points="504.182,-144.498 496.185,-137.548 498.102,-147.968 504.182,-144.498"/>
</g>
<!-- Node5&#45;&gt;Node19 -->
<g id="edge70" class="edge"><title>Node5&#45;&gt;Node19</title>
<path fill="none" stroke="midnightblue" d="M785.556,-232.362C799.281,-223.614 818.949,-211.079 834.602,-201.101"/>
<polygon fill="midnightblue" stroke="midnightblue" points="836.728,-203.897 843.28,-195.571 832.966,-197.994 836.728,-203.897"/>
</g>
<!-- Node21 -->
<g id="node59" class="node"><title>Node21</title>
<a xlink:href="InputControl_8h.htm" target="_top" xlink:title="InputControl.h">
<polygon fill="white" stroke="black" points="961.365,-174.5 961.365,-195.5 1044.37,-195.5 1044.37,-174.5 961.365,-174.5"/>
<text text-anchor="middle" x="1002.87" y="-182.5" font-family="Helvetica,sans-Serif" font-size="10.00">InputControl.h</text>
</a>
</g>
<!-- Node5&#45;&gt;Node21 -->
<g id="edge76" class="edge"><title>Node5&#45;&gt;Node21</title>
<path fill="none" stroke="midnightblue" d="M804.405,-234.191C843.511,-224.498 906.72,-208.831 951.278,-197.786"/>
<polygon fill="midnightblue" stroke="midnightblue" points="952.185,-201.168 961.05,-195.365 950.501,-194.373 952.185,-201.168"/>
</g>
<!-- Node22 -->
<g id="node62" class="node"><title>Node22</title>
<a xlink:href="LedControl_8h.htm" target="_top" xlink:title="LedControl.h">
<polygon fill="white" stroke="black" points="1099.37,-174.5 1099.37,-195.5 1176.37,-195.5 1176.37,-174.5 1099.37,-174.5"/>
<text text-anchor="middle" x="1137.87" y="-182.5" font-family="Helvetica,sans-Serif" font-size="10.00">LedControl.h</text>
</a>
</g>
<!-- Node5&#45;&gt;Node22 -->
<g id="edge80" class="edge"><title>Node5&#45;&gt;Node22</title>
<path fill="none" stroke="midnightblue" d="M804.582,-237.386C871.002,-226.946 1013.6,-204.533 1088.93,-192.692"/>
<polygon fill="midnightblue" stroke="midnightblue" points="1089.76,-196.105 1099.09,-191.094 1088.67,-189.19 1089.76,-196.105"/>
</g>
<!-- Node23 -->
<g id="node64" class="node"><title>Node23</title>
<polygon fill="white" stroke="#bfbfbf" points="695.365,-174.5 695.365,-195.5 724.365,-195.5 724.365,-174.5 695.365,-174.5"/>
<text text-anchor="middle" x="709.865" y="-182.5" font-family="Helvetica,sans-Serif" font-size="10.00">Qt</text>
</g>
<!-- Node5&#45;&gt;Node23 -->
<g id="edge82" class="edge"><title>Node5&#45;&gt;Node23</title>
<path fill="none" stroke="midnightblue" d="M758.044,-232.362C749.644,-224.104 737.811,-212.472 727.975,-202.803"/>
<polygon fill="midnightblue" stroke="midnightblue" points="730.203,-200.085 720.618,-195.571 725.296,-205.077 730.203,-200.085"/>
</g>
<!-- Node24 -->
<g id="node66" class="node"><title>Node24</title>
<polygon fill="white" stroke="#bfbfbf" points="741.865,-174.5 741.865,-195.5 795.865,-195.5 795.865,-174.5 741.865,-174.5"/>
<text text-anchor="middle" x="768.865" y="-182.5" font-family="Helvetica,sans-Serif" font-size="10.00">QImage</text>
</g>
<!-- Node5&#45;&gt;Node24 -->
<g id="edge84" class="edge"><title>Node5&#45;&gt;Node24</title>
<path fill="none" stroke="midnightblue" d="M768.865,-232.362C768.865,-224.922 768.865,-214.743 768.865,-205.728"/>
<polygon fill="midnightblue" stroke="midnightblue" points="772.365,-205.571 768.865,-195.571 765.365,-205.571 772.365,-205.571"/>
</g>
<!-- Node6&#45;&gt;Node2 -->
<g id="edge16" class="edge"><title>Node6&#45;&gt;Node2</title>
<path fill="none" stroke="midnightblue" d="M626.89,-179.519C659.781,-173.299 708.78,-160.899 745.865,-138 787.698,-112.169 816.664,-59.9224 830.188,-31.145"/>
<polygon fill="midnightblue" stroke="midnightblue" points="833.529,-32.2503 834.467,-21.6971 827.153,-29.3624 833.529,-32.2503"/>
</g>
<!-- Node7 -->
<g id="node16" class="node"><title>Node7</title>
<polygon fill="white" stroke="#bfbfbf" points="445.365,-0.5 445.365,-21.5 486.365,-21.5 486.365,-0.5 445.365,-0.5"/>
<text text-anchor="middle" x="465.865" y="-8.5" font-family="Helvetica,sans-Serif" font-size="10.00">glib.h</text>
</g>
<!-- Node6&#45;&gt;Node7 -->
<g id="edge18" class="edge"><title>Node6&#45;&gt;Node7</title>
<path fill="none" stroke="midnightblue" d="M554.726,-177.308C518.896,-168.869 467.688,-154.335 455.865,-138 433.084,-106.524 446.279,-58.44 456.802,-31.3653"/>
<polygon fill="midnightblue" stroke="midnightblue" points="460.177,-32.3607 460.761,-21.782 453.708,-29.6881 460.177,-32.3607"/>
</g>
<!-- Node8 -->
<g id="node18" class="node"><title>Node8</title>
<polygon fill="white" stroke="#bfbfbf" points="534.365,-116.5 534.365,-137.5 563.365,-137.5 563.365,-116.5 534.365,-116.5"/>
<text text-anchor="middle" x="548.865" y="-124.5" font-family="Helvetica,sans-Serif" font-size="10.00">list</text>
</g>
<!-- Node6&#45;&gt;Node8 -->
<g id="edge20" class="edge"><title>Node6&#45;&gt;Node8</title>
<path fill="none" stroke="midnightblue" d="M583.162,-174.362C577.419,-166.431 569.422,-155.389 562.595,-145.961"/>
<polygon fill="midnightblue" stroke="midnightblue" points="565.22,-143.617 556.52,-137.571 559.55,-147.723 565.22,-143.617"/>
</g>
<!-- Node9 -->
<g id="node20" class="node"><title>Node9</title>
<a xlink:href="sptr_8h.htm" target="_top" xlink:title="sptr.h">
<polygon fill="white" stroke="black" points="469.365,-58.5 469.365,-79.5 512.365,-79.5 512.365,-58.5 469.365,-58.5"/>
<text text-anchor="middle" x="490.865" y="-66.5" font-family="Helvetica,sans-Serif" font-size="10.00">sptr.h</text>
</a>
</g>
<!-- Node6&#45;&gt;Node9 -->
<g id="edge22" class="edge"><title>Node6&#45;&gt;Node9</title>
<path fill="none" stroke="midnightblue" d="M590.371,-174.07C589.191,-159.437 585.219,-133.318 571.865,-116 564.966,-107.053 541.682,-93.9666 521.839,-83.8734"/>
<polygon fill="midnightblue" stroke="midnightblue" points="523.258,-80.6702 512.748,-79.3315 520.129,-86.9321 523.258,-80.6702"/>
</g>
<!-- Node10 -->
<g id="node24" class="node"><title>Node10</title>
<a xlink:href="AsyncCaller_8h.htm" target="_top" xlink:title="AsyncCaller.h">
<polygon fill="white" stroke="black" points="711.365,-58.5 711.365,-79.5 792.365,-79.5 792.365,-58.5 711.365,-58.5"/>
<text text-anchor="middle" x="751.865" y="-66.5" font-family="Helvetica,sans-Serif" font-size="10.00">AsyncCaller.h</text>
</a>
</g>
<!-- Node6&#45;&gt;Node10 -->
<g id="edge28" class="edge"><title>Node6&#45;&gt;Node10</title>
<path fill="none" stroke="midnightblue" d="M626.97,-175.838C661.287,-166.509 709.698,-151.533 723.865,-138 737.33,-125.138 744.507,-104.906 748.209,-89.6688"/>
<polygon fill="midnightblue" stroke="midnightblue" points="751.687,-90.1415 750.331,-79.6338 744.838,-88.6934 751.687,-90.1415"/>
</g>
<!-- Node6&#45;&gt;Node11 -->
<g id="edge34" class="edge"><title>Node6&#45;&gt;Node11</title>
<path fill="none" stroke="midnightblue" d="M554.768,-178.212C507.918,-169.33 423.661,-153.115 351.865,-138 347.69,-137.121 343.32,-136.176 338.983,-135.223"/>
<polygon fill="midnightblue" stroke="midnightblue" points="339.551,-131.763 329.03,-133.009 338.031,-138.596 339.551,-131.763"/>
</g>
<!-- Node6&#45;&gt;Node17 -->
<g id="edge52" class="edge"><title>Node6&#45;&gt;Node17</title>
<path fill="none" stroke="midnightblue" d="M572.524,-174.362C557.3,-165.532 535.424,-152.844 518.145,-142.822"/>
<polygon fill="midnightblue" stroke="midnightblue" points="519.497,-139.56 509.09,-137.571 515.985,-145.615 519.497,-139.56"/>
</g>
<!-- Node18 -->
<g id="node48" class="node"><title>Node18</title>
<a xlink:href="SingletonTimer_8h.htm" target="_top" xlink:title="SingletonTimer.h">
<polygon fill="white" stroke="black" points="618.865,-116.5 618.865,-137.5 714.865,-137.5 714.865,-116.5 618.865,-116.5"/>
<text text-anchor="middle" x="666.865" y="-124.5" font-family="Helvetica,sans-Serif" font-size="10.00">SingletonTimer.h</text>
</a>
</g>
<!-- Node6&#45;&gt;Node18 -->
<g id="edge60" class="edge"><title>Node6&#45;&gt;Node18</title>
<path fill="none" stroke="midnightblue" d="M604.805,-174.362C616.054,-165.777 632.081,-153.546 645.03,-143.664"/>
<polygon fill="midnightblue" stroke="midnightblue" points="647.188,-146.42 653.014,-137.571 642.941,-140.855 647.188,-146.42"/>
</g>
<!-- Node9&#45;&gt;Node2 -->
<g id="edge24" class="edge"><title>Node9&#45;&gt;Node2</title>
<path fill="none" stroke="midnightblue" d="M512.657,-60.4232C515.395,-59.5201 518.177,-58.6838 520.865,-58 616.985,-33.5495 732.904,-20.3959 794.809,-14.6378"/>
<polygon fill="midnightblue" stroke="midnightblue" points="795.354,-18.1028 804.997,-13.7119 794.721,-11.1315 795.354,-18.1028"/>
</g>
<!-- Node9&#45;&gt;Node7 -->
<g id="edge26" class="edge"><title>Node9&#45;&gt;Node7</title>
<path fill="none" stroke="midnightblue" d="M486.28,-58.3619C482.967,-50.6766 478.395,-40.0686 474.417,-30.8399"/>
<polygon fill="midnightblue" stroke="midnightblue" points="477.594,-29.3685 470.421,-21.5707 471.166,-32.1393 477.594,-29.3685"/>
</g>
<!-- Node10&#45;&gt;Node2 -->
<g id="edge30" class="edge"><title>Node10&#45;&gt;Node2</title>
<path fill="none" stroke="midnightblue" d="M767.822,-58.3619C780.822,-49.6955 799.396,-37.3126 814.292,-27.3819"/>
<polygon fill="midnightblue" stroke="midnightblue" points="816.63,-30.0299 823.009,-21.5707 812.747,-24.2055 816.63,-30.0299"/>
</g>
<!-- Node10&#45;&gt;Node7 -->
<g id="edge32" class="edge"><title>Node10&#45;&gt;Node7</title>
<path fill="none" stroke="midnightblue" d="M711.192,-60.7516C653.192,-48.9894 548.03,-27.6629 496.287,-17.1694"/>
<polygon fill="midnightblue" stroke="midnightblue" points="496.882,-13.719 486.386,-15.1616 495.491,-20.5793 496.882,-13.719"/>
</g>
<!-- Node11&#45;&gt;Node2 -->
<g id="edge36" class="edge"><title>Node11&#45;&gt;Node2</title>
<path fill="none" stroke="midnightblue" d="M322.15,-116.394C351.268,-100.89 408.618,-72.332 460.865,-58 578.698,-25.6772 723.345,-15.529 794.72,-12.3841"/>
<polygon fill="midnightblue" stroke="midnightblue" points="795.273,-15.8642 805.119,-11.953 794.983,-8.87024 795.273,-15.8642"/>
</g>
<!-- Node11&#45;&gt;Node7 -->
<g id="edge40" class="edge"><title>Node11&#45;&gt;Node7</title>
<path fill="none" stroke="midnightblue" d="M276.731,-124.802C207.336,-118.704 22.5172,-100.654 4.86511,-80 -1.48747,-72.567 -1.68882,-65.2561 4.86511,-58 33.7118,-26.0628 336.413,-14.6786 435.011,-11.8018"/>
<polygon fill="midnightblue" stroke="midnightblue" points="435.317,-15.2947 445.214,-11.5135 435.119,-8.29747 435.317,-15.2947"/>
</g>
<!-- Node11&#45;&gt;Node9 -->
<g id="edge50" class="edge"><title>Node11&#45;&gt;Node9</title>
<path fill="none" stroke="midnightblue" d="M329.006,-118.935C363.22,-108.38 423.118,-89.9007 459.667,-78.6248"/>
<polygon fill="midnightblue" stroke="midnightblue" points="460.793,-81.9406 469.316,-75.648 458.729,-75.2516 460.793,-81.9406"/>
</g>
<!-- Node12 -->
<g id="node31" class="node"><title>Node12</title>
<polygon fill="white" stroke="#bfbfbf" points="529.865,-58.5 529.865,-79.5 579.865,-79.5 579.865,-58.5 529.865,-58.5"/>
<text text-anchor="middle" x="554.865" y="-66.5" font-family="Helvetica,sans-Serif" font-size="10.00">stdint.h</text>
</g>
<!-- Node11&#45;&gt;Node12 -->
<g id="edge38" class="edge"><title>Node11&#45;&gt;Node12</title>
<path fill="none" stroke="midnightblue" d="M328.907,-122.264C368.231,-114.925 445.263,-99.8168 519.692,-80.1325"/>
<polygon fill="midnightblue" stroke="midnightblue" points="520.944,-83.4208 529.698,-77.4537 519.133,-76.659 520.944,-83.4208"/>
</g>
<!-- Node13 -->
<g id="node34" class="node"><title>Node13</title>
<polygon fill="white" stroke="#bfbfbf" points="13.3651,-58.5 13.3651,-79.5 60.3651,-79.5 60.3651,-58.5 13.3651,-58.5"/>
<text text-anchor="middle" x="36.8651" y="-66.5" font-family="Helvetica,sans-Serif" font-size="10.00">stdio.h</text>
</g>
<!-- Node11&#45;&gt;Node13 -->
<g id="edge42" class="edge"><title>Node11&#45;&gt;Node13</title>
<path fill="none" stroke="midnightblue" d="M276.631,-122.902C234.775,-116.112 150.2,-101.372 70.2462,-80.1448"/>
<polygon fill="midnightblue" stroke="midnightblue" points="71.0881,-76.7469 60.5219,-77.5241 69.2666,-83.5057 71.0881,-76.7469"/>
</g>
<!-- Node14 -->
<g id="node36" class="node"><title>Node14</title>
<polygon fill="white" stroke="#bfbfbf" points="77.3651,-58.5 77.3651,-79.5 128.365,-79.5 128.365,-58.5 77.3651,-58.5"/>
<text text-anchor="middle" x="102.865" y="-66.5" font-family="Helvetica,sans-Serif" font-size="10.00">string.h</text>
</g>
<!-- Node11&#45;&gt;Node14 -->
<g id="edge44" class="edge"><title>Node11&#45;&gt;Node14</title>
<path fill="none" stroke="midnightblue" d="M276.614,-119.89C245.675,-111.441 192.49,-96.6986 138.233,-80.3513"/>
<polygon fill="midnightblue" stroke="midnightblue" points="139.038,-76.9382 128.453,-77.3904 137.01,-83.6379 139.038,-76.9382"/>
</g>
<!-- Node15 -->
<g id="node38" class="node"><title>Node15</title>
<polygon fill="white" stroke="#bfbfbf" points="145.865,-58.5 145.865,-79.5 231.865,-79.5 231.865,-58.5 145.865,-58.5"/>
<text text-anchor="middle" x="188.865" y="-66.5" font-family="Helvetica,sans-Serif" font-size="10.00">qnamespace.h</text>
</g>
<!-- Node11&#45;&gt;Node15 -->
<g id="edge46" class="edge"><title>Node11&#45;&gt;Node15</title>
<path fill="none" stroke="midnightblue" d="M282.221,-116.497C264.495,-107.479 238.72,-94.3649 218.742,-84.2006"/>
<polygon fill="midnightblue" stroke="midnightblue" points="220.241,-81.0364 209.741,-79.6212 217.067,-87.2753 220.241,-81.0364"/>
</g>
<!-- Node16 -->
<g id="node40" class="node"><title>Node16</title>
<polygon fill="white" stroke="#bfbfbf" points="249.865,-58.5 249.865,-79.5 337.865,-79.5 337.865,-58.5 249.865,-58.5"/>
<text text-anchor="middle" x="293.865" y="-66.5" font-family="Helvetica,sans-Serif" font-size="10.00">SysMgrEvent.h</text>
</g>
<!-- Node11&#45;&gt;Node16 -->
<g id="edge48" class="edge"><title>Node11&#45;&gt;Node16</title>
<path fill="none" stroke="midnightblue" d="M301.214,-116.362C300.06,-108.922 298.48,-98.7427 297.081,-89.7276"/>
<polygon fill="midnightblue" stroke="midnightblue" points="300.497,-88.9157 295.505,-79.5707 293.58,-89.9891 300.497,-88.9157"/>
</g>
<!-- Node17&#45;&gt;Node2 -->
<g id="edge54" class="edge"><title>Node17&#45;&gt;Node2</title>
<path fill="none" stroke="midnightblue" d="M517.587,-116.812C554.371,-102.912 622.771,-77.5025 681.865,-58 720.02,-45.4079 763.854,-32.4063 795.492,-23.2787"/>
<polygon fill="midnightblue" stroke="midnightblue" points="796.668,-26.5824 805.313,-20.4568 794.735,-19.8547 796.668,-26.5824"/>
</g>
<!-- Node17&#45;&gt;Node7 -->
<g id="edge58" class="edge"><title>Node17&#45;&gt;Node7</title>
<path fill="none" stroke="midnightblue" d="M481.496,-116.306C474.28,-107.313 464.88,-93.7527 460.865,-80 456.244,-64.1707 458.018,-45.4736 460.656,-31.5378"/>
<polygon fill="midnightblue" stroke="midnightblue" points="464.128,-32.0459 462.852,-21.5282 457.29,-30.5459 464.128,-32.0459"/>
</g>
<!-- Node17&#45;&gt;Node9 -->
<g id="edge56" class="edge"><title>Node17&#45;&gt;Node9</title>
<path fill="none" stroke="midnightblue" d="M490.865,-116.362C490.865,-108.922 490.865,-98.7427 490.865,-89.7276"/>
<polygon fill="midnightblue" stroke="midnightblue" points="494.365,-89.5706 490.865,-79.5707 487.365,-89.5707 494.365,-89.5706"/>
</g>
<!-- Node18&#45;&gt;Node2 -->
<g id="edge62" class="edge"><title>Node18&#45;&gt;Node2</title>
<path fill="none" stroke="midnightblue" d="M669.704,-116.313C674.243,-101.233 684.544,-73.7894 702.865,-58 728.933,-35.5335 766.328,-23.6364 795.31,-17.4392"/>
<polygon fill="midnightblue" stroke="midnightblue" points="796.053,-20.8601 805.178,-15.4769 794.687,-13.9945 796.053,-20.8601"/>
</g>
<!-- Node18&#45;&gt;Node7 -->
<g id="edge64" class="edge"><title>Node18&#45;&gt;Node7</title>
<path fill="none" stroke="midnightblue" d="M657.22,-116.33C643.349,-101.519 616.391,-74.6733 588.865,-58 559.348,-40.1207 521.871,-26.9844 496.087,-19.2145"/>
<polygon fill="midnightblue" stroke="midnightblue" points="497.063,-15.8534 486.483,-16.4054 495.098,-22.572 497.063,-15.8534"/>
</g>
<!-- Node18&#45;&gt;Node12 -->
<g id="edge66" class="edge"><title>Node18&#45;&gt;Node12</title>
<path fill="none" stroke="midnightblue" d="M646.583,-116.497C629.247,-107.519 604.075,-94.4835 584.485,-84.3387"/>
<polygon fill="midnightblue" stroke="midnightblue" points="585.865,-81.1118 575.375,-79.6212 582.645,-87.3278 585.865,-81.1118"/>
</g>
<!-- Node19&#45;&gt;Node2 -->
<g id="edge72" class="edge"><title>Node19&#45;&gt;Node2</title>
<path fill="none" stroke="midnightblue" d="M863.689,-174.162C870.962,-151.847 884.945,-99.3903 871.865,-58 868.565,-47.5574 862.022,-37.4231 855.625,-29.2551"/>
<polygon fill="midnightblue" stroke="midnightblue" points="858.258,-26.9468 849.155,-21.5245 852.89,-31.4395 858.258,-26.9468"/>
</g>
<!-- Node20 -->
<g id="node57" class="node"><title>Node20</title>
<polygon fill="white" stroke="#bfbfbf" points="1003.87,-116.5 1003.87,-137.5 1055.87,-137.5 1055.87,-116.5 1003.87,-116.5"/>
<text text-anchor="middle" x="1029.87" y="-124.5" font-family="Helvetica,sans-Serif" font-size="10.00">QEvent</text>
</g>
<!-- Node19&#45;&gt;Node20 -->
<g id="edge74" class="edge"><title>Node19&#45;&gt;Node20</title>
<path fill="none" stroke="midnightblue" d="M890.651,-174.497C919.707,-164.583 963.269,-149.721 993.908,-139.268"/>
<polygon fill="midnightblue" stroke="midnightblue" points="995.429,-142.447 1003.76,-135.905 993.169,-135.822 995.429,-142.447"/>
</g>
<!-- Node21&#45;&gt;Node4 -->
<g id="edge78" class="edge"><title>Node21&#45;&gt;Node4</title>
<path fill="none" stroke="midnightblue" d="M1044.65,-178.738C1114.51,-168.267 1255.09,-147.199 1333.59,-135.434"/>
<polygon fill="midnightblue" stroke="midnightblue" points="1334.4,-138.851 1343.77,-133.908 1333.37,-131.929 1334.4,-138.851"/>
</g>
<!-- Node25&#45;&gt;Node4 -->
<g id="edge104" class="edge"><title>Node25&#45;&gt;Node4</title>
<path fill="none" stroke="midnightblue" d="M1288.21,-232.403C1246.95,-221.86 1200.88,-203.023 1222.87,-174 1236.38,-156.162 1290.46,-143.197 1333.47,-135.458"/>
<polygon fill="midnightblue" stroke="midnightblue" points="1334.33,-138.863 1343.58,-133.698 1333.12,-131.966 1334.33,-138.863"/>
</g>
<!-- Node25&#45;&gt;Node19 -->
<g id="edge106" class="edge"><title>Node25&#45;&gt;Node19</title>
<path fill="none" stroke="midnightblue" d="M1279.72,-235.418C1184.8,-224.02 1006.83,-202.648 916.126,-191.756"/>
<polygon fill="midnightblue" stroke="midnightblue" points="916.383,-188.262 906.037,-190.544 915.548,-195.212 916.383,-188.262"/>
</g>
<!-- Node25&#45;&gt;Node20 -->
<g id="edge98" class="edge"><title>Node25&#45;&gt;Node20</title>
<path fill="none" stroke="midnightblue" d="M1279.75,-235.979C1215.96,-228.049 1122.42,-213.884 1090.87,-196 1069.82,-184.071 1052.34,-162.14 1041.57,-146.197"/>
<polygon fill="midnightblue" stroke="midnightblue" points="1044.39,-144.118 1036.02,-137.622 1038.51,-147.92 1044.39,-144.118"/>
</g>
<!-- Node26 -->
<g id="node72" class="node"><title>Node26</title>
<polygon fill="white" stroke="#bfbfbf" points="1231.87,-174.5 1231.87,-195.5 1279.87,-195.5 1279.87,-174.5 1231.87,-174.5"/>
<text text-anchor="middle" x="1255.87" y="-182.5" font-family="Helvetica,sans-Serif" font-size="10.00">limits.h</text>
</g>
<!-- Node25&#45;&gt;Node26 -->
<g id="edge92" class="edge"><title>Node25&#45;&gt;Node26</title>
<path fill="none" stroke="midnightblue" d="M1326.91,-232.362C1313.91,-223.696 1295.33,-211.313 1280.44,-201.382"/>
<polygon fill="midnightblue" stroke="midnightblue" points="1281.98,-198.206 1271.72,-195.571 1278.1,-204.03 1281.98,-198.206"/>
</g>
<!-- Node25&#45;&gt;Node27 -->
<g id="edge94" class="edge"><title>Node25&#45;&gt;Node27</title>
<path fill="none" stroke="midnightblue" d="M1384.71,-232.435C1418.67,-223.752 1468.02,-210.89 1519.1,-196.445"/>
<polygon fill="midnightblue" stroke="midnightblue" points="1520.33,-199.734 1528.99,-193.633 1518.41,-193.001 1520.33,-199.734"/>
</g>
<!-- Node28 -->
<g id="node76" class="node"><title>Node28</title>
<polygon fill="white" stroke="#bfbfbf" points="1297.37,-174.5 1297.37,-195.5 1388.37,-195.5 1388.37,-174.5 1297.37,-174.5"/>
<text text-anchor="middle" x="1342.87" y="-182.5" font-family="Helvetica,sans-Serif" font-size="10.00">QSocketNotifier</text>
</g>
<!-- Node25&#45;&gt;Node28 -->
<g id="edge96" class="edge"><title>Node25&#45;&gt;Node28</title>
<path fill="none" stroke="midnightblue" d="M1342.87,-232.362C1342.87,-224.922 1342.87,-214.743 1342.87,-205.728"/>
<polygon fill="midnightblue" stroke="midnightblue" points="1346.37,-205.571 1342.87,-195.571 1339.37,-205.571 1346.37,-205.571"/>
</g>
<!-- Node29 -->
<g id="node79" class="node"><title>Node29</title>
<polygon fill="white" stroke="#bfbfbf" points="1405.87,-174.5 1405.87,-195.5 1451.87,-195.5 1451.87,-174.5 1405.87,-174.5"/>
<text text-anchor="middle" x="1428.87" y="-182.5" font-family="Helvetica,sans-Serif" font-size="10.00">vector</text>
</g>
<!-- Node25&#45;&gt;Node29 -->
<g id="edge100" class="edge"><title>Node25&#45;&gt;Node29</title>
<path fill="none" stroke="midnightblue" d="M1358.64,-232.362C1371.49,-223.696 1389.85,-211.313 1404.57,-201.382"/>
<polygon fill="midnightblue" stroke="midnightblue" points="1406.86,-204.064 1413.19,-195.571 1402.94,-198.26 1406.86,-204.064"/>
</g>
<!-- Node30 -->
<g id="node81" class="node"><title>Node30</title>
<polygon fill="white" stroke="#bfbfbf" points="1469.37,-174.5 1469.37,-195.5 1512.37,-195.5 1512.37,-174.5 1469.37,-174.5"/>
<text text-anchor="middle" x="1490.87" y="-182.5" font-family="Helvetica,sans-Serif" font-size="10.00">string</text>
</g>
<!-- Node25&#45;&gt;Node30 -->
<g id="edge102" class="edge"><title>Node25&#45;&gt;Node30</title>
<path fill="none" stroke="midnightblue" d="M1369.67,-232.497C1394.93,-222.597 1432.78,-207.762 1459.45,-197.311"/>
<polygon fill="midnightblue" stroke="midnightblue" points="1461.04,-200.447 1469.08,-193.539 1458.49,-193.929 1461.04,-200.447"/>
</g>
<!-- Node31&#45;&gt;Node2 -->
<g id="edge110" class="edge"><title>Node31&#45;&gt;Node2</title>
<path fill="none" stroke="midnightblue" d="M988.766,-232.219C977.913,-223.381 963.088,-210.073 952.865,-196 913.019,-141.149 927.434,-113.051 887.865,-58 880.096,-47.1915 869.647,-36.7734 860.394,-28.5044"/>
<polygon fill="midnightblue" stroke="midnightblue" points="862.525,-25.72 852.668,-21.8352 857.951,-31.0189 862.525,-25.72"/>
</g>
<!-- Node31&#45;&gt;Node21 -->
<g id="edge112" class="edge"><title>Node31&#45;&gt;Node21</title>
<path fill="none" stroke="midnightblue" d="M1002.87,-232.362C1002.87,-224.922 1002.87,-214.743 1002.87,-205.728"/>
<polygon fill="midnightblue" stroke="midnightblue" points="1006.37,-205.571 1002.87,-195.571 999.365,-205.571 1006.37,-205.571"/>
</g>
<!-- Node32&#45;&gt;Node2 -->
<g id="edge116" class="edge"><title>Node32&#45;&gt;Node2</title>
<path fill="none" stroke="midnightblue" d="M1615.68,-232.027C1620.04,-217.345 1625.1,-191.171 1612.87,-174 1567.02,-109.673 1521.36,-135.695 1444.87,-116 1237.39,-62.5809 982.867,-28.3964 882.506,-16.1114"/>
<polygon fill="midnightblue" stroke="midnightblue" points="882.787,-12.62 872.438,-14.8895 881.944,-19.569 882.787,-12.62"/>
</g>
<!-- Node32&#45;&gt;Node4 -->
<g id="edge120" class="edge"><title>Node32&#45;&gt;Node4</title>
<path fill="none" stroke="midnightblue" d="M1612.1,-232.461C1611.84,-217.307 1609,-189.485 1592.87,-174 1572.13,-154.099 1498.92,-140.795 1446.37,-133.566"/>
<polygon fill="midnightblue" stroke="midnightblue" points="1446.53,-130.057 1436.16,-132.201 1445.6,-136.995 1446.53,-130.057"/>
</g>
<!-- Node32&#45;&gt;Node22 -->
<g id="edge118" class="edge"><title>Node32&#45;&gt;Node22</title>
<path fill="none" stroke="midnightblue" d="M1564.24,-237.378C1490.9,-228.689 1345.88,-211.391 1222.87,-196 1211.22,-194.543 1198.68,-192.939 1186.9,-191.417"/>
<polygon fill="midnightblue" stroke="midnightblue" points="1187.15,-187.921 1176.79,-190.107 1186.25,-194.863 1187.15,-187.921"/>
</g>
</g>
</svg>
