<?xml version="1.0" encoding="UTF-8" standalone="no"?>
<!DOCTYPE svg PUBLIC "-//W3C//DTD SVG 1.1//EN"
 "http://www.w3.org/Graphics/SVG/1.1/DTD/svg11.dtd">
<!-- Generated by graphviz version 2.26.3 (20100126.1600)
 -->
<!-- Title: HostArm.cpp Pages: 1 -->
<svg width="2957pt" height="378pt"
 viewBox="0.00 0.00 2956.54 378.00" xmlns="http://www.w3.org/2000/svg" xmlns:xlink="http://www.w3.org/1999/xlink">
<g id="graph1" class="graph" transform="scale(1 1) rotate(0) translate(4 374)">
<title>HostArm.cpp</title>
<polygon fill="white" stroke="white" points="-4,5 -4,-374 2953.54,-374 2953.54,5 -4,5"/>
<!-- Node1 -->
<g id="node1" class="node"><title>Node1</title>
<polygon fill="#bfbfbf" stroke="black" points="1472.04,-348.5 1472.04,-369.5 1549.04,-369.5 1549.04,-348.5 1472.04,-348.5"/>
<text text-anchor="middle" x="1510.54" y="-356.5" font-family="Helvetica,sans-Serif" font-size="10.00">HostArm.cpp</text>
</g>
<!-- Node2 -->
<g id="node3" class="node"><title>Node2</title>
<a xlink:href="Common_8h.htm" target="_top" xlink:title="Common.h">
<polygon fill="white" stroke="black" points="515.045,-0.5 515.045,-21.5 582.045,-21.5 582.045,-0.5 515.045,-0.5"/>
<text text-anchor="middle" x="548.545" y="-8.5" font-family="Helvetica,sans-Serif" font-size="10.00">Common.h</text>
</a>
</g>
<!-- Node1&#45;&gt;Node2 -->
<g id="edge2" class="edge"><title>Node1&#45;&gt;Node2</title>
<path fill="none" stroke="midnightblue" d="M1471.79,-358.238C1318.23,-355.036 752.299,-341.448 575.545,-312 466.066,-293.76 335.545,-353.987 335.545,-243 335.545,-243 335.545,-243 335.545,-127 335.545,-50.6166 442.495,-24.2385 504.825,-15.3514"/>
<polygon fill="midnightblue" stroke="midnightblue" points="505.344,-18.8134 514.794,-14.0242 504.42,-11.8746 505.344,-18.8134"/>
</g>
<!-- Node3 -->
<g id="node5" class="node"><title>Node3</title>
<polygon fill="white" stroke="#bfbfbf" points="1123.04,-58.5 1123.04,-79.5 1170.04,-79.5 1170.04,-58.5 1123.04,-58.5"/>
<text text-anchor="middle" x="1146.54" y="-66.5" font-family="Helvetica,sans-Serif" font-size="10.00">stdio.h</text>
</g>
<!-- Node1&#45;&gt;Node3 -->
<g id="edge4" class="edge"><title>Node1&#45;&gt;Node3</title>
<path fill="none" stroke="midnightblue" d="M1472,-357.037C1388.96,-352.346 1195.88,-338.826 1136.54,-312 1094.37,-292.932 1058.54,-289.284 1058.54,-243 1058.54,-243 1058.54,-243 1058.54,-185 1058.54,-153.192 1059.04,-141.874 1077.54,-116 1086.93,-102.876 1101.2,-92.2792 1114.33,-84.4929"/>
<polygon fill="midnightblue" stroke="midnightblue" points="1116.14,-87.4889 1123.16,-79.555 1112.73,-81.3785 1116.14,-87.4889"/>
</g>
<!-- Node4 -->
<g id="node7" class="node"><title>Node4</title>
<polygon fill="white" stroke="#bfbfbf" points="1418.04,-290.5 1418.04,-311.5 1467.04,-311.5 1467.04,-290.5 1418.04,-290.5"/>
<text text-anchor="middle" x="1442.54" y="-298.5" font-family="Helvetica,sans-Serif" font-size="10.00">stdlib.h</text>
</g>
<!-- Node1&#45;&gt;Node4 -->
<g id="edge6" class="edge"><title>Node1&#45;&gt;Node4</title>
<path fill="none" stroke="midnightblue" d="M1498.07,-348.362C1488.2,-339.941 1474.21,-328.011 1462.75,-318.231"/>
<polygon fill="midnightblue" stroke="midnightblue" points="1464.82,-315.397 1454.94,-311.571 1460.27,-320.723 1464.82,-315.397"/>
</g>
<!-- Node5 -->
<g id="node9" class="node"><title>Node5</title>
<polygon fill="white" stroke="#bfbfbf" points="1301.54,-58.5 1301.54,-79.5 1351.54,-79.5 1351.54,-58.5 1301.54,-58.5"/>
<text text-anchor="middle" x="1326.54" y="-66.5" font-family="Helvetica,sans-Serif" font-size="10.00">stdint.h</text>
</g>
<!-- Node1&#45;&gt;Node5 -->
<g id="edge8" class="edge"><title>Node1&#45;&gt;Node5</title>
<path fill="none" stroke="midnightblue" d="M1472.03,-350.813C1448.94,-344.041 1420.65,-332.159 1402.54,-312 1387.18,-294.888 1346.56,-144.989 1331.91,-89.5216"/>
<polygon fill="midnightblue" stroke="midnightblue" points="1335.27,-88.5351 1329.34,-79.7545 1328.5,-90.3159 1335.27,-88.5351"/>
</g>
<!-- Node6 -->
<g id="node11" class="node"><title>Node6</title>
<polygon fill="white" stroke="#bfbfbf" points="1484.04,-290.5 1484.04,-311.5 1537.04,-311.5 1537.04,-290.5 1484.04,-290.5"/>
<text text-anchor="middle" x="1510.54" y="-298.5" font-family="Helvetica,sans-Serif" font-size="10.00">unistd.h</text>
</g>
<!-- Node1&#45;&gt;Node6 -->
<g id="edge10" class="edge"><title>Node1&#45;&gt;Node6</title>
<path fill="none" stroke="midnightblue" d="M1510.54,-348.362C1510.54,-340.922 1510.54,-330.743 1510.54,-321.728"/>
<polygon fill="midnightblue" stroke="midnightblue" points="1514.04,-321.571 1510.54,-311.571 1507.04,-321.571 1514.04,-321.571"/>
</g>
<!-- Node7 -->
<g id="node13" class="node"><title>Node7</title>
<polygon fill="white" stroke="#bfbfbf" points="1055.04,-58.5 1055.04,-79.5 1106.04,-79.5 1106.04,-58.5 1055.04,-58.5"/>
<text text-anchor="middle" x="1080.54" y="-66.5" font-family="Helvetica,sans-Serif" font-size="10.00">string.h</text>
</g>
<!-- Node1&#45;&gt;Node7 -->
<g id="edge12" class="edge"><title>Node1&#45;&gt;Node7</title>
<path fill="none" stroke="midnightblue" d="M1471.79,-358.245C1379.62,-355.896 1150.05,-346.638 1082.54,-312 1045.86,-293.179 1020.54,-284.228 1020.54,-243 1020.54,-243 1020.54,-243 1020.54,-185 1020.54,-146.969 1046.3,-108.976 1064.07,-87.2973"/>
<polygon fill="midnightblue" stroke="midnightblue" points="1066.83,-89.4513 1070.64,-79.5649 1061.49,-84.9181 1066.83,-89.4513"/>
</g>
<!-- Node8 -->
<g id="node15" class="node"><title>Node8</title>
<polygon fill="white" stroke="#bfbfbf" points="1554.04,-290.5 1554.04,-311.5 1611.04,-311.5 1611.04,-290.5 1554.04,-290.5"/>
<text text-anchor="middle" x="1582.54" y="-298.5" font-family="Helvetica,sans-Serif" font-size="10.00">linux/fb.h</text>
</g>
<!-- Node1&#45;&gt;Node8 -->
<g id="edge14" class="edge"><title>Node1&#45;&gt;Node8</title>
<path fill="none" stroke="midnightblue" d="M1523.75,-348.362C1534.31,-339.859 1549.3,-327.779 1561.51,-317.947"/>
<polygon fill="midnightblue" stroke="midnightblue" points="1563.83,-320.57 1569.42,-311.571 1559.44,-315.118 1563.83,-320.57"/>
</g>
<!-- Node9 -->
<g id="node17" class="node"><title>Node9</title>
<polygon fill="white" stroke="#bfbfbf" points="1628.54,-290.5 1628.54,-311.5 1688.54,-311.5 1688.54,-290.5 1628.54,-290.5"/>
<text text-anchor="middle" x="1658.54" y="-298.5" font-family="Helvetica,sans-Serif" font-size="10.00">linux/kd.h</text>
</g>
<!-- Node1&#45;&gt;Node9 -->
<g id="edge16" class="edge"><title>Node1&#45;&gt;Node9</title>
<path fill="none" stroke="midnightblue" d="M1537.35,-348.497C1560.98,-339.234 1595.64,-325.65 1621.85,-315.379"/>
<polygon fill="midnightblue" stroke="midnightblue" points="1623.41,-318.529 1631.44,-311.621 1620.85,-312.011 1623.41,-318.529"/>
</g>
<!-- Node10 -->
<g id="node19" class="node"><title>Node10</title>
<polygon fill="white" stroke="#bfbfbf" points="1706.04,-290.5 1706.04,-311.5 1777.04,-311.5 1777.04,-290.5 1706.04,-290.5"/>
<text text-anchor="middle" x="1741.54" y="-298.5" font-family="Helvetica,sans-Serif" font-size="10.00">linux/input.h</text>
</g>
<!-- Node1&#45;&gt;Node10 -->
<g id="edge18" class="edge"><title>Node1&#45;&gt;Node10</title>
<path fill="none" stroke="midnightblue" d="M1549.21,-349.292C1589.64,-339.141 1653.05,-323.22 1695.91,-312.459"/>
<polygon fill="midnightblue" stroke="midnightblue" points="1696.95,-315.806 1705.8,-309.976 1695.24,-309.017 1696.95,-315.806"/>
</g>
<!-- Node11 -->
<g id="node21" class="node"><title>Node11</title>
<polygon fill="white" stroke="#bfbfbf" points="1794.54,-290.5 1794.54,-311.5 1866.54,-311.5 1866.54,-290.5 1794.54,-290.5"/>
<text text-anchor="middle" x="1830.54" y="-298.5" font-family="Helvetica,sans-Serif" font-size="10.00">sys/mman.h</text>
</g>
<!-- Node1&#45;&gt;Node11 -->
<g id="edge20" class="edge"><title>Node1&#45;&gt;Node11</title>
<path fill="none" stroke="midnightblue" d="M1549.42,-353.24C1600.9,-345.418 1694.74,-330.491 1784.2,-312.179"/>
<polygon fill="midnightblue" stroke="midnightblue" points="1785.16,-315.556 1794.25,-310.106 1783.74,-308.701 1785.16,-315.556"/>
</g>
<!-- Node12 -->
<g id="node23" class="node"><title>Node12</title>
<polygon fill="white" stroke="#bfbfbf" points="1884.54,-290.5 1884.54,-311.5 1946.54,-311.5 1946.54,-290.5 1884.54,-290.5"/>
<text text-anchor="middle" x="1915.54" y="-298.5" font-family="Helvetica,sans-Serif" font-size="10.00">sys/ioctl.h</text>
</g>
<!-- Node1&#45;&gt;Node12 -->
<g id="edge22" class="edge"><title>Node1&#45;&gt;Node12</title>
<path fill="none" stroke="midnightblue" d="M1549.2,-355.82C1614.37,-350.069 1750.36,-336.399 1874.17,-312.067"/>
<polygon fill="midnightblue" stroke="midnightblue" points="1875.08,-315.455 1884.2,-310.067 1873.71,-308.59 1875.08,-315.455"/>
</g>
<!-- Node13 -->
<g id="node25" class="node"><title>Node13</title>
<polygon fill="white" stroke="#bfbfbf" points="1964.04,-290.5 1964.04,-311.5 2033.04,-311.5 2033.04,-290.5 1964.04,-290.5"/>
<text text-anchor="middle" x="1998.54" y="-298.5" font-family="Helvetica,sans-Serif" font-size="10.00">sys/types.h</text>
</g>
<!-- Node1&#45;&gt;Node13 -->
<g id="edge24" class="edge"><title>Node1&#45;&gt;Node13</title>
<path fill="none" stroke="midnightblue" d="M1549.2,-356.812C1625.09,-352.11 1798.95,-339.329 1953.74,-312.134"/>
<polygon fill="midnightblue" stroke="midnightblue" points="1954.68,-315.522 1963.91,-310.321 1953.45,-308.631 1954.68,-315.522"/>
</g>
<!-- Node14 -->
<g id="node27" class="node"><title>Node14</title>
<polygon fill="white" stroke="#bfbfbf" points="2050.04,-290.5 2050.04,-311.5 2111.04,-311.5 2111.04,-290.5 2050.04,-290.5"/>
<text text-anchor="middle" x="2080.54" y="-298.5" font-family="Helvetica,sans-Serif" font-size="10.00">sys/stat.h</text>
</g>
<!-- Node1&#45;&gt;Node14 -->
<g id="edge26" class="edge"><title>Node1&#45;&gt;Node14</title>
<path fill="none" stroke="midnightblue" d="M1549.19,-358.046C1635.7,-355.384 1851.5,-345.815 2039.93,-312.03"/>
<polygon fill="midnightblue" stroke="midnightblue" points="2040.8,-315.428 2050.01,-310.193 2039.55,-308.541 2040.8,-315.428"/>
</g>
<!-- Node15 -->
<g id="node29" class="node"><title>Node15</title>
<polygon fill="white" stroke="#bfbfbf" points="2128.54,-290.5 2128.54,-311.5 2172.54,-311.5 2172.54,-290.5 2128.54,-290.5"/>
<text text-anchor="middle" x="2150.54" y="-298.5" font-family="Helvetica,sans-Serif" font-size="10.00">fcntl.h</text>
</g>
<!-- Node1&#45;&gt;Node15 -->
<g id="edge28" class="edge"><title>Node1&#45;&gt;Node15</title>
<path fill="none" stroke="midnightblue" d="M1549.41,-357.342C1662.66,-352.306 1991.86,-336.15 2118.56,-311.657"/>
<polygon fill="midnightblue" stroke="midnightblue" points="2119.3,-315.078 2128.4,-309.649 2117.9,-308.22 2119.3,-315.078"/>
</g>
<!-- Node16 -->
<g id="node31" class="node"><title>Node16</title>
<polygon fill="white" stroke="#bfbfbf" points="2190.54,-290.5 2190.54,-311.5 2240.54,-311.5 2240.54,-290.5 2190.54,-290.5"/>
<text text-anchor="middle" x="2215.54" y="-298.5" font-family="Helvetica,sans-Serif" font-size="10.00">errno.h</text>
</g>
<!-- Node1&#45;&gt;Node16 -->
<g id="edge30" class="edge"><title>Node1&#45;&gt;Node16</title>
<path fill="none" stroke="midnightblue" d="M1549.33,-357.522C1670.28,-352.724 2040.34,-336.561 2180.4,-311.742"/>
<polygon fill="midnightblue" stroke="midnightblue" points="2181.28,-315.137 2190.47,-309.863 2180,-308.256 2181.28,-315.137"/>
</g>
<!-- Node17 -->
<g id="node33" class="node"><title>Node17</title>
<polygon fill="white" stroke="#bfbfbf" points="1238.04,-232.5 1238.04,-253.5 1301.04,-253.5 1301.04,-232.5 1238.04,-232.5"/>
<text text-anchor="middle" x="1269.54" y="-240.5" font-family="Helvetica,sans-Serif" font-size="10.00">sys/time.h</text>
</g>
<!-- Node1&#45;&gt;Node17 -->
<g id="edge32" class="edge"><title>Node1&#45;&gt;Node17</title>
<path fill="none" stroke="midnightblue" d="M1471.85,-356.132C1432.59,-351.69 1371.37,-340.431 1326.54,-312 1306.99,-299.595 1290.88,-278.242 1280.83,-262.567"/>
<polygon fill="midnightblue" stroke="midnightblue" points="1283.6,-260.373 1275.39,-253.672 1277.63,-264.028 1283.6,-260.373"/>
</g>
<!-- Node18 -->
<g id="node35" class="node"><title>Node18</title>
<polygon fill="white" stroke="#bfbfbf" points="1318.54,-232.5 1318.54,-253.5 1362.54,-253.5 1362.54,-232.5 1318.54,-232.5"/>
<text text-anchor="middle" x="1340.54" y="-240.5" font-family="Helvetica,sans-Serif" font-size="10.00">time.h</text>
</g>
<!-- Node1&#45;&gt;Node18 -->
<g id="edge34" class="edge"><title>Node1&#45;&gt;Node18</title>
<path fill="none" stroke="midnightblue" d="M1471.96,-353.915C1426.37,-347.022 1354.65,-333.099 1338.54,-312 1328.13,-298.356 1329.99,-278.379 1333.66,-263.428"/>
<polygon fill="midnightblue" stroke="midnightblue" points="1337.09,-264.169 1336.5,-253.591 1330.36,-262.23 1337.09,-264.169"/>
</g>
<!-- Node19 -->
<g id="node37" class="node"><title>Node19</title>
<polygon fill="white" stroke="#bfbfbf" points="2258.54,-290.5 2258.54,-311.5 2332.54,-311.5 2332.54,-290.5 2258.54,-290.5"/>
<text text-anchor="middle" x="2295.54" y="-298.5" font-family="Helvetica,sans-Serif" font-size="10.00">sys/socket.h</text>
</g>
<!-- Node1&#45;&gt;Node19 -->
<g id="edge36" class="edge"><title>Node1&#45;&gt;Node19</title>
<path fill="none" stroke="midnightblue" d="M1549.43,-357.408C1678.57,-351.986 2093.2,-333.462 2248.23,-311.925"/>
<polygon fill="midnightblue" stroke="midnightblue" points="2249.1,-315.335 2258.49,-310.436 2248.1,-308.407 2249.1,-315.335"/>
</g>
<!-- Node20 -->
<g id="node39" class="node"><title>Node20</title>
<polygon fill="white" stroke="#bfbfbf" points="2350.04,-290.5 2350.04,-311.5 2405.04,-311.5 2405.04,-290.5 2350.04,-290.5"/>
<text text-anchor="middle" x="2377.54" y="-298.5" font-family="Helvetica,sans-Serif" font-size="10.00">sys/un.h</text>
</g>
<!-- Node1&#45;&gt;Node20 -->
<g id="edge38" class="edge"><title>Node1&#45;&gt;Node20</title>
<path fill="none" stroke="midnightblue" d="M1549.3,-358.042C1688.99,-354.4 2167.12,-340.258 2339.85,-311.91"/>
<polygon fill="midnightblue" stroke="midnightblue" points="2340.54,-315.342 2349.8,-310.198 2339.35,-308.443 2340.54,-315.342"/>
</g>
<!-- Node21 -->
<g id="node41" class="node"><title>Node21</title>
<polygon fill="white" stroke="#bfbfbf" points="2422.04,-290.5 2422.04,-311.5 2469.04,-311.5 2469.04,-290.5 2422.04,-290.5"/>
<text text-anchor="middle" x="2445.54" y="-298.5" font-family="Helvetica,sans-Serif" font-size="10.00">dlfcn.h</text>
</g>
<!-- Node1&#45;&gt;Node21 -->
<g id="edge40" class="edge"><title>Node1&#45;&gt;Node21</title>
<path fill="none" stroke="midnightblue" d="M1549.29,-358.419C1696.88,-355.989 2224.57,-345.254 2411.99,-311.792"/>
<polygon fill="midnightblue" stroke="midnightblue" points="2412.79,-315.201 2421.98,-309.922 2411.51,-308.321 2412.79,-315.201"/>
</g>
<!-- Node22 -->
<g id="node43" class="node"><title>Node22</title>
<polygon fill="white" stroke="#bfbfbf" points="1007.04,-0.5 1007.04,-21.5 1048.04,-21.5 1048.04,-0.5 1007.04,-0.5"/>
<text text-anchor="middle" x="1027.54" y="-8.5" font-family="Helvetica,sans-Serif" font-size="10.00">glib.h</text>
</g>
<!-- Node1&#45;&gt;Node22 -->
<g id="edge42" class="edge"><title>Node1&#45;&gt;Node22</title>
<path fill="none" stroke="midnightblue" d="M1471.94,-356.11C1391.04,-349.661 1209.68,-333 1191.54,-312 1117.03,-225.702 1298.35,-147.37 1227.54,-58 1206.76,-31.7684 1108.99,-18.7395 1058.26,-13.6523"/>
<polygon fill="midnightblue" stroke="midnightblue" points="1058.48,-10.1576 1048.19,-12.6853 1057.81,-17.1255 1058.48,-10.1576"/>
</g>
<!-- Node23 -->
<g id="node45" class="node"><title>Node23</title>
<polygon fill="white" stroke="#bfbfbf" points="964.045,-116.5 964.045,-137.5 993.045,-137.5 993.045,-116.5 964.045,-116.5"/>
<text text-anchor="middle" x="978.545" y="-124.5" font-family="Helvetica,sans-Serif" font-size="10.00">list</text>
</g>
<!-- Node1&#45;&gt;Node23 -->
<g id="edge44" class="edge"><title>Node1&#45;&gt;Node23</title>
<path fill="none" stroke="midnightblue" d="M1472.03,-358.093C1360.02,-355.091 1040.21,-343.79 1006.54,-312 961.189,-269.169 968.125,-186.49 974.422,-147.851"/>
<polygon fill="midnightblue" stroke="midnightblue" points="977.908,-148.236 976.217,-137.777 971.017,-147.008 977.908,-148.236"/>
</g>
<!-- Node24 -->
<g id="node47" class="node"><title>Node24</title>
<polygon fill="white" stroke="#bfbfbf" points="2486.54,-290.5 2486.54,-311.5 2546.54,-311.5 2546.54,-290.5 2486.54,-290.5"/>
<text text-anchor="middle" x="2516.54" y="-298.5" font-family="Helvetica,sans-Serif" font-size="10.00">algorithm</text>
</g>
<!-- Node1&#45;&gt;Node24 -->
<g id="edge46" class="edge"><title>Node1&#45;&gt;Node24</title>
<path fill="none" stroke="midnightblue" d="M1549.28,-358.287C1703.49,-355.271 2274.73,-342.364 2476.56,-311.776"/>
<polygon fill="midnightblue" stroke="midnightblue" points="2477.13,-315.229 2486.46,-310.211 2476.04,-308.315 2477.13,-315.229"/>
</g>
<!-- Node25 -->
<g id="node49" class="node"><title>Node25</title>
<polygon fill="white" stroke="#bfbfbf" points="2564.04,-290.5 2564.04,-311.5 2601.04,-311.5 2601.04,-290.5 2564.04,-290.5"/>
<text text-anchor="middle" x="2582.54" y="-298.5" font-family="Helvetica,sans-Serif" font-size="10.00">map</text>
</g>
<!-- Node1&#45;&gt;Node25 -->
<g id="edge48" class="edge"><title>Node1&#45;&gt;Node25</title>
<path fill="none" stroke="midnightblue" d="M1549.3,-358.04C1721.9,-353.66 2417.85,-334.877 2554.11,-311.452"/>
<polygon fill="midnightblue" stroke="midnightblue" points="2554.78,-314.887 2563.92,-309.539 2553.44,-308.017 2554.78,-314.887"/>
</g>
<!-- Node26 -->
<g id="node51" class="node"><title>Node26</title>
<polygon fill="white" stroke="#bfbfbf" points="2618.54,-290.5 2618.54,-311.5 2676.54,-311.5 2676.54,-290.5 2618.54,-290.5"/>
<text text-anchor="middle" x="2647.54" y="-298.5" font-family="Helvetica,sans-Serif" font-size="10.00">QWidget</text>
</g>
<!-- Node1&#45;&gt;Node26 -->
<g id="edge50" class="edge"><title>Node1&#45;&gt;Node26</title>
<path fill="none" stroke="midnightblue" d="M1549.29,-358.583C1716.67,-356.596 2379.24,-346.751 2608.32,-311.807"/>
<polygon fill="midnightblue" stroke="midnightblue" points="2608.92,-315.256 2618.25,-310.232 2607.82,-308.343 2608.92,-315.256"/>
</g>
<!-- Node27 -->
<g id="node53" class="node"><title>Node27</title>
<polygon fill="white" stroke="#bfbfbf" points="2694.04,-290.5 2694.04,-311.5 2771.04,-311.5 2771.04,-290.5 2694.04,-290.5"/>
<text text-anchor="middle" x="2732.54" y="-298.5" font-family="Helvetica,sans-Serif" font-size="10.00">QApplication</text>
</g>
<!-- Node1&#45;&gt;Node27 -->
<g id="edge52" class="edge"><title>Node1&#45;&gt;Node27</title>
<path fill="none" stroke="midnightblue" d="M1549.22,-358.441C1723.61,-355.769 2438.54,-343.181 2683.99,-311.961"/>
<polygon fill="midnightblue" stroke="midnightblue" points="2684.47,-315.428 2693.92,-310.652 2683.55,-308.488 2684.47,-315.428"/>
</g>
<!-- Node28 -->
<g id="node55" class="node"><title>Node28</title>
<polygon fill="white" stroke="#bfbfbf" points="2788.54,-290.5 2788.54,-311.5 2858.54,-311.5 2858.54,-290.5 2788.54,-290.5"/>
<text text-anchor="middle" x="2823.54" y="-298.5" font-family="Helvetica,sans-Serif" font-size="10.00">QKeyEvent</text>
</g>
<!-- Node1&#45;&gt;Node28 -->
<g id="edge54" class="edge"><title>Node1&#45;&gt;Node28</title>
<path fill="none" stroke="midnightblue" d="M1549.19,-358.651C1732.15,-356.837 2512.99,-347.22 2778.16,-311.901"/>
<polygon fill="midnightblue" stroke="midnightblue" points="2778.7,-315.36 2788.13,-310.526 2777.74,-308.425 2778.7,-315.36"/>
</g>
<!-- Node29 -->
<g id="node57" class="node"><title>Node29</title>
<polygon fill="white" stroke="#bfbfbf" points="746.545,-232.5 746.545,-253.5 840.545,-253.5 840.545,-232.5 746.545,-232.5"/>
<text text-anchor="middle" x="793.545" y="-240.5" font-family="Helvetica,sans-Serif" font-size="10.00">qsocketnotifier.h</text>
</g>
<!-- Node1&#45;&gt;Node29 -->
<g id="edge56" class="edge"><title>Node1&#45;&gt;Node29</title>
<path fill="none" stroke="midnightblue" d="M1472.01,-357.931C1339.83,-354.034 909.879,-339.36 854.545,-312 832.738,-301.218 815.306,-278.881 804.751,-262.532"/>
<polygon fill="midnightblue" stroke="midnightblue" points="807.563,-260.423 799.35,-253.73 801.597,-264.084 807.563,-260.423"/>
</g>
<!-- Node30 -->
<g id="node59" class="node"><title>Node30</title>
<polygon fill="white" stroke="#bfbfbf" points="2876.54,-290.5 2876.54,-311.5 2948.54,-311.5 2948.54,-290.5 2876.54,-290.5"/>
<text text-anchor="middle" x="2912.54" y="-298.5" font-family="Helvetica,sans-Serif" font-size="10.00">cjson/json.h</text>
</g>
<!-- Node1&#45;&gt;Node30 -->
<g id="edge58" class="edge"><title>Node1&#45;&gt;Node30</title>
<path fill="none" stroke="midnightblue" d="M1549.27,-358.731C1740.07,-357.244 2581.89,-348.759 2866.04,-311.911"/>
<polygon fill="midnightblue" stroke="midnightblue" points="2866.87,-315.33 2876.32,-310.531 2865.94,-308.393 2866.87,-315.33"/>
</g>
<!-- Node31 -->
<g id="node61" class="node"><title>Node31</title>
<a xlink:href="CustomEvents_8h.htm" target="_top" xlink:title="CustomEvents.h">
<polygon fill="white" stroke="black" points="439.545,-174.5 439.545,-195.5 531.545,-195.5 531.545,-174.5 439.545,-174.5"/>
<text text-anchor="middle" x="485.545" y="-182.5" font-family="Helvetica,sans-Serif" font-size="10.00">CustomEvents.h</text>
</a>
</g>
<!-- Node1&#45;&gt;Node31 -->
<g id="edge60" class="edge"><title>Node1&#45;&gt;Node31</title>
<path fill="none" stroke="midnightblue" d="M1472.02,-357.865C1346.81,-353.919 956.67,-339.52 907.545,-312 869.23,-290.536 887.442,-254.191 849.545,-232 792.335,-198.5 623.477,-206.066 541.707,-195.92"/>
<polygon fill="midnightblue" stroke="midnightblue" points="542.099,-192.441 531.709,-194.516 541.125,-199.373 542.099,-192.441"/>
</g>
<!-- Node33 -->
<g id="node66" class="node"><title>Node33</title>
<a xlink:href="Time_8h.htm" target="_top" xlink:title="Time.h">
<polygon fill="white" stroke="black" points="1200.54,-290.5 1200.54,-311.5 1248.54,-311.5 1248.54,-290.5 1200.54,-290.5"/>
<text text-anchor="middle" x="1224.54" y="-298.5" font-family="Helvetica,sans-Serif" font-size="10.00">Time.h</text>
</a>
</g>
<!-- Node1&#45;&gt;Node33 -->
<g id="edge66" class="edge"><title>Node1&#45;&gt;Node33</title>
<path fill="none" stroke="midnightblue" d="M1471.64,-352.798C1422.61,-344.711 1335.85,-329.516 1262.54,-312 1261.27,-311.695 1259.97,-311.374 1258.66,-311.041"/>
<polygon fill="midnightblue" stroke="midnightblue" points="1259.14,-307.547 1248.58,-308.328 1257.32,-314.306 1259.14,-307.547"/>
</g>
<!-- Node34 -->
<g id="node72" class="node"><title>Node34</title>
<a xlink:href="HostBase_8h.htm" target="_top" xlink:title="HostBase.h">
<polygon fill="white" stroke="black" points="237.045,-232.5 237.045,-253.5 308.045,-253.5 308.045,-232.5 237.045,-232.5"/>
<text text-anchor="middle" x="272.545" y="-240.5" font-family="Helvetica,sans-Serif" font-size="10.00">HostBase.h</text>
</a>
</g>
<!-- Node1&#45;&gt;Node34 -->
<g id="edge76" class="edge"><title>Node1&#45;&gt;Node34</title>
<path fill="none" stroke="midnightblue" d="M1471.87,-358.428C1273.03,-355.364 373.23,-339.995 321.545,-312 301.966,-301.396 288.396,-279.166 280.582,-262.791"/>
<polygon fill="midnightblue" stroke="midnightblue" points="283.717,-261.226 276.458,-253.508 277.32,-264.068 283.717,-261.226"/>
</g>
<!-- Node37 -->
<g id="node84" class="node"><title>Node37</title>
<a xlink:href="Event_8h.htm" target="_top" xlink:title="Event.h">
<polygon fill="white" stroke="black" points="894.545,-116.5 894.545,-137.5 946.545,-137.5 946.545,-116.5 894.545,-116.5"/>
<text text-anchor="middle" x="920.545" y="-124.5" font-family="Helvetica,sans-Serif" font-size="10.00">Event.h</text>
</a>
</g>
<!-- Node1&#45;&gt;Node37 -->
<g id="edge132" class="edge"><title>Node1&#45;&gt;Node37</title>
<path fill="none" stroke="midnightblue" d="M1471.93,-357.926C1357.17,-354.409 1023.74,-341.708 985.545,-312 933.697,-271.669 923.08,-187.037 920.996,-147.797"/>
<polygon fill="midnightblue" stroke="midnightblue" points="924.485,-147.445 920.597,-137.59 917.49,-147.719 924.485,-147.445"/>
</g>
<!-- Node45 -->
<g id="node112" class="node"><title>Node45</title>
<a xlink:href="MutexLocker_8h.htm" target="_top" xlink:title="MutexLocker.h">
<polygon fill="white" stroke="black" points="549.545,-174.5 549.545,-195.5 635.545,-195.5 635.545,-174.5 549.545,-174.5"/>
<text text-anchor="middle" x="592.545" y="-182.5" font-family="Helvetica,sans-Serif" font-size="10.00">MutexLocker.h</text>
</a>
</g>
<!-- Node1&#45;&gt;Node45 -->
<g id="edge134" class="edge"><title>Node1&#45;&gt;Node45</title>
<path fill="none" stroke="midnightblue" d="M1471.68,-357.896C1349.16,-354.134 976.355,-340.442 930.545,-312 895.317,-290.129 916.957,-255.132 882.545,-232 795.582,-173.542 752.783,-213.931 649.545,-196 648.288,-195.782 647.016,-195.558 645.734,-195.33"/>
<polygon fill="midnightblue" stroke="midnightblue" points="646.238,-191.865 635.773,-193.518 644.985,-198.752 646.238,-191.865"/>
</g>
<!-- Node46 -->
<g id="node116" class="node"><title>Node46</title>
<a xlink:href="Settings_8h.htm" target="_top" xlink:title="Settings.h">
<polygon fill="white" stroke="red" points="1369.04,-58.5 1369.04,-79.5 1432.04,-79.5 1432.04,-58.5 1369.04,-58.5"/>
<text text-anchor="middle" x="1400.54" y="-66.5" font-family="Helvetica,sans-Serif" font-size="10.00">Settings.h</text>
</a>
</g>
<!-- Node1&#45;&gt;Node46 -->
<g id="edge140" class="edge"><title>Node1&#45;&gt;Node46</title>
<path fill="none" stroke="midnightblue" d="M1472.01,-351.554C1449.76,-345.088 1423.49,-333.268 1409.54,-312 1403.57,-302.891 1405.15,-126.876 1404.54,-116 1404.07,-107.455 1403.32,-98.0549 1402.59,-89.9213"/>
<polygon fill="midnightblue" stroke="midnightblue" points="1406.06,-89.4454 1401.65,-79.8144 1399.09,-90.0967 1406.06,-89.4454"/>
</g>
<!-- Node49 -->
<g id="node124" class="node"><title>Node49</title>
<a xlink:href="HostArm_8h.htm" target="_top" xlink:title="HostArm.h">
<polygon fill="white" stroke="red" points="584.045,-290.5 584.045,-311.5 649.045,-311.5 649.045,-290.5 584.045,-290.5"/>
<text text-anchor="middle" x="616.545" y="-298.5" font-family="Helvetica,sans-Serif" font-size="10.00">HostArm.h</text>
</a>
</g>
<!-- Node1&#45;&gt;Node49 -->
<g id="edge150" class="edge"><title>Node1&#45;&gt;Node49</title>
<path fill="none" stroke="midnightblue" d="M1471.84,-356.489C1326.36,-347.051 812.781,-313.731 659.833,-303.808"/>
<polygon fill="midnightblue" stroke="midnightblue" points="659.66,-300.29 649.454,-303.135 659.207,-307.275 659.66,-300.29"/>
</g>
<!-- Node50 -->
<g id="node131" class="node"><title>Node50</title>
<a xlink:href="Logging_8h.htm" target="_top" xlink:title="Logging.h">
<polygon fill="white" stroke="red" points="1086.04,-116.5 1086.04,-137.5 1149.04,-137.5 1149.04,-116.5 1086.04,-116.5"/>
<text text-anchor="middle" x="1117.54" y="-124.5" font-family="Helvetica,sans-Serif" font-size="10.00">Logging.h</text>
</a>
</g>
<!-- Node1&#45;&gt;Node50 -->
<g id="edge162" class="edge"><title>Node1&#45;&gt;Node50</title>
<path fill="none" stroke="midnightblue" d="M1471.94,-356.325C1385.35,-349.977 1181.37,-332.952 1158.54,-312 1112.01,-269.274 1112.22,-186.542 1115.23,-147.871"/>
<polygon fill="midnightblue" stroke="midnightblue" points="1118.73,-148.067 1116.16,-137.788 1111.76,-147.424 1118.73,-148.067"/>
</g>
<!-- Node31&#45;&gt;Node2 -->
<g id="edge62" class="edge"><title>Node31&#45;&gt;Node2</title>
<path fill="none" stroke="midnightblue" d="M466.78,-174.469C446.987,-161.859 420.008,-139.48 430.545,-116 448.679,-75.5899 490.903,-44.3738 519.6,-26.8365"/>
<polygon fill="midnightblue" stroke="midnightblue" points="521.574,-29.7358 528.395,-21.6288 518.007,-23.7126 521.574,-29.7358"/>
</g>
<!-- Node32 -->
<g id="node64" class="node"><title>Node32</title>
<polygon fill="white" stroke="#bfbfbf" points="439.545,-116.5 439.545,-137.5 491.545,-137.5 491.545,-116.5 439.545,-116.5"/>
<text text-anchor="middle" x="465.545" y="-124.5" font-family="Helvetica,sans-Serif" font-size="10.00">QEvent</text>
</g>
<!-- Node31&#45;&gt;Node32 -->
<g id="edge64" class="edge"><title>Node31&#45;&gt;Node32</title>
<path fill="none" stroke="midnightblue" d="M481.876,-174.362C479.254,-166.758 475.646,-156.294 472.488,-147.135"/>
<polygon fill="midnightblue" stroke="midnightblue" points="475.758,-145.883 469.19,-137.571 469.141,-148.165 475.758,-145.883"/>
</g>
<!-- Node33&#45;&gt;Node2 -->
<g id="edge68" class="edge"><title>Node33&#45;&gt;Node2</title>
<path fill="none" stroke="midnightblue" d="M1200.14,-295.288C1146.74,-282.885 1015.4,-252.925 904.545,-232 806.324,-213.459 775.947,-231.595 682.545,-196 676.942,-193.865 595.648,-142.371 591.545,-138 571.396,-116.534 569.116,-107.842 559.545,-80 554.13,-64.25 551.359,-45.5472 549.954,-31.589"/>
<polygon fill="midnightblue" stroke="midnightblue" points="553.436,-31.2241 549.095,-21.5592 546.461,-31.8213 553.436,-31.2241"/>
</g>
<!-- Node33&#45;&gt;Node5 -->
<g id="edge74" class="edge"><title>Node33&#45;&gt;Node5</title>
<path fill="none" stroke="midnightblue" d="M1223.83,-290.434C1223.22,-276.648 1223.28,-251.937 1229.54,-232 1247.53,-174.776 1289.03,-116.46 1311.48,-87.579"/>
<polygon fill="midnightblue" stroke="midnightblue" points="1314.33,-89.6113 1317.79,-79.5946 1308.84,-85.2724 1314.33,-89.6113"/>
</g>
<!-- Node33&#45;&gt;Node17 -->
<g id="edge70" class="edge"><title>Node33&#45;&gt;Node17</title>
<path fill="none" stroke="midnightblue" d="M1232.8,-290.362C1239.01,-282.35 1247.7,-271.161 1255.06,-261.67"/>
<polygon fill="midnightblue" stroke="midnightblue" points="1257.98,-263.617 1261.34,-253.571 1252.45,-259.326 1257.98,-263.617"/>
</g>
<!-- Node33&#45;&gt;Node18 -->
<g id="edge72" class="edge"><title>Node33&#45;&gt;Node18</title>
<path fill="none" stroke="midnightblue" d="M1245.55,-290.497C1263.59,-281.479 1289.81,-268.365 1310.14,-258.201"/>
<polygon fill="midnightblue" stroke="midnightblue" points="1311.92,-261.224 1319.3,-253.621 1308.79,-254.963 1311.92,-261.224"/>
</g>
<!-- Node34&#45;&gt;Node2 -->
<g id="edge78" class="edge"><title>Node34&#45;&gt;Node2</title>
<path fill="none" stroke="midnightblue" d="M236.911,-242.195C170.943,-239.871 33.8239,-230.861 4.54459,-196 -1.74391,-188.513 -1.05678,-182.014 4.54459,-174 63.2769,-89.9669 385.614,-34.8923 504.491,-17.1853"/>
<polygon fill="midnightblue" stroke="midnightblue" points="505.302,-20.6037 514.685,-15.6844 504.282,-13.6784 505.302,-20.6037"/>
</g>
<!-- Node34&#45;&gt;Node31 -->
<g id="edge122" class="edge"><title>Node34&#45;&gt;Node31</title>
<path fill="none" stroke="midnightblue" d="M308.196,-233.292C343.494,-223.68 397.796,-208.894 437.015,-198.215"/>
<polygon fill="midnightblue" stroke="midnightblue" points="438.162,-201.53 446.891,-195.525 436.323,-194.776 438.162,-201.53"/>
</g>
<!-- Node35 -->
<g id="node75" class="node"><title>Node35</title>
<a xlink:href="TaskBase_8h.htm" target="_top" xlink:title="TaskBase.h">
<polygon fill="white" stroke="red" points="691.545,-174.5 691.545,-195.5 763.545,-195.5 763.545,-174.5 691.545,-174.5"/>
<text text-anchor="middle" x="727.545" y="-182.5" font-family="Helvetica,sans-Serif" font-size="10.00">TaskBase.h</text>
</a>
</g>
<!-- Node34&#45;&gt;Node35 -->
<g id="edge80" class="edge"><title>Node34&#45;&gt;Node35</title>
<path fill="none" stroke="midnightblue" d="M308.205,-238.568C374.469,-230.316 521.077,-211.981 644.545,-196 656.363,-194.47 669.124,-192.792 681.012,-191.218"/>
<polygon fill="midnightblue" stroke="midnightblue" points="681.737,-194.652 691.189,-189.867 680.815,-187.713 681.737,-194.652"/>
</g>
<!-- Node40 -->
<g id="node96" class="node"><title>Node40</title>
<a xlink:href="Mutex_8h.htm" target="_top" xlink:title="Mutex.h">
<polygon fill="white" stroke="black" points="623.045,-116.5 623.045,-137.5 676.045,-137.5 676.045,-116.5 623.045,-116.5"/>
<text text-anchor="middle" x="649.545" y="-124.5" font-family="Helvetica,sans-Serif" font-size="10.00">Mutex.h</text>
</a>
</g>
<!-- Node34&#45;&gt;Node40 -->
<g id="edge120" class="edge"><title>Node34&#45;&gt;Node40</title>
<path fill="none" stroke="midnightblue" d="M292.987,-232.486C322.618,-217.615 379.546,-190.425 430.545,-174 493.253,-153.804 568.876,-139.754 612.857,-132.561"/>
<polygon fill="midnightblue" stroke="midnightblue" points="613.483,-136.006 622.801,-130.964 612.372,-129.094 613.483,-136.006"/>
</g>
<!-- Node41 -->
<g id="node103" class="node"><title>Node41</title>
<a xlink:href="InputControl_8h.htm" target="_top" xlink:title="InputControl.h">
<polygon fill="white" stroke="red" points="13.0446,-174.5 13.0446,-195.5 96.0446,-195.5 96.0446,-174.5 13.0446,-174.5"/>
<text text-anchor="middle" x="54.5446" y="-182.5" font-family="Helvetica,sans-Serif" font-size="10.00">InputControl.h</text>
</a>
</g>
<!-- Node34&#45;&gt;Node41 -->
<g id="edge124" class="edge"><title>Node34&#45;&gt;Node41</title>
<path fill="none" stroke="midnightblue" d="M237.034,-233.552C200.809,-223.915 144.315,-208.884 103.781,-198.1"/>
<polygon fill="midnightblue" stroke="midnightblue" points="104.664,-194.713 94.1007,-195.524 102.865,-201.478 104.664,-194.713"/>
</g>
<!-- Node42 -->
<g id="node105" class="node"><title>Node42</title>
<a xlink:href="LedControl_8h.htm" target="_top" xlink:title="LedControl.h">
<polygon fill="white" stroke="black" points="113.045,-174.5 113.045,-195.5 190.045,-195.5 190.045,-174.5 113.045,-174.5"/>
<text text-anchor="middle" x="151.545" y="-182.5" font-family="Helvetica,sans-Serif" font-size="10.00">LedControl.h</text>
</a>
</g>
<!-- Node34&#45;&gt;Node42 -->
<g id="edge126" class="edge"><title>Node34&#45;&gt;Node42</title>
<path fill="none" stroke="midnightblue" d="M250.632,-232.497C231.734,-223.438 204.213,-210.246 182.969,-200.063"/>
<polygon fill="midnightblue" stroke="midnightblue" points="184.233,-196.788 173.703,-195.621 181.207,-203.1 184.233,-196.788"/>
</g>
<!-- Node43 -->
<g id="node107" class="node"><title>Node43</title>
<polygon fill="white" stroke="#bfbfbf" points="207.045,-174.5 207.045,-195.5 236.045,-195.5 236.045,-174.5 207.045,-174.5"/>
<text text-anchor="middle" x="221.545" y="-182.5" font-family="Helvetica,sans-Serif" font-size="10.00">Qt</text>
</g>
<!-- Node34&#45;&gt;Node43 -->
<g id="edge128" class="edge"><title>Node34&#45;&gt;Node43</title>
<path fill="none" stroke="midnightblue" d="M263.19,-232.362C256.001,-224.186 245.904,-212.702 237.452,-203.091"/>
<polygon fill="midnightblue" stroke="midnightblue" points="240.071,-200.769 230.839,-195.571 234.814,-205.392 240.071,-200.769"/>
</g>
<!-- Node44 -->
<g id="node109" class="node"><title>Node44</title>
<polygon fill="white" stroke="#bfbfbf" points="253.545,-174.5 253.545,-195.5 307.545,-195.5 307.545,-174.5 253.545,-174.5"/>
<text text-anchor="middle" x="280.545" y="-182.5" font-family="Helvetica,sans-Serif" font-size="10.00">QImage</text>
</g>
<!-- Node34&#45;&gt;Node44 -->
<g id="edge130" class="edge"><title>Node34&#45;&gt;Node44</title>
<path fill="none" stroke="midnightblue" d="M274.012,-232.362C275.038,-224.922 276.442,-214.743 277.686,-205.728"/>
<polygon fill="midnightblue" stroke="midnightblue" points="281.187,-205.955 279.087,-195.571 274.253,-204.999 281.187,-205.955"/>
</g>
<!-- Node35&#45;&gt;Node2 -->
<g id="edge82" class="edge"><title>Node35&#45;&gt;Node2</title>
<path fill="none" stroke="midnightblue" d="M691.418,-176.889C667.29,-169.941 636.141,-157.833 614.545,-138 582.23,-108.325 563.095,-59.172 554.331,-31.5246"/>
<polygon fill="midnightblue" stroke="midnightblue" points="557.621,-30.3109 551.383,-21.7473 550.919,-32.3319 557.621,-30.3109"/>
</g>
<!-- Node35&#45;&gt;Node22 -->
<g id="edge84" class="edge"><title>Node35&#45;&gt;Node22</title>
<path fill="none" stroke="midnightblue" d="M730.193,-174.454C736.967,-149.785 757.366,-88.1328 798.545,-58 829.788,-35.1373 941.646,-20.248 996.612,-14.1455"/>
<polygon fill="midnightblue" stroke="midnightblue" points="997.241,-17.598 1006.81,-13.0424 996.488,-10.6386 997.241,-17.598"/>
</g>
<!-- Node35&#45;&gt;Node23 -->
<g id="edge86" class="edge"><title>Node35&#45;&gt;Node23</title>
<path fill="none" stroke="midnightblue" d="M763.799,-180.303C807.428,-174.051 882.827,-161.332 954.097,-137.968"/>
<polygon fill="midnightblue" stroke="midnightblue" points="955.302,-141.256 963.669,-134.756 953.075,-134.619 955.302,-141.256"/>
</g>
<!-- Node36 -->
<g id="node80" class="node"><title>Node36</title>
<a xlink:href="sptr_8h.htm" target="_top" xlink:title="sptr.h">
<polygon fill="white" stroke="black" points="671.045,-58.5 671.045,-79.5 714.045,-79.5 714.045,-58.5 671.045,-58.5"/>
<text text-anchor="middle" x="692.545" y="-66.5" font-family="Helvetica,sans-Serif" font-size="10.00">sptr.h</text>
</a>
</g>
<!-- Node35&#45;&gt;Node36 -->
<g id="edge88" class="edge"><title>Node35&#45;&gt;Node36</title>
<path fill="none" stroke="midnightblue" d="M724.315,-174.295C718.506,-155.045 706.209,-114.289 698.733,-89.5091"/>
<polygon fill="midnightblue" stroke="midnightblue" points="702.006,-88.2419 695.767,-79.6792 695.305,-90.264 702.006,-88.2419"/>
</g>
<!-- Node35&#45;&gt;Node37 -->
<g id="edge94" class="edge"><title>Node35&#45;&gt;Node37</title>
<path fill="none" stroke="midnightblue" d="M762.495,-174.497C797.099,-164.098 849.825,-148.252 884.728,-137.764"/>
<polygon fill="midnightblue" stroke="midnightblue" points="885.938,-141.055 894.508,-134.824 883.924,-134.351 885.938,-141.055"/>
</g>
<!-- Node35&#45;&gt;Node40 -->
<g id="edge112" class="edge"><title>Node35&#45;&gt;Node40</title>
<path fill="none" stroke="midnightblue" d="M713.238,-174.362C701.693,-165.777 685.244,-153.546 671.954,-143.664"/>
<polygon fill="midnightblue" stroke="midnightblue" points="673.873,-140.729 663.76,-137.571 669.696,-146.346 673.873,-140.729"/>
</g>
<!-- Node36&#45;&gt;Node2 -->
<g id="edge90" class="edge"><title>Node36&#45;&gt;Node2</title>
<path fill="none" stroke="midnightblue" d="M670.986,-60.3168C648.066,-51.0852 611.442,-36.3335 584.212,-25.3661"/>
<polygon fill="midnightblue" stroke="midnightblue" points="585.232,-22.0035 574.648,-21.5139 582.616,-28.4966 585.232,-22.0035"/>
</g>
<!-- Node36&#45;&gt;Node22 -->
<g id="edge92" class="edge"><title>Node36&#45;&gt;Node22</title>
<path fill="none" stroke="midnightblue" d="M714.25,-61.627C718.619,-60.2992 723.203,-59.0163 727.545,-58 824.752,-35.2438 942.309,-20.4357 996.915,-14.2693"/>
<polygon fill="midnightblue" stroke="midnightblue" points="997.419,-17.7348 1006.97,-13.1514 996.646,-10.7776 997.419,-17.7348"/>
</g>
<!-- Node37&#45;&gt;Node2 -->
<g id="edge96" class="edge"><title>Node37&#45;&gt;Node2</title>
<path fill="none" stroke="midnightblue" d="M894.479,-117.247C856.8,-103.302 784.803,-77.2296 722.545,-58 678.462,-44.3844 627.439,-30.8617 592.093,-21.8414"/>
<polygon fill="midnightblue" stroke="midnightblue" points="592.659,-18.3743 582.105,-19.3061 590.937,-25.1591 592.659,-18.3743"/>
</g>
<!-- Node37&#45;&gt;Node3 -->
<g id="edge102" class="edge"><title>Node37&#45;&gt;Node3</title>
<path fill="none" stroke="midnightblue" d="M946.85,-118.479C949.774,-117.608 952.716,-116.763 955.545,-116 1022.49,-97.9333 1043.09,-99.6152 1113.13,-80.2041"/>
<polygon fill="midnightblue" stroke="midnightblue" points="1114.19,-83.5402 1122.87,-77.4583 1112.3,-76.8027 1114.19,-83.5402"/>
</g>
<!-- Node37&#45;&gt;Node5 -->
<g id="edge98" class="edge"><title>Node37&#45;&gt;Node5</title>
<path fill="none" stroke="midnightblue" d="M946.782,-118.201C949.719,-117.382 952.682,-116.626 955.545,-116 1077.21,-89.398 1224.85,-76.2736 1291.22,-71.3649"/>
<polygon fill="midnightblue" stroke="midnightblue" points="1291.81,-74.8316 1301.54,-70.6206 1291.31,-67.8497 1291.81,-74.8316"/>
</g>
<!-- Node37&#45;&gt;Node7 -->
<g id="edge104" class="edge"><title>Node37&#45;&gt;Node7</title>
<path fill="none" stroke="midnightblue" d="M946.607,-117.552C973.498,-107.804 1015.61,-92.5401 1045.42,-81.732"/>
<polygon fill="midnightblue" stroke="midnightblue" points="1046.81,-84.9504 1055.02,-78.2519 1044.43,-78.3695 1046.81,-84.9504"/>
</g>
<!-- Node37&#45;&gt;Node22 -->
<g id="edge100" class="edge"><title>Node37&#45;&gt;Node22</title>
<path fill="none" stroke="midnightblue" d="M946.578,-119.364C966.351,-112.26 992.753,-99.7505 1008.54,-80 1019.55,-66.235 1024.19,-46.5406 1026.15,-31.7134"/>
<polygon fill="midnightblue" stroke="midnightblue" points="1029.65,-31.8031 1027.17,-21.5025 1022.69,-31.1011 1029.65,-31.8031"/>
</g>
<!-- Node37&#45;&gt;Node36 -->
<g id="edge110" class="edge"><title>Node37&#45;&gt;Node36</title>
<path fill="none" stroke="midnightblue" d="M894.39,-120.347C852.286,-109.636 769.617,-88.606 724.232,-77.0608"/>
<polygon fill="midnightblue" stroke="midnightblue" points="724.896,-73.6183 714.342,-74.5449 723.17,-80.4022 724.896,-73.6183"/>
</g>
<!-- Node38 -->
<g id="node91" class="node"><title>Node38</title>
<polygon fill="white" stroke="#bfbfbf" points="807.545,-58.5 807.545,-79.5 893.545,-79.5 893.545,-58.5 807.545,-58.5"/>
<text text-anchor="middle" x="850.545" y="-66.5" font-family="Helvetica,sans-Serif" font-size="10.00">qnamespace.h</text>
</g>
<!-- Node37&#45;&gt;Node38 -->
<g id="edge106" class="edge"><title>Node37&#45;&gt;Node38</title>
<path fill="none" stroke="midnightblue" d="M907.706,-116.362C897.542,-107.941 883.143,-96.0105 871.34,-86.2308"/>
<polygon fill="midnightblue" stroke="midnightblue" points="873.236,-83.2558 863.302,-79.5707 868.769,-88.6459 873.236,-83.2558"/>
</g>
<!-- Node39 -->
<g id="node93" class="node"><title>Node39</title>
<polygon fill="white" stroke="#bfbfbf" points="911.545,-58.5 911.545,-79.5 999.545,-79.5 999.545,-58.5 911.545,-58.5"/>
<text text-anchor="middle" x="955.545" y="-66.5" font-family="Helvetica,sans-Serif" font-size="10.00">SysMgrEvent.h</text>
</g>
<!-- Node37&#45;&gt;Node39 -->
<g id="edge108" class="edge"><title>Node37&#45;&gt;Node39</title>
<path fill="none" stroke="midnightblue" d="M926.964,-116.362C931.7,-108.513 938.276,-97.6159 943.927,-88.2527"/>
<polygon fill="midnightblue" stroke="midnightblue" points="946.996,-89.9409 949.166,-79.5707 941.002,-86.3242 946.996,-89.9409"/>
</g>
<!-- Node40&#45;&gt;Node2 -->
<g id="edge114" class="edge"><title>Node40&#45;&gt;Node2</title>
<path fill="none" stroke="midnightblue" d="M640.224,-116.295C622.937,-96.4408 585.731,-53.709 564.412,-29.2239"/>
<polygon fill="midnightblue" stroke="midnightblue" points="567.049,-26.9228 557.843,-21.6792 561.77,-31.5194 567.049,-26.9228"/>
</g>
<!-- Node40&#45;&gt;Node22 -->
<g id="edge118" class="edge"><title>Node40&#45;&gt;Node22</title>
<path fill="none" stroke="midnightblue" d="M648.082,-116.348C646.641,-101.053 646.585,-73.0576 662.545,-58 686.753,-35.1603 913.361,-18.3637 996.851,-12.9038"/>
<polygon fill="midnightblue" stroke="midnightblue" points="997.222,-16.3873 1006.98,-12.2517 996.772,-9.40179 997.222,-16.3873"/>
</g>
<!-- Node40&#45;&gt;Node36 -->
<g id="edge116" class="edge"><title>Node40&#45;&gt;Node36</title>
<path fill="none" stroke="midnightblue" d="M657.431,-116.362C663.372,-108.35 671.667,-97.1605 678.703,-87.6696"/>
<polygon fill="midnightblue" stroke="midnightblue" points="681.564,-89.6883 684.708,-79.5707 675.941,-85.5193 681.564,-89.6883"/>
</g>
<!-- Node45&#45;&gt;Node2 -->
<g id="edge136" class="edge"><title>Node45&#45;&gt;Node2</title>
<path fill="none" stroke="midnightblue" d="M578.779,-174.138C568.172,-165.255 553.656,-151.926 543.545,-138 526.727,-114.837 521.928,-107.904 515.545,-80 513.364,-70.4684 512.598,-67.3233 515.545,-58 518.845,-47.5574 525.388,-37.4231 531.784,-29.2551"/>
<polygon fill="midnightblue" stroke="midnightblue" points="534.52,-31.4395 538.254,-21.5245 529.152,-26.9468 534.52,-31.4395"/>
</g>
<!-- Node45&#45;&gt;Node40 -->
<g id="edge138" class="edge"><title>Node45&#45;&gt;Node40</title>
<path fill="none" stroke="midnightblue" d="M602.999,-174.362C611.114,-166.104 622.546,-154.472 632.049,-144.803"/>
<polygon fill="midnightblue" stroke="midnightblue" points="634.643,-147.156 639.156,-137.571 629.651,-142.25 634.643,-147.156"/>
</g>
<!-- Node46&#45;&gt;Node2 -->
<g id="edge142" class="edge"><title>Node46&#45;&gt;Node2</title>
<path fill="none" stroke="midnightblue" d="M1368.8,-59.6219C1366.03,-58.9992 1363.25,-58.4444 1360.54,-58 1210.68,-33.3391 739.321,-16.9364 592.592,-12.3264"/>
<polygon fill="midnightblue" stroke="midnightblue" points="592.3,-8.81567 582.196,-12.0025 592.082,-15.8123 592.3,-8.81567"/>
</g>
<!-- Node46&#45;&gt;Node22 -->
<g id="edge148" class="edge"><title>Node46&#45;&gt;Node22</title>
<path fill="none" stroke="midnightblue" d="M1368.76,-59.8631C1365.99,-59.188 1363.22,-58.5552 1360.54,-58 1250.48,-35.1966 1117.63,-20.1103 1058.52,-14.0304"/>
<polygon fill="midnightblue" stroke="midnightblue" points="1058.66,-10.5271 1048.36,-13.0001 1057.95,-17.4914 1058.66,-10.5271"/>
</g>
<!-- Node47 -->
<g id="node119" class="node"><title>Node47</title>
<polygon fill="white" stroke="#bfbfbf" points="1348.04,-0.5 1348.04,-21.5 1391.04,-21.5 1391.04,-0.5 1348.04,-0.5"/>
<text text-anchor="middle" x="1369.54" y="-8.5" font-family="Helvetica,sans-Serif" font-size="10.00">string</text>
</g>
<!-- Node46&#45;&gt;Node47 -->
<g id="edge144" class="edge"><title>Node46&#45;&gt;Node47</title>
<path fill="none" stroke="midnightblue" d="M1394.86,-58.3619C1390.71,-50.5949 1384.96,-39.8426 1379.99,-30.5458"/>
<polygon fill="midnightblue" stroke="midnightblue" points="1383,-28.7401 1375.19,-21.5707 1376.82,-32.0398 1383,-28.7401"/>
</g>
<!-- Node48 -->
<g id="node121" class="node"><title>Node48</title>
<polygon fill="white" stroke="#bfbfbf" points="1408.54,-0.5 1408.54,-21.5 1454.54,-21.5 1454.54,-0.5 1408.54,-0.5"/>
<text text-anchor="middle" x="1431.54" y="-8.5" font-family="Helvetica,sans-Serif" font-size="10.00">vector</text>
</g>
<!-- Node46&#45;&gt;Node48 -->
<g id="edge146" class="edge"><title>Node46&#45;&gt;Node48</title>
<path fill="none" stroke="midnightblue" d="M1406.23,-58.3619C1410.38,-50.5949 1416.13,-39.8426 1421.1,-30.5458"/>
<polygon fill="midnightblue" stroke="midnightblue" points="1424.27,-32.0398 1425.89,-21.5707 1418.09,-28.7401 1424.27,-32.0398"/>
</g>
<!-- Node49&#45;&gt;Node2 -->
<g id="edge152" class="edge"><title>Node49&#45;&gt;Node2</title>
<path fill="none" stroke="midnightblue" d="M584.025,-292.761C517.809,-275.029 373.545,-231.105 373.545,-185 373.545,-185 373.545,-185 373.545,-127 373.545,-64.1229 453.002,-33.3134 504.836,-19.9044"/>
<polygon fill="midnightblue" stroke="midnightblue" points="505.93,-23.2397 514.803,-17.4502 504.256,-16.4427 505.93,-23.2397"/>
</g>
<!-- Node49&#45;&gt;Node29 -->
<g id="edge160" class="edge"><title>Node49&#45;&gt;Node29</title>
<path fill="none" stroke="midnightblue" d="M648.598,-290.497C677.454,-281.041 720.05,-267.083 751.605,-256.743"/>
<polygon fill="midnightblue" stroke="midnightblue" points="753.018,-259.963 761.431,-253.523 750.838,-253.311 753.018,-259.963"/>
</g>
<!-- Node49&#45;&gt;Node31 -->
<g id="edge158" class="edge"><title>Node49&#45;&gt;Node31</title>
<path fill="none" stroke="midnightblue" d="M604.455,-290.295C581.839,-270.268 532.935,-226.964 505.408,-202.589"/>
<polygon fill="midnightblue" stroke="midnightblue" points="507.412,-199.688 497.605,-195.679 502.771,-204.929 507.412,-199.688"/>
</g>
<!-- Node49&#45;&gt;Node34 -->
<g id="edge154" class="edge"><title>Node49&#45;&gt;Node34</title>
<path fill="none" stroke="midnightblue" d="M583.872,-295.491C522.17,-285.088 388.392,-262.532 317.98,-250.661"/>
<polygon fill="midnightblue" stroke="midnightblue" points="318.509,-247.201 308.067,-248.989 317.346,-254.103 318.509,-247.201"/>
</g>
<!-- Node49&#45;&gt;Node37 -->
<g id="edge156" class="edge"><title>Node49&#45;&gt;Node37</title>
<path fill="none" stroke="midnightblue" d="M635.104,-290.377C686.725,-260.831 832.205,-177.563 893.149,-142.68"/>
<polygon fill="midnightblue" stroke="midnightblue" points="894.902,-145.71 901.842,-137.705 891.425,-139.635 894.902,-145.71"/>
</g>
<!-- Node50&#45;&gt;Node2 -->
<g id="edge164" class="edge"><title>Node50&#45;&gt;Node2</title>
<path fill="none" stroke="midnightblue" d="M1138.56,-116.337C1162.89,-102.657 1197.36,-78.274 1178.54,-58 1158.59,-36.5036 732.049,-18.1135 592.384,-12.6493"/>
<polygon fill="midnightblue" stroke="midnightblue" points="592.193,-9.13935 582.065,-12.2487 591.922,-16.1341 592.193,-9.13935"/>
</g>
<!-- Node50&#45;&gt;Node3 -->
<g id="edge166" class="edge"><title>Node50&#45;&gt;Node3</title>
<path fill="none" stroke="midnightblue" d="M1122.86,-116.362C1126.75,-108.595 1132.12,-97.8426 1136.77,-88.5458"/>
<polygon fill="midnightblue" stroke="midnightblue" points="1139.92,-90.0802 1141.26,-79.5707 1133.66,-86.9497 1139.92,-90.0802"/>
</g>
<!-- Node50&#45;&gt;Node22 -->
<g id="edge168" class="edge"><title>Node50&#45;&gt;Node22</title>
<path fill="none" stroke="midnightblue" d="M1149.08,-118.173C1183.99,-106.816 1232.72,-85.2601 1211.54,-58 1192.88,-33.9735 1105.51,-20.1632 1058.19,-14.3255"/>
<polygon fill="midnightblue" stroke="midnightblue" points="1058.53,-10.8414 1048.18,-13.1368 1057.7,-17.7925 1058.53,-10.8414"/>
</g>
</g>
</svg>
