<?xml version="1.0" encoding="UTF-8" standalone="no"?>
<!DOCTYPE svg PUBLIC "-//W3C//DTD SVG 1.1//EN"
 "http://www.w3.org/Graphics/SVG/1.1/DTD/svg11.dtd">
<!-- Generated by graphviz version 2.26.3 (20100126.1600)
 -->
<!-- Title: HostQtDesktop.cpp Pages: 1 -->
<svg width="2396pt" height="378pt"
 viewBox="0.00 0.00 2395.55 378.00" xmlns="http://www.w3.org/2000/svg" xmlns:xlink="http://www.w3.org/1999/xlink">
<g id="graph1" class="graph" transform="scale(1 1) rotate(0) translate(4 374)">
<title>HostQtDesktop.cpp</title>
<polygon fill="white" stroke="white" points="-4,5 -4,-374 2392.55,-374 2392.55,5 -4,5"/>
<!-- Node1 -->
<g id="node1" class="node"><title>Node1</title>
<polygon fill="#bfbfbf" stroke="black" points="1429.55,-348.5 1429.55,-369.5 1537.55,-369.5 1537.55,-348.5 1429.55,-348.5"/>
<text text-anchor="middle" x="1483.55" y="-356.5" font-family="Helvetica,sans-Serif" font-size="10.00">HostQtDesktop.cpp</text>
</g>
<!-- Node2 -->
<g id="node3" class="node"><title>Node2</title>
<a xlink:href="Common_8h.htm" target="_top" xlink:title="Common.h">
<polygon fill="white" stroke="black" points="792.05,-0.5 792.05,-21.5 859.05,-21.5 859.05,-0.5 792.05,-0.5"/>
<text text-anchor="middle" x="825.55" y="-8.5" font-family="Helvetica,sans-Serif" font-size="10.00">Common.h</text>
</a>
</g>
<!-- Node1&#45;&gt;Node2 -->
<g id="edge2" class="edge"><title>Node1&#45;&gt;Node2</title>
<path fill="none" stroke="midnightblue" d="M1537.78,-356.086C1642.42,-349.984 1864.25,-334.535 1890.55,-312 1914.7,-291.302 1909.55,-274.808 1909.55,-243 1909.55,-243 1909.55,-243 1909.55,-127 1909.55,-73.7741 1072.37,-24.5118 869.455,-13.3531"/>
<polygon fill="midnightblue" stroke="midnightblue" points="869.356,-9.84253 859.18,-12.7909 868.974,-16.8321 869.356,-9.84253"/>
</g>
<!-- Node3 -->
<g id="node5" class="node"><title>Node3</title>
<a xlink:href="HostQtDesktop_8h.htm" target="_top" xlink:title="HostQtDesktop.h">
<polygon fill="white" stroke="black" points="709.05,-290.5 709.05,-311.5 806.05,-311.5 806.05,-290.5 709.05,-290.5"/>
<text text-anchor="middle" x="757.55" y="-298.5" font-family="Helvetica,sans-Serif" font-size="10.00">HostQtDesktop.h</text>
</a>
</g>
<!-- Node1&#45;&gt;Node3 -->
<g id="edge4" class="edge"><title>Node1&#45;&gt;Node3</title>
<path fill="none" stroke="midnightblue" d="M1429.14,-357.083C1315.52,-352.656 1044.92,-339.89 819.55,-312 818.465,-311.866 817.37,-311.725 816.268,-311.579"/>
<polygon fill="midnightblue" stroke="midnightblue" points="816.61,-308.092 806.213,-310.131 815.612,-315.021 816.61,-308.092"/>
</g>
<!-- Node4 -->
<g id="node8" class="node"><title>Node4</title>
<polygon fill="white" stroke="#bfbfbf" points="785.55,-232.5 785.55,-253.5 843.55,-253.5 843.55,-232.5 785.55,-232.5"/>
<text text-anchor="middle" x="814.55" y="-240.5" font-family="Helvetica,sans-Serif" font-size="10.00">QWidget</text>
</g>
<!-- Node1&#45;&gt;Node4 -->
<g id="edge112" class="edge"><title>Node1&#45;&gt;Node4</title>
<path fill="none" stroke="midnightblue" d="M1429.35,-357.717C1286.23,-353.939 905.86,-341.237 857.55,-312 839.521,-301.089 827.896,-279.437 821.337,-263.283"/>
<polygon fill="midnightblue" stroke="midnightblue" points="824.512,-261.779 817.742,-253.629 817.952,-264.222 824.512,-261.779"/>
</g>
<!-- Node19 -->
<g id="node54" class="node"><title>Node19</title>
<a xlink:href="CustomEvents_8h.htm" target="_top" xlink:title="CustomEvents.h">
<polygon fill="white" stroke="black" points="881.55,-174.5 881.55,-195.5 973.55,-195.5 973.55,-174.5 881.55,-174.5"/>
<text text-anchor="middle" x="927.55" y="-182.5" font-family="Helvetica,sans-Serif" font-size="10.00">CustomEvents.h</text>
</a>
</g>
<!-- Node1&#45;&gt;Node19 -->
<g id="edge126" class="edge"><title>Node1&#45;&gt;Node19</title>
<path fill="none" stroke="midnightblue" d="M1429.44,-357.616C1295.77,-353.762 957.816,-341.214 916.55,-312 886.036,-290.398 878.313,-267.327 890.55,-232 894.271,-221.255 901.579,-211.103 908.723,-203.003"/>
<polygon fill="midnightblue" stroke="midnightblue" points="911.355,-205.314 915.675,-195.64 906.265,-200.508 911.355,-205.314"/>
</g>
<!-- Node26 -->
<g id="node69" class="node"><title>Node26</title>
<a xlink:href="Settings_8h.htm" target="_top" xlink:title="Settings.h">
<polygon fill="white" stroke="black" points="1975.05,-58.5 1975.05,-79.5 2038.05,-79.5 2038.05,-58.5 1975.05,-58.5"/>
<text text-anchor="middle" x="2006.55" y="-66.5" font-family="Helvetica,sans-Serif" font-size="10.00">Settings.h</text>
</a>
</g>
<!-- Node1&#45;&gt;Node26 -->
<g id="edge86" class="edge"><title>Node1&#45;&gt;Node26</title>
<path fill="none" stroke="midnightblue" d="M1537.72,-357.305C1704.99,-351.846 2203.72,-333.808 2230.55,-312 2255.23,-291.938 2249.55,-274.808 2249.55,-243 2249.55,-243 2249.55,-243 2249.55,-185 2249.55,-140.889 2117.49,-98.7749 2048.08,-79.6851"/>
<polygon fill="midnightblue" stroke="midnightblue" points="2048.88,-76.2768 2038.32,-77.0382 2047.05,-83.0329 2048.88,-76.2768"/>
</g>
<!-- Node32 -->
<g id="node83" class="node"><title>Node32</title>
<polygon fill="white" stroke="#bfbfbf" points="1037.05,-290.5 1037.05,-311.5 1114.05,-311.5 1114.05,-290.5 1037.05,-290.5"/>
<text text-anchor="middle" x="1075.55" y="-298.5" font-family="Helvetica,sans-Serif" font-size="10.00">QApplication</text>
</g>
<!-- Node1&#45;&gt;Node32 -->
<g id="edge102" class="edge"><title>Node1&#45;&gt;Node32</title>
<path fill="none" stroke="midnightblue" d="M1429.47,-353.672C1360.65,-346.513 1237.95,-332.478 1124.14,-312.166"/>
<polygon fill="midnightblue" stroke="midnightblue" points="1124.68,-308.706 1114.21,-310.374 1123.43,-315.595 1124.68,-308.706"/>
</g>
<!-- Node33 -->
<g id="node85" class="node"><title>Node33</title>
<polygon fill="white" stroke="#bfbfbf" points="1131.55,-290.5 1131.55,-311.5 1213.55,-311.5 1213.55,-290.5 1131.55,-290.5"/>
<text text-anchor="middle" x="1172.55" y="-298.5" font-family="Helvetica,sans-Serif" font-size="10.00">QHBoxLayout</text>
</g>
<!-- Node1&#45;&gt;Node33 -->
<g id="edge104" class="edge"><title>Node1&#45;&gt;Node33</title>
<path fill="none" stroke="midnightblue" d="M1429.45,-349.881C1378.75,-341.196 1300.62,-327.449 1223.6,-312.16"/>
<polygon fill="midnightblue" stroke="midnightblue" points="1224.22,-308.714 1213.72,-310.19 1222.85,-315.579 1224.22,-308.714"/>
</g>
<!-- Node34 -->
<g id="node87" class="node"><title>Node34</title>
<polygon fill="white" stroke="#bfbfbf" points="1231.05,-290.5 1231.05,-311.5 1312.05,-311.5 1312.05,-290.5 1231.05,-290.5"/>
<text text-anchor="middle" x="1271.55" y="-298.5" font-family="Helvetica,sans-Serif" font-size="10.00">QVBoxLayout</text>
</g>
<!-- Node1&#45;&gt;Node34 -->
<g id="edge106" class="edge"><title>Node1&#45;&gt;Node34</title>
<path fill="none" stroke="midnightblue" d="M1445.16,-348.497C1410,-338.877 1357.8,-324.598 1319.83,-314.209"/>
<polygon fill="midnightblue" stroke="midnightblue" points="1320.58,-310.786 1310.01,-311.523 1318.74,-317.538 1320.58,-310.786"/>
</g>
<!-- Node35 -->
<g id="node89" class="node"><title>Node35</title>
<polygon fill="white" stroke="#bfbfbf" points="1329.05,-290.5 1329.05,-311.5 1418.05,-311.5 1418.05,-290.5 1329.05,-290.5"/>
<text text-anchor="middle" x="1373.55" y="-298.5" font-family="Helvetica,sans-Serif" font-size="10.00">QGestureEvent</text>
</g>
<!-- Node1&#45;&gt;Node35 -->
<g id="edge108" class="edge"><title>Node1&#45;&gt;Node35</title>
<path fill="none" stroke="midnightblue" d="M1463.63,-348.497C1446.6,-339.519 1421.88,-326.484 1402.64,-316.339"/>
<polygon fill="midnightblue" stroke="midnightblue" points="1404.17,-313.189 1393.69,-311.621 1400.91,-319.381 1404.17,-313.189"/>
</g>
<!-- Node36 -->
<g id="node91" class="node"><title>Node36</title>
<polygon fill="white" stroke="#bfbfbf" points="1435.05,-290.5 1435.05,-311.5 1532.05,-311.5 1532.05,-290.5 1435.05,-290.5"/>
<text text-anchor="middle" x="1483.55" y="-298.5" font-family="Helvetica,sans-Serif" font-size="10.00">QDesktopWidget</text>
</g>
<!-- Node1&#45;&gt;Node36 -->
<g id="edge110" class="edge"><title>Node1&#45;&gt;Node36</title>
<path fill="none" stroke="midnightblue" d="M1483.55,-348.362C1483.55,-340.922 1483.55,-330.743 1483.55,-321.728"/>
<polygon fill="midnightblue" stroke="midnightblue" points="1487.05,-321.571 1483.55,-311.571 1480.05,-321.571 1487.05,-321.571"/>
</g>
<!-- Node37 -->
<g id="node94" class="node"><title>Node37</title>
<polygon fill="white" stroke="#bfbfbf" points="1549.55,-290.5 1549.55,-311.5 1627.55,-311.5 1627.55,-290.5 1549.55,-290.5"/>
<text text-anchor="middle" x="1588.55" y="-298.5" font-family="Helvetica,sans-Serif" font-size="10.00">QPushButton</text>
</g>
<!-- Node1&#45;&gt;Node37 -->
<g id="edge114" class="edge"><title>Node1&#45;&gt;Node37</title>
<path fill="none" stroke="midnightblue" d="M1502.81,-348.362C1519.02,-339.409 1542.4,-326.491 1560.66,-316.406"/>
<polygon fill="midnightblue" stroke="midnightblue" points="1562.35,-319.47 1569.41,-311.571 1558.97,-313.342 1562.35,-319.47"/>
</g>
<!-- Node38 -->
<g id="node96" class="node"><title>Node38</title>
<polygon fill="white" stroke="#bfbfbf" points="1645.55,-290.5 1645.55,-311.5 1697.55,-311.5 1697.55,-290.5 1645.55,-290.5"/>
<text text-anchor="middle" x="1671.55" y="-298.5" font-family="Helvetica,sans-Serif" font-size="10.00">QTimer</text>
</g>
<!-- Node1&#45;&gt;Node38 -->
<g id="edge116" class="edge"><title>Node1&#45;&gt;Node38</title>
<path fill="none" stroke="midnightblue" d="M1518.21,-348.424C1547.17,-339.57 1589.81,-326.497 1635.41,-312.343"/>
<polygon fill="midnightblue" stroke="midnightblue" points="1636.67,-315.616 1645.18,-309.307 1634.59,-308.932 1636.67,-315.616"/>
</g>
<!-- Node39 -->
<g id="node98" class="node"><title>Node39</title>
<polygon fill="white" stroke="#bfbfbf" points="1715.55,-290.5 1715.55,-311.5 1773.55,-311.5 1773.55,-290.5 1715.55,-290.5"/>
<text text-anchor="middle" x="1744.55" y="-298.5" font-family="Helvetica,sans-Serif" font-size="10.00">QtDebug</text>
</g>
<!-- Node1&#45;&gt;Node39 -->
<g id="edge118" class="edge"><title>Node1&#45;&gt;Node39</title>
<path fill="none" stroke="midnightblue" d="M1537.88,-348.718C1580.89,-340.313 1642.69,-327.652 1705.13,-312.24"/>
<polygon fill="midnightblue" stroke="midnightblue" points="1706.29,-315.557 1715.15,-309.744 1704.6,-308.765 1706.29,-315.557"/>
</g>
<!-- Node40 -->
<g id="node100" class="node"><title>Node40</title>
<polygon fill="white" stroke="#bfbfbf" points="1791.55,-290.5 1791.55,-311.5 1881.55,-311.5 1881.55,-290.5 1791.55,-290.5"/>
<text text-anchor="middle" x="1836.55" y="-298.5" font-family="Helvetica,sans-Serif" font-size="10.00">QGraphicsView</text>
</g>
<!-- Node1&#45;&gt;Node40 -->
<g id="edge120" class="edge"><title>Node1&#45;&gt;Node40</title>
<path fill="none" stroke="midnightblue" d="M1537.69,-351.239C1595.57,-342.774 1690.27,-328.441 1781.54,-312.126"/>
<polygon fill="midnightblue" stroke="midnightblue" points="1782.27,-315.55 1791.5,-310.335 1781.04,-308.66 1782.27,-315.55"/>
</g>
<!-- Node41 -->
<g id="node102" class="node"><title>Node41</title>
<polygon fill="white" stroke="#bfbfbf" points="899.05,-232.5 899.05,-253.5 982.05,-253.5 982.05,-232.5 899.05,-232.5"/>
<text text-anchor="middle" x="940.55" y="-240.5" font-family="Helvetica,sans-Serif" font-size="10.00">SysMgrDefs.h</text>
</g>
<!-- Node1&#45;&gt;Node41 -->
<g id="edge122" class="edge"><title>Node1&#45;&gt;Node41</title>
<path fill="none" stroke="midnightblue" d="M1429.26,-358.479C1296.17,-356.638 962,-348.403 928.55,-312 916.469,-298.854 922.195,-278.088 929.275,-262.768"/>
<polygon fill="midnightblue" stroke="midnightblue" points="932.514,-264.12 933.949,-253.622 926.281,-260.934 932.514,-264.12"/>
</g>
<!-- Node42 -->
<g id="node104" class="node"><title>Node42</title>
<polygon fill="white" stroke="#bfbfbf" points="1937.05,-290.5 1937.05,-311.5 2068.05,-311.5 2068.05,-290.5 1937.05,-290.5"/>
<text text-anchor="middle" x="2002.55" y="-298.5" font-family="Helvetica,sans-Serif" font-size="10.00">SysMgrDeviceKeydefs.h</text>
</g>
<!-- Node1&#45;&gt;Node42 -->
<g id="edge124" class="edge"><title>Node1&#45;&gt;Node42</title>
<path fill="none" stroke="midnightblue" d="M1537.8,-353.767C1620.93,-345.623 1784.78,-329.069 1923.55,-312 1924.65,-311.865 1925.76,-311.727 1926.87,-311.588"/>
<polygon fill="midnightblue" stroke="midnightblue" points="1927.57,-315.027 1937.05,-310.285 1926.68,-308.083 1927.57,-315.027"/>
</g>
<!-- Node43 -->
<g id="node107" class="node"><title>Node43</title>
<a xlink:href="FlickGesture_8h.htm" target="_top" xlink:title="FlickGesture.h">
<polygon fill="white" stroke="black" points="937.05,-290.5 937.05,-311.5 1020.05,-311.5 1020.05,-290.5 937.05,-290.5"/>
<text text-anchor="middle" x="978.55" y="-298.5" font-family="Helvetica,sans-Serif" font-size="10.00">FlickGesture.h</text>
</a>
</g>
<!-- Node1&#45;&gt;Node43 -->
<g id="edge128" class="edge"><title>Node1&#45;&gt;Node43</title>
<path fill="none" stroke="midnightblue" d="M1429.36,-355.404C1345.74,-349.415 1180.07,-335.808 1030.51,-312.184"/>
<polygon fill="midnightblue" stroke="midnightblue" points="1030.65,-308.663 1020.22,-310.54 1029.55,-315.575 1030.65,-308.663"/>
</g>
<!-- Node46 -->
<g id="node115" class="node"><title>Node46</title>
<a xlink:href="FlickGestureRecognizer_8h.htm" target="_top" xlink:title="FlickGestureRecognizer.h">
<polygon fill="white" stroke="black" points="2085.05,-290.5 2085.05,-311.5 2222.05,-311.5 2222.05,-290.5 2085.05,-290.5"/>
<text text-anchor="middle" x="2153.55" y="-298.5" font-family="Helvetica,sans-Serif" font-size="10.00">FlickGestureRecognizer.h</text>
</a>
</g>
<!-- Node1&#45;&gt;Node46 -->
<g id="edge138" class="edge"><title>Node1&#45;&gt;Node46</title>
<path fill="none" stroke="midnightblue" d="M1537.62,-355.855C1640.32,-349.633 1870.86,-334.478 2074.74,-312.152"/>
<polygon fill="midnightblue" stroke="midnightblue" points="2075.17,-315.625 2084.73,-311.05 2074.41,-308.668 2075.17,-315.625"/>
</g>
<!-- Node49 -->
<g id="node123" class="node"><title>Node49</title>
<polygon fill="white" stroke="#bfbfbf" points="2277.55,-290.5 2277.55,-311.5 2387.55,-311.5 2387.55,-290.5 2277.55,-290.5"/>
<text text-anchor="middle" x="2332.55" y="-298.5" font-family="Helvetica,sans-Serif" font-size="10.00">HostQtDesktop.moc</text>
</g>
<!-- Node1&#45;&gt;Node49 -->
<g id="edge148" class="edge"><title>Node1&#45;&gt;Node49</title>
<path fill="none" stroke="midnightblue" d="M1537.61,-357.565C1664.61,-353.796 1991.82,-341.774 2263.55,-312 2264.66,-311.878 2265.79,-311.75 2266.92,-311.617"/>
<polygon fill="midnightblue" stroke="midnightblue" points="2267.77,-315.037 2277.25,-310.304 2266.89,-308.093 2267.77,-315.037"/>
</g>
<!-- Node3&#45;&gt;Node2 -->
<g id="edge6" class="edge"><title>Node3&#45;&gt;Node2</title>
<path fill="none" stroke="midnightblue" d="M758.12,-290.128C759.385,-275.56 763.455,-249.514 776.55,-232 794.717,-207.701 817.594,-221.159 834.55,-196 868.734,-145.276 847.147,-67.7888 833.797,-31.3181"/>
<polygon fill="midnightblue" stroke="midnightblue" points="836.99,-29.8694 830.146,-21.782 830.453,-32.3724 836.99,-29.8694"/>
</g>
<!-- Node3&#45;&gt;Node4 -->
<g id="edge8" class="edge"><title>Node3&#45;&gt;Node4</title>
<path fill="none" stroke="midnightblue" d="M768.004,-290.362C776.119,-282.104 787.551,-270.472 797.054,-260.803"/>
<polygon fill="midnightblue" stroke="midnightblue" points="799.648,-263.156 804.161,-253.571 794.655,-258.25 799.648,-263.156"/>
</g>
<!-- Node5 -->
<g id="node10" class="node"><title>Node5</title>
<a xlink:href="HostBase_8h.htm" target="_top" xlink:title="HostBase.h">
<polygon fill="white" stroke="black" points="528.05,-232.5 528.05,-253.5 599.05,-253.5 599.05,-232.5 528.05,-232.5"/>
<text text-anchor="middle" x="563.55" y="-240.5" font-family="Helvetica,sans-Serif" font-size="10.00">HostBase.h</text>
</a>
</g>
<!-- Node3&#45;&gt;Node5 -->
<g id="edge10" class="edge"><title>Node3&#45;&gt;Node5</title>
<path fill="none" stroke="midnightblue" d="M722.418,-290.497C690.516,-280.959 643.293,-266.841 608.621,-256.475"/>
<polygon fill="midnightblue" stroke="midnightblue" points="609.331,-253.034 598.747,-253.523 607.326,-259.741 609.331,-253.034"/>
</g>
<!-- Node5&#45;&gt;Node2 -->
<g id="edge12" class="edge"><title>Node5&#45;&gt;Node2</title>
<path fill="none" stroke="midnightblue" d="M576.987,-232.363C605.447,-209.982 674.151,-156.732 734.55,-116 760.017,-98.8246 773.097,-102.919 793.55,-80 806.001,-66.0468 814.469,-46.4142 819.551,-31.6566"/>
<polygon fill="midnightblue" stroke="midnightblue" points="822.951,-32.5142 822.661,-21.9234 816.283,-30.3836 822.951,-32.5142"/>
</g>
<!-- Node6 -->
<g id="node13" class="node"><title>Node6</title>
<a xlink:href="TaskBase_8h.htm" target="_top" xlink:title="TaskBase.h">
<polygon fill="white" stroke="black" points="527.55,-174.5 527.55,-195.5 599.55,-195.5 599.55,-174.5 527.55,-174.5"/>
<text text-anchor="middle" x="563.55" y="-182.5" font-family="Helvetica,sans-Serif" font-size="10.00">TaskBase.h</text>
</a>
</g>
<!-- Node5&#45;&gt;Node6 -->
<g id="edge14" class="edge"><title>Node5&#45;&gt;Node6</title>
<path fill="none" stroke="midnightblue" d="M563.55,-232.362C563.55,-224.922 563.55,-214.743 563.55,-205.728"/>
<polygon fill="midnightblue" stroke="midnightblue" points="567.05,-205.571 563.55,-195.571 560.05,-205.571 567.05,-205.571"/>
</g>
<!-- Node17 -->
<g id="node43" class="node"><title>Node17</title>
<a xlink:href="Mutex_8h.htm" target="_top" xlink:title="Mutex.h">
<polygon fill="white" stroke="black" points="52.0495,-116.5 52.0495,-137.5 105.05,-137.5 105.05,-116.5 52.0495,-116.5"/>
<text text-anchor="middle" x="78.5495" y="-124.5" font-family="Helvetica,sans-Serif" font-size="10.00">Mutex.h</text>
</a>
</g>
<!-- Node5&#45;&gt;Node17 -->
<g id="edge68" class="edge"><title>Node5&#45;&gt;Node17</title>
<path fill="none" stroke="midnightblue" d="M527.948,-237.793C478.093,-230.206 384.802,-214.932 306.55,-196 237.975,-179.409 159.545,-154.289 114.847,-139.375"/>
<polygon fill="midnightblue" stroke="midnightblue" points="115.898,-136.035 105.304,-136.174 113.672,-142.672 115.898,-136.035"/>
</g>
<!-- Node5&#45;&gt;Node19 -->
<g id="edge70" class="edge"><title>Node5&#45;&gt;Node19</title>
<path fill="none" stroke="midnightblue" d="M599.114,-237.333C662.416,-227.247 795.097,-206.105 871.022,-194.007"/>
<polygon fill="midnightblue" stroke="midnightblue" points="872.021,-197.392 881.346,-192.362 870.919,-190.479 872.021,-197.392"/>
</g>
<!-- Node21 -->
<g id="node59" class="node"><title>Node21</title>
<a xlink:href="InputControl_8h.htm" target="_top" xlink:title="InputControl.h">
<polygon fill="white" stroke="black" points="743.05,-174.5 743.05,-195.5 826.05,-195.5 826.05,-174.5 743.05,-174.5"/>
<text text-anchor="middle" x="784.55" y="-182.5" font-family="Helvetica,sans-Serif" font-size="10.00">InputControl.h</text>
</a>
</g>
<!-- Node5&#45;&gt;Node21 -->
<g id="edge76" class="edge"><title>Node5&#45;&gt;Node21</title>
<path fill="none" stroke="midnightblue" d="M599.057,-233.681C635.691,-224.067 693.147,-208.988 734.407,-198.16"/>
<polygon fill="midnightblue" stroke="midnightblue" points="735.478,-201.497 744.262,-195.573 733.701,-194.726 735.478,-201.497"/>
</g>
<!-- Node23 -->
<g id="node63" class="node"><title>Node23</title>
<a xlink:href="LedControl_8h.htm" target="_top" xlink:title="LedControl.h">
<polygon fill="white" stroke="black" points="315.05,-174.5 315.05,-195.5 392.05,-195.5 392.05,-174.5 315.05,-174.5"/>
<text text-anchor="middle" x="353.55" y="-182.5" font-family="Helvetica,sans-Serif" font-size="10.00">LedControl.h</text>
</a>
</g>
<!-- Node5&#45;&gt;Node23 -->
<g id="edge80" class="edge"><title>Node5&#45;&gt;Node23</title>
<path fill="none" stroke="midnightblue" d="M527.926,-233.161C493.229,-223.578 440.239,-208.943 401.779,-198.32"/>
<polygon fill="midnightblue" stroke="midnightblue" points="402.411,-194.864 391.84,-195.575 400.547,-201.611 402.411,-194.864"/>
</g>
<!-- Node24 -->
<g id="node65" class="node"><title>Node24</title>
<polygon fill="white" stroke="#bfbfbf" points="409.05,-174.5 409.05,-195.5 438.05,-195.5 438.05,-174.5 409.05,-174.5"/>
<text text-anchor="middle" x="423.55" y="-182.5" font-family="Helvetica,sans-Serif" font-size="10.00">Qt</text>
</g>
<!-- Node5&#45;&gt;Node24 -->
<g id="edge82" class="edge"><title>Node5&#45;&gt;Node24</title>
<path fill="none" stroke="midnightblue" d="M535.92,-232.477C514.035,-224.017 482.52,-211.557 447.541,-196.285"/>
<polygon fill="midnightblue" stroke="midnightblue" points="448.648,-192.949 438.085,-192.125 445.829,-199.356 448.648,-192.949"/>
</g>
<!-- Node25 -->
<g id="node67" class="node"><title>Node25</title>
<polygon fill="white" stroke="#bfbfbf" points="455.55,-174.5 455.55,-195.5 509.55,-195.5 509.55,-174.5 455.55,-174.5"/>
<text text-anchor="middle" x="482.55" y="-182.5" font-family="Helvetica,sans-Serif" font-size="10.00">QImage</text>
</g>
<!-- Node5&#45;&gt;Node25 -->
<g id="edge84" class="edge"><title>Node5&#45;&gt;Node25</title>
<path fill="none" stroke="midnightblue" d="M548.693,-232.362C536.704,-223.777 519.622,-211.546 505.821,-201.664"/>
<polygon fill="midnightblue" stroke="midnightblue" points="507.48,-198.547 497.312,-195.571 503.405,-204.238 507.48,-198.547"/>
</g>
<!-- Node6&#45;&gt;Node2 -->
<g id="edge16" class="edge"><title>Node6&#45;&gt;Node2</title>
<path fill="none" stroke="midnightblue" d="M584.878,-174.368C635.759,-148.964 760.623,-86.3744 768.55,-80 786.198,-65.8079 802.226,-45.4101 812.759,-30.4731"/>
<polygon fill="midnightblue" stroke="midnightblue" points="815.811,-32.2112 818.573,-21.9826 810.035,-28.2565 815.811,-32.2112"/>
</g>
<!-- Node7 -->
<g id="node16" class="node"><title>Node7</title>
<polygon fill="white" stroke="#bfbfbf" points="107.05,-0.5 107.05,-21.5 148.05,-21.5 148.05,-0.5 107.05,-0.5"/>
<text text-anchor="middle" x="127.55" y="-8.5" font-family="Helvetica,sans-Serif" font-size="10.00">glib.h</text>
</g>
<!-- Node6&#45;&gt;Node7 -->
<g id="edge18" class="edge"><title>Node6&#45;&gt;Node7</title>
<path fill="none" stroke="midnightblue" d="M527.304,-175.599C524.354,-174.999 521.409,-174.455 518.55,-174 414.005,-157.376 133.7,-193.488 43.5495,-138 10.4989,-117.657 -13.2781,-90.0894 8.5495,-58 18.8644,-42.8358 65.3847,-27.6792 97.1111,-18.8298"/>
<polygon fill="midnightblue" stroke="midnightblue" points="98.0971,-22.1888 106.827,-16.1862 96.2594,-15.4343 98.0971,-22.1888"/>
</g>
<!-- Node8 -->
<g id="node18" class="node"><title>Node8</title>
<polygon fill="white" stroke="#bfbfbf" points="349.05,-116.5 349.05,-137.5 378.05,-137.5 378.05,-116.5 349.05,-116.5"/>
<text text-anchor="middle" x="363.55" y="-124.5" font-family="Helvetica,sans-Serif" font-size="10.00">list</text>
</g>
<!-- Node6&#45;&gt;Node8 -->
<g id="edge20" class="edge"><title>Node6&#45;&gt;Node8</title>
<path fill="none" stroke="midnightblue" d="M527.157,-175.724C484.918,-164.905 417.963,-147.577 388.208,-138"/>
<polygon fill="midnightblue" stroke="midnightblue" points="389.065,-134.593 378.47,-134.629 386.775,-141.208 389.065,-134.593"/>
</g>
<!-- Node9 -->
<g id="node20" class="node"><title>Node9</title>
<a xlink:href="sptr_8h.htm" target="_top" xlink:title="sptr.h">
<polygon fill="white" stroke="black" points="57.0495,-58.5 57.0495,-79.5 100.05,-79.5 100.05,-58.5 57.0495,-58.5"/>
<text text-anchor="middle" x="78.5495" y="-66.5" font-family="Helvetica,sans-Serif" font-size="10.00">sptr.h</text>
</a>
</g>
<!-- Node6&#45;&gt;Node9 -->
<g id="edge22" class="edge"><title>Node6&#45;&gt;Node9</title>
<path fill="none" stroke="midnightblue" d="M527.23,-175.989C524.296,-175.302 521.375,-174.631 518.55,-174 439.776,-156.414 419.164,-156.285 340.55,-138 256.717,-118.501 158.869,-91.6239 109.873,-77.8786"/>
<polygon fill="midnightblue" stroke="midnightblue" points="110.756,-74.4912 100.182,-75.1522 108.86,-81.2297 110.756,-74.4912"/>
</g>
<!-- Node10 -->
<g id="node24" class="node"><title>Node10</title>
<a xlink:href="AsyncCaller_8h.htm" target="_top" xlink:title="AsyncCaller.h">
<polygon fill="white" stroke="black" points="679.05,-58.5 679.05,-79.5 760.05,-79.5 760.05,-58.5 679.05,-58.5"/>
<text text-anchor="middle" x="719.55" y="-66.5" font-family="Helvetica,sans-Serif" font-size="10.00">AsyncCaller.h</text>
</a>
</g>
<!-- Node6&#45;&gt;Node10 -->
<g id="edge28" class="edge"><title>Node6&#45;&gt;Node10</title>
<path fill="none" stroke="midnightblue" d="M577.946,-174.295C605.227,-154.009 664.626,-109.84 697.154,-85.6534"/>
<polygon fill="midnightblue" stroke="midnightblue" points="699.252,-88.4549 705.188,-79.6792 695.075,-82.8376 699.252,-88.4549"/>
</g>
<!-- Node11 -->
<g id="node28" class="node"><title>Node11</title>
<a xlink:href="Event_8h.htm" target="_top" xlink:title="Event.h">
<polygon fill="white" stroke="black" points="395.55,-116.5 395.55,-137.5 447.55,-137.5 447.55,-116.5 395.55,-116.5"/>
<text text-anchor="middle" x="421.55" y="-124.5" font-family="Helvetica,sans-Serif" font-size="10.00">Event.h</text>
</a>
</g>
<!-- Node6&#45;&gt;Node11 -->
<g id="edge34" class="edge"><title>Node6&#45;&gt;Node11</title>
<path fill="none" stroke="midnightblue" d="M537.834,-174.497C515.256,-165.275 482.192,-151.769 457.087,-141.515"/>
<polygon fill="midnightblue" stroke="midnightblue" points="458.134,-138.162 447.553,-137.621 455.487,-144.643 458.134,-138.162"/>
</g>
<!-- Node6&#45;&gt;Node17 -->
<g id="edge52" class="edge"><title>Node6&#45;&gt;Node17</title>
<path fill="none" stroke="midnightblue" d="M527.288,-175.696C524.341,-175.075 521.402,-174.499 518.55,-174 441.115,-160.462 206.303,-138.534 115.214,-130.281"/>
<polygon fill="midnightblue" stroke="midnightblue" points="115.363,-126.78 105.089,-129.366 114.734,-133.752 115.363,-126.78"/>
</g>
<!-- Node18 -->
<g id="node48" class="node"><title>Node18</title>
<a xlink:href="SingletonTimer_8h.htm" target="_top" xlink:title="SingletonTimer.h">
<polygon fill="white" stroke="black" points="515.55,-116.5 515.55,-137.5 611.55,-137.5 611.55,-116.5 515.55,-116.5"/>
<text text-anchor="middle" x="563.55" y="-124.5" font-family="Helvetica,sans-Serif" font-size="10.00">SingletonTimer.h</text>
</a>
</g>
<!-- Node6&#45;&gt;Node18 -->
<g id="edge60" class="edge"><title>Node6&#45;&gt;Node18</title>
<path fill="none" stroke="midnightblue" d="M563.55,-174.362C563.55,-166.922 563.55,-156.743 563.55,-147.728"/>
<polygon fill="midnightblue" stroke="midnightblue" points="567.05,-147.571 563.55,-137.571 560.05,-147.571 567.05,-147.571"/>
</g>
<!-- Node9&#45;&gt;Node2 -->
<g id="edge24" class="edge"><title>Node9&#45;&gt;Node2</title>
<path fill="none" stroke="midnightblue" d="M100.223,-64.9762C113.545,-62.632 130.986,-59.7936 146.55,-58 385.402,-30.4726 673.517,-17.0121 781.691,-12.6473"/>
<polygon fill="midnightblue" stroke="midnightblue" points="782.038,-16.1364 791.891,-12.2414 781.759,-9.14195 782.038,-16.1364"/>
</g>
<!-- Node9&#45;&gt;Node7 -->
<g id="edge26" class="edge"><title>Node9&#45;&gt;Node7</title>
<path fill="none" stroke="midnightblue" d="M87.5369,-58.3619C94.375,-50.2678 103.952,-38.9318 112.022,-29.3796"/>
<polygon fill="midnightblue" stroke="midnightblue" points="114.839,-31.4683 118.619,-21.5707 109.492,-26.9508 114.839,-31.4683"/>
</g>
<!-- Node10&#45;&gt;Node2 -->
<g id="edge30" class="edge"><title>Node10&#45;&gt;Node2</title>
<path fill="none" stroke="midnightblue" d="M738.992,-58.3619C755.353,-49.4094 778.963,-36.4908 797.393,-26.4064"/>
<polygon fill="midnightblue" stroke="midnightblue" points="799.138,-29.4412 806.231,-21.5707 795.778,-23.3004 799.138,-29.4412"/>
</g>
<!-- Node10&#45;&gt;Node7 -->
<g id="edge32" class="edge"><title>Node10&#45;&gt;Node7</title>
<path fill="none" stroke="midnightblue" d="M678.814,-63.9051C662.839,-61.9658 644.344,-59.7931 627.55,-58 450.355,-39.0818 237.39,-20.4129 158.719,-13.6541"/>
<polygon fill="midnightblue" stroke="midnightblue" points="158.789,-10.1474 148.527,-12.7806 158.192,-17.1218 158.789,-10.1474"/>
</g>
<!-- Node11&#45;&gt;Node2 -->
<g id="edge36" class="edge"><title>Node11&#45;&gt;Node2</title>
<path fill="none" stroke="midnightblue" d="M436.961,-116.351C463.728,-97.9333 516.884,-61.7337 526.55,-58 572.334,-40.313 710.519,-23.4115 781.868,-15.5677"/>
<polygon fill="midnightblue" stroke="midnightblue" points="782.328,-19.0383 791.891,-14.4771 781.571,-12.0794 782.328,-19.0383"/>
</g>
<!-- Node11&#45;&gt;Node7 -->
<g id="edge40" class="edge"><title>Node11&#45;&gt;Node7</title>
<path fill="none" stroke="midnightblue" d="M395.297,-118.267C392.363,-117.436 389.404,-116.659 386.55,-116 333.999,-103.879 186.898,-115.783 146.55,-80 133.085,-68.059 128.774,-47.5417 127.569,-31.9756"/>
<polygon fill="midnightblue" stroke="midnightblue" points="131.056,-31.5601 127.155,-21.7096 124.061,-31.8427 131.056,-31.5601"/>
</g>
<!-- Node11&#45;&gt;Node9 -->
<g id="edge50" class="edge"><title>Node11&#45;&gt;Node9</title>
<path fill="none" stroke="midnightblue" d="M395.309,-118.216C392.373,-117.394 389.41,-116.633 386.55,-116 267.057,-89.5537 233.042,-106.446 113.55,-80 112.461,-79.7591 111.358,-79.4998 110.247,-79.2256"/>
<polygon fill="midnightblue" stroke="midnightblue" points="110.807,-75.7491 100.236,-76.4566 108.941,-82.4958 110.807,-75.7491"/>
</g>
<!-- Node12 -->
<g id="node31" class="node"><title>Node12</title>
<polygon fill="white" stroke="#bfbfbf" points="535.55,-58.5 535.55,-79.5 585.55,-79.5 585.55,-58.5 535.55,-58.5"/>
<text text-anchor="middle" x="560.55" y="-66.5" font-family="Helvetica,sans-Serif" font-size="10.00">stdint.h</text>
</g>
<!-- Node11&#45;&gt;Node12 -->
<g id="edge38" class="edge"><title>Node11&#45;&gt;Node12</title>
<path fill="none" stroke="midnightblue" d="M446.721,-116.497C468.823,-107.275 501.188,-93.7695 525.763,-83.5153"/>
<polygon fill="midnightblue" stroke="midnightblue" points="527.214,-86.7022 535.095,-79.6212 524.519,-80.2421 527.214,-86.7022"/>
</g>
<!-- Node13 -->
<g id="node34" class="node"><title>Node13</title>
<polygon fill="white" stroke="#bfbfbf" points="365.05,-58.5 365.05,-79.5 412.05,-79.5 412.05,-58.5 365.05,-58.5"/>
<text text-anchor="middle" x="388.55" y="-66.5" font-family="Helvetica,sans-Serif" font-size="10.00">stdio.h</text>
</g>
<!-- Node11&#45;&gt;Node13 -->
<g id="edge42" class="edge"><title>Node11&#45;&gt;Node13</title>
<path fill="none" stroke="midnightblue" d="M415.497,-116.362C411.078,-108.595 404.96,-97.8426 399.67,-88.5458"/>
<polygon fill="midnightblue" stroke="midnightblue" points="402.551,-86.5315 394.564,-79.5707 396.467,-89.9932 402.551,-86.5315"/>
</g>
<!-- Node14 -->
<g id="node36" class="node"><title>Node14</title>
<polygon fill="white" stroke="#bfbfbf" points="429.05,-58.5 429.05,-79.5 480.05,-79.5 480.05,-58.5 429.05,-58.5"/>
<text text-anchor="middle" x="454.55" y="-66.5" font-family="Helvetica,sans-Serif" font-size="10.00">string.h</text>
</g>
<!-- Node11&#45;&gt;Node14 -->
<g id="edge44" class="edge"><title>Node11&#45;&gt;Node14</title>
<path fill="none" stroke="midnightblue" d="M427.602,-116.362C432.021,-108.595 438.139,-97.8426 443.429,-88.5458"/>
<polygon fill="midnightblue" stroke="midnightblue" points="446.632,-89.9932 448.535,-79.5707 440.548,-86.5315 446.632,-89.9932"/>
</g>
<!-- Node15 -->
<g id="node38" class="node"><title>Node15</title>
<polygon fill="white" stroke="#bfbfbf" points="155.55,-58.5 155.55,-79.5 241.55,-79.5 241.55,-58.5 155.55,-58.5"/>
<text text-anchor="middle" x="198.55" y="-66.5" font-family="Helvetica,sans-Serif" font-size="10.00">qnamespace.h</text>
</g>
<!-- Node11&#45;&gt;Node15 -->
<g id="edge46" class="edge"><title>Node11&#45;&gt;Node15</title>
<path fill="none" stroke="midnightblue" d="M395.227,-118.543C392.306,-117.659 389.37,-116.795 386.55,-116 341.218,-103.222 289.247,-90.3649 251.453,-81.3358"/>
<polygon fill="midnightblue" stroke="midnightblue" points="252.214,-77.9192 241.675,-79.0097 250.594,-84.7291 252.214,-77.9192"/>
</g>
<!-- Node16 -->
<g id="node40" class="node"><title>Node16</title>
<polygon fill="white" stroke="#bfbfbf" points="259.55,-58.5 259.55,-79.5 347.55,-79.5 347.55,-58.5 259.55,-58.5"/>
<text text-anchor="middle" x="303.55" y="-66.5" font-family="Helvetica,sans-Serif" font-size="10.00">SysMgrEvent.h</text>
</g>
<!-- Node11&#45;&gt;Node16 -->
<g id="edge48" class="edge"><title>Node11&#45;&gt;Node16</title>
<path fill="none" stroke="midnightblue" d="M400.181,-116.497C381.75,-107.438 354.912,-94.2462 334.194,-84.0628"/>
<polygon fill="midnightblue" stroke="midnightblue" points="335.677,-80.8914 325.158,-79.6212 332.589,-87.1735 335.677,-80.8914"/>
</g>
<!-- Node17&#45;&gt;Node2 -->
<g id="edge54" class="edge"><title>Node17&#45;&gt;Node2</title>
<path fill="none" stroke="midnightblue" d="M67.453,-116.402C53.3417,-101.675 32.6125,-74.9301 48.5495,-58 73.8185,-31.1563 620.672,-15.924 781.462,-12.0141"/>
<polygon fill="midnightblue" stroke="midnightblue" points="782.01,-15.5021 791.923,-11.7625 781.842,-8.50407 782.01,-15.5021"/>
</g>
<!-- Node17&#45;&gt;Node7 -->
<g id="edge58" class="edge"><title>Node17&#45;&gt;Node7</title>
<path fill="none" stroke="midnightblue" d="M56.4079,-116.419C32.6893,-103.587 0.371891,-80.829 15.5495,-58 33.4831,-31.0256 70.22,-19.5004 96.738,-14.5962"/>
<polygon fill="midnightblue" stroke="midnightblue" points="97.3842,-18.0371 106.69,-12.9725 96.257,-11.1285 97.3842,-18.0371"/>
</g>
<!-- Node17&#45;&gt;Node9 -->
<g id="edge56" class="edge"><title>Node17&#45;&gt;Node9</title>
<path fill="none" stroke="midnightblue" d="M78.5495,-116.362C78.5495,-108.922 78.5495,-98.7427 78.5495,-89.7276"/>
<polygon fill="midnightblue" stroke="midnightblue" points="82.0496,-89.5706 78.5495,-79.5707 75.0496,-89.5707 82.0496,-89.5706"/>
</g>
<!-- Node18&#45;&gt;Node2 -->
<g id="edge62" class="edge"><title>Node18&#45;&gt;Node2</title>
<path fill="none" stroke="midnightblue" d="M577.353,-116.29C597.062,-101.432 634.845,-74.5298 670.55,-58 706.7,-41.2637 750.307,-28.6575 782.047,-20.7356"/>
<polygon fill="midnightblue" stroke="midnightblue" points="783.026,-24.0996 791.911,-18.3289 781.366,-17.2991 783.026,-24.0996"/>
</g>
<!-- Node18&#45;&gt;Node7 -->
<g id="edge64" class="edge"><title>Node18&#45;&gt;Node7</title>
<path fill="none" stroke="midnightblue" d="M575.282,-116.019C589.587,-101.327 610.053,-75.1424 594.55,-58 565.277,-25.6339 257.989,-14.5248 158.467,-11.7607"/>
<polygon fill="midnightblue" stroke="midnightblue" points="158.267,-8.25418 148.176,-11.4844 158.079,-15.2517 158.267,-8.25418"/>
</g>
<!-- Node18&#45;&gt;Node12 -->
<g id="edge66" class="edge"><title>Node18&#45;&gt;Node12</title>
<path fill="none" stroke="midnightblue" d="M562.999,-116.362C562.614,-108.922 562.088,-98.7427 561.622,-89.7276"/>
<polygon fill="midnightblue" stroke="midnightblue" points="565.108,-89.3765 561.096,-79.5707 558.118,-89.7381 565.108,-89.3765"/>
</g>
<!-- Node19&#45;&gt;Node2 -->
<g id="edge72" class="edge"><title>Node19&#45;&gt;Node2</title>
<path fill="none" stroke="midnightblue" d="M925.125,-174.338C919.56,-151.453 904.252,-96.5776 877.55,-58 869.758,-46.7435 858.772,-36.3039 848.904,-28.1369"/>
<polygon fill="midnightblue" stroke="midnightblue" points="850.982,-25.3175 840.973,-21.8432 846.631,-30.8009 850.982,-25.3175"/>
</g>
<!-- Node20 -->
<g id="node57" class="node"><title>Node20</title>
<polygon fill="white" stroke="#bfbfbf" points="929.55,-116.5 929.55,-137.5 981.55,-137.5 981.55,-116.5 929.55,-116.5"/>
<text text-anchor="middle" x="955.55" y="-124.5" font-family="Helvetica,sans-Serif" font-size="10.00">QEvent</text>
</g>
<!-- Node19&#45;&gt;Node20 -->
<g id="edge74" class="edge"><title>Node19&#45;&gt;Node20</title>
<path fill="none" stroke="midnightblue" d="M932.685,-174.362C936.395,-166.677 941.516,-156.069 945.972,-146.84"/>
<polygon fill="midnightblue" stroke="midnightblue" points="949.251,-148.098 950.446,-137.571 942.947,-145.055 949.251,-148.098"/>
</g>
<!-- Node22 -->
<g id="node61" class="node"><title>Node22</title>
<polygon fill="white" stroke="#bfbfbf" points="743.55,-116.5 743.55,-137.5 835.55,-137.5 835.55,-116.5 743.55,-116.5"/>
<text text-anchor="middle" x="789.55" y="-124.5" font-family="Helvetica,sans-Serif" font-size="10.00">nyx/nyx_client.h</text>
</g>
<!-- Node21&#45;&gt;Node22 -->
<g id="edge78" class="edge"><title>Node21&#45;&gt;Node22</title>
<path fill="none" stroke="midnightblue" d="M785.467,-174.362C786.108,-166.922 786.985,-156.743 787.763,-147.728"/>
<polygon fill="midnightblue" stroke="midnightblue" points="791.266,-147.834 788.638,-137.571 784.292,-147.233 791.266,-147.834"/>
</g>
<!-- Node26&#45;&gt;Node2 -->
<g id="edge88" class="edge"><title>Node26&#45;&gt;Node2</title>
<path fill="none" stroke="midnightblue" d="M1974.74,-60.3982C1970.34,-59.4495 1965.85,-58.6084 1961.55,-58 1744.77,-27.3304 1050.69,-14.522 869.275,-11.6493"/>
<polygon fill="midnightblue" stroke="midnightblue" points="869.105,-8.14627 859.051,-11.4893 868.995,-15.1454 869.105,-8.14627"/>
</g>
<!-- Node26&#45;&gt;Node7 -->
<g id="edge96" class="edge"><title>Node26&#45;&gt;Node7</title>
<path fill="none" stroke="midnightblue" d="M1974.72,-68.0176C1748.04,-61.0204 380.683,-18.8136 158.15,-11.9446"/>
<polygon fill="midnightblue" stroke="midnightblue" points="158.252,-8.44612 148.148,-11.6358 158.035,-15.4428 158.252,-8.44612"/>
</g>
<!-- Node27 -->
<g id="node72" class="node"><title>Node27</title>
<polygon fill="white" stroke="#bfbfbf" points="2053.05,-0.5 2053.05,-21.5 2096.05,-21.5 2096.05,-0.5 2053.05,-0.5"/>
<text text-anchor="middle" x="2074.55" y="-8.5" font-family="Helvetica,sans-Serif" font-size="10.00">string</text>
</g>
<!-- Node26&#45;&gt;Node27 -->
<g id="edge90" class="edge"><title>Node26&#45;&gt;Node27</title>
<path fill="none" stroke="midnightblue" d="M2019.02,-58.3619C2028.89,-49.9408 2042.88,-38.0105 2054.35,-28.2308"/>
<polygon fill="midnightblue" stroke="midnightblue" points="2056.82,-30.7231 2062.16,-21.5707 2052.28,-25.3972 2056.82,-30.7231"/>
</g>
<!-- Node28 -->
<g id="node74" class="node"><title>Node28</title>
<polygon fill="white" stroke="#bfbfbf" points="2113.55,-0.5 2113.55,-21.5 2159.55,-21.5 2159.55,-0.5 2113.55,-0.5"/>
<text text-anchor="middle" x="2136.55" y="-8.5" font-family="Helvetica,sans-Serif" font-size="10.00">vector</text>
</g>
<!-- Node26&#45;&gt;Node28 -->
<g id="edge92" class="edge"><title>Node26&#45;&gt;Node28</title>
<path fill="none" stroke="midnightblue" d="M2030.09,-58.4966C2050.71,-49.299 2080.87,-35.8411 2103.83,-25.597"/>
<polygon fill="midnightblue" stroke="midnightblue" points="2105.48,-28.696 2113.18,-21.4252 2102.62,-22.3034 2105.48,-28.696"/>
</g>
<!-- Node29 -->
<g id="node76" class="node"><title>Node29</title>
<polygon fill="white" stroke="#bfbfbf" points="1853.05,-0.5 1853.05,-21.5 1884.05,-21.5 1884.05,-0.5 1853.05,-0.5"/>
<text text-anchor="middle" x="1868.55" y="-8.5" font-family="Helvetica,sans-Serif" font-size="10.00">set</text>
</g>
<!-- Node26&#45;&gt;Node29 -->
<g id="edge94" class="edge"><title>Node26&#45;&gt;Node29</title>
<path fill="none" stroke="midnightblue" d="M1980.17,-58.4599C1958.88,-49.8842 1927.99,-37.2695 1893.57,-22.3577"/>
<polygon fill="midnightblue" stroke="midnightblue" points="1894.83,-19.0885 1884.26,-18.3062 1892.03,-25.5067 1894.83,-19.0885"/>
</g>
<!-- Node30 -->
<g id="node79" class="node"><title>Node30</title>
<polygon fill="white" stroke="#bfbfbf" points="1901.55,-0.5 1901.55,-21.5 1959.55,-21.5 1959.55,-0.5 1901.55,-0.5"/>
<text text-anchor="middle" x="1930.55" y="-8.5" font-family="Helvetica,sans-Serif" font-size="10.00">QtGlobal</text>
</g>
<!-- Node26&#45;&gt;Node30 -->
<g id="edge98" class="edge"><title>Node26&#45;&gt;Node30</title>
<path fill="none" stroke="midnightblue" d="M1992.61,-58.3619C1981.36,-49.7773 1965.33,-37.5459 1952.38,-27.6636"/>
<polygon fill="midnightblue" stroke="midnightblue" points="1954.47,-24.8551 1944.4,-21.5707 1950.23,-30.4198 1954.47,-24.8551"/>
</g>
<!-- Node31 -->
<g id="node81" class="node"><title>Node31</title>
<polygon fill="white" stroke="#bfbfbf" points="1977.05,-0.5 1977.05,-21.5 2036.05,-21.5 2036.05,-0.5 1977.05,-0.5"/>
<text text-anchor="middle" x="2006.55" y="-8.5" font-family="Helvetica,sans-Serif" font-size="10.00">QVariant</text>
</g>
<!-- Node26&#45;&gt;Node31 -->
<g id="edge100" class="edge"><title>Node26&#45;&gt;Node31</title>
<path fill="none" stroke="midnightblue" d="M2006.55,-58.3619C2006.55,-50.9219 2006.55,-40.7427 2006.55,-31.7276"/>
<polygon fill="midnightblue" stroke="midnightblue" points="2010.05,-31.5706 2006.55,-21.5707 2003.05,-31.5707 2010.05,-31.5706"/>
</g>
<!-- Node43&#45;&gt;Node2 -->
<g id="edge130" class="edge"><title>Node43&#45;&gt;Node2</title>
<path fill="none" stroke="midnightblue" d="M983.393,-290.379C992.112,-270.262 1009.55,-225.024 1009.55,-185 1009.55,-185 1009.55,-185 1009.55,-127 1009.55,-61.0141 923.823,-31.0635 869.399,-18.698"/>
<polygon fill="midnightblue" stroke="midnightblue" points="869.811,-15.2064 859.298,-16.5214 868.336,-22.0494 869.811,-15.2064"/>
</g>
<!-- Node43&#45;&gt;Node41 -->
<g id="edge136" class="edge"><title>Node43&#45;&gt;Node41</title>
<path fill="none" stroke="midnightblue" d="M971.58,-290.362C966.384,-282.431 959.149,-271.389 952.972,-261.961"/>
<polygon fill="midnightblue" stroke="midnightblue" points="955.883,-260.017 947.475,-253.571 950.028,-263.853 955.883,-260.017"/>
</g>
<!-- Node44 -->
<g id="node110" class="node"><title>Node44</title>
<polygon fill="white" stroke="#bfbfbf" points="1037.55,-232.5 1037.55,-253.5 1099.55,-253.5 1099.55,-232.5 1037.55,-232.5"/>
<text text-anchor="middle" x="1068.55" y="-240.5" font-family="Helvetica,sans-Serif" font-size="10.00">QGesture</text>
</g>
<!-- Node43&#45;&gt;Node44 -->
<g id="edge132" class="edge"><title>Node43&#45;&gt;Node44</title>
<path fill="none" stroke="midnightblue" d="M995.057,-290.362C1008.63,-281.614 1028.08,-269.079 1043.56,-259.101"/>
<polygon fill="midnightblue" stroke="midnightblue" points="1045.64,-261.93 1052.15,-253.571 1041.85,-256.046 1045.64,-261.93"/>
</g>
<!-- Node45 -->
<g id="node112" class="node"><title>Node45</title>
<polygon fill="white" stroke="#bfbfbf" points="1475.05,-232.5 1475.05,-253.5 1524.05,-253.5 1524.05,-232.5 1475.05,-232.5"/>
<text text-anchor="middle" x="1499.55" y="-240.5" font-family="Helvetica,sans-Serif" font-size="10.00">QPoint</text>
</g>
<!-- Node43&#45;&gt;Node45 -->
<g id="edge134" class="edge"><title>Node43&#45;&gt;Node45</title>
<path fill="none" stroke="midnightblue" d="M1020.22,-291.45C1023.03,-290.923 1025.83,-290.434 1028.55,-290 1190.54,-264.19 1386.27,-250.054 1464.64,-245.08"/>
<polygon fill="midnightblue" stroke="midnightblue" points="1465.14,-248.555 1474.9,-244.438 1464.7,-241.569 1465.14,-248.555"/>
</g>
<!-- Node46&#45;&gt;Node2 -->
<g id="edge140" class="edge"><title>Node46&#45;&gt;Node2</title>
<path fill="none" stroke="midnightblue" d="M2084.95,-291.285C2025.03,-278.469 1947.55,-249.439 1947.55,-185 1947.55,-185 1947.55,-185 1947.55,-127 1947.55,-94.5312 1949.6,-77.3751 1923.55,-58 1880.59,-26.0516 1068.68,-13.9937 869.424,-11.509"/>
<polygon fill="midnightblue" stroke="midnightblue" points="869.367,-8.00812 859.324,-11.3848 869.281,-15.0076 869.367,-8.00812"/>
</g>
<!-- Node46&#45;&gt;Node45 -->
<g id="edge144" class="edge"><title>Node46&#45;&gt;Node45</title>
<path fill="none" stroke="midnightblue" d="M2084.73,-290.958C2081.97,-290.622 2079.23,-290.301 2076.55,-290 1871.39,-267.012 1624,-250.656 1534.22,-245.088"/>
<polygon fill="midnightblue" stroke="midnightblue" points="1534.26,-241.584 1524.07,-244.463 1533.83,-248.571 1534.26,-241.584"/>
</g>
<!-- Node47 -->
<g id="node118" class="node"><title>Node47</title>
<polygon fill="white" stroke="#bfbfbf" points="2011.55,-232.5 2011.55,-253.5 2127.55,-253.5 2127.55,-232.5 2011.55,-232.5"/>
<text text-anchor="middle" x="2069.55" y="-240.5" font-family="Helvetica,sans-Serif" font-size="10.00">QGestureRecognizer</text>
</g>
<!-- Node46&#45;&gt;Node47 -->
<g id="edge142" class="edge"><title>Node46&#45;&gt;Node47</title>
<path fill="none" stroke="midnightblue" d="M2138.14,-290.362C2125.59,-281.696 2107.66,-269.313 2093.27,-259.382"/>
<polygon fill="midnightblue" stroke="midnightblue" points="2095.08,-256.372 2084.86,-253.571 2091.1,-262.133 2095.08,-256.372"/>
</g>
<!-- Node48 -->
<g id="node121" class="node"><title>Node48</title>
<polygon fill="white" stroke="#bfbfbf" points="2145.55,-232.5 2145.55,-253.5 2201.55,-253.5 2201.55,-232.5 2145.55,-232.5"/>
<text text-anchor="middle" x="2173.55" y="-240.5" font-family="Helvetica,sans-Serif" font-size="10.00">QQueue</text>
</g>
<!-- Node46&#45;&gt;Node48 -->
<g id="edge146" class="edge"><title>Node46&#45;&gt;Node48</title>
<path fill="none" stroke="midnightblue" d="M2157.22,-290.362C2159.84,-282.758 2163.45,-272.294 2166.61,-263.135"/>
<polygon fill="midnightblue" stroke="midnightblue" points="2169.95,-264.165 2169.9,-253.571 2163.34,-261.883 2169.95,-264.165"/>
</g>
</g>
</svg>
