<?xml version="1.0" encoding="UTF-8" standalone="no"?>
<!DOCTYPE svg PUBLIC "-//W3C//DTD SVG 1.1//EN"
 "http://www.w3.org/Graphics/SVG/1.1/DTD/svg11.dtd">
<!-- Generated by graphviz version 2.26.3 (20100126.1600)
 -->
<!-- Title: HostArm.h Pages: 1 -->
<svg width="2001pt" height="320pt"
 viewBox="0.00 0.00 2001.00 320.00" xmlns="http://www.w3.org/2000/svg" xmlns:xlink="http://www.w3.org/1999/xlink">
<g id="graph1" class="graph" transform="scale(1 1) rotate(0) translate(4 316)">
<title>HostArm.h</title>
<polygon fill="white" stroke="white" points="-4,5 -4,-316 1998,-316 1998,5 -4,5"/>
<!-- Node1 -->
<g id="node1" class="node"><title>Node1</title>
<polygon fill="#bfbfbf" stroke="black" points="1260.5,-290.5 1260.5,-311.5 1325.5,-311.5 1325.5,-290.5 1260.5,-290.5"/>
<text text-anchor="middle" x="1293" y="-298.5" font-family="Helvetica,sans-Serif" font-size="10.00">HostArm.h</text>
</g>
<!-- Node2 -->
<g id="node3" class="node"><title>Node2</title>
<polygon fill="white" stroke="#bfbfbf" points="1023,-116.5 1023,-137.5 1115,-137.5 1115,-116.5 1023,-116.5"/>
<text text-anchor="middle" x="1069" y="-124.5" font-family="Helvetica,sans-Serif" font-size="10.00">nyx/nyx_client.h</text>
</g>
<!-- Node1&#45;&gt;Node2 -->
<g id="edge2" class="edge"><title>Node1&#45;&gt;Node2</title>
<path fill="none" stroke="midnightblue" d="M1279.32,-290.377C1241.76,-261.195 1136.72,-179.607 1090.87,-143.992"/>
<polygon fill="midnightblue" stroke="midnightblue" points="1092.83,-141.075 1082.78,-137.705 1088.53,-146.603 1092.83,-141.075"/>
</g>
<!-- Node3 -->
<g id="node5" class="node"><title>Node3</title>
<a xlink:href="Common_8h.htm" target="_top" xlink:title="Common.h">
<polygon fill="white" stroke="black" points="810.5,-0.5 810.5,-21.5 877.5,-21.5 877.5,-0.5 810.5,-0.5"/>
<text text-anchor="middle" x="844" y="-8.5" font-family="Helvetica,sans-Serif" font-size="10.00">Common.h</text>
</a>
</g>
<!-- Node1&#45;&gt;Node3 -->
<g id="edge4" class="edge"><title>Node1&#45;&gt;Node3</title>
<path fill="none" stroke="midnightblue" d="M1325.75,-300.159C1434.24,-296.5 1775,-277.633 1775,-185 1775,-185 1775,-185 1775,-127 1775,-36.4247 1072.15,-15.6732 887.824,-11.7884"/>
<polygon fill="midnightblue" stroke="midnightblue" points="887.754,-8.28632 877.685,-11.5808 887.611,-15.2849 887.754,-8.28632"/>
</g>
<!-- Node4 -->
<g id="node7" class="node"><title>Node4</title>
<a xlink:href="HostBase_8h.htm" target="_top" xlink:title="HostBase.h">
<polygon fill="white" stroke="black" points="799.5,-232.5 799.5,-253.5 870.5,-253.5 870.5,-232.5 799.5,-232.5"/>
<text text-anchor="middle" x="835" y="-240.5" font-family="Helvetica,sans-Serif" font-size="10.00">HostBase.h</text>
</a>
</g>
<!-- Node1&#45;&gt;Node4 -->
<g id="edge6" class="edge"><title>Node1&#45;&gt;Node4</title>
<path fill="none" stroke="midnightblue" d="M1260.15,-296.867C1195.31,-288.705 1046.28,-269.926 921,-254 907.922,-252.337 893.726,-250.525 880.708,-248.86"/>
<polygon fill="midnightblue" stroke="midnightblue" points="880.927,-245.359 870.564,-247.561 880.039,-252.303 880.927,-245.359"/>
</g>
<!-- Node10 -->
<g id="node25" class="node"><title>Node10</title>
<a xlink:href="Event_8h.htm" target="_top" xlink:title="Event.h">
<polygon fill="white" stroke="black" points="333,-116.5 333,-137.5 385,-137.5 385,-116.5 333,-116.5"/>
<text text-anchor="middle" x="359" y="-124.5" font-family="Helvetica,sans-Serif" font-size="10.00">Event.h</text>
</a>
</g>
<!-- Node1&#45;&gt;Node10 -->
<g id="edge82" class="edge"><title>Node1&#45;&gt;Node10</title>
<path fill="none" stroke="midnightblue" d="M1260.45,-299.794C1180.16,-296.42 966.411,-285.015 791,-254 691.003,-236.319 667.413,-224.683 570,-196 507.877,-177.708 436.403,-153.702 394.617,-139.364"/>
<polygon fill="midnightblue" stroke="midnightblue" points="395.754,-136.054 385.159,-136.11 393.476,-142.673 395.754,-136.054"/>
</g>
<!-- Node18 -->
<g id="node51" class="node"><title>Node18</title>
<a xlink:href="CustomEvents_8h.htm" target="_top" xlink:title="CustomEvents.h">
<polygon fill="white" stroke="black" points="1247,-174.5 1247,-195.5 1339,-195.5 1339,-174.5 1247,-174.5"/>
<text text-anchor="middle" x="1293" y="-182.5" font-family="Helvetica,sans-Serif" font-size="10.00">CustomEvents.h</text>
</a>
</g>
<!-- Node1&#45;&gt;Node18 -->
<g id="edge84" class="edge"><title>Node1&#45;&gt;Node18</title>
<path fill="none" stroke="midnightblue" d="M1293,-290.295C1293,-271.131 1293,-230.654 1293,-205.843"/>
<polygon fill="midnightblue" stroke="midnightblue" points="1296.5,-205.679 1293,-195.679 1289.5,-205.679 1296.5,-205.679"/>
</g>
<!-- Node24 -->
<g id="node67" class="node"><title>Node24</title>
<a xlink:href="NyxSensorConnector_8h.htm" target="_top" xlink:title="NyxSensorConnector.h">
<polygon fill="white" stroke="black" points="1379,-232.5 1379,-253.5 1505,-253.5 1505,-232.5 1379,-232.5"/>
<text text-anchor="middle" x="1442" y="-240.5" font-family="Helvetica,sans-Serif" font-size="10.00">NyxSensorConnector.h</text>
</a>
</g>
<!-- Node1&#45;&gt;Node24 -->
<g id="edge86" class="edge"><title>Node1&#45;&gt;Node24</title>
<path fill="none" stroke="midnightblue" d="M1319.98,-290.497C1343.85,-281.205 1378.89,-267.565 1405.31,-257.283"/>
<polygon fill="midnightblue" stroke="midnightblue" points="1406.92,-260.412 1414.97,-253.523 1404.38,-253.889 1406.92,-260.412"/>
</g>
<!-- Node26 -->
<g id="node71" class="node"><title>Node26</title>
<polygon fill="white" stroke="#bfbfbf" points="1692.5,-174.5 1692.5,-195.5 1747.5,-195.5 1747.5,-174.5 1692.5,-174.5"/>
<text text-anchor="middle" x="1720" y="-182.5" font-family="Helvetica,sans-Serif" font-size="10.00">QObject</text>
</g>
<!-- Node1&#45;&gt;Node26 -->
<g id="edge122" class="edge"><title>Node1&#45;&gt;Node26</title>
<path fill="none" stroke="midnightblue" d="M1325.86,-295.221C1369.27,-287.311 1447.96,-272.019 1514,-254 1573.83,-237.673 1641.8,-213.851 1682.76,-198.9"/>
<polygon fill="midnightblue" stroke="midnightblue" points="1684.14,-202.122 1692.32,-195.391 1681.73,-195.55 1684.14,-202.122"/>
</g>
<!-- Node30 -->
<g id="node82" class="node"><title>Node30</title>
<a xlink:href="NyxInputControl_8h.htm" target="_top" xlink:title="NyxInputControl.h">
<polygon fill="white" stroke="black" points="1052.5,-232.5 1052.5,-253.5 1153.5,-253.5 1153.5,-232.5 1052.5,-232.5"/>
<text text-anchor="middle" x="1103" y="-240.5" font-family="Helvetica,sans-Serif" font-size="10.00">NyxInputControl.h</text>
</a>
</g>
<!-- Node1&#45;&gt;Node30 -->
<g id="edge104" class="edge"><title>Node1&#45;&gt;Node30</title>
<path fill="none" stroke="midnightblue" d="M1260.34,-291.029C1229.15,-281.508 1181.9,-267.086 1147.32,-256.53"/>
<polygon fill="midnightblue" stroke="midnightblue" points="1148.07,-253.098 1137.48,-253.526 1146.02,-259.793 1148.07,-253.098"/>
</g>
<!-- Node31 -->
<g id="node86" class="node"><title>Node31</title>
<a xlink:href="NyxLedControl_8h.htm" target="_top" xlink:title="NyxLedControl.h">
<polygon fill="white" stroke="black" points="929.5,-232.5 929.5,-253.5 1024.5,-253.5 1024.5,-232.5 929.5,-232.5"/>
<text text-anchor="middle" x="977" y="-240.5" font-family="Helvetica,sans-Serif" font-size="10.00">NyxLedControl.h</text>
</a>
</g>
<!-- Node1&#45;&gt;Node31 -->
<g id="edge110" class="edge"><title>Node1&#45;&gt;Node31</title>
<path fill="none" stroke="midnightblue" d="M1260.37,-295.011C1207.05,-285.225 1100.56,-265.679 1034.39,-253.533"/>
<polygon fill="midnightblue" stroke="midnightblue" points="1035,-250.087 1024.53,-251.724 1033.73,-256.972 1035,-250.087"/>
</g>
<!-- Node32 -->
<g id="node91" class="node"><title>Node32</title>
<polygon fill="white" stroke="#bfbfbf" points="1803,-232.5 1803,-253.5 1881,-253.5 1881,-232.5 1803,-232.5"/>
<text text-anchor="middle" x="1842" y="-240.5" font-family="Helvetica,sans-Serif" font-size="10.00">lunaservice.h</text>
</g>
<!-- Node1&#45;&gt;Node32 -->
<g id="edge118" class="edge"><title>Node1&#45;&gt;Node32</title>
<path fill="none" stroke="midnightblue" d="M1325.65,-299.155C1405.22,-294.387 1615.37,-280.163 1789,-254 1790.25,-253.811 1791.52,-253.611 1792.8,-253.403"/>
<polygon fill="midnightblue" stroke="midnightblue" points="1793.48,-256.837 1802.72,-251.654 1792.27,-249.943 1793.48,-256.837"/>
</g>
<!-- Node33 -->
<g id="node93" class="node"><title>Node33</title>
<polygon fill="white" stroke="#bfbfbf" points="1899,-232.5 1899,-253.5 1993,-253.5 1993,-232.5 1899,-232.5"/>
<text text-anchor="middle" x="1946" y="-240.5" font-family="Helvetica,sans-Serif" font-size="10.00">qsocketnotifier.h</text>
</g>
<!-- Node1&#45;&gt;Node33 -->
<g id="edge120" class="edge"><title>Node1&#45;&gt;Node33</title>
<path fill="none" stroke="midnightblue" d="M1325.82,-299.747C1414.8,-296.069 1668.18,-283.722 1888.57,-254.067"/>
<polygon fill="midnightblue" stroke="midnightblue" points="1889.27,-257.504 1898.71,-252.688 1888.33,-250.568 1889.27,-257.504"/>
</g>
<!-- Node4&#45;&gt;Node3 -->
<g id="edge8" class="edge"><title>Node4&#45;&gt;Node3</title>
<path fill="none" stroke="midnightblue" d="M835.41,-232.429C836.798,-196.648 841.336,-79.6628 843.195,-31.7481"/>
<polygon fill="midnightblue" stroke="midnightblue" points="846.697,-31.7617 843.587,-21.6335 839.702,-31.4903 846.697,-31.7617"/>
</g>
<!-- Node5 -->
<g id="node10" class="node"><title>Node5</title>
<a xlink:href="TaskBase_8h.htm" target="_top" xlink:title="TaskBase.h">
<polygon fill="white" stroke="black" points="579,-174.5 579,-195.5 651,-195.5 651,-174.5 579,-174.5"/>
<text text-anchor="middle" x="615" y="-182.5" font-family="Helvetica,sans-Serif" font-size="10.00">TaskBase.h</text>
</a>
</g>
<!-- Node4&#45;&gt;Node5 -->
<g id="edge10" class="edge"><title>Node4&#45;&gt;Node5</title>
<path fill="none" stroke="midnightblue" d="M799.164,-233.552C761.482,-223.618 702.066,-207.954 660.959,-197.117"/>
<polygon fill="midnightblue" stroke="midnightblue" points="661.749,-193.705 651.187,-194.54 659.964,-200.474 661.749,-193.705"/>
</g>
<!-- Node16 -->
<g id="node40" class="node"><title>Node16</title>
<a xlink:href="Mutex_8h.htm" target="_top" xlink:title="Mutex.h">
<polygon fill="white" stroke="black" points="707.5,-116.5 707.5,-137.5 760.5,-137.5 760.5,-116.5 707.5,-116.5"/>
<text text-anchor="middle" x="734" y="-124.5" font-family="Helvetica,sans-Serif" font-size="10.00">Mutex.h</text>
</a>
</g>
<!-- Node4&#45;&gt;Node16 -->
<g id="edge64" class="edge"><title>Node4&#45;&gt;Node16</title>
<path fill="none" stroke="midnightblue" d="M799.279,-235.654C762.838,-227.349 709.983,-212.78 698,-196 686.405,-179.764 700.162,-159.303 713.883,-144.891"/>
<polygon fill="midnightblue" stroke="midnightblue" points="716.655,-147.075 721.341,-137.573 711.752,-142.079 716.655,-147.075"/>
</g>
<!-- Node4&#45;&gt;Node18 -->
<g id="edge66" class="edge"><title>Node4&#45;&gt;Node18</title>
<path fill="none" stroke="midnightblue" d="M870.564,-238.439C886.056,-236.455 904.425,-234.107 921,-232 1032.87,-217.779 1163.68,-201.283 1236.57,-192.103"/>
<polygon fill="midnightblue" stroke="midnightblue" points="1237.41,-195.524 1246.89,-190.802 1236.53,-188.579 1237.41,-195.524"/>
</g>
<!-- Node20 -->
<g id="node56" class="node"><title>Node20</title>
<a xlink:href="InputControl_8h.htm" target="_top" xlink:title="InputControl.h">
<polygon fill="white" stroke="black" points="1032.5,-174.5 1032.5,-195.5 1115.5,-195.5 1115.5,-174.5 1032.5,-174.5"/>
<text text-anchor="middle" x="1074" y="-182.5" font-family="Helvetica,sans-Serif" font-size="10.00">InputControl.h</text>
</a>
</g>
<!-- Node4&#45;&gt;Node20 -->
<g id="edge72" class="edge"><title>Node4&#45;&gt;Node20</title>
<path fill="none" stroke="midnightblue" d="M870.523,-234.379C910.743,-224.619 976.627,-208.63 1022.49,-197.5"/>
<polygon fill="midnightblue" stroke="midnightblue" points="1023.35,-200.893 1032.24,-195.133 1021.7,-194.091 1023.35,-200.893"/>
</g>
<!-- Node21 -->
<g id="node59" class="node"><title>Node21</title>
<a xlink:href="LedControl_8h.htm" target="_top" xlink:title="LedControl.h">
<polygon fill="white" stroke="black" points="862.5,-174.5 862.5,-195.5 939.5,-195.5 939.5,-174.5 862.5,-174.5"/>
<text text-anchor="middle" x="901" y="-182.5" font-family="Helvetica,sans-Serif" font-size="10.00">LedControl.h</text>
</a>
</g>
<!-- Node4&#45;&gt;Node21 -->
<g id="edge76" class="edge"><title>Node4&#45;&gt;Node21</title>
<path fill="none" stroke="midnightblue" d="M847.105,-232.362C856.688,-223.941 870.264,-212.011 881.393,-202.231"/>
<polygon fill="midnightblue" stroke="midnightblue" points="883.77,-204.801 888.971,-195.571 879.149,-199.543 883.77,-204.801"/>
</g>
<!-- Node22 -->
<g id="node61" class="node"><title>Node22</title>
<polygon fill="white" stroke="#bfbfbf" points="706.5,-174.5 706.5,-195.5 735.5,-195.5 735.5,-174.5 706.5,-174.5"/>
<text text-anchor="middle" x="721" y="-182.5" font-family="Helvetica,sans-Serif" font-size="10.00">Qt</text>
</g>
<!-- Node4&#45;&gt;Node22 -->
<g id="edge78" class="edge"><title>Node4&#45;&gt;Node22</title>
<path fill="none" stroke="midnightblue" d="M814.355,-232.497C794.747,-222.52 765.287,-207.532 744.722,-197.069"/>
<polygon fill="midnightblue" stroke="midnightblue" points="746.195,-193.891 735.695,-192.476 743.02,-200.13 746.195,-193.891"/>
</g>
<!-- Node23 -->
<g id="node63" class="node"><title>Node23</title>
<polygon fill="white" stroke="#bfbfbf" points="753,-174.5 753,-195.5 807,-195.5 807,-174.5 753,-174.5"/>
<text text-anchor="middle" x="780" y="-182.5" font-family="Helvetica,sans-Serif" font-size="10.00">QImage</text>
</g>
<!-- Node4&#45;&gt;Node23 -->
<g id="edge80" class="edge"><title>Node4&#45;&gt;Node23</title>
<path fill="none" stroke="midnightblue" d="M824.912,-232.362C817.159,-224.186 806.27,-212.702 797.155,-203.091"/>
<polygon fill="midnightblue" stroke="midnightblue" points="799.445,-200.419 790.024,-195.571 794.365,-205.235 799.445,-200.419"/>
</g>
<!-- Node5&#45;&gt;Node3 -->
<g id="edge12" class="edge"><title>Node5&#45;&gt;Node3</title>
<path fill="none" stroke="midnightblue" d="M651.241,-181.162C684.684,-176.059 734.274,-164.376 769,-138 805.343,-110.395 827.435,-59.6697 837.503,-31.3976"/>
<polygon fill="midnightblue" stroke="midnightblue" points="840.875,-32.3508 840.778,-21.7565 834.247,-30.0995 840.875,-32.3508"/>
</g>
<!-- Node6 -->
<g id="node13" class="node"><title>Node6</title>
<polygon fill="white" stroke="#bfbfbf" points="556.5,-0.5 556.5,-21.5 597.5,-21.5 597.5,-0.5 556.5,-0.5"/>
<text text-anchor="middle" x="577" y="-8.5" font-family="Helvetica,sans-Serif" font-size="10.00">glib.h</text>
</g>
<!-- Node5&#45;&gt;Node6 -->
<g id="edge14" class="edge"><title>Node5&#45;&gt;Node6</title>
<path fill="none" stroke="midnightblue" d="M612.46,-174.287C607.982,-155.314 598.452,-114.547 591,-80 587.502,-63.7837 583.778,-45.3684 581.051,-31.6435"/>
<polygon fill="midnightblue" stroke="midnightblue" points="584.473,-30.9055 579.101,-21.7736 577.606,-32.2624 584.473,-30.9055"/>
</g>
<!-- Node7 -->
<g id="node15" class="node"><title>Node7</title>
<polygon fill="white" stroke="#bfbfbf" points="661.5,-116.5 661.5,-137.5 690.5,-137.5 690.5,-116.5 661.5,-116.5"/>
<text text-anchor="middle" x="676" y="-124.5" font-family="Helvetica,sans-Serif" font-size="10.00">list</text>
</g>
<!-- Node5&#45;&gt;Node7 -->
<g id="edge16" class="edge"><title>Node5&#45;&gt;Node7</title>
<path fill="none" stroke="midnightblue" d="M626.188,-174.362C634.959,-166.023 647.349,-154.242 657.578,-144.516"/>
<polygon fill="midnightblue" stroke="midnightblue" points="660.047,-146.998 664.883,-137.571 655.224,-141.925 660.047,-146.998"/>
</g>
<!-- Node8 -->
<g id="node17" class="node"><title>Node8</title>
<a xlink:href="sptr_8h.htm" target="_top" xlink:title="sptr.h">
<polygon fill="white" stroke="black" points="599.5,-58.5 599.5,-79.5 642.5,-79.5 642.5,-58.5 599.5,-58.5"/>
<text text-anchor="middle" x="621" y="-66.5" font-family="Helvetica,sans-Serif" font-size="10.00">sptr.h</text>
</a>
</g>
<!-- Node5&#45;&gt;Node8 -->
<g id="edge18" class="edge"><title>Node5&#45;&gt;Node8</title>
<path fill="none" stroke="midnightblue" d="M615.554,-174.295C616.545,-155.131 618.639,-114.654 619.922,-89.8434"/>
<polygon fill="midnightblue" stroke="midnightblue" points="623.426,-89.8467 620.448,-79.6792 616.436,-89.485 623.426,-89.8467"/>
</g>
<!-- Node9 -->
<g id="node21" class="node"><title>Node9</title>
<a xlink:href="AsyncCaller_8h.htm" target="_top" xlink:title="AsyncCaller.h">
<polygon fill="white" stroke="black" points="659.5,-58.5 659.5,-79.5 740.5,-79.5 740.5,-58.5 659.5,-58.5"/>
<text text-anchor="middle" x="700" y="-66.5" font-family="Helvetica,sans-Serif" font-size="10.00">AsyncCaller.h</text>
</a>
</g>
<!-- Node5&#45;&gt;Node9 -->
<g id="edge24" class="edge"><title>Node5&#45;&gt;Node9</title>
<path fill="none" stroke="midnightblue" d="M619.799,-174.153C626.288,-160.063 638.706,-135.024 653,-116 660.935,-105.44 671.171,-94.9263 680.064,-86.5293"/>
<polygon fill="midnightblue" stroke="midnightblue" points="682.448,-89.0915 687.441,-79.7468 677.71,-83.9383 682.448,-89.0915"/>
</g>
<!-- Node5&#45;&gt;Node10 -->
<g id="edge30" class="edge"><title>Node5&#45;&gt;Node10</title>
<path fill="none" stroke="midnightblue" d="M578.928,-177.537C536.31,-168.614 463.315,-152.997 401,-138 399.076,-137.537 397.106,-137.053 395.118,-136.558"/>
<polygon fill="midnightblue" stroke="midnightblue" points="395.727,-133.102 385.173,-134.027 394,-139.885 395.727,-133.102"/>
</g>
<!-- Node5&#45;&gt;Node16 -->
<g id="edge48" class="edge"><title>Node5&#45;&gt;Node16</title>
<path fill="none" stroke="midnightblue" d="M636.55,-174.497C655.136,-165.438 682.202,-152.246 703.095,-142.063"/>
<polygon fill="midnightblue" stroke="midnightblue" points="704.753,-145.149 712.208,-137.621 701.686,-138.856 704.753,-145.149"/>
</g>
<!-- Node17 -->
<g id="node45" class="node"><title>Node17</title>
<a xlink:href="SingletonTimer_8h.htm" target="_top" xlink:title="SingletonTimer.h">
<polygon fill="white" stroke="black" points="410,-116.5 410,-137.5 506,-137.5 506,-116.5 410,-116.5"/>
<text text-anchor="middle" x="458" y="-124.5" font-family="Helvetica,sans-Serif" font-size="10.00">SingletonTimer.h</text>
</a>
</g>
<!-- Node5&#45;&gt;Node17 -->
<g id="edge56" class="edge"><title>Node5&#45;&gt;Node17</title>
<path fill="none" stroke="midnightblue" d="M586.568,-174.497C561.195,-165.123 523.843,-151.324 495.93,-141.012"/>
<polygon fill="midnightblue" stroke="midnightblue" points="497.078,-137.705 486.485,-137.523 494.652,-144.272 497.078,-137.705"/>
</g>
<!-- Node8&#45;&gt;Node3 -->
<g id="edge20" class="edge"><title>Node8&#45;&gt;Node3</title>
<path fill="none" stroke="midnightblue" d="M642.532,-60.7757C645.364,-59.7912 648.24,-58.8391 651,-58 701.689,-42.5885 761.045,-28.7481 800.411,-20.1433"/>
<polygon fill="midnightblue" stroke="midnightblue" points="801.187,-23.5565 810.218,-18.0176 799.704,-16.7154 801.187,-23.5565"/>
</g>
<!-- Node8&#45;&gt;Node6 -->
<g id="edge22" class="edge"><title>Node8&#45;&gt;Node6</title>
<path fill="none" stroke="midnightblue" d="M612.93,-58.3619C606.851,-50.3496 598.363,-39.1605 591.163,-29.6696"/>
<polygon fill="midnightblue" stroke="midnightblue" points="593.851,-27.4222 585.019,-21.5707 588.275,-31.653 593.851,-27.4222"/>
</g>
<!-- Node9&#45;&gt;Node3 -->
<g id="edge26" class="edge"><title>Node9&#45;&gt;Node3</title>
<path fill="none" stroke="midnightblue" d="M726.077,-58.4966C749.075,-49.2337 782.8,-35.6499 808.3,-25.3793"/>
<polygon fill="midnightblue" stroke="midnightblue" points="809.662,-28.6039 817.63,-21.6212 807.047,-22.1108 809.662,-28.6039"/>
</g>
<!-- Node9&#45;&gt;Node6 -->
<g id="edge28" class="edge"><title>Node9&#45;&gt;Node6</title>
<path fill="none" stroke="midnightblue" d="M677.726,-58.4966C657.946,-49.1695 628.875,-35.4612 607.042,-25.166"/>
<polygon fill="midnightblue" stroke="midnightblue" points="608.416,-21.9445 597.878,-20.8451 605.43,-28.2759 608.416,-21.9445"/>
</g>
<!-- Node10&#45;&gt;Node3 -->
<g id="edge32" class="edge"><title>Node10&#45;&gt;Node3</title>
<path fill="none" stroke="midnightblue" d="M363.28,-116.424C370.264,-100.686 385.711,-71.5107 409,-58 442.35,-38.6531 696.403,-20.4318 800.115,-13.7193"/>
<polygon fill="midnightblue" stroke="midnightblue" points="800.498,-17.202 810.253,-13.0688 800.05,-10.2164 800.498,-17.202"/>
</g>
<!-- Node10&#45;&gt;Node6 -->
<g id="edge36" class="edge"><title>Node10&#45;&gt;Node6</title>
<path fill="none" stroke="midnightblue" d="M358.429,-116.494C358.217,-101.381 360.204,-73.6095 376,-58 399.857,-34.424 496.289,-20.197 546.409,-14.2519"/>
<polygon fill="midnightblue" stroke="midnightblue" points="546.823,-17.7274 556.358,-13.1086 546.024,-10.7732 546.823,-17.7274"/>
</g>
<!-- Node10&#45;&gt;Node8 -->
<g id="edge46" class="edge"><title>Node10&#45;&gt;Node8</title>
<path fill="none" stroke="midnightblue" d="M385.167,-119.949C390.4,-118.595 395.867,-117.22 401,-116 467.873,-100.108 546.773,-83.8543 589.56,-75.2464"/>
<polygon fill="midnightblue" stroke="midnightblue" points="590.263,-78.6752 599.38,-73.2777 588.887,-71.8117 590.263,-78.6752"/>
</g>
<!-- Node11 -->
<g id="node28" class="node"><title>Node11</title>
<polygon fill="white" stroke="#bfbfbf" points="418,-58.5 418,-79.5 468,-79.5 468,-58.5 418,-58.5"/>
<text text-anchor="middle" x="443" y="-66.5" font-family="Helvetica,sans-Serif" font-size="10.00">stdint.h</text>
</g>
<!-- Node10&#45;&gt;Node11 -->
<g id="edge34" class="edge"><title>Node10&#45;&gt;Node11</title>
<path fill="none" stroke="midnightblue" d="M374.407,-116.362C386.958,-107.696 404.892,-95.3126 419.275,-85.3819"/>
<polygon fill="midnightblue" stroke="midnightblue" points="421.45,-88.1327 427.691,-79.5707 417.473,-82.3725 421.45,-88.1327"/>
</g>
<!-- Node12 -->
<g id="node31" class="node"><title>Node12</title>
<polygon fill="white" stroke="#bfbfbf" points="277.5,-58.5 277.5,-79.5 324.5,-79.5 324.5,-58.5 277.5,-58.5"/>
<text text-anchor="middle" x="301" y="-66.5" font-family="Helvetica,sans-Serif" font-size="10.00">stdio.h</text>
</g>
<!-- Node10&#45;&gt;Node12 -->
<g id="edge38" class="edge"><title>Node10&#45;&gt;Node12</title>
<path fill="none" stroke="midnightblue" d="M348.362,-116.362C340.104,-108.104 328.472,-96.4725 318.803,-86.8029"/>
<polygon fill="midnightblue" stroke="midnightblue" points="321.117,-84.1669 311.571,-79.5707 316.167,-89.1166 321.117,-84.1669"/>
</g>
<!-- Node13 -->
<g id="node33" class="node"><title>Node13</title>
<polygon fill="white" stroke="#bfbfbf" points="-0.5,-58.5 -0.5,-79.5 50.5,-79.5 50.5,-58.5 -0.5,-58.5"/>
<text text-anchor="middle" x="25" y="-66.5" font-family="Helvetica,sans-Serif" font-size="10.00">string.h</text>
</g>
<!-- Node10&#45;&gt;Node13 -->
<g id="edge40" class="edge"><title>Node10&#45;&gt;Node13</title>
<path fill="none" stroke="midnightblue" d="M332.646,-124.285C281.686,-118.734 166.024,-104.677 60.7008,-80.1605"/>
<polygon fill="midnightblue" stroke="midnightblue" points="61.4065,-76.7309 50.8692,-77.8338 59.7943,-83.5427 61.4065,-76.7309"/>
</g>
<!-- Node14 -->
<g id="node35" class="node"><title>Node14</title>
<polygon fill="white" stroke="#bfbfbf" points="68,-58.5 68,-79.5 154,-79.5 154,-58.5 68,-58.5"/>
<text text-anchor="middle" x="111" y="-66.5" font-family="Helvetica,sans-Serif" font-size="10.00">qnamespace.h</text>
</g>
<!-- Node10&#45;&gt;Node14 -->
<g id="edge42" class="edge"><title>Node10&#45;&gt;Node14</title>
<path fill="none" stroke="midnightblue" d="M332.928,-120.903C293.055,-111.577 216.091,-93.5777 164.127,-81.4248"/>
<polygon fill="midnightblue" stroke="midnightblue" points="164.62,-77.9457 154.085,-79.0764 163.026,-84.7618 164.62,-77.9457"/>
</g>
<!-- Node15 -->
<g id="node37" class="node"><title>Node15</title>
<polygon fill="white" stroke="#bfbfbf" points="172,-58.5 172,-79.5 260,-79.5 260,-58.5 172,-58.5"/>
<text text-anchor="middle" x="216" y="-66.5" font-family="Helvetica,sans-Serif" font-size="10.00">SysMgrEvent.h</text>
</g>
<!-- Node10&#45;&gt;Node15 -->
<g id="edge44" class="edge"><title>Node10&#45;&gt;Node15</title>
<path fill="none" stroke="midnightblue" d="M333.104,-116.497C310.367,-107.275 277.07,-93.7695 251.788,-83.5153"/>
<polygon fill="midnightblue" stroke="midnightblue" points="252.769,-80.1365 242.187,-79.6212 250.138,-86.6232 252.769,-80.1365"/>
</g>
<!-- Node16&#45;&gt;Node3 -->
<g id="edge50" class="edge"><title>Node16&#45;&gt;Node3</title>
<path fill="none" stroke="midnightblue" d="M745.257,-116.37C755.114,-106.97 769.736,-92.8011 782,-80 798.019,-63.2795 815.601,-43.5752 827.938,-29.5132"/>
<polygon fill="midnightblue" stroke="midnightblue" points="830.601,-31.7848 834.544,-21.951 825.329,-27.1795 830.601,-31.7848"/>
</g>
<!-- Node16&#45;&gt;Node6 -->
<g id="edge54" class="edge"><title>Node16&#45;&gt;Node6</title>
<path fill="none" stroke="midnightblue" d="M741.315,-116.021C750.093,-101.332 762.092,-75.1496 749,-58 731.914,-35.6194 652.257,-21.3131 607.584,-14.9072"/>
<polygon fill="midnightblue" stroke="midnightblue" points="607.95,-11.4246 597.564,-13.5188 606.989,-18.3584 607.95,-11.4246"/>
</g>
<!-- Node16&#45;&gt;Node8 -->
<g id="edge52" class="edge"><title>Node16&#45;&gt;Node8</title>
<path fill="none" stroke="midnightblue" d="M713.537,-116.497C695.967,-107.479 670.418,-94.3649 650.615,-84.2006"/>
<polygon fill="midnightblue" stroke="midnightblue" points="652.188,-81.0738 641.693,-79.6212 648.991,-87.3014 652.188,-81.0738"/>
</g>
<!-- Node17&#45;&gt;Node3 -->
<g id="edge58" class="edge"><title>Node17&#45;&gt;Node3</title>
<path fill="none" stroke="midnightblue" d="M474.498,-116.392C498.956,-101.151 546.721,-73.2224 591,-58 662.145,-33.5415 749.166,-20.9236 800.392,-15.1521"/>
<polygon fill="midnightblue" stroke="midnightblue" points="800.891,-18.6185 810.452,-14.055 800.132,-11.6597 800.891,-18.6185"/>
</g>
<!-- Node17&#45;&gt;Node6 -->
<g id="edge60" class="edge"><title>Node17&#45;&gt;Node6</title>
<path fill="none" stroke="midnightblue" d="M466.781,-116.265C478.397,-102.298 499.769,-77.3894 520,-58 530.96,-47.4959 543.97,-36.658 554.791,-28.0404"/>
<polygon fill="midnightblue" stroke="midnightblue" points="557.219,-30.5843 562.92,-21.654 552.894,-25.08 557.219,-30.5843"/>
</g>
<!-- Node17&#45;&gt;Node11 -->
<g id="edge62" class="edge"><title>Node17&#45;&gt;Node11</title>
<path fill="none" stroke="midnightblue" d="M455.249,-116.362C453.303,-108.84 450.634,-98.5187 448.284,-89.4308"/>
<polygon fill="midnightblue" stroke="midnightblue" points="451.626,-88.3758 445.734,-79.5707 444.849,-90.1285 451.626,-88.3758"/>
</g>
<!-- Node18&#45;&gt;Node3 -->
<g id="edge68" class="edge"><title>Node18&#45;&gt;Node3</title>
<path fill="none" stroke="midnightblue" d="M1285.24,-174.221C1266.46,-149.05 1215.76,-86.3913 1157,-58 1110.28,-35.4238 962.132,-20.5776 887.646,-14.3436"/>
<polygon fill="midnightblue" stroke="midnightblue" points="887.896,-10.8525 877.643,-13.5212 887.322,-17.8289 887.896,-10.8525"/>
</g>
<!-- Node19 -->
<g id="node54" class="node"><title>Node19</title>
<polygon fill="white" stroke="#bfbfbf" points="1366,-116.5 1366,-137.5 1418,-137.5 1418,-116.5 1366,-116.5"/>
<text text-anchor="middle" x="1392" y="-124.5" font-family="Helvetica,sans-Serif" font-size="10.00">QEvent</text>
</g>
<!-- Node18&#45;&gt;Node19 -->
<g id="edge70" class="edge"><title>Node18&#45;&gt;Node19</title>
<path fill="none" stroke="midnightblue" d="M1311.16,-174.362C1326.23,-165.532 1347.89,-152.844 1364.99,-142.822"/>
<polygon fill="midnightblue" stroke="midnightblue" points="1367.1,-145.646 1373.96,-137.571 1363.56,-139.606 1367.1,-145.646"/>
</g>
<!-- Node20&#45;&gt;Node2 -->
<g id="edge74" class="edge"><title>Node20&#45;&gt;Node2</title>
<path fill="none" stroke="midnightblue" d="M1073.08,-174.362C1072.44,-166.922 1071.56,-156.743 1070.79,-147.728"/>
<polygon fill="midnightblue" stroke="midnightblue" points="1074.26,-147.233 1069.91,-137.571 1067.28,-147.834 1074.26,-147.233"/>
</g>
<!-- Node24&#45;&gt;Node2 -->
<g id="edge100" class="edge"><title>Node24&#45;&gt;Node2</title>
<path fill="none" stroke="midnightblue" d="M1378.8,-232.605C1337.9,-224.87 1283.93,-212.747 1238,-196 1217.83,-188.646 1214.65,-182.655 1195,-174 1166.99,-161.66 1134.62,-149.633 1109.71,-140.835"/>
<polygon fill="midnightblue" stroke="midnightblue" points="1110.81,-137.51 1100.21,-137.508 1108.49,-144.116 1110.81,-137.51"/>
</g>
<!-- Node24&#45;&gt;Node18 -->
<g id="edge102" class="edge"><title>Node24&#45;&gt;Node18</title>
<path fill="none" stroke="midnightblue" d="M1415.02,-232.497C1391.15,-223.205 1356.11,-209.565 1329.69,-199.283"/>
<polygon fill="midnightblue" stroke="midnightblue" points="1330.62,-195.889 1320.03,-195.523 1328.08,-202.412 1330.62,-195.889"/>
</g>
<!-- Node24&#45;&gt;Node19 -->
<g id="edge94" class="edge"><title>Node24&#45;&gt;Node19</title>
<path fill="none" stroke="midnightblue" d="M1452.74,-232.369C1465.37,-218.514 1483.29,-193.726 1472,-174 1462.44,-157.288 1444.36,-145.935 1427.81,-138.58"/>
<polygon fill="midnightblue" stroke="midnightblue" points="1428.89,-135.244 1418.31,-134.702 1426.25,-141.724 1428.89,-135.244"/>
</g>
<!-- Node25 -->
<g id="node69" class="node"><title>Node25</title>
<polygon fill="white" stroke="#bfbfbf" points="1519,-174.5 1519,-195.5 1567,-195.5 1567,-174.5 1519,-174.5"/>
<text text-anchor="middle" x="1543" y="-182.5" font-family="Helvetica,sans-Serif" font-size="10.00">limits.h</text>
</g>
<!-- Node24&#45;&gt;Node25 -->
<g id="edge88" class="edge"><title>Node24&#45;&gt;Node25</title>
<path fill="none" stroke="midnightblue" d="M1460.52,-232.362C1475.9,-223.532 1498,-210.844 1515.45,-200.822"/>
<polygon fill="midnightblue" stroke="midnightblue" points="1517.66,-203.586 1524.59,-195.571 1514.18,-197.515 1517.66,-203.586"/>
</g>
<!-- Node24&#45;&gt;Node26 -->
<g id="edge90" class="edge"><title>Node24&#45;&gt;Node26</title>
<path fill="none" stroke="midnightblue" d="M1505.07,-232.616C1551.75,-224.506 1617.03,-212.271 1682.15,-196.306"/>
<polygon fill="midnightblue" stroke="midnightblue" points="1683.31,-199.624 1692.17,-193.818 1681.62,-192.83 1683.31,-199.624"/>
</g>
<!-- Node27 -->
<g id="node73" class="node"><title>Node27</title>
<polygon fill="white" stroke="#bfbfbf" points="1584.5,-174.5 1584.5,-195.5 1675.5,-195.5 1675.5,-174.5 1584.5,-174.5"/>
<text text-anchor="middle" x="1630" y="-182.5" font-family="Helvetica,sans-Serif" font-size="10.00">QSocketNotifier</text>
</g>
<!-- Node24&#45;&gt;Node27 -->
<g id="edge92" class="edge"><title>Node24&#45;&gt;Node27</title>
<path fill="none" stroke="midnightblue" d="M1476.05,-232.497C1506.96,-222.959 1552.72,-208.841 1586.32,-198.475"/>
<polygon fill="midnightblue" stroke="midnightblue" points="1587.37,-201.816 1595.89,-195.523 1585.3,-195.127 1587.37,-201.816"/>
</g>
<!-- Node28 -->
<g id="node76" class="node"><title>Node28</title>
<polygon fill="white" stroke="#bfbfbf" points="1357,-174.5 1357,-195.5 1403,-195.5 1403,-174.5 1357,-174.5"/>
<text text-anchor="middle" x="1380" y="-182.5" font-family="Helvetica,sans-Serif" font-size="10.00">vector</text>
</g>
<!-- Node24&#45;&gt;Node28 -->
<g id="edge96" class="edge"><title>Node24&#45;&gt;Node28</title>
<path fill="none" stroke="midnightblue" d="M1430.63,-232.362C1421.71,-224.023 1409.12,-212.242 1398.72,-202.516"/>
<polygon fill="midnightblue" stroke="midnightblue" points="1400.99,-199.846 1391.3,-195.571 1396.21,-204.958 1400.99,-199.846"/>
</g>
<!-- Node29 -->
<g id="node78" class="node"><title>Node29</title>
<polygon fill="white" stroke="#bfbfbf" points="1420.5,-174.5 1420.5,-195.5 1463.5,-195.5 1463.5,-174.5 1420.5,-174.5"/>
<text text-anchor="middle" x="1442" y="-182.5" font-family="Helvetica,sans-Serif" font-size="10.00">string</text>
</g>
<!-- Node24&#45;&gt;Node29 -->
<g id="edge98" class="edge"><title>Node24&#45;&gt;Node29</title>
<path fill="none" stroke="midnightblue" d="M1442,-232.362C1442,-224.922 1442,-214.743 1442,-205.728"/>
<polygon fill="midnightblue" stroke="midnightblue" points="1445.5,-205.571 1442,-195.571 1438.5,-205.571 1445.5,-205.571"/>
</g>
<!-- Node30&#45;&gt;Node3 -->
<g id="edge106" class="edge"><title>Node30&#45;&gt;Node3</title>
<path fill="none" stroke="midnightblue" d="M1109.43,-232.352C1122.59,-209.019 1149.33,-152.553 1124,-116 1096.31,-76.0403 959.269,-38.3498 887.701,-20.996"/>
<polygon fill="midnightblue" stroke="midnightblue" points="888.177,-17.5113 877.637,-18.5853 886.547,-24.3187 888.177,-17.5113"/>
</g>
<!-- Node30&#45;&gt;Node20 -->
<g id="edge108" class="edge"><title>Node30&#45;&gt;Node20</title>
<path fill="none" stroke="midnightblue" d="M1097.68,-232.362C1093.8,-224.595 1088.42,-213.843 1083.77,-204.546"/>
<polygon fill="midnightblue" stroke="midnightblue" points="1086.89,-202.95 1079.29,-195.571 1080.63,-206.08 1086.89,-202.95"/>
</g>
<!-- Node31&#45;&gt;Node2 -->
<g id="edge116" class="edge"><title>Node31&#45;&gt;Node2</title>
<path fill="none" stroke="midnightblue" d="M983.491,-232.329C992.118,-218.431 1008.13,-193.597 1024,-174 1032.17,-163.919 1042.06,-153.424 1050.49,-144.915"/>
<polygon fill="midnightblue" stroke="midnightblue" points="1053.1,-147.258 1057.73,-137.729 1048.17,-142.291 1053.1,-147.258"/>
</g>
<!-- Node31&#45;&gt;Node3 -->
<g id="edge112" class="edge"><title>Node31&#45;&gt;Node3</title>
<path fill="none" stroke="midnightblue" d="M973.211,-232.461C968.123,-218.704 958.499,-194.025 948,-174 919.466,-119.576 878.56,-59.6378 857.567,-29.9013"/>
<polygon fill="midnightblue" stroke="midnightblue" points="860.372,-27.8066 851.727,-21.6819 854.666,-31.861 860.372,-27.8066"/>
</g>
<!-- Node31&#45;&gt;Node21 -->
<g id="edge114" class="edge"><title>Node31&#45;&gt;Node21</title>
<path fill="none" stroke="midnightblue" d="M963.06,-232.362C951.812,-223.777 935.784,-211.546 922.835,-201.664"/>
<polygon fill="midnightblue" stroke="midnightblue" points="924.924,-198.855 914.851,-195.571 920.677,-204.42 924.924,-198.855"/>
</g>
</g>
</svg>
