<?xml version="1.0" encoding="UTF-8" standalone="no"?>
<!DOCTYPE svg PUBLIC "-//W3C//DTD SVG 1.1//EN"
 "http://www.w3.org/Graphics/SVG/1.1/DTD/svg11.dtd">
<!-- Generated by graphviz version 2.26.3 (20100126.1600)
 -->
<!-- Title: Graphical Class Hierarchy Pages: 1 -->
<svg width="304pt" height="94pt"
 viewBox="0.00 0.00 304.00 94.00" xmlns="http://www.w3.org/2000/svg" xmlns:xlink="http://www.w3.org/1999/xlink">
<g id="graph1" class="graph" transform="scale(1 1) rotate(0) translate(4 90)">
<title>Graphical Class Hierarchy</title>
<polygon fill="white" stroke="white" points="-4,5 -4,-90 301,-90 301,5 -4,5"/>
<!-- Node1 -->
<g id="node1" class="node"><title>Node1</title>
<a xlink:href="classFunctionWrapper.htm" target="_top" xlink:title="FunctionWrapper\&lt; void\l(*)()\&gt;">
<polygon fill="white" stroke="black" points="0,-52 0,-86 126,-86 126,-52 0,-52"/>
<text text-anchor="start" x="8" y="-73" font-family="Helvetica,sans-Serif" font-size="10.00">FunctionWrapper&lt; void</text>
<text text-anchor="middle" x="63" y="-60" font-family="Helvetica,sans-Serif" font-size="10.00">(*)()&gt;</text>
</a>
</g>
<!-- Node2 -->
<g id="node3" class="node"><title>Node2</title>
<a xlink:href="classSlot.htm" target="_top" xlink:title="Slot\&lt; Receiver, Arg0,\l Arg1, Arg2, Arg3, Arg4 \&gt;">
<polygon fill="white" stroke="black" points="162,-26 162,-60 296,-60 296,-26 162,-26"/>
<text text-anchor="start" x="170" y="-47" font-family="Helvetica,sans-Serif" font-size="10.00">Slot&lt; Receiver, Arg0,</text>
<text text-anchor="middle" x="229" y="-34" font-family="Helvetica,sans-Serif" font-size="10.00"> Arg1, Arg2, Arg3, Arg4 &gt;</text>
</a>
</g>
<!-- Node1&#45;&gt;Node2 -->
<g id="edge2" class="edge"><title>Node1&#45;&gt;Node2</title>
<path fill="none" stroke="midnightblue" d="M136.158,-57.5416C144.688,-56.2056 153.358,-54.8475 161.802,-53.525"/>
<polygon fill="midnightblue" stroke="midnightblue" points="135.569,-54.091 126.231,-59.0963 136.652,-61.0067 135.569,-54.091"/>
</g>
<!-- Node3 -->
<g id="node4" class="node"><title>Node3</title>
<a xlink:href="classSlotBase.htm" target="_top" xlink:title="SlotBase\&lt; Arg0, Arg1,\l Arg2, Arg3, Arg4 \&gt;">
<polygon fill="white" stroke="black" points="3,-0 3,-34 123,-34 123,-0 3,-0"/>
<text text-anchor="start" x="11" y="-21" font-family="Helvetica,sans-Serif" font-size="10.00">SlotBase&lt; Arg0, Arg1,</text>
<text text-anchor="middle" x="63" y="-8" font-family="Helvetica,sans-Serif" font-size="10.00"> Arg2, Arg3, Arg4 &gt;</text>
</a>
</g>
<!-- Node3&#45;&gt;Node2 -->
<g id="edge4" class="edge"><title>Node3&#45;&gt;Node2</title>
<path fill="none" stroke="midnightblue" d="M133.506,-28.043C142.92,-29.5176 152.554,-31.0266 161.909,-32.4917"/>
<polygon fill="midnightblue" stroke="midnightblue" points="133.821,-24.5498 123.399,-26.4601 132.737,-31.4655 133.821,-24.5498"/>
</g>
</g>
</svg>
