<?xml version="1.0" encoding="UTF-8" standalone="no"?>
<!DOCTYPE svg PUBLIC "-//W3C//DTD SVG 1.1//EN"
 "http://www.w3.org/Graphics/SVG/1.1/DTD/svg11.dtd">
<!-- Generated by graphviz version 2.26.3 (20100126.1600)
 -->
<!-- Title: Graphical Class Hierarchy Pages: 1 -->
<svg width="304pt" height="108pt"
 viewBox="0.00 0.00 304.00 108.00" xmlns="http://www.w3.org/2000/svg" xmlns:xlink="http://www.w3.org/1999/xlink">
<g id="graph1" class="graph" transform="scale(1 1) rotate(0) translate(4 104)">
<title>Graphical Class Hierarchy</title>
<polygon fill="white" stroke="white" points="-4,5 -4,-104 301,-104 301,5 -4,5"/>
<!-- Node1 -->
<g id="node1" class="node"><title>Node1</title>
<a xlink:href="classFunctionWrapper.htm" target="_top" xlink:title="FunctionWrapper\&lt; void\l(Receiver::*)(Arg0, Arg1,\l Arg2)\&gt;">
<polygon fill="white" stroke="black" points="0,-52.5 0,-99.5 132,-99.5 132,-52.5 0,-52.5"/>
<text text-anchor="start" x="8" y="-86.5" font-family="Helvetica,sans-Serif" font-size="10.00">FunctionWrapper&lt; void</text>
<text text-anchor="start" x="8" y="-73.5" font-family="Helvetica,sans-Serif" font-size="10.00">(Receiver::*)(Arg0, Arg1,</text>
<text text-anchor="middle" x="66" y="-60.5" font-family="Helvetica,sans-Serif" font-size="10.00"> Arg2)&gt;</text>
</a>
</g>
<!-- Node2 -->
<g id="node3" class="node"><title>Node2</title>
<a xlink:href="classSlot_3_01Receiver_00_01Arg0_00_01Arg1_00_01Arg2_00_01void_00_01void_01_4.htm" target="_top" xlink:title="Slot\&lt; Receiver, Arg0,\l Arg1, Arg2, void, void \&gt;">
<polygon fill="white" stroke="black" points="168,-29 168,-63 296,-63 296,-29 168,-29"/>
<text text-anchor="start" x="176" y="-50" font-family="Helvetica,sans-Serif" font-size="10.00">Slot&lt; Receiver, Arg0,</text>
<text text-anchor="middle" x="232" y="-37" font-family="Helvetica,sans-Serif" font-size="10.00"> Arg1, Arg2, void, void &gt;</text>
</a>
</g>
<!-- Node1&#45;&gt;Node2 -->
<g id="edge2" class="edge"><title>Node1&#45;&gt;Node2</title>
<path fill="none" stroke="midnightblue" d="M142.092,-62.2485C150.674,-60.6974 159.356,-59.1285 167.766,-57.6085"/>
<polygon fill="midnightblue" stroke="midnightblue" points="141.303,-58.8343 132.085,-64.057 142.548,-65.7227 141.303,-58.8343"/>
</g>
<!-- Node3 -->
<g id="node4" class="node"><title>Node3</title>
<a xlink:href="classSlotBase.htm" target="_top" xlink:title="SlotBase\&lt; Arg0, Arg1,\l Arg2 \&gt;">
<polygon fill="white" stroke="black" points="6,-0 6,-34 126,-34 126,-0 6,-0"/>
<text text-anchor="start" x="14" y="-21" font-family="Helvetica,sans-Serif" font-size="10.00">SlotBase&lt; Arg0, Arg1,</text>
<text text-anchor="middle" x="66" y="-8" font-family="Helvetica,sans-Serif" font-size="10.00"> Arg2 &gt;</text>
</a>
</g>
<!-- Node3&#45;&gt;Node2 -->
<g id="edge4" class="edge"><title>Node3&#45;&gt;Node2</title>
<path fill="none" stroke="midnightblue" d="M136.294,-29.2803C146.725,-31.1026 157.431,-32.9728 167.73,-34.7721"/>
<polygon fill="midnightblue" stroke="midnightblue" points="136.853,-25.8249 126.399,-27.5517 135.648,-32.7205 136.853,-25.8249"/>
</g>
</g>
</svg>
