<?xml version="1.0" encoding="UTF-8" standalone="no"?>
<!DOCTYPE svg PUBLIC "-//W3C//DTD SVG 1.1//EN"
 "http://www.w3.org/Graphics/SVG/1.1/DTD/svg11.dtd">
<!-- Generated by graphviz version 2.26.3 (20100126.1600)
 -->
<!-- Title: Graphical Class Hierarchy Pages: 1 -->
<svg width="802pt" height="724pt"
 viewBox="0.00 0.00 802.00 724.00" xmlns="http://www.w3.org/2000/svg" xmlns:xlink="http://www.w3.org/1999/xlink">
<g id="graph1" class="graph" transform="scale(1 1) rotate(0) translate(4 720)">
<title>Graphical Class Hierarchy</title>
<polygon fill="white" stroke="white" points="-4,5 -4,-720 799,-720 799,5 -4,5"/>
<!-- Node1 -->
<g id="node1" class="node"><title>Node1</title>
<a xlink:href="classNYXConnectorObserver.htm" target="_top" xlink:title="NYXConnectorObserver">
<polygon fill="white" stroke="black" points="222.5,-320.5 222.5,-341.5 353.5,-341.5 353.5,-320.5 222.5,-320.5"/>
<text text-anchor="middle" x="288" y="-328.5" font-family="Helvetica,sans-Serif" font-size="10.00">NYXConnectorObserver</text>
</a>
</g>
<!-- Node2 -->
<g id="node3" class="node"><title>Node2</title>
<a xlink:href="classHostArm.htm" target="_top" xlink:title="HostArm">
<polygon fill="white" stroke="black" points="461.5,-140.5 461.5,-161.5 518.5,-161.5 518.5,-140.5 461.5,-140.5"/>
<text text-anchor="middle" x="490" y="-148.5" font-family="Helvetica,sans-Serif" font-size="10.00">HostArm</text>
</a>
</g>
<!-- Node1&#45;&gt;Node2 -->
<g id="edge2" class="edge"><title>Node1&#45;&gt;Node2</title>
<path fill="none" stroke="midnightblue" d="M354.726,-315.295C356.578,-313.976 358.344,-312.547 360,-311 395.135,-278.188 365.823,-246.423 396,-209 413.695,-187.057 442.062,-171.19 463.012,-161.656"/>
<polygon fill="midnightblue" stroke="midnightblue" points="352.928,-312.292 346.121,-320.411 356.505,-318.309 352.928,-312.292"/>
</g>
<!-- Node3 -->
<g id="node5" class="node"><title>Node3</title>
<a xlink:href="classHostArmBroadway.htm" target="_top" xlink:title="HostArmBroadway">
<polygon fill="white" stroke="black" points="655,-240.5 655,-261.5 759,-261.5 759,-240.5 655,-240.5"/>
<text text-anchor="middle" x="707" y="-248.5" font-family="Helvetica,sans-Serif" font-size="10.00">HostArmBroadway</text>
</a>
</g>
<!-- Node2&#45;&gt;Node3 -->
<g id="edge4" class="edge"><title>Node2&#45;&gt;Node3</title>
<path fill="none" stroke="midnightblue" d="M516.089,-167.091C553.84,-190.369 619.302,-230.714 620,-231 630.899,-235.465 642.995,-239.042 654.616,-241.864"/>
<polygon fill="midnightblue" stroke="midnightblue" points="517.493,-163.845 507.144,-161.575 513.819,-169.803 517.493,-163.845"/>
</g>
<!-- Node4 -->
<g id="node7" class="node"><title>Node4</title>
<a xlink:href="classHostArmMantaray.htm" target="_top" xlink:title="HostArmMantaray">
<polygon fill="white" stroke="black" points="656,-200.5 656,-221.5 758,-221.5 758,-200.5 656,-200.5"/>
<text text-anchor="middle" x="707" y="-208.5" font-family="Helvetica,sans-Serif" font-size="10.00">HostArmMantaray</text>
</a>
</g>
<!-- Node2&#45;&gt;Node4 -->
<g id="edge6" class="edge"><title>Node2&#45;&gt;Node4</title>
<path fill="none" stroke="midnightblue" d="M528.495,-163.648C554.256,-171.913 588.994,-182.678 620,-191 632.274,-194.294 645.611,-197.53 658.071,-200.407"/>
<polygon fill="midnightblue" stroke="midnightblue" points="529.332,-160.241 518.741,-160.5 527.182,-166.902 529.332,-160.241"/>
</g>
<!-- Node5 -->
<g id="node9" class="node"><title>Node5</title>
<a xlink:href="classHostArmOpal.htm" target="_top" xlink:title="HostArmOpal">
<polygon fill="white" stroke="black" points="667,-160.5 667,-181.5 747,-181.5 747,-160.5 667,-160.5"/>
<text text-anchor="middle" x="707" y="-168.5" font-family="Helvetica,sans-Serif" font-size="10.00">HostArmOpal</text>
</a>
</g>
<!-- Node2&#45;&gt;Node5 -->
<g id="edge8" class="edge"><title>Node2&#45;&gt;Node5</title>
<path fill="none" stroke="midnightblue" d="M529.236,-154.616C568.229,-158.21 627.731,-163.694 666.991,-167.313"/>
<polygon fill="midnightblue" stroke="midnightblue" points="529.095,-151.088 518.816,-153.656 528.452,-158.059 529.095,-151.088"/>
</g>
<!-- Node6 -->
<g id="node11" class="node"><title>Node6</title>
<a xlink:href="classHostArmQemu.htm" target="_top" xlink:title="HostArmQemu">
<polygon fill="white" stroke="black" points="664.5,-120.5 664.5,-141.5 749.5,-141.5 749.5,-120.5 664.5,-120.5"/>
<text text-anchor="middle" x="707" y="-128.5" font-family="Helvetica,sans-Serif" font-size="10.00">HostArmQemu</text>
</a>
</g>
<!-- Node2&#45;&gt;Node6 -->
<g id="edge10" class="edge"><title>Node2&#45;&gt;Node6</title>
<path fill="none" stroke="midnightblue" d="M529.003,-147.405C567.088,-143.895 624.9,-138.567 664.226,-134.942"/>
<polygon fill="midnightblue" stroke="midnightblue" points="528.452,-143.941 518.816,-148.344 529.095,-150.912 528.452,-143.941"/>
</g>
<!-- Node7 -->
<g id="node13" class="node"><title>Node7</title>
<a xlink:href="classHostArmTopaz.htm" target="_top" xlink:title="HostArmTopaz">
<polygon fill="white" stroke="black" points="663.5,-80.5 663.5,-101.5 750.5,-101.5 750.5,-80.5 663.5,-80.5"/>
<text text-anchor="middle" x="707" y="-88.5" font-family="Helvetica,sans-Serif" font-size="10.00">HostArmTopaz</text>
</a>
</g>
<!-- Node2&#45;&gt;Node7 -->
<g id="edge12" class="edge"><title>Node2&#45;&gt;Node7</title>
<path fill="none" stroke="midnightblue" d="M528.868,-145.409C546.095,-142.254 566.403,-137.591 584,-131 601.141,-124.58 602.912,-117.559 620,-111 633.745,-105.724 649.27,-101.609 663.36,-98.5206"/>
<polygon fill="midnightblue" stroke="midnightblue" points="527.851,-142.033 518.592,-147.183 529.042,-148.931 527.851,-142.033"/>
</g>
<!-- Node8 -->
<g id="node15" class="node"><title>Node8</title>
<a xlink:href="classHostArmUnknown.htm" target="_top" xlink:title="HostArmUnknown">
<polygon fill="white" stroke="black" points="656.5,-40.5 656.5,-61.5 757.5,-61.5 757.5,-40.5 656.5,-40.5"/>
<text text-anchor="middle" x="707" y="-48.5" font-family="Helvetica,sans-Serif" font-size="10.00">HostArmUnknown</text>
</a>
</g>
<!-- Node2&#45;&gt;Node8 -->
<g id="edge14" class="edge"><title>Node2&#45;&gt;Node8</title>
<path fill="none" stroke="midnightblue" d="M528.723,-149.779C546.905,-147.546 568.034,-142.399 584,-131 609.31,-112.931 594.838,-89.2754 620,-71 630.533,-63.3495 643.521,-58.5664 656.218,-55.5925"/>
<polygon fill="midnightblue" stroke="midnightblue" points="528.31,-146.303 518.7,-150.762 528.994,-153.269 528.31,-146.303"/>
</g>
<!-- Node9 -->
<g id="node17" class="node"><title>Node9</title>
<a xlink:href="classHostArmWindsorNot.htm" target="_top" xlink:title="HostArmWindsorNot">
<polygon fill="white" stroke="black" points="650.5,-0.5 650.5,-21.5 763.5,-21.5 763.5,-0.5 650.5,-0.5"/>
<text text-anchor="middle" x="707" y="-8.5" font-family="Helvetica,sans-Serif" font-size="10.00">HostArmWindsorNot</text>
</a>
</g>
<!-- Node2&#45;&gt;Node9 -->
<g id="edge16" class="edge"><title>Node2&#45;&gt;Node9</title>
<path fill="none" stroke="midnightblue" d="M528.715,-151.2C547.384,-149.364 568.937,-144.143 584,-131 619.592,-99.9438 584.662,-62.3456 620,-31 628.464,-23.4924 639.175,-18.6403 650.163,-15.5395"/>
<polygon fill="midnightblue" stroke="midnightblue" points="528.431,-147.712 518.7,-151.901 528.919,-154.694 528.431,-147.712"/>
</g>
<!-- Node10 -->
<g id="node18" class="node"><title>Node10</title>
<a xlink:href="classQObject.htm" target="_top" xlink:title="QObject">
<polygon fill="white" stroke="black" points="120.5,-240.5 120.5,-261.5 175.5,-261.5 175.5,-240.5 120.5,-240.5"/>
<text text-anchor="middle" x="148" y="-248.5" font-family="Helvetica,sans-Serif" font-size="10.00">QObject</text>
</a>
</g>
<!-- Node11 -->
<g id="node20" class="node"><title>Node11</title>
<a xlink:href="classHostArmQemuKeyFilter.htm" target="_top" xlink:title="HostArmQemuKeyFilter">
<polygon fill="white" stroke="black" points="225,-240.5 225,-261.5 351,-261.5 351,-240.5 225,-240.5"/>
<text text-anchor="middle" x="288" y="-248.5" font-family="Helvetica,sans-Serif" font-size="10.00">HostArmQemuKeyFilter</text>
</a>
</g>
<!-- Node10&#45;&gt;Node11 -->
<g id="edge18" class="edge"><title>Node10&#45;&gt;Node11</title>
<path fill="none" stroke="midnightblue" d="M185.763,-251C197.792,-251 211.446,-251 224.769,-251"/>
<polygon fill="midnightblue" stroke="midnightblue" points="185.66,-247.5 175.659,-251 185.659,-254.5 185.66,-247.5"/>
</g>
<!-- Node12 -->
<g id="node22" class="node"><title>Node12</title>
<a xlink:href="classHostBase.htm" target="_top" xlink:title="HostBase">
<polygon fill="white" stroke="black" points="257,-120.5 257,-141.5 319,-141.5 319,-120.5 257,-120.5"/>
<text text-anchor="middle" x="288" y="-128.5" font-family="Helvetica,sans-Serif" font-size="10.00">HostBase</text>
</a>
</g>
<!-- Node10&#45;&gt;Node12 -->
<g id="edge20" class="edge"><title>Node10&#45;&gt;Node12</title>
<path fill="none" stroke="midnightblue" d="M163.536,-232.645C168.948,-225.978 174.931,-218.29 180,-211 197.754,-185.467 191.256,-169.837 216,-151 227.768,-142.042 243.333,-137.096 256.979,-134.365"/>
<polygon fill="midnightblue" stroke="midnightblue" points="160.769,-230.498 157.097,-240.436 166.165,-234.958 160.769,-230.498"/>
</g>
<!-- Node14 -->
<g id="node27" class="node"><title>Node14</title>
<a xlink:href="classHostQtDesktopKeyFilter.htm" target="_top" xlink:title="HostQtDesktopKeyFilter">
<polygon fill="white" stroke="black" points="223,-200.5 223,-221.5 353,-221.5 353,-200.5 223,-200.5"/>
<text text-anchor="middle" x="288" y="-208.5" font-family="Helvetica,sans-Serif" font-size="10.00">HostQtDesktopKeyFilter</text>
</a>
</g>
<!-- Node10&#45;&gt;Node14 -->
<g id="edge26" class="edge"><title>Node10&#45;&gt;Node14</title>
<path fill="none" stroke="midnightblue" d="M185.382,-239.895C195.324,-236.972 206.062,-233.842 216,-231 226.852,-227.897 238.643,-224.593 249.483,-221.584"/>
<polygon fill="midnightblue" stroke="midnightblue" points="184.365,-236.546 175.763,-242.731 186.345,-243.26 184.365,-236.546"/>
</g>
<!-- Node15 -->
<g id="node29" class="node"><title>Node15</title>
<a xlink:href="classHostQtDesktopMouseFilter.htm" target="_top" xlink:title="HostQtDesktopMouseFilter">
<polygon fill="white" stroke="black" points="216.5,-160.5 216.5,-181.5 359.5,-181.5 359.5,-160.5 216.5,-160.5"/>
<text text-anchor="middle" x="288" y="-168.5" font-family="Helvetica,sans-Serif" font-size="10.00">HostQtDesktopMouseFilter</text>
</a>
</g>
<!-- Node10&#45;&gt;Node15 -->
<g id="edge28" class="edge"><title>Node10&#45;&gt;Node15</title>
<path fill="none" stroke="midnightblue" d="M164.189,-232.828C177.022,-219.465 196.058,-201.816 216,-191 222.956,-187.227 230.686,-184.117 238.425,-181.567"/>
<polygon fill="midnightblue" stroke="midnightblue" points="161.303,-230.792 157.049,-240.496 166.425,-235.563 161.303,-230.792"/>
</g>
<!-- Node16 -->
<g id="node31" class="node"><title>Node16</title>
<a xlink:href="classLocalePreferences.htm" target="_top" xlink:title="LocalePreferences">
<polygon fill="white" stroke="black" points="235,-360.5 235,-381.5 341,-381.5 341,-360.5 235,-360.5"/>
<text text-anchor="middle" x="288" y="-368.5" font-family="Helvetica,sans-Serif" font-size="10.00">LocalePreferences</text>
</a>
</g>
<!-- Node10&#45;&gt;Node16 -->
<g id="edge30" class="edge"><title>Node10&#45;&gt;Node16</title>
<path fill="none" stroke="midnightblue" d="M156.377,-270.942C166.955,-293.697 187.3,-330.412 216,-351 221.692,-355.083 228.187,-358.334 234.892,-360.922"/>
<polygon fill="midnightblue" stroke="midnightblue" points="159.474,-269.291 152.21,-261.578 153.078,-272.137 159.474,-269.291"/>
</g>
<!-- Node17 -->
<g id="node33" class="node"><title>Node17</title>
<a xlink:href="classNYXConnectorBase.htm" target="_top" xlink:title="NYXConnectorBase">
<polygon fill="white" stroke="black" points="232.5,-430.5 232.5,-451.5 343.5,-451.5 343.5,-430.5 232.5,-430.5"/>
<text text-anchor="middle" x="288" y="-438.5" font-family="Helvetica,sans-Serif" font-size="10.00">NYXConnectorBase</text>
</a>
</g>
<!-- Node10&#45;&gt;Node17 -->
<g id="edge32" class="edge"><title>Node10&#45;&gt;Node17</title>
<path fill="none" stroke="midnightblue" d="M154.199,-271.348C163.806,-300.379 184.526,-354.232 216,-391 230.35,-407.764 251.543,-421.578 267.223,-430.406"/>
<polygon fill="midnightblue" stroke="midnightblue" points="157.439,-269.986 151.062,-261.525 150.77,-272.116 157.439,-269.986"/>
</g>
<!-- Node34 -->
<g id="node67" class="node"><title>Node34</title>
<a xlink:href="classProcessKiller.htm" target="_top" xlink:title="ProcessKiller">
<polygon fill="white" stroke="black" points="249,-280.5 249,-301.5 327,-301.5 327,-280.5 249,-280.5"/>
<text text-anchor="middle" x="288" y="-288.5" font-family="Helvetica,sans-Serif" font-size="10.00">ProcessKiller</text>
</a>
</g>
<!-- Node10&#45;&gt;Node34 -->
<g id="edge66" class="edge"><title>Node10&#45;&gt;Node34</title>
<path fill="none" stroke="midnightblue" d="M185.382,-262.105C195.324,-265.028 206.062,-268.158 216,-271 226.852,-274.103 238.643,-277.407 249.483,-280.416"/>
<polygon fill="midnightblue" stroke="midnightblue" points="186.345,-258.74 175.763,-259.269 184.365,-265.454 186.345,-258.74"/>
</g>
<!-- Node12&#45;&gt;Node2 -->
<g id="edge22" class="edge"><title>Node12&#45;&gt;Node2</title>
<path fill="none" stroke="midnightblue" d="M329.195,-135.079C368.585,-138.979 426.943,-144.757 461.459,-148.174"/>
<polygon fill="midnightblue" stroke="midnightblue" points="329.416,-131.584 319.12,-134.081 328.726,-138.55 329.416,-131.584"/>
</g>
<!-- Node13 -->
<g id="node25" class="node"><title>Node13</title>
<a xlink:href="classHostQtDesktop.htm" target="_top" xlink:title="HostQtDesktop">
<polygon fill="white" stroke="black" points="445.5,-100.5 445.5,-121.5 534.5,-121.5 534.5,-100.5 445.5,-100.5"/>
<text text-anchor="middle" x="490" y="-108.5" font-family="Helvetica,sans-Serif" font-size="10.00">HostQtDesktop</text>
</a>
</g>
<!-- Node12&#45;&gt;Node13 -->
<g id="edge24" class="edge"><title>Node12&#45;&gt;Node13</title>
<path fill="none" stroke="midnightblue" d="M329.122,-126.929C362.893,-123.585 410.642,-118.857 445.343,-115.421"/>
<polygon fill="midnightblue" stroke="midnightblue" points="328.726,-123.45 319.12,-127.919 329.416,-130.416 328.726,-123.45"/>
</g>
<!-- Node18 -->
<g id="node35" class="node"><title>Node18</title>
<a xlink:href="classNYXAccelerationSensorConnector.htm" target="_top" xlink:title="NYXAccelerationSensorConnector">
<polygon fill="white" stroke="black" points="400.5,-602.5 400.5,-623.5 579.5,-623.5 579.5,-602.5 400.5,-602.5"/>
<text text-anchor="middle" x="490" y="-610.5" font-family="Helvetica,sans-Serif" font-size="10.00">NYXAccelerationSensorConnector</text>
</a>
</g>
<!-- Node17&#45;&gt;Node18 -->
<g id="edge34" class="edge"><title>Node17&#45;&gt;Node18</title>
<path fill="none" stroke="midnightblue" d="M296.334,-461.044C311.18,-494.126 345.467,-559.796 396,-593 401.717,-596.757 408.014,-599.823 414.558,-602.324"/>
<polygon fill="midnightblue" stroke="midnightblue" points="299.395,-459.307 292.2,-451.53 292.975,-462.096 299.395,-459.307"/>
</g>
<!-- Node19 -->
<g id="node37" class="node"><title>Node19</title>
<a xlink:href="classNYXAlsSensorConnector.htm" target="_top" xlink:title="NYXAlsSensorConnector">
<polygon fill="white" stroke="black" points="422.5,-562.5 422.5,-583.5 557.5,-583.5 557.5,-562.5 422.5,-562.5"/>
<text text-anchor="middle" x="490" y="-570.5" font-family="Helvetica,sans-Serif" font-size="10.00">NYXAlsSensorConnector</text>
</a>
</g>
<!-- Node17&#45;&gt;Node19 -->
<g id="edge36" class="edge"><title>Node17&#45;&gt;Node19</title>
<path fill="none" stroke="midnightblue" d="M300.764,-460.07C318.834,-485.472 354.349,-529.887 396,-553 404.17,-557.534 413.263,-561.041 422.486,-563.754"/>
<polygon fill="midnightblue" stroke="midnightblue" points="303.495,-457.865 294.918,-451.646 297.744,-461.857 303.495,-457.865"/>
</g>
<!-- Node20 -->
<g id="node39" class="node"><title>Node20</title>
<a xlink:href="classNYXAngularVelocitySensorConnector.htm" target="_top" xlink:title="NYXAngularVelocitySensor\lConnector">
<polygon fill="white" stroke="black" points="418,-510 418,-544 562,-544 562,-510 418,-510"/>
<text text-anchor="start" x="426" y="-531" font-family="Helvetica,sans-Serif" font-size="10.00">NYXAngularVelocitySensor</text>
<text text-anchor="middle" x="490" y="-518" font-family="Helvetica,sans-Serif" font-size="10.00">Connector</text>
</a>
</g>
<!-- Node17&#45;&gt;Node20 -->
<g id="edge38" class="edge"><title>Node17&#45;&gt;Node20</title>
<path fill="none" stroke="midnightblue" d="M312.973,-457.119C334.336,-470.351 366.258,-488.827 396,-501 403.992,-504.271 412.53,-507.27 421.08,-509.977"/>
<polygon fill="midnightblue" stroke="midnightblue" points="314.555,-453.98 304.225,-451.627 310.833,-459.908 314.555,-453.98"/>
</g>
<!-- Node21 -->
<g id="node41" class="node"><title>Node21</title>
<a xlink:href="classNYXBearingSensorConnector.htm" target="_top" xlink:title="NYXBearingSensorConnector">
<polygon fill="white" stroke="black" points="411,-470.5 411,-491.5 569,-491.5 569,-470.5 411,-470.5"/>
<text text-anchor="middle" x="490" y="-478.5" font-family="Helvetica,sans-Serif" font-size="10.00">NYXBearingSensorConnector</text>
</a>
</g>
<!-- Node17&#45;&gt;Node21 -->
<g id="edge40" class="edge"><title>Node17&#45;&gt;Node21</title>
<path fill="none" stroke="midnightblue" d="M351.015,-453.478C378.592,-458.939 410.592,-465.276 436.931,-470.491"/>
<polygon fill="midnightblue" stroke="midnightblue" points="351.563,-450.019 341.073,-451.51 350.203,-456.885 351.563,-450.019"/>
</g>
<!-- Node22 -->
<g id="node43" class="node"><title>Node22</title>
<a xlink:href="classNYXGravitySensorConnector.htm" target="_top" xlink:title="NYXGravitySensorConnector">
<polygon fill="white" stroke="black" points="412.5,-430.5 412.5,-451.5 567.5,-451.5 567.5,-430.5 412.5,-430.5"/>
<text text-anchor="middle" x="490" y="-438.5" font-family="Helvetica,sans-Serif" font-size="10.00">NYXGravitySensorConnector</text>
</a>
</g>
<!-- Node17&#45;&gt;Node22 -->
<g id="edge42" class="edge"><title>Node17&#45;&gt;Node22</title>
<path fill="none" stroke="midnightblue" d="M353.865,-441C372.476,-441 392.905,-441 412.149,-441"/>
<polygon fill="midnightblue" stroke="midnightblue" points="353.732,-437.5 343.732,-441 353.732,-444.5 353.732,-437.5"/>
</g>
<!-- Node23 -->
<g id="node45" class="node"><title>Node23</title>
<a xlink:href="classNYXLinearAccelearationSensorConnector.htm" target="_top" xlink:title="NYXLinearAccelearationSensor\lConnector">
<polygon fill="white" stroke="black" points="407,-378 407,-412 573,-412 573,-378 407,-378"/>
<text text-anchor="start" x="415" y="-399" font-family="Helvetica,sans-Serif" font-size="10.00">NYXLinearAccelearationSensor</text>
<text text-anchor="middle" x="490" y="-386" font-family="Helvetica,sans-Serif" font-size="10.00">Connector</text>
</a>
</g>
<!-- Node17&#45;&gt;Node23 -->
<g id="edge44" class="edge"><title>Node17&#45;&gt;Node23</title>
<path fill="none" stroke="midnightblue" d="M344.146,-428.214C366.066,-423.223 391.524,-417.425 414.977,-412.085"/>
<polygon fill="midnightblue" stroke="midnightblue" points="343.316,-424.814 334.343,-430.447 344.87,-431.639 343.316,-424.814"/>
</g>
<!-- Node24 -->
<g id="node47" class="node"><title>Node24</title>
<a xlink:href="classNYXLogicalSensorConnectorBase.htm" target="_top" xlink:title="NYXLogicalSensorConnectorBase">
<polygon fill="white" stroke="black" points="400.5,-338.5 400.5,-359.5 579.5,-359.5 579.5,-338.5 400.5,-338.5"/>
<text text-anchor="middle" x="490" y="-346.5" font-family="Helvetica,sans-Serif" font-size="10.00">NYXLogicalSensorConnectorBase</text>
</a>
</g>
<!-- Node17&#45;&gt;Node24 -->
<g id="edge46" class="edge"><title>Node17&#45;&gt;Node24</title>
<path fill="none" stroke="midnightblue" d="M311.817,-424.428C340.805,-404.369 387.014,-372.787 396,-369 405.071,-365.177 414.954,-362.054 424.793,-359.511"/>
<polygon fill="midnightblue" stroke="midnightblue" points="309.658,-421.666 303.434,-430.24 313.647,-427.419 309.658,-421.666"/>
</g>
<!-- Node29 -->
<g id="node57" class="node"><title>Node29</title>
<a xlink:href="classNYXMagneticFieldSensorConnector.htm" target="_top" xlink:title="NYXMagneticFieldSensorConnector">
<polygon fill="white" stroke="black" points="396.5,-298.5 396.5,-319.5 583.5,-319.5 583.5,-298.5 396.5,-298.5"/>
<text text-anchor="middle" x="490" y="-306.5" font-family="Helvetica,sans-Serif" font-size="10.00">NYXMagneticFieldSensorConnector</text>
</a>
</g>
<!-- Node17&#45;&gt;Node29 -->
<g id="edge56" class="edge"><title>Node17&#45;&gt;Node29</title>
<path fill="none" stroke="midnightblue" d="M316.681,-425.154C330.863,-416.366 347.559,-404.491 360,-391 381.601,-367.576 370.2,-347.7 396,-329 401.269,-325.181 407.114,-322.062 413.237,-319.517"/>
<polygon fill="midnightblue" stroke="midnightblue" points="314.58,-422.333 307.795,-430.47 318.174,-428.34 314.58,-422.333"/>
</g>
<!-- Node30 -->
<g id="node59" class="node"><title>Node30</title>
<a xlink:href="classNYXOrientationSensorConnector.htm" target="_top" xlink:title="NYXOrientationSensorConnector">
<polygon fill="white" stroke="black" points="403.5,-258.5 403.5,-279.5 576.5,-279.5 576.5,-258.5 403.5,-258.5"/>
<text text-anchor="middle" x="490" y="-266.5" font-family="Helvetica,sans-Serif" font-size="10.00">NYXOrientationSensorConnector</text>
</a>
</g>
<!-- Node17&#45;&gt;Node30 -->
<g id="edge58" class="edge"><title>Node17&#45;&gt;Node30</title>
<path fill="none" stroke="midnightblue" d="M318.969,-425.374C333.152,-416.879 349.174,-405.195 360,-391 389.153,-352.774 359.876,-320.72 396,-289 400.263,-285.257 405.051,-282.155 410.151,-279.591"/>
<polygon fill="midnightblue" stroke="midnightblue" points="316.944,-422.499 309.987,-430.489 320.409,-428.581 316.944,-422.499"/>
</g>
<!-- Node31 -->
<g id="node61" class="node"><title>Node31</title>
<a xlink:href="classNYXRotationSensorConnector.htm" target="_top" xlink:title="NYXRotationSensorConnector">
<polygon fill="white" stroke="black" points="409.5,-218.5 409.5,-239.5 570.5,-239.5 570.5,-218.5 409.5,-218.5"/>
<text text-anchor="middle" x="490" y="-226.5" font-family="Helvetica,sans-Serif" font-size="10.00">NYXRotationSensorConnector</text>
</a>
</g>
<!-- Node17&#45;&gt;Node31 -->
<g id="edge60" class="edge"><title>Node17&#45;&gt;Node31</title>
<path fill="none" stroke="midnightblue" d="M320.149,-425.44C334.309,-417.068 349.973,-405.467 360,-391 397.087,-337.488 349.081,-294.14 396,-249 399.968,-245.183 404.475,-242.017 409.316,-239.399"/>
<polygon fill="midnightblue" stroke="midnightblue" points="318.16,-422.542 311.135,-430.472 321.572,-428.654 318.16,-422.542"/>
</g>
<!-- Node32 -->
<g id="node63" class="node"><title>Node32</title>
<a xlink:href="classNYXScreenProximitySensorConnector.htm" target="_top" xlink:title="NYXScreenProximitySensor\lConnector">
<polygon fill="white" stroke="black" points="416,-682 416,-716 564,-716 564,-682 416,-682"/>
<text text-anchor="start" x="424" y="-703" font-family="Helvetica,sans-Serif" font-size="10.00">NYXScreenProximitySensor</text>
<text text-anchor="middle" x="490" y="-690" font-family="Helvetica,sans-Serif" font-size="10.00">Connector</text>
</a>
</g>
<!-- Node17&#45;&gt;Node32 -->
<g id="edge62" class="edge"><title>Node17&#45;&gt;Node32</title>
<path fill="none" stroke="midnightblue" d="M291.568,-461.513C300.537,-506.776 328.335,-615.719 396,-673 401.816,-677.923 408.491,-681.919 415.544,-685.161"/>
<polygon fill="midnightblue" stroke="midnightblue" points="295.007,-460.863 289.722,-451.681 288.127,-462.155 295.007,-460.863"/>
</g>
<!-- Node33 -->
<g id="node65" class="node"><title>Node33</title>
<a xlink:href="classNYXShakeSensorConnector.htm" target="_top" xlink:title="NYXShakeSensorConnector">
<polygon fill="white" stroke="black" points="414.5,-642.5 414.5,-663.5 565.5,-663.5 565.5,-642.5 414.5,-642.5"/>
<text text-anchor="middle" x="490" y="-650.5" font-family="Helvetica,sans-Serif" font-size="10.00">NYXShakeSensorConnector</text>
</a>
</g>
<!-- Node17&#45;&gt;Node33 -->
<g id="edge64" class="edge"><title>Node17&#45;&gt;Node33</title>
<path fill="none" stroke="midnightblue" d="M293.382,-461.476C304.961,-501.272 336.164,-589.003 396,-633 401.511,-637.052 407.668,-640.32 414.123,-642.95"/>
<polygon fill="midnightblue" stroke="midnightblue" points="296.744,-460.501 290.686,-451.809 290.002,-462.382 296.744,-460.501"/>
</g>
<!-- Node25 -->
<g id="node49" class="node"><title>Node25</title>
<a xlink:href="classNYXLogicalAccelerometerSensorConnector.htm" target="_top" xlink:title="NYXLogicalAccelerometerSensor\lConnector">
<polygon fill="white" stroke="black" points="620.5,-280 620.5,-314 793.5,-314 793.5,-280 620.5,-280"/>
<text text-anchor="start" x="628.5" y="-301" font-family="Helvetica,sans-Serif" font-size="10.00">NYXLogicalAccelerometerSensor</text>
<text text-anchor="middle" x="707" y="-288" font-family="Helvetica,sans-Serif" font-size="10.00">Connector</text>
</a>
</g>
<!-- Node24&#45;&gt;Node25 -->
<g id="edge48" class="edge"><title>Node24&#45;&gt;Node25</title>
<path fill="none" stroke="midnightblue" d="M551.618,-336.304C562.429,-333.958 573.557,-331.468 584,-329 603.433,-324.407 624.499,-319.062 643.613,-314.071"/>
<polygon fill="midnightblue" stroke="midnightblue" points="550.85,-332.889 541.809,-338.412 552.321,-339.733 550.85,-332.889"/>
</g>
<!-- Node26 -->
<g id="node51" class="node"><title>Node26</title>
<a xlink:href="classNYXLogicalDeviceMotionSensorConnector.htm" target="_top" xlink:title="NYXLogicalDeviceMotionSensor\lConnector">
<polygon fill="white" stroke="black" points="622,-436 622,-470 792,-470 792,-436 622,-436"/>
<text text-anchor="start" x="630" y="-457" font-family="Helvetica,sans-Serif" font-size="10.00">NYXLogicalDeviceMotionSensor</text>
<text text-anchor="middle" x="707" y="-444" font-family="Helvetica,sans-Serif" font-size="10.00">Connector</text>
</a>
</g>
<!-- Node24&#45;&gt;Node26 -->
<g id="edge50" class="edge"><title>Node24&#45;&gt;Node26</title>
<path fill="none" stroke="midnightblue" d="M575.903,-364.026C578.711,-365.535 581.421,-367.188 584,-369 608.825,-386.442 595.9,-408.57 620,-427 624.383,-430.352 629.193,-433.273 634.233,-435.819"/>
<polygon fill="midnightblue" stroke="midnightblue" points="577.183,-360.761 566.643,-359.685 574.212,-367.099 577.183,-360.761"/>
</g>
<!-- Node27 -->
<g id="node53" class="node"><title>Node27</title>
<a xlink:href="classNYXLogicalDeviceOrientationSensorConnector.htm" target="_top" xlink:title="NYXLogicalDeviceOrientation\lSensorConnector">
<polygon fill="white" stroke="black" points="629,-384 629,-418 785,-418 785,-384 629,-384"/>
<text text-anchor="start" x="637" y="-405" font-family="Helvetica,sans-Serif" font-size="10.00">NYXLogicalDeviceOrientation</text>
<text text-anchor="middle" x="707" y="-392" font-family="Helvetica,sans-Serif" font-size="10.00">SensorConnector</text>
</a>
</g>
<!-- Node24&#45;&gt;Node27 -->
<g id="edge52" class="edge"><title>Node24&#45;&gt;Node27</title>
<path fill="none" stroke="midnightblue" d="M551.618,-361.696C562.429,-364.042 573.557,-366.532 584,-369 603.433,-373.593 624.499,-378.938 643.613,-383.929"/>
<polygon fill="midnightblue" stroke="midnightblue" points="552.321,-358.267 541.809,-359.588 550.85,-365.111 552.321,-358.267"/>
</g>
<!-- Node28 -->
<g id="node55" class="node"><title>Node28</title>
<a xlink:href="classNYXLogicalOrientationSensorConnector.htm" target="_top" xlink:title="NYXLogicalOrientationSensor\lConnector">
<polygon fill="white" stroke="black" points="628,-332 628,-366 786,-366 786,-332 628,-332"/>
<text text-anchor="start" x="636" y="-353" font-family="Helvetica,sans-Serif" font-size="10.00">NYXLogicalOrientationSensor</text>
<text text-anchor="middle" x="707" y="-340" font-family="Helvetica,sans-Serif" font-size="10.00">Connector</text>
</a>
</g>
<!-- Node24&#45;&gt;Node28 -->
<g id="edge54" class="edge"><title>Node24&#45;&gt;Node28</title>
<path fill="none" stroke="midnightblue" d="M589.699,-349C602.458,-349 615.38,-349 627.754,-349"/>
<polygon fill="midnightblue" stroke="midnightblue" points="589.515,-345.5 579.515,-349 589.515,-352.5 589.515,-345.5"/>
</g>
<!-- Node35 -->
<g id="node68" class="node"><title>Node35</title>
<a xlink:href="classRefCounted.htm" target="_top" xlink:title="RefCounted">
<polygon fill="white" stroke="black" points="3.5,-140.5 3.5,-161.5 76.5,-161.5 76.5,-140.5 3.5,-140.5"/>
<text text-anchor="middle" x="40" y="-148.5" font-family="Helvetica,sans-Serif" font-size="10.00">RefCounted</text>
</a>
</g>
<!-- Node36 -->
<g id="node70" class="node"><title>Node36</title>
<a xlink:href="classEvent.htm" target="_top" xlink:title="Event">
<polygon fill="white" stroke="black" points="126,-180.5 126,-201.5 170,-201.5 170,-180.5 126,-180.5"/>
<text text-anchor="middle" x="148" y="-188.5" font-family="Helvetica,sans-Serif" font-size="10.00">Event</text>
</a>
</g>
<!-- Node35&#45;&gt;Node36 -->
<g id="edge68" class="edge"><title>Node35&#45;&gt;Node36</title>
<path fill="none" stroke="midnightblue" d="M78.0376,-165.088C94.0753,-171.028 112.177,-177.732 125.949,-182.833"/>
<polygon fill="midnightblue" stroke="midnightblue" points="78.9688,-161.701 68.3757,-161.51 76.5376,-168.265 78.9688,-161.701"/>
</g>
<!-- Node37 -->
<g id="node72" class="node"><title>Node37</title>
<a xlink:href="classMutex.htm" target="_top" xlink:title="Mutex">
<polygon fill="white" stroke="black" points="125.5,-140.5 125.5,-161.5 170.5,-161.5 170.5,-140.5 125.5,-140.5"/>
<text text-anchor="middle" x="148" y="-148.5" font-family="Helvetica,sans-Serif" font-size="10.00">Mutex</text>
</a>
</g>
<!-- Node35&#45;&gt;Node37 -->
<g id="edge70" class="edge"><title>Node35&#45;&gt;Node37</title>
<path fill="none" stroke="midnightblue" d="M86.6411,-151C100.05,-151 114.075,-151 125.327,-151"/>
<polygon fill="midnightblue" stroke="midnightblue" points="86.5639,-147.5 76.5639,-151 86.5638,-154.5 86.5639,-147.5"/>
</g>
<!-- Node38 -->
<g id="node74" class="node"><title>Node38</title>
<a xlink:href="classTaskBase.htm" target="_top" xlink:title="TaskBase">
<polygon fill="white" stroke="black" points="116,-100.5 116,-121.5 180,-121.5 180,-100.5 116,-100.5"/>
<text text-anchor="middle" x="148" y="-108.5" font-family="Helvetica,sans-Serif" font-size="10.00">TaskBase</text>
</a>
</g>
<!-- Node35&#45;&gt;Node38 -->
<g id="edge72" class="edge"><title>Node35&#45;&gt;Node38</title>
<path fill="none" stroke="midnightblue" d="M77.9809,-136.933C91.6126,-131.884 106.742,-126.281 119.439,-121.578"/>
<polygon fill="midnightblue" stroke="midnightblue" points="76.5376,-133.735 68.3757,-140.49 78.9688,-140.299 76.5376,-133.735"/>
</g>
<!-- Node38&#45;&gt;Node12 -->
<g id="edge74" class="edge"><title>Node38&#45;&gt;Node12</title>
<path fill="none" stroke="midnightblue" d="M190.281,-117.04C211.753,-120.108 237.374,-123.768 256.993,-126.57"/>
<polygon fill="midnightblue" stroke="midnightblue" points="190.513,-113.538 180.119,-115.588 189.523,-120.468 190.513,-113.538"/>
</g>
<!-- Node39 -->
<g id="node77" class="node"><title>Node39</title>
<a xlink:href="classSyncTask.htm" target="_top" xlink:title="SyncTask">
<polygon fill="white" stroke="black" points="256.5,-80.5 256.5,-101.5 319.5,-101.5 319.5,-80.5 256.5,-80.5"/>
<text text-anchor="middle" x="288" y="-88.5" font-family="Helvetica,sans-Serif" font-size="10.00">SyncTask</text>
</a>
</g>
<!-- Node38&#45;&gt;Node39 -->
<g id="edge76" class="edge"><title>Node38&#45;&gt;Node39</title>
<path fill="none" stroke="midnightblue" d="M190.134,-104.981C211.286,-101.959 236.496,-98.3578 256.031,-95.5671"/>
<polygon fill="midnightblue" stroke="midnightblue" points="189.523,-101.532 180.119,-106.412 190.513,-108.462 189.523,-101.532"/>
</g>
<!-- Node40 -->
<g id="node78" class="node"><title>Node40</title>
<a xlink:href="classSysMgrEvent.htm" target="_top" xlink:title="SysMgrEvent">
<polygon fill="white" stroke="black" points="0,-180.5 0,-201.5 80,-201.5 80,-180.5 0,-180.5"/>
<text text-anchor="middle" x="40" y="-188.5" font-family="Helvetica,sans-Serif" font-size="10.00">SysMgrEvent</text>
</a>
</g>
<!-- Node40&#45;&gt;Node36 -->
<g id="edge78" class="edge"><title>Node40&#45;&gt;Node36</title>
<path fill="none" stroke="midnightblue" d="M90.5434,-191C102.977,-191 115.656,-191 125.929,-191"/>
<polygon fill="midnightblue" stroke="midnightblue" points="90.2152,-187.5 80.2152,-191 90.2152,-194.5 90.2152,-187.5"/>
</g>
</g>
</svg>
