<?xml version="1.0" encoding="UTF-8" standalone="no"?>
<!DOCTYPE svg PUBLIC "-//W3C//DTD SVG 1.1//EN"
 "http://www.w3.org/Graphics/SVG/1.1/DTD/svg11.dtd">
<!-- Generated by graphviz version 2.26.3 (20100126.1600)
 -->
<!-- Title: Graphical Class Hierarchy Pages: 1 -->
<svg width="292pt" height="82pt"
 viewBox="0.00 0.00 292.00 82.00" xmlns="http://www.w3.org/2000/svg" xmlns:xlink="http://www.w3.org/1999/xlink">
<g id="graph1" class="graph" transform="scale(1 1) rotate(0) translate(4 78)">
<title>Graphical Class Hierarchy</title>
<polygon fill="white" stroke="white" points="-4,5 -4,-78 289,-78 289,5 -4,5"/>
<!-- Node1 -->
<g id="node1" class="node"><title>Node1</title>
<a xlink:href="classFunctionWrapper.htm" target="_top" xlink:title="FunctionWrapper\&lt; void\l(Receiver::*)()\&gt;">
<polygon fill="white" stroke="black" points="0,-40 0,-74 126,-74 126,-40 0,-40"/>
<text text-anchor="start" x="8" y="-61" font-family="Helvetica,sans-Serif" font-size="10.00">FunctionWrapper&lt; void</text>
<text text-anchor="middle" x="63" y="-48" font-family="Helvetica,sans-Serif" font-size="10.00">(Receiver::*)()&gt;</text>
</a>
</g>
<!-- Node2 -->
<g id="node3" class="node"><title>Node2</title>
<a xlink:href="classSlot_3_01Receiver_00_01void_00_01void_00_01void_00_01void_00_01void_01_4.htm" target="_top" xlink:title="Slot\&lt; Receiver, void,\l void, void, void, void \&gt;">
<polygon fill="white" stroke="black" points="162,-17 162,-51 284,-51 284,-17 162,-17"/>
<text text-anchor="start" x="170" y="-38" font-family="Helvetica,sans-Serif" font-size="10.00">Slot&lt; Receiver, void,</text>
<text text-anchor="middle" x="223" y="-25" font-family="Helvetica,sans-Serif" font-size="10.00"> void, void, void, void &gt;</text>
</a>
</g>
<!-- Node1&#45;&gt;Node2 -->
<g id="edge2" class="edge"><title>Node1&#45;&gt;Node2</title>
<path fill="none" stroke="midnightblue" d="M136.207,-46.4764C144.762,-45.2467 153.422,-44.0019 161.79,-42.7989"/>
<polygon fill="midnightblue" stroke="midnightblue" points="135.636,-43.0224 126.236,-47.9098 136.633,-49.9512 135.636,-43.0224"/>
</g>
<!-- Node3 -->
<g id="node4" class="node"><title>Node3</title>
<a xlink:href="classSlotBase.htm" target="_top" xlink:title="SlotBase\&lt;\&gt;">
<polygon fill="white" stroke="black" points="27.5,-0.5 27.5,-21.5 98.5,-21.5 98.5,-0.5 27.5,-0.5"/>
<text text-anchor="middle" x="63" y="-8.5" font-family="Helvetica,sans-Serif" font-size="10.00">SlotBase&lt;&gt;</text>
</a>
</g>
<!-- Node3&#45;&gt;Node2 -->
<g id="edge4" class="edge"><title>Node3&#45;&gt;Node2</title>
<path fill="none" stroke="midnightblue" d="M108.482,-17.538C125.06,-19.9211 144.085,-22.6559 161.805,-25.2032"/>
<polygon fill="midnightblue" stroke="midnightblue" points="108.905,-14.063 98.5092,-16.1044 107.909,-20.9918 108.905,-14.063"/>
</g>
</g>
</svg>
