<?xml version="1.0" encoding="UTF-8" standalone="no"?>
<!DOCTYPE svg PUBLIC "-//W3C//DTD SVG 1.1//EN"
 "http://www.w3.org/Graphics/SVG/1.1/DTD/svg11.dtd">
<!-- Generated by graphviz version 2.26.3 (20100126.1600)
 -->
<!-- Title: Graphical Class Hierarchy Pages: 1 -->
<svg width="280pt" height="70pt"
 viewBox="0.00 0.00 280.00 70.00" xmlns="http://www.w3.org/2000/svg" xmlns:xlink="http://www.w3.org/1999/xlink">
<g id="graph1" class="graph" transform="scale(1 1) rotate(0) translate(4 66)">
<title>Graphical Class Hierarchy</title>
<polygon fill="white" stroke="white" points="-4,5 -4,-66 277,-66 277,5 -4,5"/>
<!-- Node1 -->
<g id="node1" class="node"><title>Node1</title>
<a xlink:href="classAsyncCallerBase.htm" target="_top" xlink:title="AsyncCallerBase">
<polygon fill="white" stroke="black" points="0.5,-20.5 0.5,-41.5 97.5,-41.5 97.5,-20.5 0.5,-20.5"/>
<text text-anchor="middle" x="49" y="-28.5" font-family="Helvetica,sans-Serif" font-size="10.00">AsyncCallerBase</text>
</a>
</g>
<!-- Node2 -->
<g id="node3" class="node"><title>Node2</title>
<a xlink:href="classAsyncCaller.htm" target="_top" xlink:title="AsyncCaller\&lt; Target \&gt;">
<polygon fill="white" stroke="black" points="142,-40.5 142,-61.5 264,-61.5 264,-40.5 142,-40.5"/>
<text text-anchor="middle" x="203" y="-48.5" font-family="Helvetica,sans-Serif" font-size="10.00">AsyncCaller&lt; Target &gt;</text>
</a>
</g>
<!-- Node1&#45;&gt;Node2 -->
<g id="edge2" class="edge"><title>Node1&#45;&gt;Node2</title>
<path fill="none" stroke="midnightblue" d="M107.788,-38.6348C118.941,-40.0833 130.635,-41.6019 141.859,-43.0596"/>
<polygon fill="midnightblue" stroke="midnightblue" points="108.094,-35.1452 97.7266,-37.3281 107.192,-42.0869 108.094,-35.1452"/>
</g>
<!-- Node3 -->
<g id="node5" class="node"><title>Node3</title>
<a xlink:href="classAsyncCaller.htm" target="_top" xlink:title="AsyncCaller\&lt; TaskBase \&gt;">
<polygon fill="white" stroke="black" points="134,-0.5 134,-21.5 272,-21.5 272,-0.5 134,-0.5"/>
<text text-anchor="middle" x="203" y="-8.5" font-family="Helvetica,sans-Serif" font-size="10.00">AsyncCaller&lt; TaskBase &gt;</text>
</a>
</g>
<!-- Node1&#45;&gt;Node3 -->
<g id="edge4" class="edge"><title>Node1&#45;&gt;Node3</title>
<path fill="none" stroke="midnightblue" d="M107.874,-23.354C116.344,-22.2541 125.123,-21.1139 133.771,-19.9908"/>
<polygon fill="midnightblue" stroke="midnightblue" points="107.192,-19.9131 97.7266,-24.6719 108.094,-26.8548 107.192,-19.9131"/>
</g>
</g>
</svg>
