<?xml version="1.0" encoding="UTF-8" standalone="no"?>
<!DOCTYPE svg PUBLIC "-//W3C//DTD SVG 1.1//EN"
 "http://www.w3.org/Graphics/SVG/1.1/DTD/svg11.dtd">
<!-- Generated by graphviz version 2.26.3 (20100126.1600)
 -->
<!-- Title: Graphical Class Hierarchy Pages: 1 -->
<svg width="310pt" height="82pt"
 viewBox="0.00 0.00 310.00 82.00" xmlns="http://www.w3.org/2000/svg" xmlns:xlink="http://www.w3.org/1999/xlink">
<g id="graph1" class="graph" transform="scale(1 1) rotate(0) translate(4 78)">
<title>Graphical Class Hierarchy</title>
<polygon fill="white" stroke="white" points="-4,5 -4,-78 307,-78 307,5 -4,5"/>
<!-- Node1 -->
<g id="node1" class="node"><title>Node1</title>
<a xlink:href="classFunctionWrapper.htm" target="_top" xlink:title="FunctionWrapper\&lt; void\l(Receiver::*)(Arg0, Arg1)\&gt;">
<polygon fill="white" stroke="black" points="0,-40 0,-74 140,-74 140,-40 0,-40"/>
<text text-anchor="start" x="8" y="-61" font-family="Helvetica,sans-Serif" font-size="10.00">FunctionWrapper&lt; void</text>
<text text-anchor="middle" x="70" y="-48" font-family="Helvetica,sans-Serif" font-size="10.00">(Receiver::*)(Arg0, Arg1)&gt;</text>
</a>
</g>
<!-- Node2 -->
<g id="node3" class="node"><title>Node2</title>
<a xlink:href="classSlot_3_01Receiver_00_01Arg0_00_01Arg1_00_01void_00_01void_00_01void_01_4.htm" target="_top" xlink:title="Slot\&lt; Receiver, Arg0,\l Arg1, void, void, void \&gt;">
<polygon fill="white" stroke="black" points="176.5,-17 176.5,-51 301.5,-51 301.5,-17 176.5,-17"/>
<text text-anchor="start" x="184.5" y="-38" font-family="Helvetica,sans-Serif" font-size="10.00">Slot&lt; Receiver, Arg0,</text>
<text text-anchor="middle" x="239" y="-25" font-family="Helvetica,sans-Serif" font-size="10.00"> Arg1, void, void, void &gt;</text>
</a>
</g>
<!-- Node1&#45;&gt;Node2 -->
<g id="edge2" class="edge"><title>Node1&#45;&gt;Node2</title>
<path fill="none" stroke="midnightblue" d="M150.375,-46.0614C159.081,-44.8765 167.847,-43.6836 176.3,-42.5332"/>
<polygon fill="midnightblue" stroke="midnightblue" points="149.64,-42.6291 140.203,-47.4457 150.584,-49.5652 149.64,-42.6291"/>
</g>
<!-- Node3 -->
<g id="node4" class="node"><title>Node3</title>
<a xlink:href="classSlotBase.htm" target="_top" xlink:title="SlotBase\&lt; Arg0, Arg1 \&gt;">
<polygon fill="white" stroke="black" points="6.5,-0.5 6.5,-21.5 133.5,-21.5 133.5,-0.5 6.5,-0.5"/>
<text text-anchor="middle" x="70" y="-8.5" font-family="Helvetica,sans-Serif" font-size="10.00">SlotBase&lt; Arg0, Arg1 &gt;</text>
</a>
</g>
<!-- Node3&#45;&gt;Node2 -->
<g id="edge4" class="edge"><title>Node3&#45;&gt;Node2</title>
<path fill="none" stroke="midnightblue" d="M144.127,-21.0883C154.901,-22.5545 165.902,-24.0518 176.418,-25.4829"/>
<polygon fill="midnightblue" stroke="midnightblue" points="144.272,-17.5759 133.892,-19.6953 143.328,-24.5119 144.272,-17.5759"/>
</g>
</g>
</svg>
