<?xml version="1.0" encoding="UTF-8" standalone="no"?>
<!DOCTYPE svg PUBLIC "-//W3C//DTD SVG 1.1//EN"
 "http://www.w3.org/Graphics/SVG/1.1/DTD/svg11.dtd">
<!-- Generated by graphviz version 2.26.3 (20100126.1600)
 -->
<!-- Title: Graphical Class Hierarchy Pages: 1 -->
<svg width="196pt" height="70pt"
 viewBox="0.00 0.00 196.00 70.00" xmlns="http://www.w3.org/2000/svg" xmlns:xlink="http://www.w3.org/1999/xlink">
<g id="graph1" class="graph" transform="scale(1 1) rotate(0) translate(4 66)">
<title>Graphical Class Hierarchy</title>
<polygon fill="white" stroke="white" points="-4,5 -4,-66 193,-66 193,5 -4,5"/>
<!-- Node1 -->
<g id="node1" class="node"><title>Node1</title>
<a xlink:href="classQWidget.htm" target="_top" xlink:title="QWidget">
<polygon fill="white" stroke="black" points="0,-20.5 0,-41.5 58,-41.5 58,-20.5 0,-20.5"/>
<text text-anchor="middle" x="29" y="-28.5" font-family="Helvetica,sans-Serif" font-size="10.00">QWidget</text>
</a>
</g>
<!-- Node2 -->
<g id="node3" class="node"><title>Node2</title>
<a xlink:href="classGestureStrip.htm" target="_top" xlink:title="GestureStrip">
<polygon fill="white" stroke="black" points="103,-40.5 103,-61.5 179,-61.5 179,-40.5 103,-40.5"/>
<text text-anchor="middle" x="141" y="-48.5" font-family="Helvetica,sans-Serif" font-size="10.00">GestureStrip</text>
</a>
</g>
<!-- Node1&#45;&gt;Node2 -->
<g id="edge2" class="edge"><title>Node1&#45;&gt;Node2</title>
<path fill="none" stroke="midnightblue" d="M68.1031,-37.9827C79.328,-39.9871 91.5522,-42.17 102.726,-44.1654"/>
<polygon fill="midnightblue" stroke="midnightblue" points="68.5939,-34.515 58.1343,-36.2026 67.3633,-41.406 68.5939,-34.515"/>
</g>
<!-- Node3 -->
<g id="node5" class="node"><title>Node3</title>
<a xlink:href="classInspectorWidget.htm" target="_top" xlink:title="InspectorWidget">
<polygon fill="white" stroke="black" points="94,-0.5 94,-21.5 188,-21.5 188,-0.5 94,-0.5"/>
<text text-anchor="middle" x="141" y="-8.5" font-family="Helvetica,sans-Serif" font-size="10.00">InspectorWidget</text>
</a>
</g>
<!-- Node1&#45;&gt;Node3 -->
<g id="edge4" class="edge"><title>Node1&#45;&gt;Node3</title>
<path fill="none" stroke="midnightblue" d="M68.2406,-23.9927C76.4934,-22.519 85.2811,-20.9498 93.791,-19.4302"/>
<polygon fill="midnightblue" stroke="midnightblue" points="67.3633,-20.594 58.1343,-25.7974 68.5939,-27.485 67.3633,-20.594"/>
</g>
</g>
</svg>
