<?xml version="1.0" encoding="UTF-8" standalone="no"?>
<!DOCTYPE svg PUBLIC "-//W3C//DTD SVG 1.1//EN"
 "http://www.w3.org/Graphics/SVG/1.1/DTD/svg11.dtd">
<!-- Generated by graphviz version 2.26.3 (20100126.1600)
 -->
<!-- Title: InputControl.h Pages: 1 -->
<svg width="1184pt" height="262pt"
 viewBox="0.00 0.00 1184.11 262.00" xmlns="http://www.w3.org/2000/svg" xmlns:xlink="http://www.w3.org/1999/xlink">
<g id="graph1" class="graph" transform="scale(1 1) rotate(0) translate(4 258)">
<title>InputControl.h</title>
<polygon fill="white" stroke="white" points="-4,5 -4,-258 1181.11,-258 1181.11,5 -4,5"/>
<!-- Node1 -->
<g id="node1" class="node"><title>Node1</title>
<polygon fill="#bfbfbf" stroke="black" points="635.5,-232.5 635.5,-253.5 718.5,-253.5 718.5,-232.5 635.5,-232.5"/>
<text text-anchor="middle" x="677" y="-240.5" font-family="Helvetica,sans-Serif" font-size="10.00">InputControl.h</text>
</g>
<!-- Node2 -->
<g id="node3" class="node"><title>Node2</title>
<a xlink:href="NyxInputControl_8h.htm" target="_top" xlink:title="NyxInputControl.h">
<polygon fill="white" stroke="black" points="507.5,-174.5 507.5,-195.5 608.5,-195.5 608.5,-174.5 507.5,-174.5"/>
<text text-anchor="middle" x="558" y="-182.5" font-family="Helvetica,sans-Serif" font-size="10.00">NyxInputControl.h</text>
</a>
</g>
<!-- Node1&#45;&gt;Node2 -->
<g id="edge2" class="edge"><title>Node1&#45;&gt;Node2</title>
<path fill="none" stroke="midnightblue" d="M646.366,-228.069C625.526,-217.912 598.451,-204.716 579.792,-195.621"/>
<polygon fill="midnightblue" stroke="midnightblue" points="644.927,-231.262 655.45,-232.497 647.994,-224.969 644.927,-231.262"/>
</g>
<!-- Node14 -->
<g id="node28" class="node"><title>Node14</title>
<a xlink:href="HostBase_8h.htm" target="_top" xlink:title="HostBase.h">
<polygon fill="white" stroke="black" points="761.5,-174.5 761.5,-195.5 832.5,-195.5 832.5,-174.5 761.5,-174.5"/>
<text text-anchor="middle" x="797" y="-182.5" font-family="Helvetica,sans-Serif" font-size="10.00">HostBase.h</text>
</a>
</g>
<!-- Node1&#45;&gt;Node14 -->
<g id="edge28" class="edge"><title>Node1&#45;&gt;Node14</title>
<path fill="none" stroke="midnightblue" d="M707.891,-228.069C728.906,-217.912 756.209,-204.716 775.025,-195.621"/>
<polygon fill="midnightblue" stroke="midnightblue" points="706.211,-224.994 698.731,-232.497 709.258,-231.296 706.211,-224.994"/>
</g>
<!-- Node3 -->
<g id="node5" class="node"><title>Node3</title>
<a xlink:href="HostArm_8h.htm" target="_top" xlink:title="HostArm.h">
<polygon fill="white" stroke="black" points="525.5,-116.5 525.5,-137.5 590.5,-137.5 590.5,-116.5 525.5,-116.5"/>
<text text-anchor="middle" x="558" y="-124.5" font-family="Helvetica,sans-Serif" font-size="10.00">HostArm.h</text>
</a>
</g>
<!-- Node2&#45;&gt;Node3 -->
<g id="edge4" class="edge"><title>Node2&#45;&gt;Node3</title>
<path fill="none" stroke="midnightblue" d="M558,-164.191C558,-155.168 558,-144.994 558,-137.571"/>
<polygon fill="midnightblue" stroke="midnightblue" points="554.5,-164.362 558,-174.362 561.5,-164.362 554.5,-164.362"/>
</g>
<!-- Node13 -->
<g id="node26" class="node"><title>Node13</title>
<a xlink:href="NyxInputControl_8cpp.htm" target="_top" xlink:title="NyxInputControl.cpp">
<polygon fill="white" stroke="black" points="396,-116.5 396,-137.5 508,-137.5 508,-116.5 396,-116.5"/>
<text text-anchor="middle" x="452" y="-124.5" font-family="Helvetica,sans-Serif" font-size="10.00">NyxInputControl.cpp</text>
</a>
</g>
<!-- Node2&#45;&gt;Node13 -->
<g id="edge26" class="edge"><title>Node2&#45;&gt;Node13</title>
<path fill="none" stroke="midnightblue" d="M529.704,-169.517C511.248,-159.419 487.644,-146.503 471.319,-137.571"/>
<polygon fill="midnightblue" stroke="midnightblue" points="528.105,-172.632 538.558,-174.362 531.465,-166.491 528.105,-172.632"/>
</g>
<!-- Node4 -->
<g id="node7" class="node"><title>Node4</title>
<a xlink:href="HostArm_8cpp.htm" target="_top" xlink:title="HostArm.cpp">
<polygon fill="white" stroke="black" points="931.5,-58.5 931.5,-79.5 1008.5,-79.5 1008.5,-58.5 931.5,-58.5"/>
<text text-anchor="middle" x="970" y="-66.5" font-family="Helvetica,sans-Serif" font-size="10.00">HostArm.cpp</text>
</a>
</g>
<!-- Node3&#45;&gt;Node4 -->
<g id="edge6" class="edge"><title>Node3&#45;&gt;Node4</title>
<path fill="none" stroke="midnightblue" d="M600.69,-116.604C601.803,-116.393 602.908,-116.191 604,-116 744.534,-91.3624 782.407,-104.299 923,-80 925.725,-79.529 928.529,-78.9967 931.345,-78.4266"/>
<polygon fill="midnightblue" stroke="midnightblue" points="599.652,-113.244 590.565,-118.692 601.066,-120.1 599.652,-113.244"/>
</g>
<!-- Node6 -->
<g id="node11" class="node"><title>Node6</title>
<a xlink:href="HostArmBroadway_8cpp.htm" target="_top" xlink:title="HostArmBroadway.cpp">
<polygon fill="white" stroke="black" points="512,-58.5 512,-79.5 636,-79.5 636,-58.5 512,-58.5"/>
<text text-anchor="middle" x="574" y="-66.5" font-family="Helvetica,sans-Serif" font-size="10.00">HostArmBroadway.cpp</text>
</a>
</g>
<!-- Node3&#45;&gt;Node6 -->
<g id="edge10" class="edge"><title>Node3&#45;&gt;Node6</title>
<path fill="none" stroke="midnightblue" d="M563.659,-106.488C566.168,-97.3924 569.014,-87.0756 571.084,-79.5707"/>
<polygon fill="midnightblue" stroke="midnightblue" points="560.22,-105.791 560.935,-116.362 566.968,-107.653 560.22,-105.791"/>
</g>
<!-- Node7 -->
<g id="node13" class="node"><title>Node7</title>
<a xlink:href="HostArmMantaray_8cpp.htm" target="_top" xlink:title="HostArmMantaray.cpp">
<polygon fill="white" stroke="black" points="654,-58.5 654,-79.5 776,-79.5 776,-58.5 654,-58.5"/>
<text text-anchor="middle" x="715" y="-66.5" font-family="Helvetica,sans-Serif" font-size="10.00">HostArmMantaray.cpp</text>
</a>
</g>
<!-- Node3&#45;&gt;Node7 -->
<g id="edge12" class="edge"><title>Node3&#45;&gt;Node7</title>
<path fill="none" stroke="midnightblue" d="M595.871,-113.009C623.771,-102.702 661.125,-88.903 686.515,-79.5231"/>
<polygon fill="midnightblue" stroke="midnightblue" points="594.599,-109.748 586.432,-116.497 597.025,-116.314 594.599,-109.748"/>
</g>
<!-- Node8 -->
<g id="node15" class="node"><title>Node8</title>
<a xlink:href="HostArmOpal_8cpp.htm" target="_top" xlink:title="HostArmOpal.cpp">
<polygon fill="white" stroke="black" points="-0.5,-58.5 -0.5,-79.5 98.5,-79.5 98.5,-58.5 -0.5,-58.5"/>
<text text-anchor="middle" x="49" y="-66.5" font-family="Helvetica,sans-Serif" font-size="10.00">HostArmOpal.cpp</text>
</a>
</g>
<!-- Node3&#45;&gt;Node8 -->
<g id="edge14" class="edge"><title>Node3&#45;&gt;Node8</title>
<path fill="none" stroke="midnightblue" d="M515.356,-115.95C335.064,-84.9186 284.923,-104.621 107,-80 104.259,-79.6207 101.451,-79.199 98.6204,-78.7482"/>
<polygon fill="midnightblue" stroke="midnightblue" points="514.988,-119.439 525.442,-117.715 516.195,-112.543 514.988,-119.439"/>
</g>
<!-- Node9 -->
<g id="node17" class="node"><title>Node9</title>
<a xlink:href="HostArmQemu_8cpp.htm" target="_top" xlink:title="HostArmQemu.cpp">
<polygon fill="white" stroke="black" points="116,-58.5 116,-79.5 220,-79.5 220,-58.5 116,-58.5"/>
<text text-anchor="middle" x="168" y="-66.5" font-family="Helvetica,sans-Serif" font-size="10.00">HostArmQemu.cpp</text>
</a>
</g>
<!-- Node3&#45;&gt;Node9 -->
<g id="edge16" class="edge"><title>Node3&#45;&gt;Node9</title>
<path fill="none" stroke="midnightblue" d="M515.329,-115.866C388.624,-91.6278 353.283,-98.9594 229,-80 226.128,-79.5618 223.183,-79.0937 220.212,-78.6069"/>
<polygon fill="midnightblue" stroke="midnightblue" points="514.937,-119.355 525.421,-117.825 516.272,-112.483 514.937,-119.355"/>
</g>
<!-- Node10 -->
<g id="node19" class="node"><title>Node10</title>
<a xlink:href="HostArmTopaz_8cpp.htm" target="_top" xlink:title="HostArmTopaz.cpp">
<polygon fill="white" stroke="black" points="237.5,-58.5 237.5,-79.5 344.5,-79.5 344.5,-58.5 237.5,-58.5"/>
<text text-anchor="middle" x="291" y="-66.5" font-family="Helvetica,sans-Serif" font-size="10.00">HostArmTopaz.cpp</text>
</a>
</g>
<!-- Node3&#45;&gt;Node10 -->
<g id="edge18" class="edge"><title>Node3&#45;&gt;Node10</title>
<path fill="none" stroke="midnightblue" d="M515.545,-115.734C451.756,-100.704 388.287,-87.8105 344.616,-79.2547"/>
<polygon fill="midnightblue" stroke="midnightblue" points="514.831,-119.162 525.369,-118.065 516.447,-112.351 514.831,-119.162"/>
</g>
<!-- Node11 -->
<g id="node21" class="node"><title>Node11</title>
<a xlink:href="HostArmUnknown_8cpp.htm" target="_top" xlink:title="HostArmUnknown.cpp">
<polygon fill="white" stroke="black" points="793.5,-58.5 793.5,-79.5 914.5,-79.5 914.5,-58.5 793.5,-58.5"/>
<text text-anchor="middle" x="854" y="-66.5" font-family="Helvetica,sans-Serif" font-size="10.00">HostArmUnknown.cpp</text>
</a>
</g>
<!-- Node3&#45;&gt;Node11 -->
<g id="edge20" class="edge"><title>Node3&#45;&gt;Node11</title>
<path fill="none" stroke="midnightblue" d="M600.711,-116.711C601.818,-116.469 602.916,-116.231 604,-116 668.462,-102.242 742.735,-88.5507 793.468,-79.5248"/>
<polygon fill="midnightblue" stroke="midnightblue" points="599.606,-113.373 590.623,-118.991 601.149,-120.201 599.606,-113.373"/>
</g>
<!-- Node12 -->
<g id="node24" class="node"><title>Node12</title>
<a xlink:href="HostArmWindsorNot_8cpp.htm" target="_top" xlink:title="HostArmWindsorNot.cpp">
<polygon fill="white" stroke="black" points="362,-58.5 362,-79.5 494,-79.5 494,-58.5 362,-58.5"/>
<text text-anchor="middle" x="428" y="-66.5" font-family="Helvetica,sans-Serif" font-size="10.00">HostArmWindsorNot.cpp</text>
</a>
</g>
<!-- Node3&#45;&gt;Node12 -->
<g id="edge24" class="edge"><title>Node3&#45;&gt;Node12</title>
<path fill="none" stroke="midnightblue" d="M525.148,-112.343C502.302,-102.15 472.374,-88.7977 451.806,-79.6212"/>
<polygon fill="midnightblue" stroke="midnightblue" points="523.9,-115.618 534.458,-116.497 526.752,-109.226 523.9,-115.618"/>
</g>
<!-- Node5 -->
<g id="node9" class="node"><title>Node5</title>
<a xlink:href="HostBase_8cpp.htm" target="_top" xlink:title="HostBase.cpp">
<polygon fill="white" stroke="black" points="929,-0.5 929,-21.5 1011,-21.5 1011,-0.5 929,-0.5"/>
<text text-anchor="middle" x="970" y="-8.5" font-family="Helvetica,sans-Serif" font-size="10.00">HostBase.cpp</text>
</a>
</g>
<!-- Node4&#45;&gt;Node5 -->
<g id="edge8" class="edge"><title>Node4&#45;&gt;Node5</title>
<path fill="none" stroke="midnightblue" d="M970,-48.1906C970,-39.1684 970,-28.9941 970,-21.5707"/>
<polygon fill="midnightblue" stroke="midnightblue" points="966.5,-48.3619 970,-58.3619 973.5,-48.3619 966.5,-48.3619"/>
</g>
<!-- Node11&#45;&gt;Node5 -->
<g id="edge22" class="edge"><title>Node11&#45;&gt;Node5</title>
<path fill="none" stroke="midnightblue" d="M884.136,-53.9319C904.414,-43.7932 930.65,-30.6748 948.758,-21.6212"/>
<polygon fill="midnightblue" stroke="midnightblue" points="882.386,-50.8939 875.007,-58.4966 885.516,-57.1549 882.386,-50.8939"/>
</g>
<!-- Node14&#45;&gt;Node3 -->
<g id="edge34" class="edge"><title>Node14&#45;&gt;Node3</title>
<path fill="none" stroke="midnightblue" d="M751.559,-173.972C704.546,-162.564 632.29,-145.028 590.643,-134.922"/>
<polygon fill="midnightblue" stroke="midnightblue" points="750.934,-177.422 761.477,-176.379 752.585,-170.62 750.934,-177.422"/>
</g>
<!-- Node14&#45;&gt;Node4 -->
<g id="edge32" class="edge"><title>Node14&#45;&gt;Node4</title>
<path fill="none" stroke="midnightblue" d="M750.926,-180.857C691.985,-173.838 601.512,-156.236 637,-116 679.372,-67.9596 859.95,-91.3143 923,-80 925.722,-79.5115 928.523,-78.9662 931.338,-78.3868"/>
<polygon fill="midnightblue" stroke="midnightblue" points="750.839,-184.369 761.167,-182.009 751.621,-177.413 750.839,-184.369"/>
</g>
<!-- Node14&#45;&gt;Node5 -->
<g id="edge36" class="edge"><title>Node14&#45;&gt;Node5</title>
<path fill="none" stroke="midnightblue" d="M843.004,-182.369C935.816,-176.59 1138.43,-161.409 1159,-138 1182.47,-111.289 1180.9,-86.0115 1159,-58 1140.99,-34.9584 1061.01,-21.595 1011.04,-15.3517"/>
<polygon fill="midnightblue" stroke="midnightblue" points="842.547,-178.89 832.779,-182.995 842.975,-185.877 842.547,-178.89"/>
</g>
<!-- Node15 -->
<g id="node30" class="node"><title>Node15</title>
<a xlink:href="FlickGestureRecognizer_8cpp.htm" target="_top" xlink:title="FlickGestureRecognizer.cpp">
<polygon fill="white" stroke="black" points="645.5,-116.5 645.5,-137.5 794.5,-137.5 794.5,-116.5 645.5,-116.5"/>
<text text-anchor="middle" x="720" y="-124.5" font-family="Helvetica,sans-Serif" font-size="10.00">FlickGestureRecognizer.cpp</text>
</a>
</g>
<!-- Node14&#45;&gt;Node15 -->
<g id="edge30" class="edge"><title>Node14&#45;&gt;Node15</title>
<path fill="none" stroke="midnightblue" d="M774.774,-168.259C761.639,-158.364 745.405,-146.136 734.033,-137.571"/>
<polygon fill="midnightblue" stroke="midnightblue" points="772.784,-171.141 782.877,-174.362 776.995,-165.55 772.784,-171.141"/>
</g>
<!-- Node16 -->
<g id="node35" class="node"><title>Node16</title>
<a xlink:href="HostQtDesktop_8h.htm" target="_top" xlink:title="HostQtDesktop.h">
<polygon fill="white" stroke="black" points="1053.5,-116.5 1053.5,-137.5 1150.5,-137.5 1150.5,-116.5 1053.5,-116.5"/>
<text text-anchor="middle" x="1102" y="-124.5" font-family="Helvetica,sans-Serif" font-size="10.00">HostQtDesktop.h</text>
</a>
</g>
<!-- Node14&#45;&gt;Node16 -->
<g id="edge38" class="edge"><title>Node14&#45;&gt;Node16</title>
<path fill="none" stroke="midnightblue" d="M842.858,-176.357C892.639,-166.963 974.478,-151.487 1045,-138 1047.77,-137.47 1050.62,-136.924 1053.49,-136.373"/>
<polygon fill="midnightblue" stroke="midnightblue" points="841.915,-172.973 832.737,-178.266 843.213,-179.851 841.915,-172.973"/>
</g>
<!-- Node18 -->
<g id="node39" class="node"><title>Node18</title>
<a xlink:href="LocalePreferences_8cpp.htm" target="_top" xlink:title="LocalePreferences.cpp">
<polygon fill="white" stroke="black" points="811.5,-116.5 811.5,-137.5 936.5,-137.5 936.5,-116.5 811.5,-116.5"/>
<text text-anchor="middle" x="874" y="-124.5" font-family="Helvetica,sans-Serif" font-size="10.00">LocalePreferences.cpp</text>
</a>
</g>
<!-- Node14&#45;&gt;Node18 -->
<g id="edge42" class="edge"><title>Node14&#45;&gt;Node18</title>
<path fill="none" stroke="midnightblue" d="M819.226,-168.259C832.361,-158.364 848.595,-146.136 859.967,-137.571"/>
<polygon fill="midnightblue" stroke="midnightblue" points="817.005,-165.55 811.123,-174.362 821.216,-171.141 817.005,-165.55"/>
</g>
<!-- Node19 -->
<g id="node41" class="node"><title>Node19</title>
<a xlink:href="SyncTask_8cpp.htm" target="_top" xlink:title="SyncTask.cpp">
<polygon fill="white" stroke="black" points="953.5,-116.5 953.5,-137.5 1036.5,-137.5 1036.5,-116.5 953.5,-116.5"/>
<text text-anchor="middle" x="995" y="-124.5" font-family="Helvetica,sans-Serif" font-size="10.00">SyncTask.cpp</text>
</a>
</g>
<!-- Node14&#45;&gt;Node19 -->
<g id="edge44" class="edge"><title>Node14&#45;&gt;Node19</title>
<path fill="none" stroke="midnightblue" d="M842.473,-171.68C877.883,-161.307 926.356,-147.108 959.076,-137.523"/>
<polygon fill="midnightblue" stroke="midnightblue" points="841.469,-168.327 832.856,-174.497 843.437,-175.044 841.469,-168.327"/>
</g>
<!-- Node17 -->
<g id="node37" class="node"><title>Node17</title>
<a xlink:href="HostQtDesktop_8cpp.htm" target="_top" xlink:title="HostQtDesktop.cpp">
<polygon fill="white" stroke="black" points="1042,-58.5 1042,-79.5 1150,-79.5 1150,-58.5 1042,-58.5"/>
<text text-anchor="middle" x="1096" y="-66.5" font-family="Helvetica,sans-Serif" font-size="10.00">HostQtDesktop.cpp</text>
</a>
</g>
<!-- Node16&#45;&gt;Node17 -->
<g id="edge40" class="edge"><title>Node16&#45;&gt;Node17</title>
<path fill="none" stroke="midnightblue" d="M1099.85,-106.191C1098.91,-97.1684 1097.86,-86.9941 1097.09,-79.5707"/>
<polygon fill="midnightblue" stroke="midnightblue" points="1096.39,-106.775 1100.9,-116.362 1103.35,-106.055 1096.39,-106.775"/>
</g>
</g>
</svg>
