<?xml version="1.0" encoding="UTF-8" standalone="no"?>
<!DOCTYPE svg PUBLIC "-//W3C//DTD SVG 1.1//EN"
 "http://www.w3.org/Graphics/SVG/1.1/DTD/svg11.dtd">
<!-- Generated by graphviz version 2.26.3 (20100126.1600)
 -->
<!-- Title: JSONUtils.h Pages: 1 -->
<svg width="530pt" height="146pt"
 viewBox="0.00 0.00 530.00 146.00" xmlns="http://www.w3.org/2000/svg" xmlns:xlink="http://www.w3.org/1999/xlink">
<g id="graph1" class="graph" transform="scale(1 1) rotate(0) translate(4 142)">
<title>JSONUtils.h</title>
<polygon fill="white" stroke="white" points="-4,5 -4,-142 527,-142 527,5 -4,5"/>
<!-- Node1 -->
<g id="node1" class="node"><title>Node1</title>
<polygon fill="#bfbfbf" stroke="black" points="318.5,-116.5 318.5,-137.5 391.5,-137.5 391.5,-116.5 318.5,-116.5"/>
<text text-anchor="middle" x="355" y="-124.5" font-family="Helvetica,sans-Serif" font-size="10.00">JSONUtils.h</text>
</g>
<!-- Node2 -->
<g id="node3" class="node"><title>Node2</title>
<a xlink:href="Settings_8h.htm" target="_top" xlink:title="Settings.h">
<polygon fill="white" stroke="black" points="191.5,-58.5 191.5,-79.5 254.5,-79.5 254.5,-58.5 191.5,-58.5"/>
<text text-anchor="middle" x="223" y="-66.5" font-family="Helvetica,sans-Serif" font-size="10.00">Settings.h</text>
</a>
</g>
<!-- Node1&#45;&gt;Node2 -->
<g id="edge2" class="edge"><title>Node1&#45;&gt;Node2</title>
<path fill="none" stroke="midnightblue" d="M331.096,-116.497C310.2,-107.315 279.644,-93.8889 256.345,-83.6516"/>
<polygon fill="midnightblue" stroke="midnightblue" points="257.736,-80.4397 247.172,-79.6212 254.92,-86.8483 257.736,-80.4397"/>
</g>
<!-- Node10 -->
<g id="node19" class="node"><title>Node10</title>
<polygon fill="white" stroke="#bfbfbf" points="272,-58.5 272,-79.5 350,-79.5 350,-58.5 272,-58.5"/>
<text text-anchor="middle" x="311" y="-66.5" font-family="Helvetica,sans-Serif" font-size="10.00">lunaservice.h</text>
</g>
<!-- Node1&#45;&gt;Node10 -->
<g id="edge18" class="edge"><title>Node1&#45;&gt;Node10</title>
<path fill="none" stroke="midnightblue" d="M346.93,-116.362C340.851,-108.35 332.363,-97.1605 325.163,-87.6696"/>
<polygon fill="midnightblue" stroke="midnightblue" points="327.851,-85.4222 319.019,-79.5707 322.275,-89.653 327.851,-85.4222"/>
</g>
<!-- Node11 -->
<g id="node21" class="node"><title>Node11</title>
<polygon fill="white" stroke="#bfbfbf" points="368,-58.5 368,-79.5 430,-79.5 430,-58.5 368,-58.5"/>
<text text-anchor="middle" x="399" y="-66.5" font-family="Helvetica,sans-Serif" font-size="10.00">pbnjson.h</text>
</g>
<!-- Node1&#45;&gt;Node11 -->
<g id="edge20" class="edge"><title>Node1&#45;&gt;Node11</title>
<path fill="none" stroke="midnightblue" d="M363.07,-116.362C369.149,-108.35 377.637,-97.1605 384.837,-87.6696"/>
<polygon fill="midnightblue" stroke="midnightblue" points="387.725,-89.653 390.981,-79.5707 382.149,-85.4222 387.725,-89.653"/>
</g>
<!-- Node12 -->
<g id="node23" class="node"><title>Node12</title>
<polygon fill="white" stroke="#bfbfbf" points="448,-58.5 448,-79.5 522,-79.5 522,-58.5 448,-58.5"/>
<text text-anchor="middle" x="485" y="-66.5" font-family="Helvetica,sans-Serif" font-size="10.00">pbnjson.hpp</text>
</g>
<!-- Node1&#45;&gt;Node12 -->
<g id="edge22" class="edge"><title>Node1&#45;&gt;Node12</title>
<path fill="none" stroke="midnightblue" d="M378.542,-116.497C399.029,-107.356 428.947,-94.0082 451.854,-83.7883"/>
<polygon fill="midnightblue" stroke="midnightblue" points="453.488,-86.892 461.194,-79.6212 450.635,-80.4994 453.488,-86.892"/>
</g>
<!-- Node3 -->
<g id="node5" class="node"><title>Node3</title>
<a xlink:href="Common_8h.htm" target="_top" xlink:title="Common.h">
<polygon fill="white" stroke="black" points="-0.5,-0.5 -0.5,-21.5 66.5,-21.5 66.5,-0.5 -0.5,-0.5"/>
<text text-anchor="middle" x="33" y="-8.5" font-family="Helvetica,sans-Serif" font-size="10.00">Common.h</text>
</a>
</g>
<!-- Node2&#45;&gt;Node3 -->
<g id="edge4" class="edge"><title>Node2&#45;&gt;Node3</title>
<path fill="none" stroke="midnightblue" d="M191.198,-59.2921C159.757,-49.6943 111.414,-34.9369 76.4424,-24.2614"/>
<polygon fill="midnightblue" stroke="midnightblue" points="77.0923,-20.8004 66.5061,-21.2282 75.0485,-27.4954 77.0923,-20.8004"/>
</g>
<!-- Node4 -->
<g id="node7" class="node"><title>Node4</title>
<polygon fill="white" stroke="#bfbfbf" points="83.5,-0.5 83.5,-21.5 126.5,-21.5 126.5,-0.5 83.5,-0.5"/>
<text text-anchor="middle" x="105" y="-8.5" font-family="Helvetica,sans-Serif" font-size="10.00">string</text>
</g>
<!-- Node2&#45;&gt;Node4 -->
<g id="edge6" class="edge"><title>Node2&#45;&gt;Node4</title>
<path fill="none" stroke="midnightblue" d="M201.631,-58.4966C183.201,-49.4378 156.363,-36.2462 135.645,-26.0628"/>
<polygon fill="midnightblue" stroke="midnightblue" points="137.127,-22.8914 126.609,-21.6212 134.039,-29.1735 137.127,-22.8914"/>
</g>
<!-- Node5 -->
<g id="node9" class="node"><title>Node5</title>
<polygon fill="white" stroke="#bfbfbf" points="144,-0.5 144,-21.5 190,-21.5 190,-0.5 144,-0.5"/>
<text text-anchor="middle" x="167" y="-8.5" font-family="Helvetica,sans-Serif" font-size="10.00">vector</text>
</g>
<!-- Node2&#45;&gt;Node5 -->
<g id="edge8" class="edge"><title>Node2&#45;&gt;Node5</title>
<path fill="none" stroke="midnightblue" d="M212.729,-58.3619C204.756,-50.1043 193.525,-38.4725 184.189,-28.8029"/>
<polygon fill="midnightblue" stroke="midnightblue" points="186.67,-26.3336 177.206,-21.5707 181.634,-31.1958 186.67,-26.3336"/>
</g>
<!-- Node6 -->
<g id="node11" class="node"><title>Node6</title>
<polygon fill="white" stroke="#bfbfbf" points="207.5,-0.5 207.5,-21.5 238.5,-21.5 238.5,-0.5 207.5,-0.5"/>
<text text-anchor="middle" x="223" y="-8.5" font-family="Helvetica,sans-Serif" font-size="10.00">set</text>
</g>
<!-- Node2&#45;&gt;Node6 -->
<g id="edge10" class="edge"><title>Node2&#45;&gt;Node6</title>
<path fill="none" stroke="midnightblue" d="M223,-58.3619C223,-50.9219 223,-40.7427 223,-31.7276"/>
<polygon fill="midnightblue" stroke="midnightblue" points="226.5,-31.5706 223,-21.5707 219.5,-31.5707 226.5,-31.5706"/>
</g>
<!-- Node7 -->
<g id="node13" class="node"><title>Node7</title>
<polygon fill="white" stroke="#bfbfbf" points="255.5,-0.5 255.5,-21.5 296.5,-21.5 296.5,-0.5 255.5,-0.5"/>
<text text-anchor="middle" x="276" y="-8.5" font-family="Helvetica,sans-Serif" font-size="10.00">glib.h</text>
</g>
<!-- Node2&#45;&gt;Node7 -->
<g id="edge12" class="edge"><title>Node2&#45;&gt;Node7</title>
<path fill="none" stroke="midnightblue" d="M232.721,-58.3619C240.192,-50.1861 250.686,-38.7025 259.469,-29.0907"/>
<polygon fill="midnightblue" stroke="midnightblue" points="262.179,-31.3138 266.341,-21.5707 257.011,-26.5918 262.179,-31.3138"/>
</g>
<!-- Node8 -->
<g id="node15" class="node"><title>Node8</title>
<polygon fill="white" stroke="#bfbfbf" points="314,-0.5 314,-21.5 372,-21.5 372,-0.5 314,-0.5"/>
<text text-anchor="middle" x="343" y="-8.5" font-family="Helvetica,sans-Serif" font-size="10.00">QtGlobal</text>
</g>
<!-- Node2&#45;&gt;Node8 -->
<g id="edge14" class="edge"><title>Node2&#45;&gt;Node8</title>
<path fill="none" stroke="midnightblue" d="M244.731,-58.4966C263.474,-49.4378 290.767,-36.2462 311.836,-26.0628"/>
<polygon fill="midnightblue" stroke="midnightblue" points="313.545,-29.1242 321.025,-21.6212 310.498,-22.8217 313.545,-29.1242"/>
</g>
<!-- Node9 -->
<g id="node17" class="node"><title>Node9</title>
<polygon fill="white" stroke="#bfbfbf" points="389.5,-0.5 389.5,-21.5 448.5,-21.5 448.5,-0.5 389.5,-0.5"/>
<text text-anchor="middle" x="419" y="-8.5" font-family="Helvetica,sans-Serif" font-size="10.00">QVariant</text>
</g>
<!-- Node2&#45;&gt;Node9 -->
<g id="edge16" class="edge"><title>Node2&#45;&gt;Node9</title>
<path fill="none" stroke="midnightblue" d="M254.927,-59.5522C288.936,-49.4882 342.817,-33.5439 379.481,-22.6945"/>
<polygon fill="midnightblue" stroke="midnightblue" points="380.738,-25.9724 389.334,-19.7787 378.752,-19.2602 380.738,-25.9724"/>
</g>
</g>
</svg>
