<?xml version="1.0" encoding="UTF-8" standalone="no"?>
<!DOCTYPE svg PUBLIC "-//W3C//DTD SVG 1.1//EN"
 "http://www.w3.org/Graphics/SVG/1.1/DTD/svg11.dtd">
<!-- Generated by graphviz version 2.26.3 (20100126.1600)
 -->
<!-- Title: JSONUtils.cpp Pages: 1 -->
<svg width="1136pt" height="204pt"
 viewBox="0.00 0.00 1136.00 204.00" xmlns="http://www.w3.org/2000/svg" xmlns:xlink="http://www.w3.org/1999/xlink">
<g id="graph1" class="graph" transform="scale(1 1) rotate(0) translate(4 200)">
<title>JSONUtils.cpp</title>
<polygon fill="white" stroke="white" points="-4,5 -4,-200 1133,-200 1133,5 -4,5"/>
<!-- Node1 -->
<g id="node1" class="node"><title>Node1</title>
<polygon fill="#bfbfbf" stroke="black" points="345,-174.5 345,-195.5 429,-195.5 429,-174.5 345,-174.5"/>
<text text-anchor="middle" x="387" y="-182.5" font-family="Helvetica,sans-Serif" font-size="10.00">JSONUtils.cpp</text>
</g>
<!-- Node2 -->
<g id="node3" class="node"><title>Node2</title>
<a xlink:href="JSONUtils_8h.htm" target="_top" xlink:title="JSONUtils.h">
<polygon fill="white" stroke="black" points="174.5,-116.5 174.5,-137.5 247.5,-137.5 247.5,-116.5 174.5,-116.5"/>
<text text-anchor="middle" x="211" y="-124.5" font-family="Helvetica,sans-Serif" font-size="10.00">JSONUtils.h</text>
</a>
</g>
<!-- Node1&#45;&gt;Node2 -->
<g id="edge2" class="edge"><title>Node1&#45;&gt;Node2</title>
<path fill="none" stroke="midnightblue" d="M355.128,-174.497C326.435,-165.041 284.079,-151.083 252.702,-140.743"/>
<polygon fill="midnightblue" stroke="midnightblue" points="253.525,-137.329 242.932,-137.523 251.334,-143.977 253.525,-137.329"/>
</g>
<!-- Node14 -->
<g id="node27" class="node"><title>Node14</title>
<a xlink:href="Logging_8h.htm" target="_top" xlink:title="Logging.h">
<polygon fill="white" stroke="black" points="355.5,-58.5 355.5,-79.5 418.5,-79.5 418.5,-58.5 355.5,-58.5"/>
<text text-anchor="middle" x="387" y="-66.5" font-family="Helvetica,sans-Serif" font-size="10.00">Logging.h</text>
</a>
</g>
<!-- Node1&#45;&gt;Node14 -->
<g id="edge26" class="edge"><title>Node1&#45;&gt;Node14</title>
<path fill="none" stroke="midnightblue" d="M387,-174.295C387,-155.131 387,-114.654 387,-89.8434"/>
<polygon fill="midnightblue" stroke="midnightblue" points="390.5,-89.6792 387,-79.6792 383.5,-89.6792 390.5,-89.6792"/>
</g>
<!-- Node17 -->
<g id="node35" class="node"><title>Node17</title>
<a xlink:href="Utils_8h.htm" target="_top" xlink:title="Utils.h">
<polygon fill="white" stroke="black" points="681.5,-58.5 681.5,-79.5 726.5,-79.5 726.5,-58.5 681.5,-58.5"/>
<text text-anchor="middle" x="704" y="-66.5" font-family="Helvetica,sans-Serif" font-size="10.00">Utils.h</text>
</a>
</g>
<!-- Node1&#45;&gt;Node17 -->
<g id="edge36" class="edge"><title>Node1&#45;&gt;Node17</title>
<path fill="none" stroke="midnightblue" d="M415.972,-174.398C475.188,-152.729 609.711,-103.503 671.663,-80.8329"/>
<polygon fill="midnightblue" stroke="midnightblue" points="673.122,-84.0263 681.31,-77.303 670.716,-77.4526 673.122,-84.0263"/>
</g>
<!-- Node3 -->
<g id="node5" class="node"><title>Node3</title>
<a xlink:href="Settings_8h.htm" target="_top" xlink:title="Settings.h">
<polygon fill="white" stroke="black" points="179.5,-58.5 179.5,-79.5 242.5,-79.5 242.5,-58.5 179.5,-58.5"/>
<text text-anchor="middle" x="211" y="-66.5" font-family="Helvetica,sans-Serif" font-size="10.00">Settings.h</text>
</a>
</g>
<!-- Node2&#45;&gt;Node3 -->
<g id="edge4" class="edge"><title>Node2&#45;&gt;Node3</title>
<path fill="none" stroke="midnightblue" d="M211,-116.362C211,-108.922 211,-98.7427 211,-89.7276"/>
<polygon fill="midnightblue" stroke="midnightblue" points="214.5,-89.5706 211,-79.5707 207.5,-89.5707 214.5,-89.5706"/>
</g>
<!-- Node11 -->
<g id="node21" class="node"><title>Node11</title>
<polygon fill="white" stroke="#bfbfbf" points="260,-58.5 260,-79.5 338,-79.5 338,-58.5 260,-58.5"/>
<text text-anchor="middle" x="299" y="-66.5" font-family="Helvetica,sans-Serif" font-size="10.00">lunaservice.h</text>
</g>
<!-- Node2&#45;&gt;Node11 -->
<g id="edge20" class="edge"><title>Node2&#45;&gt;Node11</title>
<path fill="none" stroke="midnightblue" d="M227.141,-116.362C240.414,-107.614 259.432,-95.0786 274.57,-85.1015"/>
<polygon fill="midnightblue" stroke="midnightblue" points="276.538,-87.9962 282.962,-79.5707 272.686,-82.1515 276.538,-87.9962"/>
</g>
<!-- Node12 -->
<g id="node23" class="node"><title>Node12</title>
<polygon fill="white" stroke="#bfbfbf" points="8,-58.5 8,-79.5 70,-79.5 70,-58.5 8,-58.5"/>
<text text-anchor="middle" x="39" y="-66.5" font-family="Helvetica,sans-Serif" font-size="10.00">pbnjson.h</text>
</g>
<!-- Node2&#45;&gt;Node12 -->
<g id="edge22" class="edge"><title>Node2&#45;&gt;Node12</title>
<path fill="none" stroke="midnightblue" d="M179.852,-116.497C151.811,-107.041 110.418,-93.0829 79.7545,-82.7428"/>
<polygon fill="midnightblue" stroke="midnightblue" points="80.8005,-79.4019 70.2063,-79.5231 78.5637,-86.035 80.8005,-79.4019"/>
</g>
<!-- Node13 -->
<g id="node25" class="node"><title>Node13</title>
<polygon fill="white" stroke="#bfbfbf" points="88,-58.5 88,-79.5 162,-79.5 162,-58.5 88,-58.5"/>
<text text-anchor="middle" x="125" y="-66.5" font-family="Helvetica,sans-Serif" font-size="10.00">pbnjson.hpp</text>
</g>
<!-- Node2&#45;&gt;Node13 -->
<g id="edge24" class="edge"><title>Node2&#45;&gt;Node13</title>
<path fill="none" stroke="midnightblue" d="M195.226,-116.362C182.376,-107.696 164.015,-95.3126 149.29,-85.3819"/>
<polygon fill="midnightblue" stroke="midnightblue" points="150.921,-82.2604 140.674,-79.5707 147.007,-88.0639 150.921,-82.2604"/>
</g>
<!-- Node4 -->
<g id="node7" class="node"><title>Node4</title>
<a xlink:href="Common_8h.htm" target="_top" xlink:title="Common.h">
<polygon fill="white" stroke="black" points="199.5,-0.5 199.5,-21.5 266.5,-21.5 266.5,-0.5 199.5,-0.5"/>
<text text-anchor="middle" x="233" y="-8.5" font-family="Helvetica,sans-Serif" font-size="10.00">Common.h</text>
</a>
</g>
<!-- Node3&#45;&gt;Node4 -->
<g id="edge6" class="edge"><title>Node3&#45;&gt;Node4</title>
<path fill="none" stroke="midnightblue" d="M215.035,-58.3619C217.919,-50.7584 221.888,-40.294 225.363,-31.1349"/>
<polygon fill="midnightblue" stroke="midnightblue" points="228.716,-32.1619 228.99,-21.5707 222.171,-29.6793 228.716,-32.1619"/>
</g>
<!-- Node5 -->
<g id="node9" class="node"><title>Node5</title>
<polygon fill="white" stroke="#bfbfbf" points="557.5,-0.5 557.5,-21.5 600.5,-21.5 600.5,-0.5 557.5,-0.5"/>
<text text-anchor="middle" x="579" y="-8.5" font-family="Helvetica,sans-Serif" font-size="10.00">string</text>
</g>
<!-- Node3&#45;&gt;Node5 -->
<g id="edge8" class="edge"><title>Node3&#45;&gt;Node5</title>
<path fill="none" stroke="midnightblue" d="M242.776,-59.8047C245.545,-59.1423 248.315,-58.5284 251,-58 378.701,-32.8713 417.404,-52.1771 547.299,-22.0057"/>
<polygon fill="midnightblue" stroke="midnightblue" points="548.306,-25.364 557.225,-19.6461 546.687,-18.5538 548.306,-25.364"/>
</g>
<!-- Node6 -->
<g id="node11" class="node"><title>Node6</title>
<polygon fill="white" stroke="#bfbfbf" points="494,-0.5 494,-21.5 540,-21.5 540,-0.5 494,-0.5"/>
<text text-anchor="middle" x="517" y="-8.5" font-family="Helvetica,sans-Serif" font-size="10.00">vector</text>
</g>
<!-- Node3&#45;&gt;Node6 -->
<g id="edge10" class="edge"><title>Node3&#45;&gt;Node6</title>
<path fill="none" stroke="midnightblue" d="M242.795,-59.8993C245.56,-59.2164 248.324,-58.5719 251,-58 350.786,-36.6785 381.019,-46.5561 483.875,-21.9461"/>
<polygon fill="midnightblue" stroke="midnightblue" points="484.842,-25.3129 493.725,-19.5384 483.18,-18.5131 484.842,-25.3129"/>
</g>
<!-- Node7 -->
<g id="node13" class="node"><title>Node7</title>
<polygon fill="white" stroke="#bfbfbf" points="-0.5,-0.5 -0.5,-21.5 30.5,-21.5 30.5,-0.5 -0.5,-0.5"/>
<text text-anchor="middle" x="15" y="-8.5" font-family="Helvetica,sans-Serif" font-size="10.00">set</text>
</g>
<!-- Node3&#45;&gt;Node7 -->
<g id="edge12" class="edge"><title>Node3&#45;&gt;Node7</title>
<path fill="none" stroke="midnightblue" d="M179.125,-60.2278C176.377,-59.4736 173.64,-58.7229 171,-58 115.329,-42.7536 97.9175,-42.6998 40.2154,-22.0839"/>
<polygon fill="midnightblue" stroke="midnightblue" points="41.1907,-18.7145 30.5966,-18.5931 38.8027,-25.2946 41.1907,-18.7145"/>
</g>
<!-- Node8 -->
<g id="node15" class="node"><title>Node8</title>
<polygon fill="white" stroke="#bfbfbf" points="283.5,-0.5 283.5,-21.5 324.5,-21.5 324.5,-0.5 283.5,-0.5"/>
<text text-anchor="middle" x="304" y="-8.5" font-family="Helvetica,sans-Serif" font-size="10.00">glib.h</text>
</g>
<!-- Node3&#45;&gt;Node8 -->
<g id="edge14" class="edge"><title>Node3&#45;&gt;Node8</title>
<path fill="none" stroke="midnightblue" d="M228.058,-58.3619C242.085,-49.6138 262.184,-37.0786 278.182,-27.1015"/>
<polygon fill="midnightblue" stroke="midnightblue" points="280.418,-29.8323 287.051,-21.5707 276.713,-23.8927 280.418,-29.8323"/>
</g>
<!-- Node9 -->
<g id="node17" class="node"><title>Node9</title>
<polygon fill="white" stroke="#bfbfbf" points="48,-0.5 48,-21.5 106,-21.5 106,-0.5 48,-0.5"/>
<text text-anchor="middle" x="77" y="-8.5" font-family="Helvetica,sans-Serif" font-size="10.00">QtGlobal</text>
</g>
<!-- Node3&#45;&gt;Node9 -->
<g id="edge16" class="edge"><title>Node3&#45;&gt;Node9</title>
<path fill="none" stroke="midnightblue" d="M186.734,-58.4966C165.522,-49.3154 134.502,-35.8889 110.85,-25.6516"/>
<polygon fill="midnightblue" stroke="midnightblue" points="112.106,-22.3815 101.539,-21.6212 109.326,-28.8055 112.106,-22.3815"/>
</g>
<!-- Node10 -->
<g id="node19" class="node"><title>Node10</title>
<polygon fill="white" stroke="#bfbfbf" points="123.5,-0.5 123.5,-21.5 182.5,-21.5 182.5,-0.5 123.5,-0.5"/>
<text text-anchor="middle" x="153" y="-8.5" font-family="Helvetica,sans-Serif" font-size="10.00">QVariant</text>
</g>
<!-- Node3&#45;&gt;Node10 -->
<g id="edge18" class="edge"><title>Node3&#45;&gt;Node10</title>
<path fill="none" stroke="midnightblue" d="M200.362,-58.3619C192.104,-50.1043 180.472,-38.4725 170.803,-28.8029"/>
<polygon fill="midnightblue" stroke="midnightblue" points="173.117,-26.1669 163.571,-21.5707 168.167,-31.1166 173.117,-26.1669"/>
</g>
<!-- Node14&#45;&gt;Node4 -->
<g id="edge28" class="edge"><title>Node14&#45;&gt;Node4</title>
<path fill="none" stroke="midnightblue" d="M359.112,-58.4966C334.332,-49.1639 297.905,-35.4447 270.564,-25.1475"/>
<polygon fill="midnightblue" stroke="midnightblue" points="271.532,-21.7723 260.941,-21.5231 269.065,-28.3231 271.532,-21.7723"/>
</g>
<!-- Node14&#45;&gt;Node8 -->
<g id="edge32" class="edge"><title>Node14&#45;&gt;Node8</title>
<path fill="none" stroke="midnightblue" d="M371.777,-58.3619C359.375,-49.6955 341.654,-37.3126 327.443,-27.3819"/>
<polygon fill="midnightblue" stroke="midnightblue" points="329.329,-24.4297 319.127,-21.5707 325.319,-30.1676 329.329,-24.4297"/>
</g>
<!-- Node15 -->
<g id="node30" class="node"><title>Node15</title>
<polygon fill="white" stroke="#bfbfbf" points="341.5,-0.5 341.5,-21.5 388.5,-21.5 388.5,-0.5 341.5,-0.5"/>
<text text-anchor="middle" x="365" y="-8.5" font-family="Helvetica,sans-Serif" font-size="10.00">stdio.h</text>
</g>
<!-- Node14&#45;&gt;Node15 -->
<g id="edge30" class="edge"><title>Node14&#45;&gt;Node15</title>
<path fill="none" stroke="midnightblue" d="M382.965,-58.3619C380.081,-50.7584 376.112,-40.294 372.637,-31.1349"/>
<polygon fill="midnightblue" stroke="midnightblue" points="375.829,-29.6793 369.01,-21.5707 369.284,-32.1619 375.829,-29.6793"/>
</g>
<!-- Node16 -->
<g id="node33" class="node"><title>Node16</title>
<polygon fill="white" stroke="#bfbfbf" points="405.5,-0.5 405.5,-21.5 476.5,-21.5 476.5,-0.5 405.5,-0.5"/>
<text text-anchor="middle" x="441" y="-8.5" font-family="Helvetica,sans-Serif" font-size="10.00">PmLogLib.h</text>
</g>
<!-- Node14&#45;&gt;Node16 -->
<g id="edge34" class="edge"><title>Node14&#45;&gt;Node16</title>
<path fill="none" stroke="midnightblue" d="M396.904,-58.3619C404.516,-50.1861 415.208,-38.7025 424.157,-29.0907"/>
<polygon fill="midnightblue" stroke="midnightblue" points="426.906,-31.2746 431.158,-21.5707 421.783,-26.5046 426.906,-31.2746"/>
</g>
<!-- Node17&#45;&gt;Node4 -->
<g id="edge38" class="edge"><title>Node17&#45;&gt;Node4</title>
<path fill="none" stroke="midnightblue" d="M681.039,-67.6766C617.9,-63.7871 436.277,-50.9157 276.815,-22.1448"/>
<polygon fill="midnightblue" stroke="midnightblue" points="277.297,-18.6748 266.83,-20.3167 276.036,-25.5604 277.297,-18.6748"/>
</g>
<!-- Node17&#45;&gt;Node5 -->
<g id="edge42" class="edge"><title>Node17&#45;&gt;Node5</title>
<path fill="none" stroke="midnightblue" d="M681.363,-58.4966C661.384,-49.2264 632.078,-35.6282 609.937,-25.3548"/>
<polygon fill="midnightblue" stroke="midnightblue" points="611.176,-22.0713 600.632,-21.0371 608.23,-28.421 611.176,-22.0713"/>
</g>
<!-- Node17&#45;&gt;Node6 -->
<g id="edge44" class="edge"><title>Node17&#45;&gt;Node6</title>
<path fill="none" stroke="midnightblue" d="M681.33,-62.409C652.835,-54.0638 602.21,-39.0372 549.833,-22.1967"/>
<polygon fill="midnightblue" stroke="midnightblue" points="550.63,-18.7759 540.038,-19.0323 548.478,-25.437 550.63,-18.7759"/>
</g>
<!-- Node17&#45;&gt;Node8 -->
<g id="edge58" class="edge"><title>Node17&#45;&gt;Node8</title>
<path fill="none" stroke="midnightblue" d="M681.498,-68.0018C624.509,-65.0869 469.935,-54.768 334.442,-21.9357"/>
<polygon fill="midnightblue" stroke="midnightblue" points="335.268,-18.5348 324.721,-19.5327 333.588,-25.3303 335.268,-18.5348"/>
</g>
<!-- Node18 -->
<g id="node38" class="node"><title>Node18</title>
<polygon fill="white" stroke="#bfbfbf" points="724,-0.5 724,-21.5 768,-21.5 768,-0.5 724,-0.5"/>
<text text-anchor="middle" x="746" y="-8.5" font-family="Helvetica,sans-Serif" font-size="10.00">time.h</text>
</g>
<!-- Node17&#45;&gt;Node18 -->
<g id="edge40" class="edge"><title>Node17&#45;&gt;Node18</title>
<path fill="none" stroke="midnightblue" d="M711.703,-58.3619C717.446,-50.4313 725.443,-39.3885 732.27,-29.9606"/>
<polygon fill="midnightblue" stroke="midnightblue" points="735.315,-31.7229 738.345,-21.5707 729.645,-27.6173 735.315,-31.7229"/>
</g>
<!-- Node19 -->
<g id="node42" class="node"><title>Node19</title>
<polygon fill="white" stroke="#bfbfbf" points="786,-0.5 786,-21.5 840,-21.5 840,-0.5 786,-0.5"/>
<text text-anchor="middle" x="813" y="-8.5" font-family="Helvetica,sans-Serif" font-size="10.00">sstream</text>
</g>
<!-- Node17&#45;&gt;Node19 -->
<g id="edge46" class="edge"><title>Node17&#45;&gt;Node19</title>
<path fill="none" stroke="midnightblue" d="M723.739,-58.4966C740.61,-49.5194 765.109,-36.4835 784.174,-26.3387"/>
<polygon fill="midnightblue" stroke="midnightblue" points="785.856,-29.4086 793.039,-21.6212 782.567,-23.2289 785.856,-29.4086"/>
</g>
<!-- Node20 -->
<g id="node44" class="node"><title>Node20</title>
<polygon fill="white" stroke="#bfbfbf" points="857.5,-0.5 857.5,-21.5 914.5,-21.5 914.5,-0.5 857.5,-0.5"/>
<text text-anchor="middle" x="886" y="-8.5" font-family="Helvetica,sans-Serif" font-size="10.00">iostream</text>
</g>
<!-- Node17&#45;&gt;Node20 -->
<g id="edge48" class="edge"><title>Node17&#45;&gt;Node20</title>
<path fill="none" stroke="midnightblue" d="M726.682,-61.7715C756.906,-52.1397 810.825,-34.957 847.481,-23.2752"/>
<polygon fill="midnightblue" stroke="midnightblue" points="848.863,-26.5082 857.329,-20.137 846.738,-19.8387 848.863,-26.5082"/>
</g>
<!-- Node21 -->
<g id="node46" class="node"><title>Node21</title>
<polygon fill="white" stroke="#bfbfbf" points="932,-0.5 932,-21.5 984,-21.5 984,-0.5 932,-0.5"/>
<text text-anchor="middle" x="958" y="-8.5" font-family="Helvetica,sans-Serif" font-size="10.00">regex.h</text>
</g>
<!-- Node17&#45;&gt;Node21 -->
<g id="edge50" class="edge"><title>Node17&#45;&gt;Node21</title>
<path fill="none" stroke="midnightblue" d="M726.547,-64.8799C764.799,-57.7373 844.999,-42.1022 921.863,-22.1382"/>
<polygon fill="midnightblue" stroke="midnightblue" points="922.921,-25.4792 931.703,-19.5532 921.142,-18.7089 922.921,-25.4792"/>
</g>
<!-- Node22 -->
<g id="node48" class="node"><title>Node22</title>
<polygon fill="white" stroke="#bfbfbf" points="1001.5,-0.5 1001.5,-21.5 1072.5,-21.5 1072.5,-0.5 1001.5,-0.5"/>
<text text-anchor="middle" x="1037" y="-8.5" font-family="Helvetica,sans-Serif" font-size="10.00">QByteArray</text>
</g>
<!-- Node17&#45;&gt;Node22 -->
<g id="edge52" class="edge"><title>Node17&#45;&gt;Node22</title>
<path fill="none" stroke="midnightblue" d="M726.601,-65.9818C773.923,-59.5231 887.053,-43.3546 991.009,-22.3035"/>
<polygon fill="midnightblue" stroke="midnightblue" points="991.943,-25.685 1001.04,-20.2512 990.539,-18.8271 991.943,-25.685"/>
</g>
<!-- Node23 -->
<g id="node50" class="node"><title>Node23</title>
<polygon fill="white" stroke="#bfbfbf" points="1090,-0.5 1090,-21.5 1128,-21.5 1128,-0.5 1090,-0.5"/>
<text text-anchor="middle" x="1109" y="-8.5" font-family="Helvetica,sans-Serif" font-size="10.00">QUrl</text>
</g>
<!-- Node17&#45;&gt;Node23 -->
<g id="edge54" class="edge"><title>Node17&#45;&gt;Node23</title>
<path fill="none" stroke="midnightblue" d="M726.889,-68.137C784.852,-65.5362 942.04,-55.8934 1080.03,-21.7241"/>
<polygon fill="midnightblue" stroke="midnightblue" points="1081.09,-25.0655 1089.93,-19.2213 1079.38,-18.279 1081.09,-25.0655"/>
</g>
<!-- Node24 -->
<g id="node52" class="node"><title>Node24</title>
<polygon fill="white" stroke="#bfbfbf" points="618,-0.5 618,-21.5 706,-21.5 706,-0.5 618,-0.5"/>
<text text-anchor="middle" x="662" y="-8.5" font-family="Helvetica,sans-Serif" font-size="10.00">QGraphicsItem</text>
</g>
<!-- Node17&#45;&gt;Node24 -->
<g id="edge56" class="edge"><title>Node17&#45;&gt;Node24</title>
<path fill="none" stroke="midnightblue" d="M696.297,-58.3619C690.554,-50.4313 682.557,-39.3885 675.73,-29.9606"/>
<polygon fill="midnightblue" stroke="midnightblue" points="678.355,-27.6173 669.655,-21.5707 672.685,-31.7229 678.355,-27.6173"/>
</g>
</g>
</svg>
