<?xml version="1.0" encoding="UTF-8" standalone="no"?>
<!DOCTYPE svg PUBLIC "-//W3C//DTD SVG 1.1//EN"
 "http://www.w3.org/Graphics/SVG/1.1/DTD/svg11.dtd">
<!-- Generated by graphviz version 2.26.3 (20100126.1600)
 -->
<!-- Title: JSONUtils.h Pages: 1 -->
<svg width="234pt" height="88pt"
 viewBox="0.00 0.00 234.00 88.00" xmlns="http://www.w3.org/2000/svg" xmlns:xlink="http://www.w3.org/1999/xlink">
<g id="graph1" class="graph" transform="scale(1 1) rotate(0) translate(4 84)">
<title>JSONUtils.h</title>
<polygon fill="white" stroke="white" points="-4,5 -4,-84 231,-84 231,5 -4,5"/>
<!-- Node1 -->
<g id="node1" class="node"><title>Node1</title>
<polygon fill="#bfbfbf" stroke="black" points="66.5,-58.5 66.5,-79.5 139.5,-79.5 139.5,-58.5 66.5,-58.5"/>
<text text-anchor="middle" x="103" y="-66.5" font-family="Helvetica,sans-Serif" font-size="10.00">JSONUtils.h</text>
</g>
<!-- Node2 -->
<g id="node3" class="node"><title>Node2</title>
<a xlink:href="JSONUtils_8cpp.htm" target="_top" xlink:title="JSONUtils.cpp">
<polygon fill="white" stroke="black" points="0,-0.5 0,-21.5 84,-21.5 84,-0.5 0,-0.5"/>
<text text-anchor="middle" x="42" y="-8.5" font-family="Helvetica,sans-Serif" font-size="10.00">JSONUtils.cpp</text>
</a>
</g>
<!-- Node1&#45;&gt;Node2 -->
<g id="edge2" class="edge"><title>Node1&#45;&gt;Node2</title>
<path fill="none" stroke="midnightblue" d="M84.4949,-51.405C74.2546,-41.6683 61.8685,-29.8914 53.1174,-21.5707"/>
<polygon fill="midnightblue" stroke="midnightblue" points="82.1529,-54.0077 91.8117,-58.3619 86.9763,-48.9348 82.1529,-54.0077"/>
</g>
<!-- Node3 -->
<g id="node5" class="node"><title>Node3</title>
<a xlink:href="LocalePreferences_8cpp.htm" target="_top" xlink:title="LocalePreferences.cpp">
<polygon fill="white" stroke="black" points="101.5,-0.5 101.5,-21.5 226.5,-21.5 226.5,-0.5 101.5,-0.5"/>
<text text-anchor="middle" x="164" y="-8.5" font-family="Helvetica,sans-Serif" font-size="10.00">LocalePreferences.cpp</text>
</a>
</g>
<!-- Node1&#45;&gt;Node3 -->
<g id="edge4" class="edge"><title>Node1&#45;&gt;Node3</title>
<path fill="none" stroke="midnightblue" d="M121.505,-51.405C131.745,-41.6683 144.131,-29.8914 152.883,-21.5707"/>
<polygon fill="midnightblue" stroke="midnightblue" points="119.024,-48.9348 114.188,-58.3619 123.847,-54.0077 119.024,-48.9348"/>
</g>
</g>
</svg>
