<?xml version="1.0" encoding="UTF-8" standalone="no"?>
<!DOCTYPE svg PUBLIC "-//W3C//DTD SVG 1.1//EN"
 "http://www.w3.org/Graphics/SVG/1.1/DTD/svg11.dtd">
<!-- Generated by graphviz version 2.26.3 (20100126.1600)
 -->
<!-- Title: Localization.h Pages: 1 -->
<svg width="272pt" height="146pt"
 viewBox="0.00 0.00 272.00 146.00" xmlns="http://www.w3.org/2000/svg" xmlns:xlink="http://www.w3.org/1999/xlink">
<g id="graph1" class="graph" transform="scale(1 1) rotate(0) translate(4 142)">
<title>Localization.h</title>
<polygon fill="white" stroke="white" points="-4,5 -4,-142 269,-142 269,5 -4,5"/>
<!-- Node1 -->
<g id="node1" class="node"><title>Node1</title>
<polygon fill="#bfbfbf" stroke="black" points="83.5,-116.5 83.5,-137.5 164.5,-137.5 164.5,-116.5 83.5,-116.5"/>
<text text-anchor="middle" x="124" y="-124.5" font-family="Helvetica,sans-Serif" font-size="10.00">Localization.h</text>
</g>
<!-- Node2 -->
<g id="node3" class="node"><title>Node2</title>
<a xlink:href="Common_8h.htm" target="_top" xlink:title="Common.h">
<polygon fill="white" stroke="black" points="-0.5,-0.5 -0.5,-21.5 66.5,-21.5 66.5,-0.5 -0.5,-0.5"/>
<text text-anchor="middle" x="33" y="-8.5" font-family="Helvetica,sans-Serif" font-size="10.00">Common.h</text>
</a>
</g>
<!-- Node1&#45;&gt;Node2 -->
<g id="edge2" class="edge"><title>Node1&#45;&gt;Node2</title>
<path fill="none" stroke="midnightblue" d="M115.468,-116.18C107.963,-106.658 96.7461,-92.4167 87,-80 73.7483,-63.1171 58.7006,-43.8844 47.8621,-30.0206"/>
<polygon fill="midnightblue" stroke="midnightblue" points="50.3245,-27.4875 41.4086,-21.764 44.8093,-31.7982 50.3245,-27.4875"/>
</g>
<!-- Node3 -->
<g id="node5" class="node"><title>Node3</title>
<a xlink:href="QtUtils_8h.htm" target="_top" xlink:title="QtUtils.h">
<polygon fill="white" stroke="black" points="96,-58.5 96,-79.5 152,-79.5 152,-58.5 96,-58.5"/>
<text text-anchor="middle" x="124" y="-66.5" font-family="Helvetica,sans-Serif" font-size="10.00">QtUtils.h</text>
</a>
</g>
<!-- Node1&#45;&gt;Node3 -->
<g id="edge4" class="edge"><title>Node1&#45;&gt;Node3</title>
<path fill="none" stroke="midnightblue" d="M124,-116.362C124,-108.922 124,-98.7427 124,-89.7276"/>
<polygon fill="midnightblue" stroke="midnightblue" points="127.5,-89.5706 124,-79.5707 120.5,-89.5707 127.5,-89.5706"/>
</g>
<!-- Node6 -->
<g id="node12" class="node"><title>Node6</title>
<polygon fill="white" stroke="#bfbfbf" points="214,-0.5 214,-21.5 264,-21.5 264,-0.5 214,-0.5"/>
<text text-anchor="middle" x="239" y="-8.5" font-family="Helvetica,sans-Serif" font-size="10.00">QHash</text>
</g>
<!-- Node1&#45;&gt;Node6 -->
<g id="edge14" class="edge"><title>Node1&#45;&gt;Node6</title>
<path fill="none" stroke="midnightblue" d="M134.613,-116.295C154.381,-96.3545 197.028,-53.337 221.249,-28.9056"/>
<polygon fill="midnightblue" stroke="midnightblue" points="223.858,-31.245 228.413,-21.6792 218.887,-26.3167 223.858,-31.245"/>
</g>
<!-- Node3&#45;&gt;Node2 -->
<g id="edge6" class="edge"><title>Node3&#45;&gt;Node2</title>
<path fill="none" stroke="midnightblue" d="M107.309,-58.3619C93.5837,-49.6138 73.9164,-37.0786 58.2626,-27.1015"/>
<polygon fill="midnightblue" stroke="midnightblue" points="59.899,-23.994 49.585,-21.5707 56.1366,-29.8969 59.899,-23.994"/>
</g>
<!-- Node4 -->
<g id="node8" class="node"><title>Node4</title>
<polygon fill="white" stroke="#bfbfbf" points="83.5,-0.5 83.5,-21.5 126.5,-21.5 126.5,-0.5 83.5,-0.5"/>
<text text-anchor="middle" x="105" y="-8.5" font-family="Helvetica,sans-Serif" font-size="10.00">string</text>
</g>
<!-- Node3&#45;&gt;Node4 -->
<g id="edge8" class="edge"><title>Node3&#45;&gt;Node4</title>
<path fill="none" stroke="midnightblue" d="M120.515,-58.3619C118.024,-50.7584 114.596,-40.294 111.596,-31.1349"/>
<polygon fill="midnightblue" stroke="midnightblue" points="114.902,-29.9841 108.463,-21.5707 108.25,-32.1634 114.902,-29.9841"/>
</g>
<!-- Node5 -->
<g id="node10" class="node"><title>Node5</title>
<polygon fill="white" stroke="#bfbfbf" points="143.5,-0.5 143.5,-21.5 196.5,-21.5 196.5,-0.5 143.5,-0.5"/>
<text text-anchor="middle" x="170" y="-8.5" font-family="Helvetica,sans-Serif" font-size="10.00">QString</text>
</g>
<!-- Node3&#45;&gt;Node5 -->
<g id="edge10" class="edge"><title>Node3&#45;&gt;Node5</title>
<path fill="none" stroke="midnightblue" d="M132.437,-58.3619C138.792,-50.3496 147.666,-39.1605 155.193,-29.6696"/>
<polygon fill="midnightblue" stroke="midnightblue" points="158.145,-31.5805 161.616,-21.5707 152.66,-27.2308 158.145,-31.5805"/>
</g>
<!-- Node3&#45;&gt;Node6 -->
<g id="edge12" class="edge"><title>Node3&#45;&gt;Node6</title>
<path fill="none" stroke="midnightblue" d="M144.826,-58.4966C162.706,-49.4786 188.707,-36.3649 208.861,-26.2006"/>
<polygon fill="midnightblue" stroke="midnightblue" points="210.588,-29.2495 217.941,-21.6212 207.436,-22.9994 210.588,-29.2495"/>
</g>
</g>
</svg>
