<?xml version="1.0" encoding="UTF-8" standalone="no"?>
<!DOCTYPE svg PUBLIC "-//W3C//DTD SVG 1.1//EN"
 "http://www.w3.org/Graphics/SVG/1.1/DTD/svg11.dtd">
<!-- Generated by graphviz version 2.26.3 (20100126.1600)
 -->
<!-- Title: LocalePreferences.h Pages: 1 -->
<svg width="549pt" height="204pt"
 viewBox="0.00 0.00 549.00 204.00" xmlns="http://www.w3.org/2000/svg" xmlns:xlink="http://www.w3.org/1999/xlink">
<g id="graph1" class="graph" transform="scale(1 1) rotate(0) translate(4 200)">
<title>LocalePreferences.h</title>
<polygon fill="white" stroke="white" points="-4,5 -4,-200 546,-200 546,5 -4,5"/>
<!-- Node1 -->
<g id="node1" class="node"><title>Node1</title>
<polygon fill="#bfbfbf" stroke="black" points="227,-174.5 227,-195.5 341,-195.5 341,-174.5 227,-174.5"/>
<text text-anchor="middle" x="284" y="-182.5" font-family="Helvetica,sans-Serif" font-size="10.00">LocalePreferences.h</text>
</g>
<!-- Node2 -->
<g id="node3" class="node"><title>Node2</title>
<a xlink:href="Common_8h.htm" target="_top" xlink:title="Common.h">
<polygon fill="white" stroke="black" points="70.5,-0.5 70.5,-21.5 137.5,-21.5 137.5,-0.5 70.5,-0.5"/>
<text text-anchor="middle" x="104" y="-8.5" font-family="Helvetica,sans-Serif" font-size="10.00">Common.h</text>
</a>
</g>
<!-- Node1&#45;&gt;Node2 -->
<g id="edge2" class="edge"><title>Node1&#45;&gt;Node2</title>
<path fill="none" stroke="midnightblue" d="M226.741,-178.123C198.463,-171.949 165.819,-160.233 144,-138 115.538,-108.999 107.303,-59.9465 104.937,-32.0526"/>
<polygon fill="midnightblue" stroke="midnightblue" points="108.414,-31.5808 104.256,-21.8358 101.429,-32.0466 108.414,-31.5808"/>
</g>
<!-- Node3 -->
<g id="node5" class="node"><title>Node3</title>
<polygon fill="white" stroke="#bfbfbf" points="262.5,-116.5 262.5,-137.5 305.5,-137.5 305.5,-116.5 262.5,-116.5"/>
<text text-anchor="middle" x="284" y="-124.5" font-family="Helvetica,sans-Serif" font-size="10.00">string</text>
</g>
<!-- Node1&#45;&gt;Node3 -->
<g id="edge4" class="edge"><title>Node1&#45;&gt;Node3</title>
<path fill="none" stroke="midnightblue" d="M284,-174.362C284,-166.922 284,-156.743 284,-147.728"/>
<polygon fill="midnightblue" stroke="midnightblue" points="287.5,-147.571 284,-137.571 280.5,-147.571 287.5,-147.571"/>
</g>
<!-- Node4 -->
<g id="node7" class="node"><title>Node4</title>
<polygon fill="white" stroke="#bfbfbf" points="323,-116.5 323,-137.5 401,-137.5 401,-116.5 323,-116.5"/>
<text text-anchor="middle" x="362" y="-124.5" font-family="Helvetica,sans-Serif" font-size="10.00">lunaservice.h</text>
</g>
<!-- Node1&#45;&gt;Node4 -->
<g id="edge6" class="edge"><title>Node1&#45;&gt;Node4</title>
<path fill="none" stroke="midnightblue" d="M298.306,-174.362C309.851,-165.777 326.3,-153.546 339.59,-143.664"/>
<polygon fill="midnightblue" stroke="midnightblue" points="341.848,-146.346 347.784,-137.571 337.671,-140.729 341.848,-146.346"/>
</g>
<!-- Node5 -->
<g id="node9" class="node"><title>Node5</title>
<a xlink:href="Mutex_8h.htm" target="_top" xlink:title="Mutex.h">
<polygon fill="white" stroke="black" points="27.5,-116.5 27.5,-137.5 80.5,-137.5 80.5,-116.5 27.5,-116.5"/>
<text text-anchor="middle" x="54" y="-124.5" font-family="Helvetica,sans-Serif" font-size="10.00">Mutex.h</text>
</a>
</g>
<!-- Node1&#45;&gt;Node5 -->
<g id="edge8" class="edge"><title>Node1&#45;&gt;Node5</title>
<path fill="none" stroke="midnightblue" d="M242.349,-174.497C199.029,-163.572 131.876,-146.638 90.5504,-136.217"/>
<polygon fill="midnightblue" stroke="midnightblue" points="91.1829,-132.767 80.6306,-133.716 89.4712,-139.555 91.1829,-132.767"/>
</g>
<!-- Node8 -->
<g id="node18" class="node"><title>Node8</title>
<a xlink:href="CustomEvents_8h.htm" target="_top" xlink:title="CustomEvents.h">
<polygon fill="white" stroke="black" points="153,-116.5 153,-137.5 245,-137.5 245,-116.5 153,-116.5"/>
<text text-anchor="middle" x="199" y="-124.5" font-family="Helvetica,sans-Serif" font-size="10.00">CustomEvents.h</text>
</a>
</g>
<!-- Node1&#45;&gt;Node8 -->
<g id="edge20" class="edge"><title>Node1&#45;&gt;Node8</title>
<path fill="none" stroke="midnightblue" d="M268.41,-174.362C255.709,-165.696 237.562,-153.313 223.008,-143.382"/>
<polygon fill="midnightblue" stroke="midnightblue" points="224.724,-140.316 214.491,-137.571 220.779,-146.098 224.724,-140.316"/>
</g>
<!-- Node10 -->
<g id="node23" class="node"><title>Node10</title>
<polygon fill="white" stroke="#bfbfbf" points="418.5,-116.5 418.5,-137.5 473.5,-137.5 473.5,-116.5 418.5,-116.5"/>
<text text-anchor="middle" x="446" y="-124.5" font-family="Helvetica,sans-Serif" font-size="10.00">QObject</text>
</g>
<!-- Node1&#45;&gt;Node10 -->
<g id="edge26" class="edge"><title>Node1&#45;&gt;Node10</title>
<path fill="none" stroke="midnightblue" d="M313.337,-174.497C340.008,-164.948 379.505,-150.807 408.467,-140.438"/>
<polygon fill="midnightblue" stroke="midnightblue" points="409.999,-143.607 418.234,-136.941 407.639,-137.017 409.999,-143.607"/>
</g>
<!-- Node11 -->
<g id="node25" class="node"><title>Node11</title>
<polygon fill="white" stroke="#bfbfbf" points="491,-116.5 491,-137.5 541,-137.5 541,-116.5 491,-116.5"/>
<text text-anchor="middle" x="516" y="-124.5" font-family="Helvetica,sans-Serif" font-size="10.00">QHash</text>
</g>
<!-- Node1&#45;&gt;Node11 -->
<g id="edge28" class="edge"><title>Node1&#45;&gt;Node11</title>
<path fill="none" stroke="midnightblue" d="M333.101,-174.49C371.137,-166.089 425.324,-153.561 481.12,-138.106"/>
<polygon fill="midnightblue" stroke="midnightblue" points="482.129,-141.458 490.817,-135.395 480.244,-134.717 482.129,-141.458"/>
</g>
<!-- Node5&#45;&gt;Node2 -->
<g id="edge10" class="edge"><title>Node5&#45;&gt;Node2</title>
<path fill="none" stroke="midnightblue" d="M58.6143,-116.295C66.9488,-96.9588 84.6367,-55.9229 95.3032,-31.1767"/>
<polygon fill="midnightblue" stroke="midnightblue" points="98.6527,-32.2479 99.3969,-21.6792 92.2244,-29.477 98.6527,-32.2479"/>
</g>
<!-- Node6 -->
<g id="node12" class="node"><title>Node6</title>
<a xlink:href="sptr_8h.htm" target="_top" xlink:title="sptr.h">
<polygon fill="white" stroke="black" points="16.5,-58.5 16.5,-79.5 59.5,-79.5 59.5,-58.5 16.5,-58.5"/>
<text text-anchor="middle" x="38" y="-66.5" font-family="Helvetica,sans-Serif" font-size="10.00">sptr.h</text>
</a>
</g>
<!-- Node5&#45;&gt;Node6 -->
<g id="edge12" class="edge"><title>Node5&#45;&gt;Node6</title>
<path fill="none" stroke="midnightblue" d="M51.0654,-116.362C48.9904,-108.84 46.1431,-98.5187 43.6361,-89.4308"/>
<polygon fill="midnightblue" stroke="midnightblue" points="46.9494,-88.2798 40.916,-79.5707 40.2014,-90.1414 46.9494,-88.2798"/>
</g>
<!-- Node7 -->
<g id="node15" class="node"><title>Node7</title>
<polygon fill="white" stroke="#bfbfbf" points="-0.5,-0.5 -0.5,-21.5 40.5,-21.5 40.5,-0.5 -0.5,-0.5"/>
<text text-anchor="middle" x="20" y="-8.5" font-family="Helvetica,sans-Serif" font-size="10.00">glib.h</text>
</g>
<!-- Node5&#45;&gt;Node7 -->
<g id="edge18" class="edge"><title>Node5&#45;&gt;Node7</title>
<path fill="none" stroke="midnightblue" d="M38.4015,-116.271C27.6072,-107.831 14.1238,-95.0118 8,-80 1.56967,-64.2366 5.76297,-45.0758 10.8826,-30.9493"/>
<polygon fill="midnightblue" stroke="midnightblue" points="14.1294,-32.2561 14.6355,-21.6733 7.64038,-29.6307 14.1294,-32.2561"/>
</g>
<!-- Node6&#45;&gt;Node2 -->
<g id="edge14" class="edge"><title>Node6&#45;&gt;Node2</title>
<path fill="none" stroke="midnightblue" d="M50.1054,-58.3619C59.6881,-49.9408 73.2639,-38.0105 84.3926,-28.2308"/>
<polygon fill="midnightblue" stroke="midnightblue" points="86.7701,-30.8009 91.9713,-21.5707 82.1492,-25.5427 86.7701,-30.8009"/>
</g>
<!-- Node6&#45;&gt;Node7 -->
<g id="edge16" class="edge"><title>Node6&#45;&gt;Node7</title>
<path fill="none" stroke="midnightblue" d="M34.6985,-58.3619C32.3388,-50.7584 29.0912,-40.294 26.2488,-31.1349"/>
<polygon fill="midnightblue" stroke="midnightblue" points="29.5873,-30.0839 23.2805,-21.5707 22.9019,-32.1587 29.5873,-30.0839"/>
</g>
<!-- Node8&#45;&gt;Node2 -->
<g id="edge22" class="edge"><title>Node8&#45;&gt;Node2</title>
<path fill="none" stroke="midnightblue" d="M190.233,-116.295C174.044,-96.5271 139.281,-54.0801 119.187,-29.5443"/>
<polygon fill="midnightblue" stroke="midnightblue" points="121.79,-27.1982 112.746,-21.6792 116.374,-31.6334 121.79,-27.1982"/>
</g>
<!-- Node9 -->
<g id="node21" class="node"><title>Node9</title>
<polygon fill="white" stroke="#bfbfbf" points="191,-58.5 191,-79.5 243,-79.5 243,-58.5 191,-58.5"/>
<text text-anchor="middle" x="217" y="-66.5" font-family="Helvetica,sans-Serif" font-size="10.00">QEvent</text>
</g>
<!-- Node8&#45;&gt;Node9 -->
<g id="edge24" class="edge"><title>Node8&#45;&gt;Node9</title>
<path fill="none" stroke="midnightblue" d="M202.301,-116.362C204.661,-108.758 207.909,-98.294 210.751,-89.1349"/>
<polygon fill="midnightblue" stroke="midnightblue" points="214.098,-90.1587 213.719,-79.5707 207.413,-88.0839 214.098,-90.1587"/>
</g>
</g>
</svg>
