<?xml version="1.0" encoding="UTF-8" standalone="no"?>
<!DOCTYPE svg PUBLIC "-//W3C//DTD SVG 1.1//EN"
 "http://www.w3.org/Graphics/SVG/1.1/DTD/svg11.dtd">
<!-- Generated by graphviz version 2.26.3 (20100126.1600)
 -->
<!-- Title: LocalePreferences.cpp Pages: 1 -->
<svg width="1891pt" height="320pt"
 viewBox="0.00 0.00 1891.36 320.00" xmlns="http://www.w3.org/2000/svg" xmlns:xlink="http://www.w3.org/1999/xlink">
<g id="graph1" class="graph" transform="scale(1 1) rotate(0) translate(4 316)">
<title>LocalePreferences.cpp</title>
<polygon fill="white" stroke="white" points="-4,5 -4,-316 1888.36,-316 1888.36,5 -4,5"/>
<!-- Node1 -->
<g id="node1" class="node"><title>Node1</title>
<polygon fill="#bfbfbf" stroke="black" points="486.856,-290.5 486.856,-311.5 611.856,-311.5 611.856,-290.5 486.856,-290.5"/>
<text text-anchor="middle" x="549.356" y="-298.5" font-family="Helvetica,sans-Serif" font-size="10.00">LocalePreferences.cpp</text>
</g>
<!-- Node2 -->
<g id="node3" class="node"><title>Node2</title>
<a xlink:href="Common_8h.htm" target="_top" xlink:title="Common.h">
<polygon fill="white" stroke="black" points="493.856,-0.5 493.856,-21.5 560.856,-21.5 560.856,-0.5 493.856,-0.5"/>
<text text-anchor="middle" x="527.356" y="-8.5" font-family="Helvetica,sans-Serif" font-size="10.00">Common.h</text>
</a>
</g>
<!-- Node1&#45;&gt;Node2 -->
<g id="edge2" class="edge"><title>Node1&#45;&gt;Node2</title>
<path fill="none" stroke="midnightblue" d="M486.598,-299.388C354.189,-295.426 55.4879,-283.313 20.3558,-254 -4.06732,-233.622 1.35577,-216.808 1.35577,-185 1.35577,-185 1.35577,-185 1.35577,-127 1.35577,-95.1919 -4.02832,-78.4247 20.3558,-58 55.5131,-28.5513 366.832,-15.9619 483.48,-12.2499"/>
<polygon fill="midnightblue" stroke="midnightblue" points="483.935,-15.7375 493.821,-11.9279 483.717,-8.74088 483.935,-15.7375"/>
</g>
<!-- Node3 -->
<g id="node5" class="node"><title>Node3</title>
<polygon fill="white" stroke="#bfbfbf" points="29.3558,-232.5 29.3558,-253.5 83.3558,-253.5 83.3558,-232.5 29.3558,-232.5"/>
<text text-anchor="middle" x="56.3558" y="-240.5" font-family="Helvetica,sans-Serif" font-size="10.00">sstream</text>
</g>
<!-- Node1&#45;&gt;Node3 -->
<g id="edge4" class="edge"><title>Node1&#45;&gt;Node3</title>
<path fill="none" stroke="midnightblue" d="M486.763,-297.636C399.105,-292.213 235.06,-279.466 97.3558,-254 96.0921,-253.766 94.8103,-253.513 93.5188,-253.245"/>
<polygon fill="midnightblue" stroke="midnightblue" points="94.0965,-249.786 83.5652,-250.945 92.5207,-256.607 94.0965,-249.786"/>
</g>
<!-- Node4 -->
<g id="node7" class="node"><title>Node4</title>
<a xlink:href="LocalePreferences_8h.htm" target="_top" xlink:title="LocalePreferences.h">
<polygon fill="white" stroke="black" points="481.356,-174.5 481.356,-195.5 595.356,-195.5 595.356,-174.5 481.356,-174.5"/>
<text text-anchor="middle" x="538.356" y="-182.5" font-family="Helvetica,sans-Serif" font-size="10.00">LocalePreferences.h</text>
</a>
</g>
<!-- Node1&#45;&gt;Node4 -->
<g id="edge6" class="edge"><title>Node1&#45;&gt;Node4</title>
<path fill="none" stroke="midnightblue" d="M554.22,-290.173C559.705,-276.525 567.259,-252.385 562.356,-232 560.046,-222.396 555.425,-212.546 550.849,-204.359"/>
<polygon fill="midnightblue" stroke="midnightblue" points="553.769,-202.423 545.639,-195.628 547.758,-206.009 553.769,-202.423"/>
</g>
<!-- Node14 -->
<g id="node32" class="node"><title>Node14</title>
<a xlink:href="Settings_8h.htm" target="_top" xlink:title="Settings.h">
<polygon fill="white" stroke="black" points="1401.86,-116.5 1401.86,-137.5 1464.86,-137.5 1464.86,-116.5 1401.86,-116.5"/>
<text text-anchor="middle" x="1433.36" y="-124.5" font-family="Helvetica,sans-Serif" font-size="10.00">Settings.h</text>
</a>
</g>
<!-- Node1&#45;&gt;Node14 -->
<g id="edge36" class="edge"><title>Node1&#45;&gt;Node14</title>
<path fill="none" stroke="midnightblue" d="M602.993,-290.442C765.007,-258.553 1247.1,-163.661 1391.82,-135.175"/>
<polygon fill="midnightblue" stroke="midnightblue" points="1392.52,-138.606 1401.65,-133.24 1391.16,-131.738 1392.52,-138.606"/>
</g>
<!-- Node19 -->
<g id="node45" class="node"><title>Node19</title>
<polygon fill="white" stroke="#bfbfbf" points="407.356,-232.5 407.356,-253.5 463.356,-253.5 463.356,-232.5 407.356,-232.5"/>
<text text-anchor="middle" x="435.356" y="-240.5" font-family="Helvetica,sans-Serif" font-size="10.00">sqlite3.h</text>
</g>
<!-- Node1&#45;&gt;Node19 -->
<g id="edge52" class="edge"><title>Node1&#45;&gt;Node19</title>
<path fill="none" stroke="midnightblue" d="M528.711,-290.497C510.986,-281.479 485.211,-268.365 465.233,-258.201"/>
<polygon fill="midnightblue" stroke="midnightblue" points="466.732,-255.036 456.232,-253.621 463.558,-261.275 466.732,-255.036"/>
</g>
<!-- Node20 -->
<g id="node47" class="node"><title>Node20</title>
<polygon fill="white" stroke="#bfbfbf" points="481.356,-232.5 481.356,-253.5 553.356,-253.5 553.356,-232.5 481.356,-232.5"/>
<text text-anchor="middle" x="517.356" y="-240.5" font-family="Helvetica,sans-Serif" font-size="10.00">cjson/json.h</text>
</g>
<!-- Node1&#45;&gt;Node20 -->
<g id="edge54" class="edge"><title>Node1&#45;&gt;Node20</title>
<path fill="none" stroke="midnightblue" d="M543.486,-290.362C539.201,-282.595 533.269,-271.843 528.14,-262.546"/>
<polygon fill="midnightblue" stroke="midnightblue" points="531.083,-260.636 523.188,-253.571 524.954,-264.017 531.083,-260.636"/>
</g>
<!-- Node21 -->
<g id="node49" class="node"><title>Node21</title>
<a xlink:href="HostBase_8h.htm" target="_top" xlink:title="HostBase.h">
<polygon fill="white" stroke="black" points="651.856,-232.5 651.856,-253.5 722.856,-253.5 722.856,-232.5 651.856,-232.5"/>
<text text-anchor="middle" x="687.356" y="-240.5" font-family="Helvetica,sans-Serif" font-size="10.00">HostBase.h</text>
</a>
</g>
<!-- Node1&#45;&gt;Node21 -->
<g id="edge56" class="edge"><title>Node1&#45;&gt;Node21</title>
<path fill="none" stroke="midnightblue" d="M574.347,-290.497C596.289,-281.275 628.422,-267.769 652.819,-257.515"/>
<polygon fill="midnightblue" stroke="midnightblue" points="654.222,-260.722 662.085,-253.621 651.51,-254.269 654.222,-260.722"/>
</g>
<!-- Node37 -->
<g id="node96" class="node"><title>Node37</title>
<a xlink:href="Logging_8h.htm" target="_top" xlink:title="Logging.h">
<polygon fill="white" stroke="black" points="74.8558,-116.5 74.8558,-137.5 137.856,-137.5 137.856,-116.5 74.8558,-116.5"/>
<text text-anchor="middle" x="106.356" y="-124.5" font-family="Helvetica,sans-Serif" font-size="10.00">Logging.h</text>
</a>
</g>
<!-- Node1&#45;&gt;Node37 -->
<g id="edge118" class="edge"><title>Node1&#45;&gt;Node37</title>
<path fill="none" stroke="midnightblue" d="M486.767,-292.937C382.92,-278.351 181.359,-244.525 130.356,-196 117.12,-183.408 111.181,-163.142 108.517,-147.824"/>
<polygon fill="midnightblue" stroke="midnightblue" points="111.956,-147.141 107.099,-137.725 105.024,-148.114 111.956,-147.141"/>
</g>
<!-- Node39 -->
<g id="node103" class="node"><title>Node39</title>
<a xlink:href="MutexLocker_8h.htm" target="_top" xlink:title="MutexLocker.h">
<polygon fill="white" stroke="black" points="139.356,-174.5 139.356,-195.5 225.356,-195.5 225.356,-174.5 139.356,-174.5"/>
<text text-anchor="middle" x="182.356" y="-182.5" font-family="Helvetica,sans-Serif" font-size="10.00">MutexLocker.h</text>
</a>
</g>
<!-- Node1&#45;&gt;Node39 -->
<g id="edge128" class="edge"><title>Node1&#45;&gt;Node39</title>
<path fill="none" stroke="midnightblue" d="M515.15,-290.433C484.53,-280.954 438.418,-266.634 398.356,-254 338.098,-234.998 268.496,-212.701 224.951,-198.71"/>
<polygon fill="midnightblue" stroke="midnightblue" points="225.858,-195.325 215.266,-195.597 223.716,-201.989 225.858,-195.325"/>
</g>
<!-- Node40 -->
<g id="node107" class="node"><title>Node40</title>
<a xlink:href="JSONUtils_8h.htm" target="_top" xlink:title="JSONUtils.h">
<polygon fill="white" stroke="black" points="1396.86,-174.5 1396.86,-195.5 1469.86,-195.5 1469.86,-174.5 1396.86,-174.5"/>
<text text-anchor="middle" x="1433.36" y="-182.5" font-family="Helvetica,sans-Serif" font-size="10.00">JSONUtils.h</text>
</a>
</g>
<!-- Node1&#45;&gt;Node40 -->
<g id="edge134" class="edge"><title>Node1&#45;&gt;Node40</title>
<path fill="none" stroke="midnightblue" d="M612.056,-298.098C751.496,-291.375 1083.69,-273.783 1194.36,-254 1266.39,-241.122 1347.78,-215.062 1394.57,-198.912"/>
<polygon fill="midnightblue" stroke="midnightblue" points="1395.72,-202.218 1404.02,-195.625 1393.42,-195.607 1395.72,-202.218"/>
</g>
<!-- Node43 -->
<g id="node115" class="node"><title>Node43</title>
<polygon fill="white" stroke="#bfbfbf" points="1129.36,-232.5 1129.36,-253.5 1185.36,-253.5 1185.36,-232.5 1129.36,-232.5"/>
<text text-anchor="middle" x="1157.36" y="-240.5" font-family="Helvetica,sans-Serif" font-size="10.00">QLocale</text>
</g>
<!-- Node1&#45;&gt;Node43 -->
<g id="edge144" class="edge"><title>Node1&#45;&gt;Node43</title>
<path fill="none" stroke="midnightblue" d="M612.198,-299.333C717.126,-295.759 934.341,-284.979 1115.36,-254 1116.61,-253.785 1117.88,-253.551 1119.16,-253.301"/>
<polygon fill="midnightblue" stroke="midnightblue" points="1120.02,-256.696 1129.03,-251.129 1118.52,-249.859 1120.02,-256.696"/>
</g>
<!-- Node44 -->
<g id="node117" class="node"><title>Node44</title>
<a xlink:href="Localization_8h.htm" target="_top" xlink:title="Localization.h">
<polygon fill="white" stroke="black" points="1277.86,-174.5 1277.86,-195.5 1358.86,-195.5 1358.86,-174.5 1277.86,-174.5"/>
<text text-anchor="middle" x="1318.36" y="-182.5" font-family="Helvetica,sans-Serif" font-size="10.00">Localization.h</text>
</a>
</g>
<!-- Node1&#45;&gt;Node44 -->
<g id="edge146" class="edge"><title>Node1&#45;&gt;Node44</title>
<path fill="none" stroke="midnightblue" d="M612.171,-298.419C732.591,-292.976 991.585,-278.742 1077.36,-254 1097.98,-248.05 1100.21,-239.421 1120.36,-232 1169.1,-214.041 1227.17,-201.207 1267.77,-193.535"/>
<polygon fill="midnightblue" stroke="midnightblue" points="1268.51,-196.959 1277.7,-191.696 1267.23,-190.076 1268.51,-196.959"/>
</g>
<!-- Node4&#45;&gt;Node2 -->
<g id="edge8" class="edge"><title>Node4&#45;&gt;Node2</title>
<path fill="none" stroke="midnightblue" d="M481.164,-176.899C432.608,-168.958 367.802,-155.506 348.356,-138 321.036,-113.405 304.528,-86.8136 327.356,-58 346.459,-33.8866 430.627,-20.9297 483.5,-15.0427"/>
<polygon fill="midnightblue" stroke="midnightblue" points="484.059,-18.503 493.629,-13.9584 483.314,-11.5428 484.059,-18.503"/>
</g>
<!-- Node5 -->
<g id="node10" class="node"><title>Node5</title>
<polygon fill="white" stroke="#bfbfbf" points="1362.86,-58.5 1362.86,-79.5 1405.86,-79.5 1405.86,-58.5 1362.86,-58.5"/>
<text text-anchor="middle" x="1384.36" y="-66.5" font-family="Helvetica,sans-Serif" font-size="10.00">string</text>
</g>
<!-- Node4&#45;&gt;Node5 -->
<g id="edge10" class="edge"><title>Node4&#45;&gt;Node5</title>
<path fill="none" stroke="midnightblue" d="M595.582,-178.32C686.965,-167.492 858.345,-146.467 885.356,-138 905.84,-131.579 907.772,-122.093 928.356,-116 968.857,-104.011 1255.77,-79.585 1352.56,-71.5939"/>
<polygon fill="midnightblue" stroke="midnightblue" points="1352.94,-75.0744 1362.62,-70.766 1352.37,-68.098 1352.94,-75.0744"/>
</g>
<!-- Node6 -->
<g id="node12" class="node"><title>Node6</title>
<polygon fill="white" stroke="#bfbfbf" points="1202.36,-116.5 1202.36,-137.5 1280.36,-137.5 1280.36,-116.5 1202.36,-116.5"/>
<text text-anchor="middle" x="1241.36" y="-124.5" font-family="Helvetica,sans-Serif" font-size="10.00">lunaservice.h</text>
</g>
<!-- Node4&#45;&gt;Node6 -->
<g id="edge12" class="edge"><title>Node4&#45;&gt;Node6</title>
<path fill="none" stroke="midnightblue" d="M595.533,-178.536C610.739,-176.931 627.16,-175.3 642.356,-174 883.531,-153.375 948.755,-172.972 1191.94,-138.006"/>
<polygon fill="midnightblue" stroke="midnightblue" points="1192.77,-141.423 1202.16,-136.52 1191.76,-134.496 1192.77,-141.423"/>
</g>
<!-- Node7 -->
<g id="node14" class="node"><title>Node7</title>
<a xlink:href="Mutex_8h.htm" target="_top" xlink:title="Mutex.h">
<polygon fill="white" stroke="black" points="538.856,-116.5 538.856,-137.5 591.856,-137.5 591.856,-116.5 538.856,-116.5"/>
<text text-anchor="middle" x="565.356" y="-124.5" font-family="Helvetica,sans-Serif" font-size="10.00">Mutex.h</text>
</a>
</g>
<!-- Node4&#45;&gt;Node7 -->
<g id="edge14" class="edge"><title>Node4&#45;&gt;Node7</title>
<path fill="none" stroke="midnightblue" d="M543.308,-174.362C546.886,-166.677 551.824,-156.069 556.12,-146.84"/>
<polygon fill="midnightblue" stroke="midnightblue" points="559.388,-148.114 560.435,-137.571 553.042,-145.159 559.388,-148.114"/>
</g>
<!-- Node10 -->
<g id="node23" class="node"><title>Node10</title>
<a xlink:href="CustomEvents_8h.htm" target="_top" xlink:title="CustomEvents.h">
<polygon fill="white" stroke="black" points="357.356,-116.5 357.356,-137.5 449.356,-137.5 449.356,-116.5 357.356,-116.5"/>
<text text-anchor="middle" x="403.356" y="-124.5" font-family="Helvetica,sans-Serif" font-size="10.00">CustomEvents.h</text>
</a>
</g>
<!-- Node4&#45;&gt;Node10 -->
<g id="edge26" class="edge"><title>Node4&#45;&gt;Node10</title>
<path fill="none" stroke="midnightblue" d="M513.908,-174.497C492.538,-165.315 461.287,-151.889 437.459,-141.652"/>
<polygon fill="midnightblue" stroke="midnightblue" points="438.647,-138.353 428.078,-137.621 435.884,-144.784 438.647,-138.353"/>
</g>
<!-- Node12 -->
<g id="node28" class="node"><title>Node12</title>
<polygon fill="white" stroke="#bfbfbf" points="466.856,-116.5 466.856,-137.5 521.856,-137.5 521.856,-116.5 466.856,-116.5"/>
<text text-anchor="middle" x="494.356" y="-124.5" font-family="Helvetica,sans-Serif" font-size="10.00">QObject</text>
</g>
<!-- Node4&#45;&gt;Node12 -->
<g id="edge32" class="edge"><title>Node4&#45;&gt;Node12</title>
<path fill="none" stroke="midnightblue" d="M530.285,-174.362C524.207,-166.35 515.719,-155.161 508.519,-145.67"/>
<polygon fill="midnightblue" stroke="midnightblue" points="511.207,-143.422 502.375,-137.571 505.63,-147.653 511.207,-143.422"/>
</g>
<!-- Node13 -->
<g id="node30" class="node"><title>Node13</title>
<polygon fill="white" stroke="#bfbfbf" points="1725.36,-58.5 1725.36,-79.5 1775.36,-79.5 1775.36,-58.5 1725.36,-58.5"/>
<text text-anchor="middle" x="1750.36" y="-66.5" font-family="Helvetica,sans-Serif" font-size="10.00">QHash</text>
</g>
<!-- Node4&#45;&gt;Node13 -->
<g id="edge34" class="edge"><title>Node4&#45;&gt;Node13</title>
<path fill="none" stroke="midnightblue" d="M595.579,-178.52C698.378,-166.802 905.091,-142.847 920.356,-138 940.066,-131.742 941.426,-121.517 961.356,-116 1281.95,-27.249 1383.87,-138.029 1715.42,-79.7027"/>
<polygon fill="midnightblue" stroke="midnightblue" points="1716.07,-83.1415 1725.3,-77.9274 1714.83,-76.2519 1716.07,-83.1415"/>
</g>
<!-- Node7&#45;&gt;Node2 -->
<g id="edge16" class="edge"><title>Node7&#45;&gt;Node2</title>
<path fill="none" stroke="midnightblue" d="M547.26,-116.386C535.174,-108.167 520.27,-95.5701 513.356,-80 506.41,-64.3586 511.25,-45.1863 517.061,-31.0244"/>
<polygon fill="midnightblue" stroke="midnightblue" points="520.34,-32.2703 521.31,-21.72 513.972,-29.3626 520.34,-32.2703"/>
</g>
<!-- Node8 -->
<g id="node17" class="node"><title>Node8</title>
<a xlink:href="sptr_8h.htm" target="_top" xlink:title="sptr.h">
<polygon fill="white" stroke="black" points="592.856,-58.5 592.856,-79.5 635.856,-79.5 635.856,-58.5 592.856,-58.5"/>
<text text-anchor="middle" x="614.356" y="-66.5" font-family="Helvetica,sans-Serif" font-size="10.00">sptr.h</text>
</a>
</g>
<!-- Node7&#45;&gt;Node8 -->
<g id="edge18" class="edge"><title>Node7&#45;&gt;Node8</title>
<path fill="none" stroke="midnightblue" d="M574.343,-116.362C581.181,-108.268 590.758,-96.9318 598.828,-87.3796"/>
<polygon fill="midnightblue" stroke="midnightblue" points="601.645,-89.4683 605.425,-79.5707 596.298,-84.9508 601.645,-89.4683"/>
</g>
<!-- Node9 -->
<g id="node20" class="node"><title>Node9</title>
<polygon fill="white" stroke="#bfbfbf" points="1045.86,-0.5 1045.86,-21.5 1086.86,-21.5 1086.86,-0.5 1045.86,-0.5"/>
<text text-anchor="middle" x="1066.36" y="-8.5" font-family="Helvetica,sans-Serif" font-size="10.00">glib.h</text>
</g>
<!-- Node7&#45;&gt;Node9 -->
<g id="edge24" class="edge"><title>Node7&#45;&gt;Node9</title>
<path fill="none" stroke="midnightblue" d="M564.862,-116.432C564.776,-100.978 567.15,-72.482 584.356,-58 618.879,-28.9425 934.455,-15.5678 1035.43,-12.0071"/>
<polygon fill="midnightblue" stroke="midnightblue" points="1035.72,-15.4995 1045.59,-11.6567 1035.48,-8.50361 1035.72,-15.4995"/>
</g>
<!-- Node8&#45;&gt;Node2 -->
<g id="edge20" class="edge"><title>Node8&#45;&gt;Node2</title>
<path fill="none" stroke="midnightblue" d="M598.399,-58.3619C585.399,-49.6955 566.825,-37.3126 551.929,-27.3819"/>
<polygon fill="midnightblue" stroke="midnightblue" points="553.474,-24.2055 543.212,-21.5707 549.591,-30.0299 553.474,-24.2055"/>
</g>
<!-- Node8&#45;&gt;Node9 -->
<g id="edge22" class="edge"><title>Node8&#45;&gt;Node9</title>
<path fill="none" stroke="midnightblue" d="M636.067,-65.269C649.402,-63.0317 666.845,-60.2029 682.356,-58 813.375,-39.3918 970.184,-21.5861 1035.47,-14.3705"/>
<polygon fill="midnightblue" stroke="midnightblue" points="1035.95,-17.8393 1045.51,-13.2656 1035.18,-10.8814 1035.95,-17.8393"/>
</g>
<!-- Node10&#45;&gt;Node2 -->
<g id="edge28" class="edge"><title>Node10&#45;&gt;Node2</title>
<path fill="none" stroke="midnightblue" d="M379.824,-116.435C354.137,-103.438 318.846,-80.3413 336.356,-58 354.29,-35.118 432.862,-21.8825 483.475,-15.584"/>
<polygon fill="midnightblue" stroke="midnightblue" points="483.998,-19.0466 493.509,-14.3801 483.164,-12.0964 483.998,-19.0466"/>
</g>
<!-- Node11 -->
<g id="node26" class="node"><title>Node11</title>
<polygon fill="white" stroke="#bfbfbf" points="409.356,-58.5 409.356,-79.5 461.356,-79.5 461.356,-58.5 409.356,-58.5"/>
<text text-anchor="middle" x="435.356" y="-66.5" font-family="Helvetica,sans-Serif" font-size="10.00">QEvent</text>
</g>
<!-- Node10&#45;&gt;Node11 -->
<g id="edge30" class="edge"><title>Node10&#45;&gt;Node11</title>
<path fill="none" stroke="midnightblue" d="M409.225,-116.362C413.51,-108.595 419.443,-97.8426 424.572,-88.5458"/>
<polygon fill="midnightblue" stroke="midnightblue" points="427.757,-90.0172 429.524,-79.5707 421.628,-86.6357 427.757,-90.0172"/>
</g>
<!-- Node14&#45;&gt;Node2 -->
<g id="edge38" class="edge"><title>Node14&#45;&gt;Node2</title>
<path fill="none" stroke="midnightblue" d="M1415.42,-116.259C1384.27,-97.6969 1322.44,-61.2752 1311.36,-58 1240.41,-37.0375 726.356,-17.8405 571.43,-12.4796"/>
<polygon fill="midnightblue" stroke="midnightblue" points="571.444,-8.9781 561.329,-12.1321 571.203,-15.974 571.444,-8.9781"/>
</g>
<!-- Node14&#45;&gt;Node5 -->
<g id="edge40" class="edge"><title>Node14&#45;&gt;Node5</title>
<path fill="none" stroke="midnightblue" d="M1424.37,-116.362C1417.53,-108.268 1407.95,-96.9318 1399.88,-87.3796"/>
<polygon fill="midnightblue" stroke="midnightblue" points="1402.41,-84.9508 1393.29,-79.5707 1397.07,-89.4683 1402.41,-84.9508"/>
</g>
<!-- Node14&#45;&gt;Node9 -->
<g id="edge46" class="edge"><title>Node14&#45;&gt;Node9</title>
<path fill="none" stroke="midnightblue" d="M1433.78,-116.258C1433.75,-100.85 1431.2,-72.7164 1414.36,-58 1390.58,-37.2204 1177.32,-19.289 1096.88,-13.2075"/>
<polygon fill="midnightblue" stroke="midnightblue" points="1097.11,-9.71499 1086.88,-12.4608 1096.59,-16.6956 1097.11,-9.71499"/>
</g>
<!-- Node15 -->
<g id="node36" class="node"><title>Node15</title>
<polygon fill="white" stroke="#bfbfbf" points="1461.36,-58.5 1461.36,-79.5 1507.36,-79.5 1507.36,-58.5 1461.36,-58.5"/>
<text text-anchor="middle" x="1484.36" y="-66.5" font-family="Helvetica,sans-Serif" font-size="10.00">vector</text>
</g>
<!-- Node14&#45;&gt;Node15 -->
<g id="edge42" class="edge"><title>Node14&#45;&gt;Node15</title>
<path fill="none" stroke="midnightblue" d="M1442.71,-116.362C1449.9,-108.186 1460,-96.7025 1468.45,-87.0907"/>
<polygon fill="midnightblue" stroke="midnightblue" points="1471.09,-89.3916 1475.06,-79.5707 1465.83,-84.7692 1471.09,-89.3916"/>
</g>
<!-- Node16 -->
<g id="node38" class="node"><title>Node16</title>
<polygon fill="white" stroke="#bfbfbf" points="1524.86,-58.5 1524.86,-79.5 1555.86,-79.5 1555.86,-58.5 1524.86,-58.5"/>
<text text-anchor="middle" x="1540.36" y="-66.5" font-family="Helvetica,sans-Serif" font-size="10.00">set</text>
</g>
<!-- Node14&#45;&gt;Node16 -->
<g id="edge44" class="edge"><title>Node14&#45;&gt;Node16</title>
<path fill="none" stroke="midnightblue" d="M1452.98,-116.362C1470.63,-106.794 1496.64,-92.6957 1515.69,-82.3689"/>
<polygon fill="midnightblue" stroke="midnightblue" points="1517.56,-85.3403 1524.68,-77.4978 1514.22,-79.1863 1517.56,-85.3403"/>
</g>
<!-- Node17 -->
<g id="node41" class="node"><title>Node17</title>
<polygon fill="white" stroke="#bfbfbf" points="1573.36,-58.5 1573.36,-79.5 1631.36,-79.5 1631.36,-58.5 1573.36,-58.5"/>
<text text-anchor="middle" x="1602.36" y="-66.5" font-family="Helvetica,sans-Serif" font-size="10.00">QtGlobal</text>
</g>
<!-- Node14&#45;&gt;Node17 -->
<g id="edge48" class="edge"><title>Node14&#45;&gt;Node17</title>
<path fill="none" stroke="midnightblue" d="M1463.96,-116.497C1491.82,-106.935 1533.09,-92.7702 1563.32,-82.3974"/>
<polygon fill="midnightblue" stroke="midnightblue" points="1564.79,-85.5938 1573.11,-79.0371 1562.52,-78.9728 1564.79,-85.5938"/>
</g>
<!-- Node18 -->
<g id="node43" class="node"><title>Node18</title>
<polygon fill="white" stroke="#bfbfbf" points="1648.86,-58.5 1648.86,-79.5 1707.86,-79.5 1707.86,-58.5 1648.86,-58.5"/>
<text text-anchor="middle" x="1678.36" y="-66.5" font-family="Helvetica,sans-Serif" font-size="10.00">QVariant</text>
</g>
<!-- Node14&#45;&gt;Node18 -->
<g id="edge50" class="edge"><title>Node14&#45;&gt;Node18</title>
<path fill="none" stroke="midnightblue" d="M1465.29,-119.105C1469.68,-118.047 1474.13,-116.987 1478.36,-116 1547.1,-99.9623 1567.19,-98.3766 1638.6,-80.355"/>
<polygon fill="midnightblue" stroke="midnightblue" points="1639.71,-83.6842 1648.53,-77.8254 1637.98,-76.9005 1639.71,-83.6842"/>
</g>
<!-- Node21&#45;&gt;Node2 -->
<g id="edge58" class="edge"><title>Node21&#45;&gt;Node2</title>
<path fill="none" stroke="midnightblue" d="M651.845,-240.425C602.8,-235.946 512.242,-224.318 440.356,-196 395.383,-178.284 378.668,-175.65 348.356,-138 325.303,-109.366 304.528,-86.8136 327.356,-58 346.459,-33.8866 430.627,-20.9297 483.5,-15.0427"/>
<polygon fill="midnightblue" stroke="midnightblue" points="484.059,-18.503 493.629,-13.9584 483.314,-11.5428 484.059,-18.503"/>
</g>
<!-- Node21&#45;&gt;Node7 -->
<g id="edge104" class="edge"><title>Node21&#45;&gt;Node7</title>
<path fill="none" stroke="midnightblue" d="M676.097,-232.295C655.034,-212.268 609.49,-168.964 583.855,-144.589"/>
<polygon fill="midnightblue" stroke="midnightblue" points="586.246,-142.033 576.587,-137.679 581.423,-147.106 586.246,-142.033"/>
</g>
<!-- Node21&#45;&gt;Node10 -->
<g id="edge106" class="edge"><title>Node21&#45;&gt;Node10</title>
<path fill="none" stroke="midnightblue" d="M651.727,-241.322C607.251,-237.904 530.019,-227.524 472.356,-196 449.655,-183.589 429.483,-161.43 416.901,-145.57"/>
<polygon fill="midnightblue" stroke="midnightblue" points="419.585,-143.318 410.725,-137.509 414.029,-147.576 419.585,-143.318"/>
</g>
<!-- Node22 -->
<g id="node52" class="node"><title>Node22</title>
<a xlink:href="TaskBase_8h.htm" target="_top" xlink:title="TaskBase.h">
<polygon fill="white" stroke="black" points="651.356,-174.5 651.356,-195.5 723.356,-195.5 723.356,-174.5 651.356,-174.5"/>
<text text-anchor="middle" x="687.356" y="-182.5" font-family="Helvetica,sans-Serif" font-size="10.00">TaskBase.h</text>
</a>
</g>
<!-- Node21&#45;&gt;Node22 -->
<g id="edge60" class="edge"><title>Node21&#45;&gt;Node22</title>
<path fill="none" stroke="midnightblue" d="M687.356,-232.362C687.356,-224.922 687.356,-214.743 687.356,-205.728"/>
<polygon fill="midnightblue" stroke="midnightblue" points="690.856,-205.571 687.356,-195.571 683.856,-205.571 690.856,-205.571"/>
</g>
<!-- Node32 -->
<g id="node86" class="node"><title>Node32</title>
<a xlink:href="InputControl_8h.htm" target="_top" xlink:title="InputControl.h">
<polygon fill="white" stroke="black" points="952.856,-174.5 952.856,-195.5 1035.86,-195.5 1035.86,-174.5 952.856,-174.5"/>
<text text-anchor="middle" x="994.356" y="-182.5" font-family="Helvetica,sans-Serif" font-size="10.00">InputControl.h</text>
</a>
</g>
<!-- Node21&#45;&gt;Node32 -->
<g id="edge108" class="edge"><title>Node21&#45;&gt;Node32</title>
<path fill="none" stroke="midnightblue" d="M723.188,-236.863C771.03,-228.578 858.651,-213.087 942.676,-196.295"/>
<polygon fill="midnightblue" stroke="midnightblue" points="943.522,-199.695 952.637,-194.295 942.144,-192.832 943.522,-199.695"/>
</g>
<!-- Node34 -->
<g id="node90" class="node"><title>Node34</title>
<a xlink:href="LedControl_8h.htm" target="_top" xlink:title="LedControl.h">
<polygon fill="white" stroke="black" points="812.856,-174.5 812.856,-195.5 889.856,-195.5 889.856,-174.5 812.856,-174.5"/>
<text text-anchor="middle" x="851.356" y="-182.5" font-family="Helvetica,sans-Serif" font-size="10.00">LedControl.h</text>
</a>
</g>
<!-- Node21&#45;&gt;Node34 -->
<g id="edge112" class="edge"><title>Node21&#45;&gt;Node34</title>
<path fill="none" stroke="midnightblue" d="M717.055,-232.497C743.676,-223.082 782.918,-209.204 812.117,-198.877"/>
<polygon fill="midnightblue" stroke="midnightblue" points="813.34,-202.157 821.601,-195.523 811.006,-195.558 813.34,-202.157"/>
</g>
<!-- Node35 -->
<g id="node92" class="node"><title>Node35</title>
<polygon fill="white" stroke="#bfbfbf" points="906.856,-174.5 906.856,-195.5 935.856,-195.5 935.856,-174.5 906.856,-174.5"/>
<text text-anchor="middle" x="921.356" y="-182.5" font-family="Helvetica,sans-Serif" font-size="10.00">Qt</text>
</g>
<!-- Node21&#45;&gt;Node35 -->
<g id="edge114" class="edge"><title>Node21&#45;&gt;Node35</title>
<path fill="none" stroke="midnightblue" d="M723.129,-237.581C763.661,-230.889 831.653,-217.994 896.869,-196.027"/>
<polygon fill="midnightblue" stroke="midnightblue" points="898.153,-199.287 906.468,-192.72 895.873,-192.669 898.153,-199.287"/>
</g>
<!-- Node36 -->
<g id="node94" class="node"><title>Node36</title>
<polygon fill="white" stroke="#bfbfbf" points="741.356,-174.5 741.356,-195.5 795.356,-195.5 795.356,-174.5 741.356,-174.5"/>
<text text-anchor="middle" x="768.356" y="-182.5" font-family="Helvetica,sans-Serif" font-size="10.00">QImage</text>
</g>
<!-- Node21&#45;&gt;Node36 -->
<g id="edge116" class="edge"><title>Node21&#45;&gt;Node36</title>
<path fill="none" stroke="midnightblue" d="M702.212,-232.362C714.201,-223.777 731.283,-211.546 745.084,-201.664"/>
<polygon fill="midnightblue" stroke="midnightblue" points="747.5,-204.238 753.593,-195.571 743.425,-198.547 747.5,-204.238"/>
</g>
<!-- Node22&#45;&gt;Node2 -->
<g id="edge62" class="edge"><title>Node22&#45;&gt;Node2</title>
<path fill="none" stroke="midnightblue" d="M676.183,-174.288C666.381,-164.836 651.79,-150.635 639.356,-138 614.438,-112.68 607.904,-106.599 584.356,-80 569.685,-63.4292 553.694,-43.9374 542.393,-29.9051"/>
<polygon fill="midnightblue" stroke="midnightblue" points="545.002,-27.5632 536.017,-21.9484 539.539,-31.9406 545.002,-27.5632"/>
</g>
<!-- Node22&#45;&gt;Node7 -->
<g id="edge94" class="edge"><title>Node22&#45;&gt;Node7</title>
<path fill="none" stroke="midnightblue" d="M665.262,-174.497C646.122,-165.397 618.21,-152.127 596.75,-141.925"/>
<polygon fill="midnightblue" stroke="midnightblue" points="598.231,-138.754 587.697,-137.621 595.226,-145.076 598.231,-138.754"/>
</g>
<!-- Node22&#45;&gt;Node8 -->
<g id="edge68" class="edge"><title>Node22&#45;&gt;Node8</title>
<path fill="none" stroke="midnightblue" d="M680.619,-174.295C668.288,-154.7 641.932,-112.82 626.433,-88.1913"/>
<polygon fill="midnightblue" stroke="midnightblue" points="629.365,-86.2786 621.076,-79.6792 623.44,-90.007 629.365,-86.2786"/>
</g>
<!-- Node22&#45;&gt;Node9 -->
<g id="edge64" class="edge"><title>Node22&#45;&gt;Node9</title>
<path fill="none" stroke="midnightblue" d="M723.623,-175.725C726.568,-175.097 729.506,-174.512 732.356,-174 868.876,-149.485 910.014,-179.526 1042.36,-138 1062.09,-131.809 1064.12,-123.587 1083.36,-116 1141.52,-93.0618 1181.22,-129.548 1219.36,-80 1253.35,-35.8395 1151.16,-19.1511 1097.29,-13.5343"/>
<polygon fill="midnightblue" stroke="midnightblue" points="1097.51,-10.039 1087.22,-12.5536 1096.83,-17.0061 1097.51,-10.039"/>
</g>
<!-- Node23 -->
<g id="node56" class="node"><title>Node23</title>
<polygon fill="white" stroke="#bfbfbf" points="969.856,-116.5 969.856,-137.5 998.856,-137.5 998.856,-116.5 969.856,-116.5"/>
<text text-anchor="middle" x="984.356" y="-124.5" font-family="Helvetica,sans-Serif" font-size="10.00">list</text>
</g>
<!-- Node22&#45;&gt;Node23 -->
<g id="edge66" class="edge"><title>Node22&#45;&gt;Node23</title>
<path fill="none" stroke="midnightblue" d="M723.649,-175.863C726.588,-175.204 729.518,-174.574 732.356,-174 831.188,-154.012 859.091,-164.588 956.356,-138 957.603,-137.659 958.87,-137.281 960.143,-136.877"/>
<polygon fill="midnightblue" stroke="midnightblue" points="961.509,-140.105 969.735,-133.428 959.14,-133.518 961.509,-140.105"/>
</g>
<!-- Node24 -->
<g id="node59" class="node"><title>Node24</title>
<a xlink:href="AsyncCaller_8h.htm" target="_top" xlink:title="AsyncCaller.h">
<polygon fill="white" stroke="black" points="1112.86,-58.5 1112.86,-79.5 1193.86,-79.5 1193.86,-58.5 1112.86,-58.5"/>
<text text-anchor="middle" x="1153.36" y="-66.5" font-family="Helvetica,sans-Serif" font-size="10.00">AsyncCaller.h</text>
</a>
</g>
<!-- Node22&#45;&gt;Node24 -->
<g id="edge70" class="edge"><title>Node22&#45;&gt;Node24</title>
<path fill="none" stroke="midnightblue" d="M723.631,-175.771C726.574,-175.133 729.51,-174.532 732.356,-174 853.518,-151.331 889.652,-174.608 1007.36,-138 1027.85,-131.624 1031.03,-125.347 1050.36,-116 1073.57,-104.77 1100.05,-92.7039 1120.35,-83.6094"/>
<polygon fill="midnightblue" stroke="midnightblue" points="1121.78,-86.8011 1129.49,-79.5273 1118.93,-80.4096 1121.78,-86.8011"/>
</g>
<!-- Node25 -->
<g id="node63" class="node"><title>Node25</title>
<a xlink:href="Event_8h.htm" target="_top" xlink:title="Event.h">
<polygon fill="white" stroke="black" points="690.356,-116.5 690.356,-137.5 742.356,-137.5 742.356,-116.5 690.356,-116.5"/>
<text text-anchor="middle" x="716.356" y="-124.5" font-family="Helvetica,sans-Serif" font-size="10.00">Event.h</text>
</a>
</g>
<!-- Node22&#45;&gt;Node25 -->
<g id="edge76" class="edge"><title>Node22&#45;&gt;Node25</title>
<path fill="none" stroke="midnightblue" d="M692.675,-174.362C696.558,-166.595 701.934,-155.843 706.583,-146.546"/>
<polygon fill="midnightblue" stroke="midnightblue" points="709.729,-148.08 711.07,-137.571 703.468,-144.95 709.729,-148.08"/>
</g>
<!-- Node31 -->
<g id="node79" class="node"><title>Node31</title>
<a xlink:href="SingletonTimer_8h.htm" target="_top" xlink:title="SingletonTimer.h">
<polygon fill="white" stroke="black" points="780.356,-116.5 780.356,-137.5 876.356,-137.5 876.356,-116.5 780.356,-116.5"/>
<text text-anchor="middle" x="828.356" y="-124.5" font-family="Helvetica,sans-Serif" font-size="10.00">SingletonTimer.h</text>
</a>
</g>
<!-- Node22&#45;&gt;Node31 -->
<g id="edge96" class="edge"><title>Node22&#45;&gt;Node31</title>
<path fill="none" stroke="midnightblue" d="M712.89,-174.497C735.309,-165.275 768.14,-151.769 793.069,-141.515"/>
<polygon fill="midnightblue" stroke="midnightblue" points="794.619,-144.662 802.535,-137.621 791.956,-138.189 794.619,-144.662"/>
</g>
<!-- Node24&#45;&gt;Node2 -->
<g id="edge72" class="edge"><title>Node24&#45;&gt;Node2</title>
<path fill="none" stroke="midnightblue" d="M1112.76,-60.1906C1108.25,-59.3732 1103.71,-58.6205 1099.36,-58 903.49,-30.1047 667.356,-17.2073 571.246,-12.8238"/>
<polygon fill="midnightblue" stroke="midnightblue" points="571.184,-9.31756 561.037,-12.3663 570.87,-16.3105 571.184,-9.31756"/>
</g>
<!-- Node24&#45;&gt;Node9 -->
<g id="edge74" class="edge"><title>Node24&#45;&gt;Node9</title>
<path fill="none" stroke="midnightblue" d="M1137.4,-58.3619C1124.4,-49.6955 1105.82,-37.3126 1090.93,-27.3819"/>
<polygon fill="midnightblue" stroke="midnightblue" points="1092.47,-24.2055 1082.21,-21.5707 1088.59,-30.0299 1092.47,-24.2055"/>
</g>
<!-- Node25&#45;&gt;Node2 -->
<g id="edge78" class="edge"><title>Node25&#45;&gt;Node2</title>
<path fill="none" stroke="midnightblue" d="M707.588,-116.34C694.944,-101.541 670.25,-74.7093 644.356,-58 621.583,-43.3049 593.47,-31.8304 570.51,-23.8986"/>
<polygon fill="midnightblue" stroke="midnightblue" points="571.61,-20.5759 561.016,-20.717 569.385,-27.2131 571.61,-20.5759"/>
</g>
<!-- Node25&#45;&gt;Node8 -->
<g id="edge92" class="edge"><title>Node25&#45;&gt;Node8</title>
<path fill="none" stroke="midnightblue" d="M697.647,-116.362C681.975,-107.45 659.392,-94.6087 641.693,-84.5447"/>
<polygon fill="midnightblue" stroke="midnightblue" points="643.369,-81.4712 632.946,-79.5707 639.908,-87.5562 643.369,-81.4712"/>
</g>
<!-- Node25&#45;&gt;Node9 -->
<g id="edge82" class="edge"><title>Node25&#45;&gt;Node9</title>
<path fill="none" stroke="midnightblue" d="M742.366,-121.747C751.525,-119.911 761.894,-117.847 771.356,-116 855.281,-99.6149 881.029,-111.926 960.356,-80 969.087,-76.4861 1013.67,-46.7316 1042.16,-27.4597"/>
<polygon fill="midnightblue" stroke="midnightblue" points="1044.47,-30.1249 1050.78,-21.6174 1040.54,-24.3302 1044.47,-30.1249"/>
</g>
<!-- Node26 -->
<g id="node66" class="node"><title>Node26</title>
<polygon fill="white" stroke="#bfbfbf" points="1007.36,-58.5 1007.36,-79.5 1057.36,-79.5 1057.36,-58.5 1007.36,-58.5"/>
<text text-anchor="middle" x="1032.36" y="-66.5" font-family="Helvetica,sans-Serif" font-size="10.00">stdint.h</text>
</g>
<!-- Node25&#45;&gt;Node26 -->
<g id="edge80" class="edge"><title>Node25&#45;&gt;Node26</title>
<path fill="none" stroke="midnightblue" d="M742.616,-121.544C751.705,-119.71 761.965,-117.7 771.356,-116 869.713,-98.1956 895.762,-101.602 993.356,-80 994.631,-79.7178 995.926,-79.4186 997.232,-79.1066"/>
<polygon fill="midnightblue" stroke="midnightblue" points="998.472,-82.4018 1007.29,-76.5253 996.731,-75.6216 998.472,-82.4018"/>
</g>
<!-- Node27 -->
<g id="node69" class="node"><title>Node27</title>
<polygon fill="white" stroke="#bfbfbf" points="344.856,-58.5 344.856,-79.5 391.856,-79.5 391.856,-58.5 344.856,-58.5"/>
<text text-anchor="middle" x="368.356" y="-66.5" font-family="Helvetica,sans-Serif" font-size="10.00">stdio.h</text>
</g>
<!-- Node25&#45;&gt;Node27 -->
<g id="edge84" class="edge"><title>Node25&#45;&gt;Node27</title>
<path fill="none" stroke="midnightblue" d="M690.239,-124.751C637.296,-119.846 513.512,-106.619 401.72,-80.0206"/>
<polygon fill="midnightblue" stroke="midnightblue" points="402.52,-76.6135 391.977,-77.6608 400.872,-83.4167 402.52,-76.6135"/>
</g>
<!-- Node28 -->
<g id="node71" class="node"><title>Node28</title>
<polygon fill="white" stroke="#bfbfbf" points="690.856,-58.5 690.856,-79.5 741.856,-79.5 741.856,-58.5 690.856,-58.5"/>
<text text-anchor="middle" x="716.356" y="-66.5" font-family="Helvetica,sans-Serif" font-size="10.00">string.h</text>
</g>
<!-- Node25&#45;&gt;Node28 -->
<g id="edge86" class="edge"><title>Node25&#45;&gt;Node28</title>
<path fill="none" stroke="midnightblue" d="M716.356,-116.362C716.356,-108.922 716.356,-98.7427 716.356,-89.7276"/>
<polygon fill="midnightblue" stroke="midnightblue" points="719.856,-89.5706 716.356,-79.5707 712.856,-89.5707 719.856,-89.5706"/>
</g>
<!-- Node29 -->
<g id="node73" class="node"><title>Node29</title>
<polygon fill="white" stroke="#bfbfbf" points="759.356,-58.5 759.356,-79.5 845.356,-79.5 845.356,-58.5 759.356,-58.5"/>
<text text-anchor="middle" x="802.356" y="-66.5" font-family="Helvetica,sans-Serif" font-size="10.00">qnamespace.h</text>
</g>
<!-- Node25&#45;&gt;Node29 -->
<g id="edge88" class="edge"><title>Node25&#45;&gt;Node29</title>
<path fill="none" stroke="midnightblue" d="M732.129,-116.362C744.98,-107.696 763.341,-95.3126 778.065,-85.3819"/>
<polygon fill="midnightblue" stroke="midnightblue" points="780.348,-88.0639 786.682,-79.5707 776.434,-82.2604 780.348,-88.0639"/>
</g>
<!-- Node30 -->
<g id="node75" class="node"><title>Node30</title>
<polygon fill="white" stroke="#bfbfbf" points="863.356,-58.5 863.356,-79.5 951.356,-79.5 951.356,-58.5 863.356,-58.5"/>
<text text-anchor="middle" x="907.356" y="-66.5" font-family="Helvetica,sans-Serif" font-size="10.00">SysMgrEvent.h</text>
</g>
<!-- Node25&#45;&gt;Node30 -->
<g id="edge90" class="edge"><title>Node25&#45;&gt;Node30</title>
<path fill="none" stroke="midnightblue" d="M742.513,-119.057C773.463,-109.659 825.494,-93.8585 862.827,-82.522"/>
<polygon fill="midnightblue" stroke="midnightblue" points="863.906,-85.8522 872.457,-79.5975 861.872,-79.1542 863.906,-85.8522"/>
</g>
<!-- Node31&#45;&gt;Node2 -->
<g id="edge98" class="edge"><title>Node31&#45;&gt;Node2</title>
<path fill="none" stroke="midnightblue" d="M876.606,-118.261C945.283,-105.713 1063.33,-83.686 1066.36,-80 1072.56,-72.446 1072.96,-65.208 1066.36,-58 1033.13,-21.7511 693.639,-13.3568 571.136,-11.5018"/>
<polygon fill="midnightblue" stroke="midnightblue" points="571.04,-8.00013 560.991,-11.3557 570.939,-14.9994 571.04,-8.00013"/>
</g>
<!-- Node31&#45;&gt;Node9 -->
<g id="edge100" class="edge"><title>Node31&#45;&gt;Node9</title>
<path fill="none" stroke="midnightblue" d="M876.373,-118.184C881.091,-117.407 885.813,-116.664 890.356,-116 959.414,-105.899 1155.92,-132.103 1202.36,-80 1235.49,-42.8177 1146.49,-23.0222 1096.96,-15.1385"/>
<polygon fill="midnightblue" stroke="midnightblue" points="1097.46,-11.6744 1087.05,-13.635 1096.41,-18.5952 1097.46,-11.6744"/>
</g>
<!-- Node31&#45;&gt;Node26 -->
<g id="edge102" class="edge"><title>Node31&#45;&gt;Node26</title>
<path fill="none" stroke="midnightblue" d="M865.299,-116.497C902.871,-105.814 960.657,-89.385 997.47,-78.9184"/>
<polygon fill="midnightblue" stroke="midnightblue" points="998.602,-82.2356 1007.26,-76.1342 996.687,-75.5024 998.602,-82.2356"/>
</g>
<!-- Node33 -->
<g id="node88" class="node"><title>Node33</title>
<polygon fill="white" stroke="#bfbfbf" points="1092.36,-116.5 1092.36,-137.5 1184.36,-137.5 1184.36,-116.5 1092.36,-116.5"/>
<text text-anchor="middle" x="1138.36" y="-124.5" font-family="Helvetica,sans-Serif" font-size="10.00">nyx/nyx_client.h</text>
</g>
<!-- Node32&#45;&gt;Node33 -->
<g id="edge110" class="edge"><title>Node32&#45;&gt;Node33</title>
<path fill="none" stroke="midnightblue" d="M1020.43,-174.497C1043.43,-165.234 1077.16,-151.65 1102.66,-141.379"/>
<polygon fill="midnightblue" stroke="midnightblue" points="1104.02,-144.604 1111.99,-137.621 1101.4,-138.111 1104.02,-144.604"/>
</g>
<!-- Node37&#45;&gt;Node2 -->
<g id="edge120" class="edge"><title>Node37&#45;&gt;Node2</title>
<path fill="none" stroke="midnightblue" d="M109.929,-116.495C115.851,-100.851 129.284,-71.7959 151.356,-58 205.9,-23.9079 396.51,-14.4753 483.486,-11.9215"/>
<polygon fill="midnightblue" stroke="midnightblue" points="483.664,-15.418 493.563,-11.643 483.47,-8.42072 483.664,-15.418"/>
</g>
<!-- Node37&#45;&gt;Node9 -->
<g id="edge124" class="edge"><title>Node37&#45;&gt;Node9</title>
<path fill="none" stroke="midnightblue" d="M134.18,-116.402C176.934,-100.636 261.679,-71.425 336.356,-58 474.068,-33.2426 915.55,-16.2835 1035.84,-12.0402"/>
<polygon fill="midnightblue" stroke="midnightblue" points="1035.96,-15.5381 1045.84,-11.6909 1035.72,-8.54234 1035.96,-15.5381"/>
</g>
<!-- Node37&#45;&gt;Node27 -->
<g id="edge122" class="edge"><title>Node37&#45;&gt;Node27</title>
<path fill="none" stroke="midnightblue" d="M137.959,-120.004C187.745,-108.983 283.995,-87.6752 334.904,-76.4053"/>
<polygon fill="midnightblue" stroke="midnightblue" points="335.744,-79.8043 344.751,-74.2256 334.231,-72.9698 335.744,-79.8043"/>
</g>
<!-- Node38 -->
<g id="node101" class="node"><title>Node38</title>
<polygon fill="white" stroke="#bfbfbf" points="28.8558,-58.5 28.8558,-79.5 99.8558,-79.5 99.8558,-58.5 28.8558,-58.5"/>
<text text-anchor="middle" x="64.3558" y="-66.5" font-family="Helvetica,sans-Serif" font-size="10.00">PmLogLib.h</text>
</g>
<!-- Node37&#45;&gt;Node38 -->
<g id="edge126" class="edge"><title>Node37&#45;&gt;Node38</title>
<path fill="none" stroke="midnightblue" d="M98.6523,-116.362C92.9095,-108.431 84.913,-97.3885 78.0859,-87.9606"/>
<polygon fill="midnightblue" stroke="midnightblue" points="80.7103,-85.6173 72.0104,-79.5707 75.0407,-89.7229 80.7103,-85.6173"/>
</g>
<!-- Node39&#45;&gt;Node2 -->
<g id="edge130" class="edge"><title>Node39&#45;&gt;Node2</title>
<path fill="none" stroke="midnightblue" d="M189.78,-174.469C207.748,-149.833 256.255,-88.2464 312.356,-58 366.801,-28.6459 438.366,-17.6221 483.625,-13.4841"/>
<polygon fill="midnightblue" stroke="midnightblue" points="484.03,-16.9625 493.702,-12.6371 483.444,-9.98709 484.03,-16.9625"/>
</g>
<!-- Node39&#45;&gt;Node7 -->
<g id="edge132" class="edge"><title>Node39&#45;&gt;Node7</title>
<path fill="none" stroke="midnightblue" d="M225.359,-181.566C289.625,-175.917 414.575,-162.942 528.774,-138.086"/>
<polygon fill="midnightblue" stroke="midnightblue" points="529.723,-141.461 538.73,-135.882 528.21,-134.626 529.723,-141.461"/>
</g>
<!-- Node40&#45;&gt;Node6 -->
<g id="edge138" class="edge"><title>Node40&#45;&gt;Node6</title>
<path fill="none" stroke="midnightblue" d="M1398.59,-174.497C1367.01,-164.959 1320.28,-150.841 1285.96,-140.475"/>
<polygon fill="midnightblue" stroke="midnightblue" points="1286.78,-137.064 1276.19,-137.523 1284.75,-143.765 1286.78,-137.064"/>
</g>
<!-- Node40&#45;&gt;Node14 -->
<g id="edge136" class="edge"><title>Node40&#45;&gt;Node14</title>
<path fill="none" stroke="midnightblue" d="M1433.36,-174.362C1433.36,-166.922 1433.36,-156.743 1433.36,-147.728"/>
<polygon fill="midnightblue" stroke="midnightblue" points="1436.86,-147.571 1433.36,-137.571 1429.86,-147.571 1436.86,-147.571"/>
</g>
<!-- Node41 -->
<g id="node111" class="node"><title>Node41</title>
<polygon fill="white" stroke="#bfbfbf" points="1686.36,-116.5 1686.36,-137.5 1748.36,-137.5 1748.36,-116.5 1686.36,-116.5"/>
<text text-anchor="middle" x="1717.36" y="-124.5" font-family="Helvetica,sans-Serif" font-size="10.00">pbnjson.h</text>
</g>
<!-- Node40&#45;&gt;Node41 -->
<g id="edge140" class="edge"><title>Node40&#45;&gt;Node41</title>
<path fill="none" stroke="midnightblue" d="M1469.92,-178.875C1515.84,-170.982 1597.23,-156.329 1675.9,-138.222"/>
<polygon fill="midnightblue" stroke="midnightblue" points="1677.02,-141.553 1685.97,-135.88 1675.44,-134.735 1677.02,-141.553"/>
</g>
<!-- Node42 -->
<g id="node113" class="node"><title>Node42</title>
<polygon fill="white" stroke="#bfbfbf" points="1594.36,-116.5 1594.36,-137.5 1668.36,-137.5 1668.36,-116.5 1594.36,-116.5"/>
<text text-anchor="middle" x="1631.36" y="-124.5" font-family="Helvetica,sans-Serif" font-size="10.00">pbnjson.hpp</text>
</g>
<!-- Node40&#45;&gt;Node42 -->
<g id="edge142" class="edge"><title>Node40&#45;&gt;Node42</title>
<path fill="none" stroke="midnightblue" d="M1469.21,-174.497C1501.91,-164.918 1550.38,-150.72 1585.81,-140.342"/>
<polygon fill="midnightblue" stroke="midnightblue" points="1586.82,-143.693 1595.43,-137.523 1584.85,-136.975 1586.82,-143.693"/>
</g>
<!-- Node44&#45;&gt;Node2 -->
<g id="edge148" class="edge"><title>Node44&#45;&gt;Node2</title>
<path fill="none" stroke="midnightblue" d="M1315.9,-174.163C1312.16,-159.634 1303.92,-133.633 1289.36,-116 1259.76,-80.1689 1246.34,-73.0043 1202.36,-58 1142.89,-37.7155 711.45,-18.5118 571.241,-12.7475"/>
<polygon fill="midnightblue" stroke="midnightblue" points="571.022,-9.23575 560.887,-12.3246 570.736,-16.2299 571.022,-9.23575"/>
</g>
<!-- Node44&#45;&gt;Node13 -->
<g id="edge160" class="edge"><title>Node44&#45;&gt;Node13</title>
<path fill="none" stroke="midnightblue" d="M1359.08,-175.397C1390.89,-167.249 1435.83,-154.294 1473.36,-138 1491.26,-130.228 1493.02,-122.679 1511.36,-116 1595.3,-85.4217 1624.57,-101.122 1715.34,-79.9533"/>
<polygon fill="midnightblue" stroke="midnightblue" points="1716.32,-83.318 1725.22,-77.5637 1714.67,-76.5144 1716.32,-83.318"/>
</g>
<!-- Node45 -->
<g id="node120" class="node"><title>Node45</title>
<a xlink:href="QtUtils_8h.htm" target="_top" xlink:title="QtUtils.h">
<polygon fill="white" stroke="black" points="1520.36,-116.5 1520.36,-137.5 1576.36,-137.5 1576.36,-116.5 1520.36,-116.5"/>
<text text-anchor="middle" x="1548.36" y="-124.5" font-family="Helvetica,sans-Serif" font-size="10.00">QtUtils.h</text>
</a>
</g>
<!-- Node44&#45;&gt;Node45 -->
<g id="edge150" class="edge"><title>Node44&#45;&gt;Node45</title>
<path fill="none" stroke="midnightblue" d="M1359.1,-174.954C1397.2,-165.526 1455.67,-150.972 1506.36,-138 1507.77,-137.638 1509.21,-137.268 1510.67,-136.892"/>
<polygon fill="midnightblue" stroke="midnightblue" points="1511.55,-140.279 1520.35,-134.381 1509.79,-133.503 1511.55,-140.279"/>
</g>
<!-- Node45&#45;&gt;Node2 -->
<g id="edge152" class="edge"><title>Node45&#45;&gt;Node2</title>
<path fill="none" stroke="midnightblue" d="M1576.55,-118.27C1579.51,-117.457 1582.49,-116.684 1585.36,-116 1674.97,-94.6416 1848.27,-124.348 1784.36,-58 1762.86,-35.6831 790.871,-15.9843 571.173,-11.812"/>
<polygon fill="midnightblue" stroke="midnightblue" points="571.056,-8.30922 560.992,-11.6195 570.924,-15.308 571.056,-8.30922"/>
</g>
<!-- Node45&#45;&gt;Node5 -->
<g id="edge154" class="edge"><title>Node45&#45;&gt;Node5</title>
<path fill="none" stroke="midnightblue" d="M1520.16,-117.029C1491.04,-106.728 1445.69,-90.6918 1415.52,-80.0203"/>
<polygon fill="midnightblue" stroke="midnightblue" points="1416.51,-76.6576 1405.91,-76.623 1414.17,-83.257 1416.51,-76.6576"/>
</g>
<!-- Node45&#45;&gt;Node13 -->
<g id="edge158" class="edge"><title>Node45&#45;&gt;Node13</title>
<path fill="none" stroke="midnightblue" d="M1576.62,-118.531C1579.57,-117.668 1582.52,-116.811 1585.36,-116 1640.46,-100.239 1656.86,-97.548 1715.38,-80.2083"/>
<polygon fill="midnightblue" stroke="midnightblue" points="1716.56,-83.5078 1725.14,-77.2953 1714.56,-76.7998 1716.56,-83.5078"/>
</g>
<!-- Node46 -->
<g id="node124" class="node"><title>Node46</title>
<polygon fill="white" stroke="#bfbfbf" points="1830.86,-58.5 1830.86,-79.5 1883.86,-79.5 1883.86,-58.5 1830.86,-58.5"/>
<text text-anchor="middle" x="1857.36" y="-66.5" font-family="Helvetica,sans-Serif" font-size="10.00">QString</text>
</g>
<!-- Node45&#45;&gt;Node46 -->
<g id="edge156" class="edge"><title>Node45&#45;&gt;Node46</title>
<path fill="none" stroke="midnightblue" d="M1576.53,-118.196C1579.5,-117.398 1582.48,-116.648 1585.36,-116 1687.15,-93.0802 1715.33,-101.87 1817.36,-80 1818.45,-79.766 1819.55,-79.5201 1820.67,-79.2644"/>
<polygon fill="midnightblue" stroke="midnightblue" points="1821.91,-82.5622 1830.78,-76.7645 1820.23,-75.7668 1821.91,-82.5622"/>
</g>
</g>
</svg>
