<?xml version="1.0" encoding="UTF-8" standalone="no"?>
<!DOCTYPE svg PUBLIC "-//W3C//DTD SVG 1.1//EN"
 "http://www.w3.org/Graphics/SVG/1.1/DTD/svg11.dtd">
<!-- Generated by graphviz version 2.26.3 (20100126.1600)
 -->
<!-- Title: Localization.cpp Pages: 1 -->
<svg width="921pt" height="262pt"
 viewBox="0.00 0.00 921.32 262.00" xmlns="http://www.w3.org/2000/svg" xmlns:xlink="http://www.w3.org/1999/xlink">
<g id="graph1" class="graph" transform="scale(1 1) rotate(0) translate(4 258)">
<title>Localization.cpp</title>
<polygon fill="white" stroke="white" points="-4,5 -4,-258 918.321,-258 918.321,5 -4,5"/>
<!-- Node1 -->
<g id="node1" class="node"><title>Node1</title>
<polygon fill="#bfbfbf" stroke="black" points="293.321,-232.5 293.321,-253.5 385.321,-253.5 385.321,-232.5 293.321,-232.5"/>
<text text-anchor="middle" x="339.321" y="-240.5" font-family="Helvetica,sans-Serif" font-size="10.00">Localization.cpp</text>
</g>
<!-- Node2 -->
<g id="node3" class="node"><title>Node2</title>
<a xlink:href="Common_8h.htm" target="_top" xlink:title="Common.h">
<polygon fill="white" stroke="black" points="274.821,-0.5 274.821,-21.5 341.821,-21.5 341.821,-0.5 274.821,-0.5"/>
<text text-anchor="middle" x="308.321" y="-8.5" font-family="Helvetica,sans-Serif" font-size="10.00">Common.h</text>
</a>
</g>
<!-- Node1&#45;&gt;Node2 -->
<g id="edge2" class="edge"><title>Node1&#45;&gt;Node2</title>
<path fill="none" stroke="midnightblue" d="M293.28,-241.476C219.293,-238.108 78.4581,-227.62 41.3211,-196 0.0141461,-160.83 11.8724,-133.573 3.32106,-80 1.77985,-70.3445 -3.04464,-65.4218 3.32106,-58 20.0953,-38.4429 183.873,-21.7393 264.26,-14.6434"/>
<polygon fill="midnightblue" stroke="midnightblue" points="264.904,-18.1007 274.563,-13.7464 264.297,-11.1271 264.904,-18.1007"/>
</g>
<!-- Node3 -->
<g id="node5" class="node"><title>Node3</title>
<polygon fill="white" stroke="#bfbfbf" points="50.3211,-174.5 50.3211,-195.5 124.321,-195.5 124.321,-174.5 50.3211,-174.5"/>
<text text-anchor="middle" x="87.3211" y="-182.5" font-family="Helvetica,sans-Serif" font-size="10.00">pbnjson.hpp</text>
</g>
<!-- Node1&#45;&gt;Node3 -->
<g id="edge4" class="edge"><title>Node1&#45;&gt;Node3</title>
<path fill="none" stroke="midnightblue" d="M293.064,-232.591C253.495,-223.654 194.753,-210.31 134.537,-196.269"/>
<polygon fill="midnightblue" stroke="midnightblue" points="135.004,-192.784 124.47,-193.919 133.412,-199.601 135.004,-192.784"/>
</g>
<!-- Node4 -->
<g id="node7" class="node"><title>Node4</title>
<a xlink:href="Localization_8h.htm" target="_top" xlink:title="Localization.h">
<polygon fill="white" stroke="black" points="141.821,-174.5 141.821,-195.5 222.821,-195.5 222.821,-174.5 141.821,-174.5"/>
<text text-anchor="middle" x="182.321" y="-182.5" font-family="Helvetica,sans-Serif" font-size="10.00">Localization.h</text>
</a>
</g>
<!-- Node1&#45;&gt;Node4 -->
<g id="edge6" class="edge"><title>Node1&#45;&gt;Node4</title>
<path fill="none" stroke="midnightblue" d="M310.89,-232.497C285.516,-223.123 248.164,-209.324 220.251,-199.012"/>
<polygon fill="midnightblue" stroke="midnightblue" points="221.399,-195.705 210.806,-195.523 218.973,-202.272 221.399,-195.705"/>
</g>
<!-- Node9 -->
<g id="node20" class="node"><title>Node9</title>
<a xlink:href="LocalePreferences_8h.htm" target="_top" xlink:title="LocalePreferences.h">
<polygon fill="white" stroke="black" points="240.321,-174.5 240.321,-195.5 354.321,-195.5 354.321,-174.5 240.321,-174.5"/>
<text text-anchor="middle" x="297.321" y="-182.5" font-family="Helvetica,sans-Serif" font-size="10.00">LocalePreferences.h</text>
</a>
</g>
<!-- Node1&#45;&gt;Node9 -->
<g id="edge22" class="edge"><title>Node1&#45;&gt;Node9</title>
<path fill="none" stroke="midnightblue" d="M331.618,-232.362C325.875,-224.431 317.878,-213.389 311.051,-203.961"/>
<polygon fill="midnightblue" stroke="midnightblue" points="313.676,-201.617 304.976,-195.571 308.006,-205.723 313.676,-201.617"/>
</g>
<!-- Node17 -->
<g id="node43" class="node"><title>Node17</title>
<a xlink:href="Settings_8h.htm" target="_top" xlink:title="Settings.h">
<polygon fill="white" stroke="black" points="672.821,-116.5 672.821,-137.5 735.821,-137.5 735.821,-116.5 672.821,-116.5"/>
<text text-anchor="middle" x="704.321" y="-124.5" font-family="Helvetica,sans-Serif" font-size="10.00">Settings.h</text>
</a>
</g>
<!-- Node1&#45;&gt;Node17 -->
<g id="edge52" class="edge"><title>Node1&#45;&gt;Node17</title>
<path fill="none" stroke="midnightblue" d="M345.376,-232.478C355.012,-216.811 375.424,-187.727 401.321,-174 502.711,-120.257 546.338,-159.418 662.559,-138.094"/>
<polygon fill="midnightblue" stroke="midnightblue" points="663.391,-141.498 672.536,-136.149 662.051,-134.628 663.391,-141.498"/>
</g>
<!-- Node22 -->
<g id="node56" class="node"><title>Node22</title>
<polygon fill="white" stroke="#bfbfbf" points="410.321,-174.5 410.321,-195.5 466.321,-195.5 466.321,-174.5 410.321,-174.5"/>
<text text-anchor="middle" x="438.321" y="-182.5" font-family="Helvetica,sans-Serif" font-size="10.00">QVector</text>
</g>
<!-- Node1&#45;&gt;Node22 -->
<g id="edge68" class="edge"><title>Node1&#45;&gt;Node22</title>
<path fill="none" stroke="midnightblue" d="M357.479,-232.362C372.551,-223.532 394.208,-210.844 411.314,-200.822"/>
<polygon fill="midnightblue" stroke="midnightblue" points="413.419,-203.646 420.278,-195.571 409.88,-197.606 413.419,-203.646"/>
</g>
<!-- Node23 -->
<g id="node58" class="node"><title>Node23</title>
<polygon fill="white" stroke="#bfbfbf" points="483.821,-174.5 483.821,-195.5 538.821,-195.5 538.821,-174.5 483.821,-174.5"/>
<text text-anchor="middle" x="511.321" y="-182.5" font-family="Helvetica,sans-Serif" font-size="10.00">QDebug</text>
</g>
<!-- Node1&#45;&gt;Node23 -->
<g id="edge70" class="edge"><title>Node1&#45;&gt;Node23</title>
<path fill="none" stroke="midnightblue" d="M370.469,-232.497C399.645,-222.658 443.278,-207.945 474.238,-197.505"/>
<polygon fill="midnightblue" stroke="midnightblue" points="475.453,-200.789 483.81,-194.277 473.216,-194.156 475.453,-200.789"/>
</g>
<!-- Node24 -->
<g id="node60" class="node"><title>Node24</title>
<polygon fill="white" stroke="#bfbfbf" points="555.821,-174.5 555.821,-195.5 596.821,-195.5 596.821,-174.5 555.821,-174.5"/>
<text text-anchor="middle" x="576.321" y="-182.5" font-family="Helvetica,sans-Serif" font-size="10.00">QFile</text>
</g>
<!-- Node1&#45;&gt;Node24 -->
<g id="edge72" class="edge"><title>Node1&#45;&gt;Node24</title>
<path fill="none" stroke="midnightblue" d="M385.656,-234.469C425.973,-226.613 486.064,-213.865 545.929,-196.168"/>
<polygon fill="midnightblue" stroke="midnightblue" points="546.961,-199.513 555.532,-193.285 544.948,-192.808 546.961,-199.513"/>
</g>
<!-- Node4&#45;&gt;Node2 -->
<g id="edge8" class="edge"><title>Node4&#45;&gt;Node2</title>
<path fill="none" stroke="midnightblue" d="M189.509,-174.321C204.397,-152.299 239.846,-100.356 271.321,-58 278.382,-48.4978 286.492,-38.1382 293.316,-29.5692"/>
<polygon fill="midnightblue" stroke="midnightblue" points="296.103,-31.6876 299.625,-21.6951 290.641,-27.3107 296.103,-31.6876"/>
</g>
<!-- Node5 -->
<g id="node10" class="node"><title>Node5</title>
<a xlink:href="QtUtils_8h.htm" target="_top" xlink:title="QtUtils.h">
<polygon fill="white" stroke="black" points="61.3211,-116.5 61.3211,-137.5 117.321,-137.5 117.321,-116.5 61.3211,-116.5"/>
<text text-anchor="middle" x="89.3211" y="-124.5" font-family="Helvetica,sans-Serif" font-size="10.00">QtUtils.h</text>
</a>
</g>
<!-- Node4&#45;&gt;Node5 -->
<g id="edge10" class="edge"><title>Node4&#45;&gt;Node5</title>
<path fill="none" stroke="midnightblue" d="M165.263,-174.362C151.236,-165.614 131.137,-153.079 115.139,-143.101"/>
<polygon fill="midnightblue" stroke="midnightblue" points="116.608,-139.893 106.271,-137.571 112.904,-145.832 116.608,-139.893"/>
</g>
<!-- Node8 -->
<g id="node17" class="node"><title>Node8</title>
<polygon fill="white" stroke="#bfbfbf" points="120.321,-58.5 120.321,-79.5 170.321,-79.5 170.321,-58.5 120.321,-58.5"/>
<text text-anchor="middle" x="145.321" y="-66.5" font-family="Helvetica,sans-Serif" font-size="10.00">QHash</text>
</g>
<!-- Node4&#45;&gt;Node8 -->
<g id="edge20" class="edge"><title>Node4&#45;&gt;Node8</title>
<path fill="none" stroke="midnightblue" d="M178.907,-174.295C172.766,-155.045 159.767,-114.289 151.863,-89.5091"/>
<polygon fill="midnightblue" stroke="midnightblue" points="155.101,-88.1427 148.727,-79.6792 148.432,-90.2699 155.101,-88.1427"/>
</g>
<!-- Node5&#45;&gt;Node2 -->
<g id="edge12" class="edge"><title>Node5&#45;&gt;Node2</title>
<path fill="none" stroke="midnightblue" d="M89.6008,-116.438C90.5956,-101.254 94.7333,-73.3966 111.321,-58 133.321,-37.5796 213.604,-23.4915 264.641,-16.3724"/>
<polygon fill="midnightblue" stroke="midnightblue" points="265.306,-19.8142 274.744,-15.0004 264.364,-12.8779 265.306,-19.8142"/>
</g>
<!-- Node6 -->
<g id="node13" class="node"><title>Node6</title>
<polygon fill="white" stroke="#bfbfbf" points="286.821,-58.5 286.821,-79.5 329.821,-79.5 329.821,-58.5 286.821,-58.5"/>
<text text-anchor="middle" x="308.321" y="-66.5" font-family="Helvetica,sans-Serif" font-size="10.00">string</text>
</g>
<!-- Node5&#45;&gt;Node6 -->
<g id="edge14" class="edge"><title>Node5&#45;&gt;Node6</title>
<path fill="none" stroke="midnightblue" d="M117.503,-119.536C158.379,-108.711 233.888,-88.7128 276.642,-77.3899"/>
<polygon fill="midnightblue" stroke="midnightblue" points="277.741,-80.7196 286.512,-74.776 275.949,-73.9529 277.741,-80.7196"/>
</g>
<!-- Node7 -->
<g id="node15" class="node"><title>Node7</title>
<polygon fill="white" stroke="#bfbfbf" points="11.8211,-58.5 11.8211,-79.5 64.8211,-79.5 64.8211,-58.5 11.8211,-58.5"/>
<text text-anchor="middle" x="38.3211" y="-66.5" font-family="Helvetica,sans-Serif" font-size="10.00">QString</text>
</g>
<!-- Node5&#45;&gt;Node7 -->
<g id="edge16" class="edge"><title>Node5&#45;&gt;Node7</title>
<path fill="none" stroke="midnightblue" d="M79.9669,-116.362C72.7778,-108.186 62.6802,-96.7025 54.2284,-87.0907"/>
<polygon fill="midnightblue" stroke="midnightblue" points="56.8477,-84.7692 47.6159,-79.5707 51.5909,-89.3916 56.8477,-84.7692"/>
</g>
<!-- Node5&#45;&gt;Node8 -->
<g id="edge18" class="edge"><title>Node5&#45;&gt;Node8</title>
<path fill="none" stroke="midnightblue" d="M99.5923,-116.362C107.565,-108.104 118.796,-96.4725 128.132,-86.8029"/>
<polygon fill="midnightblue" stroke="midnightblue" points="130.687,-89.1958 135.115,-79.5707 125.651,-84.3336 130.687,-89.1958"/>
</g>
<!-- Node9&#45;&gt;Node2 -->
<g id="edge24" class="edge"><title>Node9&#45;&gt;Node2</title>
<path fill="none" stroke="midnightblue" d="M292.661,-174.254C283.718,-152.107 266.075,-99.9452 278.321,-58 281.27,-47.9004 287.122,-37.9047 292.881,-29.7452"/>
<polygon fill="midnightblue" stroke="midnightblue" points="295.726,-31.7858 298.952,-21.694 290.137,-27.5714 295.726,-31.7858"/>
</g>
<!-- Node9&#45;&gt;Node6 -->
<g id="edge26" class="edge"><title>Node9&#45;&gt;Node6</title>
<path fill="none" stroke="midnightblue" d="M298.336,-174.295C300.153,-155.131 303.992,-114.654 306.345,-89.8434"/>
<polygon fill="midnightblue" stroke="midnightblue" points="309.849,-89.965 307.308,-79.6792 302.88,-89.3041 309.849,-89.965"/>
</g>
<!-- Node9&#45;&gt;Node8 -->
<g id="edge50" class="edge"><title>Node9&#45;&gt;Node8</title>
<path fill="none" stroke="midnightblue" d="M283.294,-174.295C256.826,-154.096 199.328,-110.216 167.549,-85.9632"/>
<polygon fill="midnightblue" stroke="midnightblue" points="169.387,-82.9636 159.315,-79.6792 165.141,-88.5283 169.387,-82.9636"/>
</g>
<!-- Node10 -->
<g id="node24" class="node"><title>Node10</title>
<polygon fill="white" stroke="#bfbfbf" points="325.321,-116.5 325.321,-137.5 403.321,-137.5 403.321,-116.5 325.321,-116.5"/>
<text text-anchor="middle" x="364.321" y="-124.5" font-family="Helvetica,sans-Serif" font-size="10.00">lunaservice.h</text>
</g>
<!-- Node9&#45;&gt;Node10 -->
<g id="edge28" class="edge"><title>Node9&#45;&gt;Node10</title>
<path fill="none" stroke="midnightblue" d="M309.61,-174.362C319.338,-165.941 333.119,-154.011 344.417,-144.231"/>
<polygon fill="midnightblue" stroke="midnightblue" points="346.84,-146.762 352.11,-137.571 342.259,-141.469 346.84,-146.762"/>
</g>
<!-- Node11 -->
<g id="node26" class="node"><title>Node11</title>
<a xlink:href="Mutex_8h.htm" target="_top" xlink:title="Mutex.h">
<polygon fill="white" stroke="black" points="530.821,-116.5 530.821,-137.5 583.821,-137.5 583.821,-116.5 530.821,-116.5"/>
<text text-anchor="middle" x="557.321" y="-124.5" font-family="Helvetica,sans-Serif" font-size="10.00">Mutex.h</text>
</a>
</g>
<!-- Node9&#45;&gt;Node11 -->
<g id="edge30" class="edge"><title>Node9&#45;&gt;Node11</title>
<path fill="none" stroke="midnightblue" d="M354.553,-174.66C397.924,-166.457 459.151,-154.094 520.758,-138.253"/>
<polygon fill="midnightblue" stroke="midnightblue" points="521.85,-141.586 530.647,-135.681 520.088,-134.811 521.85,-141.586"/>
</g>
<!-- Node14 -->
<g id="node35" class="node"><title>Node14</title>
<a xlink:href="CustomEvents_8h.htm" target="_top" xlink:title="CustomEvents.h">
<polygon fill="white" stroke="black" points="421.321,-116.5 421.321,-137.5 513.321,-137.5 513.321,-116.5 421.321,-116.5"/>
<text text-anchor="middle" x="467.321" y="-124.5" font-family="Helvetica,sans-Serif" font-size="10.00">CustomEvents.h</text>
</a>
</g>
<!-- Node9&#45;&gt;Node14 -->
<g id="edge42" class="edge"><title>Node9&#45;&gt;Node14</title>
<path fill="none" stroke="midnightblue" d="M328.107,-174.497C355.701,-165.082 396.379,-151.204 426.646,-140.877"/>
<polygon fill="midnightblue" stroke="midnightblue" points="428.143,-144.065 436.478,-137.523 425.883,-137.44 428.143,-144.065"/>
</g>
<!-- Node16 -->
<g id="node40" class="node"><title>Node16</title>
<polygon fill="white" stroke="#bfbfbf" points="600.821,-116.5 600.821,-137.5 655.821,-137.5 655.821,-116.5 600.821,-116.5"/>
<text text-anchor="middle" x="628.321" y="-124.5" font-family="Helvetica,sans-Serif" font-size="10.00">QObject</text>
</g>
<!-- Node9&#45;&gt;Node16 -->
<g id="edge48" class="edge"><title>Node9&#45;&gt;Node16</title>
<path fill="none" stroke="midnightblue" d="M354.477,-176.102C428.43,-164.563 551.713,-145.225 590.62,-137.928"/>
<polygon fill="midnightblue" stroke="midnightblue" points="591.416,-141.338 600.516,-135.912 590.019,-134.478 591.416,-141.338"/>
</g>
<!-- Node11&#45;&gt;Node2 -->
<g id="edge32" class="edge"><title>Node11&#45;&gt;Node2</title>
<path fill="none" stroke="midnightblue" d="M540.483,-116.238C511.895,-98.0107 456.011,-62.5881 446.321,-58 415.761,-43.5304 379.516,-31.3633 351.841,-23.0361"/>
<polygon fill="midnightblue" stroke="midnightblue" points="352.641,-19.623 342.059,-20.1448 350.656,-26.3359 352.641,-19.623"/>
</g>
<!-- Node12 -->
<g id="node29" class="node"><title>Node12</title>
<a xlink:href="sptr_8h.htm" target="_top" xlink:title="sptr.h">
<polygon fill="white" stroke="black" points="492.821,-58.5 492.821,-79.5 535.821,-79.5 535.821,-58.5 492.821,-58.5"/>
<text text-anchor="middle" x="514.321" y="-66.5" font-family="Helvetica,sans-Serif" font-size="10.00">sptr.h</text>
</a>
</g>
<!-- Node11&#45;&gt;Node12 -->
<g id="edge34" class="edge"><title>Node11&#45;&gt;Node12</title>
<path fill="none" stroke="midnightblue" d="M549.434,-116.362C543.494,-108.35 535.199,-97.1605 528.162,-87.6696"/>
<polygon fill="midnightblue" stroke="midnightblue" points="530.925,-85.5193 522.158,-79.5707 525.302,-89.6883 530.925,-85.5193"/>
</g>
<!-- Node13 -->
<g id="node32" class="node"><title>Node13</title>
<polygon fill="white" stroke="#bfbfbf" points="542.821,-0.5 542.821,-21.5 583.821,-21.5 583.821,-0.5 542.821,-0.5"/>
<text text-anchor="middle" x="563.321" y="-8.5" font-family="Helvetica,sans-Serif" font-size="10.00">glib.h</text>
</g>
<!-- Node11&#45;&gt;Node13 -->
<g id="edge40" class="edge"><title>Node11&#45;&gt;Node13</title>
<path fill="none" stroke="midnightblue" d="M557.875,-116.295C558.866,-97.1314 560.96,-56.654 562.243,-31.8434"/>
<polygon fill="midnightblue" stroke="midnightblue" points="565.747,-31.8467 562.769,-21.6792 558.757,-31.485 565.747,-31.8467"/>
</g>
<!-- Node12&#45;&gt;Node2 -->
<g id="edge36" class="edge"><title>Node12&#45;&gt;Node2</title>
<path fill="none" stroke="midnightblue" d="M492.514,-62.0121C488.153,-60.6526 483.598,-59.2594 479.321,-58 436.042,-45.256 386.282,-31.7021 351.64,-22.441"/>
<polygon fill="midnightblue" stroke="midnightblue" points="352.409,-19.0236 341.844,-19.8288 350.605,-25.7872 352.409,-19.0236"/>
</g>
<!-- Node12&#45;&gt;Node13 -->
<g id="edge38" class="edge"><title>Node12&#45;&gt;Node13</title>
<path fill="none" stroke="midnightblue" d="M523.308,-58.3619C530.147,-50.2678 539.723,-38.9318 547.793,-29.3796"/>
<polygon fill="midnightblue" stroke="midnightblue" points="550.611,-31.4683 554.391,-21.5707 545.264,-26.9508 550.611,-31.4683"/>
</g>
<!-- Node14&#45;&gt;Node2 -->
<g id="edge44" class="edge"><title>Node14&#45;&gt;Node2</title>
<path fill="none" stroke="midnightblue" d="M441.751,-116.425C422.791,-107.976 396.796,-95.0773 376.321,-80 356.396,-65.3276 336.913,-44.73 323.946,-29.8638"/>
<polygon fill="midnightblue" stroke="midnightblue" points="326.266,-27.1912 317.109,-21.8612 320.944,-31.738 326.266,-27.1912"/>
</g>
<!-- Node15 -->
<g id="node38" class="node"><title>Node15</title>
<polygon fill="white" stroke="#bfbfbf" points="385.321,-58.5 385.321,-79.5 437.321,-79.5 437.321,-58.5 385.321,-58.5"/>
<text text-anchor="middle" x="411.321" y="-66.5" font-family="Helvetica,sans-Serif" font-size="10.00">QEvent</text>
</g>
<!-- Node14&#45;&gt;Node15 -->
<g id="edge46" class="edge"><title>Node14&#45;&gt;Node15</title>
<path fill="none" stroke="midnightblue" d="M457.05,-116.362C449.077,-108.104 437.846,-96.4725 428.51,-86.8029"/>
<polygon fill="midnightblue" stroke="midnightblue" points="430.991,-84.3336 421.527,-79.5707 425.955,-89.1958 430.991,-84.3336"/>
</g>
<!-- Node17&#45;&gt;Node2 -->
<g id="edge54" class="edge"><title>Node17&#45;&gt;Node2</title>
<path fill="none" stroke="midnightblue" d="M683.635,-116.397C653.647,-101.419 596.021,-74.0986 544.321,-58 478.732,-37.5766 400.033,-23.9989 352.126,-16.8988"/>
<polygon fill="midnightblue" stroke="midnightblue" points="352.495,-13.4157 342.096,-15.4403 351.488,-20.3428 352.495,-13.4157"/>
</g>
<!-- Node17&#45;&gt;Node6 -->
<g id="edge56" class="edge"><title>Node17&#45;&gt;Node6</title>
<path fill="none" stroke="midnightblue" d="M672.543,-117.817C669.774,-117.152 667.005,-116.534 664.321,-116 537.804,-90.8327 504.012,-98.3026 376.321,-80 364.448,-78.2982 351.44,-76.2414 340.01,-74.369"/>
<polygon fill="midnightblue" stroke="midnightblue" points="340.471,-70.8978 330.034,-72.7168 339.328,-77.8037 340.471,-70.8978"/>
</g>
<!-- Node17&#45;&gt;Node13 -->
<g id="edge62" class="edge"><title>Node17&#45;&gt;Node13</title>
<path fill="none" stroke="midnightblue" d="M691.309,-116.295C666.861,-96.1819 613.875,-52.5904 584.319,-28.2752"/>
<polygon fill="midnightblue" stroke="midnightblue" points="586.248,-25.3296 576.302,-21.6792 581.801,-30.7353 586.248,-25.3296"/>
</g>
<!-- Node18 -->
<g id="node47" class="node"><title>Node18</title>
<polygon fill="white" stroke="#bfbfbf" points="667.321,-58.5 667.321,-79.5 713.321,-79.5 713.321,-58.5 667.321,-58.5"/>
<text text-anchor="middle" x="690.321" y="-66.5" font-family="Helvetica,sans-Serif" font-size="10.00">vector</text>
</g>
<!-- Node17&#45;&gt;Node18 -->
<g id="edge58" class="edge"><title>Node17&#45;&gt;Node18</title>
<path fill="none" stroke="midnightblue" d="M701.753,-116.362C699.938,-108.84 697.446,-98.5187 695.253,-89.4308"/>
<polygon fill="midnightblue" stroke="midnightblue" points="698.621,-88.4702 692.873,-79.5707 691.817,-90.1127 698.621,-88.4702"/>
</g>
<!-- Node19 -->
<g id="node49" class="node"><title>Node19</title>
<polygon fill="white" stroke="#bfbfbf" points="730.821,-58.5 730.821,-79.5 761.821,-79.5 761.821,-58.5 730.821,-58.5"/>
<text text-anchor="middle" x="746.321" y="-66.5" font-family="Helvetica,sans-Serif" font-size="10.00">set</text>
</g>
<!-- Node17&#45;&gt;Node19 -->
<g id="edge60" class="edge"><title>Node17&#45;&gt;Node19</title>
<path fill="none" stroke="midnightblue" d="M712.025,-116.362C717.767,-108.431 725.764,-97.3885 732.591,-87.9606"/>
<polygon fill="midnightblue" stroke="midnightblue" points="735.636,-89.7229 738.666,-79.5707 729.967,-85.6173 735.636,-89.7229"/>
</g>
<!-- Node20 -->
<g id="node52" class="node"><title>Node20</title>
<polygon fill="white" stroke="#bfbfbf" points="779.321,-58.5 779.321,-79.5 837.321,-79.5 837.321,-58.5 779.321,-58.5"/>
<text text-anchor="middle" x="808.321" y="-66.5" font-family="Helvetica,sans-Serif" font-size="10.00">QtGlobal</text>
</g>
<!-- Node17&#45;&gt;Node20 -->
<g id="edge64" class="edge"><title>Node17&#45;&gt;Node20</title>
<path fill="none" stroke="midnightblue" d="M723.396,-116.362C739.376,-107.45 762.402,-94.6087 780.448,-84.5447"/>
<polygon fill="midnightblue" stroke="midnightblue" points="782.338,-87.4982 789.367,-79.5707 778.928,-81.3846 782.338,-87.4982"/>
</g>
<!-- Node21 -->
<g id="node54" class="node"><title>Node21</title>
<polygon fill="white" stroke="#bfbfbf" points="854.821,-58.5 854.821,-79.5 913.821,-79.5 913.821,-58.5 854.821,-58.5"/>
<text text-anchor="middle" x="884.321" y="-66.5" font-family="Helvetica,sans-Serif" font-size="10.00">QVariant</text>
</g>
<!-- Node17&#45;&gt;Node21 -->
<g id="edge66" class="edge"><title>Node17&#45;&gt;Node21</title>
<path fill="none" stroke="midnightblue" d="M736.087,-116.764C766.453,-106.98 812.32,-92.2004 844.983,-81.6757"/>
<polygon fill="midnightblue" stroke="midnightblue" points="846.219,-84.9545 854.664,-78.5562 844.072,-78.2919 846.219,-84.9545"/>
</g>
</g>
</svg>
