<?xml version="1.0" encoding="UTF-8" standalone="no"?>
<!DOCTYPE svg PUBLIC "-//W3C//DTD SVG 1.1//EN"
 "http://www.w3.org/Graphics/SVG/1.1/DTD/svg11.dtd">
<!-- Generated by graphviz version 2.26.3 (20100126.1600)
 -->
<!-- Title: Logging.cpp Pages: 1 -->
<svg width="983pt" height="262pt"
 viewBox="0.00 0.00 983.00 262.00" xmlns="http://www.w3.org/2000/svg" xmlns:xlink="http://www.w3.org/1999/xlink">
<g id="graph1" class="graph" transform="scale(1 1) rotate(0) translate(4 258)">
<title>Logging.cpp</title>
<polygon fill="white" stroke="white" points="-4,5 -4,-258 980,-258 980,5 -4,5"/>
<!-- Node1 -->
<g id="node1" class="node"><title>Node1</title>
<polygon fill="#bfbfbf" stroke="black" points="478,-232.5 478,-253.5 552,-253.5 552,-232.5 478,-232.5"/>
<text text-anchor="middle" x="515" y="-240.5" font-family="Helvetica,sans-Serif" font-size="10.00">Logging.cpp</text>
</g>
<!-- Node2 -->
<g id="node3" class="node"><title>Node2</title>
<a xlink:href="Common_8h.htm" target="_top" xlink:title="Common.h">
<polygon fill="white" stroke="black" points="175.5,-0.5 175.5,-21.5 242.5,-21.5 242.5,-0.5 175.5,-0.5"/>
<text text-anchor="middle" x="209" y="-8.5" font-family="Helvetica,sans-Serif" font-size="10.00">Common.h</text>
</a>
</g>
<!-- Node1&#45;&gt;Node2 -->
<g id="edge2" class="edge"><title>Node1&#45;&gt;Node2</title>
<path fill="none" stroke="midnightblue" d="M477.725,-239.671C401.917,-232.539 235.443,-214.888 218,-196 176.104,-150.633 192.001,-69.2225 202.56,-31.3764"/>
<polygon fill="midnightblue" stroke="midnightblue" points="205.995,-32.1006 205.469,-21.5188 199.281,-30.1187 205.995,-32.1006"/>
</g>
<!-- Node3 -->
<g id="node5" class="node"><title>Node3</title>
<polygon fill="white" stroke="#bfbfbf" points="263.5,-0.5 263.5,-21.5 304.5,-21.5 304.5,-0.5 263.5,-0.5"/>
<text text-anchor="middle" x="284" y="-8.5" font-family="Helvetica,sans-Serif" font-size="10.00">glib.h</text>
</g>
<!-- Node1&#45;&gt;Node3 -->
<g id="edge4" class="edge"><title>Node1&#45;&gt;Node3</title>
<path fill="none" stroke="midnightblue" d="M477.755,-233.979C453.83,-226.753 423.192,-214.68 401,-196 345.53,-149.31 352.838,-119.225 314,-58 308.212,-48.8754 301.767,-38.7722 296.34,-30.2786"/>
<polygon fill="midnightblue" stroke="midnightblue" points="299.264,-28.3553 290.928,-21.8163 293.367,-32.1266 299.264,-28.3553"/>
</g>
<!-- Node4 -->
<g id="node7" class="node"><title>Node4</title>
<polygon fill="white" stroke="#bfbfbf" points="422.5,-174.5 422.5,-195.5 471.5,-195.5 471.5,-174.5 422.5,-174.5"/>
<text text-anchor="middle" x="447" y="-182.5" font-family="Helvetica,sans-Serif" font-size="10.00">stdlib.h</text>
</g>
<!-- Node1&#45;&gt;Node4 -->
<g id="edge6" class="edge"><title>Node1&#45;&gt;Node4</title>
<path fill="none" stroke="midnightblue" d="M502.528,-232.362C492.655,-223.941 478.667,-212.011 467.202,-202.231"/>
<polygon fill="midnightblue" stroke="midnightblue" points="469.273,-199.397 459.393,-195.571 464.73,-204.723 469.273,-199.397"/>
</g>
<!-- Node5 -->
<g id="node9" class="node"><title>Node5</title>
<polygon fill="white" stroke="#bfbfbf" points="488.5,-174.5 488.5,-195.5 541.5,-195.5 541.5,-174.5 488.5,-174.5"/>
<text text-anchor="middle" x="515" y="-182.5" font-family="Helvetica,sans-Serif" font-size="10.00">unistd.h</text>
</g>
<!-- Node1&#45;&gt;Node5 -->
<g id="edge8" class="edge"><title>Node1&#45;&gt;Node5</title>
<path fill="none" stroke="midnightblue" d="M515,-232.362C515,-224.922 515,-214.743 515,-205.728"/>
<polygon fill="midnightblue" stroke="midnightblue" points="518.5,-205.571 515,-195.571 511.5,-205.571 518.5,-205.571"/>
</g>
<!-- Node6 -->
<g id="node11" class="node"><title>Node6</title>
<polygon fill="white" stroke="#bfbfbf" points="559,-174.5 559,-195.5 603,-195.5 603,-174.5 559,-174.5"/>
<text text-anchor="middle" x="581" y="-182.5" font-family="Helvetica,sans-Serif" font-size="10.00">time.h</text>
</g>
<!-- Node1&#45;&gt;Node6 -->
<g id="edge10" class="edge"><title>Node1&#45;&gt;Node6</title>
<path fill="none" stroke="midnightblue" d="M527.105,-232.362C536.688,-223.941 550.264,-212.011 561.393,-202.231"/>
<polygon fill="midnightblue" stroke="midnightblue" points="563.77,-204.801 568.971,-195.571 559.149,-199.543 563.77,-204.801"/>
</g>
<!-- Node7 -->
<g id="node13" class="node"><title>Node7</title>
<polygon fill="white" stroke="#bfbfbf" points="621,-174.5 621,-195.5 669,-195.5 669,-174.5 621,-174.5"/>
<text text-anchor="middle" x="645" y="-182.5" font-family="Helvetica,sans-Serif" font-size="10.00">cstring</text>
</g>
<!-- Node1&#45;&gt;Node7 -->
<g id="edge12" class="edge"><title>Node1&#45;&gt;Node7</title>
<path fill="none" stroke="midnightblue" d="M538.542,-232.497C559.029,-223.356 588.947,-210.008 611.854,-199.788"/>
<polygon fill="midnightblue" stroke="midnightblue" points="613.488,-202.892 621.194,-195.621 610.635,-196.499 613.488,-202.892"/>
</g>
<!-- Node8 -->
<g id="node15" class="node"><title>Node8</title>
<polygon fill="white" stroke="#bfbfbf" points="686.5,-174.5 686.5,-195.5 723.5,-195.5 723.5,-174.5 686.5,-174.5"/>
<text text-anchor="middle" x="705" y="-182.5" font-family="Helvetica,sans-Serif" font-size="10.00">map</text>
</g>
<!-- Node1&#45;&gt;Node8 -->
<g id="edge14" class="edge"><title>Node1&#45;&gt;Node8</title>
<path fill="none" stroke="midnightblue" d="M552.251,-233.467C583.44,-225.218 629.253,-212.482 676.706,-196.245"/>
<polygon fill="midnightblue" stroke="midnightblue" points="677.911,-199.531 686.214,-192.951 675.62,-192.917 677.911,-199.531"/>
</g>
<!-- Node9 -->
<g id="node17" class="node"><title>Node9</title>
<polygon fill="white" stroke="#bfbfbf" points="741,-174.5 741,-195.5 791,-195.5 791,-174.5 741,-174.5"/>
<text text-anchor="middle" x="766" y="-182.5" font-family="Helvetica,sans-Serif" font-size="10.00">errno.h</text>
</g>
<!-- Node1&#45;&gt;Node9 -->
<g id="edge16" class="edge"><title>Node1&#45;&gt;Node9</title>
<path fill="none" stroke="midnightblue" d="M552.13,-236.127C593.52,-228.21 662.607,-214.232 730.784,-196.149"/>
<polygon fill="midnightblue" stroke="midnightblue" points="732.082,-199.424 740.832,-193.451 730.267,-192.663 732.082,-199.424"/>
</g>
<!-- Node10 -->
<g id="node19" class="node"><title>Node10</title>
<polygon fill="white" stroke="#bfbfbf" points="809,-174.5 809,-195.5 873,-195.5 873,-174.5 809,-174.5"/>
<text text-anchor="middle" x="841" y="-182.5" font-family="Helvetica,sans-Serif" font-size="10.00">sys/prctl.h</text>
</g>
<!-- Node1&#45;&gt;Node10 -->
<g id="edge18" class="edge"><title>Node1&#45;&gt;Node10</title>
<path fill="none" stroke="midnightblue" d="M552.113,-238.073C604.848,-230.811 704.648,-216.112 798.865,-196.094"/>
<polygon fill="midnightblue" stroke="midnightblue" points="799.803,-199.472 808.844,-193.949 798.332,-192.628 799.803,-199.472"/>
</g>
<!-- Node11 -->
<g id="node21" class="node"><title>Node11</title>
<polygon fill="white" stroke="#bfbfbf" points="890.5,-174.5 890.5,-195.5 975.5,-195.5 975.5,-174.5 890.5,-174.5"/>
<text text-anchor="middle" x="933" y="-182.5" font-family="Helvetica,sans-Serif" font-size="10.00">sys/resource.h</text>
</g>
<!-- Node1&#45;&gt;Node11 -->
<g id="edge20" class="edge"><title>Node1&#45;&gt;Node11</title>
<path fill="none" stroke="midnightblue" d="M552.141,-239.3C616.822,-232.627 754.515,-217.413 880.286,-196.192"/>
<polygon fill="midnightblue" stroke="midnightblue" points="881.206,-199.586 890.476,-194.455 880.03,-192.685 881.206,-199.586"/>
</g>
<!-- Node12 -->
<g id="node23" class="node"><title>Node12</title>
<a xlink:href="Logging_8h.htm" target="_top" xlink:title="Logging.h">
<polygon fill="white" stroke="black" points="54.5,-58.5 54.5,-79.5 117.5,-79.5 117.5,-58.5 54.5,-58.5"/>
<text text-anchor="middle" x="86" y="-66.5" font-family="Helvetica,sans-Serif" font-size="10.00">Logging.h</text>
</a>
</g>
<!-- Node1&#45;&gt;Node12 -->
<g id="edge22" class="edge"><title>Node1&#45;&gt;Node12</title>
<path fill="none" stroke="midnightblue" d="M477.883,-240.668C386.818,-234.636 157.786,-217.485 131,-196 98.4603,-169.899 89.4186,-118.536 86.9274,-89.7707"/>
<polygon fill="midnightblue" stroke="midnightblue" points="90.408,-89.3634 86.242,-79.622 83.4239,-89.8352 90.408,-89.3634"/>
</g>
<!-- Node15 -->
<g id="node31" class="node"><title>Node15</title>
<a xlink:href="MutexLocker_8h.htm" target="_top" xlink:title="MutexLocker.h">
<polygon fill="white" stroke="black" points="227,-174.5 227,-195.5 313,-195.5 313,-174.5 227,-174.5"/>
<text text-anchor="middle" x="270" y="-182.5" font-family="Helvetica,sans-Serif" font-size="10.00">MutexLocker.h</text>
</a>
</g>
<!-- Node1&#45;&gt;Node15 -->
<g id="edge32" class="edge"><title>Node1&#45;&gt;Node15</title>
<path fill="none" stroke="midnightblue" d="M477.79,-234.191C436.635,-224.448 369.983,-208.669 323.293,-197.616"/>
<polygon fill="midnightblue" stroke="midnightblue" points="323.893,-194.162 313.356,-195.264 322.281,-200.973 323.893,-194.162"/>
</g>
<!-- Node18 -->
<g id="node42" class="node"><title>Node18</title>
<a xlink:href="Settings_8h.htm" target="_top" xlink:title="Settings.h">
<polygon fill="white" stroke="black" points="384.5,-58.5 384.5,-79.5 447.5,-79.5 447.5,-58.5 384.5,-58.5"/>
<text text-anchor="middle" x="416" y="-66.5" font-family="Helvetica,sans-Serif" font-size="10.00">Settings.h</text>
</a>
</g>
<!-- Node1&#45;&gt;Node18 -->
<g id="edge48" class="edge"><title>Node1&#45;&gt;Node18</title>
<path fill="none" stroke="midnightblue" d="M477.794,-236.11C455.155,-229.793 427.985,-217.933 414,-196 393.264,-163.48 401.796,-116.115 409.282,-89.3695"/>
<polygon fill="midnightblue" stroke="midnightblue" points="412.698,-90.1665 412.238,-79.5816 405.997,-88.143 412.698,-90.1665"/>
</g>
<!-- Node12&#45;&gt;Node2 -->
<g id="edge24" class="edge"><title>Node12&#45;&gt;Node2</title>
<path fill="none" stroke="midnightblue" d="M108.274,-58.4966C127.572,-49.397 155.713,-36.1273 177.348,-25.9253"/>
<polygon fill="midnightblue" stroke="midnightblue" points="178.924,-29.052 186.476,-21.6212 175.938,-22.7206 178.924,-29.052"/>
</g>
<!-- Node12&#45;&gt;Node3 -->
<g id="edge28" class="edge"><title>Node12&#45;&gt;Node3</title>
<path fill="none" stroke="midnightblue" d="M117.754,-60.4038C151.069,-51.2803 204.898,-36.2422 251,-22 251.884,-21.7271 252.779,-21.4474 253.683,-21.1628"/>
<polygon fill="midnightblue" stroke="midnightblue" points="255.01,-24.4122 263.449,-18.0064 252.857,-17.7515 255.01,-24.4122"/>
</g>
<!-- Node13 -->
<g id="node26" class="node"><title>Node13</title>
<polygon fill="white" stroke="#bfbfbf" points="-0.5,-0.5 -0.5,-21.5 46.5,-21.5 46.5,-0.5 -0.5,-0.5"/>
<text text-anchor="middle" x="23" y="-8.5" font-family="Helvetica,sans-Serif" font-size="10.00">stdio.h</text>
</g>
<!-- Node12&#45;&gt;Node13 -->
<g id="edge26" class="edge"><title>Node12&#45;&gt;Node13</title>
<path fill="none" stroke="midnightblue" d="M74.4448,-58.3619C65.3866,-50.0226 52.5903,-38.2418 42.0263,-28.5162"/>
<polygon fill="midnightblue" stroke="midnightblue" points="44.2095,-25.7688 34.4819,-21.5707 39.4683,-30.9187 44.2095,-25.7688"/>
</g>
<!-- Node14 -->
<g id="node29" class="node"><title>Node14</title>
<polygon fill="white" stroke="#bfbfbf" points="63.5,-0.5 63.5,-21.5 134.5,-21.5 134.5,-0.5 63.5,-0.5"/>
<text text-anchor="middle" x="99" y="-8.5" font-family="Helvetica,sans-Serif" font-size="10.00">PmLogLib.h</text>
</g>
<!-- Node12&#45;&gt;Node14 -->
<g id="edge30" class="edge"><title>Node12&#45;&gt;Node14</title>
<path fill="none" stroke="midnightblue" d="M88.3844,-58.3619C90.0703,-50.8401 92.3837,-40.5187 94.4207,-31.4308"/>
<polygon fill="midnightblue" stroke="midnightblue" points="97.8588,-32.0941 96.6307,-21.5707 91.0283,-30.563 97.8588,-32.0941"/>
</g>
<!-- Node15&#45;&gt;Node2 -->
<g id="edge34" class="edge"><title>Node15&#45;&gt;Node2</title>
<path fill="none" stroke="midnightblue" d="M259.854,-174.3C251.89,-165.304 241.154,-151.742 235,-138 219.216,-102.751 212.91,-57.6922 210.468,-31.8142"/>
<polygon fill="midnightblue" stroke="midnightblue" points="213.941,-31.3528 209.619,-21.6798 206.966,-31.937 213.941,-31.3528"/>
</g>
<!-- Node16 -->
<g id="node34" class="node"><title>Node16</title>
<a xlink:href="Mutex_8h.htm" target="_top" xlink:title="Mutex.h">
<polygon fill="white" stroke="black" points="243.5,-116.5 243.5,-137.5 296.5,-137.5 296.5,-116.5 243.5,-116.5"/>
<text text-anchor="middle" x="270" y="-124.5" font-family="Helvetica,sans-Serif" font-size="10.00">Mutex.h</text>
</a>
</g>
<!-- Node15&#45;&gt;Node16 -->
<g id="edge36" class="edge"><title>Node15&#45;&gt;Node16</title>
<path fill="none" stroke="midnightblue" d="M270,-174.362C270,-166.922 270,-156.743 270,-147.728"/>
<polygon fill="midnightblue" stroke="midnightblue" points="273.5,-147.571 270,-137.571 266.5,-147.571 273.5,-147.571"/>
</g>
<!-- Node16&#45;&gt;Node2 -->
<g id="edge38" class="edge"><title>Node16&#45;&gt;Node2</title>
<path fill="none" stroke="midnightblue" d="M262.631,-116.442C256.257,-107.088 246.992,-92.9466 240,-80 231.347,-63.978 222.973,-45.0701 217.115,-31.1027"/>
<polygon fill="midnightblue" stroke="midnightblue" points="220.209,-29.4255 213.162,-21.5143 213.738,-32.0935 220.209,-29.4255"/>
</g>
<!-- Node16&#45;&gt;Node3 -->
<g id="edge46" class="edge"><title>Node16&#45;&gt;Node3</title>
<path fill="none" stroke="midnightblue" d="M279.369,-116.306C286.585,-107.313 295.985,-93.7527 300,-80 304.723,-63.8208 299.803,-45.1872 294.211,-31.3652"/>
<polygon fill="midnightblue" stroke="midnightblue" points="297.233,-29.5505 289.952,-21.8537 290.844,-32.4109 297.233,-29.5505"/>
</g>
<!-- Node17 -->
<g id="node37" class="node"><title>Node17</title>
<a xlink:href="sptr_8h.htm" target="_top" xlink:title="sptr.h">
<polygon fill="white" stroke="black" points="248.5,-58.5 248.5,-79.5 291.5,-79.5 291.5,-58.5 248.5,-58.5"/>
<text text-anchor="middle" x="270" y="-66.5" font-family="Helvetica,sans-Serif" font-size="10.00">sptr.h</text>
</a>
</g>
<!-- Node16&#45;&gt;Node17 -->
<g id="edge40" class="edge"><title>Node16&#45;&gt;Node17</title>
<path fill="none" stroke="midnightblue" d="M270,-116.362C270,-108.922 270,-98.7427 270,-89.7276"/>
<polygon fill="midnightblue" stroke="midnightblue" points="273.5,-89.5706 270,-79.5707 266.5,-89.5707 273.5,-89.5706"/>
</g>
<!-- Node17&#45;&gt;Node2 -->
<g id="edge42" class="edge"><title>Node17&#45;&gt;Node2</title>
<path fill="none" stroke="midnightblue" d="M258.812,-58.3619C250.041,-50.0226 237.651,-38.2418 227.422,-28.5162"/>
<polygon fill="midnightblue" stroke="midnightblue" points="229.776,-25.9248 220.117,-21.5707 224.953,-30.9978 229.776,-25.9248"/>
</g>
<!-- Node17&#45;&gt;Node3 -->
<g id="edge44" class="edge"><title>Node17&#45;&gt;Node3</title>
<path fill="none" stroke="midnightblue" d="M272.568,-58.3619C274.383,-50.8401 276.875,-40.5187 279.068,-31.4308"/>
<polygon fill="midnightblue" stroke="midnightblue" points="282.504,-32.1127 281.448,-21.5707 275.7,-30.4702 282.504,-32.1127"/>
</g>
<!-- Node18&#45;&gt;Node2 -->
<g id="edge50" class="edge"><title>Node18&#45;&gt;Node2</title>
<path fill="none" stroke="midnightblue" d="M384.11,-60.0646C348.847,-50.1843 291.833,-34.2092 252.491,-23.1859"/>
<polygon fill="midnightblue" stroke="midnightblue" points="253.218,-19.755 242.645,-20.4271 251.33,-26.4954 253.218,-19.755"/>
</g>
<!-- Node18&#45;&gt;Node3 -->
<g id="edge58" class="edge"><title>Node18&#45;&gt;Node3</title>
<path fill="none" stroke="midnightblue" d="M392.096,-58.4966C370.156,-48.8563 337.564,-34.5356 313.907,-24.1408"/>
<polygon fill="midnightblue" stroke="midnightblue" points="315.252,-20.9089 304.688,-20.0904 312.436,-27.3175 315.252,-20.9089"/>
</g>
<!-- Node19 -->
<g id="node45" class="node"><title>Node19</title>
<polygon fill="white" stroke="#bfbfbf" points="521.5,-0.5 521.5,-21.5 564.5,-21.5 564.5,-0.5 521.5,-0.5"/>
<text text-anchor="middle" x="543" y="-8.5" font-family="Helvetica,sans-Serif" font-size="10.00">string</text>
</g>
<!-- Node18&#45;&gt;Node19 -->
<g id="edge52" class="edge"><title>Node18&#45;&gt;Node19</title>
<path fill="none" stroke="midnightblue" d="M438.999,-58.4966C459.514,-49.1277 489.708,-35.3381 512.284,-25.0278"/>
<polygon fill="midnightblue" stroke="midnightblue" points="513.8,-28.183 521.443,-20.8451 510.892,-21.8156 513.8,-28.183"/>
</g>
<!-- Node20 -->
<g id="node47" class="node"><title>Node20</title>
<polygon fill="white" stroke="#bfbfbf" points="582,-0.5 582,-21.5 628,-21.5 628,-0.5 582,-0.5"/>
<text text-anchor="middle" x="605" y="-8.5" font-family="Helvetica,sans-Serif" font-size="10.00">vector</text>
</g>
<!-- Node18&#45;&gt;Node20 -->
<g id="edge54" class="edge"><title>Node18&#45;&gt;Node20</title>
<path fill="none" stroke="midnightblue" d="M447.69,-59.9192C477.496,-51.2892 523.579,-37.7179 572.209,-22.1759"/>
<polygon fill="midnightblue" stroke="midnightblue" points="573.514,-25.4327 581.965,-19.0421 571.374,-18.7681 573.514,-25.4327"/>
</g>
<!-- Node21 -->
<g id="node49" class="node"><title>Node21</title>
<polygon fill="white" stroke="#bfbfbf" points="321.5,-0.5 321.5,-21.5 352.5,-21.5 352.5,-0.5 321.5,-0.5"/>
<text text-anchor="middle" x="337" y="-8.5" font-family="Helvetica,sans-Serif" font-size="10.00">set</text>
</g>
<!-- Node18&#45;&gt;Node21 -->
<g id="edge56" class="edge"><title>Node18&#45;&gt;Node21</title>
<path fill="none" stroke="midnightblue" d="M401.51,-58.3619C389.817,-49.7773 373.157,-37.5459 359.697,-27.6636"/>
<polygon fill="midnightblue" stroke="midnightblue" points="361.53,-24.6675 351.398,-21.5707 357.387,-30.31 361.53,-24.6675"/>
</g>
<!-- Node22 -->
<g id="node52" class="node"><title>Node22</title>
<polygon fill="white" stroke="#bfbfbf" points="370,-0.5 370,-21.5 428,-21.5 428,-0.5 370,-0.5"/>
<text text-anchor="middle" x="399" y="-8.5" font-family="Helvetica,sans-Serif" font-size="10.00">QtGlobal</text>
</g>
<!-- Node18&#45;&gt;Node22 -->
<g id="edge60" class="edge"><title>Node18&#45;&gt;Node22</title>
<path fill="none" stroke="midnightblue" d="M412.882,-58.3619C410.677,-50.8401 407.652,-40.5187 404.988,-31.4308"/>
<polygon fill="midnightblue" stroke="midnightblue" points="408.27,-30.1825 402.098,-21.5707 401.552,-32.1514 408.27,-30.1825"/>
</g>
<!-- Node23 -->
<g id="node54" class="node"><title>Node23</title>
<polygon fill="white" stroke="#bfbfbf" points="445.5,-0.5 445.5,-21.5 504.5,-21.5 504.5,-0.5 445.5,-0.5"/>
<text text-anchor="middle" x="475" y="-8.5" font-family="Helvetica,sans-Serif" font-size="10.00">QVariant</text>
</g>
<!-- Node18&#45;&gt;Node23 -->
<g id="edge62" class="edge"><title>Node18&#45;&gt;Node23</title>
<path fill="none" stroke="midnightblue" d="M426.822,-58.3619C435.221,-50.1043 447.054,-38.4725 456.89,-28.8029"/>
<polygon fill="midnightblue" stroke="midnightblue" points="459.569,-31.077 464.247,-21.5707 454.662,-26.0851 459.569,-31.077"/>
</g>
</g>
</svg>
