<?xml version="1.0" encoding="UTF-8" standalone="no"?>
<!DOCTYPE svg PUBLIC "-//W3C//DTD SVG 1.1//EN"
 "http://www.w3.org/Graphics/SVG/1.1/DTD/svg11.dtd">
<!-- Generated by graphviz version 2.26.3 (20100126.1600)
 -->
<!-- Title: Logging.h Pages: 1 -->
<svg width="639pt" height="146pt"
 viewBox="0.00 0.00 639.00 146.00" xmlns="http://www.w3.org/2000/svg" xmlns:xlink="http://www.w3.org/1999/xlink">
<g id="graph1" class="graph" transform="scale(1 1) rotate(0) translate(4 142)">
<title>Logging.h</title>
<polygon fill="white" stroke="white" points="-4,5 -4,-142 636,-142 636,5 -4,5"/>
<!-- Node1 -->
<g id="node1" class="node"><title>Node1</title>
<polygon fill="#bfbfbf" stroke="black" points="262.5,-116.5 262.5,-137.5 325.5,-137.5 325.5,-116.5 262.5,-116.5"/>
<text text-anchor="middle" x="294" y="-124.5" font-family="Helvetica,sans-Serif" font-size="10.00">Logging.h</text>
</g>
<!-- Node2 -->
<g id="node3" class="node"><title>Node2</title>
<a xlink:href="HostArm_8cpp.htm" target="_top" xlink:title="HostArm.cpp">
<polygon fill="white" stroke="black" points="2.5,-58.5 2.5,-79.5 79.5,-79.5 79.5,-58.5 2.5,-58.5"/>
<text text-anchor="middle" x="41" y="-66.5" font-family="Helvetica,sans-Serif" font-size="10.00">HostArm.cpp</text>
</a>
</g>
<!-- Node1&#45;&gt;Node2 -->
<g id="edge2" class="edge"><title>Node1&#45;&gt;Node2</title>
<path fill="none" stroke="midnightblue" d="M252.445,-117.591C210.829,-108.151 144.957,-93.1626 88,-80 85.3055,-79.3773 82.5248,-78.7324 79.7247,-78.0813"/>
<polygon fill="midnightblue" stroke="midnightblue" points="251.7,-121.01 262.226,-119.809 253.248,-114.184 251.7,-121.01"/>
</g>
<!-- Node4 -->
<g id="node7" class="node"><title>Node4</title>
<a xlink:href="JSONUtils_8cpp.htm" target="_top" xlink:title="JSONUtils.cpp">
<polygon fill="white" stroke="black" points="97,-58.5 97,-79.5 181,-79.5 181,-58.5 97,-58.5"/>
<text text-anchor="middle" x="139" y="-66.5" font-family="Helvetica,sans-Serif" font-size="10.00">JSONUtils.cpp</text>
</a>
</g>
<!-- Node1&#45;&gt;Node4 -->
<g id="edge6" class="edge"><title>Node1&#45;&gt;Node4</title>
<path fill="none" stroke="midnightblue" d="M256.25,-112.874C228.745,-102.582 192.079,-88.862 167.122,-79.5231"/>
<polygon fill="midnightblue" stroke="midnightblue" points="255.338,-116.27 265.931,-116.497 257.792,-109.714 255.338,-116.27"/>
</g>
<!-- Node5 -->
<g id="node9" class="node"><title>Node5</title>
<a xlink:href="Logging_8cpp.htm" target="_top" xlink:title="Logging.cpp">
<polygon fill="white" stroke="black" points="199,-58.5 199,-79.5 273,-79.5 273,-58.5 199,-58.5"/>
<text text-anchor="middle" x="236" y="-66.5" font-family="Helvetica,sans-Serif" font-size="10.00">Logging.cpp</text>
</a>
</g>
<!-- Node1&#45;&gt;Node5 -->
<g id="edge8" class="edge"><title>Node1&#45;&gt;Node5</title>
<path fill="none" stroke="midnightblue" d="M276.118,-109.118C266.438,-99.4377 254.81,-87.8098 246.571,-79.5707"/>
<polygon fill="midnightblue" stroke="midnightblue" points="273.816,-111.766 283.362,-116.362 278.766,-106.816 273.816,-111.766"/>
</g>
<!-- Node6 -->
<g id="node11" class="node"><title>Node6</title>
<a xlink:href="LocalePreferences_8cpp.htm" target="_top" xlink:title="LocalePreferences.cpp">
<polygon fill="white" stroke="black" points="290.5,-58.5 290.5,-79.5 415.5,-79.5 415.5,-58.5 290.5,-58.5"/>
<text text-anchor="middle" x="353" y="-66.5" font-family="Helvetica,sans-Serif" font-size="10.00">LocalePreferences.cpp</text>
</a>
</g>
<!-- Node1&#45;&gt;Node6 -->
<g id="edge10" class="edge"><title>Node1&#45;&gt;Node6</title>
<path fill="none" stroke="midnightblue" d="M312.19,-109.118C322.037,-99.4377 333.866,-87.8098 342.247,-79.5707"/>
<polygon fill="midnightblue" stroke="midnightblue" points="309.499,-106.856 304.822,-116.362 314.406,-111.847 309.499,-106.856"/>
</g>
<!-- Node7 -->
<g id="node13" class="node"><title>Node7</title>
<a xlink:href="Settings_8cpp.htm" target="_top" xlink:title="Settings.cpp">
<polygon fill="white" stroke="black" points="433,-58.5 433,-79.5 507,-79.5 507,-58.5 433,-58.5"/>
<text text-anchor="middle" x="470" y="-66.5" font-family="Helvetica,sans-Serif" font-size="10.00">Settings.cpp</text>
</a>
</g>
<!-- Node1&#45;&gt;Node7 -->
<g id="edge12" class="edge"><title>Node1&#45;&gt;Node7</title>
<path fill="none" stroke="midnightblue" d="M335.637,-113.279C366.998,-102.944 409.356,-88.9849 438.068,-79.5231"/>
<polygon fill="midnightblue" stroke="midnightblue" points="334.274,-110.043 325.872,-116.497 336.465,-116.691 334.274,-110.043"/>
</g>
<!-- Node8 -->
<g id="node15" class="node"><title>Node8</title>
<a xlink:href="SingletonTimer_8cpp.htm" target="_top" xlink:title="SingletonTimer.cpp">
<polygon fill="white" stroke="black" points="524.5,-58.5 524.5,-79.5 631.5,-79.5 631.5,-58.5 524.5,-58.5"/>
<text text-anchor="middle" x="578" y="-66.5" font-family="Helvetica,sans-Serif" font-size="10.00">SingletonTimer.cpp</text>
</a>
</g>
<!-- Node1&#45;&gt;Node8 -->
<g id="edge14" class="edge"><title>Node1&#45;&gt;Node8</title>
<path fill="none" stroke="midnightblue" d="M335.708,-118.482C386.383,-108.133 471.869,-90.6747 526.573,-79.5026"/>
<polygon fill="midnightblue" stroke="midnightblue" points="334.849,-115.085 325.752,-120.515 336.25,-121.944 334.849,-115.085"/>
</g>
<!-- Node3 -->
<g id="node5" class="node"><title>Node3</title>
<a xlink:href="HostBase_8cpp.htm" target="_top" xlink:title="HostBase.cpp">
<polygon fill="white" stroke="black" points="0,-0.5 0,-21.5 82,-21.5 82,-0.5 0,-0.5"/>
<text text-anchor="middle" x="41" y="-8.5" font-family="Helvetica,sans-Serif" font-size="10.00">HostBase.cpp</text>
</a>
</g>
<!-- Node2&#45;&gt;Node3 -->
<g id="edge4" class="edge"><title>Node2&#45;&gt;Node3</title>
<path fill="none" stroke="midnightblue" d="M41,-48.1906C41,-39.1684 41,-28.9941 41,-21.5707"/>
<polygon fill="midnightblue" stroke="midnightblue" points="37.5001,-48.3619 41,-58.3619 44.5001,-48.3619 37.5001,-48.3619"/>
</g>
</g>
</svg>
