<?xml version="1.0" encoding="UTF-8" standalone="no"?>
<!DOCTYPE svg PUBLIC "-//W3C//DTD SVG 1.1//EN"
 "http://www.w3.org/Graphics/SVG/1.1/DTD/svg11.dtd">
<!-- Generated by graphviz version 2.26.3 (20100126.1600)
 -->
<!-- Title: Mutex.h Pages: 1 -->
<svg width="145pt" height="146pt"
 viewBox="0.00 0.00 145.00 146.00" xmlns="http://www.w3.org/2000/svg" xmlns:xlink="http://www.w3.org/1999/xlink">
<g id="graph1" class="graph" transform="scale(1 1) rotate(0) translate(4 142)">
<title>Mutex.h</title>
<polygon fill="white" stroke="white" points="-4,5 -4,-142 142,-142 142,5 -4,5"/>
<!-- Node1 -->
<g id="node1" class="node"><title>Node1</title>
<polygon fill="#bfbfbf" stroke="black" points="48.5,-116.5 48.5,-137.5 101.5,-137.5 101.5,-116.5 48.5,-116.5"/>
<text text-anchor="middle" x="75" y="-124.5" font-family="Helvetica,sans-Serif" font-size="10.00">Mutex.h</text>
</g>
<!-- Node2 -->
<g id="node3" class="node"><title>Node2</title>
<a xlink:href="Common_8h.htm" target="_top" xlink:title="Common.h">
<polygon fill="white" stroke="black" points="-0.5,-0.5 -0.5,-21.5 66.5,-21.5 66.5,-0.5 -0.5,-0.5"/>
<text text-anchor="middle" x="33" y="-8.5" font-family="Helvetica,sans-Serif" font-size="10.00">Common.h</text>
</a>
</g>
<!-- Node1&#45;&gt;Node2 -->
<g id="edge2" class="edge"><title>Node1&#45;&gt;Node2</title>
<path fill="none" stroke="midnightblue" d="M66.5309,-116.462C59.6497,-107.347 50.2528,-93.537 45,-80 38.9609,-64.4367 35.9479,-45.7203 34.4522,-31.7095"/>
<polygon fill="midnightblue" stroke="midnightblue" points="37.9278,-31.2797 33.5491,-21.632 30.9558,-31.9045 37.9278,-31.2797"/>
</g>
<!-- Node3 -->
<g id="node5" class="node"><title>Node3</title>
<a xlink:href="sptr_8h.htm" target="_top" xlink:title="sptr.h">
<polygon fill="white" stroke="black" points="53.5,-58.5 53.5,-79.5 96.5,-79.5 96.5,-58.5 53.5,-58.5"/>
<text text-anchor="middle" x="75" y="-66.5" font-family="Helvetica,sans-Serif" font-size="10.00">sptr.h</text>
</a>
</g>
<!-- Node1&#45;&gt;Node3 -->
<g id="edge4" class="edge"><title>Node1&#45;&gt;Node3</title>
<path fill="none" stroke="midnightblue" d="M75,-116.362C75,-108.922 75,-98.7427 75,-89.7276"/>
<polygon fill="midnightblue" stroke="midnightblue" points="78.5001,-89.5706 75,-79.5707 71.5001,-89.5707 78.5001,-89.5706"/>
</g>
<!-- Node4 -->
<g id="node8" class="node"><title>Node4</title>
<polygon fill="white" stroke="#bfbfbf" points="96.5,-0.5 96.5,-21.5 137.5,-21.5 137.5,-0.5 96.5,-0.5"/>
<text text-anchor="middle" x="117" y="-8.5" font-family="Helvetica,sans-Serif" font-size="10.00">glib.h</text>
</g>
<!-- Node1&#45;&gt;Node4 -->
<g id="edge10" class="edge"><title>Node1&#45;&gt;Node4</title>
<path fill="none" stroke="midnightblue" d="M83.4691,-116.462C90.3503,-107.347 99.7472,-93.537 105,-80 111.039,-64.4367 114.052,-45.7203 115.548,-31.7095"/>
<polygon fill="midnightblue" stroke="midnightblue" points="119.044,-31.9045 116.451,-21.632 112.072,-31.2797 119.044,-31.9045"/>
</g>
<!-- Node3&#45;&gt;Node2 -->
<g id="edge6" class="edge"><title>Node3&#45;&gt;Node2</title>
<path fill="none" stroke="midnightblue" d="M67.2966,-58.3619C61.5537,-50.4313 53.5572,-39.3885 46.7301,-29.9606"/>
<polygon fill="midnightblue" stroke="midnightblue" points="49.3546,-27.6173 40.6546,-21.5707 43.6849,-31.7229 49.3546,-27.6173"/>
</g>
<!-- Node3&#45;&gt;Node4 -->
<g id="edge8" class="edge"><title>Node3&#45;&gt;Node4</title>
<path fill="none" stroke="midnightblue" d="M82.7034,-58.3619C88.4463,-50.4313 96.4428,-39.3885 103.27,-29.9606"/>
<polygon fill="midnightblue" stroke="midnightblue" points="106.315,-31.7229 109.345,-21.5707 100.645,-27.6173 106.315,-31.7229"/>
</g>
</g>
</svg>
