<?xml version="1.0" encoding="UTF-8" standalone="no"?>
<!DOCTYPE svg PUBLIC "-//W3C//DTD SVG 1.1//EN"
 "http://www.w3.org/Graphics/SVG/1.1/DTD/svg11.dtd">
<!-- Generated by graphviz version 2.26.3 (20100126.1600)
 -->
<!-- Title: MutexLocker.h Pages: 1 -->
<svg width="158pt" height="204pt"
 viewBox="0.00 0.00 158.00 204.00" xmlns="http://www.w3.org/2000/svg" xmlns:xlink="http://www.w3.org/1999/xlink">
<g id="graph1" class="graph" transform="scale(1 1) rotate(0) translate(4 200)">
<title>MutexLocker.h</title>
<polygon fill="white" stroke="white" points="-4,5 -4,-200 155,-200 155,5 -4,5"/>
<!-- Node1 -->
<g id="node1" class="node"><title>Node1</title>
<polygon fill="#bfbfbf" stroke="black" points="0,-174.5 0,-195.5 86,-195.5 86,-174.5 0,-174.5"/>
<text text-anchor="middle" x="43" y="-182.5" font-family="Helvetica,sans-Serif" font-size="10.00">MutexLocker.h</text>
</g>
<!-- Node2 -->
<g id="node3" class="node"><title>Node2</title>
<a xlink:href="Common_8h.htm" target="_top" xlink:title="Common.h">
<polygon fill="white" stroke="black" points="12.5,-0.5 12.5,-21.5 79.5,-21.5 79.5,-0.5 12.5,-0.5"/>
<text text-anchor="middle" x="46" y="-8.5" font-family="Helvetica,sans-Serif" font-size="10.00">Common.h</text>
</a>
</g>
<!-- Node1&#45;&gt;Node2 -->
<g id="edge2" class="edge"><title>Node1&#45;&gt;Node2</title>
<path fill="none" stroke="midnightblue" d="M42.905,-174.243C42.8069,-160.668 42.7057,-136.602 43,-116 43.4172,-86.7867 44.4872,-53.0154 45.2295,-31.832"/>
<polygon fill="midnightblue" stroke="midnightblue" points="48.731,-31.8491 45.5922,-21.7299 41.7355,-31.5978 48.731,-31.8491"/>
</g>
<!-- Node3 -->
<g id="node5" class="node"><title>Node3</title>
<a xlink:href="Mutex_8h.htm" target="_top" xlink:title="Mutex.h">
<polygon fill="white" stroke="black" points="51.5,-116.5 51.5,-137.5 104.5,-137.5 104.5,-116.5 51.5,-116.5"/>
<text text-anchor="middle" x="78" y="-124.5" font-family="Helvetica,sans-Serif" font-size="10.00">Mutex.h</text>
</a>
</g>
<!-- Node1&#45;&gt;Node3 -->
<g id="edge4" class="edge"><title>Node1&#45;&gt;Node3</title>
<path fill="none" stroke="midnightblue" d="M49.4195,-174.362C54.1559,-166.513 60.7318,-155.616 66.382,-146.253"/>
<polygon fill="midnightblue" stroke="midnightblue" points="69.4511,-147.941 71.6212,-137.571 63.4578,-144.324 69.4511,-147.941"/>
</g>
<!-- Node3&#45;&gt;Node2 -->
<g id="edge6" class="edge"><title>Node3&#45;&gt;Node2</title>
<path fill="none" stroke="midnightblue" d="M75.0017,-116.174C72.3646,-106.648 68.4234,-92.4047 65,-80 60.5139,-63.7446 55.4442,-45.3317 51.6707,-31.6176"/>
<polygon fill="midnightblue" stroke="midnightblue" points="54.9853,-30.471 48.9581,-21.7576 48.2361,-32.3278 54.9853,-30.471"/>
</g>
<!-- Node4 -->
<g id="node8" class="node"><title>Node4</title>
<a xlink:href="sptr_8h.htm" target="_top" xlink:title="sptr.h">
<polygon fill="white" stroke="black" points="73.5,-58.5 73.5,-79.5 116.5,-79.5 116.5,-58.5 73.5,-58.5"/>
<text text-anchor="middle" x="95" y="-66.5" font-family="Helvetica,sans-Serif" font-size="10.00">sptr.h</text>
</a>
</g>
<!-- Node3&#45;&gt;Node4 -->
<g id="edge8" class="edge"><title>Node3&#45;&gt;Node4</title>
<path fill="none" stroke="midnightblue" d="M81.1181,-116.362C83.3227,-108.84 86.348,-98.5187 89.0117,-89.4308"/>
<polygon fill="midnightblue" stroke="midnightblue" points="92.4476,-90.1514 91.9017,-79.5707 85.7302,-88.1825 92.4476,-90.1514"/>
</g>
<!-- Node5 -->
<g id="node11" class="node"><title>Node5</title>
<polygon fill="white" stroke="#bfbfbf" points="109.5,-0.5 109.5,-21.5 150.5,-21.5 150.5,-0.5 109.5,-0.5"/>
<text text-anchor="middle" x="130" y="-8.5" font-family="Helvetica,sans-Serif" font-size="10.00">glib.h</text>
</g>
<!-- Node3&#45;&gt;Node5 -->
<g id="edge14" class="edge"><title>Node3&#45;&gt;Node5</title>
<path fill="none" stroke="midnightblue" d="M93.6062,-116.206C104.47,-107.733 118.186,-94.9022 125,-80 131.857,-65.0032 132.797,-46.2457 132.195,-32.0749"/>
<polygon fill="midnightblue" stroke="midnightblue" points="135.668,-31.5781 131.465,-21.853 128.686,-32.077 135.668,-31.5781"/>
</g>
<!-- Node4&#45;&gt;Node2 -->
<g id="edge10" class="edge"><title>Node4&#45;&gt;Node2</title>
<path fill="none" stroke="midnightblue" d="M86.0126,-58.3619C79.1745,-50.2678 69.5976,-38.9318 61.5276,-29.3796"/>
<polygon fill="midnightblue" stroke="midnightblue" points="64.0575,-26.9508 54.9304,-21.5707 58.7103,-31.4683 64.0575,-26.9508"/>
</g>
<!-- Node4&#45;&gt;Node5 -->
<g id="edge12" class="edge"><title>Node4&#45;&gt;Node5</title>
<path fill="none" stroke="midnightblue" d="M101.42,-58.3619C106.156,-50.5131 112.732,-39.6159 118.382,-30.2527"/>
<polygon fill="midnightblue" stroke="midnightblue" points="121.451,-31.9409 123.621,-21.5707 115.458,-28.3242 121.451,-31.9409"/>
</g>
</g>
</svg>
