<?xml version="1.0" encoding="UTF-8" standalone="no"?>
<!DOCTYPE svg PUBLIC "-//W3C//DTD SVG 1.1//EN"
 "http://www.w3.org/Graphics/SVG/1.1/DTD/svg11.dtd">
<!-- Generated by graphviz version 2.26.3 (20100126.1600)
 -->
<!-- Title: Mutex.h Pages: 1 -->
<svg width="1552pt" height="320pt"
 viewBox="0.00 0.00 1552.00 320.00" xmlns="http://www.w3.org/2000/svg" xmlns:xlink="http://www.w3.org/1999/xlink">
<g id="graph1" class="graph" transform="scale(1 1) rotate(0) translate(4 316)">
<title>Mutex.h</title>
<polygon fill="white" stroke="white" points="-4,5 -4,-316 1549,-316 1549,5 -4,5"/>
<!-- Node1 -->
<g id="node1" class="node"><title>Node1</title>
<polygon fill="#bfbfbf" stroke="black" points="1182.5,-290.5 1182.5,-311.5 1235.5,-311.5 1235.5,-290.5 1182.5,-290.5"/>
<text text-anchor="middle" x="1209" y="-298.5" font-family="Helvetica,sans-Serif" font-size="10.00">Mutex.h</text>
</g>
<!-- Node2 -->
<g id="node3" class="node"><title>Node2</title>
<a xlink:href="Mutex_8cpp.htm" target="_top" xlink:title="Mutex.cpp">
<polygon fill="white" stroke="black" points="1052.5,-232.5 1052.5,-253.5 1117.5,-253.5 1117.5,-232.5 1052.5,-232.5"/>
<text text-anchor="middle" x="1085" y="-240.5" font-family="Helvetica,sans-Serif" font-size="10.00">Mutex.cpp</text>
</a>
</g>
<!-- Node1&#45;&gt;Node2 -->
<g id="edge2" class="edge"><title>Node1&#45;&gt;Node2</title>
<path fill="none" stroke="midnightblue" d="M1177.37,-286.206C1155.62,-276.031 1127.24,-262.757 1107.71,-253.621"/>
<polygon fill="midnightblue" stroke="midnightblue" points="1176,-289.43 1186.54,-290.497 1178.97,-283.089 1176,-289.43"/>
</g>
<!-- Node3 -->
<g id="node5" class="node"><title>Node3</title>
<a xlink:href="TaskBase_8h.htm" target="_top" xlink:title="TaskBase.h">
<polygon fill="white" stroke="black" points="1173,-232.5 1173,-253.5 1245,-253.5 1245,-232.5 1173,-232.5"/>
<text text-anchor="middle" x="1209" y="-240.5" font-family="Helvetica,sans-Serif" font-size="10.00">TaskBase.h</text>
</a>
</g>
<!-- Node1&#45;&gt;Node3 -->
<g id="edge4" class="edge"><title>Node1&#45;&gt;Node3</title>
<path fill="none" stroke="midnightblue" d="M1209,-280.191C1209,-271.168 1209,-260.994 1209,-253.571"/>
<polygon fill="midnightblue" stroke="midnightblue" points="1205.5,-280.362 1209,-290.362 1212.5,-280.362 1205.5,-280.362"/>
</g>
<!-- Node5 -->
<g id="node9" class="node"><title>Node5</title>
<a xlink:href="HostBase_8h.htm" target="_top" xlink:title="HostBase.h">
<polygon fill="white" stroke="black" points="1032.5,-174.5 1032.5,-195.5 1103.5,-195.5 1103.5,-174.5 1032.5,-174.5"/>
<text text-anchor="middle" x="1068" y="-182.5" font-family="Helvetica,sans-Serif" font-size="10.00">HostBase.h</text>
</a>
</g>
<!-- Node1&#45;&gt;Node5 -->
<g id="edge50" class="edge"><title>Node1&#45;&gt;Node5</title>
<path fill="none" stroke="midnightblue" d="M1188.36,-283.721C1171.6,-269.721 1147.34,-249.514 1126,-232 1110.77,-219.502 1093.18,-205.276 1081.4,-195.78"/>
<polygon fill="midnightblue" stroke="midnightblue" points="1186.47,-286.701 1196.39,-290.43 1190.96,-281.33 1186.47,-286.701"/>
</g>
<!-- Node22 -->
<g id="node48" class="node"><title>Node22</title>
<a xlink:href="LocalePreferences_8h.htm" target="_top" xlink:title="LocalePreferences.h">
<polygon fill="white" stroke="black" points="1402,-232.5 1402,-253.5 1516,-253.5 1516,-232.5 1402,-232.5"/>
<text text-anchor="middle" x="1459" y="-240.5" font-family="Helvetica,sans-Serif" font-size="10.00">LocalePreferences.h</text>
</a>
</g>
<!-- Node1&#45;&gt;Node22 -->
<g id="edge52" class="edge"><title>Node1&#45;&gt;Node22</title>
<path fill="none" stroke="midnightblue" d="M1245.57,-292.516C1290.08,-282.19 1365.25,-264.751 1413.46,-253.564"/>
<polygon fill="midnightblue" stroke="midnightblue" points="1244.7,-289.123 1235.75,-294.793 1246.29,-295.942 1244.7,-289.123"/>
</g>
<!-- Node24 -->
<g id="node53" class="node"><title>Node24</title>
<a xlink:href="MutexLocker_8h.htm" target="_top" xlink:title="MutexLocker.h">
<polygon fill="white" stroke="black" points="1309,-174.5 1309,-195.5 1395,-195.5 1395,-174.5 1309,-174.5"/>
<text text-anchor="middle" x="1352" y="-182.5" font-family="Helvetica,sans-Serif" font-size="10.00">MutexLocker.h</text>
</a>
</g>
<!-- Node1&#45;&gt;Node24 -->
<g id="edge58" class="edge"><title>Node1&#45;&gt;Node24</title>
<path fill="none" stroke="midnightblue" d="M1230.33,-283.693C1260.33,-259.362 1314.07,-215.772 1338.84,-195.679"/>
<polygon fill="midnightblue" stroke="midnightblue" points="1227.76,-281.277 1222.2,-290.295 1232.17,-286.713 1227.76,-281.277"/>
</g>
<!-- Node4 -->
<g id="node7" class="node"><title>Node4</title>
<a xlink:href="TaskBase_8cpp.htm" target="_top" xlink:title="TaskBase.cpp">
<polygon fill="white" stroke="black" points="1120.5,-174.5 1120.5,-195.5 1203.5,-195.5 1203.5,-174.5 1120.5,-174.5"/>
<text text-anchor="middle" x="1162" y="-182.5" font-family="Helvetica,sans-Serif" font-size="10.00">TaskBase.cpp</text>
</a>
</g>
<!-- Node3&#45;&gt;Node4 -->
<g id="edge6" class="edge"><title>Node3&#45;&gt;Node4</title>
<path fill="none" stroke="midnightblue" d="M1194.04,-224.541C1186.29,-214.979 1177.11,-203.647 1170.57,-195.571"/>
<polygon fill="midnightblue" stroke="midnightblue" points="1191.36,-226.796 1200.38,-232.362 1196.8,-222.389 1191.36,-226.796"/>
</g>
<!-- Node3&#45;&gt;Node5 -->
<g id="edge8" class="edge"><title>Node3&#45;&gt;Node5</title>
<path fill="none" stroke="midnightblue" d="M1174.03,-228.615C1149.17,-218.389 1116.33,-204.88 1093.82,-195.621"/>
<polygon fill="midnightblue" stroke="midnightblue" points="1172.89,-231.929 1183.47,-232.497 1175.55,-225.456 1172.89,-231.929"/>
</g>
<!-- Node21 -->
<g id="node44" class="node"><title>Node21</title>
<a xlink:href="SyncTask_8h.htm" target="_top" xlink:title="SyncTask.h">
<polygon fill="white" stroke="black" points="1220.5,-174.5 1220.5,-195.5 1291.5,-195.5 1291.5,-174.5 1220.5,-174.5"/>
<text text-anchor="middle" x="1256" y="-182.5" font-family="Helvetica,sans-Serif" font-size="10.00">SyncTask.h</text>
</a>
</g>
<!-- Node3&#45;&gt;Node21 -->
<g id="edge46" class="edge"><title>Node3&#45;&gt;Node21</title>
<path fill="none" stroke="midnightblue" d="M1223.96,-224.541C1231.71,-214.979 1240.89,-203.647 1247.43,-195.571"/>
<polygon fill="midnightblue" stroke="midnightblue" points="1221.2,-222.389 1217.62,-232.362 1226.64,-226.796 1221.2,-222.389"/>
</g>
<!-- Node6 -->
<g id="node11" class="node"><title>Node6</title>
<a xlink:href="FlickGestureRecognizer_8cpp.htm" target="_top" xlink:title="FlickGestureRecognizer.cpp">
<polygon fill="white" stroke="black" points="588.5,-116.5 588.5,-137.5 737.5,-137.5 737.5,-116.5 588.5,-116.5"/>
<text text-anchor="middle" x="663" y="-124.5" font-family="Helvetica,sans-Serif" font-size="10.00">FlickGestureRecognizer.cpp</text>
</a>
</g>
<!-- Node5&#45;&gt;Node6 -->
<g id="edge10" class="edge"><title>Node5&#45;&gt;Node6</title>
<path fill="none" stroke="midnightblue" d="M1022.23,-178.445C952.728,-168.492 819.896,-149.469 736.684,-137.552"/>
<polygon fill="midnightblue" stroke="midnightblue" points="1022.02,-181.951 1032.41,-179.904 1023.01,-175.021 1022.02,-181.951"/>
</g>
<!-- Node7 -->
<g id="node13" class="node"><title>Node7</title>
<a xlink:href="HostArm_8cpp.htm" target="_top" xlink:title="HostArm.cpp">
<polygon fill="white" stroke="black" points="1057.5,-58.5 1057.5,-79.5 1134.5,-79.5 1134.5,-58.5 1057.5,-58.5"/>
<text text-anchor="middle" x="1096" y="-66.5" font-family="Helvetica,sans-Serif" font-size="10.00">HostArm.cpp</text>
</a>
</g>
<!-- Node5&#45;&gt;Node7 -->
<g id="edge12" class="edge"><title>Node5&#45;&gt;Node7</title>
<path fill="none" stroke="midnightblue" d="M1072.96,-164.458C1078.94,-139.663 1088.78,-98.9098 1093.42,-79.6792"/>
<polygon fill="midnightblue" stroke="midnightblue" points="1069.53,-163.753 1070.58,-174.295 1076.33,-165.395 1069.53,-163.753"/>
</g>
<!-- Node8 -->
<g id="node15" class="node"><title>Node8</title>
<a xlink:href="HostBase_8cpp.htm" target="_top" xlink:title="HostBase.cpp">
<polygon fill="white" stroke="black" points="1055,-0.5 1055,-21.5 1137,-21.5 1137,-0.5 1055,-0.5"/>
<text text-anchor="middle" x="1096" y="-8.5" font-family="Helvetica,sans-Serif" font-size="10.00">HostBase.cpp</text>
</a>
</g>
<!-- Node5&#45;&gt;Node8 -->
<g id="edge36" class="edge"><title>Node5&#45;&gt;Node8</title>
<path fill="none" stroke="midnightblue" d="M1086.23,-167.12C1104.63,-147.67 1131.88,-114.687 1143,-80 1145.98,-70.6887 1146.74,-67.0335 1143,-58 1136.73,-42.8611 1122.95,-30.056 1111.93,-21.6536"/>
<polygon fill="midnightblue" stroke="midnightblue" points="1083.65,-164.748 1079.19,-174.358 1088.67,-169.629 1083.65,-164.748"/>
</g>
<!-- Node9 -->
<g id="node17" class="node"><title>Node9</title>
<a xlink:href="HostArm_8h.htm" target="_top" xlink:title="HostArm.h">
<polygon fill="white" stroke="black" points="754.5,-116.5 754.5,-137.5 819.5,-137.5 819.5,-116.5 754.5,-116.5"/>
<text text-anchor="middle" x="787" y="-124.5" font-family="Helvetica,sans-Serif" font-size="10.00">HostArm.h</text>
</a>
</g>
<!-- Node5&#45;&gt;Node9 -->
<g id="edge16" class="edge"><title>Node5&#45;&gt;Node9</title>
<path fill="none" stroke="midnightblue" d="M1022.62,-175.632C965.783,-163.902 869.807,-144.092 819.689,-133.747"/>
<polygon fill="midnightblue" stroke="midnightblue" points="1021.91,-179.06 1032.41,-177.654 1023.33,-172.205 1021.91,-179.06"/>
</g>
<!-- Node17 -->
<g id="node36" class="node"><title>Node17</title>
<a xlink:href="HostQtDesktop_8h.htm" target="_top" xlink:title="HostQtDesktop.h">
<polygon fill="white" stroke="black" points="239.5,-116.5 239.5,-137.5 336.5,-137.5 336.5,-116.5 239.5,-116.5"/>
<text text-anchor="middle" x="288" y="-124.5" font-family="Helvetica,sans-Serif" font-size="10.00">HostQtDesktop.h</text>
</a>
</g>
<!-- Node5&#45;&gt;Node17 -->
<g id="edge38" class="edge"><title>Node5&#45;&gt;Node17</title>
<path fill="none" stroke="midnightblue" d="M1022.3,-181.602C885.138,-171.403 477.824,-141.115 336.749,-130.625"/>
<polygon fill="midnightblue" stroke="midnightblue" points="1022.23,-185.106 1032.46,-182.357 1022.75,-178.125 1022.23,-185.106"/>
</g>
<!-- Node19 -->
<g id="node40" class="node"><title>Node19</title>
<a xlink:href="LocalePreferences_8cpp.htm" target="_top" xlink:title="LocalePreferences.cpp">
<polygon fill="white" stroke="black" points="1289.5,-116.5 1289.5,-137.5 1414.5,-137.5 1414.5,-116.5 1289.5,-116.5"/>
<text text-anchor="middle" x="1352" y="-124.5" font-family="Helvetica,sans-Serif" font-size="10.00">LocalePreferences.cpp</text>
</a>
</g>
<!-- Node5&#45;&gt;Node19 -->
<g id="edge42" class="edge"><title>Node5&#45;&gt;Node19</title>
<path fill="none" stroke="midnightblue" d="M1113.39,-173.761C1180.37,-158.974 1247.2,-146.157 1293.63,-137.56"/>
<polygon fill="midnightblue" stroke="midnightblue" points="1112.51,-170.371 1103.5,-175.957 1114.03,-177.204 1112.51,-170.371"/>
</g>
<!-- Node20 -->
<g id="node42" class="node"><title>Node20</title>
<a xlink:href="SyncTask_8cpp.htm" target="_top" xlink:title="SyncTask.cpp">
<polygon fill="white" stroke="black" points="1189.5,-116.5 1189.5,-137.5 1272.5,-137.5 1272.5,-116.5 1189.5,-116.5"/>
<text text-anchor="middle" x="1231" y="-124.5" font-family="Helvetica,sans-Serif" font-size="10.00">SyncTask.cpp</text>
</a>
</g>
<!-- Node5&#45;&gt;Node20 -->
<g id="edge44" class="edge"><title>Node5&#45;&gt;Node20</title>
<path fill="none" stroke="midnightblue" d="M1107.32,-171.009C1136.28,-160.702 1175.07,-146.903 1201.43,-137.523"/>
<polygon fill="midnightblue" stroke="midnightblue" points="1105.77,-167.847 1097.52,-174.497 1108.11,-174.442 1105.77,-167.847"/>
</g>
<!-- Node7&#45;&gt;Node8 -->
<g id="edge14" class="edge"><title>Node7&#45;&gt;Node8</title>
<path fill="none" stroke="midnightblue" d="M1096,-48.1906C1096,-39.1684 1096,-28.9941 1096,-21.5707"/>
<polygon fill="midnightblue" stroke="midnightblue" points="1092.5,-48.3619 1096,-58.3619 1099.5,-48.3619 1092.5,-48.3619"/>
</g>
<!-- Node9&#45;&gt;Node7 -->
<g id="edge18" class="edge"><title>Node9&#45;&gt;Node7</title>
<path fill="none" stroke="midnightblue" d="M829.972,-120.002C881.982,-111.368 972.153,-95.8741 1049,-80 1051.71,-79.4406 1054.5,-78.8426 1057.31,-78.2252"/>
<polygon fill="midnightblue" stroke="midnightblue" points="829.077,-116.602 819.782,-121.686 830.219,-123.508 829.077,-116.602"/>
</g>
<!-- Node10 -->
<g id="node20" class="node"><title>Node10</title>
<a xlink:href="HostArmBroadway_8cpp.htm" target="_top" xlink:title="HostArmBroadway.cpp">
<polygon fill="white" stroke="black" points="276,-58.5 276,-79.5 400,-79.5 400,-58.5 276,-58.5"/>
<text text-anchor="middle" x="338" y="-66.5" font-family="Helvetica,sans-Serif" font-size="10.00">HostArmBroadway.cpp</text>
</a>
</g>
<!-- Node9&#45;&gt;Node10 -->
<g id="edge20" class="edge"><title>Node9&#45;&gt;Node10</title>
<path fill="none" stroke="midnightblue" d="M744.503,-115.934C596.17,-88.8645 555.149,-99.1167 409,-80 406.155,-79.6279 403.249,-79.2339 400.314,-78.8249"/>
<polygon fill="midnightblue" stroke="midnightblue" points="743.961,-119.393 754.431,-117.771 745.235,-112.51 743.961,-119.393"/>
</g>
<!-- Node11 -->
<g id="node22" class="node"><title>Node11</title>
<a xlink:href="HostArmMantaray_8cpp.htm" target="_top" xlink:title="HostArmMantaray.cpp">
<polygon fill="white" stroke="black" points="418,-58.5 418,-79.5 540,-79.5 540,-58.5 418,-58.5"/>
<text text-anchor="middle" x="479" y="-66.5" font-family="Helvetica,sans-Serif" font-size="10.00">HostArmMantaray.cpp</text>
</a>
</g>
<!-- Node9&#45;&gt;Node11 -->
<g id="edge22" class="edge"><title>Node9&#45;&gt;Node11</title>
<path fill="none" stroke="midnightblue" d="M744.399,-115.804C694.429,-105.244 601.909,-89.4524 540.058,-79.1072"/>
<polygon fill="midnightblue" stroke="midnightblue" points="743.875,-119.272 754.39,-117.974 745.361,-112.431 743.875,-119.272"/>
</g>
<!-- Node12 -->
<g id="node24" class="node"><title>Node12</title>
<a xlink:href="HostArmOpal_8cpp.htm" target="_top" xlink:title="HostArmOpal.cpp">
<polygon fill="white" stroke="black" points="557.5,-58.5 557.5,-79.5 656.5,-79.5 656.5,-58.5 557.5,-58.5"/>
<text text-anchor="middle" x="607" y="-66.5" font-family="Helvetica,sans-Serif" font-size="10.00">HostArmOpal.cpp</text>
</a>
</g>
<!-- Node9&#45;&gt;Node12 -->
<g id="edge24" class="edge"><title>Node9&#45;&gt;Node12</title>
<path fill="none" stroke="midnightblue" d="M744.833,-113.413C712.718,-103.065 669.149,-89.0258 639.658,-79.5231"/>
<polygon fill="midnightblue" stroke="midnightblue" points="743.812,-116.761 754.403,-116.497 745.959,-110.098 743.812,-116.761"/>
</g>
<!-- Node13 -->
<g id="node26" class="node"><title>Node13</title>
<a xlink:href="HostArmQemu_8cpp.htm" target="_top" xlink:title="HostArmQemu.cpp">
<polygon fill="white" stroke="black" points="674,-58.5 674,-79.5 778,-79.5 778,-58.5 674,-58.5"/>
<text text-anchor="middle" x="726" y="-66.5" font-family="Helvetica,sans-Serif" font-size="10.00">HostArmQemu.cpp</text>
</a>
</g>
<!-- Node9&#45;&gt;Node13 -->
<g id="edge26" class="edge"><title>Node9&#45;&gt;Node13</title>
<path fill="none" stroke="midnightblue" d="M768.495,-109.405C758.255,-99.6683 745.869,-87.8914 737.117,-79.5707"/>
<polygon fill="midnightblue" stroke="midnightblue" points="766.153,-112.008 775.812,-116.362 770.976,-106.935 766.153,-112.008"/>
</g>
<!-- Node14 -->
<g id="node28" class="node"><title>Node14</title>
<a xlink:href="HostArmTopaz_8cpp.htm" target="_top" xlink:title="HostArmTopaz.cpp">
<polygon fill="white" stroke="black" points="795.5,-58.5 795.5,-79.5 902.5,-79.5 902.5,-58.5 795.5,-58.5"/>
<text text-anchor="middle" x="849" y="-66.5" font-family="Helvetica,sans-Serif" font-size="10.00">HostArmTopaz.cpp</text>
</a>
</g>
<!-- Node9&#45;&gt;Node14 -->
<g id="edge28" class="edge"><title>Node9&#45;&gt;Node14</title>
<path fill="none" stroke="midnightblue" d="M805.808,-109.405C816.217,-99.6683 828.806,-87.8914 837.7,-79.5707"/>
<polygon fill="midnightblue" stroke="midnightblue" points="803.283,-106.974 798.372,-116.362 808.066,-112.086 803.283,-106.974"/>
</g>
<!-- Node15 -->
<g id="node30" class="node"><title>Node15</title>
<a xlink:href="HostArmUnknown_8cpp.htm" target="_top" xlink:title="HostArmUnknown.cpp">
<polygon fill="white" stroke="black" points="919.5,-58.5 919.5,-79.5 1040.5,-79.5 1040.5,-58.5 919.5,-58.5"/>
<text text-anchor="middle" x="980" y="-66.5" font-family="Helvetica,sans-Serif" font-size="10.00">HostArmUnknown.cpp</text>
</a>
</g>
<!-- Node9&#45;&gt;Node15 -->
<g id="edge30" class="edge"><title>Node9&#45;&gt;Node15</title>
<path fill="none" stroke="midnightblue" d="M829.558,-114.211C864.151,-103.815 912.369,-89.3243 944.809,-79.5754"/>
<polygon fill="midnightblue" stroke="midnightblue" points="828.309,-110.931 819.74,-117.161 830.324,-117.635 828.309,-110.931"/>
</g>
<!-- Node16 -->
<g id="node33" class="node"><title>Node16</title>
<a xlink:href="HostArmWindsorNot_8cpp.htm" target="_top" xlink:title="HostArmWindsorNot.cpp">
<polygon fill="white" stroke="black" points="126,-58.5 126,-79.5 258,-79.5 258,-58.5 126,-58.5"/>
<text text-anchor="middle" x="192" y="-66.5" font-family="Helvetica,sans-Serif" font-size="10.00">HostArmWindsorNot.cpp</text>
</a>
</g>
<!-- Node9&#45;&gt;Node16 -->
<g id="edge34" class="edge"><title>Node9&#45;&gt;Node16</title>
<path fill="none" stroke="midnightblue" d="M744.304,-115.964C533.738,-80.9002 475.876,-103.138 267,-80 264.122,-79.6812 261.185,-79.336 258.221,-78.9713"/>
<polygon fill="midnightblue" stroke="midnightblue" points="744.005,-119.463 754.448,-117.677 745.171,-112.561 744.005,-119.463"/>
</g>
<!-- Node15&#45;&gt;Node8 -->
<g id="edge32" class="edge"><title>Node15&#45;&gt;Node8</title>
<path fill="none" stroke="midnightblue" d="M1010.14,-53.9319C1030.41,-43.7932 1056.65,-30.6748 1074.76,-21.6212"/>
<polygon fill="midnightblue" stroke="midnightblue" points="1008.39,-50.8939 1001.01,-58.4966 1011.52,-57.1549 1008.39,-50.8939"/>
</g>
<!-- Node18 -->
<g id="node38" class="node"><title>Node18</title>
<a xlink:href="HostQtDesktop_8cpp.htm" target="_top" xlink:title="HostQtDesktop.cpp">
<polygon fill="white" stroke="black" points="0,-58.5 0,-79.5 108,-79.5 108,-58.5 0,-58.5"/>
<text text-anchor="middle" x="54" y="-66.5" font-family="Helvetica,sans-Serif" font-size="10.00">HostQtDesktop.cpp</text>
</a>
</g>
<!-- Node17&#45;&gt;Node18 -->
<g id="edge40" class="edge"><title>Node17&#45;&gt;Node18</title>
<path fill="none" stroke="midnightblue" d="M235.861,-114.077C193.883,-103.672 135.62,-89.2306 96.4551,-79.5231"/>
<polygon fill="midnightblue" stroke="midnightblue" points="235.076,-117.488 245.624,-116.497 236.76,-110.694 235.076,-117.488"/>
</g>
<!-- Node21&#45;&gt;Node20 -->
<g id="edge48" class="edge"><title>Node21&#45;&gt;Node20</title>
<path fill="none" stroke="midnightblue" d="M1247.41,-165.079C1243.43,-155.842 1238.86,-145.239 1235.56,-137.571"/>
<polygon fill="midnightblue" stroke="midnightblue" points="1244.24,-166.564 1251.41,-174.362 1250.67,-163.793 1244.24,-166.564"/>
</g>
<!-- Node22&#45;&gt;Node19 -->
<g id="edge56" class="edge"><title>Node22&#45;&gt;Node19</title>
<path fill="none" stroke="midnightblue" d="M1486.38,-226.895C1506.4,-213.041 1527.85,-192.434 1514,-174 1501.78,-157.726 1455.07,-145.269 1414.92,-137.281"/>
<polygon fill="midnightblue" stroke="midnightblue" points="1484.44,-223.984 1477.99,-232.393 1488.27,-229.839 1484.44,-223.984"/>
</g>
<!-- Node23 -->
<g id="node50" class="node"><title>Node23</title>
<a xlink:href="Localization_8cpp.htm" target="_top" xlink:title="Localization.cpp">
<polygon fill="white" stroke="black" points="1413,-174.5 1413,-195.5 1505,-195.5 1505,-174.5 1413,-174.5"/>
<text text-anchor="middle" x="1459" y="-182.5" font-family="Helvetica,sans-Serif" font-size="10.00">Localization.cpp</text>
</a>
</g>
<!-- Node22&#45;&gt;Node23 -->
<g id="edge54" class="edge"><title>Node22&#45;&gt;Node23</title>
<path fill="none" stroke="midnightblue" d="M1459,-222.191C1459,-213.168 1459,-202.994 1459,-195.571"/>
<polygon fill="midnightblue" stroke="midnightblue" points="1455.5,-222.362 1459,-232.362 1462.5,-222.362 1455.5,-222.362"/>
</g>
<!-- Node24&#45;&gt;Node7 -->
<g id="edge60" class="edge"><title>Node24&#45;&gt;Node7</title>
<path fill="none" stroke="midnightblue" d="M1386.41,-169.707C1412.09,-156.207 1440.04,-135.667 1423,-116 1404.31,-94.4361 1217.08,-77.9969 1134.64,-71.7454"/>
<polygon fill="midnightblue" stroke="midnightblue" points="1384.51,-166.742 1377.13,-174.347 1387.64,-173.002 1384.51,-166.742"/>
</g>
<!-- Node24&#45;&gt;Node19 -->
<g id="edge64" class="edge"><title>Node24&#45;&gt;Node19</title>
<path fill="none" stroke="midnightblue" d="M1352,-164.191C1352,-155.168 1352,-144.994 1352,-137.571"/>
<polygon fill="midnightblue" stroke="midnightblue" points="1348.5,-164.362 1352,-174.362 1355.5,-164.362 1348.5,-164.362"/>
</g>
<!-- Node24&#45;&gt;Node20 -->
<g id="edge66" class="edge"><title>Node24&#45;&gt;Node20</title>
<path fill="none" stroke="midnightblue" d="M1320.85,-170.069C1299.66,-159.912 1272.13,-146.716 1253.16,-137.621"/>
<polygon fill="midnightblue" stroke="midnightblue" points="1319.56,-173.33 1330.09,-174.497 1322.58,-167.018 1319.56,-173.33"/>
</g>
<!-- Node25 -->
<g id="node56" class="node"><title>Node25</title>
<a xlink:href="Logging_8cpp.htm" target="_top" xlink:title="Logging.cpp">
<polygon fill="white" stroke="black" points="1470,-116.5 1470,-137.5 1544,-137.5 1544,-116.5 1470,-116.5"/>
<text text-anchor="middle" x="1507" y="-124.5" font-family="Helvetica,sans-Serif" font-size="10.00">Logging.cpp</text>
</a>
</g>
<!-- Node24&#45;&gt;Node25 -->
<g id="edge62" class="edge"><title>Node24&#45;&gt;Node25</title>
<path fill="none" stroke="midnightblue" d="M1389.75,-170.874C1417.26,-160.582 1453.92,-146.862 1478.88,-137.523"/>
<polygon fill="midnightblue" stroke="midnightblue" points="1388.21,-167.714 1380.07,-174.497 1390.66,-174.27 1388.21,-167.714"/>
</g>
</g>
</svg>
