<?xml version="1.0" encoding="UTF-8" standalone="no"?>
<!DOCTYPE svg PUBLIC "-//W3C//DTD SVG 1.1//EN"
 "http://www.w3.org/Graphics/SVG/1.1/DTD/svg11.dtd">
<!-- Generated by graphviz version 2.26.3 (20100126.1600)
 -->
<!-- Title: Mutex.cpp Pages: 1 -->
<svg width="147pt" height="204pt"
 viewBox="0.00 0.00 147.00 204.00" xmlns="http://www.w3.org/2000/svg" xmlns:xlink="http://www.w3.org/1999/xlink">
<g id="graph1" class="graph" transform="scale(1 1) rotate(0) translate(4 200)">
<title>Mutex.cpp</title>
<polygon fill="white" stroke="white" points="-4,5 -4,-200 144,-200 144,5 -4,5"/>
<!-- Node1 -->
<g id="node1" class="node"><title>Node1</title>
<polygon fill="#bfbfbf" stroke="black" points="-0.5,-174.5 -0.5,-195.5 64.5,-195.5 64.5,-174.5 -0.5,-174.5"/>
<text text-anchor="middle" x="32" y="-182.5" font-family="Helvetica,sans-Serif" font-size="10.00">Mutex.cpp</text>
</g>
<!-- Node2 -->
<g id="node3" class="node"><title>Node2</title>
<a xlink:href="Common_8h.htm" target="_top" xlink:title="Common.h">
<polygon fill="white" stroke="black" points="1.5,-0.5 1.5,-21.5 68.5,-21.5 68.5,-0.5 1.5,-0.5"/>
<text text-anchor="middle" x="35" y="-8.5" font-family="Helvetica,sans-Serif" font-size="10.00">Common.h</text>
</a>
</g>
<!-- Node1&#45;&gt;Node2 -->
<g id="edge2" class="edge"><title>Node1&#45;&gt;Node2</title>
<path fill="none" stroke="midnightblue" d="M31.905,-174.243C31.8069,-160.668 31.7057,-136.602 32,-116 32.4172,-86.7867 33.4872,-53.0154 34.2295,-31.832"/>
<polygon fill="midnightblue" stroke="midnightblue" points="37.731,-31.8491 34.5922,-21.7299 30.7355,-31.5978 37.731,-31.8491"/>
</g>
<!-- Node3 -->
<g id="node5" class="node"><title>Node3</title>
<a xlink:href="Mutex_8h.htm" target="_top" xlink:title="Mutex.h">
<polygon fill="white" stroke="black" points="40.5,-116.5 40.5,-137.5 93.5,-137.5 93.5,-116.5 40.5,-116.5"/>
<text text-anchor="middle" x="67" y="-124.5" font-family="Helvetica,sans-Serif" font-size="10.00">Mutex.h</text>
</a>
</g>
<!-- Node1&#45;&gt;Node3 -->
<g id="edge4" class="edge"><title>Node1&#45;&gt;Node3</title>
<path fill="none" stroke="midnightblue" d="M38.4195,-174.362C43.1559,-166.513 49.7318,-155.616 55.382,-146.253"/>
<polygon fill="midnightblue" stroke="midnightblue" points="58.4511,-147.941 60.6212,-137.571 52.4578,-144.324 58.4511,-147.941"/>
</g>
<!-- Node3&#45;&gt;Node2 -->
<g id="edge6" class="edge"><title>Node3&#45;&gt;Node2</title>
<path fill="none" stroke="midnightblue" d="M64.0017,-116.174C61.3646,-106.648 57.4234,-92.4047 54,-80 49.5139,-63.7446 44.4442,-45.3317 40.6707,-31.6176"/>
<polygon fill="midnightblue" stroke="midnightblue" points="43.9853,-30.471 37.9581,-21.7576 37.2361,-32.3278 43.9853,-30.471"/>
</g>
<!-- Node4 -->
<g id="node8" class="node"><title>Node4</title>
<a xlink:href="sptr_8h.htm" target="_top" xlink:title="sptr.h">
<polygon fill="white" stroke="black" points="62.5,-58.5 62.5,-79.5 105.5,-79.5 105.5,-58.5 62.5,-58.5"/>
<text text-anchor="middle" x="84" y="-66.5" font-family="Helvetica,sans-Serif" font-size="10.00">sptr.h</text>
</a>
</g>
<!-- Node3&#45;&gt;Node4 -->
<g id="edge8" class="edge"><title>Node3&#45;&gt;Node4</title>
<path fill="none" stroke="midnightblue" d="M70.1181,-116.362C72.3227,-108.84 75.348,-98.5187 78.0117,-89.4308"/>
<polygon fill="midnightblue" stroke="midnightblue" points="81.4476,-90.1514 80.9017,-79.5707 74.7302,-88.1825 81.4476,-90.1514"/>
</g>
<!-- Node5 -->
<g id="node11" class="node"><title>Node5</title>
<polygon fill="white" stroke="#bfbfbf" points="98.5,-0.5 98.5,-21.5 139.5,-21.5 139.5,-0.5 98.5,-0.5"/>
<text text-anchor="middle" x="119" y="-8.5" font-family="Helvetica,sans-Serif" font-size="10.00">glib.h</text>
</g>
<!-- Node3&#45;&gt;Node5 -->
<g id="edge14" class="edge"><title>Node3&#45;&gt;Node5</title>
<path fill="none" stroke="midnightblue" d="M82.6062,-116.206C93.4703,-107.733 107.186,-94.9022 114,-80 120.857,-65.0032 121.797,-46.2457 121.195,-32.0749"/>
<polygon fill="midnightblue" stroke="midnightblue" points="124.668,-31.5781 120.465,-21.853 117.686,-32.077 124.668,-31.5781"/>
</g>
<!-- Node4&#45;&gt;Node2 -->
<g id="edge10" class="edge"><title>Node4&#45;&gt;Node2</title>
<path fill="none" stroke="midnightblue" d="M75.0126,-58.3619C68.1745,-50.2678 58.5976,-38.9318 50.5276,-29.3796"/>
<polygon fill="midnightblue" stroke="midnightblue" points="53.0575,-26.9508 43.9304,-21.5707 47.7103,-31.4683 53.0575,-26.9508"/>
</g>
<!-- Node4&#45;&gt;Node5 -->
<g id="edge12" class="edge"><title>Node4&#45;&gt;Node5</title>
<path fill="none" stroke="midnightblue" d="M90.4195,-58.3619C95.1559,-50.5131 101.732,-39.6159 107.382,-30.2527"/>
<polygon fill="midnightblue" stroke="midnightblue" points="110.451,-31.9409 112.621,-21.5707 104.458,-28.3242 110.451,-31.9409"/>
</g>
</g>
</svg>
