<?xml version="1.0" encoding="UTF-8" standalone="no"?>
<!DOCTYPE svg PUBLIC "-//W3C//DTD SVG 1.1//EN"
 "http://www.w3.org/Graphics/SVG/1.1/DTD/svg11.dtd">
<!-- Generated by graphviz version 2.26.3 (20100126.1600)
 -->
<!-- Title: NyxInputControl.h Pages: 1 -->
<svg width="179pt" height="146pt"
 viewBox="0.00 0.00 179.00 146.00" xmlns="http://www.w3.org/2000/svg" xmlns:xlink="http://www.w3.org/1999/xlink">
<g id="graph1" class="graph" transform="scale(1 1) rotate(0) translate(4 142)">
<title>NyxInputControl.h</title>
<polygon fill="white" stroke="white" points="-4,5 -4,-142 176,-142 176,5 -4,5"/>
<!-- Node1 -->
<g id="node1" class="node"><title>Node1</title>
<polygon fill="#bfbfbf" stroke="black" points="28.5,-116.5 28.5,-137.5 129.5,-137.5 129.5,-116.5 28.5,-116.5"/>
<text text-anchor="middle" x="79" y="-124.5" font-family="Helvetica,sans-Serif" font-size="10.00">NyxInputControl.h</text>
</g>
<!-- Node2 -->
<g id="node3" class="node"><title>Node2</title>
<a xlink:href="Common_8h.htm" target="_top" xlink:title="Common.h">
<polygon fill="white" stroke="black" points="-0.5,-58.5 -0.5,-79.5 66.5,-79.5 66.5,-58.5 -0.5,-58.5"/>
<text text-anchor="middle" x="33" y="-66.5" font-family="Helvetica,sans-Serif" font-size="10.00">Common.h</text>
</a>
</g>
<!-- Node1&#45;&gt;Node2 -->
<g id="edge2" class="edge"><title>Node1&#45;&gt;Node2</title>
<path fill="none" stroke="midnightblue" d="M70.5629,-116.362C64.2083,-108.35 55.3342,-97.1605 47.8069,-87.6696"/>
<polygon fill="midnightblue" stroke="midnightblue" points="50.3399,-85.2308 41.3836,-79.5707 44.8554,-89.5805 50.3399,-85.2308"/>
</g>
<!-- Node3 -->
<g id="node5" class="node"><title>Node3</title>
<a xlink:href="InputControl_8h.htm" target="_top" xlink:title="InputControl.h">
<polygon fill="white" stroke="black" points="83.5,-58.5 83.5,-79.5 166.5,-79.5 166.5,-58.5 83.5,-58.5"/>
<text text-anchor="middle" x="125" y="-66.5" font-family="Helvetica,sans-Serif" font-size="10.00">InputControl.h</text>
</a>
</g>
<!-- Node1&#45;&gt;Node3 -->
<g id="edge4" class="edge"><title>Node1&#45;&gt;Node3</title>
<path fill="none" stroke="midnightblue" d="M87.4371,-116.362C93.7917,-108.35 102.666,-97.1605 110.193,-87.6696"/>
<polygon fill="midnightblue" stroke="midnightblue" points="113.145,-89.5805 116.616,-79.5707 107.66,-85.2308 113.145,-89.5805"/>
</g>
<!-- Node4 -->
<g id="node7" class="node"><title>Node4</title>
<polygon fill="white" stroke="#bfbfbf" points="79,-0.5 79,-21.5 171,-21.5 171,-0.5 79,-0.5"/>
<text text-anchor="middle" x="125" y="-8.5" font-family="Helvetica,sans-Serif" font-size="10.00">nyx/nyx_client.h</text>
</g>
<!-- Node3&#45;&gt;Node4 -->
<g id="edge6" class="edge"><title>Node3&#45;&gt;Node4</title>
<path fill="none" stroke="midnightblue" d="M125,-58.3619C125,-50.9219 125,-40.7427 125,-31.7276"/>
<polygon fill="midnightblue" stroke="midnightblue" points="128.5,-31.5706 125,-21.5707 121.5,-31.5707 128.5,-31.5706"/>
</g>
</g>
</svg>
