<?xml version="1.0" encoding="UTF-8" standalone="no"?>
<!DOCTYPE svg PUBLIC "-//W3C//DTD SVG 1.1//EN"
 "http://www.w3.org/Graphics/SVG/1.1/DTD/svg11.dtd">
<!-- Generated by graphviz version 2.26.3 (20100126.1600)
 -->
<!-- Title: NyxInputControl.cpp Pages: 1 -->
<svg width="195pt" height="204pt"
 viewBox="0.00 0.00 195.00 204.00" xmlns="http://www.w3.org/2000/svg" xmlns:xlink="http://www.w3.org/1999/xlink">
<g id="graph1" class="graph" transform="scale(1 1) rotate(0) translate(4 200)">
<title>NyxInputControl.cpp</title>
<polygon fill="white" stroke="white" points="-4,5 -4,-200 192,-200 192,5 -4,5"/>
<!-- Node1 -->
<g id="node1" class="node"><title>Node1</title>
<polygon fill="#bfbfbf" stroke="black" points="67,-174.5 67,-195.5 179,-195.5 179,-174.5 67,-174.5"/>
<text text-anchor="middle" x="123" y="-182.5" font-family="Helvetica,sans-Serif" font-size="10.00">NyxInputControl.cpp</text>
</g>
<!-- Node2 -->
<g id="node3" class="node"><title>Node2</title>
<a xlink:href="NyxInputControl_8h.htm" target="_top" xlink:title="NyxInputControl.h">
<polygon fill="white" stroke="black" points="28.5,-116.5 28.5,-137.5 129.5,-137.5 129.5,-116.5 28.5,-116.5"/>
<text text-anchor="middle" x="79" y="-124.5" font-family="Helvetica,sans-Serif" font-size="10.00">NyxInputControl.h</text>
</a>
</g>
<!-- Node1&#45;&gt;Node2 -->
<g id="edge2" class="edge"><title>Node1&#45;&gt;Node2</title>
<path fill="none" stroke="midnightblue" d="M114.93,-174.362C108.851,-166.35 100.363,-155.161 93.1631,-145.67"/>
<polygon fill="midnightblue" stroke="midnightblue" points="95.8514,-143.422 87.0191,-137.571 90.2746,-147.653 95.8514,-143.422"/>
</g>
<!-- Node6 -->
<g id="node11" class="node"><title>Node6</title>
<polygon fill="white" stroke="#bfbfbf" points="146.5,-116.5 146.5,-137.5 187.5,-137.5 187.5,-116.5 146.5,-116.5"/>
<text text-anchor="middle" x="167" y="-124.5" font-family="Helvetica,sans-Serif" font-size="10.00">glib.h</text>
</g>
<!-- Node1&#45;&gt;Node6 -->
<g id="edge10" class="edge"><title>Node1&#45;&gt;Node6</title>
<path fill="none" stroke="midnightblue" d="M131.07,-174.362C137.149,-166.35 145.637,-155.161 152.837,-145.67"/>
<polygon fill="midnightblue" stroke="midnightblue" points="155.725,-147.653 158.981,-137.571 150.149,-143.422 155.725,-147.653"/>
</g>
<!-- Node3 -->
<g id="node5" class="node"><title>Node3</title>
<a xlink:href="Common_8h.htm" target="_top" xlink:title="Common.h">
<polygon fill="white" stroke="black" points="-0.5,-58.5 -0.5,-79.5 66.5,-79.5 66.5,-58.5 -0.5,-58.5"/>
<text text-anchor="middle" x="33" y="-66.5" font-family="Helvetica,sans-Serif" font-size="10.00">Common.h</text>
</a>
</g>
<!-- Node2&#45;&gt;Node3 -->
<g id="edge4" class="edge"><title>Node2&#45;&gt;Node3</title>
<path fill="none" stroke="midnightblue" d="M70.5629,-116.362C64.2083,-108.35 55.3342,-97.1605 47.8069,-87.6696"/>
<polygon fill="midnightblue" stroke="midnightblue" points="50.3399,-85.2308 41.3836,-79.5707 44.8554,-89.5805 50.3399,-85.2308"/>
</g>
<!-- Node4 -->
<g id="node7" class="node"><title>Node4</title>
<a xlink:href="InputControl_8h.htm" target="_top" xlink:title="InputControl.h">
<polygon fill="white" stroke="black" points="83.5,-58.5 83.5,-79.5 166.5,-79.5 166.5,-58.5 83.5,-58.5"/>
<text text-anchor="middle" x="125" y="-66.5" font-family="Helvetica,sans-Serif" font-size="10.00">InputControl.h</text>
</a>
</g>
<!-- Node2&#45;&gt;Node4 -->
<g id="edge6" class="edge"><title>Node2&#45;&gt;Node4</title>
<path fill="none" stroke="midnightblue" d="M87.4371,-116.362C93.7917,-108.35 102.666,-97.1605 110.193,-87.6696"/>
<polygon fill="midnightblue" stroke="midnightblue" points="113.145,-89.5805 116.616,-79.5707 107.66,-85.2308 113.145,-89.5805"/>
</g>
<!-- Node5 -->
<g id="node9" class="node"><title>Node5</title>
<polygon fill="white" stroke="#bfbfbf" points="79,-0.5 79,-21.5 171,-21.5 171,-0.5 79,-0.5"/>
<text text-anchor="middle" x="125" y="-8.5" font-family="Helvetica,sans-Serif" font-size="10.00">nyx/nyx_client.h</text>
</g>
<!-- Node4&#45;&gt;Node5 -->
<g id="edge8" class="edge"><title>Node4&#45;&gt;Node5</title>
<path fill="none" stroke="midnightblue" d="M125,-58.3619C125,-50.9219 125,-40.7427 125,-31.7276"/>
<polygon fill="midnightblue" stroke="midnightblue" points="128.5,-31.5706 125,-21.5707 121.5,-31.5707 128.5,-31.5706"/>
</g>
</g>
</svg>
