<?xml version="1.0" encoding="UTF-8" standalone="no"?>
<!DOCTYPE svg PUBLIC "-//W3C//DTD SVG 1.1//EN"
 "http://www.w3.org/Graphics/SVG/1.1/DTD/svg11.dtd">
<!-- Generated by graphviz version 2.26.3 (20100126.1600)
 -->
<!-- Title: NyxLedControl.cpp Pages: 1 -->
<svg width="278pt" height="146pt"
 viewBox="0.00 0.00 278.00 146.00" xmlns="http://www.w3.org/2000/svg" xmlns:xlink="http://www.w3.org/1999/xlink">
<g id="graph1" class="graph" transform="scale(1 1) rotate(0) translate(4 142)">
<title>NyxLedControl.cpp</title>
<polygon fill="white" stroke="white" points="-4,5 -4,-142 275,-142 275,5 -4,5"/>
<!-- Node1 -->
<g id="node1" class="node"><title>Node1</title>
<polygon fill="#bfbfbf" stroke="black" points="110.5,-116.5 110.5,-137.5 217.5,-137.5 217.5,-116.5 110.5,-116.5"/>
<text text-anchor="middle" x="164" y="-124.5" font-family="Helvetica,sans-Serif" font-size="10.00">NyxLedControl.cpp</text>
</g>
<!-- Node2 -->
<g id="node3" class="node"><title>Node2</title>
<a xlink:href="NyxLedControl_8h.htm" target="_top" xlink:title="NyxLedControl.h">
<polygon fill="white" stroke="black" points="74.5,-58.5 74.5,-79.5 169.5,-79.5 169.5,-58.5 74.5,-58.5"/>
<text text-anchor="middle" x="122" y="-66.5" font-family="Helvetica,sans-Serif" font-size="10.00">NyxLedControl.h</text>
</a>
</g>
<!-- Node1&#45;&gt;Node2 -->
<g id="edge2" class="edge"><title>Node1&#45;&gt;Node2</title>
<path fill="none" stroke="midnightblue" d="M156.297,-116.362C150.554,-108.431 142.557,-97.3885 135.73,-87.9606"/>
<polygon fill="midnightblue" stroke="midnightblue" points="138.355,-85.6173 129.655,-79.5707 132.685,-89.7229 138.355,-85.6173"/>
</g>
<!-- Node6 -->
<g id="node11" class="node"><title>Node6</title>
<polygon fill="white" stroke="#bfbfbf" points="186.5,-58.5 186.5,-79.5 227.5,-79.5 227.5,-58.5 186.5,-58.5"/>
<text text-anchor="middle" x="207" y="-66.5" font-family="Helvetica,sans-Serif" font-size="10.00">glib.h</text>
</g>
<!-- Node1&#45;&gt;Node6 -->
<g id="edge10" class="edge"><title>Node1&#45;&gt;Node6</title>
<path fill="none" stroke="midnightblue" d="M171.887,-116.362C177.827,-108.35 186.122,-97.1605 193.159,-87.6696"/>
<polygon fill="midnightblue" stroke="midnightblue" points="196.019,-89.6883 199.163,-79.5707 190.396,-85.5193 196.019,-89.6883"/>
</g>
<!-- Node3 -->
<g id="node5" class="node"><title>Node3</title>
<a xlink:href="Common_8h.htm" target="_top" xlink:title="Common.h">
<polygon fill="white" stroke="black" points="-0.5,-0.5 -0.5,-21.5 66.5,-21.5 66.5,-0.5 -0.5,-0.5"/>
<text text-anchor="middle" x="33" y="-8.5" font-family="Helvetica,sans-Serif" font-size="10.00">Common.h</text>
</a>
</g>
<!-- Node2&#45;&gt;Node3 -->
<g id="edge4" class="edge"><title>Node2&#45;&gt;Node3</title>
<path fill="none" stroke="midnightblue" d="M105.676,-58.3619C92.2522,-49.6138 73.0171,-37.0786 57.7074,-27.1015"/>
<polygon fill="midnightblue" stroke="midnightblue" points="59.5094,-24.0982 49.2205,-21.5707 55.6875,-29.9628 59.5094,-24.0982"/>
</g>
<!-- Node4 -->
<g id="node7" class="node"><title>Node4</title>
<a xlink:href="LedControl_8h.htm" target="_top" xlink:title="LedControl.h">
<polygon fill="white" stroke="black" points="83.5,-0.5 83.5,-21.5 160.5,-21.5 160.5,-0.5 83.5,-0.5"/>
<text text-anchor="middle" x="122" y="-8.5" font-family="Helvetica,sans-Serif" font-size="10.00">LedControl.h</text>
</a>
</g>
<!-- Node2&#45;&gt;Node4 -->
<g id="edge6" class="edge"><title>Node2&#45;&gt;Node4</title>
<path fill="none" stroke="midnightblue" d="M122,-58.3619C122,-50.9219 122,-40.7427 122,-31.7276"/>
<polygon fill="midnightblue" stroke="midnightblue" points="125.5,-31.5706 122,-21.5707 118.5,-31.5707 125.5,-31.5706"/>
</g>
<!-- Node5 -->
<g id="node9" class="node"><title>Node5</title>
<polygon fill="white" stroke="#bfbfbf" points="178,-0.5 178,-21.5 270,-21.5 270,-0.5 178,-0.5"/>
<text text-anchor="middle" x="224" y="-8.5" font-family="Helvetica,sans-Serif" font-size="10.00">nyx/nyx_client.h</text>
</g>
<!-- Node2&#45;&gt;Node5 -->
<g id="edge8" class="edge"><title>Node2&#45;&gt;Node5</title>
<path fill="none" stroke="midnightblue" d="M140.708,-58.3619C156.381,-49.4502 178.964,-36.6087 196.663,-26.5447"/>
<polygon fill="midnightblue" stroke="midnightblue" points="198.447,-29.5562 205.41,-21.5707 194.987,-23.4712 198.447,-29.5562"/>
</g>
</g>
</svg>
