<?xml version="1.0" encoding="UTF-8" standalone="no"?>
<!DOCTYPE svg PUBLIC "-//W3C//DTD SVG 1.1//EN"
 "http://www.w3.org/Graphics/SVG/1.1/DTD/svg11.dtd">
<!-- Generated by graphviz version 2.26.3 (20100126.1600)
 -->
<!-- Title: NyxSensorConnector.h Pages: 1 -->
<svg width="1016pt" height="204pt"
 viewBox="0.00 0.00 1016.00 204.00" xmlns="http://www.w3.org/2000/svg" xmlns:xlink="http://www.w3.org/1999/xlink">
<g id="graph1" class="graph" transform="scale(1 1) rotate(0) translate(4 200)">
<title>NyxSensorConnector.h</title>
<polygon fill="white" stroke="white" points="-4,5 -4,-200 1013,-200 1013,5 -4,5"/>
<!-- Node1 -->
<g id="node1" class="node"><title>Node1</title>
<polygon fill="#bfbfbf" stroke="black" points="480,-174.5 480,-195.5 606,-195.5 606,-174.5 480,-174.5"/>
<text text-anchor="middle" x="543" y="-182.5" font-family="Helvetica,sans-Serif" font-size="10.00">NyxSensorConnector.h</text>
</g>
<!-- Node2 -->
<g id="node3" class="node"><title>Node2</title>
<a xlink:href="HostArm_8h.htm" target="_top" xlink:title="HostArm.h">
<polygon fill="white" stroke="black" points="451.5,-116.5 451.5,-137.5 516.5,-137.5 516.5,-116.5 451.5,-116.5"/>
<text text-anchor="middle" x="484" y="-124.5" font-family="Helvetica,sans-Serif" font-size="10.00">HostArm.h</text>
</a>
</g>
<!-- Node1&#45;&gt;Node2 -->
<g id="edge2" class="edge"><title>Node1&#45;&gt;Node2</title>
<path fill="none" stroke="midnightblue" d="M524.81,-167.118C514.963,-157.438 503.134,-145.81 494.753,-137.571"/>
<polygon fill="midnightblue" stroke="midnightblue" points="522.594,-169.847 532.178,-174.362 527.501,-164.856 522.594,-169.847"/>
</g>
<!-- Node12 -->
<g id="node24" class="node"><title>Node12</title>
<a xlink:href="NyxSensorConnector_8cpp.htm" target="_top" xlink:title="NyxSensorConnector.cpp">
<polygon fill="white" stroke="black" points="533.5,-116.5 533.5,-137.5 670.5,-137.5 670.5,-116.5 533.5,-116.5"/>
<text text-anchor="middle" x="602" y="-124.5" font-family="Helvetica,sans-Serif" font-size="10.00">NyxSensorConnector.cpp</text>
</a>
</g>
<!-- Node1&#45;&gt;Node12 -->
<g id="edge24" class="edge"><title>Node1&#45;&gt;Node12</title>
<path fill="none" stroke="midnightblue" d="M561.19,-167.118C571.037,-157.438 582.866,-145.81 591.247,-137.571"/>
<polygon fill="midnightblue" stroke="midnightblue" points="558.499,-164.856 553.822,-174.362 563.406,-169.847 558.499,-164.856"/>
</g>
<!-- Node3 -->
<g id="node5" class="node"><title>Node3</title>
<a xlink:href="HostArm_8cpp.htm" target="_top" xlink:title="HostArm.cpp">
<polygon fill="white" stroke="black" points="-0.5,-58.5 -0.5,-79.5 76.5,-79.5 76.5,-58.5 -0.5,-58.5"/>
<text text-anchor="middle" x="38" y="-66.5" font-family="Helvetica,sans-Serif" font-size="10.00">HostArm.cpp</text>
</a>
</g>
<!-- Node2&#45;&gt;Node3 -->
<g id="edge4" class="edge"><title>Node2&#45;&gt;Node3</title>
<path fill="none" stroke="midnightblue" d="M441.286,-123.56C368.022,-117.305 213.834,-102.59 85,-80 82.2761,-79.5224 79.4734,-78.9851 76.6576,-78.4115"/>
<polygon fill="midnightblue" stroke="midnightblue" points="441.237,-127.068 451.496,-124.421 441.826,-120.093 441.237,-127.068"/>
</g>
<!-- Node5 -->
<g id="node9" class="node"><title>Node5</title>
<a xlink:href="HostArmBroadway_8cpp.htm" target="_top" xlink:title="HostArmBroadway.cpp">
<polygon fill="white" stroke="black" points="94,-58.5 94,-79.5 218,-79.5 218,-58.5 94,-58.5"/>
<text text-anchor="middle" x="156" y="-66.5" font-family="Helvetica,sans-Serif" font-size="10.00">HostArmBroadway.cpp</text>
</a>
</g>
<!-- Node2&#45;&gt;Node5 -->
<g id="edge8" class="edge"><title>Node2&#45;&gt;Node5</title>
<path fill="none" stroke="midnightblue" d="M441.489,-119.483C383.906,-109.3 280.832,-91.0739 215.559,-79.5317"/>
<polygon fill="midnightblue" stroke="midnightblue" points="440.894,-122.932 451.351,-121.227 442.113,-116.039 440.894,-122.932"/>
</g>
<!-- Node6 -->
<g id="node11" class="node"><title>Node6</title>
<a xlink:href="HostArmMantaray_8cpp.htm" target="_top" xlink:title="HostArmMantaray.cpp">
<polygon fill="white" stroke="black" points="236,-58.5 236,-79.5 358,-79.5 358,-58.5 236,-58.5"/>
<text text-anchor="middle" x="297" y="-66.5" font-family="Helvetica,sans-Serif" font-size="10.00">HostArmMantaray.cpp</text>
</a>
</g>
<!-- Node2&#45;&gt;Node6 -->
<g id="edge10" class="edge"><title>Node2&#45;&gt;Node6</title>
<path fill="none" stroke="midnightblue" d="M441.488,-113.814C408.068,-103.449 362.129,-89.2005 331.095,-79.5749"/>
<polygon fill="midnightblue" stroke="midnightblue" points="440.839,-117.278 451.427,-116.897 442.913,-110.592 440.839,-117.278"/>
</g>
<!-- Node7 -->
<g id="node13" class="node"><title>Node7</title>
<a xlink:href="HostArmOpal_8cpp.htm" target="_top" xlink:title="HostArmOpal.cpp">
<polygon fill="white" stroke="black" points="375.5,-58.5 375.5,-79.5 474.5,-79.5 474.5,-58.5 375.5,-58.5"/>
<text text-anchor="middle" x="425" y="-66.5" font-family="Helvetica,sans-Serif" font-size="10.00">HostArmOpal.cpp</text>
</a>
</g>
<!-- Node2&#45;&gt;Node7 -->
<g id="edge12" class="edge"><title>Node2&#45;&gt;Node7</title>
<path fill="none" stroke="midnightblue" d="M465.81,-109.118C455.963,-99.4377 444.134,-87.8098 435.753,-79.5707"/>
<polygon fill="midnightblue" stroke="midnightblue" points="463.594,-111.847 473.178,-116.362 468.501,-106.856 463.594,-111.847"/>
</g>
<!-- Node8 -->
<g id="node15" class="node"><title>Node8</title>
<a xlink:href="HostArmQemu_8cpp.htm" target="_top" xlink:title="HostArmQemu.cpp">
<polygon fill="white" stroke="black" points="492,-58.5 492,-79.5 596,-79.5 596,-58.5 492,-58.5"/>
<text text-anchor="middle" x="544" y="-66.5" font-family="Helvetica,sans-Serif" font-size="10.00">HostArmQemu.cpp</text>
</a>
</g>
<!-- Node2&#45;&gt;Node8 -->
<g id="edge14" class="edge"><title>Node2&#45;&gt;Node8</title>
<path fill="none" stroke="midnightblue" d="M502.202,-109.405C512.274,-99.6683 524.457,-87.8914 533.065,-79.5707"/>
<polygon fill="midnightblue" stroke="midnightblue" points="499.762,-106.895 495.005,-116.362 504.627,-111.928 499.762,-106.895"/>
</g>
<!-- Node9 -->
<g id="node17" class="node"><title>Node9</title>
<a xlink:href="HostArmTopaz_8cpp.htm" target="_top" xlink:title="HostArmTopaz.cpp">
<polygon fill="white" stroke="black" points="613.5,-58.5 613.5,-79.5 720.5,-79.5 720.5,-58.5 613.5,-58.5"/>
<text text-anchor="middle" x="667" y="-66.5" font-family="Helvetica,sans-Serif" font-size="10.00">HostArmTopaz.cpp</text>
</a>
</g>
<!-- Node2&#45;&gt;Node9 -->
<g id="edge16" class="edge"><title>Node2&#45;&gt;Node9</title>
<path fill="none" stroke="midnightblue" d="M526.436,-113.55C559.069,-103.208 603.526,-89.1175 633.639,-79.5733"/>
<polygon fill="midnightblue" stroke="midnightblue" points="525.192,-110.273 516.717,-116.631 527.307,-116.946 525.192,-110.273"/>
</g>
<!-- Node10 -->
<g id="node19" class="node"><title>Node10</title>
<a xlink:href="HostArmUnknown_8cpp.htm" target="_top" xlink:title="HostArmUnknown.cpp">
<polygon fill="white" stroke="black" points="737.5,-58.5 737.5,-79.5 858.5,-79.5 858.5,-58.5 737.5,-58.5"/>
<text text-anchor="middle" x="798" y="-66.5" font-family="Helvetica,sans-Serif" font-size="10.00">HostArmUnknown.cpp</text>
</a>
</g>
<!-- Node2&#45;&gt;Node10 -->
<g id="edge18" class="edge"><title>Node2&#45;&gt;Node10</title>
<path fill="none" stroke="midnightblue" d="M526.549,-115.824C577.867,-105.097 674.061,-89.0871 737.389,-78.7694"/>
<polygon fill="midnightblue" stroke="midnightblue" points="525.648,-112.438 516.608,-117.963 527.12,-119.282 525.648,-112.438"/>
</g>
<!-- Node11 -->
<g id="node22" class="node"><title>Node11</title>
<a xlink:href="HostArmWindsorNot_8cpp.htm" target="_top" xlink:title="HostArmWindsorNot.cpp">
<polygon fill="white" stroke="black" points="876,-58.5 876,-79.5 1008,-79.5 1008,-58.5 876,-58.5"/>
<text text-anchor="middle" x="942" y="-66.5" font-family="Helvetica,sans-Serif" font-size="10.00">HostArmWindsorNot.cpp</text>
</a>
</g>
<!-- Node2&#45;&gt;Node11 -->
<g id="edge22" class="edge"><title>Node2&#45;&gt;Node11</title>
<path fill="none" stroke="midnightblue" d="M526.635,-115.911C677.048,-88.5693 718.615,-98.6834 867,-80 869.873,-79.6383 872.805,-79.2576 875.767,-78.8637"/>
<polygon fill="midnightblue" stroke="midnightblue" points="525.768,-112.512 516.568,-117.767 527.037,-119.396 525.768,-112.512"/>
</g>
<!-- Node4 -->
<g id="node7" class="node"><title>Node4</title>
<a xlink:href="HostBase_8cpp.htm" target="_top" xlink:title="HostBase.cpp">
<polygon fill="white" stroke="black" points="377,-0.5 377,-21.5 459,-21.5 459,-0.5 377,-0.5"/>
<text text-anchor="middle" x="418" y="-8.5" font-family="Helvetica,sans-Serif" font-size="10.00">HostBase.cpp</text>
</a>
</g>
<!-- Node3&#45;&gt;Node4 -->
<g id="edge6" class="edge"><title>Node3&#45;&gt;Node4</title>
<path fill="none" stroke="midnightblue" d="M86.6102,-57.81C196.675,-37.5457 315.541,-22.726 376.794,-15.6099"/>
<polygon fill="midnightblue" stroke="midnightblue" points="85.8614,-54.3892 76.6705,-59.6596 87.1421,-61.271 85.8614,-54.3892"/>
</g>
<!-- Node10&#45;&gt;Node4 -->
<g id="edge20" class="edge"><title>Node10&#45;&gt;Node4</title>
<path fill="none" stroke="midnightblue" d="M727.245,-57.7354C625.149,-41.9154 516.926,-25.7137 459.268,-17.1279"/>
<polygon fill="midnightblue" stroke="midnightblue" points="727.004,-61.2397 737.422,-59.3142 728.077,-54.3225 727.004,-61.2397"/>
</g>
</g>
</svg>
