<?xml version="1.0" encoding="UTF-8" standalone="no"?>
<!DOCTYPE svg PUBLIC "-//W3C//DTD SVG 1.1//EN"
 "http://www.w3.org/Graphics/SVG/1.1/DTD/svg11.dtd">
<!-- Generated by graphviz version 2.26.3 (20100126.1600)
 -->
<!-- Title: NyxSensorConnector.cpp Pages: 1 -->
<svg width="1260pt" height="204pt"
 viewBox="0.00 0.00 1260.00 204.00" xmlns="http://www.w3.org/2000/svg" xmlns:xlink="http://www.w3.org/1999/xlink">
<g id="graph1" class="graph" transform="scale(1 1) rotate(0) translate(4 200)">
<title>NyxSensorConnector.cpp</title>
<polygon fill="white" stroke="white" points="-4,5 -4,-200 1257,-200 1257,5 -4,5"/>
<!-- Node1 -->
<g id="node1" class="node"><title>Node1</title>
<polygon fill="#bfbfbf" stroke="black" points="850.5,-174.5 850.5,-195.5 987.5,-195.5 987.5,-174.5 850.5,-174.5"/>
<text text-anchor="middle" x="919" y="-182.5" font-family="Helvetica,sans-Serif" font-size="10.00">NyxSensorConnector.cpp</text>
</g>
<!-- Node2 -->
<g id="node3" class="node"><title>Node2</title>
<a xlink:href="NyxSensorConnector_8h.htm" target="_top" xlink:title="NyxSensorConnector.h">
<polygon fill="white" stroke="black" points="267,-116.5 267,-137.5 393,-137.5 393,-116.5 267,-116.5"/>
<text text-anchor="middle" x="330" y="-124.5" font-family="Helvetica,sans-Serif" font-size="10.00">NyxSensorConnector.h</text>
</a>
</g>
<!-- Node1&#45;&gt;Node2 -->
<g id="edge2" class="edge"><title>Node1&#45;&gt;Node2</title>
<path fill="none" stroke="midnightblue" d="M850.281,-178.233C738.492,-167.225 518.23,-145.535 403.458,-134.234"/>
<polygon fill="midnightblue" stroke="midnightblue" points="403.655,-130.736 393.36,-133.239 402.969,-137.702 403.655,-130.736"/>
</g>
<!-- Node12 -->
<g id="node24" class="node"><title>Node12</title>
<a xlink:href="NyxSensorCommonTypes_8h.htm" target="_top" xlink:title="NyxSensorCommonTypes.h">
<polygon fill="white" stroke="black" points="780,-116.5 780,-137.5 928,-137.5 928,-116.5 780,-116.5"/>
<text text-anchor="middle" x="854" y="-124.5" font-family="Helvetica,sans-Serif" font-size="10.00">NyxSensorCommonTypes.h</text>
</a>
</g>
<!-- Node1&#45;&gt;Node12 -->
<g id="edge24" class="edge"><title>Node1&#45;&gt;Node12</title>
<path fill="none" stroke="midnightblue" d="M907.078,-174.362C897.641,-165.941 884.27,-154.011 873.31,-144.231"/>
<polygon fill="midnightblue" stroke="midnightblue" points="875.638,-141.617 865.846,-137.571 870.978,-146.84 875.638,-141.617"/>
</g>
<!-- Node13 -->
<g id="node26" class="node"><title>Node13</title>
<a xlink:href="Settings_8h.htm" target="_top" xlink:title="Settings.h">
<polygon fill="white" stroke="black" points="661.5,-116.5 661.5,-137.5 724.5,-137.5 724.5,-116.5 661.5,-116.5"/>
<text text-anchor="middle" x="693" y="-124.5" font-family="Helvetica,sans-Serif" font-size="10.00">Settings.h</text>
</a>
</g>
<!-- Node1&#45;&gt;Node13 -->
<g id="edge26" class="edge"><title>Node1&#45;&gt;Node13</title>
<path fill="none" stroke="midnightblue" d="M878.073,-174.497C837.383,-164.054 775.293,-148.119 734.428,-137.632"/>
<polygon fill="midnightblue" stroke="midnightblue" points="735.078,-134.185 724.522,-135.09 733.338,-140.966 735.078,-134.185"/>
</g>
<!-- Node15 -->
<g id="node33" class="node"><title>Node15</title>
<polygon fill="white" stroke="#bfbfbf" points="844.5,-58.5 844.5,-79.5 885.5,-79.5 885.5,-58.5 844.5,-58.5"/>
<text text-anchor="middle" x="865" y="-66.5" font-family="Helvetica,sans-Serif" font-size="10.00">glib.h</text>
</g>
<!-- Node1&#45;&gt;Node15 -->
<g id="edge50" class="edge"><title>Node1&#45;&gt;Node15</title>
<path fill="none" stroke="midnightblue" d="M863.423,-174.442C826.291,-166.129 782.262,-153.393 771,-138 765.226,-130.109 765.86,-124.317 771,-116 774.759,-109.918 809.157,-93.6628 835.264,-81.9731"/>
<polygon fill="midnightblue" stroke="midnightblue" points="836.716,-85.1578 844.435,-77.9002 833.875,-78.7603 836.716,-85.1578"/>
</g>
<!-- Node18 -->
<g id="node39" class="node"><title>Node18</title>
<polygon fill="white" stroke="#bfbfbf" points="945.5,-116.5 945.5,-137.5 1022.5,-137.5 1022.5,-116.5 945.5,-116.5"/>
<text text-anchor="middle" x="984" y="-124.5" font-family="Helvetica,sans-Serif" font-size="10.00">QApplication</text>
</g>
<!-- Node1&#45;&gt;Node18 -->
<g id="edge42" class="edge"><title>Node1&#45;&gt;Node18</title>
<path fill="none" stroke="midnightblue" d="M930.922,-174.362C940.359,-165.941 953.73,-154.011 964.69,-144.231"/>
<polygon fill="midnightblue" stroke="midnightblue" points="967.022,-146.84 972.154,-137.571 962.362,-141.617 967.022,-146.84"/>
</g>
<!-- Node19 -->
<g id="node41" class="node"><title>Node19</title>
<polygon fill="white" stroke="#bfbfbf" points="1040,-116.5 1040,-137.5 1098,-137.5 1098,-116.5 1040,-116.5"/>
<text text-anchor="middle" x="1069" y="-124.5" font-family="Helvetica,sans-Serif" font-size="10.00">QWidget</text>
</g>
<!-- Node1&#45;&gt;Node19 -->
<g id="edge44" class="edge"><title>Node1&#45;&gt;Node19</title>
<path fill="none" stroke="midnightblue" d="M946.164,-174.497C970.3,-165.164 1005.78,-151.445 1032.41,-141.147"/>
<polygon fill="midnightblue" stroke="midnightblue" points="1033.72,-144.394 1041.79,-137.523 1031.2,-137.865 1033.72,-144.394"/>
</g>
<!-- Node20 -->
<g id="node43" class="node"><title>Node20</title>
<polygon fill="white" stroke="#bfbfbf" points="1116,-116.5 1116,-137.5 1162,-137.5 1162,-116.5 1116,-116.5"/>
<text text-anchor="middle" x="1139" y="-124.5" font-family="Helvetica,sans-Serif" font-size="10.00">QMap</text>
</g>
<!-- Node1&#45;&gt;Node20 -->
<g id="edge46" class="edge"><title>Node1&#45;&gt;Node20</title>
<path fill="none" stroke="midnightblue" d="M966.045,-174.425C1002.02,-166.072 1053.01,-153.658 1105.79,-138.205"/>
<polygon fill="midnightblue" stroke="midnightblue" points="1107.06,-141.478 1115.66,-135.284 1105.07,-134.765 1107.06,-141.478"/>
</g>
<!-- Node21 -->
<g id="node45" class="node"><title>Node21</title>
<polygon fill="white" stroke="#bfbfbf" points="1180,-116.5 1180,-137.5 1252,-137.5 1252,-116.5 1180,-116.5"/>
<text text-anchor="middle" x="1216" y="-124.5" font-family="Helvetica,sans-Serif" font-size="10.00">cjson/json.h</text>
</g>
<!-- Node1&#45;&gt;Node21 -->
<g id="edge48" class="edge"><title>Node1&#45;&gt;Node21</title>
<path fill="none" stroke="midnightblue" d="M980.811,-174.456C1029.65,-165.9 1099.75,-153.122 1169.81,-138.181"/>
<polygon fill="midnightblue" stroke="midnightblue" points="1170.65,-141.58 1179.69,-136.058 1169.18,-134.736 1170.65,-141.58"/>
</g>
<!-- Node3 -->
<g id="node5" class="node"><title>Node3</title>
<polygon fill="white" stroke="#bfbfbf" points="237,-58.5 237,-79.5 285,-79.5 285,-58.5 237,-58.5"/>
<text text-anchor="middle" x="261" y="-66.5" font-family="Helvetica,sans-Serif" font-size="10.00">limits.h</text>
</g>
<!-- Node2&#45;&gt;Node3 -->
<g id="edge4" class="edge"><title>Node2&#45;&gt;Node3</title>
<path fill="none" stroke="midnightblue" d="M317.344,-116.362C307.326,-107.941 293.133,-96.0105 281.499,-86.2308"/>
<polygon fill="midnightblue" stroke="midnightblue" points="283.482,-83.326 273.575,-79.5707 278.978,-88.6844 283.482,-83.326"/>
</g>
<!-- Node4 -->
<g id="node7" class="node"><title>Node4</title>
<polygon fill="white" stroke="#bfbfbf" points="302.5,-58.5 302.5,-79.5 357.5,-79.5 357.5,-58.5 302.5,-58.5"/>
<text text-anchor="middle" x="330" y="-66.5" font-family="Helvetica,sans-Serif" font-size="10.00">QObject</text>
</g>
<!-- Node2&#45;&gt;Node4 -->
<g id="edge6" class="edge"><title>Node2&#45;&gt;Node4</title>
<path fill="none" stroke="midnightblue" d="M330,-116.362C330,-108.922 330,-98.7427 330,-89.7276"/>
<polygon fill="midnightblue" stroke="midnightblue" points="333.5,-89.5706 330,-79.5707 326.5,-89.5707 333.5,-89.5706"/>
</g>
<!-- Node5 -->
<g id="node9" class="node"><title>Node5</title>
<polygon fill="white" stroke="#bfbfbf" points="374.5,-58.5 374.5,-79.5 465.5,-79.5 465.5,-58.5 374.5,-58.5"/>
<text text-anchor="middle" x="420" y="-66.5" font-family="Helvetica,sans-Serif" font-size="10.00">QSocketNotifier</text>
</g>
<!-- Node2&#45;&gt;Node5 -->
<g id="edge8" class="edge"><title>Node2&#45;&gt;Node5</title>
<path fill="none" stroke="midnightblue" d="M346.507,-116.362C360.082,-107.614 379.533,-95.0786 395.015,-85.1015"/>
<polygon fill="midnightblue" stroke="midnightblue" points="397.088,-87.9297 403.597,-79.5707 393.296,-82.0457 397.088,-87.9297"/>
</g>
<!-- Node6 -->
<g id="node11" class="node"><title>Node6</title>
<polygon fill="white" stroke="#bfbfbf" points="0,-0.5 0,-21.5 52,-21.5 52,-0.5 0,-0.5"/>
<text text-anchor="middle" x="26" y="-8.5" font-family="Helvetica,sans-Serif" font-size="10.00">QEvent</text>
</g>
<!-- Node2&#45;&gt;Node6 -->
<g id="edge10" class="edge"><title>Node2&#45;&gt;Node6</title>
<path fill="none" stroke="midnightblue" d="M266.849,-122.179C177.913,-114.74 24.674,-99.2845 8,-80 -3.93579,-66.1956 3.84175,-45.4114 12.5879,-30.2623"/>
<polygon fill="midnightblue" stroke="midnightblue" points="15.6301,-31.9992 17.9911,-21.6708 9.70453,-28.2726 15.6301,-31.9992"/>
</g>
<!-- Node7 -->
<g id="node13" class="node"><title>Node7</title>
<polygon fill="white" stroke="#bfbfbf" points="543,-58.5 543,-79.5 589,-79.5 589,-58.5 543,-58.5"/>
<text text-anchor="middle" x="566" y="-66.5" font-family="Helvetica,sans-Serif" font-size="10.00">vector</text>
</g>
<!-- Node2&#45;&gt;Node7 -->
<g id="edge12" class="edge"><title>Node2&#45;&gt;Node7</title>
<path fill="none" stroke="midnightblue" d="M382.796,-116.423C421.947,-108.219 476.765,-95.9809 532.915,-80.1234"/>
<polygon fill="midnightblue" stroke="midnightblue" points="534.018,-83.4484 542.671,-77.335 532.094,-76.718 534.018,-83.4484"/>
</g>
<!-- Node8 -->
<g id="node15" class="node"><title>Node8</title>
<polygon fill="white" stroke="#bfbfbf" points="482.5,-58.5 482.5,-79.5 525.5,-79.5 525.5,-58.5 482.5,-58.5"/>
<text text-anchor="middle" x="504" y="-66.5" font-family="Helvetica,sans-Serif" font-size="10.00">string</text>
</g>
<!-- Node2&#45;&gt;Node8 -->
<g id="edge14" class="edge"><title>Node2&#45;&gt;Node8</title>
<path fill="none" stroke="midnightblue" d="M363.575,-116.418C390.776,-107.762 430.304,-94.9954 472.731,-80.3727"/>
<polygon fill="midnightblue" stroke="midnightblue" points="474.099,-83.6032 482.403,-77.0241 471.808,-76.9884 474.099,-83.6032"/>
</g>
<!-- Node9 -->
<g id="node17" class="node"><title>Node9</title>
<polygon fill="white" stroke="#bfbfbf" points="127,-58.5 127,-79.5 219,-79.5 219,-58.5 127,-58.5"/>
<text text-anchor="middle" x="173" y="-66.5" font-family="Helvetica,sans-Serif" font-size="10.00">nyx/nyx_client.h</text>
</g>
<!-- Node2&#45;&gt;Node9 -->
<g id="edge16" class="edge"><title>Node2&#45;&gt;Node9</title>
<path fill="none" stroke="midnightblue" d="M301.568,-116.497C276.195,-107.123 238.843,-93.3242 210.93,-83.0122"/>
<polygon fill="midnightblue" stroke="midnightblue" points="212.078,-79.7054 201.485,-79.5231 209.652,-86.2716 212.078,-79.7054"/>
</g>
<!-- Node10 -->
<g id="node19" class="node"><title>Node10</title>
<a xlink:href="CustomEvents_8h.htm" target="_top" xlink:title="CustomEvents.h">
<polygon fill="white" stroke="black" points="17,-58.5 17,-79.5 109,-79.5 109,-58.5 17,-58.5"/>
<text text-anchor="middle" x="63" y="-66.5" font-family="Helvetica,sans-Serif" font-size="10.00">CustomEvents.h</text>
</a>
</g>
<!-- Node2&#45;&gt;Node10 -->
<g id="edge18" class="edge"><title>Node2&#45;&gt;Node10</title>
<path fill="none" stroke="midnightblue" d="M281.648,-116.497C235.911,-106.561 167.289,-91.6546 119.151,-81.1976"/>
<polygon fill="midnightblue" stroke="midnightblue" points="119.721,-77.7398 109.205,-79.0371 118.235,-84.5802 119.721,-77.7398"/>
</g>
<!-- Node10&#45;&gt;Node6 -->
<g id="edge22" class="edge"><title>Node10&#45;&gt;Node6</title>
<path fill="none" stroke="midnightblue" d="M56.2136,-58.3619C51.2066,-50.5131 44.255,-39.6159 38.2819,-30.2527"/>
<polygon fill="midnightblue" stroke="midnightblue" points="41.0723,-28.1189 32.7433,-21.5707 35.1708,-31.8837 41.0723,-28.1189"/>
</g>
<!-- Node11 -->
<g id="node21" class="node"><title>Node11</title>
<a xlink:href="Common_8h.htm" target="_top" xlink:title="Common.h">
<polygon fill="white" stroke="black" points="364.5,-0.5 364.5,-21.5 431.5,-21.5 431.5,-0.5 364.5,-0.5"/>
<text text-anchor="middle" x="398" y="-8.5" font-family="Helvetica,sans-Serif" font-size="10.00">Common.h</text>
</a>
</g>
<!-- Node10&#45;&gt;Node11 -->
<g id="edge20" class="edge"><title>Node10&#45;&gt;Node11</title>
<path fill="none" stroke="midnightblue" d="M109.193,-59.653C112.172,-59.0839 115.127,-58.5283 118,-58 201.344,-42.6745 299.025,-26.7362 354.2,-17.92"/>
<polygon fill="midnightblue" stroke="midnightblue" points="354.998,-21.337 364.322,-16.3062 353.896,-14.4242 354.998,-21.337"/>
</g>
<!-- Node13&#45;&gt;Node7 -->
<g id="edge32" class="edge"><title>Node13&#45;&gt;Node7</title>
<path fill="none" stroke="midnightblue" d="M670.001,-116.497C649.987,-107.356 620.759,-94.0082 598.381,-83.7883"/>
<polygon fill="midnightblue" stroke="midnightblue" points="599.807,-80.5918 589.257,-79.6212 596.899,-86.9592 599.807,-80.5918"/>
</g>
<!-- Node13&#45;&gt;Node8 -->
<g id="edge30" class="edge"><title>Node13&#45;&gt;Node8</title>
<path fill="none" stroke="midnightblue" d="M661.44,-118.315C631.237,-109.862 584.208,-96.3341 535.361,-80.3302"/>
<polygon fill="midnightblue" stroke="midnightblue" points="536.165,-76.9098 525.572,-77.0971 533.97,-83.5567 536.165,-76.9098"/>
</g>
<!-- Node13&#45;&gt;Node11 -->
<g id="edge28" class="edge"><title>Node13&#45;&gt;Node11</title>
<path fill="none" stroke="midnightblue" d="M693.356,-116.334C693.241,-101.021 690.585,-73.0041 674,-58 640.572,-27.759 510.7,-16.6667 441.684,-12.8503"/>
<polygon fill="midnightblue" stroke="midnightblue" points="441.728,-9.34783 431.558,-12.3185 441.36,-16.3382 441.728,-9.34783"/>
</g>
<!-- Node14 -->
<g id="node31" class="node"><title>Node14</title>
<polygon fill="white" stroke="#bfbfbf" points="720.5,-58.5 720.5,-79.5 751.5,-79.5 751.5,-58.5 720.5,-58.5"/>
<text text-anchor="middle" x="736" y="-66.5" font-family="Helvetica,sans-Serif" font-size="10.00">set</text>
</g>
<!-- Node13&#45;&gt;Node14 -->
<g id="edge34" class="edge"><title>Node13&#45;&gt;Node14</title>
<path fill="none" stroke="midnightblue" d="M700.887,-116.362C706.827,-108.35 715.122,-97.1605 722.159,-87.6696"/>
<polygon fill="midnightblue" stroke="midnightblue" points="725.019,-89.6883 728.163,-79.5707 719.396,-85.5193 725.019,-89.6883"/>
</g>
<!-- Node13&#45;&gt;Node15 -->
<g id="edge36" class="edge"><title>Node13&#45;&gt;Node15</title>
<path fill="none" stroke="midnightblue" d="M724.662,-117.044C751.745,-108.429 791.964,-95.402 834.945,-80.2867"/>
<polygon fill="midnightblue" stroke="midnightblue" points="836.186,-83.5604 844.447,-76.9267 833.852,-76.9609 836.186,-83.5604"/>
</g>
<!-- Node16 -->
<g id="node35" class="node"><title>Node16</title>
<polygon fill="white" stroke="#bfbfbf" points="769,-58.5 769,-79.5 827,-79.5 827,-58.5 769,-58.5"/>
<text text-anchor="middle" x="798" y="-66.5" font-family="Helvetica,sans-Serif" font-size="10.00">QtGlobal</text>
</g>
<!-- Node13&#45;&gt;Node16 -->
<g id="edge38" class="edge"><title>Node13&#45;&gt;Node16</title>
<path fill="none" stroke="midnightblue" d="M712.259,-116.362C728.466,-107.409 751.853,-94.4908 770.109,-84.4064"/>
<polygon fill="midnightblue" stroke="midnightblue" points="771.802,-87.4696 778.863,-79.5707 768.418,-81.3422 771.802,-87.4696"/>
</g>
<!-- Node17 -->
<g id="node37" class="node"><title>Node17</title>
<polygon fill="white" stroke="#bfbfbf" points="606.5,-58.5 606.5,-79.5 665.5,-79.5 665.5,-58.5 606.5,-58.5"/>
<text text-anchor="middle" x="636" y="-66.5" font-family="Helvetica,sans-Serif" font-size="10.00">QVariant</text>
</g>
<!-- Node13&#45;&gt;Node17 -->
<g id="edge40" class="edge"><title>Node13&#45;&gt;Node17</title>
<path fill="none" stroke="midnightblue" d="M682.545,-116.362C674.43,-108.104 662.999,-96.4725 653.496,-86.8029"/>
<polygon fill="midnightblue" stroke="midnightblue" points="655.894,-84.2497 646.388,-79.5707 650.901,-89.1562 655.894,-84.2497"/>
</g>
</g>
</svg>
