<?xml version="1.0" encoding="UTF-8" standalone="no"?>
<!DOCTYPE svg PUBLIC "-//W3C//DTD SVG 1.1//EN"
 "http://www.w3.org/Graphics/SVG/1.1/DTD/svg11.dtd">
<!-- Generated by graphviz version 2.26.3 (20100126.1600)
 -->
<!-- Title: NyxSensorConnector.h Pages: 1 -->
<svg width="618pt" height="146pt"
 viewBox="0.00 0.00 618.00 146.00" xmlns="http://www.w3.org/2000/svg" xmlns:xlink="http://www.w3.org/1999/xlink">
<g id="graph1" class="graph" transform="scale(1 1) rotate(0) translate(4 142)">
<title>NyxSensorConnector.h</title>
<polygon fill="white" stroke="white" points="-4,5 -4,-142 615,-142 615,5 -4,5"/>
<!-- Node1 -->
<g id="node1" class="node"><title>Node1</title>
<polygon fill="#bfbfbf" stroke="black" points="218,-116.5 218,-137.5 344,-137.5 344,-116.5 218,-116.5"/>
<text text-anchor="middle" x="281" y="-124.5" font-family="Helvetica,sans-Serif" font-size="10.00">NyxSensorConnector.h</text>
</g>
<!-- Node2 -->
<g id="node3" class="node"><title>Node2</title>
<polygon fill="white" stroke="#bfbfbf" points="0,-58.5 0,-79.5 48,-79.5 48,-58.5 0,-58.5"/>
<text text-anchor="middle" x="24" y="-66.5" font-family="Helvetica,sans-Serif" font-size="10.00">limits.h</text>
</g>
<!-- Node1&#45;&gt;Node2 -->
<g id="edge2" class="edge"><title>Node1&#45;&gt;Node2</title>
<path fill="none" stroke="midnightblue" d="M221.606,-116.466C178.509,-108.382 118.682,-96.2559 57.8265,-80.0148"/>
<polygon fill="midnightblue" stroke="midnightblue" points="58.6201,-76.6037 48.0532,-77.3728 56.7933,-83.3612 58.6201,-76.6037"/>
</g>
<!-- Node3 -->
<g id="node5" class="node"><title>Node3</title>
<polygon fill="white" stroke="#bfbfbf" points="65.5,-58.5 65.5,-79.5 120.5,-79.5 120.5,-58.5 65.5,-58.5"/>
<text text-anchor="middle" x="93" y="-66.5" font-family="Helvetica,sans-Serif" font-size="10.00">QObject</text>
</g>
<!-- Node1&#45;&gt;Node3 -->
<g id="edge4" class="edge"><title>Node1&#45;&gt;Node3</title>
<path fill="none" stroke="midnightblue" d="M246.955,-116.497C214.018,-106.335 164.226,-90.974 130.247,-80.4912"/>
<polygon fill="midnightblue" stroke="midnightblue" points="131.266,-77.1427 120.678,-77.5391 129.202,-83.8316 131.266,-77.1427"/>
</g>
<!-- Node4 -->
<g id="node7" class="node"><title>Node4</title>
<polygon fill="white" stroke="#bfbfbf" points="137.5,-58.5 137.5,-79.5 228.5,-79.5 228.5,-58.5 137.5,-58.5"/>
<text text-anchor="middle" x="183" y="-66.5" font-family="Helvetica,sans-Serif" font-size="10.00">QSocketNotifier</text>
</g>
<!-- Node1&#45;&gt;Node4 -->
<g id="edge6" class="edge"><title>Node1&#45;&gt;Node4</title>
<path fill="none" stroke="midnightblue" d="M263.025,-116.362C248.106,-107.532 226.667,-94.844 209.734,-84.8224"/>
<polygon fill="midnightblue" stroke="midnightblue" points="211.249,-81.6519 200.861,-79.5707 207.684,-87.6759 211.249,-81.6519"/>
</g>
<!-- Node5 -->
<g id="node9" class="node"><title>Node5</title>
<polygon fill="white" stroke="#bfbfbf" points="345,-0.5 345,-21.5 397,-21.5 397,-0.5 345,-0.5"/>
<text text-anchor="middle" x="371" y="-8.5" font-family="Helvetica,sans-Serif" font-size="10.00">QEvent</text>
</g>
<!-- Node1&#45;&gt;Node5 -->
<g id="edge8" class="edge"><title>Node1&#45;&gt;Node5</title>
<path fill="none" stroke="midnightblue" d="M276.327,-116.257C270.835,-101.835 263.799,-75.9555 275,-58 288.058,-37.0684 313.444,-25.2017 334.832,-18.6297"/>
<polygon fill="midnightblue" stroke="midnightblue" points="335.939,-21.9543 344.628,-15.8907 334.054,-15.2128 335.939,-21.9543"/>
</g>
<!-- Node6 -->
<g id="node11" class="node"><title>Node6</title>
<polygon fill="white" stroke="#bfbfbf" points="284,-58.5 284,-79.5 330,-79.5 330,-58.5 284,-58.5"/>
<text text-anchor="middle" x="307" y="-66.5" font-family="Helvetica,sans-Serif" font-size="10.00">vector</text>
</g>
<!-- Node1&#45;&gt;Node6 -->
<g id="edge10" class="edge"><title>Node1&#45;&gt;Node6</title>
<path fill="none" stroke="midnightblue" d="M285.769,-116.362C289.214,-108.677 293.969,-98.0686 298.106,-88.8399"/>
<polygon fill="midnightblue" stroke="midnightblue" points="301.365,-90.1275 302.261,-79.5707 294.977,-87.264 301.365,-90.1275"/>
</g>
<!-- Node7 -->
<g id="node13" class="node"><title>Node7</title>
<polygon fill="white" stroke="#bfbfbf" points="347.5,-58.5 347.5,-79.5 390.5,-79.5 390.5,-58.5 347.5,-58.5"/>
<text text-anchor="middle" x="369" y="-66.5" font-family="Helvetica,sans-Serif" font-size="10.00">string</text>
</g>
<!-- Node1&#45;&gt;Node7 -->
<g id="edge12" class="edge"><title>Node1&#45;&gt;Node7</title>
<path fill="none" stroke="midnightblue" d="M297.141,-116.362C310.414,-107.614 329.432,-95.0786 344.57,-85.1015"/>
<polygon fill="midnightblue" stroke="midnightblue" points="346.538,-87.9962 352.962,-79.5707 342.686,-82.1515 346.538,-87.9962"/>
</g>
<!-- Node8 -->
<g id="node15" class="node"><title>Node8</title>
<polygon fill="white" stroke="#bfbfbf" points="408,-58.5 408,-79.5 500,-79.5 500,-58.5 408,-58.5"/>
<text text-anchor="middle" x="454" y="-66.5" font-family="Helvetica,sans-Serif" font-size="10.00">nyx/nyx_client.h</text>
</g>
<!-- Node1&#45;&gt;Node8 -->
<g id="edge14" class="edge"><title>Node1&#45;&gt;Node8</title>
<path fill="none" stroke="midnightblue" d="M312.329,-116.497C340.533,-107.041 382.167,-93.0829 413.009,-82.7428"/>
<polygon fill="midnightblue" stroke="midnightblue" points="414.243,-86.0203 422.612,-79.5231 412.018,-79.3834 414.243,-86.0203"/>
</g>
<!-- Node9 -->
<g id="node17" class="node"><title>Node9</title>
<a xlink:href="CustomEvents_8h.htm" target="_top" xlink:title="CustomEvents.h">
<polygon fill="white" stroke="black" points="518,-58.5 518,-79.5 610,-79.5 610,-58.5 518,-58.5"/>
<text text-anchor="middle" x="564" y="-66.5" font-family="Helvetica,sans-Serif" font-size="10.00">CustomEvents.h</text>
</a>
</g>
<!-- Node1&#45;&gt;Node9 -->
<g id="edge16" class="edge"><title>Node1&#45;&gt;Node9</title>
<path fill="none" stroke="midnightblue" d="M332.249,-116.497C381.826,-106.336 456.771,-90.9763 507.92,-80.4935"/>
<polygon fill="midnightblue" stroke="midnightblue" points="508.724,-83.9015 517.817,-78.465 507.318,-77.0441 508.724,-83.9015"/>
</g>
<!-- Node9&#45;&gt;Node5 -->
<g id="edge20" class="edge"><title>Node9&#45;&gt;Node5</title>
<path fill="none" stroke="midnightblue" d="M529.049,-58.4966C494.445,-48.0976 441.719,-32.2525 406.817,-21.7637"/>
<polygon fill="midnightblue" stroke="midnightblue" points="407.621,-18.3507 397.037,-18.8245 405.606,-25.0545 407.621,-18.3507"/>
</g>
<!-- Node10 -->
<g id="node19" class="node"><title>Node10</title>
<a xlink:href="Common_8h.htm" target="_top" xlink:title="Common.h">
<polygon fill="white" stroke="black" points="530.5,-0.5 530.5,-21.5 597.5,-21.5 597.5,-0.5 530.5,-0.5"/>
<text text-anchor="middle" x="564" y="-8.5" font-family="Helvetica,sans-Serif" font-size="10.00">Common.h</text>
</a>
</g>
<!-- Node9&#45;&gt;Node10 -->
<g id="edge18" class="edge"><title>Node9&#45;&gt;Node10</title>
<path fill="none" stroke="midnightblue" d="M564,-58.3619C564,-50.9219 564,-40.7427 564,-31.7276"/>
<polygon fill="midnightblue" stroke="midnightblue" points="567.5,-31.5706 564,-21.5707 560.5,-31.5707 567.5,-31.5706"/>
</g>
</g>
</svg>
