<?xml version="1.0" encoding="UTF-8" standalone="no"?>
<!DOCTYPE svg PUBLIC "-//W3C//DTD SVG 1.1//EN"
 "http://www.w3.org/Graphics/SVG/1.1/DTD/svg11.dtd">
<!-- Generated by graphviz version 2.26.3 (20100126.1600)
 -->
<!-- Title: QtUtils.h Pages: 1 -->
<svg width="272pt" height="88pt"
 viewBox="0.00 0.00 272.00 88.00" xmlns="http://www.w3.org/2000/svg" xmlns:xlink="http://www.w3.org/1999/xlink">
<g id="graph1" class="graph" transform="scale(1 1) rotate(0) translate(4 84)">
<title>QtUtils.h</title>
<polygon fill="white" stroke="white" points="-4,5 -4,-84 269,-84 269,5 -4,5"/>
<!-- Node1 -->
<g id="node1" class="node"><title>Node1</title>
<polygon fill="#bfbfbf" stroke="black" points="109,-58.5 109,-79.5 165,-79.5 165,-58.5 109,-58.5"/>
<text text-anchor="middle" x="137" y="-66.5" font-family="Helvetica,sans-Serif" font-size="10.00">QtUtils.h</text>
</g>
<!-- Node2 -->
<g id="node3" class="node"><title>Node2</title>
<a xlink:href="Common_8h.htm" target="_top" xlink:title="Common.h">
<polygon fill="white" stroke="black" points="-0.5,-0.5 -0.5,-21.5 66.5,-21.5 66.5,-0.5 -0.5,-0.5"/>
<text text-anchor="middle" x="33" y="-8.5" font-family="Helvetica,sans-Serif" font-size="10.00">Common.h</text>
</a>
</g>
<!-- Node1&#45;&gt;Node2 -->
<g id="edge2" class="edge"><title>Node1&#45;&gt;Node2</title>
<path fill="none" stroke="midnightblue" d="M117.925,-58.3619C101.945,-49.4502 78.919,-36.6087 60.8733,-26.5447"/>
<polygon fill="midnightblue" stroke="midnightblue" points="62.3927,-23.3846 51.9543,-21.5707 58.9832,-29.4982 62.3927,-23.3846"/>
</g>
<!-- Node3 -->
<g id="node5" class="node"><title>Node3</title>
<polygon fill="white" stroke="#bfbfbf" points="83.5,-0.5 83.5,-21.5 126.5,-21.5 126.5,-0.5 83.5,-0.5"/>
<text text-anchor="middle" x="105" y="-8.5" font-family="Helvetica,sans-Serif" font-size="10.00">string</text>
</g>
<!-- Node1&#45;&gt;Node3 -->
<g id="edge4" class="edge"><title>Node1&#45;&gt;Node3</title>
<path fill="none" stroke="midnightblue" d="M131.131,-58.3619C126.845,-50.5949 120.913,-39.8426 115.784,-30.5458"/>
<polygon fill="midnightblue" stroke="midnightblue" points="118.727,-28.6357 110.832,-21.5707 112.598,-32.0172 118.727,-28.6357"/>
</g>
<!-- Node4 -->
<g id="node7" class="node"><title>Node4</title>
<polygon fill="white" stroke="#bfbfbf" points="143.5,-0.5 143.5,-21.5 196.5,-21.5 196.5,-0.5 143.5,-0.5"/>
<text text-anchor="middle" x="170" y="-8.5" font-family="Helvetica,sans-Serif" font-size="10.00">QString</text>
</g>
<!-- Node1&#45;&gt;Node4 -->
<g id="edge6" class="edge"><title>Node1&#45;&gt;Node4</title>
<path fill="none" stroke="midnightblue" d="M143.053,-58.3619C147.472,-50.5949 153.59,-39.8426 158.879,-30.5458"/>
<polygon fill="midnightblue" stroke="midnightblue" points="162.082,-31.9932 163.986,-21.5707 155.998,-28.5315 162.082,-31.9932"/>
</g>
<!-- Node5 -->
<g id="node9" class="node"><title>Node5</title>
<polygon fill="white" stroke="#bfbfbf" points="214,-0.5 214,-21.5 264,-21.5 264,-0.5 214,-0.5"/>
<text text-anchor="middle" x="239" y="-8.5" font-family="Helvetica,sans-Serif" font-size="10.00">QHash</text>
</g>
<!-- Node1&#45;&gt;Node5 -->
<g id="edge8" class="edge"><title>Node1&#45;&gt;Node5</title>
<path fill="none" stroke="midnightblue" d="M155.708,-58.3619C171.381,-49.4502 193.964,-36.6087 211.663,-26.5447"/>
<polygon fill="midnightblue" stroke="midnightblue" points="213.447,-29.5562 220.41,-21.5707 209.987,-23.4712 213.447,-29.5562"/>
</g>
</g>
</svg>
