<?xml version="1.0" encoding="UTF-8" standalone="no"?>
<!DOCTYPE svg PUBLIC "-//W3C//DTD SVG 1.1//EN"
 "http://www.w3.org/Graphics/SVG/1.1/DTD/svg11.dtd">
<!-- Generated by graphviz version 2.26.3 (20100126.1600)
 -->
<!-- Title: QtUtils.h Pages: 1 -->
<svg width="242pt" height="146pt"
 viewBox="0.00 0.00 242.00 146.00" xmlns="http://www.w3.org/2000/svg" xmlns:xlink="http://www.w3.org/1999/xlink">
<g id="graph1" class="graph" transform="scale(1 1) rotate(0) translate(4 142)">
<title>QtUtils.h</title>
<polygon fill="white" stroke="white" points="-4,5 -4,-142 239,-142 239,5 -4,5"/>
<!-- Node1 -->
<g id="node1" class="node"><title>Node1</title>
<polygon fill="#bfbfbf" stroke="black" points="81,-116.5 81,-137.5 137,-137.5 137,-116.5 81,-116.5"/>
<text text-anchor="middle" x="109" y="-124.5" font-family="Helvetica,sans-Serif" font-size="10.00">QtUtils.h</text>
</g>
<!-- Node2 -->
<g id="node3" class="node"><title>Node2</title>
<a xlink:href="Localization_8h.htm" target="_top" xlink:title="Localization.h">
<polygon fill="white" stroke="black" points="68.5,-58.5 68.5,-79.5 149.5,-79.5 149.5,-58.5 68.5,-58.5"/>
<text text-anchor="middle" x="109" y="-66.5" font-family="Helvetica,sans-Serif" font-size="10.00">Localization.h</text>
</a>
</g>
<!-- Node1&#45;&gt;Node2 -->
<g id="edge2" class="edge"><title>Node1&#45;&gt;Node2</title>
<path fill="none" stroke="midnightblue" d="M109,-106.191C109,-97.1684 109,-86.9941 109,-79.5707"/>
<polygon fill="midnightblue" stroke="midnightblue" points="105.5,-106.362 109,-116.362 112.5,-106.362 105.5,-106.362"/>
</g>
<!-- Node3 -->
<g id="node5" class="node"><title>Node3</title>
<a xlink:href="Localization_8cpp.htm" target="_top" xlink:title="Localization.cpp">
<polygon fill="white" stroke="black" points="0,-0.5 0,-21.5 92,-21.5 92,-0.5 0,-0.5"/>
<text text-anchor="middle" x="46" y="-8.5" font-family="Helvetica,sans-Serif" font-size="10.00">Localization.cpp</text>
</a>
</g>
<!-- Node2&#45;&gt;Node3 -->
<g id="edge4" class="edge"><title>Node2&#45;&gt;Node3</title>
<path fill="none" stroke="midnightblue" d="M89.8882,-51.405C79.3122,-41.6683 66.52,-29.8914 57.4819,-21.5707"/>
<polygon fill="midnightblue" stroke="midnightblue" points="87.7172,-54.1637 97.4448,-58.3619 92.4584,-49.0138 87.7172,-54.1637"/>
</g>
<!-- Node4 -->
<g id="node7" class="node"><title>Node4</title>
<a xlink:href="LocalePreferences_8cpp.htm" target="_top" xlink:title="LocalePreferences.cpp">
<polygon fill="white" stroke="black" points="109.5,-0.5 109.5,-21.5 234.5,-21.5 234.5,-0.5 109.5,-0.5"/>
<text text-anchor="middle" x="172" y="-8.5" font-family="Helvetica,sans-Serif" font-size="10.00">LocalePreferences.cpp</text>
</a>
</g>
<!-- Node2&#45;&gt;Node4 -->
<g id="edge6" class="edge"><title>Node2&#45;&gt;Node4</title>
<path fill="none" stroke="midnightblue" d="M128.112,-51.405C138.688,-41.6683 151.48,-29.8914 160.518,-21.5707"/>
<polygon fill="midnightblue" stroke="midnightblue" points="125.542,-49.0138 120.555,-58.3619 130.283,-54.1637 125.542,-49.0138"/>
</g>
</g>
</svg>
