<?xml version="1.0" encoding="UTF-8" standalone="no"?>
<!DOCTYPE svg PUBLIC "-//W3C//DTD SVG 1.1//EN"
 "http://www.w3.org/Graphics/SVG/1.1/DTD/svg11.dtd">
<!-- Generated by graphviz version 2.26.3 (20100126.1600)
 -->
<!-- Title: Settings.h Pages: 1 -->
<svg width="456pt" height="88pt"
 viewBox="0.00 0.00 456.00 88.00" xmlns="http://www.w3.org/2000/svg" xmlns:xlink="http://www.w3.org/1999/xlink">
<g id="graph1" class="graph" transform="scale(1 1) rotate(0) translate(4 84)">
<title>Settings.h</title>
<polygon fill="white" stroke="white" points="-4,5 -4,-84 453,-84 453,5 -4,5"/>
<!-- Node1 -->
<g id="node1" class="node"><title>Node1</title>
<polygon fill="#bfbfbf" stroke="black" points="191.5,-58.5 191.5,-79.5 254.5,-79.5 254.5,-58.5 191.5,-58.5"/>
<text text-anchor="middle" x="223" y="-66.5" font-family="Helvetica,sans-Serif" font-size="10.00">Settings.h</text>
</g>
<!-- Node2 -->
<g id="node3" class="node"><title>Node2</title>
<a xlink:href="Common_8h.htm" target="_top" xlink:title="Common.h">
<polygon fill="white" stroke="black" points="-0.5,-0.5 -0.5,-21.5 66.5,-21.5 66.5,-0.5 -0.5,-0.5"/>
<text text-anchor="middle" x="33" y="-8.5" font-family="Helvetica,sans-Serif" font-size="10.00">Common.h</text>
</a>
</g>
<!-- Node1&#45;&gt;Node2 -->
<g id="edge2" class="edge"><title>Node1&#45;&gt;Node2</title>
<path fill="none" stroke="midnightblue" d="M191.198,-59.2921C159.757,-49.6943 111.414,-34.9369 76.4424,-24.2614"/>
<polygon fill="midnightblue" stroke="midnightblue" points="77.0923,-20.8004 66.5061,-21.2282 75.0485,-27.4954 77.0923,-20.8004"/>
</g>
<!-- Node3 -->
<g id="node5" class="node"><title>Node3</title>
<polygon fill="white" stroke="#bfbfbf" points="83.5,-0.5 83.5,-21.5 126.5,-21.5 126.5,-0.5 83.5,-0.5"/>
<text text-anchor="middle" x="105" y="-8.5" font-family="Helvetica,sans-Serif" font-size="10.00">string</text>
</g>
<!-- Node1&#45;&gt;Node3 -->
<g id="edge4" class="edge"><title>Node1&#45;&gt;Node3</title>
<path fill="none" stroke="midnightblue" d="M201.631,-58.4966C183.201,-49.4378 156.363,-36.2462 135.645,-26.0628"/>
<polygon fill="midnightblue" stroke="midnightblue" points="137.127,-22.8914 126.609,-21.6212 134.039,-29.1735 137.127,-22.8914"/>
</g>
<!-- Node4 -->
<g id="node7" class="node"><title>Node4</title>
<polygon fill="white" stroke="#bfbfbf" points="144,-0.5 144,-21.5 190,-21.5 190,-0.5 144,-0.5"/>
<text text-anchor="middle" x="167" y="-8.5" font-family="Helvetica,sans-Serif" font-size="10.00">vector</text>
</g>
<!-- Node1&#45;&gt;Node4 -->
<g id="edge6" class="edge"><title>Node1&#45;&gt;Node4</title>
<path fill="none" stroke="midnightblue" d="M212.729,-58.3619C204.756,-50.1043 193.525,-38.4725 184.189,-28.8029"/>
<polygon fill="midnightblue" stroke="midnightblue" points="186.67,-26.3336 177.206,-21.5707 181.634,-31.1958 186.67,-26.3336"/>
</g>
<!-- Node5 -->
<g id="node9" class="node"><title>Node5</title>
<polygon fill="white" stroke="#bfbfbf" points="207.5,-0.5 207.5,-21.5 238.5,-21.5 238.5,-0.5 207.5,-0.5"/>
<text text-anchor="middle" x="223" y="-8.5" font-family="Helvetica,sans-Serif" font-size="10.00">set</text>
</g>
<!-- Node1&#45;&gt;Node5 -->
<g id="edge8" class="edge"><title>Node1&#45;&gt;Node5</title>
<path fill="none" stroke="midnightblue" d="M223,-58.3619C223,-50.9219 223,-40.7427 223,-31.7276"/>
<polygon fill="midnightblue" stroke="midnightblue" points="226.5,-31.5706 223,-21.5707 219.5,-31.5707 226.5,-31.5706"/>
</g>
<!-- Node6 -->
<g id="node11" class="node"><title>Node6</title>
<polygon fill="white" stroke="#bfbfbf" points="255.5,-0.5 255.5,-21.5 296.5,-21.5 296.5,-0.5 255.5,-0.5"/>
<text text-anchor="middle" x="276" y="-8.5" font-family="Helvetica,sans-Serif" font-size="10.00">glib.h</text>
</g>
<!-- Node1&#45;&gt;Node6 -->
<g id="edge10" class="edge"><title>Node1&#45;&gt;Node6</title>
<path fill="none" stroke="midnightblue" d="M232.721,-58.3619C240.192,-50.1861 250.686,-38.7025 259.469,-29.0907"/>
<polygon fill="midnightblue" stroke="midnightblue" points="262.179,-31.3138 266.341,-21.5707 257.011,-26.5918 262.179,-31.3138"/>
</g>
<!-- Node7 -->
<g id="node13" class="node"><title>Node7</title>
<polygon fill="white" stroke="#bfbfbf" points="314,-0.5 314,-21.5 372,-21.5 372,-0.5 314,-0.5"/>
<text text-anchor="middle" x="343" y="-8.5" font-family="Helvetica,sans-Serif" font-size="10.00">QtGlobal</text>
</g>
<!-- Node1&#45;&gt;Node7 -->
<g id="edge12" class="edge"><title>Node1&#45;&gt;Node7</title>
<path fill="none" stroke="midnightblue" d="M244.731,-58.4966C263.474,-49.4378 290.767,-36.2462 311.836,-26.0628"/>
<polygon fill="midnightblue" stroke="midnightblue" points="313.545,-29.1242 321.025,-21.6212 310.498,-22.8217 313.545,-29.1242"/>
</g>
<!-- Node8 -->
<g id="node15" class="node"><title>Node8</title>
<polygon fill="white" stroke="#bfbfbf" points="389.5,-0.5 389.5,-21.5 448.5,-21.5 448.5,-0.5 389.5,-0.5"/>
<text text-anchor="middle" x="419" y="-8.5" font-family="Helvetica,sans-Serif" font-size="10.00">QVariant</text>
</g>
<!-- Node1&#45;&gt;Node8 -->
<g id="edge14" class="edge"><title>Node1&#45;&gt;Node8</title>
<path fill="none" stroke="midnightblue" d="M254.927,-59.5522C288.936,-49.4882 342.817,-33.5439 379.481,-22.6945"/>
<polygon fill="midnightblue" stroke="midnightblue" points="380.738,-25.9724 389.334,-19.7787 378.752,-19.2602 380.738,-25.9724"/>
</g>
</g>
</svg>
