<?xml version="1.0" encoding="UTF-8" standalone="no"?>
<!DOCTYPE svg PUBLIC "-//W3C//DTD SVG 1.1//EN"
 "http://www.w3.org/Graphics/SVG/1.1/DTD/svg11.dtd">
<!-- Generated by graphviz version 2.26.3 (20100126.1600)
 -->
<!-- Title: Settings.cpp Pages: 1 -->
<svg width="1321pt" height="146pt"
 viewBox="0.00 0.00 1321.00 146.00" xmlns="http://www.w3.org/2000/svg" xmlns:xlink="http://www.w3.org/1999/xlink">
<g id="graph1" class="graph" transform="scale(1 1) rotate(0) translate(4 142)">
<title>Settings.cpp</title>
<polygon fill="white" stroke="white" points="-4,5 -4,-142 1318,-142 1318,5 -4,5"/>
<!-- Node1 -->
<g id="node1" class="node"><title>Node1</title>
<polygon fill="#bfbfbf" stroke="black" points="948,-116.5 948,-137.5 1022,-137.5 1022,-116.5 948,-116.5"/>
<text text-anchor="middle" x="985" y="-124.5" font-family="Helvetica,sans-Serif" font-size="10.00">Settings.cpp</text>
</g>
<!-- Node2 -->
<g id="node3" class="node"><title>Node2</title>
<a xlink:href="Common_8h.htm" target="_top" xlink:title="Common.h">
<polygon fill="white" stroke="black" points="651.5,-0.5 651.5,-21.5 718.5,-21.5 718.5,-0.5 651.5,-0.5"/>
<text text-anchor="middle" x="685" y="-8.5" font-family="Helvetica,sans-Serif" font-size="10.00">Common.h</text>
</a>
</g>
<!-- Node1&#45;&gt;Node2 -->
<g id="edge2" class="edge"><title>Node1&#45;&gt;Node2</title>
<path fill="none" stroke="midnightblue" d="M947.764,-121.952C891.738,-113.924 788.822,-97.3712 756,-80 732.799,-67.721 712.012,-45.5365 699.016,-29.6347"/>
<polygon fill="midnightblue" stroke="midnightblue" points="701.575,-27.2286 692.631,-21.5496 696.082,-31.5668 701.575,-27.2286"/>
</g>
<!-- Node3 -->
<g id="node5" class="node"><title>Node3</title>
<a xlink:href="Settings_8h.htm" target="_top" xlink:title="Settings.h">
<polygon fill="white" stroke="black" points="764.5,-58.5 764.5,-79.5 827.5,-79.5 827.5,-58.5 764.5,-58.5"/>
<text text-anchor="middle" x="796" y="-66.5" font-family="Helvetica,sans-Serif" font-size="10.00">Settings.h</text>
</a>
</g>
<!-- Node1&#45;&gt;Node3 -->
<g id="edge4" class="edge"><title>Node1&#45;&gt;Node3</title>
<path fill="none" stroke="midnightblue" d="M950.774,-116.497C918.92,-106.722 871.386,-92.1343 837.408,-81.7072"/>
<polygon fill="midnightblue" stroke="midnightblue" points="838.357,-78.3374 827.77,-78.7495 836.303,-85.0293 838.357,-78.3374"/>
</g>
<!-- Node7 -->
<g id="node14" class="node"><title>Node7</title>
<polygon fill="white" stroke="#bfbfbf" points="935.5,-0.5 935.5,-21.5 976.5,-21.5 976.5,-0.5 935.5,-0.5"/>
<text text-anchor="middle" x="956" y="-8.5" font-family="Helvetica,sans-Serif" font-size="10.00">glib.h</text>
</g>
<!-- Node1&#45;&gt;Node7 -->
<g id="edge26" class="edge"><title>Node1&#45;&gt;Node7</title>
<path fill="none" stroke="midnightblue" d="M958.061,-116.332C942.736,-108.699 924.876,-96.7851 916,-80 906.607,-62.2359 920.718,-42.4381 934.704,-28.6212"/>
<polygon fill="midnightblue" stroke="midnightblue" points="937.329,-30.9618 942.31,-21.6113 932.585,-25.8142 937.329,-30.9618"/>
</g>
<!-- Node10 -->
<g id="node20" class="node"><title>Node10</title>
<polygon fill="white" stroke="#bfbfbf" points="1043,-58.5 1043,-79.5 1093,-79.5 1093,-58.5 1043,-58.5"/>
<text text-anchor="middle" x="1068" y="-66.5" font-family="Helvetica,sans-Serif" font-size="10.00">QHash</text>
</g>
<!-- Node1&#45;&gt;Node10 -->
<g id="edge20" class="edge"><title>Node1&#45;&gt;Node10</title>
<path fill="none" stroke="midnightblue" d="M1000.22,-116.362C1012.63,-107.696 1030.35,-95.3126 1044.56,-85.3819"/>
<polygon fill="midnightblue" stroke="midnightblue" points="1046.68,-88.1676 1052.87,-79.5707 1042.67,-82.4297 1046.68,-88.1676"/>
</g>
<!-- Node11 -->
<g id="node22" class="node"><title>Node11</title>
<polygon fill="white" stroke="#bfbfbf" points="1081.5,-0.5 1081.5,-21.5 1128.5,-21.5 1128.5,-0.5 1081.5,-0.5"/>
<text text-anchor="middle" x="1105" y="-8.5" font-family="Helvetica,sans-Serif" font-size="10.00">stdio.h</text>
</g>
<!-- Node1&#45;&gt;Node11 -->
<g id="edge22" class="edge"><title>Node1&#45;&gt;Node11</title>
<path fill="none" stroke="midnightblue" d="M990.921,-116.265C999.226,-101.853 1015.42,-75.983 1034,-58 1046.43,-45.9722 1062.33,-35.1213 1075.93,-26.8839"/>
<polygon fill="midnightblue" stroke="midnightblue" points="1078.05,-29.6957 1084.91,-21.6163 1074.51,-23.6582 1078.05,-29.6957"/>
</g>
<!-- Node12 -->
<g id="node24" class="node"><title>Node12</title>
<polygon fill="white" stroke="#bfbfbf" points="1110.5,-58.5 1110.5,-79.5 1161.5,-79.5 1161.5,-58.5 1110.5,-58.5"/>
<text text-anchor="middle" x="1136" y="-66.5" font-family="Helvetica,sans-Serif" font-size="10.00">string.h</text>
</g>
<!-- Node1&#45;&gt;Node12 -->
<g id="edge24" class="edge"><title>Node1&#45;&gt;Node12</title>
<path fill="none" stroke="midnightblue" d="M1012.34,-116.497C1037.17,-106.96 1073.92,-92.8442 1100.91,-82.4788"/>
<polygon fill="midnightblue" stroke="midnightblue" points="1102.29,-85.698 1110.37,-78.8451 1099.78,-79.1635 1102.29,-85.698"/>
</g>
<!-- Node13 -->
<g id="node27" class="node"><title>Node13</title>
<polygon fill="white" stroke="#bfbfbf" points="1179,-58.5 1179,-79.5 1227,-79.5 1227,-58.5 1179,-58.5"/>
<text text-anchor="middle" x="1203" y="-66.5" font-family="Helvetica,sans-Serif" font-size="10.00">math.h</text>
</g>
<!-- Node1&#45;&gt;Node13 -->
<g id="edge28" class="edge"><title>Node1&#45;&gt;Node13</title>
<path fill="none" stroke="midnightblue" d="M1022.07,-118.424C1057.52,-110.035 1112.67,-96.504 1169.11,-80.1251"/>
<polygon fill="midnightblue" stroke="midnightblue" points="1170.3,-83.4236 1178.91,-77.2544 1168.33,-76.7057 1170.3,-83.4236"/>
</g>
<!-- Node14 -->
<g id="node29" class="node"><title>Node14</title>
<a xlink:href="Utils_8h.htm" target="_top" xlink:title="Utils.h">
<polygon fill="white" stroke="black" points="432.5,-58.5 432.5,-79.5 477.5,-79.5 477.5,-58.5 432.5,-58.5"/>
<text text-anchor="middle" x="455" y="-66.5" font-family="Helvetica,sans-Serif" font-size="10.00">Utils.h</text>
</a>
</g>
<!-- Node1&#45;&gt;Node14 -->
<g id="edge30" class="edge"><title>Node1&#45;&gt;Node14</title>
<path fill="none" stroke="midnightblue" d="M947.731,-122.922C848.812,-112.096 580.831,-82.7702 487.544,-72.5614"/>
<polygon fill="midnightblue" stroke="midnightblue" points="487.878,-69.0771 477.556,-71.4684 487.116,-76.0356 487.878,-69.0771"/>
</g>
<!-- Node22 -->
<g id="node49" class="node"><title>Node22</title>
<a xlink:href="Logging_8h.htm" target="_top" xlink:title="Logging.h">
<polygon fill="white" stroke="black" points="924.5,-58.5 924.5,-79.5 987.5,-79.5 987.5,-58.5 924.5,-58.5"/>
<text text-anchor="middle" x="956" y="-66.5" font-family="Helvetica,sans-Serif" font-size="10.00">Logging.h</text>
</a>
</g>
<!-- Node1&#45;&gt;Node22 -->
<g id="edge54" class="edge"><title>Node1&#45;&gt;Node22</title>
<path fill="none" stroke="midnightblue" d="M979.681,-116.362C975.797,-108.595 970.421,-97.8426 965.773,-88.5458"/>
<polygon fill="midnightblue" stroke="midnightblue" points="968.888,-86.9497 961.285,-79.5707 962.627,-90.0802 968.888,-86.9497"/>
</g>
<!-- Node24 -->
<g id="node56" class="node"><title>Node24</title>
<polygon fill="white" stroke="#bfbfbf" points="1245,-58.5 1245,-79.5 1313,-79.5 1313,-58.5 1245,-58.5"/>
<text text-anchor="middle" x="1279" y="-66.5" font-family="Helvetica,sans-Serif" font-size="10.00">lunaprefs.h</text>
</g>
<!-- Node1&#45;&gt;Node24 -->
<g id="edge64" class="edge"><title>Node1&#45;&gt;Node24</title>
<path fill="none" stroke="midnightblue" d="M1022.15,-120.825C1069.36,-112.806 1153.56,-97.9351 1234.88,-80.1514"/>
<polygon fill="midnightblue" stroke="midnightblue" points="1235.77,-83.5397 1244.78,-77.9685 1234.26,-76.7039 1235.77,-83.5397"/>
</g>
<!-- Node3&#45;&gt;Node2 -->
<g id="edge6" class="edge"><title>Node3&#45;&gt;Node2</title>
<path fill="none" stroke="midnightblue" d="M775.899,-58.4966C758.718,-49.5194 733.77,-36.4835 714.355,-26.3387"/>
<polygon fill="midnightblue" stroke="midnightblue" points="715.811,-23.1503 705.327,-21.6212 712.569,-29.3544 715.811,-23.1503"/>
</g>
<!-- Node4 -->
<g id="node8" class="node"><title>Node4</title>
<polygon fill="white" stroke="#bfbfbf" points="527.5,-0.5 527.5,-21.5 570.5,-21.5 570.5,-0.5 527.5,-0.5"/>
<text text-anchor="middle" x="549" y="-8.5" font-family="Helvetica,sans-Serif" font-size="10.00">string</text>
</g>
<!-- Node3&#45;&gt;Node4 -->
<g id="edge8" class="edge"><title>Node3&#45;&gt;Node4</title>
<path fill="none" stroke="midnightblue" d="M764.396,-63.5722C723.757,-56.2861 650.896,-42.1906 580.435,-22.1577"/>
<polygon fill="midnightblue" stroke="midnightblue" points="581.09,-18.704 570.512,-19.2916 579.148,-25.4291 581.09,-18.704"/>
</g>
<!-- Node5 -->
<g id="node10" class="node"><title>Node5</title>
<polygon fill="white" stroke="#bfbfbf" points="588,-0.5 588,-21.5 634,-21.5 634,-0.5 588,-0.5"/>
<text text-anchor="middle" x="611" y="-8.5" font-family="Helvetica,sans-Serif" font-size="10.00">vector</text>
</g>
<!-- Node3&#45;&gt;Node5 -->
<g id="edge10" class="edge"><title>Node3&#45;&gt;Node5</title>
<path fill="none" stroke="midnightblue" d="M764.257,-59.5826C735.244,-50.9017 690.929,-37.4591 643.815,-22.2007"/>
<polygon fill="midnightblue" stroke="midnightblue" points="644.634,-18.7867 634.042,-19.0222 642.469,-25.4435 644.634,-18.7867"/>
</g>
<!-- Node6 -->
<g id="node12" class="node"><title>Node6</title>
<polygon fill="white" stroke="#bfbfbf" points="811.5,-0.5 811.5,-21.5 842.5,-21.5 842.5,-0.5 811.5,-0.5"/>
<text text-anchor="middle" x="827" y="-8.5" font-family="Helvetica,sans-Serif" font-size="10.00">set</text>
</g>
<!-- Node3&#45;&gt;Node6 -->
<g id="edge12" class="edge"><title>Node3&#45;&gt;Node6</title>
<path fill="none" stroke="midnightblue" d="M801.686,-58.3619C805.837,-50.5949 811.584,-39.8426 816.553,-30.5458"/>
<polygon fill="midnightblue" stroke="midnightblue" points="819.723,-32.0398 821.35,-21.5707 813.55,-28.7401 819.723,-32.0398"/>
</g>
<!-- Node3&#45;&gt;Node7 -->
<g id="edge14" class="edge"><title>Node3&#45;&gt;Node7</title>
<path fill="none" stroke="midnightblue" d="M825.972,-58.42C850.587,-49.6929 886.586,-36.8432 925.906,-22.3691"/>
<polygon fill="midnightblue" stroke="midnightblue" points="927.252,-25.603 935.422,-18.8579 924.829,-19.0358 927.252,-25.603"/>
</g>
<!-- Node8 -->
<g id="node16" class="node"><title>Node8</title>
<polygon fill="white" stroke="#bfbfbf" points="860,-0.5 860,-21.5 918,-21.5 918,-0.5 860,-0.5"/>
<text text-anchor="middle" x="889" y="-8.5" font-family="Helvetica,sans-Serif" font-size="10.00">QtGlobal</text>
</g>
<!-- Node3&#45;&gt;Node8 -->
<g id="edge16" class="edge"><title>Node3&#45;&gt;Node8</title>
<path fill="none" stroke="midnightblue" d="M813.058,-58.3619C827.085,-49.6138 847.184,-37.0786 863.182,-27.1015"/>
<polygon fill="midnightblue" stroke="midnightblue" points="865.418,-29.8323 872.051,-21.5707 861.713,-23.8927 865.418,-29.8323"/>
</g>
<!-- Node9 -->
<g id="node18" class="node"><title>Node9</title>
<polygon fill="white" stroke="#bfbfbf" points="735.5,-0.5 735.5,-21.5 794.5,-21.5 794.5,-0.5 735.5,-0.5"/>
<text text-anchor="middle" x="765" y="-8.5" font-family="Helvetica,sans-Serif" font-size="10.00">QVariant</text>
</g>
<!-- Node3&#45;&gt;Node9 -->
<g id="edge18" class="edge"><title>Node3&#45;&gt;Node9</title>
<path fill="none" stroke="midnightblue" d="M790.314,-58.3619C786.163,-50.5949 780.416,-39.8426 775.447,-30.5458"/>
<polygon fill="midnightblue" stroke="midnightblue" points="778.45,-28.7401 770.65,-21.5707 772.277,-32.0398 778.45,-28.7401"/>
</g>
<!-- Node14&#45;&gt;Node2 -->
<g id="edge32" class="edge"><title>Node14&#45;&gt;Node2</title>
<path fill="none" stroke="midnightblue" d="M477.593,-63.4383C511.191,-55.1488 576.56,-38.9497 641.146,-22.4588"/>
<polygon fill="midnightblue" stroke="midnightblue" points="642.261,-25.7864 651.082,-19.9179 640.527,-19.0047 642.261,-25.7864"/>
</g>
<!-- Node14&#45;&gt;Node4 -->
<g id="edge36" class="edge"><title>Node14&#45;&gt;Node4</title>
<path fill="none" stroke="midnightblue" d="M472.241,-58.3619C486.552,-49.532 507.115,-36.844 523.357,-26.8224"/>
<polygon fill="midnightblue" stroke="midnightblue" points="525.196,-29.8004 531.868,-21.5707 521.52,-23.8431 525.196,-29.8004"/>
</g>
<!-- Node14&#45;&gt;Node5 -->
<g id="edge38" class="edge"><title>Node14&#45;&gt;Node5</title>
<path fill="none" stroke="midnightblue" d="M477.684,-60.5663C504.105,-50.7432 547.971,-34.4338 578.124,-23.223"/>
<polygon fill="midnightblue" stroke="midnightblue" points="579.626,-26.3988 587.779,-19.6333 577.187,-19.8376 579.626,-26.3988"/>
</g>
<!-- Node14&#45;&gt;Node7 -->
<g id="edge52" class="edge"><title>Node14&#45;&gt;Node7</title>
<path fill="none" stroke="midnightblue" d="M477.617,-67.54C556.792,-62.3099 821.862,-43.768 925.493,-21.807"/>
<polygon fill="midnightblue" stroke="midnightblue" points="926.308,-25.2113 935.296,-19.6021 924.772,-18.3819 926.308,-25.2113"/>
</g>
<!-- Node15 -->
<g id="node32" class="node"><title>Node15</title>
<polygon fill="white" stroke="#bfbfbf" points="106,-0.5 106,-21.5 150,-21.5 150,-0.5 106,-0.5"/>
<text text-anchor="middle" x="128" y="-8.5" font-family="Helvetica,sans-Serif" font-size="10.00">time.h</text>
</g>
<!-- Node14&#45;&gt;Node15 -->
<g id="edge34" class="edge"><title>Node14&#45;&gt;Node15</title>
<path fill="none" stroke="midnightblue" d="M432.436,-66.8459C384.058,-61.927 266.738,-48.393 160.149,-21.9426"/>
<polygon fill="midnightblue" stroke="midnightblue" points="160.753,-18.4852 150.2,-19.4275 159.037,-25.2717 160.753,-18.4852"/>
</g>
<!-- Node16 -->
<g id="node36" class="node"><title>Node16</title>
<polygon fill="white" stroke="#bfbfbf" points="168,-0.5 168,-21.5 222,-21.5 222,-0.5 168,-0.5"/>
<text text-anchor="middle" x="195" y="-8.5" font-family="Helvetica,sans-Serif" font-size="10.00">sstream</text>
</g>
<!-- Node14&#45;&gt;Node16 -->
<g id="edge40" class="edge"><title>Node14&#45;&gt;Node16</title>
<path fill="none" stroke="midnightblue" d="M432.27,-64.9293C393.295,-57.8007 311.042,-42.11 232.153,-22.1367"/>
<polygon fill="midnightblue" stroke="midnightblue" points="232.609,-18.6405 222.053,-19.5508 230.872,-25.4218 232.609,-18.6405"/>
</g>
<!-- Node17 -->
<g id="node38" class="node"><title>Node17</title>
<polygon fill="white" stroke="#bfbfbf" points="239.5,-0.5 239.5,-21.5 296.5,-21.5 296.5,-0.5 239.5,-0.5"/>
<text text-anchor="middle" x="268" y="-8.5" font-family="Helvetica,sans-Serif" font-size="10.00">iostream</text>
</g>
<!-- Node14&#45;&gt;Node17 -->
<g id="edge42" class="edge"><title>Node14&#45;&gt;Node17</title>
<path fill="none" stroke="midnightblue" d="M432.443,-62.0038C401.233,-52.3236 344.439,-34.7082 306.459,-22.9284"/>
<polygon fill="midnightblue" stroke="midnightblue" points="307.347,-19.5396 296.759,-19.92 305.274,-26.2254 307.347,-19.5396"/>
</g>
<!-- Node18 -->
<g id="node40" class="node"><title>Node18</title>
<polygon fill="white" stroke="#bfbfbf" points="314,-0.5 314,-21.5 366,-21.5 366,-0.5 314,-0.5"/>
<text text-anchor="middle" x="340" y="-8.5" font-family="Helvetica,sans-Serif" font-size="10.00">regex.h</text>
</g>
<!-- Node14&#45;&gt;Node18 -->
<g id="edge44" class="edge"><title>Node14&#45;&gt;Node18</title>
<path fill="none" stroke="midnightblue" d="M434.174,-58.4966C416.294,-49.4786 390.293,-36.3649 370.139,-26.2006"/>
<polygon fill="midnightblue" stroke="midnightblue" points="371.564,-22.9994 361.059,-21.6212 368.412,-29.2495 371.564,-22.9994"/>
</g>
<!-- Node19 -->
<g id="node42" class="node"><title>Node19</title>
<polygon fill="white" stroke="#bfbfbf" points="383.5,-0.5 383.5,-21.5 454.5,-21.5 454.5,-0.5 383.5,-0.5"/>
<text text-anchor="middle" x="419" y="-8.5" font-family="Helvetica,sans-Serif" font-size="10.00">QByteArray</text>
</g>
<!-- Node14&#45;&gt;Node19 -->
<g id="edge46" class="edge"><title>Node14&#45;&gt;Node19</title>
<path fill="none" stroke="midnightblue" d="M448.397,-58.3619C443.525,-50.5131 436.762,-39.6159 430.95,-30.2527"/>
<polygon fill="midnightblue" stroke="midnightblue" points="433.809,-28.2213 425.561,-21.5707 427.861,-31.9129 433.809,-28.2213"/>
</g>
<!-- Node20 -->
<g id="node44" class="node"><title>Node20</title>
<polygon fill="white" stroke="#bfbfbf" points="472,-0.5 472,-21.5 510,-21.5 510,-0.5 472,-0.5"/>
<text text-anchor="middle" x="491" y="-8.5" font-family="Helvetica,sans-Serif" font-size="10.00">QUrl</text>
</g>
<!-- Node14&#45;&gt;Node20 -->
<g id="edge48" class="edge"><title>Node14&#45;&gt;Node20</title>
<path fill="none" stroke="midnightblue" d="M461.603,-58.3619C466.475,-50.5131 473.238,-39.6159 479.05,-30.2527"/>
<polygon fill="midnightblue" stroke="midnightblue" points="482.139,-31.9129 484.439,-21.5707 476.191,-28.2213 482.139,-31.9129"/>
</g>
<!-- Node21 -->
<g id="node46" class="node"><title>Node21</title>
<polygon fill="white" stroke="#bfbfbf" points="0,-0.5 0,-21.5 88,-21.5 88,-0.5 0,-0.5"/>
<text text-anchor="middle" x="44" y="-8.5" font-family="Helvetica,sans-Serif" font-size="10.00">QGraphicsItem</text>
</g>
<!-- Node14&#45;&gt;Node21 -->
<g id="edge50" class="edge"><title>Node14&#45;&gt;Node21</title>
<path fill="none" stroke="midnightblue" d="M432.295,-66.6105C376.942,-60.6602 230.476,-44.1634 98.1094,-22.0961"/>
<polygon fill="midnightblue" stroke="midnightblue" points="98.6422,-18.6367 88.2001,-20.429 97.4808,-25.5396 98.6422,-18.6367"/>
</g>
<!-- Node22&#45;&gt;Node2 -->
<g id="edge56" class="edge"><title>Node22&#45;&gt;Node2</title>
<path fill="none" stroke="midnightblue" d="M924.397,-63.071C882.018,-54.9992 804.212,-39.7568 728.999,-22.3933"/>
<polygon fill="midnightblue" stroke="midnightblue" points="729.42,-18.8979 718.887,-20.0421 727.835,-25.716 729.42,-18.8979"/>
</g>
<!-- Node22&#45;&gt;Node7 -->
<g id="edge60" class="edge"><title>Node22&#45;&gt;Node7</title>
<path fill="none" stroke="midnightblue" d="M956,-58.3619C956,-50.9219 956,-40.7427 956,-31.7276"/>
<polygon fill="midnightblue" stroke="midnightblue" points="959.5,-31.5706 956,-21.5707 952.5,-31.5707 959.5,-31.5706"/>
</g>
<!-- Node22&#45;&gt;Node11 -->
<g id="edge58" class="edge"><title>Node22&#45;&gt;Node11</title>
<path fill="none" stroke="midnightblue" d="M982.983,-58.4966C1007.93,-48.7859 1045.08,-34.3263 1071.82,-23.9138"/>
<polygon fill="midnightblue" stroke="midnightblue" points="1073.12,-27.1661 1081.17,-20.277 1070.58,-20.6429 1073.12,-27.1661"/>
</g>
<!-- Node23 -->
<g id="node54" class="node"><title>Node23</title>
<polygon fill="white" stroke="#bfbfbf" points="993.5,-0.5 993.5,-21.5 1064.5,-21.5 1064.5,-0.5 993.5,-0.5"/>
<text text-anchor="middle" x="1029" y="-8.5" font-family="Helvetica,sans-Serif" font-size="10.00">PmLogLib.h</text>
</g>
<!-- Node22&#45;&gt;Node23 -->
<g id="edge62" class="edge"><title>Node22&#45;&gt;Node23</title>
<path fill="none" stroke="midnightblue" d="M969.389,-58.3619C980.091,-49.859 995.296,-37.7785 1007.67,-27.9466"/>
<polygon fill="midnightblue" stroke="midnightblue" points="1010.04,-30.5318 1015.7,-21.5707 1005.69,-25.0511 1010.04,-30.5318"/>
</g>
</g>
</svg>
