<?xml version="1.0" encoding="UTF-8" standalone="no"?>
<!DOCTYPE svg PUBLIC "-//W3C//DTD SVG 1.1//EN"
 "http://www.w3.org/Graphics/SVG/1.1/DTD/svg11.dtd">
<!-- Generated by graphviz version 2.26.3 (20100126.1600)
 -->
<!-- Title: Settings.h Pages: 1 -->
<svg width="893pt" height="146pt"
 viewBox="0.00 0.00 893.00 146.00" xmlns="http://www.w3.org/2000/svg" xmlns:xlink="http://www.w3.org/1999/xlink">
<g id="graph1" class="graph" transform="scale(1 1) rotate(0) translate(4 142)">
<title>Settings.h</title>
<polygon fill="white" stroke="white" points="-4,5 -4,-142 890,-142 890,5 -4,5"/>
<!-- Node1 -->
<g id="node1" class="node"><title>Node1</title>
<polygon fill="#bfbfbf" stroke="black" points="403.5,-116.5 403.5,-137.5 466.5,-137.5 466.5,-116.5 403.5,-116.5"/>
<text text-anchor="middle" x="435" y="-124.5" font-family="Helvetica,sans-Serif" font-size="10.00">Settings.h</text>
</g>
<!-- Node2 -->
<g id="node3" class="node"><title>Node2</title>
<a xlink:href="HostArm_8cpp.htm" target="_top" xlink:title="HostArm.cpp">
<polygon fill="white" stroke="black" points="2.5,-58.5 2.5,-79.5 79.5,-79.5 79.5,-58.5 2.5,-58.5"/>
<text text-anchor="middle" x="41" y="-66.5" font-family="Helvetica,sans-Serif" font-size="10.00">HostArm.cpp</text>
</a>
</g>
<!-- Node1&#45;&gt;Node2 -->
<g id="edge2" class="edge"><title>Node1&#45;&gt;Node2</title>
<path fill="none" stroke="midnightblue" d="M392.943,-122.613C327.462,-115.488 197.302,-100.146 88,-80 85.2803,-79.4987 82.4808,-78.9439 79.6673,-78.3577"/>
<polygon fill="midnightblue" stroke="midnightblue" points="392.945,-126.133 403.262,-123.726 393.695,-119.174 392.945,-126.133"/>
</g>
<!-- Node4 -->
<g id="node7" class="node"><title>Node4</title>
<a xlink:href="HostQtDesktop_8cpp.htm" target="_top" xlink:title="HostQtDesktop.cpp">
<polygon fill="white" stroke="black" points="97,-58.5 97,-79.5 205,-79.5 205,-58.5 97,-58.5"/>
<text text-anchor="middle" x="151" y="-66.5" font-family="Helvetica,sans-Serif" font-size="10.00">HostQtDesktop.cpp</text>
</a>
</g>
<!-- Node1&#45;&gt;Node4 -->
<g id="edge6" class="edge"><title>Node1&#45;&gt;Node4</title>
<path fill="none" stroke="midnightblue" d="M393.292,-118.482C342.617,-108.133 257.131,-90.6747 202.427,-79.5026"/>
<polygon fill="midnightblue" stroke="midnightblue" points="392.75,-121.944 403.248,-120.515 394.151,-115.085 392.75,-121.944"/>
</g>
<!-- Node5 -->
<g id="node9" class="node"><title>Node5</title>
<a xlink:href="Localization_8cpp.htm" target="_top" xlink:title="Localization.cpp">
<polygon fill="white" stroke="black" points="223,-58.5 223,-79.5 315,-79.5 315,-58.5 223,-58.5"/>
<text text-anchor="middle" x="269" y="-66.5" font-family="Helvetica,sans-Serif" font-size="10.00">Localization.cpp</text>
</a>
</g>
<!-- Node1&#45;&gt;Node5 -->
<g id="edge8" class="edge"><title>Node1&#45;&gt;Node5</title>
<path fill="none" stroke="midnightblue" d="M395.344,-113.144C365.804,-102.823 326.081,-88.9439 299.118,-79.5231"/>
<polygon fill="midnightblue" stroke="midnightblue" points="394.344,-116.502 404.939,-116.497 396.653,-109.894 394.344,-116.502"/>
</g>
<!-- Node6 -->
<g id="node11" class="node"><title>Node6</title>
<a xlink:href="Logging_8cpp.htm" target="_top" xlink:title="Logging.cpp">
<polygon fill="white" stroke="black" points="333,-58.5 333,-79.5 407,-79.5 407,-58.5 333,-58.5"/>
<text text-anchor="middle" x="370" y="-66.5" font-family="Helvetica,sans-Serif" font-size="10.00">Logging.cpp</text>
</a>
</g>
<!-- Node1&#45;&gt;Node6 -->
<g id="edge10" class="edge"><title>Node1&#45;&gt;Node6</title>
<path fill="none" stroke="midnightblue" d="M415.602,-109.691C404.629,-99.8996 391.263,-87.973 381.846,-79.5707"/>
<polygon fill="midnightblue" stroke="midnightblue" points="413.286,-112.315 423.078,-116.362 417.947,-107.092 413.286,-112.315"/>
</g>
<!-- Node7 -->
<g id="node13" class="node"><title>Node7</title>
<a xlink:href="LocalePreferences_8cpp.htm" target="_top" xlink:title="LocalePreferences.cpp">
<polygon fill="white" stroke="black" points="466.5,-0.5 466.5,-21.5 591.5,-21.5 591.5,-0.5 466.5,-0.5"/>
<text text-anchor="middle" x="529" y="-8.5" font-family="Helvetica,sans-Serif" font-size="10.00">LocalePreferences.cpp</text>
</a>
</g>
<!-- Node1&#45;&gt;Node7 -->
<g id="edge12" class="edge"><title>Node1&#45;&gt;Node7</title>
<path fill="none" stroke="midnightblue" d="M436.759,-106.011C438.888,-91.3509 443.595,-71.9789 454,-58 466.294,-41.4823 486.267,-29.3792 502.511,-21.5948"/>
<polygon fill="midnightblue" stroke="midnightblue" points="433.26,-105.798 435.581,-116.136 440.213,-106.607 433.26,-105.798"/>
</g>
<!-- Node8 -->
<g id="node15" class="node"><title>Node8</title>
<a xlink:href="Settings_8cpp.htm" target="_top" xlink:title="Settings.cpp">
<polygon fill="white" stroke="black" points="463,-58.5 463,-79.5 537,-79.5 537,-58.5 463,-58.5"/>
<text text-anchor="middle" x="500" y="-66.5" font-family="Helvetica,sans-Serif" font-size="10.00">Settings.cpp</text>
</a>
</g>
<!-- Node1&#45;&gt;Node8 -->
<g id="edge14" class="edge"><title>Node1&#45;&gt;Node8</title>
<path fill="none" stroke="midnightblue" d="M454.398,-109.691C465.371,-99.8996 478.737,-87.973 488.154,-79.5707"/>
<polygon fill="midnightblue" stroke="midnightblue" points="452.053,-107.092 446.922,-116.362 456.714,-112.315 452.053,-107.092"/>
</g>
<!-- Node9 -->
<g id="node17" class="node"><title>Node9</title>
<a xlink:href="NyxSensorConnector_8cpp.htm" target="_top" xlink:title="NyxSensorConnector.cpp">
<polygon fill="white" stroke="black" points="554.5,-58.5 554.5,-79.5 691.5,-79.5 691.5,-58.5 554.5,-58.5"/>
<text text-anchor="middle" x="623" y="-66.5" font-family="Helvetica,sans-Serif" font-size="10.00">NyxSensorConnector.cpp</text>
</a>
</g>
<!-- Node1&#45;&gt;Node9 -->
<g id="edge16" class="edge"><title>Node1&#45;&gt;Node9</title>
<path fill="none" stroke="midnightblue" d="M476.455,-114.211C510.152,-103.815 557.121,-89.3243 588.721,-79.5754"/>
<polygon fill="midnightblue" stroke="midnightblue" points="475.415,-110.869 466.892,-117.161 477.479,-117.557 475.415,-110.869"/>
</g>
<!-- Node10 -->
<g id="node19" class="node"><title>Node10</title>
<a xlink:href="JSONUtils_8h.htm" target="_top" xlink:title="JSONUtils.h">
<polygon fill="white" stroke="black" points="708.5,-58.5 708.5,-79.5 781.5,-79.5 781.5,-58.5 708.5,-58.5"/>
<text text-anchor="middle" x="745" y="-66.5" font-family="Helvetica,sans-Serif" font-size="10.00">JSONUtils.h</text>
</a>
</g>
<!-- Node1&#45;&gt;Node10 -->
<g id="edge18" class="edge"><title>Node1&#45;&gt;Node10</title>
<path fill="none" stroke="midnightblue" d="M476.441,-120.496C528.733,-112.095 621.345,-96.5706 700,-80 702.676,-79.4363 705.434,-78.8283 708.207,-78.1977"/>
<polygon fill="midnightblue" stroke="midnightblue" points="475.859,-117.044 466.537,-122.079 476.964,-123.957 475.859,-117.044"/>
</g>
<!-- Node12 -->
<g id="node24" class="node"><title>Node12</title>
<a xlink:href="ProcessKiller_8h.htm" target="_top" xlink:title="ProcessKiller.h">
<polygon fill="white" stroke="black" points="799,-58.5 799,-79.5 885,-79.5 885,-58.5 799,-58.5"/>
<text text-anchor="middle" x="842" y="-66.5" font-family="Helvetica,sans-Serif" font-size="10.00">ProcessKiller.h</text>
</a>
</g>
<!-- Node1&#45;&gt;Node12 -->
<g id="edge24" class="edge"><title>Node1&#45;&gt;Node12</title>
<path fill="none" stroke="midnightblue" d="M477.048,-122.493C543.664,-115.113 677.457,-99.3242 790,-80 792.91,-79.5003 795.905,-78.9536 798.919,-78.3796"/>
<polygon fill="midnightblue" stroke="midnightblue" points="476.504,-119.031 466.946,-123.604 477.269,-125.989 476.504,-119.031"/>
</g>
<!-- Node3 -->
<g id="node5" class="node"><title>Node3</title>
<a xlink:href="HostBase_8cpp.htm" target="_top" xlink:title="HostBase.cpp">
<polygon fill="white" stroke="black" points="0,-0.5 0,-21.5 82,-21.5 82,-0.5 0,-0.5"/>
<text text-anchor="middle" x="41" y="-8.5" font-family="Helvetica,sans-Serif" font-size="10.00">HostBase.cpp</text>
</a>
</g>
<!-- Node2&#45;&gt;Node3 -->
<g id="edge4" class="edge"><title>Node2&#45;&gt;Node3</title>
<path fill="none" stroke="midnightblue" d="M41,-48.1906C41,-39.1684 41,-28.9941 41,-21.5707"/>
<polygon fill="midnightblue" stroke="midnightblue" points="37.5001,-48.3619 41,-58.3619 44.5001,-48.3619 37.5001,-48.3619"/>
</g>
<!-- Node10&#45;&gt;Node7 -->
<g id="edge22" class="edge"><title>Node10&#45;&gt;Node7</title>
<path fill="none" stroke="midnightblue" d="M698.364,-56.4775C659.583,-46.064 605.002,-31.408 568.384,-21.5754"/>
<polygon fill="midnightblue" stroke="midnightblue" points="697.793,-59.948 708.359,-59.1611 699.608,-53.1874 697.793,-59.948"/>
</g>
<!-- Node11 -->
<g id="node21" class="node"><title>Node11</title>
<a xlink:href="JSONUtils_8cpp.htm" target="_top" xlink:title="JSONUtils.cpp">
<polygon fill="white" stroke="black" points="703,-0.5 703,-21.5 787,-21.5 787,-0.5 703,-0.5"/>
<text text-anchor="middle" x="745" y="-8.5" font-family="Helvetica,sans-Serif" font-size="10.00">JSONUtils.cpp</text>
</a>
</g>
<!-- Node10&#45;&gt;Node11 -->
<g id="edge20" class="edge"><title>Node10&#45;&gt;Node11</title>
<path fill="none" stroke="midnightblue" d="M745,-48.1906C745,-39.1684 745,-28.9941 745,-21.5707"/>
<polygon fill="midnightblue" stroke="midnightblue" points="741.5,-48.3619 745,-58.3619 748.5,-48.3619 741.5,-48.3619"/>
</g>
</g>
</svg>
