<?xml version="1.0" encoding="UTF-8" standalone="no"?>
<!DOCTYPE svg PUBLIC "-//W3C//DTD SVG 1.1//EN"
 "http://www.w3.org/Graphics/SVG/1.1/DTD/svg11.dtd">
<!-- Generated by graphviz version 2.26.3 (20100126.1600)
 -->
<!-- Title: SignalSlot.h Pages: 1 -->
<svg width="186pt" height="88pt"
 viewBox="0.00 0.00 186.00 88.00" xmlns="http://www.w3.org/2000/svg" xmlns:xlink="http://www.w3.org/1999/xlink">
<g id="graph1" class="graph" transform="scale(1 1) rotate(0) translate(4 84)">
<title>SignalSlot.h</title>
<polygon fill="white" stroke="white" points="-4,5 -4,-84 183,-84 183,5 -4,5"/>
<!-- Node1 -->
<g id="node1" class="node"><title>Node1</title>
<polygon fill="#bfbfbf" stroke="black" points="63,-58.5 63,-79.5 135,-79.5 135,-58.5 63,-58.5"/>
<text text-anchor="middle" x="99" y="-66.5" font-family="Helvetica,sans-Serif" font-size="10.00">SignalSlot.h</text>
</g>
<!-- Node2 -->
<g id="node3" class="node"><title>Node2</title>
<a xlink:href="Common_8h.htm" target="_top" xlink:title="Common.h">
<polygon fill="white" stroke="black" points="-0.5,-0.5 -0.5,-21.5 66.5,-21.5 66.5,-0.5 -0.5,-0.5"/>
<text text-anchor="middle" x="33" y="-8.5" font-family="Helvetica,sans-Serif" font-size="10.00">Common.h</text>
</a>
</g>
<!-- Node1&#45;&gt;Node2 -->
<g id="edge2" class="edge"><title>Node1&#45;&gt;Node2</title>
<path fill="none" stroke="midnightblue" d="M86.8946,-58.3619C77.3119,-49.9408 63.7361,-38.0105 52.6074,-28.2308"/>
<polygon fill="midnightblue" stroke="midnightblue" points="54.8508,-25.5427 45.0287,-21.5707 50.2299,-30.8009 54.8508,-25.5427"/>
</g>
<!-- Node3 -->
<g id="node5" class="node"><title>Node3</title>
<polygon fill="white" stroke="#bfbfbf" points="83.5,-0.5 83.5,-21.5 114.5,-21.5 114.5,-0.5 83.5,-0.5"/>
<text text-anchor="middle" x="99" y="-8.5" font-family="Helvetica,sans-Serif" font-size="10.00">set</text>
</g>
<!-- Node1&#45;&gt;Node3 -->
<g id="edge4" class="edge"><title>Node1&#45;&gt;Node3</title>
<path fill="none" stroke="midnightblue" d="M99,-58.3619C99,-50.9219 99,-40.7427 99,-31.7276"/>
<polygon fill="midnightblue" stroke="midnightblue" points="102.5,-31.5706 99,-21.5707 95.5001,-31.5707 102.5,-31.5706"/>
</g>
<!-- Node4 -->
<g id="node7" class="node"><title>Node4</title>
<polygon fill="white" stroke="#bfbfbf" points="131.5,-0.5 131.5,-21.5 178.5,-21.5 178.5,-0.5 131.5,-0.5"/>
<text text-anchor="middle" x="155" y="-8.5" font-family="Helvetica,sans-Serif" font-size="10.00">stdio.h</text>
</g>
<!-- Node1&#45;&gt;Node4 -->
<g id="edge6" class="edge"><title>Node1&#45;&gt;Node4</title>
<path fill="none" stroke="midnightblue" d="M109.271,-58.3619C117.244,-50.1043 128.475,-38.4725 137.811,-28.8029"/>
<polygon fill="midnightblue" stroke="midnightblue" points="140.366,-31.1958 144.794,-21.5707 135.33,-26.3336 140.366,-31.1958"/>
</g>
</g>
</svg>
