<?xml version="1.0" encoding="UTF-8" standalone="no"?>
<!DOCTYPE svg PUBLIC "-//W3C//DTD SVG 1.1//EN"
 "http://www.w3.org/Graphics/SVG/1.1/DTD/svg11.dtd">
<!-- Generated by graphviz version 2.26.3 (20100126.1600)
 -->
<!-- Title: SingletonTimer.cpp Pages: 1 -->
<svg width="605pt" height="146pt"
 viewBox="0.00 0.00 605.00 146.00" xmlns="http://www.w3.org/2000/svg" xmlns:xlink="http://www.w3.org/1999/xlink">
<g id="graph1" class="graph" transform="scale(1 1) rotate(0) translate(4 142)">
<title>SingletonTimer.cpp</title>
<polygon fill="white" stroke="white" points="-4,5 -4,-142 602,-142 602,5 -4,5"/>
<!-- Node1 -->
<g id="node1" class="node"><title>Node1</title>
<polygon fill="#bfbfbf" stroke="black" points="283.5,-116.5 283.5,-137.5 390.5,-137.5 390.5,-116.5 283.5,-116.5"/>
<text text-anchor="middle" x="337" y="-124.5" font-family="Helvetica,sans-Serif" font-size="10.00">SingletonTimer.cpp</text>
</g>
<!-- Node2 -->
<g id="node3" class="node"><title>Node2</title>
<a xlink:href="Common_8h.htm" target="_top" xlink:title="Common.h">
<polygon fill="white" stroke="black" points="277.5,-0.5 277.5,-21.5 344.5,-21.5 344.5,-0.5 277.5,-0.5"/>
<text text-anchor="middle" x="311" y="-8.5" font-family="Helvetica,sans-Serif" font-size="10.00">Common.h</text>
</a>
</g>
<!-- Node1&#45;&gt;Node2 -->
<g id="edge2" class="edge"><title>Node1&#45;&gt;Node2</title>
<path fill="none" stroke="midnightblue" d="M334.601,-116.295C330.286,-97.0451 321.151,-56.2889 315.597,-31.5091"/>
<polygon fill="midnightblue" stroke="midnightblue" points="318.996,-30.6716 313.394,-21.6792 312.166,-32.2026 318.996,-30.6716"/>
</g>
<!-- Node3 -->
<g id="node5" class="node"><title>Node3</title>
<polygon fill="white" stroke="#bfbfbf" points="338.5,-58.5 338.5,-79.5 389.5,-79.5 389.5,-58.5 338.5,-58.5"/>
<text text-anchor="middle" x="364" y="-66.5" font-family="Helvetica,sans-Serif" font-size="10.00">string.h</text>
</g>
<!-- Node1&#45;&gt;Node3 -->
<g id="edge4" class="edge"><title>Node1&#45;&gt;Node3</title>
<path fill="none" stroke="midnightblue" d="M341.952,-116.362C345.53,-108.677 350.468,-98.0686 354.764,-88.8399"/>
<polygon fill="midnightblue" stroke="midnightblue" points="358.032,-90.1136 359.079,-79.5707 351.686,-87.1594 358.032,-90.1136"/>
</g>
<!-- Node4 -->
<g id="node7" class="node"><title>Node4</title>
<polygon fill="white" stroke="#bfbfbf" points="-0.5,-0.5 -0.5,-21.5 46.5,-21.5 46.5,-0.5 -0.5,-0.5"/>
<text text-anchor="middle" x="23" y="-8.5" font-family="Helvetica,sans-Serif" font-size="10.00">stdio.h</text>
</g>
<!-- Node1&#45;&gt;Node4 -->
<g id="edge6" class="edge"><title>Node1&#45;&gt;Node4</title>
<path fill="none" stroke="midnightblue" d="M283.462,-119.925C223.268,-111.369 129.781,-96.1023 98,-80 73.6735,-67.6746 51.4524,-45.1784 37.6199,-29.2266"/>
<polygon fill="midnightblue" stroke="midnightblue" points="40.2979,-26.973 31.1843,-21.5699 34.9393,-31.4771 40.2979,-26.973"/>
</g>
<!-- Node5 -->
<g id="node9" class="node"><title>Node5</title>
<polygon fill="white" stroke="#bfbfbf" points="406.5,-58.5 406.5,-79.5 455.5,-79.5 455.5,-58.5 406.5,-58.5"/>
<text text-anchor="middle" x="431" y="-66.5" font-family="Helvetica,sans-Serif" font-size="10.00">stdlib.h</text>
</g>
<!-- Node1&#45;&gt;Node5 -->
<g id="edge8" class="edge"><title>Node1&#45;&gt;Node5</title>
<path fill="none" stroke="midnightblue" d="M354.241,-116.362C368.552,-107.532 389.115,-94.844 405.357,-84.8224"/>
<polygon fill="midnightblue" stroke="midnightblue" points="407.196,-87.8004 413.868,-79.5707 403.52,-81.8431 407.196,-87.8004"/>
</g>
<!-- Node6 -->
<g id="node11" class="node"><title>Node6</title>
<polygon fill="white" stroke="#bfbfbf" points="473,-58.5 473,-79.5 517,-79.5 517,-58.5 473,-58.5"/>
<text text-anchor="middle" x="495" y="-66.5" font-family="Helvetica,sans-Serif" font-size="10.00">time.h</text>
</g>
<!-- Node1&#45;&gt;Node6 -->
<g id="edge10" class="edge"><title>Node1&#45;&gt;Node6</title>
<path fill="none" stroke="midnightblue" d="M365.613,-116.497C393.137,-106.393 434.666,-91.1481 463.209,-80.67"/>
<polygon fill="midnightblue" stroke="midnightblue" points="464.538,-83.9105 472.72,-77.1788 462.126,-77.3393 464.538,-83.9105"/>
</g>
<!-- Node7 -->
<g id="node13" class="node"><title>Node7</title>
<polygon fill="white" stroke="#bfbfbf" points="534.5,-58.5 534.5,-79.5 597.5,-79.5 597.5,-58.5 534.5,-58.5"/>
<text text-anchor="middle" x="566" y="-66.5" font-family="Helvetica,sans-Serif" font-size="10.00">sys/time.h</text>
</g>
<!-- Node1&#45;&gt;Node7 -->
<g id="edge12" class="edge"><title>Node1&#45;&gt;Node7</title>
<path fill="none" stroke="midnightblue" d="M380.617,-116.476C416.801,-107.673 469.85,-94.6012 524.319,-80.4054"/>
<polygon fill="midnightblue" stroke="midnightblue" points="525.353,-83.7529 534.142,-77.8369 523.582,-76.9805 525.353,-83.7529"/>
</g>
<!-- Node8 -->
<g id="node15" class="node"><title>Node8</title>
<a xlink:href="Logging_8h.htm" target="_top" xlink:title="Logging.h">
<polygon fill="white" stroke="black" points="106.5,-58.5 106.5,-79.5 169.5,-79.5 169.5,-58.5 106.5,-58.5"/>
<text text-anchor="middle" x="138" y="-66.5" font-family="Helvetica,sans-Serif" font-size="10.00">Logging.h</text>
</a>
</g>
<!-- Node1&#45;&gt;Node8 -->
<g id="edge14" class="edge"><title>Node1&#45;&gt;Node8</title>
<path fill="none" stroke="midnightblue" d="M300.963,-116.497C266.666,-106.501 215.103,-91.4723 179.195,-81.0065"/>
<polygon fill="midnightblue" stroke="midnightblue" points="180.089,-77.6215 169.509,-78.1835 178.13,-84.3419 180.089,-77.6215"/>
</g>
<!-- Node11 -->
<g id="node23" class="node"><title>Node11</title>
<a xlink:href="SingletonTimer_8h.htm" target="_top" xlink:title="SingletonTimer.h">
<polygon fill="white" stroke="black" points="187,-58.5 187,-79.5 283,-79.5 283,-58.5 187,-58.5"/>
<text text-anchor="middle" x="235" y="-66.5" font-family="Helvetica,sans-Serif" font-size="10.00">SingletonTimer.h</text>
</a>
</g>
<!-- Node1&#45;&gt;Node11 -->
<g id="edge24" class="edge"><title>Node1&#45;&gt;Node11</title>
<path fill="none" stroke="midnightblue" d="M318.292,-116.362C302.619,-107.45 280.036,-94.6087 262.337,-84.5447"/>
<polygon fill="midnightblue" stroke="midnightblue" points="264.013,-81.4712 253.59,-79.5707 260.553,-87.5562 264.013,-81.4712"/>
</g>
<!-- Node8&#45;&gt;Node2 -->
<g id="edge16" class="edge"><title>Node8&#45;&gt;Node2</title>
<path fill="none" stroke="midnightblue" d="M169.329,-58.4966C197.533,-49.0411 239.167,-35.0829 270.009,-24.7428"/>
<polygon fill="midnightblue" stroke="midnightblue" points="271.243,-28.0203 279.612,-21.5231 269.018,-21.3834 271.243,-28.0203"/>
</g>
<!-- Node8&#45;&gt;Node4 -->
<g id="edge18" class="edge"><title>Node8&#45;&gt;Node4</title>
<path fill="none" stroke="midnightblue" d="M117.174,-58.4966C99.2937,-49.4786 73.2926,-36.3649 53.139,-26.2006"/>
<polygon fill="midnightblue" stroke="midnightblue" points="54.5641,-22.9994 44.0593,-21.6212 51.4119,-29.2495 54.5641,-22.9994"/>
</g>
<!-- Node9 -->
<g id="node19" class="node"><title>Node9</title>
<polygon fill="white" stroke="#bfbfbf" points="151.5,-0.5 151.5,-21.5 192.5,-21.5 192.5,-0.5 151.5,-0.5"/>
<text text-anchor="middle" x="172" y="-8.5" font-family="Helvetica,sans-Serif" font-size="10.00">glib.h</text>
</g>
<!-- Node8&#45;&gt;Node9 -->
<g id="edge20" class="edge"><title>Node8&#45;&gt;Node9</title>
<path fill="none" stroke="midnightblue" d="M144.236,-58.3619C148.837,-50.5131 155.225,-39.6159 160.714,-30.2527"/>
<polygon fill="midnightblue" stroke="midnightblue" points="163.766,-31.9677 165.803,-21.5707 157.727,-28.4276 163.766,-31.9677"/>
</g>
<!-- Node10 -->
<g id="node21" class="node"><title>Node10</title>
<polygon fill="white" stroke="#bfbfbf" points="63.5,-0.5 63.5,-21.5 134.5,-21.5 134.5,-0.5 63.5,-0.5"/>
<text text-anchor="middle" x="99" y="-8.5" font-family="Helvetica,sans-Serif" font-size="10.00">PmLogLib.h</text>
</g>
<!-- Node8&#45;&gt;Node10 -->
<g id="edge22" class="edge"><title>Node8&#45;&gt;Node10</title>
<path fill="none" stroke="midnightblue" d="M130.847,-58.3619C125.514,-50.4313 118.089,-39.3885 111.749,-29.9606"/>
<polygon fill="midnightblue" stroke="midnightblue" points="114.592,-27.9161 106.108,-21.5707 108.783,-31.8221 114.592,-27.9161"/>
</g>
<!-- Node11&#45;&gt;Node2 -->
<g id="edge26" class="edge"><title>Node11&#45;&gt;Node2</title>
<path fill="none" stroke="midnightblue" d="M248.94,-58.3619C260.188,-49.7773 276.216,-37.5459 289.165,-27.6636"/>
<polygon fill="midnightblue" stroke="midnightblue" points="291.323,-30.4198 297.149,-21.5707 287.076,-24.8551 291.323,-30.4198"/>
</g>
<!-- Node11&#45;&gt;Node9 -->
<g id="edge28" class="edge"><title>Node11&#45;&gt;Node9</title>
<path fill="none" stroke="midnightblue" d="M223.445,-58.3619C214.387,-50.0226 201.59,-38.2418 191.026,-28.5162"/>
<polygon fill="midnightblue" stroke="midnightblue" points="193.21,-25.7688 183.482,-21.5707 188.468,-30.9187 193.21,-25.7688"/>
</g>
<!-- Node12 -->
<g id="node27" class="node"><title>Node12</title>
<polygon fill="white" stroke="#bfbfbf" points="210,-0.5 210,-21.5 260,-21.5 260,-0.5 210,-0.5"/>
<text text-anchor="middle" x="235" y="-8.5" font-family="Helvetica,sans-Serif" font-size="10.00">stdint.h</text>
</g>
<!-- Node11&#45;&gt;Node12 -->
<g id="edge30" class="edge"><title>Node11&#45;&gt;Node12</title>
<path fill="none" stroke="midnightblue" d="M235,-58.3619C235,-50.9219 235,-40.7427 235,-31.7276"/>
<polygon fill="midnightblue" stroke="midnightblue" points="238.5,-31.5706 235,-21.5707 231.5,-31.5707 238.5,-31.5706"/>
</g>
</g>
</svg>
