<?xml version="1.0" encoding="UTF-8" standalone="no"?>
<!DOCTYPE svg PUBLIC "-//W3C//DTD SVG 1.1//EN"
 "http://www.w3.org/Graphics/SVG/1.1/DTD/svg11.dtd">
<!-- Generated by graphviz version 2.26.3 (20100126.1600)
 -->
<!-- Title: SingletonTimer.h Pages: 1 -->
<svg width="200pt" height="88pt"
 viewBox="0.00 0.00 200.00 88.00" xmlns="http://www.w3.org/2000/svg" xmlns:xlink="http://www.w3.org/1999/xlink">
<g id="graph1" class="graph" transform="scale(1 1) rotate(0) translate(4 84)">
<title>SingletonTimer.h</title>
<polygon fill="white" stroke="white" points="-4,5 -4,-84 197,-84 197,5 -4,5"/>
<!-- Node1 -->
<g id="node1" class="node"><title>Node1</title>
<polygon fill="#bfbfbf" stroke="black" points="56,-58.5 56,-79.5 152,-79.5 152,-58.5 56,-58.5"/>
<text text-anchor="middle" x="104" y="-66.5" font-family="Helvetica,sans-Serif" font-size="10.00">SingletonTimer.h</text>
</g>
<!-- Node2 -->
<g id="node3" class="node"><title>Node2</title>
<a xlink:href="Common_8h.htm" target="_top" xlink:title="Common.h">
<polygon fill="white" stroke="black" points="-0.5,-0.5 -0.5,-21.5 66.5,-21.5 66.5,-0.5 -0.5,-0.5"/>
<text text-anchor="middle" x="33" y="-8.5" font-family="Helvetica,sans-Serif" font-size="10.00">Common.h</text>
</a>
</g>
<!-- Node1&#45;&gt;Node2 -->
<g id="edge2" class="edge"><title>Node1&#45;&gt;Node2</title>
<path fill="none" stroke="midnightblue" d="M90.9775,-58.3619C80.5688,-49.859 65.7806,-37.7785 53.7449,-27.9466"/>
<polygon fill="midnightblue" stroke="midnightblue" points="55.8987,-25.1866 45.9399,-21.5707 51.4701,-30.6077 55.8987,-25.1866"/>
</g>
<!-- Node3 -->
<g id="node5" class="node"><title>Node3</title>
<polygon fill="white" stroke="#bfbfbf" points="83.5,-0.5 83.5,-21.5 124.5,-21.5 124.5,-0.5 83.5,-0.5"/>
<text text-anchor="middle" x="104" y="-8.5" font-family="Helvetica,sans-Serif" font-size="10.00">glib.h</text>
</g>
<!-- Node1&#45;&gt;Node3 -->
<g id="edge4" class="edge"><title>Node1&#45;&gt;Node3</title>
<path fill="none" stroke="midnightblue" d="M104,-58.3619C104,-50.9219 104,-40.7427 104,-31.7276"/>
<polygon fill="midnightblue" stroke="midnightblue" points="107.5,-31.5706 104,-21.5707 100.5,-31.5707 107.5,-31.5706"/>
</g>
<!-- Node4 -->
<g id="node7" class="node"><title>Node4</title>
<polygon fill="white" stroke="#bfbfbf" points="142,-0.5 142,-21.5 192,-21.5 192,-0.5 142,-0.5"/>
<text text-anchor="middle" x="167" y="-8.5" font-family="Helvetica,sans-Serif" font-size="10.00">stdint.h</text>
</g>
<!-- Node1&#45;&gt;Node4 -->
<g id="edge6" class="edge"><title>Node1&#45;&gt;Node4</title>
<path fill="none" stroke="midnightblue" d="M115.555,-58.3619C124.613,-50.0226 137.41,-38.2418 147.974,-28.5162"/>
<polygon fill="midnightblue" stroke="midnightblue" points="150.532,-30.9187 155.518,-21.5707 145.79,-25.7688 150.532,-30.9187"/>
</g>
</g>
</svg>
