<?xml version="1.0" encoding="UTF-8" standalone="no"?>
<!DOCTYPE svg PUBLIC "-//W3C//DTD SVG 1.1//EN"
 "http://www.w3.org/Graphics/SVG/1.1/DTD/svg11.dtd">
<!-- Generated by graphviz version 2.26.3 (20100126.1600)
 -->
<!-- Title: SingletonTimer.h Pages: 1 -->
<svg width="1156pt" height="320pt"
 viewBox="0.00 0.00 1155.89 320.00" xmlns="http://www.w3.org/2000/svg" xmlns:xlink="http://www.w3.org/1999/xlink">
<g id="graph1" class="graph" transform="scale(1 1) rotate(0) translate(4 316)">
<title>SingletonTimer.h</title>
<polygon fill="white" stroke="white" points="-4,5 -4,-316 1152.89,-316 1152.89,5 -4,5"/>
<!-- Node1 -->
<g id="node1" class="node"><title>Node1</title>
<polygon fill="#bfbfbf" stroke="black" points="449.887,-290.5 449.887,-311.5 545.887,-311.5 545.887,-290.5 449.887,-290.5"/>
<text text-anchor="middle" x="497.887" y="-298.5" font-family="Helvetica,sans-Serif" font-size="10.00">SingletonTimer.h</text>
</g>
<!-- Node2 -->
<g id="node3" class="node"><title>Node2</title>
<a xlink:href="SingletonTimer_8cpp.htm" target="_top" xlink:title="SingletonTimer.cpp">
<polygon fill="white" stroke="black" points="342.387,-232.5 342.387,-253.5 449.387,-253.5 449.387,-232.5 342.387,-232.5"/>
<text text-anchor="middle" x="395.887" y="-240.5" font-family="Helvetica,sans-Serif" font-size="10.00">SingletonTimer.cpp</text>
</a>
</g>
<!-- Node1&#45;&gt;Node2 -->
<g id="edge2" class="edge"><title>Node1&#45;&gt;Node2</title>
<path fill="none" stroke="midnightblue" d="M470.416,-285.379C452.692,-275.301 430.114,-262.462 414.477,-253.571"/>
<polygon fill="midnightblue" stroke="midnightblue" points="468.756,-288.461 479.179,-290.362 472.216,-282.376 468.756,-288.461"/>
</g>
<!-- Node3 -->
<g id="node5" class="node"><title>Node3</title>
<a xlink:href="Timer_8cpp.htm" target="_top" xlink:title="Timer.cpp">
<polygon fill="white" stroke="black" points="466.387,-232.5 466.387,-253.5 529.387,-253.5 529.387,-232.5 466.387,-232.5"/>
<text text-anchor="middle" x="497.887" y="-240.5" font-family="Helvetica,sans-Serif" font-size="10.00">Timer.cpp</text>
</a>
</g>
<!-- Node1&#45;&gt;Node3 -->
<g id="edge4" class="edge"><title>Node1&#45;&gt;Node3</title>
<path fill="none" stroke="midnightblue" d="M497.887,-280.191C497.887,-271.168 497.887,-260.994 497.887,-253.571"/>
<polygon fill="midnightblue" stroke="midnightblue" points="494.387,-280.362 497.887,-290.362 501.387,-280.362 494.387,-280.362"/>
</g>
<!-- Node4 -->
<g id="node7" class="node"><title>Node4</title>
<a xlink:href="TaskBase_8h.htm" target="_top" xlink:title="TaskBase.h">
<polygon fill="white" stroke="black" points="546.887,-232.5 546.887,-253.5 618.887,-253.5 618.887,-232.5 546.887,-232.5"/>
<text text-anchor="middle" x="582.887" y="-240.5" font-family="Helvetica,sans-Serif" font-size="10.00">TaskBase.h</text>
</a>
</g>
<!-- Node1&#45;&gt;Node4 -->
<g id="edge6" class="edge"><title>Node1&#45;&gt;Node4</title>
<path fill="none" stroke="midnightblue" d="M522.008,-284.541C536.581,-274.597 554.723,-262.218 567.396,-253.571"/>
<polygon fill="midnightblue" stroke="midnightblue" points="519.765,-281.834 513.477,-290.362 523.71,-287.617 519.765,-281.834"/>
</g>
<!-- Node5 -->
<g id="node9" class="node"><title>Node5</title>
<a xlink:href="TaskBase_8cpp.htm" target="_top" xlink:title="TaskBase.cpp">
<polygon fill="white" stroke="black" points="447.387,-174.5 447.387,-195.5 530.387,-195.5 530.387,-174.5 447.387,-174.5"/>
<text text-anchor="middle" x="488.887" y="-182.5" font-family="Helvetica,sans-Serif" font-size="10.00">TaskBase.cpp</text>
</a>
</g>
<!-- Node4&#45;&gt;Node5 -->
<g id="edge8" class="edge"><title>Node4&#45;&gt;Node5</title>
<path fill="none" stroke="midnightblue" d="M557.12,-227.101C540.856,-217.066 520.297,-204.381 506.019,-195.571"/>
<polygon fill="midnightblue" stroke="midnightblue" points="555.298,-230.089 565.646,-232.362 558.974,-224.132 555.298,-230.089"/>
</g>
<!-- Node6 -->
<g id="node11" class="node"><title>Node6</title>
<a xlink:href="HostBase_8h.htm" target="_top" xlink:title="HostBase.h">
<polygon fill="white" stroke="black" points="547.387,-174.5 547.387,-195.5 618.387,-195.5 618.387,-174.5 547.387,-174.5"/>
<text text-anchor="middle" x="582.887" y="-182.5" font-family="Helvetica,sans-Serif" font-size="10.00">HostBase.h</text>
</a>
</g>
<!-- Node4&#45;&gt;Node6 -->
<g id="edge10" class="edge"><title>Node4&#45;&gt;Node6</title>
<path fill="none" stroke="midnightblue" d="M582.887,-222.191C582.887,-213.168 582.887,-202.994 582.887,-195.571"/>
<polygon fill="midnightblue" stroke="midnightblue" points="579.387,-222.362 582.887,-232.362 586.387,-222.362 579.387,-222.362"/>
</g>
<!-- Node22 -->
<g id="node46" class="node"><title>Node22</title>
<a xlink:href="SyncTask_8h.htm" target="_top" xlink:title="SyncTask.h">
<polygon fill="white" stroke="black" points="798.387,-174.5 798.387,-195.5 869.387,-195.5 869.387,-174.5 798.387,-174.5"/>
<text text-anchor="middle" x="833.887" y="-182.5" font-family="Helvetica,sans-Serif" font-size="10.00">SyncTask.h</text>
</a>
</g>
<!-- Node4&#45;&gt;Node22 -->
<g id="edge48" class="edge"><title>Node4&#45;&gt;Node22</title>
<path fill="none" stroke="midnightblue" d="M629.089,-232.324C677.848,-221.057 753.656,-203.539 798.075,-193.275"/>
<polygon fill="midnightblue" stroke="midnightblue" points="628.072,-228.967 619.117,-234.628 629.648,-235.787 628.072,-228.967"/>
</g>
<!-- Node7 -->
<g id="node13" class="node"><title>Node7</title>
<a xlink:href="FlickGestureRecognizer_8cpp.htm" target="_top" xlink:title="FlickGestureRecognizer.cpp">
<polygon fill="white" stroke="black" points="726.387,-116.5 726.387,-137.5 875.387,-137.5 875.387,-116.5 726.387,-116.5"/>
<text text-anchor="middle" x="800.887" y="-124.5" font-family="Helvetica,sans-Serif" font-size="10.00">FlickGestureRecognizer.cpp</text>
</a>
</g>
<!-- Node6&#45;&gt;Node7 -->
<g id="edge12" class="edge"><title>Node6&#45;&gt;Node7</title>
<path fill="none" stroke="midnightblue" d="M628.251,-172.931C667.55,-162.475 723.834,-147.5 761.331,-137.524"/>
<polygon fill="midnightblue" stroke="midnightblue" points="627.162,-169.599 618.398,-175.552 628.961,-176.363 627.162,-169.599"/>
</g>
<!-- Node8 -->
<g id="node15" class="node"><title>Node8</title>
<a xlink:href="HostArm_8cpp.htm" target="_top" xlink:title="HostArm.cpp">
<polygon fill="white" stroke="black" points="13.3871,-58.5 13.3871,-79.5 90.3871,-79.5 90.3871,-58.5 13.3871,-58.5"/>
<text text-anchor="middle" x="51.8871" y="-66.5" font-family="Helvetica,sans-Serif" font-size="10.00">HostArm.cpp</text>
</a>
</g>
<!-- Node6&#45;&gt;Node8 -->
<g id="edge14" class="edge"><title>Node6&#45;&gt;Node8</title>
<path fill="none" stroke="midnightblue" d="M537.371,-173.695C342.379,-128.672 290.788,-122.951 98.8871,-80 96.1884,-79.396 93.4044,-78.7649 90.6021,-78.1238"/>
<polygon fill="midnightblue" stroke="midnightblue" points="536.839,-177.164 547.371,-176.009 538.418,-170.345 536.839,-177.164"/>
</g>
<!-- Node9 -->
<g id="node17" class="node"><title>Node9</title>
<a xlink:href="HostBase_8cpp.htm" target="_top" xlink:title="HostBase.cpp">
<polygon fill="white" stroke="black" points="10.8871,-0.5 10.8871,-21.5 92.8871,-21.5 92.8871,-0.5 10.8871,-0.5"/>
<text text-anchor="middle" x="51.8871" y="-8.5" font-family="Helvetica,sans-Serif" font-size="10.00">HostBase.cpp</text>
</a>
</g>
<!-- Node6&#45;&gt;Node9 -->
<g id="edge38" class="edge"><title>Node6&#45;&gt;Node9</title>
<path fill="none" stroke="midnightblue" d="M536.908,-173.901C403.448,-152.4 78.5497,-171.455 4.88708,-80 -10.9328,-60.3589 16.4653,-35.5411 35.6403,-21.6574"/>
<polygon fill="midnightblue" stroke="midnightblue" points="536.486,-177.381 546.941,-175.667 537.699,-170.486 536.486,-177.381"/>
</g>
<!-- Node10 -->
<g id="node19" class="node"><title>Node10</title>
<a xlink:href="HostArm_8h.htm" target="_top" xlink:title="HostArm.h">
<polygon fill="white" stroke="black" points="388.387,-116.5 388.387,-137.5 453.387,-137.5 453.387,-116.5 388.387,-116.5"/>
<text text-anchor="middle" x="420.887" y="-124.5" font-family="Helvetica,sans-Serif" font-size="10.00">HostArm.h</text>
</a>
</g>
<!-- Node6&#45;&gt;Node10 -->
<g id="edge18" class="edge"><title>Node6&#45;&gt;Node10</title>
<path fill="none" stroke="midnightblue" d="M543.81,-171.009C515.021,-160.702 476.478,-146.903 450.279,-137.523"/>
<polygon fill="midnightblue" stroke="midnightblue" points="542.956,-174.421 553.55,-174.497 545.315,-167.831 542.956,-174.421"/>
</g>
<!-- Node18 -->
<g id="node38" class="node"><title>Node18</title>
<a xlink:href="HostQtDesktop_8h.htm" target="_top" xlink:title="HostQtDesktop.h">
<polygon fill="white" stroke="black" points="470.387,-116.5 470.387,-137.5 567.387,-137.5 567.387,-116.5 470.387,-116.5"/>
<text text-anchor="middle" x="518.887" y="-124.5" font-family="Helvetica,sans-Serif" font-size="10.00">HostQtDesktop.h</text>
</a>
</g>
<!-- Node6&#45;&gt;Node18 -->
<g id="edge40" class="edge"><title>Node6&#45;&gt;Node18</title>
<path fill="none" stroke="midnightblue" d="M563.472,-167.405C552.728,-157.668 539.733,-145.891 530.551,-137.571"/>
<polygon fill="midnightblue" stroke="midnightblue" points="561.388,-170.24 571.148,-174.362 566.089,-165.053 561.388,-170.24"/>
</g>
<!-- Node20 -->
<g id="node42" class="node"><title>Node20</title>
<a xlink:href="LocalePreferences_8cpp.htm" target="_top" xlink:title="LocalePreferences.cpp">
<polygon fill="white" stroke="black" points="584.387,-116.5 584.387,-137.5 709.387,-137.5 709.387,-116.5 584.387,-116.5"/>
<text text-anchor="middle" x="646.887" y="-124.5" font-family="Helvetica,sans-Serif" font-size="10.00">LocalePreferences.cpp</text>
</a>
</g>
<!-- Node6&#45;&gt;Node20 -->
<g id="edge44" class="edge"><title>Node6&#45;&gt;Node20</title>
<path fill="none" stroke="midnightblue" d="M602.302,-167.405C613.046,-157.668 626.041,-145.891 635.223,-137.571"/>
<polygon fill="midnightblue" stroke="midnightblue" points="599.685,-165.053 594.626,-174.362 604.386,-170.24 599.685,-165.053"/>
</g>
<!-- Node21 -->
<g id="node44" class="node"><title>Node21</title>
<a xlink:href="SyncTask_8cpp.htm" target="_top" xlink:title="SyncTask.cpp">
<polygon fill="white" stroke="black" points="892.387,-116.5 892.387,-137.5 975.387,-137.5 975.387,-116.5 892.387,-116.5"/>
<text text-anchor="middle" x="933.887" y="-124.5" font-family="Helvetica,sans-Serif" font-size="10.00">SyncTask.cpp</text>
</a>
</g>
<!-- Node6&#45;&gt;Node21 -->
<g id="edge46" class="edge"><title>Node6&#45;&gt;Node21</title>
<path fill="none" stroke="midnightblue" d="M628.824,-178.726C687.984,-170.439 793.905,-154.907 883.887,-138 886.595,-137.491 889.38,-136.944 892.185,-136.376"/>
<polygon fill="midnightblue" stroke="midnightblue" points="628.108,-175.291 618.687,-180.139 629.074,-182.224 628.108,-175.291"/>
</g>
<!-- Node8&#45;&gt;Node9 -->
<g id="edge16" class="edge"><title>Node8&#45;&gt;Node9</title>
<path fill="none" stroke="midnightblue" d="M51.8871,-48.1906C51.8871,-39.1684 51.8871,-28.9941 51.8871,-21.5707"/>
<polygon fill="midnightblue" stroke="midnightblue" points="48.3872,-48.3619 51.8871,-58.3619 55.3872,-48.3619 48.3872,-48.3619"/>
</g>
<!-- Node10&#45;&gt;Node8 -->
<g id="edge20" class="edge"><title>Node10&#45;&gt;Node8</title>
<path fill="none" stroke="midnightblue" d="M378.125,-121.933C316.264,-114.337 198.318,-98.8569 98.8871,-80 96.17,-79.4847 93.3725,-78.9195 90.5603,-78.3258"/>
<polygon fill="midnightblue" stroke="midnightblue" points="377.934,-125.436 388.284,-123.171 378.781,-118.487 377.934,-125.436"/>
</g>
<!-- Node11 -->
<g id="node22" class="node"><title>Node11</title>
<a xlink:href="HostArmBroadway_8cpp.htm" target="_top" xlink:title="HostArmBroadway.cpp">
<polygon fill="white" stroke="black" points="641.887,-58.5 641.887,-79.5 765.887,-79.5 765.887,-58.5 641.887,-58.5"/>
<text text-anchor="middle" x="703.887" y="-66.5" font-family="Helvetica,sans-Serif" font-size="10.00">HostArmBroadway.cpp</text>
</a>
</g>
<!-- Node10&#45;&gt;Node11 -->
<g id="edge22" class="edge"><title>Node10&#45;&gt;Node11</title>
<path fill="none" stroke="midnightblue" d="M463.342,-115.762C530.002,-100.544 596.665,-87.9413 643.47,-79.5161"/>
<polygon fill="midnightblue" stroke="midnightblue" points="462.469,-112.371 453.509,-118.026 464.039,-119.193 462.469,-112.371"/>
</g>
<!-- Node12 -->
<g id="node24" class="node"><title>Node12</title>
<a xlink:href="HostArmMantaray_8cpp.htm" target="_top" xlink:title="HostArmMantaray.cpp">
<polygon fill="white" stroke="black" points="783.887,-58.5 783.887,-79.5 905.887,-79.5 905.887,-58.5 783.887,-58.5"/>
<text text-anchor="middle" x="844.887" y="-66.5" font-family="Helvetica,sans-Serif" font-size="10.00">HostArmMantaray.cpp</text>
</a>
</g>
<!-- Node10&#45;&gt;Node12 -->
<g id="edge24" class="edge"><title>Node10&#45;&gt;Node12</title>
<path fill="none" stroke="midnightblue" d="M463.547,-115.887C601.216,-90.1966 639.388,-98.4305 774.887,-80 777.813,-79.6021 780.805,-79.1821 783.826,-78.7476"/>
<polygon fill="midnightblue" stroke="midnightblue" points="462.635,-112.497 453.46,-117.796 463.937,-119.375 462.635,-112.497"/>
</g>
<!-- Node13 -->
<g id="node26" class="node"><title>Node13</title>
<a xlink:href="HostArmOpal_8cpp.htm" target="_top" xlink:title="HostArmOpal.cpp">
<polygon fill="white" stroke="black" points="923.387,-58.5 923.387,-79.5 1022.39,-79.5 1022.39,-58.5 923.387,-58.5"/>
<text text-anchor="middle" x="972.887" y="-66.5" font-family="Helvetica,sans-Serif" font-size="10.00">HostArmOpal.cpp</text>
</a>
</g>
<!-- Node10&#45;&gt;Node13 -->
<g id="edge26" class="edge"><title>Node10&#45;&gt;Node13</title>
<path fill="none" stroke="midnightblue" d="M463.352,-115.997C662.691,-82.4864 717.938,-106.423 914.887,-80 917.63,-79.632 920.439,-79.2193 923.27,-78.7754"/>
<polygon fill="midnightblue" stroke="midnightblue" points="462.709,-112.556 453.441,-117.69 463.888,-119.456 462.709,-112.556"/>
</g>
<!-- Node14 -->
<g id="node28" class="node"><title>Node14</title>
<a xlink:href="HostArmQemu_8cpp.htm" target="_top" xlink:title="HostArmQemu.cpp">
<polygon fill="white" stroke="black" points="245.887,-58.5 245.887,-79.5 349.887,-79.5 349.887,-58.5 245.887,-58.5"/>
<text text-anchor="middle" x="297.887" y="-66.5" font-family="Helvetica,sans-Serif" font-size="10.00">HostArmQemu.cpp</text>
</a>
</g>
<!-- Node10&#45;&gt;Node14 -->
<g id="edge28" class="edge"><title>Node10&#45;&gt;Node14</title>
<path fill="none" stroke="midnightblue" d="M389.514,-112.206C367.936,-102.031 339.785,-88.7567 320.411,-79.6212"/>
<polygon fill="midnightblue" stroke="midnightblue" points="388.075,-115.397 398.613,-116.497 391.061,-109.066 388.075,-115.397"/>
</g>
<!-- Node15 -->
<g id="node30" class="node"><title>Node15</title>
<a xlink:href="HostArmTopaz_8cpp.htm" target="_top" xlink:title="HostArmTopaz.cpp">
<polygon fill="white" stroke="black" points="367.387,-58.5 367.387,-79.5 474.387,-79.5 474.387,-58.5 367.387,-58.5"/>
<text text-anchor="middle" x="420.887" y="-66.5" font-family="Helvetica,sans-Serif" font-size="10.00">HostArmTopaz.cpp</text>
</a>
</g>
<!-- Node10&#45;&gt;Node15 -->
<g id="edge30" class="edge"><title>Node10&#45;&gt;Node15</title>
<path fill="none" stroke="midnightblue" d="M420.887,-106.191C420.887,-97.1684 420.887,-86.9941 420.887,-79.5707"/>
<polygon fill="midnightblue" stroke="midnightblue" points="417.387,-106.362 420.887,-116.362 424.387,-106.362 417.387,-106.362"/>
</g>
<!-- Node16 -->
<g id="node32" class="node"><title>Node16</title>
<a xlink:href="HostArmUnknown_8cpp.htm" target="_top" xlink:title="HostArmUnknown.cpp">
<polygon fill="white" stroke="black" points="107.387,-58.5 107.387,-79.5 228.387,-79.5 228.387,-58.5 107.387,-58.5"/>
<text text-anchor="middle" x="167.887" y="-66.5" font-family="Helvetica,sans-Serif" font-size="10.00">HostArmUnknown.cpp</text>
</a>
</g>
<!-- Node10&#45;&gt;Node16 -->
<g id="edge32" class="edge"><title>Node10&#45;&gt;Node16</title>
<path fill="none" stroke="midnightblue" d="M378.483,-117.279C332.98,-106.847 260.938,-90.3319 214.038,-79.5801"/>
<polygon fill="midnightblue" stroke="midnightblue" points="377.8,-120.713 388.33,-119.536 379.365,-113.89 377.8,-120.713"/>
</g>
<!-- Node17 -->
<g id="node35" class="node"><title>Node17</title>
<a xlink:href="HostArmWindsorNot_8cpp.htm" target="_top" xlink:title="HostArmWindsorNot.cpp">
<polygon fill="white" stroke="black" points="491.887,-58.5 491.887,-79.5 623.887,-79.5 623.887,-58.5 491.887,-58.5"/>
<text text-anchor="middle" x="557.887" y="-66.5" font-family="Helvetica,sans-Serif" font-size="10.00">HostArmWindsorNot.cpp</text>
</a>
</g>
<!-- Node10&#45;&gt;Node17 -->
<g id="edge36" class="edge"><title>Node10&#45;&gt;Node17</title>
<path fill="none" stroke="midnightblue" d="M455.186,-112.479C479.302,-102.269 511.027,-88.8386 532.799,-79.6212"/>
<polygon fill="midnightblue" stroke="midnightblue" points="453.541,-109.375 445.697,-116.497 456.27,-115.821 453.541,-109.375"/>
</g>
<!-- Node16&#45;&gt;Node9 -->
<g id="edge34" class="edge"><title>Node16&#45;&gt;Node9</title>
<path fill="none" stroke="midnightblue" d="M137.751,-53.9319C117.474,-43.7932 91.2366,-30.6748 73.1295,-21.6212"/>
<polygon fill="midnightblue" stroke="midnightblue" points="136.371,-57.1549 146.88,-58.4966 139.501,-50.8939 136.371,-57.1549"/>
</g>
<!-- Node19 -->
<g id="node40" class="node"><title>Node19</title>
<a xlink:href="HostQtDesktop_8cpp.htm" target="_top" xlink:title="HostQtDesktop.cpp">
<polygon fill="white" stroke="black" points="1039.89,-58.5 1039.89,-79.5 1147.89,-79.5 1147.89,-58.5 1039.89,-58.5"/>
<text text-anchor="middle" x="1093.89" y="-66.5" font-family="Helvetica,sans-Serif" font-size="10.00">HostQtDesktop.cpp</text>
</a>
</g>
<!-- Node18&#45;&gt;Node19 -->
<g id="edge42" class="edge"><title>Node18&#45;&gt;Node19</title>
<path fill="none" stroke="midnightblue" d="M577.64,-115.877C778.639,-89.2668 832.881,-105.063 1030.89,-80 1033.75,-79.6375 1036.68,-79.2352 1039.64,-78.8048"/>
<polygon fill="midnightblue" stroke="midnightblue" points="577.091,-112.42 567.646,-117.219 578.022,-119.357 577.091,-112.42"/>
</g>
<!-- Node22&#45;&gt;Node21 -->
<g id="edge50" class="edge"><title>Node22&#45;&gt;Node21</title>
<path fill="none" stroke="midnightblue" d="M861.299,-169.101C878.601,-159.066 900.472,-146.381 915.662,-137.571"/>
<polygon fill="midnightblue" stroke="midnightblue" points="859.123,-166.317 852.229,-174.362 862.635,-172.372 859.123,-166.317"/>
</g>
</g>
</svg>
