<?xml version="1.0" encoding="UTF-8" standalone="no"?>
<!DOCTYPE svg PUBLIC "-//W3C//DTD SVG 1.1//EN"
 "http://www.w3.org/Graphics/SVG/1.1/DTD/svg11.dtd">
<!-- Generated by graphviz version 2.26.3 (20100126.1600)
 -->
<!-- Title: sptr.h Pages: 1 -->
<svg width="1540pt" height="378pt"
 viewBox="0.00 0.00 1540.00 378.00" xmlns="http://www.w3.org/2000/svg" xmlns:xlink="http://www.w3.org/1999/xlink">
<g id="graph1" class="graph" transform="scale(1 1) rotate(0) translate(4 374)">
<title>sptr.h</title>
<polygon fill="white" stroke="white" points="-4,5 -4,-374 1537,-374 1537,5 -4,5"/>
<!-- Node1 -->
<g id="node1" class="node"><title>Node1</title>
<polygon fill="#bfbfbf" stroke="black" points="999.5,-348.5 999.5,-369.5 1042.5,-369.5 1042.5,-348.5 999.5,-348.5"/>
<text text-anchor="middle" x="1021" y="-356.5" font-family="Helvetica,sans-Serif" font-size="10.00">sptr.h</text>
</g>
<!-- Node2 -->
<g id="node3" class="node"><title>Node2</title>
<a xlink:href="Event_8h.htm" target="_top" xlink:title="Event.h">
<polygon fill="white" stroke="black" points="847,-290.5 847,-311.5 899,-311.5 899,-290.5 847,-290.5"/>
<text text-anchor="middle" x="873" y="-298.5" font-family="Helvetica,sans-Serif" font-size="10.00">Event.h</text>
</a>
</g>
<!-- Node1&#45;&gt;Node2 -->
<g id="edge2" class="edge"><title>Node1&#45;&gt;Node2</title>
<path fill="none" stroke="midnightblue" d="M990.122,-346.899C963.158,-336.332 924.461,-321.167 899.036,-311.203"/>
<polygon fill="midnightblue" stroke="midnightblue" points="988.892,-350.176 999.48,-350.566 991.446,-343.659 988.892,-350.176"/>
</g>
<!-- Node13 -->
<g id="node27" class="node"><title>Node13</title>
<a xlink:href="TaskBase_8h.htm" target="_top" xlink:title="TaskBase.h">
<polygon fill="white" stroke="black" points="985,-232.5 985,-253.5 1057,-253.5 1057,-232.5 985,-232.5"/>
<text text-anchor="middle" x="1021" y="-240.5" font-family="Helvetica,sans-Serif" font-size="10.00">TaskBase.h</text>
</a>
</g>
<!-- Node1&#45;&gt;Node13 -->
<g id="edge54" class="edge"><title>Node1&#45;&gt;Node13</title>
<path fill="none" stroke="midnightblue" d="M1021,-338.123C1021,-313.298 1021,-272.824 1021,-253.679"/>
<polygon fill="midnightblue" stroke="midnightblue" points="1017.5,-338.295 1021,-348.295 1024.5,-338.295 1017.5,-338.295"/>
</g>
<!-- Node22 -->
<g id="node50" class="node"><title>Node22</title>
<a xlink:href="Mutex_8h.htm" target="_top" xlink:title="Mutex.h">
<polygon fill="white" stroke="black" points="1077.5,-290.5 1077.5,-311.5 1130.5,-311.5 1130.5,-290.5 1077.5,-290.5"/>
<text text-anchor="middle" x="1104" y="-298.5" font-family="Helvetica,sans-Serif" font-size="10.00">Mutex.h</text>
</a>
</g>
<!-- Node1&#45;&gt;Node22 -->
<g id="edge56" class="edge"><title>Node1&#45;&gt;Node22</title>
<path fill="none" stroke="midnightblue" d="M1044.55,-342.541C1058.78,-332.597 1076.5,-320.218 1088.87,-311.571"/>
<polygon fill="midnightblue" stroke="midnightblue" points="1042.42,-339.765 1036.22,-348.362 1046.43,-345.503 1042.42,-339.765"/>
</g>
<!-- Node3 -->
<g id="node5" class="node"><title>Node3</title>
<a xlink:href="HostArm_8cpp.htm" target="_top" xlink:title="HostArm.cpp">
<polygon fill="white" stroke="black" points="931.5,-58.5 931.5,-79.5 1008.5,-79.5 1008.5,-58.5 931.5,-58.5"/>
<text text-anchor="middle" x="970" y="-66.5" font-family="Helvetica,sans-Serif" font-size="10.00">HostArm.cpp</text>
</a>
</g>
<!-- Node2&#45;&gt;Node3 -->
<g id="edge4" class="edge"><title>Node2&#45;&gt;Node3</title>
<path fill="none" stroke="midnightblue" d="M861.324,-281.163C841.682,-244.913 807.484,-167.014 843,-116 853.444,-100.999 898.058,-86.8803 931.478,-78.1073"/>
<polygon fill="midnightblue" stroke="midnightblue" points="858.464,-283.217 866.409,-290.226 864.568,-279.792 858.464,-283.217"/>
</g>
<!-- Node5 -->
<g id="node9" class="node"><title>Node5</title>
<a xlink:href="HostArm_8h.htm" target="_top" xlink:title="HostArm.h">
<polygon fill="white" stroke="black" points="586.5,-116.5 586.5,-137.5 651.5,-137.5 651.5,-116.5 586.5,-116.5"/>
<text text-anchor="middle" x="619" y="-124.5" font-family="Helvetica,sans-Serif" font-size="10.00">HostArm.h</text>
</a>
</g>
<!-- Node2&#45;&gt;Node5 -->
<g id="edge8" class="edge"><title>Node2&#45;&gt;Node5</title>
<path fill="none" stroke="midnightblue" d="M839.418,-286.029C821.333,-277.476 798.916,-266.069 780,-254 720.575,-216.085 656.762,-160.848 630.897,-137.765"/>
<polygon fill="midnightblue" stroke="midnightblue" points="838.427,-289.428 848.97,-290.473 841.38,-283.081 838.427,-289.428"/>
</g>
<!-- Node2&#45;&gt;Node13 -->
<g id="edge28" class="edge"><title>Node2&#45;&gt;Node13</title>
<path fill="none" stroke="midnightblue" d="M908.72,-287.002C935.017,-276.696 970.214,-262.902 994.143,-253.525"/>
<polygon fill="midnightblue" stroke="midnightblue" points="907.152,-283.857 899.119,-290.764 909.706,-290.374 907.152,-283.857"/>
</g>
<!-- Node4 -->
<g id="node7" class="node"><title>Node4</title>
<a xlink:href="HostBase_8cpp.htm" target="_top" xlink:title="HostBase.cpp">
<polygon fill="white" stroke="black" points="929,-0.5 929,-21.5 1011,-21.5 1011,-0.5 929,-0.5"/>
<text text-anchor="middle" x="970" y="-8.5" font-family="Helvetica,sans-Serif" font-size="10.00">HostBase.cpp</text>
</a>
</g>
<!-- Node3&#45;&gt;Node4 -->
<g id="edge6" class="edge"><title>Node3&#45;&gt;Node4</title>
<path fill="none" stroke="midnightblue" d="M970,-48.1906C970,-39.1684 970,-28.9941 970,-21.5707"/>
<polygon fill="midnightblue" stroke="midnightblue" points="966.5,-48.3619 970,-58.3619 973.5,-48.3619 966.5,-48.3619"/>
</g>
<!-- Node5&#45;&gt;Node3 -->
<g id="edge10" class="edge"><title>Node5&#45;&gt;Node3</title>
<path fill="none" stroke="midnightblue" d="M661.591,-121.463C720.552,-113.559 830.267,-97.9929 923,-80 925.715,-79.4732 928.511,-78.8995 931.322,-78.2997"/>
<polygon fill="midnightblue" stroke="midnightblue" points="660.985,-118.013 651.535,-122.802 661.909,-124.951 660.985,-118.013"/>
</g>
<!-- Node6 -->
<g id="node12" class="node"><title>Node6</title>
<a xlink:href="HostArmBroadway_8cpp.htm" target="_top" xlink:title="HostArmBroadway.cpp">
<polygon fill="white" stroke="black" points="512,-58.5 512,-79.5 636,-79.5 636,-58.5 512,-58.5"/>
<text text-anchor="middle" x="574" y="-66.5" font-family="Helvetica,sans-Serif" font-size="10.00">HostArmBroadway.cpp</text>
</a>
</g>
<!-- Node5&#45;&gt;Node6 -->
<g id="edge12" class="edge"><title>Node5&#45;&gt;Node6</title>
<path fill="none" stroke="midnightblue" d="M604.453,-108.25C597.082,-98.75 588.404,-87.5651 582.201,-79.5707"/>
<polygon fill="midnightblue" stroke="midnightblue" points="601.851,-110.607 610.746,-116.362 607.382,-106.316 601.851,-110.607"/>
</g>
<!-- Node7 -->
<g id="node14" class="node"><title>Node7</title>
<a xlink:href="HostArmMantaray_8cpp.htm" target="_top" xlink:title="HostArmMantaray.cpp">
<polygon fill="white" stroke="black" points="654,-58.5 654,-79.5 776,-79.5 776,-58.5 654,-58.5"/>
<text text-anchor="middle" x="715" y="-66.5" font-family="Helvetica,sans-Serif" font-size="10.00">HostArmMantaray.cpp</text>
</a>
</g>
<!-- Node5&#45;&gt;Node7 -->
<g id="edge14" class="edge"><title>Node5&#45;&gt;Node7</title>
<path fill="none" stroke="midnightblue" d="M645.316,-111.101C661.926,-101.066 682.921,-88.3808 697.504,-79.5707"/>
<polygon fill="midnightblue" stroke="midnightblue" points="643.357,-108.195 636.608,-116.362 646.977,-114.186 643.357,-108.195"/>
</g>
<!-- Node8 -->
<g id="node16" class="node"><title>Node8</title>
<a xlink:href="HostArmOpal_8cpp.htm" target="_top" xlink:title="HostArmOpal.cpp">
<polygon fill="white" stroke="black" points="-0.5,-58.5 -0.5,-79.5 98.5,-79.5 98.5,-58.5 -0.5,-58.5"/>
<text text-anchor="middle" x="49" y="-66.5" font-family="Helvetica,sans-Serif" font-size="10.00">HostArmOpal.cpp</text>
</a>
</g>
<!-- Node5&#45;&gt;Node8 -->
<g id="edge16" class="edge"><title>Node5&#45;&gt;Node8</title>
<path fill="none" stroke="midnightblue" d="M576.078,-124.456C487.895,-118.921 280.071,-104.299 107,-80 104.26,-79.6153 101.452,-79.1893 98.6222,-78.7352"/>
<polygon fill="midnightblue" stroke="midnightblue" points="576.031,-127.959 586.229,-125.086 576.465,-120.973 576.031,-127.959"/>
</g>
<!-- Node9 -->
<g id="node18" class="node"><title>Node9</title>
<a xlink:href="HostArmQemu_8cpp.htm" target="_top" xlink:title="HostArmQemu.cpp">
<polygon fill="white" stroke="black" points="116,-58.5 116,-79.5 220,-79.5 220,-58.5 116,-58.5"/>
<text text-anchor="middle" x="168" y="-66.5" font-family="Helvetica,sans-Serif" font-size="10.00">HostArmQemu.cpp</text>
</a>
</g>
<!-- Node5&#45;&gt;Node9 -->
<g id="edge18" class="edge"><title>Node5&#45;&gt;Node9</title>
<path fill="none" stroke="midnightblue" d="M576.271,-122.677C504.399,-115.221 354.827,-98.9104 229,-80 226.127,-79.5682 223.181,-79.1051 220.21,-78.6221"/>
<polygon fill="midnightblue" stroke="midnightblue" points="575.992,-126.167 586.299,-123.712 576.711,-119.204 575.992,-126.167"/>
</g>
<!-- Node10 -->
<g id="node20" class="node"><title>Node10</title>
<a xlink:href="HostArmTopaz_8cpp.htm" target="_top" xlink:title="HostArmTopaz.cpp">
<polygon fill="white" stroke="black" points="237.5,-58.5 237.5,-79.5 344.5,-79.5 344.5,-58.5 237.5,-58.5"/>
<text text-anchor="middle" x="291" y="-66.5" font-family="Helvetica,sans-Serif" font-size="10.00">HostArmTopaz.cpp</text>
</a>
</g>
<!-- Node5&#45;&gt;Node10 -->
<g id="edge20" class="edge"><title>Node5&#45;&gt;Node10</title>
<path fill="none" stroke="midnightblue" d="M576.269,-119.459C523.717,-110.183 431.791,-93.9503 353,-80 350.309,-79.5235 347.552,-79.0352 344.768,-78.5419"/>
<polygon fill="midnightblue" stroke="midnightblue" points="575.782,-122.927 586.238,-121.219 576.999,-116.034 575.782,-122.927"/>
</g>
<!-- Node11 -->
<g id="node22" class="node"><title>Node11</title>
<a xlink:href="HostArmUnknown_8cpp.htm" target="_top" xlink:title="HostArmUnknown.cpp">
<polygon fill="white" stroke="black" points="793.5,-58.5 793.5,-79.5 914.5,-79.5 914.5,-58.5 793.5,-58.5"/>
<text text-anchor="middle" x="854" y="-66.5" font-family="Helvetica,sans-Serif" font-size="10.00">HostArmUnknown.cpp</text>
</a>
</g>
<!-- Node5&#45;&gt;Node11 -->
<g id="edge22" class="edge"><title>Node5&#45;&gt;Node11</title>
<path fill="none" stroke="midnightblue" d="M661.422,-116.53C703.841,-106.061 768.723,-90.047 811.256,-79.5496"/>
<polygon fill="midnightblue" stroke="midnightblue" points="660.546,-113.141 651.676,-118.935 662.223,-119.937 660.546,-113.141"/>
</g>
<!-- Node12 -->
<g id="node25" class="node"><title>Node12</title>
<a xlink:href="HostArmWindsorNot_8cpp.htm" target="_top" xlink:title="HostArmWindsorNot.cpp">
<polygon fill="white" stroke="black" points="362,-58.5 362,-79.5 494,-79.5 494,-58.5 362,-58.5"/>
<text text-anchor="middle" x="428" y="-66.5" font-family="Helvetica,sans-Serif" font-size="10.00">HostArmWindsorNot.cpp</text>
</a>
</g>
<!-- Node5&#45;&gt;Node12 -->
<g id="edge26" class="edge"><title>Node5&#45;&gt;Node12</title>
<path fill="none" stroke="midnightblue" d="M576.436,-114.075C542.176,-103.671 494.628,-89.2327 462.662,-79.5257"/>
<polygon fill="midnightblue" stroke="midnightblue" points="575.58,-117.473 586.166,-117.029 577.614,-110.775 575.58,-117.473"/>
</g>
<!-- Node11&#45;&gt;Node4 -->
<g id="edge24" class="edge"><title>Node11&#45;&gt;Node4</title>
<path fill="none" stroke="midnightblue" d="M884.136,-53.9319C904.414,-43.7932 930.65,-30.6748 948.758,-21.6212"/>
<polygon fill="midnightblue" stroke="midnightblue" points="882.386,-50.8939 875.007,-58.4966 885.516,-57.1549 882.386,-50.8939"/>
</g>
<!-- Node14 -->
<g id="node29" class="node"><title>Node14</title>
<a xlink:href="TaskBase_8cpp.htm" target="_top" xlink:title="TaskBase.cpp">
<polygon fill="white" stroke="black" points="917.5,-174.5 917.5,-195.5 1000.5,-195.5 1000.5,-174.5 917.5,-174.5"/>
<text text-anchor="middle" x="959" y="-182.5" font-family="Helvetica,sans-Serif" font-size="10.00">TaskBase.cpp</text>
</a>
</g>
<!-- Node13&#45;&gt;Node14 -->
<g id="edge30" class="edge"><title>Node13&#45;&gt;Node14</title>
<path fill="none" stroke="midnightblue" d="M1002.19,-225.405C991.783,-215.668 979.194,-203.891 970.3,-195.571"/>
<polygon fill="midnightblue" stroke="midnightblue" points="999.934,-228.086 1009.63,-232.362 1004.72,-222.974 999.934,-228.086"/>
</g>
<!-- Node15 -->
<g id="node31" class="node"><title>Node15</title>
<a xlink:href="HostBase_8h.htm" target="_top" xlink:title="HostBase.h">
<polygon fill="white" stroke="black" points="1017.5,-174.5 1017.5,-195.5 1088.5,-195.5 1088.5,-174.5 1017.5,-174.5"/>
<text text-anchor="middle" x="1053" y="-182.5" font-family="Helvetica,sans-Serif" font-size="10.00">HostBase.h</text>
</a>
</g>
<!-- Node13&#45;&gt;Node15 -->
<g id="edge32" class="edge"><title>Node13&#45;&gt;Node15</title>
<path fill="none" stroke="midnightblue" d="M1031.83,-223.373C1036.96,-214.068 1042.89,-203.32 1047.17,-195.571"/>
<polygon fill="midnightblue" stroke="midnightblue" points="1028.64,-221.915 1026.87,-232.362 1034.76,-225.297 1028.64,-221.915"/>
</g>
<!-- Node21 -->
<g id="node46" class="node"><title>Node21</title>
<a xlink:href="SyncTask_8h.htm" target="_top" xlink:title="SyncTask.h">
<polygon fill="white" stroke="black" points="1122.5,-174.5 1122.5,-195.5 1193.5,-195.5 1193.5,-174.5 1122.5,-174.5"/>
<text text-anchor="middle" x="1158" y="-182.5" font-family="Helvetica,sans-Serif" font-size="10.00">SyncTask.h</text>
</a>
</g>
<!-- Node13&#45;&gt;Node21 -->
<g id="edge50" class="edge"><title>Node13&#45;&gt;Node21</title>
<path fill="none" stroke="midnightblue" d="M1055.3,-228.479C1079.42,-218.269 1111.14,-204.839 1132.91,-195.621"/>
<polygon fill="midnightblue" stroke="midnightblue" points="1053.65,-225.375 1045.81,-232.497 1056.38,-231.821 1053.65,-225.375"/>
</g>
<!-- Node15&#45;&gt;Node3 -->
<g id="edge36" class="edge"><title>Node15&#45;&gt;Node3</title>
<path fill="none" stroke="midnightblue" d="M1007.55,-173.926C935.248,-160.276 893.986,-191.881 851,-138 844.902,-130.357 845.501,-124.085 851,-116 860.464,-102.087 900.403,-88.1812 931.432,-79.1463"/>
<polygon fill="midnightblue" stroke="midnightblue" points="1006.96,-177.381 1017.47,-176.051 1008.43,-170.536 1006.96,-177.381"/>
</g>
<!-- Node15&#45;&gt;Node4 -->
<g id="edge40" class="edge"><title>Node15&#45;&gt;Node4</title>
<path fill="none" stroke="midnightblue" d="M1050.45,-164.503C1046.48,-138.302 1037.1,-92.2409 1017,-58 1008.47,-43.4705 994.383,-30.2267 983.852,-21.5278"/>
<polygon fill="midnightblue" stroke="midnightblue" points="1046.98,-165.002 1051.83,-174.423 1053.92,-164.035 1046.98,-165.002"/>
</g>
<!-- Node15&#45;&gt;Node5 -->
<g id="edge38" class="edge"><title>Node15&#45;&gt;Node5</title>
<path fill="none" stroke="midnightblue" d="M1007.22,-173.825C870.158,-149.064 717.197,-134.951 651.566,-129.538"/>
<polygon fill="midnightblue" stroke="midnightblue" points="1006.59,-177.268 1017.06,-175.626 1007.86,-170.383 1006.59,-177.268"/>
</g>
<!-- Node16 -->
<g id="node33" class="node"><title>Node16</title>
<a xlink:href="FlickGestureRecognizer_8cpp.htm" target="_top" xlink:title="FlickGestureRecognizer.cpp">
<polygon fill="white" stroke="black" points="859.5,-116.5 859.5,-137.5 1008.5,-137.5 1008.5,-116.5 859.5,-116.5"/>
<text text-anchor="middle" x="934" y="-124.5" font-family="Helvetica,sans-Serif" font-size="10.00">FlickGestureRecognizer.cpp</text>
</a>
</g>
<!-- Node15&#45;&gt;Node16 -->
<g id="edge34" class="edge"><title>Node15&#45;&gt;Node16</title>
<path fill="none" stroke="midnightblue" d="M1022.37,-170.069C1001.53,-159.912 974.451,-146.716 955.792,-137.621"/>
<polygon fill="midnightblue" stroke="midnightblue" points="1020.93,-173.262 1031.45,-174.497 1023.99,-166.969 1020.93,-173.262"/>
</g>
<!-- Node17 -->
<g id="node38" class="node"><title>Node17</title>
<a xlink:href="HostQtDesktop_8h.htm" target="_top" xlink:title="HostQtDesktop.h">
<polygon fill="white" stroke="black" points="1063.5,-116.5 1063.5,-137.5 1160.5,-137.5 1160.5,-116.5 1063.5,-116.5"/>
<text text-anchor="middle" x="1112" y="-124.5" font-family="Helvetica,sans-Serif" font-size="10.00">HostQtDesktop.h</text>
</a>
</g>
<!-- Node15&#45;&gt;Node17 -->
<g id="edge42" class="edge"><title>Node15&#45;&gt;Node17</title>
<path fill="none" stroke="midnightblue" d="M1071.19,-167.118C1081.04,-157.438 1092.87,-145.81 1101.25,-137.571"/>
<polygon fill="midnightblue" stroke="midnightblue" points="1068.5,-164.856 1063.82,-174.362 1073.41,-169.847 1068.5,-164.856"/>
</g>
<!-- Node19 -->
<g id="node42" class="node"><title>Node19</title>
<a xlink:href="LocalePreferences_8cpp.htm" target="_top" xlink:title="LocalePreferences.cpp">
<polygon fill="white" stroke="black" points="1315.5,-116.5 1315.5,-137.5 1440.5,-137.5 1440.5,-116.5 1315.5,-116.5"/>
<text text-anchor="middle" x="1378" y="-124.5" font-family="Helvetica,sans-Serif" font-size="10.00">LocalePreferences.cpp</text>
</a>
</g>
<!-- Node15&#45;&gt;Node19 -->
<g id="edge46" class="edge"><title>Node15&#45;&gt;Node19</title>
<path fill="none" stroke="midnightblue" d="M1098.66,-176.755C1103.83,-175.824 1109.03,-174.891 1114,-174 1184.34,-161.397 1265.24,-147.009 1318.75,-137.509"/>
<polygon fill="midnightblue" stroke="midnightblue" points="1098.02,-173.313 1088.8,-178.53 1099.26,-180.202 1098.02,-173.313"/>
</g>
<!-- Node20 -->
<g id="node44" class="node"><title>Node20</title>
<a xlink:href="SyncTask_8cpp.htm" target="_top" xlink:title="SyncTask.cpp">
<polygon fill="white" stroke="black" points="1177.5,-116.5 1177.5,-137.5 1260.5,-137.5 1260.5,-116.5 1177.5,-116.5"/>
<text text-anchor="middle" x="1219" y="-124.5" font-family="Helvetica,sans-Serif" font-size="10.00">SyncTask.cpp</text>
</a>
</g>
<!-- Node15&#45;&gt;Node20 -->
<g id="edge48" class="edge"><title>Node15&#45;&gt;Node20</title>
<path fill="none" stroke="midnightblue" d="M1092.66,-171.144C1122.2,-160.823 1161.92,-146.944 1188.88,-137.523"/>
<polygon fill="midnightblue" stroke="midnightblue" points="1091.35,-167.894 1083.06,-174.497 1093.66,-174.502 1091.35,-167.894"/>
</g>
<!-- Node18 -->
<g id="node40" class="node"><title>Node18</title>
<a xlink:href="HostQtDesktop_8cpp.htm" target="_top" xlink:title="HostQtDesktop.cpp">
<polygon fill="white" stroke="black" points="1064,-58.5 1064,-79.5 1172,-79.5 1172,-58.5 1064,-58.5"/>
<text text-anchor="middle" x="1118" y="-66.5" font-family="Helvetica,sans-Serif" font-size="10.00">HostQtDesktop.cpp</text>
</a>
</g>
<!-- Node17&#45;&gt;Node18 -->
<g id="edge44" class="edge"><title>Node17&#45;&gt;Node18</title>
<path fill="none" stroke="midnightblue" d="M1114.15,-106.191C1115.09,-97.1684 1116.14,-86.9941 1116.91,-79.5707"/>
<polygon fill="midnightblue" stroke="midnightblue" points="1110.65,-106.055 1113.1,-116.362 1117.61,-106.775 1110.65,-106.055"/>
</g>
<!-- Node21&#45;&gt;Node20 -->
<g id="edge52" class="edge"><title>Node21&#45;&gt;Node20</title>
<path fill="none" stroke="midnightblue" d="M1176.51,-167.405C1186.75,-157.668 1199.13,-145.891 1207.88,-137.571"/>
<polygon fill="midnightblue" stroke="midnightblue" points="1174.02,-164.935 1169.19,-174.362 1178.85,-170.008 1174.02,-164.935"/>
</g>
<!-- Node22&#45;&gt;Node13 -->
<g id="edge60" class="edge"><title>Node22&#45;&gt;Node13</title>
<path fill="none" stroke="midnightblue" d="M1080.45,-284.541C1066.22,-274.597 1048.5,-262.218 1036.13,-253.571"/>
<polygon fill="midnightblue" stroke="midnightblue" points="1078.57,-287.503 1088.78,-290.362 1082.58,-281.765 1078.57,-287.503"/>
</g>
<!-- Node22&#45;&gt;Node15 -->
<g id="edge62" class="edge"><title>Node22&#45;&gt;Node15</title>
<path fill="none" stroke="midnightblue" d="M1095.26,-281.121C1084.39,-256.396 1066.23,-215.082 1057.7,-195.679"/>
<polygon fill="midnightblue" stroke="midnightblue" points="1092.06,-282.549 1099.29,-290.295 1098.47,-279.732 1092.06,-282.549"/>
</g>
<!-- Node23 -->
<g id="node52" class="node"><title>Node23</title>
<a xlink:href="Mutex_8cpp.htm" target="_top" xlink:title="Mutex.cpp">
<polygon fill="white" stroke="black" points="1150.5,-232.5 1150.5,-253.5 1215.5,-253.5 1215.5,-232.5 1150.5,-232.5"/>
<text text-anchor="middle" x="1183" y="-240.5" font-family="Helvetica,sans-Serif" font-size="10.00">Mutex.cpp</text>
</a>
</g>
<!-- Node22&#45;&gt;Node23 -->
<g id="edge58" class="edge"><title>Node22&#45;&gt;Node23</title>
<path fill="none" stroke="midnightblue" d="M1126.8,-284.259C1140.28,-274.364 1156.94,-262.136 1168.6,-253.571"/>
<polygon fill="midnightblue" stroke="midnightblue" points="1124.48,-281.623 1118.49,-290.362 1128.62,-287.265 1124.48,-281.623"/>
</g>
<!-- Node24 -->
<g id="node56" class="node"><title>Node24</title>
<a xlink:href="LocalePreferences_8h.htm" target="_top" xlink:title="LocalePreferences.h">
<polygon fill="white" stroke="black" points="1311,-232.5 1311,-253.5 1425,-253.5 1425,-232.5 1311,-232.5"/>
<text text-anchor="middle" x="1368" y="-240.5" font-family="Helvetica,sans-Serif" font-size="10.00">LocalePreferences.h</text>
</a>
</g>
<!-- Node22&#45;&gt;Node24 -->
<g id="edge64" class="edge"><title>Node22&#45;&gt;Node24</title>
<path fill="none" stroke="midnightblue" d="M1140.75,-292.926C1187.45,-282.666 1268.17,-264.932 1319.78,-253.594"/>
<polygon fill="midnightblue" stroke="midnightblue" points="1139.78,-289.555 1130.77,-295.119 1141.28,-296.392 1139.78,-289.555"/>
</g>
<!-- Node26 -->
<g id="node61" class="node"><title>Node26</title>
<a xlink:href="MutexLocker_8h.htm" target="_top" xlink:title="MutexLocker.h">
<polygon fill="white" stroke="black" points="1245,-174.5 1245,-195.5 1331,-195.5 1331,-174.5 1245,-174.5"/>
<text text-anchor="middle" x="1288" y="-182.5" font-family="Helvetica,sans-Serif" font-size="10.00">MutexLocker.h</text>
</a>
</g>
<!-- Node22&#45;&gt;Node26 -->
<g id="edge70" class="edge"><title>Node22&#45;&gt;Node26</title>
<path fill="none" stroke="midnightblue" d="M1110.55,-280.586C1116.48,-265.198 1126.65,-244.652 1142,-232 1171.38,-207.779 1213.49,-195.952 1244.95,-190.23"/>
<polygon fill="midnightblue" stroke="midnightblue" points="1107.17,-279.659 1107.12,-290.254 1113.76,-282.003 1107.17,-279.659"/>
</g>
<!-- Node24&#45;&gt;Node19 -->
<g id="edge68" class="edge"><title>Node24&#45;&gt;Node19</title>
<path fill="none" stroke="midnightblue" d="M1369.8,-222.123C1371.94,-197.298 1375.43,-156.824 1377.08,-137.679"/>
<polygon fill="midnightblue" stroke="midnightblue" points="1366.29,-222.031 1368.92,-232.295 1373.27,-222.633 1366.29,-222.031"/>
</g>
<!-- Node25 -->
<g id="node58" class="node"><title>Node25</title>
<a xlink:href="Localization_8cpp.htm" target="_top" xlink:title="Localization.cpp">
<polygon fill="white" stroke="black" points="1396,-174.5 1396,-195.5 1488,-195.5 1488,-174.5 1396,-174.5"/>
<text text-anchor="middle" x="1442" y="-182.5" font-family="Helvetica,sans-Serif" font-size="10.00">Localization.cpp</text>
</a>
</g>
<!-- Node24&#45;&gt;Node25 -->
<g id="edge66" class="edge"><title>Node24&#45;&gt;Node25</title>
<path fill="none" stroke="midnightblue" d="M1389.72,-225.975C1402.28,-216.132 1417.69,-204.055 1428.51,-195.571"/>
<polygon fill="midnightblue" stroke="midnightblue" points="1387.28,-223.438 1381.57,-232.362 1391.6,-228.948 1387.28,-223.438"/>
</g>
<!-- Node26&#45;&gt;Node3 -->
<g id="edge72" class="edge"><title>Node26&#45;&gt;Node3</title>
<path fill="none" stroke="midnightblue" d="M1287.96,-164.051C1286.74,-148.499 1282.42,-127.988 1269,-116 1259.35,-107.38 1087.49,-84.1946 1008.79,-73.9651"/>
<polygon fill="midnightblue" stroke="midnightblue" points="1284.47,-164.459 1288.38,-174.306 1291.46,-164.17 1284.47,-164.459"/>
</g>
<!-- Node26&#45;&gt;Node19 -->
<g id="edge76" class="edge"><title>Node26&#45;&gt;Node19</title>
<path fill="none" stroke="midnightblue" d="M1313.1,-168.821C1328.61,-158.831 1348.05,-146.299 1361.6,-137.571"/>
<polygon fill="midnightblue" stroke="midnightblue" points="1311.02,-166.003 1304.51,-174.362 1314.81,-171.887 1311.02,-166.003"/>
</g>
<!-- Node26&#45;&gt;Node20 -->
<g id="edge78" class="edge"><title>Node26&#45;&gt;Node20</title>
<path fill="none" stroke="midnightblue" d="M1267.41,-167.691C1255.76,-157.9 1241.57,-145.973 1231.58,-137.571"/>
<polygon fill="midnightblue" stroke="midnightblue" points="1265.44,-170.607 1275.34,-174.362 1269.94,-165.248 1265.44,-170.607"/>
</g>
<!-- Node27 -->
<g id="node64" class="node"><title>Node27</title>
<a xlink:href="Logging_8cpp.htm" target="_top" xlink:title="Logging.cpp">
<polygon fill="white" stroke="black" points="1458,-116.5 1458,-137.5 1532,-137.5 1532,-116.5 1458,-116.5"/>
<text text-anchor="middle" x="1495" y="-124.5" font-family="Helvetica,sans-Serif" font-size="10.00">Logging.cpp</text>
</a>
</g>
<!-- Node26&#45;&gt;Node27 -->
<g id="edge74" class="edge"><title>Node26&#45;&gt;Node27</title>
<path fill="none" stroke="midnightblue" d="M1335.57,-171.67C1372.72,-161.263 1423.59,-147.008 1457.79,-137.425"/>
<polygon fill="midnightblue" stroke="midnightblue" points="1334.17,-168.428 1325.49,-174.497 1336.06,-175.169 1334.17,-168.428"/>
</g>
</g>
</svg>
