<?xml version="1.0" encoding="UTF-8" standalone="no"?>
<!DOCTYPE svg PUBLIC "-//W3C//DTD SVG 1.1//EN"
 "http://www.w3.org/Graphics/SVG/1.1/DTD/svg11.dtd">
<!-- Generated by graphviz version 2.26.3 (20100126.1600)
 -->
<!-- Title: WindowProperties Pages: 1 -->
<svg width="285pt" height="244pt"
 viewBox="0.00 0.00 284.80 244.00" xmlns="http://www.w3.org/2000/svg" xmlns:xlink="http://www.w3.org/1999/xlink">
<g id="graph1" class="graph" transform="scale(1 1) rotate(0) translate(4 240)">
<title>WindowProperties</title>
<polygon fill="white" stroke="white" points="-4,5 -4,-240 281.796,-240 281.796,5 -4,5"/>
<!-- Node1 -->
<g id="node1" class="node"><title>Node1</title>
<polygon fill="#bfbfbf" stroke="black" points="25.2959,-0.5 25.2959,-21.5 128.296,-21.5 128.296,-0.5 25.2959,-0.5"/>
<text text-anchor="middle" x="76.7959" y="-8.5" font-family="Helvetica,sans-Serif" font-size="10.00">WindowProperties</text>
</g>
<!-- Node2 -->
<g id="node2" class="node"><title>Node2</title>
<polygon fill="white" stroke="#bfbfbf" points="4.29588,-214.5 4.29588,-235.5 33.2959,-235.5 33.2959,-214.5 4.29588,-214.5"/>
<text text-anchor="middle" x="18.7959" y="-222.5" font-family="Helvetica,sans-Serif" font-size="10.00">int</text>
</g>
<!-- Node2&#45;&gt;Node1 -->
<g id="edge2" class="edge"><title>Node2&#45;&gt;Node1</title>
<path fill="none" stroke="#9a32cd" stroke-dasharray="5,2" d="M12.4794,-204.467C2.63047,-168.206 -12.1456,-91.7743 19.7959,-40 24.8094,-31.8735 32.8871,-25.9343 41.4045,-21.6298"/>
<polygon fill="#9a32cd" stroke="#9a32cd" points="9.19591,-205.714 15.3206,-214.359 15.9239,-203.782 9.19591,-205.714"/>
<text text-anchor="middle" x="66.2959" y="-141.5" font-family="Helvetica,sans-Serif" font-size="10.00"> flags</text>
<text text-anchor="middle" x="66.2959" y="-128.5" font-family="Helvetica,sans-Serif" font-size="10.00">dockBrightness</text>
<text text-anchor="start" x="19.7959" y="-115.5" font-family="Helvetica,sans-Serif" font-size="10.00">overlayNotifications</text>
<text text-anchor="middle" x="66.2959" y="-102.5" font-family="Helvetica,sans-Serif" font-size="10.00">Position</text>
<text text-anchor="middle" x="66.2959" y="-89.5" font-family="Helvetica,sans-Serif" font-size="10.00">statusBarColor</text>
</g>
<!-- Node3 -->
<g id="node4" class="node"><title>Node3</title>
<polygon fill="white" stroke="#bfbfbf" points="116.796,-214.5 116.796,-235.5 152.796,-235.5 152.796,-214.5 116.796,-214.5"/>
<text text-anchor="middle" x="134.796" y="-222.5" font-family="Helvetica,sans-Serif" font-size="10.00">bool</text>
</g>
<!-- Node3&#45;&gt;Node1 -->
<g id="edge4" class="edge"><title>Node3&#45;&gt;Node1</title>
<path fill="none" stroke="#9a32cd" stroke-dasharray="5,2" d="M137.212,-203.857C140.311,-167.786 142.194,-93.1133 112.796,-40 108.676,-32.5569 101.796,-26.3056 95.1476,-21.5353"/>
<polygon fill="#9a32cd" stroke="#9a32cd" points="133.697,-203.841 136.202,-214.135 140.663,-204.526 133.697,-203.841"/>
<text text-anchor="middle" x="207.796" y="-187" font-family="Helvetica,sans-Serif" font-size="10.00"> isBlockScreenTimeout</text>
<text text-anchor="middle" x="207.796" y="-174" font-family="Helvetica,sans-Serif" font-size="10.00">isSubtleLightbar</text>
<text text-anchor="middle" x="207.796" y="-161" font-family="Helvetica,sans-Serif" font-size="10.00">suppressBannerMessages</text>
<text text-anchor="middle" x="207.796" y="-148" font-family="Helvetica,sans-Serif" font-size="10.00">compassEnabled</text>
<text text-anchor="middle" x="207.796" y="-135" font-family="Helvetica,sans-Serif" font-size="10.00">rotationLockMaximized</text>
<text text-anchor="middle" x="207.796" y="-122" font-family="Helvetica,sans-Serif" font-size="10.00">hasPauseUi</text>
<text text-anchor="middle" x="207.796" y="-109" font-family="Helvetica,sans-Serif" font-size="10.00">dashboardManualDrag</text>
<text text-anchor="middle" x="207.796" y="-96" font-family="Helvetica,sans-Serif" font-size="10.00">fullScreen</text>
<text text-anchor="start" x="138.796" y="-83" font-family="Helvetica,sans-Serif" font-size="10.00">allowResizeOnPositiveSpace</text>
<text text-anchor="middle" x="207.796" y="-70" font-family="Helvetica,sans-Serif" font-size="10.00">Change</text>
<text text-anchor="middle" x="207.796" y="-57" font-family="Helvetica,sans-Serif" font-size="10.00">suppressGestures</text>
<text text-anchor="middle" x="207.796" y="-44" font-family="Helvetica,sans-Serif" font-size="10.00">...</text>
</g>
</g>
</svg>
