<?xml version="1.0" encoding="UTF-8" standalone="no"?>
<!DOCTYPE svg PUBLIC "-//W3C//DTD SVG 1.1//EN"
 "http://www.w3.org/Graphics/SVG/1.1/DTD/svg11.dtd">
<!-- Generated by graphviz version 2.26.3 (20100126.1600)
 -->
<!-- Title: TimerSource Pages: 1 -->
<svg width="172pt" height="102pt"
 viewBox="0.00 0.00 172.00 102.00" xmlns="http://www.w3.org/2000/svg" xmlns:xlink="http://www.w3.org/1999/xlink">
<g id="graph1" class="graph" transform="scale(1 1) rotate(0) translate(4 98)">
<title>TimerSource</title>
<polygon fill="white" stroke="white" points="-4,5 -4,-98 169,-98 169,5 -4,5"/>
<!-- Node1 -->
<g id="node1" class="node"><title>Node1</title>
<polygon fill="#bfbfbf" stroke="black" points="50.5,-0.5 50.5,-21.5 127.5,-21.5 127.5,-0.5 50.5,-0.5"/>
<text text-anchor="middle" x="89" y="-8.5" font-family="Helvetica,sans-Serif" font-size="10.00">TimerSource</text>
</g>
<!-- Node2 -->
<g id="node2" class="node"><title>Node2</title>
<a xlink:href="classSingletonTimer.htm" target="_top" xlink:title="SingletonTimer">
<polygon fill="white" stroke="black" points="0,-72.5 0,-93.5 88,-93.5 88,-72.5 0,-72.5"/>
<text text-anchor="middle" x="44" y="-80.5" font-family="Helvetica,sans-Serif" font-size="10.00">SingletonTimer</text>
</a>
</g>
<!-- Node2&#45;&gt;Node1 -->
<g id="edge2" class="edge"><title>Node2&#45;&gt;Node1</title>
<path fill="none" stroke="#9a32cd" stroke-dasharray="5,2" d="M55.9938,-63.8099C64.4309,-50.3106 75.4095,-32.7449 82.3329,-21.6674"/>
<polygon fill="#9a32cd" stroke="#9a32cd" points="52.9719,-62.0411 50.6399,-72.3762 58.9079,-65.7512 52.9719,-62.0411"/>
<text text-anchor="middle" x="88" y="-44.5" font-family="Helvetica,sans-Serif" font-size="10.00"> parent</text>
</g>
<!-- Node3 -->
<g id="node4" class="node"><title>Node3</title>
<polygon fill="white" stroke="#bfbfbf" points="106,-72.5 106,-93.5 164,-93.5 164,-72.5 106,-72.5"/>
<text text-anchor="middle" x="135" y="-80.5" font-family="Helvetica,sans-Serif" font-size="10.00">GSource</text>
</g>
<!-- Node3&#45;&gt;Node1 -->
<g id="edge4" class="edge"><title>Node3&#45;&gt;Node1</title>
<path fill="none" stroke="#9a32cd" stroke-dasharray="5,2" d="M123.603,-63.5962C119.146,-56.1554 113.928,-47.6244 109,-40 105.016,-33.8362 100.373,-27.0789 96.5633,-21.6389"/>
<polygon fill="#9a32cd" stroke="#9a32cd" points="120.649,-65.4763 128.764,-72.2878 126.668,-61.9024 120.649,-65.4763"/>
<text text-anchor="middle" x="134.5" y="-44.5" font-family="Helvetica,sans-Serif" font-size="10.00"> source</text>
</g>
</g>
</svg>
