<?xml version="1.0" encoding="UTF-8" standalone="no"?>
<!DOCTYPE svg PUBLIC "-//W3C//DTD SVG 1.1//EN"
 "http://www.w3.org/Graphics/SVG/1.1/DTD/svg11.dtd">
<!-- Generated by graphviz version 2.26.3 (20100126.1600)
 -->
<!-- Title: LocalePreferences::LocaleInfo Pages: 1 -->
<svg width="222pt" height="128pt"
 viewBox="0.00 0.00 222.00 128.00" xmlns="http://www.w3.org/2000/svg" xmlns:xlink="http://www.w3.org/1999/xlink">
<g id="graph1" class="graph" transform="scale(1 1) rotate(0) translate(4 124)">
<title>LocalePreferences::LocaleInfo</title>
<polygon fill="white" stroke="white" points="-4,5 -4,-124 219,-124 219,5 -4,5"/>
<!-- Node1 -->
<g id="node1" class="node"><title>Node1</title>
<polygon fill="#bfbfbf" stroke="black" points="29,-1 29,-35 139,-35 139,-1 29,-1"/>
<text text-anchor="start" x="37" y="-22" font-family="Helvetica,sans-Serif" font-size="10.00">LocalePreferences::</text>
<text text-anchor="middle" x="84" y="-9" font-family="Helvetica,sans-Serif" font-size="10.00">LocaleInfo</text>
</g>
<!-- Node2 -->
<g id="node2" class="node"><title>Node2</title>
<polygon fill="white" stroke="#bfbfbf" points="-0.5,-98.5 -0.5,-119.5 52.5,-119.5 52.5,-98.5 -0.5,-98.5"/>
<text text-anchor="middle" x="26" y="-106.5" font-family="Helvetica,sans-Serif" font-size="10.00">QString</text>
</g>
<!-- Node2&#45;&gt;Node1 -->
<g id="edge2" class="edge"><title>Node2&#45;&gt;Node1</title>
<path fill="none" stroke="#9a32cd" stroke-dasharray="5,2" d="M38.3726,-89.5879C48.6356,-73.4855 63.0946,-50.7998 72.968,-35.3088"/>
<polygon fill="#9a32cd" stroke="#9a32cd" points="35.3044,-87.8898 32.8811,-98.2038 41.2074,-91.6521 35.3044,-87.8898"/>
<text text-anchor="middle" x="84" y="-71" font-family="Helvetica,sans-Serif" font-size="10.00"> timezone</text>
<text text-anchor="middle" x="84" y="-58" font-family="Helvetica,sans-Serif" font-size="10.00">clock</text>
</g>
<!-- Node3 -->
<g id="node4" class="node"><title>Node3</title>
<polygon fill="white" stroke="#bfbfbf" points="69.5,-98.5 69.5,-119.5 214.5,-119.5 214.5,-98.5 69.5,-98.5"/>
<text text-anchor="middle" x="142" y="-106.5" font-family="Helvetica,sans-Serif" font-size="10.00">QHash&lt; QString, QString &gt;</text>
</g>
<!-- Node3&#45;&gt;Node1 -->
<g id="edge4" class="edge"><title>Node3&#45;&gt;Node1</title>
<path fill="none" stroke="#9a32cd" stroke-dasharray="5,2" d="M131.704,-89.2969C125.939,-78.6473 118.432,-65.3837 111,-54 106.9,-47.7199 102.078,-41.0873 97.6524,-35.2498"/>
<polygon fill="#9a32cd" stroke="#9a32cd" points="128.664,-91.0349 136.457,-98.2134 134.842,-87.7423 128.664,-91.0349"/>
<text text-anchor="middle" x="144.5" y="-64.5" font-family="Helvetica,sans-Serif" font-size="10.00"> locales</text>
</g>
</g>
</svg>
