<?xml version="1.0" encoding="UTF-8" standalone="no"?>
<!DOCTYPE svg PUBLIC "-//W3C//DTD SVG 1.1//EN"
 "http://www.w3.org/Graphics/SVG/1.1/DTD/svg11.dtd">
<!-- Generated by graphviz version 2.26.3 (20100126.1600)
 -->
<!-- Title: HostInfo Pages: 1 -->
<svg width="210pt" height="192pt"
 viewBox="0.00 0.00 210.00 192.00" xmlns="http://www.w3.org/2000/svg" xmlns:xlink="http://www.w3.org/1999/xlink">
<g id="graph1" class="graph" transform="scale(1 1) rotate(0) translate(4 188)">
<title>HostInfo</title>
<polygon fill="white" stroke="white" points="-4,5 -4,-188 207,-188 207,5 -4,5"/>
<!-- Node1 -->
<g id="node1" class="node"><title>Node1</title>
<polygon fill="#bfbfbf" stroke="black" points="47,-0.5 47,-21.5 103,-21.5 103,-0.5 47,-0.5"/>
<text text-anchor="middle" x="75" y="-8.5" font-family="Helvetica,sans-Serif" font-size="10.00">HostInfo</text>
</g>
<!-- Node2 -->
<g id="node2" class="node"><title>Node2</title>
<polygon fill="white" stroke="#bfbfbf" points="-0.5,-162.5 -0.5,-183.5 28.5,-183.5 28.5,-162.5 -0.5,-162.5"/>
<text text-anchor="middle" x="14" y="-170.5" font-family="Helvetica,sans-Serif" font-size="10.00">int</text>
</g>
<!-- Node2&#45;&gt;Node1 -->
<g id="edge2" class="edge"><title>Node2&#45;&gt;Node1</title>
<path fill="none" stroke="#9a32cd" stroke-dasharray="5,2" d="M7.93305,-152.482C0.997627,-124.648 -6.79596,-74.4547 15,-40 22.113,-28.7559 34.9432,-21.7618 46.9188,-17.4684"/>
<polygon fill="#9a32cd" stroke="#9a32cd" points="4.59607,-153.55 10.5784,-162.294 11.3548,-151.728 4.59607,-153.55"/>
<text text-anchor="middle" x="65" y="-135" font-family="Helvetica,sans-Serif" font-size="10.00"> displayGreenLength</text>
<text text-anchor="middle" x="65" y="-122" font-family="Helvetica,sans-Serif" font-size="10.00">displayHeight</text>
<text text-anchor="middle" x="65" y="-109" font-family="Helvetica,sans-Serif" font-size="10.00">displayBlueLength</text>
<text text-anchor="middle" x="65" y="-96" font-family="Helvetica,sans-Serif" font-size="10.00">displayRedLength</text>
<text text-anchor="middle" x="65" y="-83" font-family="Helvetica,sans-Serif" font-size="10.00">displayRowBytes</text>
<text text-anchor="middle" x="65" y="-70" font-family="Helvetica,sans-Serif" font-size="10.00">displayDepth</text>
<text text-anchor="middle" x="65" y="-57" font-family="Helvetica,sans-Serif" font-size="10.00">displayWidth</text>
<text text-anchor="middle" x="65" y="-44" font-family="Helvetica,sans-Serif" font-size="10.00">displayAlphaLength</text>
</g>
<!-- Node3 -->
<g id="node4" class="node"><title>Node3</title>
<polygon fill="white" stroke="#bfbfbf" points="115,-162.5 115,-183.5 159,-183.5 159,-162.5 115,-162.5"/>
<text text-anchor="middle" x="137" y="-170.5" font-family="Helvetica,sans-Serif" font-size="10.00">void *</text>
</g>
<!-- Node3&#45;&gt;Node1 -->
<g id="edge4" class="edge"><title>Node3&#45;&gt;Node1</title>
<path fill="none" stroke="#9a32cd" stroke-dasharray="5,2" d="M138.246,-152.314C138.93,-124.637 136.633,-74.9928 115,-40 110.309,-32.4123 102.828,-26.2035 95.5979,-21.5055"/>
<polygon fill="#9a32cd" stroke="#9a32cd" points="134.745,-152.273 137.836,-162.407 141.739,-152.557 134.745,-152.273"/>
<text text-anchor="middle" x="170" y="-89.5" font-family="Helvetica,sans-Serif" font-size="10.00"> displayBuffer</text>
</g>
</g>
</svg>
