<?xml version="1.0" encoding="UTF-8" standalone="no"?>
<!DOCTYPE svg PUBLIC "-//W3C//DTD SVG 1.1//EN"
 "http://www.w3.org/Graphics/SVG/1.1/DTD/svg11.dtd">
<!-- Generated by graphviz version 2.26.3 (20100126.1600)
 -->
<!-- Title: Details Pages: 1 -->
<svg width="242pt" height="114pt"
 viewBox="0.00 0.00 242.00 114.00" xmlns="http://www.w3.org/2000/svg" xmlns:xlink="http://www.w3.org/1999/xlink">
<g id="graph1" class="graph" transform="scale(1 1) rotate(0) translate(4 110)">
<title>Details</title>
<polygon fill="white" stroke="white" points="-4,5 -4,-110 239,-110 239,5 -4,5"/>
<!-- Node1 -->
<g id="node1" class="node"><title>Node1</title>
<polygon fill="#bfbfbf" stroke="black" points="90.5,-0.5 90.5,-21.5 139.5,-21.5 139.5,-0.5 90.5,-0.5"/>
<text text-anchor="middle" x="115" y="-8.5" font-family="Helvetica,sans-Serif" font-size="10.00">Details</text>
</g>
<!-- Node2 -->
<g id="node2" class="node"><title>Node2</title>
<polygon fill="white" stroke="#bfbfbf" points="-0.5,-84.5 -0.5,-105.5 56.5,-105.5 56.5,-84.5 -0.5,-84.5"/>
<text text-anchor="middle" x="28" y="-92.5" font-family="Helvetica,sans-Serif" font-size="10.00">__time_t</text>
</g>
<!-- Node2&#45;&gt;Node1 -->
<g id="edge2" class="edge"><title>Node2&#45;&gt;Node1</title>
<path fill="none" stroke="#9a32cd" stroke-dasharray="5,2" d="M22.9614,-73.967C21.5486,-62.865 21.9771,-49.5943 29,-40 36.3523,-29.9557 67.3883,-21.2631 90.0727,-16.0798"/>
<polygon fill="#9a32cd" stroke="#9a32cd" points="19.577,-74.9184 24.8119,-84.1296 26.4637,-73.6643 19.577,-74.9184"/>
<text text-anchor="middle" x="104.5" y="-57" font-family="Helvetica,sans-Serif" font-size="10.00"> mLastReportedOccurenceTime</text>
<text text-anchor="middle" x="104.5" y="-44" font-family="Helvetica,sans-Serif" font-size="10.00">mTimeGap</text>
</g>
<!-- Node3 -->
<g id="node4" class="node"><title>Node3</title>
<polygon fill="white" stroke="#bfbfbf" points="187.5,-84.5 187.5,-105.5 216.5,-105.5 216.5,-84.5 187.5,-84.5"/>
<text text-anchor="middle" x="202" y="-92.5" font-family="Helvetica,sans-Serif" font-size="10.00">int</text>
</g>
<!-- Node3&#45;&gt;Node1 -->
<g id="edge4" class="edge"><title>Node3&#45;&gt;Node1</title>
<path fill="none" stroke="#9a32cd" stroke-dasharray="5,2" d="M197.791,-74.4329C194.565,-63.091 189.075,-49.4376 180,-40 169.122,-28.6881 153.04,-21.4626 139.595,-17.0529"/>
<polygon fill="#9a32cd" stroke="#9a32cd" points="194.451,-75.5081 200.234,-84.3858 201.249,-73.8397 194.451,-75.5081"/>
<text text-anchor="middle" x="214" y="-50.5" font-family="Helvetica,sans-Serif" font-size="10.00"> mCount</text>
</g>
</g>
</svg>
