<?xml version="1.0" encoding="UTF-8" standalone="no"?>
<!DOCTYPE svg PUBLIC "-//W3C//DTD SVG 1.1//EN"
 "http://www.w3.org/Graphics/SVG/1.1/DTD/svg11.dtd">
<!-- Generated by graphviz version 2.26.3 (20100126.1600)
 -->
<!-- Title: TimerHandle Pages: 1 -->
<svg width="374pt" height="102pt"
 viewBox="0.00 0.00 374.00 102.00" xmlns="http://www.w3.org/2000/svg" xmlns:xlink="http://www.w3.org/1999/xlink">
<g id="graph1" class="graph" transform="scale(1 1) rotate(0) translate(4 98)">
<title>TimerHandle</title>
<polygon fill="white" stroke="white" points="-4,5 -4,-98 371,-98 371,5 -4,5"/>
<!-- Node1 -->
<g id="node1" class="node"><title>Node1</title>
<polygon fill="#bfbfbf" stroke="black" points="117.5,-0.5 117.5,-21.5 194.5,-21.5 194.5,-0.5 117.5,-0.5"/>
<text text-anchor="middle" x="156" y="-8.5" font-family="Helvetica,sans-Serif" font-size="10.00">TimerHandle</text>
</g>
<!-- Node2 -->
<g id="node2" class="node"><title>Node2</title>
<polygon fill="white" stroke="#bfbfbf" points="-0.5,-72.5 -0.5,-93.5 48.5,-93.5 48.5,-72.5 -0.5,-72.5"/>
<text text-anchor="middle" x="24" y="-80.5" font-family="Helvetica,sans-Serif" font-size="10.00">int64_t</text>
</g>
<!-- Node2&#45;&gt;Node1 -->
<g id="edge2" class="edge"><title>Node2&#45;&gt;Node1</title>
<path fill="none" stroke="#9a32cd" stroke-dasharray="5,2" d="M31.6665,-62.8367C35.6946,-54.6786 41.4015,-45.8296 49,-40 59.8037,-31.7114 91.3544,-23.7256 117.416,-18.2402"/>
<polygon fill="#9a32cd" stroke="#9a32cd" points="28.3736,-61.6313 27.5713,-72.1957 34.7865,-64.4374 28.3736,-61.6313"/>
<text text-anchor="middle" x="70" y="-44.5" font-family="Helvetica,sans-Serif" font-size="10.00"> fireTime</text>
</g>
<!-- Node3 -->
<g id="node4" class="node"><title>Node3</title>
<polygon fill="white" stroke="#bfbfbf" points="74.5,-72.5 74.5,-93.5 103.5,-93.5 103.5,-72.5 74.5,-72.5"/>
<text text-anchor="middle" x="89" y="-80.5" font-family="Helvetica,sans-Serif" font-size="10.00">int</text>
</g>
<!-- Node3&#45;&gt;Node1 -->
<g id="edge4" class="edge"><title>Node3&#45;&gt;Node1</title>
<path fill="none" stroke="#9a32cd" stroke-dasharray="5,2" d="M92.322,-62.5816C94.3814,-54.8586 97.6933,-46.3978 103,-40 109.495,-32.1691 118.678,-26.109 127.578,-21.6021"/>
<polygon fill="#9a32cd" stroke="#9a32cd" points="88.8927,-61.8814 90.2204,-72.3927 95.7374,-63.3477 88.8927,-61.8814"/>
<text text-anchor="middle" x="125" y="-44.5" font-family="Helvetica,sans-Serif" font-size="10.00"> refCount</text>
</g>
<!-- Node4 -->
<g id="node6" class="node"><title>Node4</title>
<polygon fill="white" stroke="#bfbfbf" points="130,-72.5 130,-93.5 166,-93.5 166,-72.5 130,-72.5"/>
<text text-anchor="middle" x="148" y="-80.5" font-family="Helvetica,sans-Serif" font-size="10.00">bool</text>
</g>
<!-- Node4&#45;&gt;Node1 -->
<g id="edge6" class="edge"><title>Node4&#45;&gt;Node1</title>
<path fill="none" stroke="#9a32cd" stroke-dasharray="5,2" d="M150.307,-62.2348C151.781,-48.969 153.631,-32.3188 154.815,-21.6674"/>
<polygon fill="#9a32cd" stroke="#9a32cd" points="146.806,-62.0508 149.18,-72.3762 153.763,-62.8239 146.806,-62.0508"/>
<text text-anchor="middle" x="180.5" y="-44.5" font-family="Helvetica,sans-Serif" font-size="10.00"> inActiveList</text>
</g>
<!-- Node5 -->
<g id="node8" class="node"><title>Node5</title>
<polygon fill="white" stroke="#bfbfbf" points="183.5,-72.5 183.5,-93.5 304.5,-93.5 304.5,-72.5 183.5,-72.5"/>
<text text-anchor="middle" x="244" y="-80.5" font-family="Helvetica,sans-Serif" font-size="10.00">void(*)(void *userArg)</text>
</g>
<!-- Node5&#45;&gt;Node1 -->
<g id="edge8" class="edge"><title>Node5&#45;&gt;Node1</title>
<path fill="none" stroke="#9a32cd" stroke-dasharray="5,2" d="M233.023,-63.8317C227.726,-55.7572 220.82,-46.6996 213,-40 204.231,-32.4872 193.18,-26.2925 183.148,-21.5847"/>
<polygon fill="#9a32cd" stroke="#9a32cd" points="230.052,-65.6818 238.284,-72.3523 236.009,-62.0045 230.052,-65.6818"/>
<text text-anchor="middle" x="245.5" y="-44.5" font-family="Helvetica,sans-Serif" font-size="10.00"> callback</text>
</g>
<!-- Node6 -->
<g id="node10" class="node"><title>Node6</title>
<polygon fill="white" stroke="#bfbfbf" points="322,-72.5 322,-93.5 366,-93.5 366,-72.5 322,-72.5"/>
<text text-anchor="middle" x="344" y="-80.5" font-family="Helvetica,sans-Serif" font-size="10.00">void *</text>
</g>
<!-- Node6&#45;&gt;Node1 -->
<g id="edge10" class="edge"><title>Node6&#45;&gt;Node1</title>
<path fill="none" stroke="#9a32cd" stroke-dasharray="5,2" d="M320.195,-66.8869C306.098,-57.936 287.603,-47.1895 270,-40 245.706,-30.0777 217.078,-22.8097 194.587,-18.0313"/>
<polygon fill="#9a32cd" stroke="#9a32cd" points="318.477,-69.9442 328.77,-72.4541 322.289,-64.0731 318.477,-69.9442"/>
<text text-anchor="middle" x="317" y="-44.5" font-family="Helvetica,sans-Serif" font-size="10.00"> userArg</text>
</g>
</g>
</svg>
