<?xml version="1.0" encoding="UTF-8" standalone="no"?>
<!DOCTYPE svg PUBLIC "-//W3C//DTD SVG 1.1//EN"
 "http://www.w3.org/Graphics/SVG/1.1/DTD/svg11.dtd">
<!-- Generated by graphviz version 2.26.3 (20100126.1600)
 -->
<!-- Title: SyncTask.cpp Pages: 1 -->
<svg width="1053pt" height="320pt"
 viewBox="0.00 0.00 1053.00 320.00" xmlns="http://www.w3.org/2000/svg" xmlns:xlink="http://www.w3.org/1999/xlink">
<g id="graph1" class="graph" transform="scale(1 1) rotate(0) translate(4 316)">
<title>SyncTask.cpp</title>
<polygon fill="white" stroke="white" points="-4,5 -4,-316 1050,-316 1050,5 -4,5"/>
<!-- Node1 -->
<g id="node1" class="node"><title>Node1</title>
<polygon fill="#bfbfbf" stroke="black" points="426.5,-290.5 426.5,-311.5 509.5,-311.5 509.5,-290.5 426.5,-290.5"/>
<text text-anchor="middle" x="468" y="-298.5" font-family="Helvetica,sans-Serif" font-size="10.00">SyncTask.cpp</text>
</g>
<!-- Node2 -->
<g id="node3" class="node"><title>Node2</title>
<a xlink:href="Common_8h.htm" target="_top" xlink:title="Common.h">
<polygon fill="white" stroke="black" points="715.5,-0.5 715.5,-21.5 782.5,-21.5 782.5,-0.5 715.5,-0.5"/>
<text text-anchor="middle" x="749" y="-8.5" font-family="Helvetica,sans-Serif" font-size="10.00">Common.h</text>
</a>
</g>
<!-- Node1&#45;&gt;Node2 -->
<g id="edge2" class="edge"><title>Node1&#45;&gt;Node2</title>
<path fill="none" stroke="midnightblue" d="M509.961,-297.026C642.739,-283.893 1045,-239.601 1045,-185 1045,-185 1045,-185 1045,-127 1045,-86.0677 1019.48,-78.414 984,-58 952.021,-39.5996 851.564,-24.1367 792.858,-16.3724"/>
<polygon fill="midnightblue" stroke="midnightblue" points="793.127,-12.8779 782.758,-15.0581 792.223,-19.8194 793.127,-12.8779"/>
</g>
<!-- Node3 -->
<g id="node5" class="node"><title>Node3</title>
<a xlink:href="SyncTask_8h.htm" target="_top" xlink:title="SyncTask.h">
<polygon fill="white" stroke="black" points="492.5,-232.5 492.5,-253.5 563.5,-253.5 563.5,-232.5 492.5,-232.5"/>
<text text-anchor="middle" x="528" y="-240.5" font-family="Helvetica,sans-Serif" font-size="10.00">SyncTask.h</text>
</a>
</g>
<!-- Node1&#45;&gt;Node3 -->
<g id="edge4" class="edge"><title>Node1&#45;&gt;Node3</title>
<path fill="none" stroke="midnightblue" d="M479.005,-290.362C487.547,-282.104 499.58,-270.472 509.583,-260.803"/>
<polygon fill="midnightblue" stroke="midnightblue" points="512.308,-263.037 517.065,-253.571 507.442,-258.004 512.308,-263.037"/>
</g>
<!-- Node17 -->
<g id="node48" class="node"><title>Node17</title>
<a xlink:href="HostBase_8h.htm" target="_top" xlink:title="HostBase.h">
<polygon fill="white" stroke="black" points="373.5,-232.5 373.5,-253.5 444.5,-253.5 444.5,-232.5 373.5,-232.5"/>
<text text-anchor="middle" x="409" y="-240.5" font-family="Helvetica,sans-Serif" font-size="10.00">HostBase.h</text>
</a>
</g>
<!-- Node1&#45;&gt;Node17 -->
<g id="edge62" class="edge"><title>Node1&#45;&gt;Node17</title>
<path fill="none" stroke="midnightblue" d="M457.178,-290.362C448.779,-282.104 436.946,-270.472 427.11,-260.803"/>
<polygon fill="midnightblue" stroke="midnightblue" points="429.338,-258.085 419.753,-253.571 424.431,-263.077 429.338,-258.085"/>
</g>
<!-- Node25 -->
<g id="node68" class="node"><title>Node25</title>
<a xlink:href="MutexLocker_8h.htm" target="_top" xlink:title="MutexLocker.h">
<polygon fill="white" stroke="black" points="0,-174.5 0,-195.5 86,-195.5 86,-174.5 0,-174.5"/>
<text text-anchor="middle" x="43" y="-182.5" font-family="Helvetica,sans-Serif" font-size="10.00">MutexLocker.h</text>
</a>
</g>
<!-- Node1&#45;&gt;Node25 -->
<g id="edge86" class="edge"><title>Node1&#45;&gt;Node25</title>
<path fill="none" stroke="midnightblue" d="M429.157,-290.398C351.299,-269.147 176.336,-221.393 91.2686,-198.174"/>
<polygon fill="midnightblue" stroke="midnightblue" points="92.1674,-194.792 81.5986,-195.535 90.3241,-201.545 92.1674,-194.792"/>
</g>
<!-- Node3&#45;&gt;Node2 -->
<g id="edge6" class="edge"><title>Node3&#45;&gt;Node2</title>
<path fill="none" stroke="midnightblue" d="M563.776,-241.886C664.169,-238.394 942.974,-226.052 970,-196 993.055,-170.364 1072.51,-186.25 962,-58 940.358,-32.8838 848.671,-20.1374 792.885,-14.5897"/>
<polygon fill="midnightblue" stroke="midnightblue" points="793.199,-11.1038 782.911,-13.6362 792.532,-18.0721 793.199,-11.1038"/>
</g>
<!-- Node4 -->
<g id="node8" class="node"><title>Node4</title>
<a xlink:href="TaskBase_8h.htm" target="_top" xlink:title="TaskBase.h">
<polygon fill="white" stroke="black" points="492,-174.5 492,-195.5 564,-195.5 564,-174.5 492,-174.5"/>
<text text-anchor="middle" x="528" y="-182.5" font-family="Helvetica,sans-Serif" font-size="10.00">TaskBase.h</text>
</a>
</g>
<!-- Node3&#45;&gt;Node4 -->
<g id="edge8" class="edge"><title>Node3&#45;&gt;Node4</title>
<path fill="none" stroke="midnightblue" d="M528,-232.362C528,-224.922 528,-214.743 528,-205.728"/>
<polygon fill="midnightblue" stroke="midnightblue" points="531.5,-205.571 528,-195.571 524.5,-205.571 531.5,-205.571"/>
</g>
<!-- Node4&#45;&gt;Node2 -->
<g id="edge10" class="edge"><title>Node4&#45;&gt;Node2</title>
<path fill="none" stroke="midnightblue" d="M564.028,-183.047C636.23,-178.584 795.687,-165.806 842,-138 876.608,-117.222 908.422,-90.876 885,-58 874.017,-42.5839 828.381,-28.9497 792.966,-20.3898"/>
<polygon fill="midnightblue" stroke="midnightblue" points="793.356,-16.8862 782.821,-18.0064 791.755,-23.7007 793.356,-16.8862"/>
</g>
<!-- Node5 -->
<g id="node11" class="node"><title>Node5</title>
<polygon fill="white" stroke="#bfbfbf" points="225.5,-0.5 225.5,-21.5 266.5,-21.5 266.5,-0.5 225.5,-0.5"/>
<text text-anchor="middle" x="246" y="-8.5" font-family="Helvetica,sans-Serif" font-size="10.00">glib.h</text>
</g>
<!-- Node4&#45;&gt;Node5 -->
<g id="edge12" class="edge"><title>Node4&#45;&gt;Node5</title>
<path fill="none" stroke="midnightblue" d="M491.768,-179.356C412.22,-166.124 226.611,-130.37 192,-80 179.168,-61.325 199.551,-41.0217 218.841,-27.3076"/>
<polygon fill="midnightblue" stroke="midnightblue" points="220.872,-30.1599 227.222,-21.6788 216.969,-24.3489 220.872,-30.1599"/>
</g>
<!-- Node6 -->
<g id="node13" class="node"><title>Node6</title>
<polygon fill="white" stroke="#bfbfbf" points="581.5,-116.5 581.5,-137.5 610.5,-137.5 610.5,-116.5 581.5,-116.5"/>
<text text-anchor="middle" x="596" y="-124.5" font-family="Helvetica,sans-Serif" font-size="10.00">list</text>
</g>
<!-- Node4&#45;&gt;Node6 -->
<g id="edge14" class="edge"><title>Node4&#45;&gt;Node6</title>
<path fill="none" stroke="midnightblue" d="M540.472,-174.362C550.345,-165.941 564.333,-154.011 575.798,-144.231"/>
<polygon fill="midnightblue" stroke="midnightblue" points="578.27,-146.723 583.607,-137.571 573.727,-141.397 578.27,-146.723"/>
</g>
<!-- Node7 -->
<g id="node15" class="node"><title>Node7</title>
<a xlink:href="sptr_8h.htm" target="_top" xlink:title="sptr.h">
<polygon fill="white" stroke="black" points="200.5,-58.5 200.5,-79.5 243.5,-79.5 243.5,-58.5 200.5,-58.5"/>
<text text-anchor="middle" x="222" y="-66.5" font-family="Helvetica,sans-Serif" font-size="10.00">sptr.h</text>
</a>
</g>
<!-- Node4&#45;&gt;Node7 -->
<g id="edge16" class="edge"><title>Node4&#45;&gt;Node7</title>
<path fill="none" stroke="midnightblue" d="M500.033,-174.398C442.851,-152.721 312.919,-103.466 253.147,-80.8072"/>
<polygon fill="midnightblue" stroke="midnightblue" points="254.096,-77.4242 243.505,-77.1522 251.615,-83.9697 254.096,-77.4242"/>
</g>
<!-- Node8 -->
<g id="node19" class="node"><title>Node8</title>
<a xlink:href="AsyncCaller_8h.htm" target="_top" xlink:title="AsyncCaller.h">
<polygon fill="white" stroke="black" points="298.5,-58.5 298.5,-79.5 379.5,-79.5 379.5,-58.5 298.5,-58.5"/>
<text text-anchor="middle" x="339" y="-66.5" font-family="Helvetica,sans-Serif" font-size="10.00">AsyncCaller.h</text>
</a>
</g>
<!-- Node4&#45;&gt;Node8 -->
<g id="edge22" class="edge"><title>Node4&#45;&gt;Node8</title>
<path fill="none" stroke="midnightblue" d="M510.558,-174.295C477.141,-153.785 403.943,-108.859 364.837,-84.8575"/>
<polygon fill="midnightblue" stroke="midnightblue" points="366.48,-81.7596 356.127,-79.5117 362.819,-87.7256 366.48,-81.7596"/>
</g>
<!-- Node9 -->
<g id="node23" class="node"><title>Node9</title>
<a xlink:href="Event_8h.htm" target="_top" xlink:title="Event.h">
<polygon fill="white" stroke="black" points="512,-116.5 512,-137.5 564,-137.5 564,-116.5 512,-116.5"/>
<text text-anchor="middle" x="538" y="-124.5" font-family="Helvetica,sans-Serif" font-size="10.00">Event.h</text>
</a>
</g>
<!-- Node4&#45;&gt;Node9 -->
<g id="edge28" class="edge"><title>Node4&#45;&gt;Node9</title>
<path fill="none" stroke="midnightblue" d="M529.834,-174.362C531.131,-166.84 532.911,-156.519 534.477,-147.431"/>
<polygon fill="midnightblue" stroke="midnightblue" points="537.927,-148.02 536.177,-137.571 531.029,-146.831 537.927,-148.02"/>
</g>
<!-- Node15 -->
<g id="node38" class="node"><title>Node15</title>
<a xlink:href="Mutex_8h.htm" target="_top" xlink:title="Mutex.h">
<polygon fill="white" stroke="black" points="70.5,-116.5 70.5,-137.5 123.5,-137.5 123.5,-116.5 70.5,-116.5"/>
<text text-anchor="middle" x="97" y="-124.5" font-family="Helvetica,sans-Serif" font-size="10.00">Mutex.h</text>
</a>
</g>
<!-- Node4&#45;&gt;Node15 -->
<g id="edge46" class="edge"><title>Node4&#45;&gt;Node15</title>
<path fill="none" stroke="midnightblue" d="M491.656,-180.045C477.15,-178.104 460.291,-175.892 445,-174 309.289,-157.204 270.76,-166.655 133.658,-138.063"/>
<polygon fill="midnightblue" stroke="midnightblue" points="134.122,-134.584 123.614,-135.938 132.673,-141.432 134.122,-134.584"/>
</g>
<!-- Node16 -->
<g id="node43" class="node"><title>Node16</title>
<a xlink:href="SingletonTimer_8h.htm" target="_top" xlink:title="SingletonTimer.h">
<polygon fill="white" stroke="black" points="737,-116.5 737,-137.5 833,-137.5 833,-116.5 737,-116.5"/>
<text text-anchor="middle" x="785" y="-124.5" font-family="Helvetica,sans-Serif" font-size="10.00">SingletonTimer.h</text>
</a>
</g>
<!-- Node4&#45;&gt;Node16 -->
<g id="edge54" class="edge"><title>Node4&#45;&gt;Node16</title>
<path fill="none" stroke="midnightblue" d="M564.005,-176.874C606.655,-167.249 678.223,-151.098 728.327,-139.79"/>
<polygon fill="midnightblue" stroke="midnightblue" points="729.376,-143.141 738.36,-137.526 727.835,-136.313 729.376,-143.141"/>
</g>
<!-- Node7&#45;&gt;Node2 -->
<g id="edge18" class="edge"><title>Node7&#45;&gt;Node2</title>
<path fill="none" stroke="midnightblue" d="M243.696,-65.1594C257.026,-62.882 274.468,-60.0497 290,-58 441.971,-37.9449 623.218,-21.6104 705.056,-14.6403"/>
<polygon fill="midnightblue" stroke="midnightblue" points="705.565,-18.1098 715.233,-13.7782 704.974,-11.1348 705.565,-18.1098"/>
</g>
<!-- Node7&#45;&gt;Node5 -->
<g id="edge20" class="edge"><title>Node7&#45;&gt;Node5</title>
<path fill="none" stroke="midnightblue" d="M226.402,-58.3619C229.582,-50.6766 233.972,-40.0686 237.79,-30.8399"/>
<polygon fill="midnightblue" stroke="midnightblue" points="241.036,-32.1491 241.626,-21.5707 234.568,-29.4726 241.036,-32.1491"/>
</g>
<!-- Node8&#45;&gt;Node2 -->
<g id="edge24" class="edge"><title>Node8&#45;&gt;Node2</title>
<path fill="none" stroke="midnightblue" d="M379.584,-59.5893C382.427,-59.0227 385.253,-58.4862 388,-58 501.72,-37.8761 637.017,-22.5349 705.153,-15.4014"/>
<polygon fill="midnightblue" stroke="midnightblue" points="705.913,-18.8414 715.498,-14.3275 705.19,-11.8788 705.913,-18.8414"/>
</g>
<!-- Node8&#45;&gt;Node5 -->
<g id="edge26" class="edge"><title>Node8&#45;&gt;Node5</title>
<path fill="none" stroke="midnightblue" d="M321.942,-58.3619C307.915,-49.6138 287.816,-37.0786 271.818,-27.1015"/>
<polygon fill="midnightblue" stroke="midnightblue" points="273.287,-23.8927 262.949,-21.5707 269.582,-29.8323 273.287,-23.8927"/>
</g>
<!-- Node9&#45;&gt;Node2 -->
<g id="edge30" class="edge"><title>Node9&#45;&gt;Node2</title>
<path fill="none" stroke="midnightblue" d="M564.308,-118.487C567.231,-117.614 570.172,-116.767 573,-116 642.091,-97.2532 678.295,-129.513 730,-80 742.998,-67.5528 747.37,-47.1021 748.716,-31.6893"/>
<polygon fill="midnightblue" stroke="midnightblue" points="752.22,-31.7109 749.242,-21.5432 745.229,-31.3488 752.22,-31.7109"/>
</g>
<!-- Node9&#45;&gt;Node5 -->
<g id="edge34" class="edge"><title>Node9&#45;&gt;Node5</title>
<path fill="none" stroke="midnightblue" d="M511.96,-124.683C455.935,-119.287 326.104,-104.447 290,-80 272.533,-68.1725 260.526,-46.854 253.522,-31.0325"/>
<polygon fill="midnightblue" stroke="midnightblue" points="256.676,-29.5001 249.634,-21.5842 250.203,-32.1638 256.676,-29.5001"/>
</g>
<!-- Node9&#45;&gt;Node7 -->
<g id="edge44" class="edge"><title>Node9&#45;&gt;Node7</title>
<path fill="none" stroke="midnightblue" d="M511.801,-123.853C461.823,-117.579 349.595,-102.181 257,-80 255.916,-79.7403 254.817,-79.4648 253.709,-79.1767"/>
<polygon fill="midnightblue" stroke="midnightblue" points="254.29,-75.7032 243.714,-76.3375 252.377,-82.4368 254.29,-75.7032"/>
</g>
<!-- Node10 -->
<g id="node26" class="node"><title>Node10</title>
<polygon fill="white" stroke="#bfbfbf" points="777,-58.5 777,-79.5 827,-79.5 827,-58.5 777,-58.5"/>
<text text-anchor="middle" x="802" y="-66.5" font-family="Helvetica,sans-Serif" font-size="10.00">stdint.h</text>
</g>
<!-- Node9&#45;&gt;Node10 -->
<g id="edge32" class="edge"><title>Node9&#45;&gt;Node10</title>
<path fill="none" stroke="midnightblue" d="M564.279,-118.378C567.208,-117.525 570.158,-116.713 573,-116 656.362,-95.0795 679.338,-99.6845 763,-80 764.271,-79.7009 765.563,-79.3874 766.866,-79.063"/>
<polygon fill="midnightblue" stroke="midnightblue" points="768.126,-82.351 776.909,-76.4263 766.348,-75.5805 768.126,-82.351"/>
</g>
<!-- Node11 -->
<g id="node29" class="node"><title>Node11</title>
<polygon fill="white" stroke="#bfbfbf" points="606.5,-58.5 606.5,-79.5 653.5,-79.5 653.5,-58.5 606.5,-58.5"/>
<text text-anchor="middle" x="630" y="-66.5" font-family="Helvetica,sans-Serif" font-size="10.00">stdio.h</text>
</g>
<!-- Node9&#45;&gt;Node11 -->
<g id="edge36" class="edge"><title>Node9&#45;&gt;Node11</title>
<path fill="none" stroke="midnightblue" d="M554.874,-116.362C568.751,-107.614 588.634,-95.0786 604.46,-85.1015"/>
<polygon fill="midnightblue" stroke="midnightblue" points="606.64,-87.8645 613.233,-79.5707 602.907,-81.943 606.64,-87.8645"/>
</g>
<!-- Node12 -->
<g id="node31" class="node"><title>Node12</title>
<polygon fill="white" stroke="#bfbfbf" points="670.5,-58.5 670.5,-79.5 721.5,-79.5 721.5,-58.5 670.5,-58.5"/>
<text text-anchor="middle" x="696" y="-66.5" font-family="Helvetica,sans-Serif" font-size="10.00">string.h</text>
</g>
<!-- Node9&#45;&gt;Node12 -->
<g id="edge38" class="edge"><title>Node9&#45;&gt;Node12</title>
<path fill="none" stroke="midnightblue" d="M564.09,-117.422C590.55,-107.71 631.664,-92.6172 660.953,-81.8652"/>
<polygon fill="midnightblue" stroke="midnightblue" points="662.214,-85.131 670.395,-78.3993 659.801,-78.5598 662.214,-85.131"/>
</g>
<!-- Node13 -->
<g id="node33" class="node"><title>Node13</title>
<polygon fill="white" stroke="#bfbfbf" points="397,-58.5 397,-79.5 483,-79.5 483,-58.5 397,-58.5"/>
<text text-anchor="middle" x="440" y="-66.5" font-family="Helvetica,sans-Serif" font-size="10.00">qnamespace.h</text>
</g>
<!-- Node9&#45;&gt;Node13 -->
<g id="edge40" class="edge"><title>Node9&#45;&gt;Node13</title>
<path fill="none" stroke="midnightblue" d="M520.025,-116.362C505.106,-107.532 483.667,-94.844 466.734,-84.8224"/>
<polygon fill="midnightblue" stroke="midnightblue" points="468.249,-81.6519 457.861,-79.5707 464.684,-87.6759 468.249,-81.6519"/>
</g>
<!-- Node14 -->
<g id="node35" class="node"><title>Node14</title>
<polygon fill="white" stroke="#bfbfbf" points="501,-58.5 501,-79.5 589,-79.5 589,-58.5 501,-58.5"/>
<text text-anchor="middle" x="545" y="-66.5" font-family="Helvetica,sans-Serif" font-size="10.00">SysMgrEvent.h</text>
</g>
<!-- Node9&#45;&gt;Node14 -->
<g id="edge42" class="edge"><title>Node9&#45;&gt;Node14</title>
<path fill="none" stroke="midnightblue" d="M539.284,-116.362C540.182,-108.922 541.41,-98.7427 542.498,-89.7276"/>
<polygon fill="midnightblue" stroke="midnightblue" points="546.001,-89.918 543.724,-79.5707 539.051,-89.0792 546.001,-89.918"/>
</g>
<!-- Node15&#45;&gt;Node2 -->
<g id="edge48" class="edge"><title>Node15&#45;&gt;Node2</title>
<path fill="none" stroke="midnightblue" d="M102.96,-116.293C112.473,-100.385 132.725,-70.9897 159,-58 207.549,-33.9986 576.272,-17.6535 704.899,-12.6321"/>
<polygon fill="midnightblue" stroke="midnightblue" points="705.308,-16.119 715.165,-12.2355 705.038,-9.12421 705.308,-16.119"/>
</g>
<!-- Node15&#45;&gt;Node5 -->
<g id="edge52" class="edge"><title>Node15&#45;&gt;Node5</title>
<path fill="none" stroke="midnightblue" d="M89.9636,-116.033C81.5334,-101.357 70.0659,-75.1905 83,-58 98.8747,-36.9011 172.475,-22.301 215.15,-15.4466"/>
<polygon fill="midnightblue" stroke="midnightblue" points="215.936,-18.8666 225.28,-13.8716 214.861,-11.9497 215.936,-18.8666"/>
</g>
<!-- Node15&#45;&gt;Node7 -->
<g id="edge50" class="edge"><title>Node15&#45;&gt;Node7</title>
<path fill="none" stroke="midnightblue" d="M119.637,-116.497C139.616,-107.226 168.922,-93.6282 191.063,-83.3548"/>
<polygon fill="midnightblue" stroke="midnightblue" points="192.77,-86.421 200.368,-79.0371 189.824,-80.0713 192.77,-86.421"/>
</g>
<!-- Node16&#45;&gt;Node2 -->
<g id="edge56" class="edge"><title>Node16&#45;&gt;Node2</title>
<path fill="none" stroke="midnightblue" d="M816.787,-116.468C847.304,-104.565 886.391,-83.4889 869,-58 859.897,-44.6582 822.895,-31.4164 792.357,-22.4052"/>
<polygon fill="midnightblue" stroke="midnightblue" points="793.291,-19.0319 782.713,-19.6334 791.357,-25.7595 793.291,-19.0319"/>
</g>
<!-- Node16&#45;&gt;Node5 -->
<g id="edge58" class="edge"><title>Node16&#45;&gt;Node5</title>
<path fill="none" stroke="midnightblue" d="M802.398,-116.4C823.36,-102.363 853.686,-77.151 836,-58 816.839,-37.2514 395.317,-17.4713 276.769,-12.3034"/>
<polygon fill="midnightblue" stroke="midnightblue" points="276.715,-8.79792 266.573,-11.8625 276.413,-15.7914 276.715,-8.79792"/>
</g>
<!-- Node16&#45;&gt;Node10 -->
<g id="edge60" class="edge"><title>Node16&#45;&gt;Node10</title>
<path fill="none" stroke="midnightblue" d="M788.118,-116.362C790.323,-108.84 793.348,-98.5187 796.012,-89.4308"/>
<polygon fill="midnightblue" stroke="midnightblue" points="799.448,-90.1514 798.902,-79.5707 792.73,-88.1825 799.448,-90.1514"/>
</g>
<!-- Node17&#45;&gt;Node2 -->
<g id="edge64" class="edge"><title>Node17&#45;&gt;Node2</title>
<path fill="none" stroke="midnightblue" d="M421.633,-232.445C436.819,-218.459 458.657,-193.303 445,-174 417.234,-134.755 388.11,-154.62 343,-138 309.271,-125.573 212.357,-109.626 192,-80 186.463,-71.9413 185.383,-65.1987 192,-58 226.499,-20.4674 579.625,-12.8838 705.076,-11.3711"/>
<polygon fill="midnightblue" stroke="midnightblue" points="705.491,-14.8668 715.451,-11.2538 705.412,-7.8672 705.491,-14.8668"/>
</g>
<!-- Node17&#45;&gt;Node4 -->
<g id="edge66" class="edge"><title>Node17&#45;&gt;Node4</title>
<path fill="none" stroke="midnightblue" d="M430.55,-232.497C449.136,-223.438 476.202,-210.246 497.095,-200.063"/>
<polygon fill="midnightblue" stroke="midnightblue" points="498.753,-203.149 506.208,-195.621 495.686,-196.856 498.753,-203.149"/>
</g>
<!-- Node17&#45;&gt;Node15 -->
<g id="edge68" class="edge"><title>Node17&#45;&gt;Node15</title>
<path fill="none" stroke="midnightblue" d="M373.461,-240.842C307.823,-236.236 170.822,-223.536 133,-196 116.936,-184.305 107.448,-163.276 102.282,-147.497"/>
<polygon fill="midnightblue" stroke="midnightblue" points="105.548,-146.196 99.3683,-137.59 98.8323,-148.172 105.548,-146.196"/>
</g>
<!-- Node18 -->
<g id="node53" class="node"><title>Node18</title>
<a xlink:href="CustomEvents_8h.htm" target="_top" xlink:title="CustomEvents.h">
<polygon fill="white" stroke="black" points="869,-174.5 869,-195.5 961,-195.5 961,-174.5 869,-174.5"/>
<text text-anchor="middle" x="915" y="-182.5" font-family="Helvetica,sans-Serif" font-size="10.00">CustomEvents.h</text>
</a>
</g>
<!-- Node17&#45;&gt;Node18 -->
<g id="edge70" class="edge"><title>Node17&#45;&gt;Node18</title>
<path fill="none" stroke="midnightblue" d="M444.823,-237.47C457.218,-235.63 471.207,-233.635 484,-232 618.071,-214.864 776.118,-198.643 858.539,-190.484"/>
<polygon fill="midnightblue" stroke="midnightblue" points="859.084,-193.948 868.692,-189.482 858.396,-186.981 859.084,-193.948"/>
</g>
<!-- Node20 -->
<g id="node58" class="node"><title>Node20</title>
<a xlink:href="InputControl_8h.htm" target="_top" xlink:title="InputControl.h">
<polygon fill="white" stroke="black" points="141.5,-174.5 141.5,-195.5 224.5,-195.5 224.5,-174.5 141.5,-174.5"/>
<text text-anchor="middle" x="183" y="-182.5" font-family="Helvetica,sans-Serif" font-size="10.00">InputControl.h</text>
</a>
</g>
<!-- Node17&#45;&gt;Node20 -->
<g id="edge76" class="edge"><title>Node17&#45;&gt;Node20</title>
<path fill="none" stroke="midnightblue" d="M373.439,-233.874C335.923,-224.246 276.464,-208.986 233.967,-198.08"/>
<polygon fill="midnightblue" stroke="midnightblue" points="234.65,-194.642 224.094,-195.546 232.91,-201.422 234.65,-194.642"/>
</g>
<!-- Node22 -->
<g id="node62" class="node"><title>Node22</title>
<a xlink:href="LedControl_8h.htm" target="_top" xlink:title="LedControl.h">
<polygon fill="white" stroke="black" points="241.5,-174.5 241.5,-195.5 318.5,-195.5 318.5,-174.5 241.5,-174.5"/>
<text text-anchor="middle" x="280" y="-182.5" font-family="Helvetica,sans-Serif" font-size="10.00">LedControl.h</text>
</a>
</g>
<!-- Node17&#45;&gt;Node22 -->
<g id="edge80" class="edge"><title>Node17&#45;&gt;Node22</title>
<path fill="none" stroke="midnightblue" d="M385.639,-232.497C365.309,-223.356 335.622,-210.008 312.891,-199.788"/>
<polygon fill="midnightblue" stroke="midnightblue" points="314.179,-196.53 303.623,-195.621 311.308,-202.914 314.179,-196.53"/>
</g>
<!-- Node23 -->
<g id="node64" class="node"><title>Node23</title>
<polygon fill="white" stroke="#bfbfbf" points="335.5,-174.5 335.5,-195.5 364.5,-195.5 364.5,-174.5 335.5,-174.5"/>
<text text-anchor="middle" x="350" y="-182.5" font-family="Helvetica,sans-Serif" font-size="10.00">Qt</text>
</g>
<!-- Node17&#45;&gt;Node23 -->
<g id="edge82" class="edge"><title>Node17&#45;&gt;Node23</title>
<path fill="none" stroke="midnightblue" d="M398.178,-232.362C389.779,-224.104 377.946,-212.472 368.11,-202.803"/>
<polygon fill="midnightblue" stroke="midnightblue" points="370.338,-200.085 360.753,-195.571 365.431,-205.077 370.338,-200.085"/>
</g>
<!-- Node24 -->
<g id="node66" class="node"><title>Node24</title>
<polygon fill="white" stroke="#bfbfbf" points="382,-174.5 382,-195.5 436,-195.5 436,-174.5 382,-174.5"/>
<text text-anchor="middle" x="409" y="-182.5" font-family="Helvetica,sans-Serif" font-size="10.00">QImage</text>
</g>
<!-- Node17&#45;&gt;Node24 -->
<g id="edge84" class="edge"><title>Node17&#45;&gt;Node24</title>
<path fill="none" stroke="midnightblue" d="M409,-232.362C409,-224.922 409,-214.743 409,-205.728"/>
<polygon fill="midnightblue" stroke="midnightblue" points="412.5,-205.571 409,-195.571 405.5,-205.571 412.5,-205.571"/>
</g>
<!-- Node18&#45;&gt;Node2 -->
<g id="edge72" class="edge"><title>Node18&#45;&gt;Node2</title>
<path fill="none" stroke="midnightblue" d="M926.245,-174.234C934.6,-165.404 945.327,-152.099 950,-138 956.125,-119.52 953.701,-68.1086 945,-58 925.458,-35.2978 844.393,-21.9398 792.834,-15.5814"/>
<polygon fill="midnightblue" stroke="midnightblue" points="792.972,-12.0731 782.628,-14.3661 792.144,-19.024 792.972,-12.0731"/>
</g>
<!-- Node19 -->
<g id="node56" class="node"><title>Node19</title>
<polygon fill="white" stroke="#bfbfbf" points="889,-116.5 889,-137.5 941,-137.5 941,-116.5 889,-116.5"/>
<text text-anchor="middle" x="915" y="-124.5" font-family="Helvetica,sans-Serif" font-size="10.00">QEvent</text>
</g>
<!-- Node18&#45;&gt;Node19 -->
<g id="edge74" class="edge"><title>Node18&#45;&gt;Node19</title>
<path fill="none" stroke="midnightblue" d="M915,-174.362C915,-166.922 915,-156.743 915,-147.728"/>
<polygon fill="midnightblue" stroke="midnightblue" points="918.5,-147.571 915,-137.571 911.5,-147.571 918.5,-147.571"/>
</g>
<!-- Node21 -->
<g id="node60" class="node"><title>Node21</title>
<polygon fill="white" stroke="#bfbfbf" points="141,-116.5 141,-137.5 233,-137.5 233,-116.5 141,-116.5"/>
<text text-anchor="middle" x="187" y="-124.5" font-family="Helvetica,sans-Serif" font-size="10.00">nyx/nyx_client.h</text>
</g>
<!-- Node20&#45;&gt;Node21 -->
<g id="edge78" class="edge"><title>Node20&#45;&gt;Node21</title>
<path fill="none" stroke="midnightblue" d="M183.734,-174.362C184.247,-166.922 184.949,-156.743 185.571,-147.728"/>
<polygon fill="midnightblue" stroke="midnightblue" points="189.075,-147.788 186.271,-137.571 182.091,-147.306 189.075,-147.788"/>
</g>
<!-- Node25&#45;&gt;Node2 -->
<g id="edge88" class="edge"><title>Node25&#45;&gt;Node2</title>
<path fill="none" stroke="midnightblue" d="M44.0282,-174.44C45.812,-160.226 50.4679,-134.58 62,-116 82.4177,-83.1035 91.3686,-73.1481 127,-58 179.823,-35.5433 571.751,-18.0472 704.89,-12.6973"/>
<polygon fill="midnightblue" stroke="midnightblue" points="705.273,-16.1849 715.125,-12.2895 704.994,-9.19043 705.273,-16.1849"/>
</g>
<!-- Node25&#45;&gt;Node15 -->
<g id="edge90" class="edge"><title>Node25&#45;&gt;Node15</title>
<path fill="none" stroke="midnightblue" d="M52.9044,-174.362C60.5164,-166.186 71.208,-154.702 80.157,-145.091"/>
<polygon fill="midnightblue" stroke="midnightblue" points="82.9058,-147.275 87.1584,-137.571 77.7825,-142.505 82.9058,-147.275"/>
</g>
</g>
</svg>
