<?xml version="1.0" encoding="UTF-8" standalone="no"?>
<!DOCTYPE svg PUBLIC "-//W3C//DTD SVG 1.1//EN"
 "http://www.w3.org/Graphics/SVG/1.1/DTD/svg11.dtd">
<!-- Generated by graphviz version 2.26.3 (20100126.1600)
 -->
<!-- Title: SyncTask.h Pages: 1 -->
<svg width="800pt" height="262pt"
 viewBox="0.00 0.00 800.24 262.00" xmlns="http://www.w3.org/2000/svg" xmlns:xlink="http://www.w3.org/1999/xlink">
<g id="graph1" class="graph" transform="scale(1 1) rotate(0) translate(4 258)">
<title>SyncTask.h</title>
<polygon fill="white" stroke="white" points="-4,5 -4,-258 797.236,-258 797.236,5 -4,5"/>
<!-- Node1 -->
<g id="node1" class="node"><title>Node1</title>
<polygon fill="#bfbfbf" stroke="black" points="503.41,-232.5 503.41,-253.5 574.41,-253.5 574.41,-232.5 503.41,-232.5"/>
<text text-anchor="middle" x="538.91" y="-240.5" font-family="Helvetica,sans-Serif" font-size="10.00">SyncTask.h</text>
</g>
<!-- Node2 -->
<g id="node3" class="node"><title>Node2</title>
<a xlink:href="Common_8h.htm" target="_top" xlink:title="Common.h">
<polygon fill="white" stroke="black" points="622.41,-0.5 622.41,-21.5 689.41,-21.5 689.41,-0.5 622.41,-0.5"/>
<text text-anchor="middle" x="655.91" y="-8.5" font-family="Helvetica,sans-Serif" font-size="10.00">Common.h</text>
</a>
</g>
<!-- Node1&#45;&gt;Node2 -->
<g id="edge2" class="edge"><title>Node1&#45;&gt;Node2</title>
<path fill="none" stroke="midnightblue" d="M574.689,-233.001C633.461,-214.32 748.001,-167.831 788.91,-80 807.239,-40.6495 745.155,-23.2813 699.708,-15.9576"/>
<polygon fill="midnightblue" stroke="midnightblue" points="700.132,-12.4822 689.724,-14.4631 699.095,-19.405 700.132,-12.4822"/>
</g>
<!-- Node3 -->
<g id="node5" class="node"><title>Node3</title>
<a xlink:href="TaskBase_8h.htm" target="_top" xlink:title="TaskBase.h">
<polygon fill="white" stroke="black" points="255.91,-174.5 255.91,-195.5 327.91,-195.5 327.91,-174.5 255.91,-174.5"/>
<text text-anchor="middle" x="291.91" y="-182.5" font-family="Helvetica,sans-Serif" font-size="10.00">TaskBase.h</text>
</a>
</g>
<!-- Node1&#45;&gt;Node3 -->
<g id="edge4" class="edge"><title>Node1&#45;&gt;Node3</title>
<path fill="none" stroke="midnightblue" d="M503.258,-234.628C459.604,-224.378 385.589,-206.997 337.745,-195.763"/>
<polygon fill="midnightblue" stroke="midnightblue" points="338.489,-192.342 327.953,-193.464 336.888,-199.157 338.489,-192.342"/>
</g>
<!-- Node3&#45;&gt;Node2 -->
<g id="edge6" class="edge"><title>Node3&#45;&gt;Node2</title>
<path fill="none" stroke="midnightblue" d="M328.114,-182.427C410.589,-176.262 610.219,-159.545 673.91,-138 722.216,-121.659 747.553,-124.244 772.91,-80 791.922,-46.8282 739.923,-27.9975 699.234,-18.648"/>
<polygon fill="midnightblue" stroke="midnightblue" points="699.961,-15.2243 689.446,-16.5259 698.478,-22.0653 699.961,-15.2243"/>
</g>
<!-- Node4 -->
<g id="node8" class="node"><title>Node4</title>
<polygon fill="white" stroke="#bfbfbf" points="67.4104,-0.5 67.4104,-21.5 108.41,-21.5 108.41,-0.5 67.4104,-0.5"/>
<text text-anchor="middle" x="87.9104" y="-8.5" font-family="Helvetica,sans-Serif" font-size="10.00">glib.h</text>
</g>
<!-- Node3&#45;&gt;Node4 -->
<g id="edge8" class="edge"><title>Node3&#45;&gt;Node4</title>
<path fill="none" stroke="midnightblue" d="M255.5,-181.421C195.919,-175.01 80.821,-160.134 46.9104,-138 13.6219,-116.272 -12.9284,-92.4481 6.91039,-58 17.8461,-39.0112 39.7182,-26.9894 57.9802,-19.862"/>
<polygon fill="midnightblue" stroke="midnightblue" points="59.1641,-23.1557 67.3923,-16.4813 56.7978,-16.5678 59.1641,-23.1557"/>
</g>
<!-- Node5 -->
<g id="node10" class="node"><title>Node5</title>
<polygon fill="white" stroke="#bfbfbf" points="72.4104,-116.5 72.4104,-137.5 101.41,-137.5 101.41,-116.5 72.4104,-116.5"/>
<text text-anchor="middle" x="86.9104" y="-124.5" font-family="Helvetica,sans-Serif" font-size="10.00">list</text>
</g>
<!-- Node3&#45;&gt;Node5 -->
<g id="edge10" class="edge"><title>Node3&#45;&gt;Node5</title>
<path fill="none" stroke="midnightblue" d="M255.717,-177.818C220.568,-170.37 165.691,-157.495 111.263,-138.08"/>
<polygon fill="midnightblue" stroke="midnightblue" points="112.419,-134.776 101.825,-134.645 110.025,-141.354 112.419,-134.776"/>
</g>
<!-- Node6 -->
<g id="node12" class="node"><title>Node6</title>
<a xlink:href="sptr_8h.htm" target="_top" xlink:title="sptr.h">
<polygon fill="white" stroke="black" points="23.4104,-58.5 23.4104,-79.5 66.4104,-79.5 66.4104,-58.5 23.4104,-58.5"/>
<text text-anchor="middle" x="44.9104" y="-66.5" font-family="Helvetica,sans-Serif" font-size="10.00">sptr.h</text>
</a>
</g>
<!-- Node3&#45;&gt;Node6 -->
<g id="edge12" class="edge"><title>Node3&#45;&gt;Node6</title>
<path fill="none" stroke="midnightblue" d="M255.784,-182.1C198.692,-176.792 91.2692,-163.625 63.9104,-138 50.7754,-125.697 46.4214,-105.228 45.1169,-89.771"/>
<polygon fill="midnightblue" stroke="midnightblue" points="48.6036,-89.4097 44.6239,-79.5907 41.6118,-89.7483 48.6036,-89.4097"/>
</g>
<!-- Node7 -->
<g id="node16" class="node"><title>Node7</title>
<a xlink:href="AsyncCaller_8h.htm" target="_top" xlink:title="AsyncCaller.h">
<polygon fill="white" stroke="black" points="683.41,-58.5 683.41,-79.5 764.41,-79.5 764.41,-58.5 683.41,-58.5"/>
<text text-anchor="middle" x="723.91" y="-66.5" font-family="Helvetica,sans-Serif" font-size="10.00">AsyncCaller.h</text>
</a>
</g>
<!-- Node3&#45;&gt;Node7 -->
<g id="edge18" class="edge"><title>Node3&#45;&gt;Node7</title>
<path fill="none" stroke="midnightblue" d="M328.055,-182.752C405.933,-177.492 587.037,-162.907 642.91,-138 669.06,-126.343 693.235,-103.511 708.242,-87.3068"/>
<polygon fill="midnightblue" stroke="midnightblue" points="711.145,-89.3129 715.216,-79.5317 705.934,-84.6389 711.145,-89.3129"/>
</g>
<!-- Node8 -->
<g id="node20" class="node"><title>Node8</title>
<a xlink:href="Event_8h.htm" target="_top" xlink:title="Event.h">
<polygon fill="white" stroke="black" points="265.91,-116.5 265.91,-137.5 317.91,-137.5 317.91,-116.5 265.91,-116.5"/>
<text text-anchor="middle" x="291.91" y="-124.5" font-family="Helvetica,sans-Serif" font-size="10.00">Event.h</text>
</a>
</g>
<!-- Node3&#45;&gt;Node8 -->
<g id="edge24" class="edge"><title>Node3&#45;&gt;Node8</title>
<path fill="none" stroke="midnightblue" d="M291.91,-174.362C291.91,-166.922 291.91,-156.743 291.91,-147.728"/>
<polygon fill="midnightblue" stroke="midnightblue" points="295.41,-147.571 291.91,-137.571 288.41,-147.571 295.41,-147.571"/>
</g>
<!-- Node14 -->
<g id="node35" class="node"><title>Node14</title>
<a xlink:href="Mutex_8h.htm" target="_top" xlink:title="Mutex.h">
<polygon fill="white" stroke="black" points="118.41,-116.5 118.41,-137.5 171.41,-137.5 171.41,-116.5 118.41,-116.5"/>
<text text-anchor="middle" x="144.91" y="-124.5" font-family="Helvetica,sans-Serif" font-size="10.00">Mutex.h</text>
</a>
</g>
<!-- Node3&#45;&gt;Node14 -->
<g id="edge42" class="edge"><title>Node3&#45;&gt;Node14</title>
<path fill="none" stroke="midnightblue" d="M265.29,-174.497C241.813,-165.234 207.385,-151.65 181.355,-141.379"/>
<polygon fill="midnightblue" stroke="midnightblue" points="182.416,-138.036 171.83,-137.621 179.847,-144.547 182.416,-138.036"/>
</g>
<!-- Node15 -->
<g id="node40" class="node"><title>Node15</title>
<a xlink:href="SingletonTimer_8h.htm" target="_top" xlink:title="SingletonTimer.h">
<polygon fill="white" stroke="black" points="537.91,-116.5 537.91,-137.5 633.91,-137.5 633.91,-116.5 537.91,-116.5"/>
<text text-anchor="middle" x="585.91" y="-124.5" font-family="Helvetica,sans-Serif" font-size="10.00">SingletonTimer.h</text>
</a>
</g>
<!-- Node3&#45;&gt;Node15 -->
<g id="edge50" class="edge"><title>Node3&#45;&gt;Node15</title>
<path fill="none" stroke="midnightblue" d="M327.961,-177.888C377.823,-168.051 468.402,-150.182 527.862,-138.452"/>
<polygon fill="midnightblue" stroke="midnightblue" points="528.722,-141.85 537.856,-136.48 527.367,-134.982 528.722,-141.85"/>
</g>
<!-- Node6&#45;&gt;Node2 -->
<g id="edge14" class="edge"><title>Node6&#45;&gt;Node2</title>
<path fill="none" stroke="midnightblue" d="M66.5609,-61.3716C70.9349,-60.0649 75.5345,-58.855 79.9104,-58 181.845,-38.0825 495.639,-19.6404 611.944,-13.3145"/>
<polygon fill="midnightblue" stroke="midnightblue" points="612.451,-16.7923 622.247,-12.7578 612.073,-9.80251 612.451,-16.7923"/>
</g>
<!-- Node6&#45;&gt;Node4 -->
<g id="edge16" class="edge"><title>Node6&#45;&gt;Node4</title>
<path fill="none" stroke="midnightblue" d="M52.7973,-58.3619C58.7374,-50.3496 67.0328,-39.1605 74.0692,-29.6696"/>
<polygon fill="midnightblue" stroke="midnightblue" points="76.9295,-31.6883 80.0735,-21.5707 71.3063,-27.5193 76.9295,-31.6883"/>
</g>
<!-- Node7&#45;&gt;Node2 -->
<g id="edge20" class="edge"><title>Node7&#45;&gt;Node2</title>
<path fill="none" stroke="midnightblue" d="M711.438,-58.3619C701.565,-49.9408 687.578,-38.0105 676.112,-28.2308"/>
<polygon fill="midnightblue" stroke="midnightblue" points="678.183,-25.3972 668.304,-21.5707 673.641,-30.7231 678.183,-25.3972"/>
</g>
<!-- Node7&#45;&gt;Node4 -->
<g id="edge22" class="edge"><title>Node7&#45;&gt;Node4</title>
<path fill="none" stroke="midnightblue" d="M683.182,-63.839C667.208,-61.8911 648.712,-59.7298 631.91,-58 436.78,-37.9107 201.666,-19.5897 118.702,-13.3042"/>
<polygon fill="midnightblue" stroke="midnightblue" points="118.921,-9.81085 108.686,-12.5479 118.394,-16.791 118.921,-9.81085"/>
</g>
<!-- Node8&#45;&gt;Node2 -->
<g id="edge26" class="edge"><title>Node8&#45;&gt;Node2</title>
<path fill="none" stroke="midnightblue" d="M318.03,-123.414C357.097,-117.495 432.606,-103.894 492.91,-80 511.053,-72.8113 513.273,-66.3515 530.91,-58 557.799,-45.2682 589.138,-33.4912 613.711,-24.9107"/>
<polygon fill="midnightblue" stroke="midnightblue" points="615.14,-28.1203 623.453,-21.552 612.858,-21.5026 615.14,-28.1203"/>
</g>
<!-- Node8&#45;&gt;Node4 -->
<g id="edge30" class="edge"><title>Node8&#45;&gt;Node4</title>
<path fill="none" stroke="midnightblue" d="M265.735,-122.422C236.036,-116.328 187.042,-103.481 150.91,-80 130.558,-66.7737 112.474,-45.4356 100.96,-29.9871"/>
<polygon fill="midnightblue" stroke="midnightblue" points="103.658,-27.7447 94.9726,-21.6777 97.9792,-31.837 103.658,-27.7447"/>
</g>
<!-- Node8&#45;&gt;Node6 -->
<g id="edge40" class="edge"><title>Node8&#45;&gt;Node6</title>
<path fill="none" stroke="midnightblue" d="M265.477,-120.793C219.583,-110.016 125.378,-87.8951 76.2617,-76.3618"/>
<polygon fill="midnightblue" stroke="midnightblue" points="77.0342,-72.9481 66.4989,-74.0694 75.434,-79.7628 77.0342,-72.9481"/>
</g>
<!-- Node9 -->
<g id="node23" class="node"><title>Node9</title>
<polygon fill="white" stroke="#bfbfbf" points="539.91,-58.5 539.91,-79.5 589.91,-79.5 589.91,-58.5 539.91,-58.5"/>
<text text-anchor="middle" x="564.91" y="-66.5" font-family="Helvetica,sans-Serif" font-size="10.00">stdint.h</text>
</g>
<!-- Node8&#45;&gt;Node9 -->
<g id="edge28" class="edge"><title>Node8&#45;&gt;Node9</title>
<path fill="none" stroke="midnightblue" d="M318.024,-122.431C361.409,-114.689 450.985,-98.0628 525.91,-80 527.18,-79.694 528.47,-79.3745 529.772,-79.0451"/>
<polygon fill="midnightblue" stroke="midnightblue" points="531.04,-82.33 539.81,-76.3853 529.247,-75.5635 531.04,-82.33"/>
</g>
<!-- Node10 -->
<g id="node26" class="node"><title>Node10</title>
<polygon fill="white" stroke="#bfbfbf" points="159.41,-58.5 159.41,-79.5 206.41,-79.5 206.41,-58.5 159.41,-58.5"/>
<text text-anchor="middle" x="182.91" y="-66.5" font-family="Helvetica,sans-Serif" font-size="10.00">stdio.h</text>
</g>
<!-- Node8&#45;&gt;Node10 -->
<g id="edge32" class="edge"><title>Node8&#45;&gt;Node10</title>
<path fill="none" stroke="midnightblue" d="M272.171,-116.497C255.3,-107.519 230.802,-94.4835 211.737,-84.3387"/>
<polygon fill="midnightblue" stroke="midnightblue" points="213.343,-81.2289 202.871,-79.6212 210.055,-87.4086 213.343,-81.2289"/>
</g>
<!-- Node11 -->
<g id="node28" class="node"><title>Node11</title>
<polygon fill="white" stroke="#bfbfbf" points="223.41,-58.5 223.41,-79.5 274.41,-79.5 274.41,-58.5 223.41,-58.5"/>
<text text-anchor="middle" x="248.91" y="-66.5" font-family="Helvetica,sans-Serif" font-size="10.00">string.h</text>
</g>
<!-- Node8&#45;&gt;Node11 -->
<g id="edge34" class="edge"><title>Node8&#45;&gt;Node11</title>
<path fill="none" stroke="midnightblue" d="M284.024,-116.362C278.083,-108.35 269.788,-97.1605 262.752,-87.6696"/>
<polygon fill="midnightblue" stroke="midnightblue" points="265.514,-85.5193 256.747,-79.5707 259.891,-89.6883 265.514,-85.5193"/>
</g>
<!-- Node12 -->
<g id="node30" class="node"><title>Node12</title>
<polygon fill="white" stroke="#bfbfbf" points="291.91,-58.5 291.91,-79.5 377.91,-79.5 377.91,-58.5 291.91,-58.5"/>
<text text-anchor="middle" x="334.91" y="-66.5" font-family="Helvetica,sans-Serif" font-size="10.00">qnamespace.h</text>
</g>
<!-- Node8&#45;&gt;Node12 -->
<g id="edge36" class="edge"><title>Node8&#45;&gt;Node12</title>
<path fill="none" stroke="midnightblue" d="M299.797,-116.362C305.737,-108.35 314.033,-97.1605 321.069,-87.6696"/>
<polygon fill="midnightblue" stroke="midnightblue" points="323.929,-89.6883 327.074,-79.5707 318.306,-85.5193 323.929,-89.6883"/>
</g>
<!-- Node13 -->
<g id="node32" class="node"><title>Node13</title>
<polygon fill="white" stroke="#bfbfbf" points="395.91,-58.5 395.91,-79.5 483.91,-79.5 483.91,-58.5 395.91,-58.5"/>
<text text-anchor="middle" x="439.91" y="-66.5" font-family="Helvetica,sans-Serif" font-size="10.00">SysMgrEvent.h</text>
</g>
<!-- Node8&#45;&gt;Node13 -->
<g id="edge38" class="edge"><title>Node8&#45;&gt;Node13</title>
<path fill="none" stroke="midnightblue" d="M318.029,-116.764C341.827,-107.438 377.204,-93.574 403.723,-83.1817"/>
<polygon fill="midnightblue" stroke="midnightblue" points="405.02,-86.4324 413.054,-79.5249 402.466,-79.915 405.02,-86.4324"/>
</g>
<!-- Node14&#45;&gt;Node2 -->
<g id="edge44" class="edge"><title>Node14&#45;&gt;Node2</title>
<path fill="none" stroke="midnightblue" d="M142.149,-116.426C138.885,-101.227 135.652,-73.3509 150.91,-58 183.147,-25.5676 495.582,-14.8226 612.258,-11.9236"/>
<polygon fill="midnightblue" stroke="midnightblue" points="612.361,-15.4222 622.274,-11.6822 612.192,-8.42426 612.361,-15.4222"/>
</g>
<!-- Node14&#45;&gt;Node4 -->
<g id="edge48" class="edge"><title>Node14&#45;&gt;Node4</title>
<path fill="none" stroke="midnightblue" d="M118.161,-118.201C81.0222,-105.86 18.0123,-84.4199 14.9104,-80 -1.06046,-57.2433 31.17,-36.071 57.7615,-23.335"/>
<polygon fill="midnightblue" stroke="midnightblue" points="59.5521,-26.3655 67.2035,-19.0371 56.652,-19.9945 59.5521,-26.3655"/>
</g>
<!-- Node14&#45;&gt;Node6 -->
<g id="edge46" class="edge"><title>Node14&#45;&gt;Node6</title>
<path fill="none" stroke="midnightblue" d="M126.569,-116.362C111.345,-107.532 89.4689,-94.844 72.1904,-84.8224"/>
<polygon fill="midnightblue" stroke="midnightblue" points="73.542,-81.5603 63.1357,-79.5707 70.0299,-87.6155 73.542,-81.5603"/>
</g>
<!-- Node15&#45;&gt;Node2 -->
<g id="edge52" class="edge"><title>Node15&#45;&gt;Node2</title>
<path fill="none" stroke="midnightblue" d="M599.228,-116.273C609.404,-107.465 623.131,-94.1702 631.91,-80 641.173,-65.0508 647.442,-46.0536 651.244,-31.7789"/>
<polygon fill="midnightblue" stroke="midnightblue" points="654.676,-32.4764 653.678,-21.9287 647.881,-30.7967 654.676,-32.4764"/>
</g>
<!-- Node15&#45;&gt;Node4 -->
<g id="edge54" class="edge"><title>Node15&#45;&gt;Node4</title>
<path fill="none" stroke="midnightblue" d="M592.722,-116.403C601.401,-101.432 613.616,-74.1201 598.91,-58 566.472,-22.4416 224.667,-13.4248 118.913,-11.4779"/>
<polygon fill="midnightblue" stroke="midnightblue" points="118.657,-7.97295 108.597,-11.2969 118.534,-14.9719 118.657,-7.97295"/>
</g>
<!-- Node15&#45;&gt;Node9 -->
<g id="edge56" class="edge"><title>Node15&#45;&gt;Node9</title>
<path fill="none" stroke="midnightblue" d="M582.059,-116.362C579.306,-108.758 575.517,-98.294 572.201,-89.1349"/>
<polygon fill="midnightblue" stroke="midnightblue" points="575.433,-87.7818 568.738,-79.5707 568.851,-90.1649 575.433,-87.7818"/>
</g>
</g>
</svg>
