<?xml version="1.0" encoding="UTF-8" standalone="no"?>
<!DOCTYPE svg PUBLIC "-//W3C//DTD SVG 1.1//EN"
 "http://www.w3.org/Graphics/SVG/1.1/DTD/svg11.dtd">
<!-- Generated by graphviz version 2.26.3 (20100126.1600)
 -->
<!-- Title: TaskBase.h Pages: 1 -->
<svg width="855pt" height="204pt"
 viewBox="0.00 0.00 854.77 204.00" xmlns="http://www.w3.org/2000/svg" xmlns:xlink="http://www.w3.org/1999/xlink">
<g id="graph1" class="graph" transform="scale(1 1) rotate(0) translate(4 200)">
<title>TaskBase.h</title>
<polygon fill="white" stroke="white" points="-4,5 -4,-200 851.772,-200 851.772,5 -4,5"/>
<!-- Node1 -->
<g id="node1" class="node"><title>Node1</title>
<polygon fill="#bfbfbf" stroke="black" points="196.772,-174.5 196.772,-195.5 268.772,-195.5 268.772,-174.5 196.772,-174.5"/>
<text text-anchor="middle" x="232.772" y="-182.5" font-family="Helvetica,sans-Serif" font-size="10.00">TaskBase.h</text>
</g>
<!-- Node2 -->
<g id="node3" class="node"><title>Node2</title>
<a xlink:href="Common_8h.htm" target="_top" xlink:title="Common.h">
<polygon fill="white" stroke="black" points="61.2722,-0.5 61.2722,-21.5 128.272,-21.5 128.272,-0.5 61.2722,-0.5"/>
<text text-anchor="middle" x="94.7722" y="-8.5" font-family="Helvetica,sans-Serif" font-size="10.00">Common.h</text>
</a>
</g>
<!-- Node1&#45;&gt;Node2 -->
<g id="edge2" class="edge"><title>Node1&#45;&gt;Node2</title>
<path fill="none" stroke="midnightblue" d="M196.695,-181.417C143.775,-175.426 48.7678,-161.647 24.7722,-138 -0.93738,-112.664 -7.48596,-89.1377 10.7722,-58 19.7321,-42.7196 35.6737,-32.0352 51.2791,-24.7606"/>
<polygon fill="midnightblue" stroke="midnightblue" points="53.0627,-27.8049 60.8868,-20.6612 50.3155,-21.3665 53.0627,-27.8049"/>
</g>
<!-- Node3 -->
<g id="node5" class="node"><title>Node3</title>
<polygon fill="white" stroke="#bfbfbf" points="212.272,-0.5 212.272,-21.5 253.272,-21.5 253.272,-0.5 212.272,-0.5"/>
<text text-anchor="middle" x="232.772" y="-8.5" font-family="Helvetica,sans-Serif" font-size="10.00">glib.h</text>
</g>
<!-- Node1&#45;&gt;Node3 -->
<g id="edge4" class="edge"><title>Node1&#45;&gt;Node3</title>
<path fill="none" stroke="midnightblue" d="M269.101,-182.575C400.921,-173.115 842.661,-135.339 771.772,-58 737.26,-20.3471 372.298,-12.7483 263.325,-11.3144"/>
<polygon fill="midnightblue" stroke="midnightblue" points="263.355,-7.81462 253.312,-11.1908 263.268,-14.8141 263.355,-7.81462"/>
</g>
<!-- Node4 -->
<g id="node7" class="node"><title>Node4</title>
<polygon fill="white" stroke="#bfbfbf" points="818.272,-116.5 818.272,-137.5 847.272,-137.5 847.272,-116.5 818.272,-116.5"/>
<text text-anchor="middle" x="832.772" y="-124.5" font-family="Helvetica,sans-Serif" font-size="10.00">list</text>
</g>
<!-- Node1&#45;&gt;Node4 -->
<g id="edge6" class="edge"><title>Node1&#45;&gt;Node4</title>
<path fill="none" stroke="midnightblue" d="M268.923,-183.411C377.9,-178.405 702.012,-161.861 804.772,-138 806.031,-137.708 807.309,-137.369 808.589,-136.996"/>
<polygon fill="midnightblue" stroke="midnightblue" points="809.912,-140.241 818.207,-133.651 807.613,-133.63 809.912,-140.241"/>
</g>
<!-- Node5 -->
<g id="node9" class="node"><title>Node5</title>
<a xlink:href="sptr_8h.htm" target="_top" xlink:title="sptr.h">
<polygon fill="white" stroke="black" points="98.2722,-58.5 98.2722,-79.5 141.272,-79.5 141.272,-58.5 98.2722,-58.5"/>
<text text-anchor="middle" x="119.772" y="-66.5" font-family="Helvetica,sans-Serif" font-size="10.00">sptr.h</text>
</a>
</g>
<!-- Node1&#45;&gt;Node5 -->
<g id="edge8" class="edge"><title>Node1&#45;&gt;Node5</title>
<path fill="none" stroke="midnightblue" d="M222.344,-174.295C202.919,-154.355 161.014,-111.337 137.215,-86.9056"/>
<polygon fill="midnightblue" stroke="midnightblue" points="139.66,-84.4001 130.175,-79.6792 134.646,-89.2846 139.66,-84.4001"/>
</g>
<!-- Node6 -->
<g id="node13" class="node"><title>Node6</title>
<a xlink:href="AsyncCaller_8h.htm" target="_top" xlink:title="AsyncCaller.h">
<polygon fill="white" stroke="black" points="158.272,-58.5 158.272,-79.5 239.272,-79.5 239.272,-58.5 158.272,-58.5"/>
<text text-anchor="middle" x="198.772" y="-66.5" font-family="Helvetica,sans-Serif" font-size="10.00">AsyncCaller.h</text>
</a>
</g>
<!-- Node1&#45;&gt;Node6 -->
<g id="edge14" class="edge"><title>Node1&#45;&gt;Node6</title>
<path fill="none" stroke="midnightblue" d="M227.865,-174.361C223.673,-164.956 217.714,-150.784 213.772,-138 208.869,-122.101 204.949,-103.667 202.348,-89.8537"/>
<polygon fill="midnightblue" stroke="midnightblue" points="205.772,-89.1221 200.55,-79.9035 198.884,-90.3664 205.772,-89.1221"/>
</g>
<!-- Node7 -->
<g id="node17" class="node"><title>Node7</title>
<a xlink:href="Event_8h.htm" target="_top" xlink:title="Event.h">
<polygon fill="white" stroke="black" points="384.772,-116.5 384.772,-137.5 436.772,-137.5 436.772,-116.5 384.772,-116.5"/>
<text text-anchor="middle" x="410.772" y="-124.5" font-family="Helvetica,sans-Serif" font-size="10.00">Event.h</text>
</a>
</g>
<!-- Node1&#45;&gt;Node7 -->
<g id="edge20" class="edge"><title>Node1&#45;&gt;Node7</title>
<path fill="none" stroke="midnightblue" d="M265.007,-174.497C295.924,-164.422 342.527,-149.237 374.674,-138.762"/>
<polygon fill="midnightblue" stroke="midnightblue" points="376.142,-141.965 384.566,-135.539 373.974,-135.309 376.142,-141.965"/>
</g>
<!-- Node13 -->
<g id="node32" class="node"><title>Node13</title>
<a xlink:href="Mutex_8h.htm" target="_top" xlink:title="Mutex.h">
<polygon fill="white" stroke="black" points="33.2722,-116.5 33.2722,-137.5 86.2722,-137.5 86.2722,-116.5 33.2722,-116.5"/>
<text text-anchor="middle" x="59.7722" y="-124.5" font-family="Helvetica,sans-Serif" font-size="10.00">Mutex.h</text>
</a>
</g>
<!-- Node1&#45;&gt;Node13 -->
<g id="edge38" class="edge"><title>Node1&#45;&gt;Node13</title>
<path fill="none" stroke="midnightblue" d="M201.443,-174.497C171.746,-164.54 127.158,-149.592 95.9579,-139.132"/>
<polygon fill="midnightblue" stroke="midnightblue" points="96.9281,-135.766 86.3342,-135.905 94.703,-142.402 96.9281,-135.766"/>
</g>
<!-- Node14 -->
<g id="node37" class="node"><title>Node14</title>
<a xlink:href="SingletonTimer_8h.htm" target="_top" xlink:title="SingletonTimer.h">
<polygon fill="white" stroke="black" points="222.772,-116.5 222.772,-137.5 318.772,-137.5 318.772,-116.5 222.772,-116.5"/>
<text text-anchor="middle" x="270.772" y="-124.5" font-family="Helvetica,sans-Serif" font-size="10.00">SingletonTimer.h</text>
</a>
</g>
<!-- Node1&#45;&gt;Node14 -->
<g id="edge46" class="edge"><title>Node1&#45;&gt;Node14</title>
<path fill="none" stroke="midnightblue" d="M239.742,-174.362C244.938,-166.431 252.173,-155.389 258.35,-145.961"/>
<polygon fill="midnightblue" stroke="midnightblue" points="261.294,-147.853 263.847,-137.571 255.439,-144.017 261.294,-147.853"/>
</g>
<!-- Node5&#45;&gt;Node2 -->
<g id="edge10" class="edge"><title>Node5&#45;&gt;Node2</title>
<path fill="none" stroke="midnightblue" d="M115.187,-58.3619C111.874,-50.6766 107.302,-40.0686 103.324,-30.8399"/>
<polygon fill="midnightblue" stroke="midnightblue" points="106.501,-29.3685 99.3285,-21.5707 100.073,-32.1393 106.501,-29.3685"/>
</g>
<!-- Node5&#45;&gt;Node3 -->
<g id="edge12" class="edge"><title>Node5&#45;&gt;Node3</title>
<path fill="none" stroke="midnightblue" d="M140.236,-58.4966C157.805,-49.4786 183.354,-36.3649 203.157,-26.2006"/>
<polygon fill="midnightblue" stroke="midnightblue" points="204.781,-29.3014 212.079,-21.6212 201.584,-23.0738 204.781,-29.3014"/>
</g>
<!-- Node6&#45;&gt;Node2 -->
<g id="edge16" class="edge"><title>Node6&#45;&gt;Node2</title>
<path fill="none" stroke="midnightblue" d="M179.697,-58.3619C163.717,-49.4502 140.691,-36.6087 122.645,-26.5447"/>
<polygon fill="midnightblue" stroke="midnightblue" points="124.165,-23.3846 113.726,-21.5707 120.755,-29.4982 124.165,-23.3846"/>
</g>
<!-- Node6&#45;&gt;Node3 -->
<g id="edge18" class="edge"><title>Node6&#45;&gt;Node3</title>
<path fill="none" stroke="midnightblue" d="M205.008,-58.3619C209.609,-50.5131 215.997,-39.6159 221.486,-30.2527"/>
<polygon fill="midnightblue" stroke="midnightblue" points="224.538,-31.9677 226.576,-21.5707 218.499,-28.4276 224.538,-31.9677"/>
</g>
<!-- Node7&#45;&gt;Node2 -->
<g id="edge22" class="edge"><title>Node7&#45;&gt;Node2</title>
<path fill="none" stroke="midnightblue" d="M405.21,-116.364C396.485,-100.822 378.038,-72.2158 353.772,-58 318.007,-37.0481 202.881,-22.1899 138.822,-15.3096"/>
<polygon fill="midnightblue" stroke="midnightblue" points="138.933,-11.802 128.621,-14.2351 138.2,-18.7635 138.933,-11.802"/>
</g>
<!-- Node7&#45;&gt;Node3 -->
<g id="edge26" class="edge"><title>Node7&#45;&gt;Node3</title>
<path fill="none" stroke="midnightblue" d="M410.005,-116.3C408.347,-101.204 403.132,-73.7411 386.772,-58 369.067,-40.9643 303.061,-25.1627 263.438,-16.9333"/>
<polygon fill="midnightblue" stroke="midnightblue" points="263.998,-13.4756 253.501,-14.9131 262.603,-20.3353 263.998,-13.4756"/>
</g>
<!-- Node7&#45;&gt;Node5 -->
<g id="edge36" class="edge"><title>Node7&#45;&gt;Node5</title>
<path fill="none" stroke="midnightblue" d="M384.509,-123.804C338.743,-117.91 241.366,-103.925 151.389,-80.1346"/>
<polygon fill="midnightblue" stroke="midnightblue" points="152.152,-76.7154 141.586,-77.4949 150.332,-83.4746 152.152,-76.7154"/>
</g>
<!-- Node8 -->
<g id="node20" class="node"><title>Node8</title>
<polygon fill="white" stroke="#bfbfbf" points="294.772,-58.5 294.772,-79.5 344.772,-79.5 344.772,-58.5 294.772,-58.5"/>
<text text-anchor="middle" x="319.772" y="-66.5" font-family="Helvetica,sans-Serif" font-size="10.00">stdint.h</text>
</g>
<!-- Node7&#45;&gt;Node8 -->
<g id="edge24" class="edge"><title>Node7&#45;&gt;Node8</title>
<path fill="none" stroke="midnightblue" d="M394.081,-116.362C380.356,-107.614 360.689,-95.0786 345.035,-85.1015"/>
<polygon fill="midnightblue" stroke="midnightblue" points="346.671,-81.994 336.357,-79.5707 342.909,-87.8969 346.671,-81.994"/>
</g>
<!-- Node9 -->
<g id="node23" class="node"><title>Node9</title>
<polygon fill="white" stroke="#bfbfbf" points="438.272,-58.5 438.272,-79.5 485.272,-79.5 485.272,-58.5 438.272,-58.5"/>
<text text-anchor="middle" x="461.772" y="-66.5" font-family="Helvetica,sans-Serif" font-size="10.00">stdio.h</text>
</g>
<!-- Node7&#45;&gt;Node9 -->
<g id="edge28" class="edge"><title>Node7&#45;&gt;Node9</title>
<path fill="none" stroke="midnightblue" d="M420.126,-116.362C427.315,-108.186 437.413,-96.7025 445.865,-87.0907"/>
<polygon fill="midnightblue" stroke="midnightblue" points="448.502,-89.3916 452.477,-79.5707 443.245,-84.7692 448.502,-89.3916"/>
</g>
<!-- Node10 -->
<g id="node25" class="node"><title>Node10</title>
<polygon fill="white" stroke="#bfbfbf" points="502.272,-58.5 502.272,-79.5 553.272,-79.5 553.272,-58.5 502.272,-58.5"/>
<text text-anchor="middle" x="527.772" y="-66.5" font-family="Helvetica,sans-Serif" font-size="10.00">string.h</text>
</g>
<!-- Node7&#45;&gt;Node10 -->
<g id="edge30" class="edge"><title>Node7&#45;&gt;Node10</title>
<path fill="none" stroke="midnightblue" d="M431.96,-116.497C450.234,-107.438 476.845,-94.2462 497.387,-84.0628"/>
<polygon fill="midnightblue" stroke="midnightblue" points="498.942,-87.1986 506.347,-79.6212 495.833,-80.9269 498.942,-87.1986"/>
</g>
<!-- Node11 -->
<g id="node27" class="node"><title>Node11</title>
<polygon fill="white" stroke="#bfbfbf" points="570.772,-58.5 570.772,-79.5 656.772,-79.5 656.772,-58.5 570.772,-58.5"/>
<text text-anchor="middle" x="613.772" y="-66.5" font-family="Helvetica,sans-Serif" font-size="10.00">qnamespace.h</text>
</g>
<!-- Node7&#45;&gt;Node11 -->
<g id="edge32" class="edge"><title>Node7&#45;&gt;Node11</title>
<path fill="none" stroke="midnightblue" d="M436.895,-119.536C469.739,-110.152 526.706,-93.876 567.109,-82.3325"/>
<polygon fill="midnightblue" stroke="midnightblue" points="568.088,-85.6927 576.742,-79.5801 566.165,-78.9621 568.088,-85.6927"/>
</g>
<!-- Node12 -->
<g id="node29" class="node"><title>Node12</title>
<polygon fill="white" stroke="#bfbfbf" points="674.772,-58.5 674.772,-79.5 762.772,-79.5 762.772,-58.5 674.772,-58.5"/>
<text text-anchor="middle" x="718.772" y="-66.5" font-family="Helvetica,sans-Serif" font-size="10.00">SysMgrEvent.h</text>
</g>
<!-- Node7&#45;&gt;Node12 -->
<g id="edge34" class="edge"><title>Node7&#45;&gt;Node12</title>
<path fill="none" stroke="midnightblue" d="M436.872,-122.388C481.409,-114.476 575.178,-97.6323 664.515,-80.2177"/>
<polygon fill="midnightblue" stroke="midnightblue" points="665.398,-83.6114 674.541,-78.2572 664.055,-76.7415 665.398,-83.6114"/>
</g>
<!-- Node13&#45;&gt;Node2 -->
<g id="edge40" class="edge"><title>Node13&#45;&gt;Node2</title>
<path fill="none" stroke="midnightblue" d="M45.6573,-116.35C29.6229,-102.886 7.10394,-78.9351 18.7722,-58 26.6406,-43.8826 40.6912,-33.4717 54.5892,-26.0886"/>
<polygon fill="midnightblue" stroke="midnightblue" points="56.188,-29.2029 63.6337,-21.6655 53.1127,-22.9146 56.188,-29.2029"/>
</g>
<!-- Node13&#45;&gt;Node3 -->
<g id="edge44" class="edge"><title>Node13&#45;&gt;Node3</title>
<path fill="none" stroke="midnightblue" d="M61.5916,-116.303C64.7095,-101.21 72.4914,-73.7506 89.7722,-58 121.18,-29.373 170.388,-18.1502 202.108,-13.7717"/>
<polygon fill="midnightblue" stroke="midnightblue" points="202.648,-17.2317 212.144,-12.5339 201.791,-10.2844 202.648,-17.2317"/>
</g>
<!-- Node13&#45;&gt;Node5 -->
<g id="edge42" class="edge"><title>Node13&#45;&gt;Node5</title>
<path fill="none" stroke="midnightblue" d="M70.7771,-116.362C79.3194,-108.104 91.3523,-96.4725 101.355,-86.8029"/>
<polygon fill="midnightblue" stroke="midnightblue" points="104.08,-89.0374 108.837,-79.5707 99.2145,-84.0044 104.08,-89.0374"/>
</g>
<!-- Node14&#45;&gt;Node2 -->
<g id="edge48" class="edge"><title>Node14&#45;&gt;Node2</title>
<path fill="none" stroke="midnightblue" d="M222.434,-121.121C174.491,-114.179 105.911,-100.865 89.7722,-80 79.2467,-66.3924 82.0647,-46.4114 86.5895,-31.4489"/>
<polygon fill="midnightblue" stroke="midnightblue" points="90.0347,-32.1985 90.0196,-21.6037 83.4244,-29.8955 90.0347,-32.1985"/>
</g>
<!-- Node14&#45;&gt;Node3 -->
<g id="edge50" class="edge"><title>Node14&#45;&gt;Node3</title>
<path fill="none" stroke="midnightblue" d="M267.265,-116.295C260.959,-97.0451 247.608,-56.2889 239.491,-31.5091"/>
<polygon fill="midnightblue" stroke="midnightblue" points="242.71,-30.0927 236.271,-21.6792 236.058,-32.2719 242.71,-30.0927"/>
</g>
<!-- Node14&#45;&gt;Node8 -->
<g id="edge52" class="edge"><title>Node14&#45;&gt;Node8</title>
<path fill="none" stroke="midnightblue" d="M279.76,-116.362C286.598,-108.268 296.175,-96.9318 304.245,-87.3796"/>
<polygon fill="midnightblue" stroke="midnightblue" points="307.062,-89.4683 310.842,-79.5707 301.715,-84.9508 307.062,-89.4683"/>
</g>
</g>
</svg>
