<?xml version="1.0" encoding="UTF-8" standalone="no"?>
<!DOCTYPE svg PUBLIC "-//W3C//DTD SVG 1.1//EN"
 "http://www.w3.org/Graphics/SVG/1.1/DTD/svg11.dtd">
<!-- Generated by graphviz version 2.26.3 (20100126.1600)
 -->
<!-- Title: Time.h Pages: 1 -->
<svg width="253pt" height="146pt"
 viewBox="0.00 0.00 253.00 146.00" xmlns="http://www.w3.org/2000/svg" xmlns:xlink="http://www.w3.org/1999/xlink">
<g id="graph1" class="graph" transform="scale(1 1) rotate(0) translate(4 142)">
<title>Time.h</title>
<polygon fill="white" stroke="white" points="-4,5 -4,-142 250,-142 250,5 -4,5"/>
<!-- Node1 -->
<g id="node1" class="node"><title>Node1</title>
<polygon fill="#bfbfbf" stroke="black" points="115,-116.5 115,-137.5 163,-137.5 163,-116.5 115,-116.5"/>
<text text-anchor="middle" x="139" y="-124.5" font-family="Helvetica,sans-Serif" font-size="10.00">Time.h</text>
</g>
<!-- Node2 -->
<g id="node3" class="node"><title>Node2</title>
<a xlink:href="FlickGestureRecognizer_8cpp.htm" target="_top" xlink:title="FlickGestureRecognizer.cpp">
<polygon fill="white" stroke="black" points="-0.5,-58.5 -0.5,-79.5 148.5,-79.5 148.5,-58.5 -0.5,-58.5"/>
<text text-anchor="middle" x="74" y="-66.5" font-family="Helvetica,sans-Serif" font-size="10.00">FlickGestureRecognizer.cpp</text>
</a>
</g>
<!-- Node1&#45;&gt;Node2 -->
<g id="edge2" class="edge"><title>Node1&#45;&gt;Node2</title>
<path fill="none" stroke="midnightblue" d="M119.602,-109.691C108.629,-99.8996 95.2628,-87.973 85.8464,-79.5707"/>
<polygon fill="midnightblue" stroke="midnightblue" points="117.286,-112.315 127.078,-116.362 121.947,-107.092 117.286,-112.315"/>
</g>
<!-- Node3 -->
<g id="node5" class="node"><title>Node3</title>
<a xlink:href="HostArm_8cpp.htm" target="_top" xlink:title="HostArm.cpp">
<polygon fill="white" stroke="black" points="165.5,-58.5 165.5,-79.5 242.5,-79.5 242.5,-58.5 165.5,-58.5"/>
<text text-anchor="middle" x="204" y="-66.5" font-family="Helvetica,sans-Serif" font-size="10.00">HostArm.cpp</text>
</a>
</g>
<!-- Node1&#45;&gt;Node3 -->
<g id="edge4" class="edge"><title>Node1&#45;&gt;Node3</title>
<path fill="none" stroke="midnightblue" d="M158.398,-109.691C169.371,-99.8996 182.737,-87.973 192.154,-79.5707"/>
<polygon fill="midnightblue" stroke="midnightblue" points="156.053,-107.092 150.922,-116.362 160.714,-112.315 156.053,-107.092"/>
</g>
<!-- Node4 -->
<g id="node7" class="node"><title>Node4</title>
<a xlink:href="HostBase_8cpp.htm" target="_top" xlink:title="HostBase.cpp">
<polygon fill="white" stroke="black" points="163,-0.5 163,-21.5 245,-21.5 245,-0.5 163,-0.5"/>
<text text-anchor="middle" x="204" y="-8.5" font-family="Helvetica,sans-Serif" font-size="10.00">HostBase.cpp</text>
</a>
</g>
<!-- Node3&#45;&gt;Node4 -->
<g id="edge6" class="edge"><title>Node3&#45;&gt;Node4</title>
<path fill="none" stroke="midnightblue" d="M204,-48.1906C204,-39.1684 204,-28.9941 204,-21.5707"/>
<polygon fill="midnightblue" stroke="midnightblue" points="200.5,-48.3619 204,-58.3619 207.5,-48.3619 200.5,-48.3619"/>
</g>
</g>
</svg>
