<?xml version="1.0" encoding="UTF-8" standalone="no"?>
<!DOCTYPE svg PUBLIC "-//W3C//DTD SVG 1.1//EN"
 "http://www.w3.org/Graphics/SVG/1.1/DTD/svg11.dtd">
<!-- Generated by graphviz version 2.26.3 (20100126.1600)
 -->
<!-- Title: Timer.cpp Pages: 1 -->
<svg width="228pt" height="146pt"
 viewBox="0.00 0.00 228.00 146.00" xmlns="http://www.w3.org/2000/svg" xmlns:xlink="http://www.w3.org/1999/xlink">
<g id="graph1" class="graph" transform="scale(1 1) rotate(0) translate(4 142)">
<title>Timer.cpp</title>
<polygon fill="white" stroke="white" points="-4,5 -4,-142 225,-142 225,5 -4,5"/>
<!-- Node1 -->
<g id="node1" class="node"><title>Node1</title>
<polygon fill="#bfbfbf" stroke="black" points="48.5,-116.5 48.5,-137.5 111.5,-137.5 111.5,-116.5 48.5,-116.5"/>
<text text-anchor="middle" x="80" y="-124.5" font-family="Helvetica,sans-Serif" font-size="10.00">Timer.cpp</text>
</g>
<!-- Node2 -->
<g id="node3" class="node"><title>Node2</title>
<a xlink:href="Common_8h.htm" target="_top" xlink:title="Common.h">
<polygon fill="white" stroke="black" points="-0.5,-0.5 -0.5,-21.5 66.5,-21.5 66.5,-0.5 -0.5,-0.5"/>
<text text-anchor="middle" x="33" y="-8.5" font-family="Helvetica,sans-Serif" font-size="10.00">Common.h</text>
</a>
</g>
<!-- Node1&#45;&gt;Node2 -->
<g id="edge2" class="edge"><title>Node1&#45;&gt;Node2</title>
<path fill="none" stroke="midnightblue" d="M69.7443,-116.348C61.7171,-107.38 50.9485,-93.8322 45,-80 38.4048,-64.6641 35.4322,-45.9312 34.0935,-31.8561"/>
<polygon fill="midnightblue" stroke="midnightblue" points="37.5715,-31.4304 33.3322,-21.7207 30.5911,-31.9548 37.5715,-31.4304"/>
</g>
<!-- Node3 -->
<g id="node5" class="node"><title>Node3</title>
<a xlink:href="SingletonTimer_8h.htm" target="_top" xlink:title="SingletonTimer.h">
<polygon fill="white" stroke="black" points="124,-58.5 124,-79.5 220,-79.5 220,-58.5 124,-58.5"/>
<text text-anchor="middle" x="172" y="-66.5" font-family="Helvetica,sans-Serif" font-size="10.00">SingletonTimer.h</text>
</a>
</g>
<!-- Node1&#45;&gt;Node3 -->
<g id="edge4" class="edge"><title>Node1&#45;&gt;Node3</title>
<path fill="none" stroke="midnightblue" d="M96.8742,-116.362C110.751,-107.614 130.634,-95.0786 146.46,-85.1015"/>
<polygon fill="midnightblue" stroke="midnightblue" points="148.64,-87.8645 155.233,-79.5707 144.907,-81.943 148.64,-87.8645"/>
</g>
<!-- Node6 -->
<g id="node12" class="node"><title>Node6</title>
<a xlink:href="Timer_8h.htm" target="_top" xlink:title="Timer.h">
<polygon fill="white" stroke="black" points="54,-58.5 54,-79.5 106,-79.5 106,-58.5 54,-58.5"/>
<text text-anchor="middle" x="80" y="-66.5" font-family="Helvetica,sans-Serif" font-size="10.00">Timer.h</text>
</a>
</g>
<!-- Node1&#45;&gt;Node6 -->
<g id="edge12" class="edge"><title>Node1&#45;&gt;Node6</title>
<path fill="none" stroke="midnightblue" d="M80,-116.362C80,-108.922 80,-98.7427 80,-89.7276"/>
<polygon fill="midnightblue" stroke="midnightblue" points="83.5001,-89.5706 80,-79.5707 76.5001,-89.5707 83.5001,-89.5706"/>
</g>
<!-- Node3&#45;&gt;Node2 -->
<g id="edge6" class="edge"><title>Node3&#45;&gt;Node2</title>
<path fill="none" stroke="midnightblue" d="M146.828,-58.4966C124.727,-49.2746 92.3613,-35.7695 67.7866,-25.5153"/>
<polygon fill="midnightblue" stroke="midnightblue" points="69.0309,-22.2421 58.4543,-21.6212 66.3353,-28.7022 69.0309,-22.2421"/>
</g>
<!-- Node4 -->
<g id="node8" class="node"><title>Node4</title>
<polygon fill="white" stroke="#bfbfbf" points="151.5,-0.5 151.5,-21.5 192.5,-21.5 192.5,-0.5 151.5,-0.5"/>
<text text-anchor="middle" x="172" y="-8.5" font-family="Helvetica,sans-Serif" font-size="10.00">glib.h</text>
</g>
<!-- Node3&#45;&gt;Node4 -->
<g id="edge8" class="edge"><title>Node3&#45;&gt;Node4</title>
<path fill="none" stroke="midnightblue" d="M172,-58.3619C172,-50.9219 172,-40.7427 172,-31.7276"/>
<polygon fill="midnightblue" stroke="midnightblue" points="175.5,-31.5706 172,-21.5707 168.5,-31.5707 175.5,-31.5706"/>
</g>
<!-- Node5 -->
<g id="node10" class="node"><title>Node5</title>
<polygon fill="white" stroke="#bfbfbf" points="84,-0.5 84,-21.5 134,-21.5 134,-0.5 84,-0.5"/>
<text text-anchor="middle" x="109" y="-8.5" font-family="Helvetica,sans-Serif" font-size="10.00">stdint.h</text>
</g>
<!-- Node3&#45;&gt;Node5 -->
<g id="edge10" class="edge"><title>Node3&#45;&gt;Node5</title>
<path fill="none" stroke="midnightblue" d="M160.445,-58.3619C151.387,-50.0226 138.59,-38.2418 128.026,-28.5162"/>
<polygon fill="midnightblue" stroke="midnightblue" points="130.21,-25.7688 120.482,-21.5707 125.468,-30.9187 130.21,-25.7688"/>
</g>
<!-- Node6&#45;&gt;Node2 -->
<g id="edge14" class="edge"><title>Node6&#45;&gt;Node2</title>
<path fill="none" stroke="midnightblue" d="M71.3795,-58.3619C64.8205,-50.2678 55.6344,-38.9318 47.8938,-29.3796"/>
<polygon fill="midnightblue" stroke="midnightblue" points="50.581,-27.1364 41.5659,-21.5707 45.1425,-31.5436 50.581,-27.1364"/>
</g>
<!-- Node6&#45;&gt;Node4 -->
<g id="edge16" class="edge"><title>Node6&#45;&gt;Node4</title>
<path fill="none" stroke="midnightblue" d="M96.8742,-58.3619C110.751,-49.6138 130.634,-37.0786 146.46,-27.1015"/>
<polygon fill="midnightblue" stroke="midnightblue" points="148.64,-29.8645 155.233,-21.5707 144.907,-23.943 148.64,-29.8645"/>
</g>
<!-- Node6&#45;&gt;Node5 -->
<g id="edge18" class="edge"><title>Node6&#45;&gt;Node5</title>
<path fill="none" stroke="midnightblue" d="M85.319,-58.3619C89.2026,-50.5949 94.5787,-39.8426 99.2271,-30.5458"/>
<polygon fill="midnightblue" stroke="midnightblue" points="102.373,-32.0802 103.715,-21.5707 96.112,-28.9497 102.373,-32.0802"/>
</g>
</g>
</svg>
