<?xml version="1.0" encoding="UTF-8" standalone="no"?>
<!DOCTYPE svg PUBLIC "-//W3C//DTD SVG 1.1//EN"
 "http://www.w3.org/Graphics/SVG/1.1/DTD/svg11.dtd">
<!-- Generated by graphviz version 2.26.3 (20100126.1600)
 -->
<!-- Title: Time.h Pages: 1 -->
<svg width="284pt" height="88pt"
 viewBox="0.00 0.00 284.00 88.00" xmlns="http://www.w3.org/2000/svg" xmlns:xlink="http://www.w3.org/1999/xlink">
<g id="graph1" class="graph" transform="scale(1 1) rotate(0) translate(4 84)">
<title>Time.h</title>
<polygon fill="white" stroke="white" points="-4,5 -4,-84 281,-84 281,5 -4,5"/>
<!-- Node1 -->
<g id="node1" class="node"><title>Node1</title>
<polygon fill="#bfbfbf" stroke="black" points="126,-58.5 126,-79.5 174,-79.5 174,-58.5 126,-58.5"/>
<text text-anchor="middle" x="150" y="-66.5" font-family="Helvetica,sans-Serif" font-size="10.00">Time.h</text>
</g>
<!-- Node2 -->
<g id="node3" class="node"><title>Node2</title>
<a xlink:href="Common_8h.htm" target="_top" xlink:title="Common.h">
<polygon fill="white" stroke="black" points="-0.5,-0.5 -0.5,-21.5 66.5,-21.5 66.5,-0.5 -0.5,-0.5"/>
<text text-anchor="middle" x="33" y="-8.5" font-family="Helvetica,sans-Serif" font-size="10.00">Common.h</text>
</a>
</g>
<!-- Node1&#45;&gt;Node2 -->
<g id="edge2" class="edge"><title>Node1&#45;&gt;Node2</title>
<path fill="none" stroke="midnightblue" d="M128.812,-58.4966C110.538,-49.4378 83.9276,-36.2462 63.3852,-26.0628"/>
<polygon fill="midnightblue" stroke="midnightblue" points="64.9396,-22.9269 54.4256,-21.6212 61.8306,-29.1986 64.9396,-22.9269"/>
</g>
<!-- Node3 -->
<g id="node5" class="node"><title>Node3</title>
<polygon fill="white" stroke="#bfbfbf" points="83.5,-0.5 83.5,-21.5 146.5,-21.5 146.5,-0.5 83.5,-0.5"/>
<text text-anchor="middle" x="115" y="-8.5" font-family="Helvetica,sans-Serif" font-size="10.00">sys/time.h</text>
</g>
<!-- Node1&#45;&gt;Node3 -->
<g id="edge4" class="edge"><title>Node1&#45;&gt;Node3</title>
<path fill="none" stroke="midnightblue" d="M143.58,-58.3619C138.844,-50.5131 132.268,-39.6159 126.618,-30.2527"/>
<polygon fill="midnightblue" stroke="midnightblue" points="129.542,-28.3242 121.379,-21.5707 123.549,-31.9409 129.542,-28.3242"/>
</g>
<!-- Node4 -->
<g id="node7" class="node"><title>Node4</title>
<polygon fill="white" stroke="#bfbfbf" points="164,-0.5 164,-21.5 208,-21.5 208,-0.5 164,-0.5"/>
<text text-anchor="middle" x="186" y="-8.5" font-family="Helvetica,sans-Serif" font-size="10.00">time.h</text>
</g>
<!-- Node1&#45;&gt;Node4 -->
<g id="edge6" class="edge"><title>Node1&#45;&gt;Node4</title>
<path fill="none" stroke="midnightblue" d="M156.603,-58.3619C161.475,-50.5131 168.238,-39.6159 174.05,-30.2527"/>
<polygon fill="midnightblue" stroke="midnightblue" points="177.139,-31.9129 179.439,-21.5707 171.191,-28.2213 177.139,-31.9129"/>
</g>
<!-- Node5 -->
<g id="node9" class="node"><title>Node5</title>
<polygon fill="white" stroke="#bfbfbf" points="226,-0.5 226,-21.5 276,-21.5 276,-0.5 226,-0.5"/>
<text text-anchor="middle" x="251" y="-8.5" font-family="Helvetica,sans-Serif" font-size="10.00">stdint.h</text>
</g>
<!-- Node1&#45;&gt;Node5 -->
<g id="edge8" class="edge"><title>Node1&#45;&gt;Node5</title>
<path fill="none" stroke="midnightblue" d="M168.525,-58.3619C183.901,-49.532 205.996,-36.844 223.447,-26.8224"/>
<polygon fill="midnightblue" stroke="midnightblue" points="225.664,-29.5857 232.592,-21.5707 222.178,-23.5154 225.664,-29.5857"/>
</g>
</g>
</svg>
