<?xml version="1.0" encoding="UTF-8" standalone="no"?>
<!DOCTYPE svg PUBLIC "-//W3C//DTD SVG 1.1//EN"
 "http://www.w3.org/Graphics/SVG/1.1/DTD/svg11.dtd">
<!-- Generated by graphviz version 2.26.3 (20100126.1600)
 -->
<!-- Title: Utils.cpp Pages: 1 -->
<svg width="1383pt" height="146pt"
 viewBox="0.00 0.00 1383.00 146.00" xmlns="http://www.w3.org/2000/svg" xmlns:xlink="http://www.w3.org/1999/xlink">
<g id="graph1" class="graph" transform="scale(1 1) rotate(0) translate(4 142)">
<title>Utils.cpp</title>
<polygon fill="white" stroke="white" points="-4,5 -4,-142 1380,-142 1380,5 -4,5"/>
<!-- Node1 -->
<g id="node1" class="node"><title>Node1</title>
<polygon fill="#bfbfbf" stroke="black" points="600,-116.5 600,-137.5 656,-137.5 656,-116.5 600,-116.5"/>
<text text-anchor="middle" x="628" y="-124.5" font-family="Helvetica,sans-Serif" font-size="10.00">Utils.cpp</text>
</g>
<!-- Node2 -->
<g id="node3" class="node"><title>Node2</title>
<a xlink:href="Common_8h.htm" target="_top" xlink:title="Common.h">
<polygon fill="white" stroke="black" points="-0.5,-0.5 -0.5,-21.5 66.5,-21.5 66.5,-0.5 -0.5,-0.5"/>
<text text-anchor="middle" x="33" y="-8.5" font-family="Helvetica,sans-Serif" font-size="10.00">Common.h</text>
</a>
</g>
<!-- Node1&#45;&gt;Node2 -->
<g id="edge2" class="edge"><title>Node1&#45;&gt;Node2</title>
<path fill="none" stroke="midnightblue" d="M599.795,-125.65C511.643,-121.201 242.247,-105.792 159,-80 120.554,-68.0884 80.5074,-43.7739 56.1573,-27.4279"/>
<polygon fill="midnightblue" stroke="midnightblue" points="57.8595,-24.3519 47.6294,-21.5958 53.9079,-30.1299 57.8595,-24.3519"/>
</g>
<!-- Node3 -->
<g id="node5" class="node"><title>Node3</title>
<polygon fill="white" stroke="#bfbfbf" points="328.5,-58.5 328.5,-79.5 375.5,-79.5 375.5,-58.5 328.5,-58.5"/>
<text text-anchor="middle" x="352" y="-66.5" font-family="Helvetica,sans-Serif" font-size="10.00">stdio.h</text>
</g>
<!-- Node1&#45;&gt;Node3 -->
<g id="edge4" class="edge"><title>Node1&#45;&gt;Node3</title>
<path fill="none" stroke="midnightblue" d="M599.9,-122.907C555.938,-116.22 468.134,-101.73 385.446,-80.143"/>
<polygon fill="midnightblue" stroke="midnightblue" points="386.214,-76.7258 375.651,-77.5454 384.42,-83.4919 386.214,-76.7258"/>
</g>
<!-- Node4 -->
<g id="node7" class="node"><title>Node4</title>
<polygon fill="white" stroke="#bfbfbf" points="392.5,-58.5 392.5,-79.5 443.5,-79.5 443.5,-58.5 392.5,-58.5"/>
<text text-anchor="middle" x="418" y="-66.5" font-family="Helvetica,sans-Serif" font-size="10.00">string.h</text>
</g>
<!-- Node1&#45;&gt;Node4 -->
<g id="edge6" class="edge"><title>Node1&#45;&gt;Node4</title>
<path fill="none" stroke="midnightblue" d="M599.831,-119.958C566.879,-111.617 510.475,-97.0157 453.47,-80.3449"/>
<polygon fill="midnightblue" stroke="midnightblue" points="454.157,-76.8986 443.576,-77.4317 452.18,-83.6136 454.157,-76.8986"/>
</g>
<!-- Node5 -->
<g id="node9" class="node"><title>Node5</title>
<polygon fill="white" stroke="#bfbfbf" points="460.5,-58.5 460.5,-79.5 509.5,-79.5 509.5,-58.5 460.5,-58.5"/>
<text text-anchor="middle" x="485" y="-66.5" font-family="Helvetica,sans-Serif" font-size="10.00">stdlib.h</text>
</g>
<!-- Node1&#45;&gt;Node5 -->
<g id="edge8" class="edge"><title>Node1&#45;&gt;Node5</title>
<path fill="none" stroke="midnightblue" d="M602.104,-116.497C578.838,-107.06 544.515,-93.139 519.037,-82.8052"/>
<polygon fill="midnightblue" stroke="midnightblue" points="520.329,-79.5524 509.747,-79.0371 517.698,-86.0391 520.329,-79.5524"/>
</g>
<!-- Node6 -->
<g id="node11" class="node"><title>Node6</title>
<polygon fill="white" stroke="#bfbfbf" points="526.5,-58.5 526.5,-79.5 579.5,-79.5 579.5,-58.5 526.5,-58.5"/>
<text text-anchor="middle" x="553" y="-66.5" font-family="Helvetica,sans-Serif" font-size="10.00">unistd.h</text>
</g>
<!-- Node1&#45;&gt;Node6 -->
<g id="edge10" class="edge"><title>Node1&#45;&gt;Node6</title>
<path fill="none" stroke="midnightblue" d="M614.244,-116.362C603.249,-107.859 587.627,-95.7785 574.914,-85.9466"/>
<polygon fill="midnightblue" stroke="midnightblue" points="576.721,-82.9195 566.669,-79.5707 572.438,-88.4569 576.721,-82.9195"/>
</g>
<!-- Node7 -->
<g id="node13" class="node"><title>Node7</title>
<polygon fill="white" stroke="#bfbfbf" points="84,-0.5 84,-21.5 128,-21.5 128,-0.5 84,-0.5"/>
<text text-anchor="middle" x="106" y="-8.5" font-family="Helvetica,sans-Serif" font-size="10.00">time.h</text>
</g>
<!-- Node1&#45;&gt;Node7 -->
<g id="edge12" class="edge"><title>Node1&#45;&gt;Node7</title>
<path fill="none" stroke="midnightblue" d="M599.783,-125.704C517.159,-121.622 276.987,-107.633 204,-80 173.148,-68.3194 142.924,-44.643 124.382,-28.3085"/>
<polygon fill="midnightblue" stroke="midnightblue" points="126.722,-25.7054 116.954,-21.6019 122.031,-30.9011 126.722,-25.7054"/>
</g>
<!-- Node8 -->
<g id="node15" class="node"><title>Node8</title>
<polygon fill="white" stroke="#bfbfbf" points="596.5,-58.5 596.5,-79.5 659.5,-79.5 659.5,-58.5 596.5,-58.5"/>
<text text-anchor="middle" x="628" y="-66.5" font-family="Helvetica,sans-Serif" font-size="10.00">sys/time.h</text>
</g>
<!-- Node1&#45;&gt;Node8 -->
<g id="edge14" class="edge"><title>Node1&#45;&gt;Node8</title>
<path fill="none" stroke="midnightblue" d="M628,-116.362C628,-108.922 628,-98.7427 628,-89.7276"/>
<polygon fill="midnightblue" stroke="midnightblue" points="631.5,-89.5706 628,-79.5707 624.5,-89.5707 631.5,-89.5706"/>
</g>
<!-- Node9 -->
<g id="node17" class="node"><title>Node9</title>
<polygon fill="white" stroke="#bfbfbf" points="677,-58.5 677,-79.5 739,-79.5 739,-58.5 677,-58.5"/>
<text text-anchor="middle" x="708" y="-66.5" font-family="Helvetica,sans-Serif" font-size="10.00">sys/wait.h</text>
</g>
<!-- Node1&#45;&gt;Node9 -->
<g id="edge16" class="edge"><title>Node1&#45;&gt;Node9</title>
<path fill="none" stroke="midnightblue" d="M642.673,-116.362C654.514,-107.777 671.385,-95.5459 685.016,-85.6636"/>
<polygon fill="midnightblue" stroke="midnightblue" points="687.378,-88.274 693.42,-79.5707 683.269,-82.6067 687.378,-88.274"/>
</g>
<!-- Node10 -->
<g id="node19" class="node"><title>Node10</title>
<polygon fill="white" stroke="#bfbfbf" points="756.5,-58.5 756.5,-79.5 825.5,-79.5 825.5,-58.5 756.5,-58.5"/>
<text text-anchor="middle" x="791" y="-66.5" font-family="Helvetica,sans-Serif" font-size="10.00">sys/types.h</text>
</g>
<!-- Node1&#45;&gt;Node10 -->
<g id="edge18" class="edge"><title>Node1&#45;&gt;Node10</title>
<path fill="none" stroke="midnightblue" d="M656.021,-117.029C682.435,-107.63 722.269,-93.4565 751.824,-82.9398"/>
<polygon fill="midnightblue" stroke="midnightblue" points="753.171,-86.1756 761.419,-79.5257 750.824,-79.5807 753.171,-86.1756"/>
</g>
<!-- Node11 -->
<g id="node21" class="node"><title>Node11</title>
<polygon fill="white" stroke="#bfbfbf" points="842.5,-58.5 842.5,-79.5 903.5,-79.5 903.5,-58.5 842.5,-58.5"/>
<text text-anchor="middle" x="873" y="-66.5" font-family="Helvetica,sans-Serif" font-size="10.00">sys/stat.h</text>
</g>
<!-- Node1&#45;&gt;Node11 -->
<g id="edge20" class="edge"><title>Node1&#45;&gt;Node11</title>
<path fill="none" stroke="midnightblue" d="M656.097,-121.061C693.988,-112.951 763.785,-97.6521 832.289,-80.3589"/>
<polygon fill="midnightblue" stroke="midnightblue" points="833.553,-83.649 842.383,-77.7936 831.829,-76.8647 833.553,-83.649"/>
</g>
<!-- Node12 -->
<g id="node23" class="node"><title>Node12</title>
<polygon fill="white" stroke="#bfbfbf" points="145.5,-0.5 145.5,-21.5 186.5,-21.5 186.5,-0.5 145.5,-0.5"/>
<text text-anchor="middle" x="166" y="-8.5" font-family="Helvetica,sans-Serif" font-size="10.00">glib.h</text>
</g>
<!-- Node1&#45;&gt;Node12 -->
<g id="edge22" class="edge"><title>Node1&#45;&gt;Node12</title>
<path fill="none" stroke="midnightblue" d="M599.788,-125.841C521.694,-122.28 304.212,-109.877 240,-80 215.544,-68.6206 193.801,-46.0653 180.316,-29.8365"/>
<polygon fill="midnightblue" stroke="midnightblue" points="182.691,-27.2024 173.709,-21.5825 177.226,-31.5767 182.691,-27.2024"/>
</g>
<!-- Node13 -->
<g id="node25" class="node"><title>Node13</title>
<polygon fill="white" stroke="#bfbfbf" points="921,-58.5 921,-79.5 993,-79.5 993,-58.5 921,-58.5"/>
<text text-anchor="middle" x="957" y="-66.5" font-family="Helvetica,sans-Serif" font-size="10.00">cjson/json.h</text>
</g>
<!-- Node1&#45;&gt;Node13 -->
<g id="edge24" class="edge"><title>Node1&#45;&gt;Node13</title>
<path fill="none" stroke="midnightblue" d="M656.347,-123.035C705.943,-115.943 811.857,-100.104 910.841,-80.1312"/>
<polygon fill="midnightblue" stroke="midnightblue" points="911.604,-83.5478 920.704,-78.1224 910.207,-76.6886 911.604,-83.5478"/>
</g>
<!-- Node14 -->
<g id="node27" class="node"><title>Node14</title>
<polygon fill="white" stroke="#bfbfbf" points="1010.5,-58.5 1010.5,-79.5 1101.5,-79.5 1101.5,-58.5 1010.5,-58.5"/>
<text text-anchor="middle" x="1056" y="-66.5" font-family="Helvetica,sans-Serif" font-size="10.00">cjson/json_util.h</text>
</g>
<!-- Node1&#45;&gt;Node14 -->
<g id="edge26" class="edge"><title>Node1&#45;&gt;Node14</title>
<path fill="none" stroke="midnightblue" d="M656.256,-124.19C717.255,-117.966 865.998,-101.939 1000.32,-80.1901"/>
<polygon fill="midnightblue" stroke="midnightblue" points="1001.08,-83.6138 1010.38,-78.5465 999.946,-76.7055 1001.08,-83.6138"/>
</g>
<!-- Node15 -->
<g id="node29" class="node"><title>Node15</title>
<polygon fill="white" stroke="#bfbfbf" points="1119,-58.5 1119,-79.5 1179,-79.5 1179,-58.5 1119,-58.5"/>
<text text-anchor="middle" x="1149" y="-66.5" font-family="Helvetica,sans-Serif" font-size="10.00">algorithm</text>
</g>
<!-- Node1&#45;&gt;Node15 -->
<g id="edge28" class="edge"><title>Node1&#45;&gt;Node15</title>
<path fill="none" stroke="midnightblue" d="M656.227,-125.999C729.515,-123.031 931.885,-112.48 1108.88,-79.9327"/>
<polygon fill="midnightblue" stroke="midnightblue" points="1109.7,-83.3396 1118.89,-78.0631 1108.42,-76.4586 1109.7,-83.3396"/>
</g>
<!-- Node16 -->
<g id="node31" class="node"><title>Node16</title>
<polygon fill="white" stroke="#bfbfbf" points="1197,-58.5 1197,-79.5 1241,-79.5 1241,-58.5 1197,-58.5"/>
<text text-anchor="middle" x="1219" y="-66.5" font-family="Helvetica,sans-Serif" font-size="10.00">fcntl.h</text>
</g>
<!-- Node1&#45;&gt;Node16 -->
<g id="edge30" class="edge"><title>Node1&#45;&gt;Node16</title>
<path fill="none" stroke="midnightblue" d="M656.166,-125.596C752.065,-120.67 1066.15,-103.308 1186.8,-79.7096"/>
<polygon fill="midnightblue" stroke="midnightblue" points="1187.76,-83.0845 1196.85,-77.6305 1186.35,-76.2297 1187.76,-83.0845"/>
</g>
<!-- Node17 -->
<g id="node33" class="node"><title>Node17</title>
<polygon fill="white" stroke="#bfbfbf" points="1258.5,-58.5 1258.5,-79.5 1299.5,-79.5 1299.5,-58.5 1258.5,-58.5"/>
<text text-anchor="middle" x="1279" y="-66.5" font-family="Helvetica,sans-Serif" font-size="10.00">QFile</text>
</g>
<!-- Node1&#45;&gt;Node17 -->
<g id="edge32" class="edge"><title>Node1&#45;&gt;Node17</title>
<path fill="none" stroke="midnightblue" d="M656.332,-125.939C759.508,-121.91 1115.65,-106.539 1248.4,-79.7787"/>
<polygon fill="midnightblue" stroke="midnightblue" points="1249.26,-83.1737 1258.31,-77.664 1247.8,-76.3278 1249.26,-83.1737"/>
</g>
<!-- Node18 -->
<g id="node35" class="node"><title>Node18</title>
<polygon fill="white" stroke="#bfbfbf" points="203.5,-0.5 203.5,-21.5 274.5,-21.5 274.5,-0.5 203.5,-0.5"/>
<text text-anchor="middle" x="239" y="-8.5" font-family="Helvetica,sans-Serif" font-size="10.00">QByteArray</text>
</g>
<!-- Node1&#45;&gt;Node18 -->
<g id="edge34" class="edge"><title>Node1&#45;&gt;Node18</title>
<path fill="none" stroke="midnightblue" d="M599.823,-125.208C517.872,-119.753 283.778,-102.347 258,-80 244.326,-68.146 240.061,-47.4457 238.925,-31.8021"/>
<polygon fill="midnightblue" stroke="midnightblue" points="242.412,-31.3738 238.561,-21.5037 235.417,-31.6211 242.412,-31.3738"/>
</g>
<!-- Node19 -->
<g id="node37" class="node"><title>Node19</title>
<polygon fill="white" stroke="#bfbfbf" points="1317,-58.5 1317,-79.5 1375,-79.5 1375,-58.5 1317,-58.5"/>
<text text-anchor="middle" x="1346" y="-66.5" font-family="Helvetica,sans-Serif" font-size="10.00">QtDebug</text>
</g>
<!-- Node1&#45;&gt;Node19 -->
<g id="edge36" class="edge"><title>Node1&#45;&gt;Node19</title>
<path fill="none" stroke="midnightblue" d="M656.191,-125.853C765.27,-121.292 1160.4,-103.621 1306.6,-79.8739"/>
<polygon fill="midnightblue" stroke="midnightblue" points="1307.42,-83.2849 1316.69,-78.1537 1306.24,-76.3845 1307.42,-83.2849"/>
</g>
<!-- Node20 -->
<g id="node39" class="node"><title>Node20</title>
<a xlink:href="Utils_8h.htm" target="_top" xlink:title="Utils.h">
<polygon fill="white" stroke="black" points="266.5,-58.5 266.5,-79.5 311.5,-79.5 311.5,-58.5 266.5,-58.5"/>
<text text-anchor="middle" x="289" y="-66.5" font-family="Helvetica,sans-Serif" font-size="10.00">Utils.h</text>
</a>
</g>
<!-- Node1&#45;&gt;Node20 -->
<g id="edge38" class="edge"><title>Node1&#45;&gt;Node20</title>
<path fill="none" stroke="midnightblue" d="M599.617,-124.485C546.549,-119.396 428.671,-106.271 321.535,-80.0476"/>
<polygon fill="midnightblue" stroke="midnightblue" points="322.085,-76.5775 311.535,-77.5532 320.39,-83.3694 322.085,-76.5775"/>
</g>
<!-- Node20&#45;&gt;Node2 -->
<g id="edge40" class="edge"><title>Node20&#45;&gt;Node2</title>
<path fill="none" stroke="midnightblue" d="M266.441,-64.355C229.028,-56.5854 151.564,-40.2195 76.9286,-22.4089"/>
<polygon fill="midnightblue" stroke="midnightblue" points="77.4374,-18.9317 66.8967,-20.0019 75.8041,-25.7385 77.4374,-18.9317"/>
</g>
<!-- Node20&#45;&gt;Node7 -->
<g id="edge42" class="edge"><title>Node20&#45;&gt;Node7</title>
<path fill="none" stroke="midnightblue" d="M266.245,-62.2822C238.189,-53.9306 188.841,-39.0198 137.849,-22.2022"/>
<polygon fill="midnightblue" stroke="midnightblue" points="138.907,-18.8656 128.313,-19.0409 136.704,-25.51 138.907,-18.8656"/>
</g>
<!-- Node20&#45;&gt;Node12 -->
<g id="edge60" class="edge"><title>Node20&#45;&gt;Node12</title>
<path fill="none" stroke="midnightblue" d="M266.726,-58.4966C246.946,-49.1695 217.875,-35.4612 196.042,-25.166"/>
<polygon fill="midnightblue" stroke="midnightblue" points="197.416,-21.9445 186.878,-20.8451 194.43,-28.2759 197.416,-21.9445"/>
</g>
<!-- Node20&#45;&gt;Node18 -->
<g id="edge54" class="edge"><title>Node20&#45;&gt;Node18</title>
<path fill="none" stroke="midnightblue" d="M279.829,-58.3619C272.852,-50.2678 263.079,-38.9318 254.844,-29.3796"/>
<polygon fill="midnightblue" stroke="midnightblue" points="257.293,-26.8595 248.113,-21.5707 251.991,-31.4301 257.293,-26.8595"/>
</g>
<!-- Node21 -->
<g id="node43" class="node"><title>Node21</title>
<polygon fill="white" stroke="#bfbfbf" points="453.5,-0.5 453.5,-21.5 496.5,-21.5 496.5,-0.5 453.5,-0.5"/>
<text text-anchor="middle" x="475" y="-8.5" font-family="Helvetica,sans-Serif" font-size="10.00">string</text>
</g>
<!-- Node20&#45;&gt;Node21 -->
<g id="edge44" class="edge"><title>Node20&#45;&gt;Node21</title>
<path fill="none" stroke="midnightblue" d="M311.633,-60.7907C314.442,-59.8245 317.281,-58.8729 320,-58 372.143,-41.2572 388.354,-40.049 443.797,-22.2481"/>
<polygon fill="midnightblue" stroke="midnightblue" points="445.006,-25.5355 453.434,-19.1154 442.842,-18.8784 445.006,-25.5355"/>
</g>
<!-- Node22 -->
<g id="node45" class="node"><title>Node22</title>
<polygon fill="white" stroke="#bfbfbf" points="514,-0.5 514,-21.5 560,-21.5 560,-0.5 514,-0.5"/>
<text text-anchor="middle" x="537" y="-8.5" font-family="Helvetica,sans-Serif" font-size="10.00">vector</text>
</g>
<!-- Node20&#45;&gt;Node22 -->
<g id="edge46" class="edge"><title>Node20&#45;&gt;Node22</title>
<path fill="none" stroke="midnightblue" d="M311.563,-60.5562C314.384,-59.6302 317.246,-58.7522 320,-58 397.807,-36.752 422.279,-43.1343 503.989,-21.9986"/>
<polygon fill="midnightblue" stroke="midnightblue" points="504.925,-25.3712 513.697,-19.4291 503.134,-18.6042 504.925,-25.3712"/>
</g>
<!-- Node23 -->
<g id="node47" class="node"><title>Node23</title>
<polygon fill="white" stroke="#bfbfbf" points="578,-0.5 578,-21.5 632,-21.5 632,-0.5 578,-0.5"/>
<text text-anchor="middle" x="605" y="-8.5" font-family="Helvetica,sans-Serif" font-size="10.00">sstream</text>
</g>
<!-- Node20&#45;&gt;Node23 -->
<g id="edge48" class="edge"><title>Node20&#45;&gt;Node23</title>
<path fill="none" stroke="midnightblue" d="M311.53,-60.4257C314.356,-59.5221 317.228,-58.6851 320,-58 425.477,-31.9328 458.043,-45.5797 568.162,-21.9045"/>
<polygon fill="midnightblue" stroke="midnightblue" points="568.98,-25.3083 577.992,-19.7374 567.473,-18.4725 568.98,-25.3083"/>
</g>
<!-- Node24 -->
<g id="node49" class="node"><title>Node24</title>
<polygon fill="white" stroke="#bfbfbf" points="649.5,-0.5 649.5,-21.5 706.5,-21.5 706.5,-0.5 649.5,-0.5"/>
<text text-anchor="middle" x="678" y="-8.5" font-family="Helvetica,sans-Serif" font-size="10.00">iostream</text>
</g>
<!-- Node20&#45;&gt;Node24 -->
<g id="edge50" class="edge"><title>Node20&#45;&gt;Node24</title>
<path fill="none" stroke="midnightblue" d="M311.509,-60.3396C314.339,-59.4508 317.217,-58.6408 320,-58 456.757,-26.508 498.445,-49.4829 639.557,-22.0097"/>
<polygon fill="midnightblue" stroke="midnightblue" points="640.323,-25.4259 649.443,-20.0348 638.952,-18.5615 640.323,-25.4259"/>
</g>
<!-- Node25 -->
<g id="node51" class="node"><title>Node25</title>
<polygon fill="white" stroke="#bfbfbf" points="724,-0.5 724,-21.5 776,-21.5 776,-0.5 724,-0.5"/>
<text text-anchor="middle" x="750" y="-8.5" font-family="Helvetica,sans-Serif" font-size="10.00">regex.h</text>
</g>
<!-- Node20&#45;&gt;Node25 -->
<g id="edge52" class="edge"><title>Node20&#45;&gt;Node25</title>
<path fill="none" stroke="midnightblue" d="M311.836,-60.1783C314.559,-59.3411 317.323,-58.5873 320,-58 488.994,-20.9305 540.255,-55.2995 713.808,-21.87"/>
<polygon fill="midnightblue" stroke="midnightblue" points="714.651,-25.2712 723.784,-19.9004 713.295,-18.4037 714.651,-25.2712"/>
</g>
<!-- Node26 -->
<g id="node54" class="node"><title>Node26</title>
<polygon fill="white" stroke="#bfbfbf" points="292,-0.5 292,-21.5 330,-21.5 330,-0.5 292,-0.5"/>
<text text-anchor="middle" x="311" y="-8.5" font-family="Helvetica,sans-Serif" font-size="10.00">QUrl</text>
</g>
<!-- Node20&#45;&gt;Node26 -->
<g id="edge56" class="edge"><title>Node20&#45;&gt;Node26</title>
<path fill="none" stroke="midnightblue" d="M293.035,-58.3619C295.919,-50.7584 299.888,-40.294 303.363,-31.1349"/>
<polygon fill="midnightblue" stroke="midnightblue" points="306.716,-32.1619 306.99,-21.5707 300.171,-29.6793 306.716,-32.1619"/>
</g>
<!-- Node27 -->
<g id="node56" class="node"><title>Node27</title>
<polygon fill="white" stroke="#bfbfbf" points="348,-0.5 348,-21.5 436,-21.5 436,-0.5 348,-0.5"/>
<text text-anchor="middle" x="392" y="-8.5" font-family="Helvetica,sans-Serif" font-size="10.00">QGraphicsItem</text>
</g>
<!-- Node20&#45;&gt;Node27 -->
<g id="edge58" class="edge"><title>Node20&#45;&gt;Node27</title>
<path fill="none" stroke="midnightblue" d="M307.892,-58.3619C323.718,-49.4502 346.523,-36.6087 364.395,-26.5447"/>
<polygon fill="midnightblue" stroke="midnightblue" points="366.232,-29.5271 373.228,-21.5707 362.797,-23.4276 366.232,-29.5271"/>
</g>
</g>
</svg>
