<?xml version="1.0" encoding="UTF-8" standalone="no"?>
<!DOCTYPE svg PUBLIC "-//W3C//DTD SVG 1.1//EN"
 "http://www.w3.org/Graphics/SVG/1.1/DTD/svg11.dtd">
<!-- Generated by graphviz version 2.26.3 (20100126.1600)
 -->
<!-- Title: Utils.h Pages: 1 -->
<svg width="784pt" height="88pt"
 viewBox="0.00 0.00 784.00 88.00" xmlns="http://www.w3.org/2000/svg" xmlns:xlink="http://www.w3.org/1999/xlink">
<g id="graph1" class="graph" transform="scale(1 1) rotate(0) translate(4 84)">
<title>Utils.h</title>
<polygon fill="white" stroke="white" points="-4,5 -4,-84 781,-84 781,5 -4,5"/>
<!-- Node1 -->
<g id="node1" class="node"><title>Node1</title>
<polygon fill="#bfbfbf" stroke="black" points="347.5,-58.5 347.5,-79.5 392.5,-79.5 392.5,-58.5 347.5,-58.5"/>
<text text-anchor="middle" x="370" y="-66.5" font-family="Helvetica,sans-Serif" font-size="10.00">Utils.h</text>
</g>
<!-- Node2 -->
<g id="node3" class="node"><title>Node2</title>
<a xlink:href="Common_8h.htm" target="_top" xlink:title="Common.h">
<polygon fill="white" stroke="black" points="-0.5,-0.5 -0.5,-21.5 66.5,-21.5 66.5,-0.5 -0.5,-0.5"/>
<text text-anchor="middle" x="33" y="-8.5" font-family="Helvetica,sans-Serif" font-size="10.00">Common.h</text>
</a>
</g>
<!-- Node1&#45;&gt;Node2 -->
<g id="edge2" class="edge"><title>Node1&#45;&gt;Node2</title>
<path fill="none" stroke="midnightblue" d="M347.285,-66.1551C299.123,-59.959 183.058,-44.1607 76.7808,-22.243"/>
<polygon fill="midnightblue" stroke="midnightblue" points="77.3624,-18.7891 66.8583,-20.1725 75.9325,-25.6415 77.3624,-18.7891"/>
</g>
<!-- Node3 -->
<g id="node5" class="node"><title>Node3</title>
<polygon fill="white" stroke="#bfbfbf" points="84,-0.5 84,-21.5 128,-21.5 128,-0.5 84,-0.5"/>
<text text-anchor="middle" x="106" y="-8.5" font-family="Helvetica,sans-Serif" font-size="10.00">time.h</text>
</g>
<!-- Node1&#45;&gt;Node3 -->
<g id="edge4" class="edge"><title>Node1&#45;&gt;Node3</title>
<path fill="none" stroke="midnightblue" d="M347.256,-65.5148C306.915,-59.1 220.098,-44.2459 138.191,-22.0562"/>
<polygon fill="midnightblue" stroke="midnightblue" points="138.801,-18.5938 128.23,-19.3138 136.943,-25.3427 138.801,-18.5938"/>
</g>
<!-- Node4 -->
<g id="node7" class="node"><title>Node4</title>
<polygon fill="white" stroke="#bfbfbf" points="145.5,-0.5 145.5,-21.5 188.5,-21.5 188.5,-0.5 145.5,-0.5"/>
<text text-anchor="middle" x="167" y="-8.5" font-family="Helvetica,sans-Serif" font-size="10.00">string</text>
</g>
<!-- Node1&#45;&gt;Node4 -->
<g id="edge6" class="edge"><title>Node1&#45;&gt;Node4</title>
<path fill="none" stroke="midnightblue" d="M347.425,-63.528C315.974,-55.7635 257.028,-40.702 198.346,-22.2649"/>
<polygon fill="midnightblue" stroke="midnightblue" points="199.144,-18.8459 188.553,-19.155 197.025,-25.5175 199.144,-18.8459"/>
</g>
<!-- Node5 -->
<g id="node9" class="node"><title>Node5</title>
<polygon fill="white" stroke="#bfbfbf" points="206,-0.5 206,-21.5 252,-21.5 252,-0.5 206,-0.5"/>
<text text-anchor="middle" x="229" y="-8.5" font-family="Helvetica,sans-Serif" font-size="10.00">vector</text>
</g>
<!-- Node1&#45;&gt;Node5 -->
<g id="edge8" class="edge"><title>Node1&#45;&gt;Node5</title>
<path fill="none" stroke="midnightblue" d="M347.346,-59.6813C324.153,-50.1407 287.878,-35.2193 261.6,-24.4099"/>
<polygon fill="midnightblue" stroke="midnightblue" points="262.646,-21.0557 252.066,-20.4883 259.983,-27.5294 262.646,-21.0557"/>
</g>
<!-- Node6 -->
<g id="node11" class="node"><title>Node6</title>
<polygon fill="white" stroke="#bfbfbf" points="270,-0.5 270,-21.5 324,-21.5 324,-0.5 270,-0.5"/>
<text text-anchor="middle" x="297" y="-8.5" font-family="Helvetica,sans-Serif" font-size="10.00">sstream</text>
</g>
<!-- Node1&#45;&gt;Node6 -->
<g id="edge10" class="edge"><title>Node1&#45;&gt;Node6</title>
<path fill="none" stroke="midnightblue" d="M356.611,-58.3619C345.909,-49.859 330.704,-37.7785 318.329,-27.9466"/>
<polygon fill="midnightblue" stroke="midnightblue" points="320.311,-25.0511 310.304,-21.5707 315.957,-30.5318 320.311,-25.0511"/>
</g>
<!-- Node7 -->
<g id="node13" class="node"><title>Node7</title>
<polygon fill="white" stroke="#bfbfbf" points="341.5,-0.5 341.5,-21.5 398.5,-21.5 398.5,-0.5 341.5,-0.5"/>
<text text-anchor="middle" x="370" y="-8.5" font-family="Helvetica,sans-Serif" font-size="10.00">iostream</text>
</g>
<!-- Node1&#45;&gt;Node7 -->
<g id="edge12" class="edge"><title>Node1&#45;&gt;Node7</title>
<path fill="none" stroke="midnightblue" d="M370,-58.3619C370,-50.9219 370,-40.7427 370,-31.7276"/>
<polygon fill="midnightblue" stroke="midnightblue" points="373.5,-31.5706 370,-21.5707 366.5,-31.5707 373.5,-31.5706"/>
</g>
<!-- Node8 -->
<g id="node15" class="node"><title>Node8</title>
<polygon fill="white" stroke="#bfbfbf" points="416,-0.5 416,-21.5 468,-21.5 468,-0.5 416,-0.5"/>
<text text-anchor="middle" x="442" y="-8.5" font-family="Helvetica,sans-Serif" font-size="10.00">regex.h</text>
</g>
<!-- Node1&#45;&gt;Node8 -->
<g id="edge14" class="edge"><title>Node1&#45;&gt;Node8</title>
<path fill="none" stroke="midnightblue" d="M383.206,-58.3619C393.761,-49.859 408.758,-37.7785 420.963,-27.9466"/>
<polygon fill="midnightblue" stroke="midnightblue" points="423.286,-30.5696 428.878,-21.5707 418.895,-25.1183 423.286,-30.5696"/>
</g>
<!-- Node9 -->
<g id="node17" class="node"><title>Node9</title>
<polygon fill="white" stroke="#bfbfbf" points="485.5,-0.5 485.5,-21.5 556.5,-21.5 556.5,-0.5 485.5,-0.5"/>
<text text-anchor="middle" x="521" y="-8.5" font-family="Helvetica,sans-Serif" font-size="10.00">QByteArray</text>
</g>
<!-- Node1&#45;&gt;Node9 -->
<g id="edge16" class="edge"><title>Node1&#45;&gt;Node9</title>
<path fill="none" stroke="midnightblue" d="M392.606,-60.3168C416.746,-51.0447 455.383,-36.204 483.974,-25.222"/>
<polygon fill="midnightblue" stroke="midnightblue" points="485.548,-28.3668 493.628,-21.5139 483.038,-21.8323 485.548,-28.3668"/>
</g>
<!-- Node10 -->
<g id="node19" class="node"><title>Node10</title>
<polygon fill="white" stroke="#bfbfbf" points="574,-0.5 574,-21.5 612,-21.5 612,-0.5 574,-0.5"/>
<text text-anchor="middle" x="593" y="-8.5" font-family="Helvetica,sans-Serif" font-size="10.00">QUrl</text>
</g>
<!-- Node1&#45;&gt;Node10 -->
<g id="edge18" class="edge"><title>Node1&#45;&gt;Node10</title>
<path fill="none" stroke="midnightblue" d="M392.797,-64.5702C427.766,-57.5496 496.847,-42.7902 563.962,-22.0331"/>
<polygon fill="midnightblue" stroke="midnightblue" points="565.354,-25.2642 573.845,-18.9273 563.256,-18.5862 565.354,-25.2642"/>
</g>
<!-- Node11 -->
<g id="node21" class="node"><title>Node11</title>
<polygon fill="white" stroke="#bfbfbf" points="630,-0.5 630,-21.5 718,-21.5 718,-0.5 630,-0.5"/>
<text text-anchor="middle" x="674" y="-8.5" font-family="Helvetica,sans-Serif" font-size="10.00">QGraphicsItem</text>
</g>
<!-- Node1&#45;&gt;Node11 -->
<g id="edge20" class="edge"><title>Node1&#45;&gt;Node11</title>
<path fill="none" stroke="midnightblue" d="M392.528,-64.9341C434.957,-57.2437 529.853,-39.8894 619.941,-22.1842"/>
<polygon fill="midnightblue" stroke="midnightblue" points="620.632,-25.6154 629.767,-20.2478 619.279,-18.7474 620.632,-25.6154"/>
</g>
<!-- Node12 -->
<g id="node23" class="node"><title>Node12</title>
<polygon fill="white" stroke="#bfbfbf" points="735.5,-0.5 735.5,-21.5 776.5,-21.5 776.5,-0.5 735.5,-0.5"/>
<text text-anchor="middle" x="756" y="-8.5" font-family="Helvetica,sans-Serif" font-size="10.00">glib.h</text>
</g>
<!-- Node1&#45;&gt;Node12 -->
<g id="edge22" class="edge"><title>Node1&#45;&gt;Node12</title>
<path fill="none" stroke="midnightblue" d="M392.898,-67.8254C448.61,-64.5829 595.612,-53.7172 725.187,-22.0385"/>
<polygon fill="midnightblue" stroke="midnightblue" points="726.422,-25.3377 735.276,-19.5201 724.726,-18.5461 726.422,-25.3377"/>
</g>
</g>
</svg>
