<?xml version="1.0" encoding="UTF-8" standalone="no"?>
<!DOCTYPE svg PUBLIC "-//W3C//DTD SVG 1.1//EN"
 "http://www.w3.org/Graphics/SVG/1.1/DTD/svg11.dtd">
<!-- Generated by graphviz version 2.26.3 (20100126.1600)
 -->
<!-- Title: Utils.h Pages: 1 -->
<svg width="440pt" height="88pt"
 viewBox="0.00 0.00 440.00 88.00" xmlns="http://www.w3.org/2000/svg" xmlns:xlink="http://www.w3.org/1999/xlink">
<g id="graph1" class="graph" transform="scale(1 1) rotate(0) translate(4 84)">
<title>Utils.h</title>
<polygon fill="white" stroke="white" points="-4,5 -4,-84 437,-84 437,5 -4,5"/>
<!-- Node1 -->
<g id="node1" class="node"><title>Node1</title>
<polygon fill="#bfbfbf" stroke="black" points="249.5,-58.5 249.5,-79.5 294.5,-79.5 294.5,-58.5 249.5,-58.5"/>
<text text-anchor="middle" x="272" y="-66.5" font-family="Helvetica,sans-Serif" font-size="10.00">Utils.h</text>
</g>
<!-- Node2 -->
<g id="node3" class="node"><title>Node2</title>
<a xlink:href="ApplicationDescriptionBase_8cpp.htm" target="_top" xlink:title="ApplicationDescriptionBase.cpp">
<polygon fill="white" stroke="black" points="-0.5,-0.5 -0.5,-21.5 164.5,-21.5 164.5,-0.5 -0.5,-0.5"/>
<text text-anchor="middle" x="82" y="-8.5" font-family="Helvetica,sans-Serif" font-size="10.00">ApplicationDescriptionBase.cpp</text>
</a>
</g>
<!-- Node1&#45;&gt;Node2 -->
<g id="edge2" class="edge"><title>Node1&#45;&gt;Node2</title>
<path fill="none" stroke="midnightblue" d="M239.517,-59.0841C205.339,-48.651 151.747,-32.291 116.742,-21.6054"/>
<polygon fill="midnightblue" stroke="midnightblue" points="238.872,-62.5467 249.458,-62.1189 240.916,-55.8517 238.872,-62.5467"/>
</g>
<!-- Node3 -->
<g id="node5" class="node"><title>Node3</title>
<a xlink:href="JSONUtils_8cpp.htm" target="_top" xlink:title="JSONUtils.cpp">
<polygon fill="white" stroke="black" points="182,-0.5 182,-21.5 266,-21.5 266,-0.5 182,-0.5"/>
<text text-anchor="middle" x="224" y="-8.5" font-family="Helvetica,sans-Serif" font-size="10.00">JSONUtils.cpp</text>
</a>
</g>
<!-- Node1&#45;&gt;Node3 -->
<g id="edge4" class="edge"><title>Node1&#45;&gt;Node3</title>
<path fill="none" stroke="midnightblue" d="M256.723,-50.5407C248.81,-40.9786 239.432,-29.6467 232.748,-21.5707"/>
<polygon fill="midnightblue" stroke="midnightblue" points="254.124,-52.8894 263.196,-58.3619 259.517,-48.4264 254.124,-52.8894"/>
</g>
<!-- Node4 -->
<g id="node7" class="node"><title>Node4</title>
<a xlink:href="Settings_8cpp.htm" target="_top" xlink:title="Settings.cpp">
<polygon fill="white" stroke="black" points="284,-0.5 284,-21.5 358,-21.5 358,-0.5 284,-0.5"/>
<text text-anchor="middle" x="321" y="-8.5" font-family="Helvetica,sans-Serif" font-size="10.00">Settings.cpp</text>
</a>
</g>
<!-- Node1&#45;&gt;Node4 -->
<g id="edge6" class="edge"><title>Node1&#45;&gt;Node4</title>
<path fill="none" stroke="midnightblue" d="M287.595,-50.5407C295.673,-40.9786 305.247,-29.6467 312.07,-21.5707"/>
<polygon fill="midnightblue" stroke="midnightblue" points="284.767,-48.4643 280.987,-58.3619 290.115,-52.9818 284.767,-48.4643"/>
</g>
<!-- Node5 -->
<g id="node9" class="node"><title>Node5</title>
<a xlink:href="Utils_8cpp.htm" target="_top" xlink:title="Utils.cpp">
<polygon fill="white" stroke="black" points="376,-0.5 376,-21.5 432,-21.5 432,-0.5 376,-0.5"/>
<text text-anchor="middle" x="404" y="-8.5" font-family="Helvetica,sans-Serif" font-size="10.00">Utils.cpp</text>
</a>
</g>
<!-- Node1&#45;&gt;Node5 -->
<g id="edge8" class="edge"><title>Node1&#45;&gt;Node5</title>
<path fill="none" stroke="midnightblue" d="M303.856,-55.0026C327.227,-44.7334 358.482,-31.0005 379.819,-21.6249"/>
<polygon fill="midnightblue" stroke="midnightblue" points="302.439,-51.8023 294.692,-59.0294 305.255,-58.211 302.439,-51.8023"/>
</g>
</g>
</svg>
